<?xml version="1.0" encoding="utf-8"?>
<!-- Generator: Adobe Illustrator 20.1.0, SVG Export Plug-In . SVG Version: 6.00 Build 0)  -->
<svg version="1.1" id="圖層_1" xmlns="http://www.w3.org/2000/svg" xmlns:xlink="http://www.w3.org/1999/xlink" x="0px" y="0px"
	 viewBox="0 0 1920 1080" enable-background="new 0 0 1920 1080" xml:space="preserve">
<g>
	<g opacity="0.46">
		<path fill="#FFFFFF" stroke="#000000" stroke-width="1.9215" stroke-miterlimit="10" d="M1556.18,211.89
			c-1.61-0.57-2.57-0.68-2.57-0.68s-3.88-2.31-7.14-2.5c-3.26-0.19-7.42-0.27-11.9,0.75c-4.48,1.02-71.99,16.98-71.99,16.98
			l-35.64-3.99c0,0-1.42-0.35-3.33,0.06c-1.91,0.41-5.85,1.55-5.85,1.55s-2.73,0.69-0.13,1.33c2.6,0.64,25.28,5.84,25.28,5.84
			l-16.89,3.97c0,0-3.8-0.06-4.7-0.2c-0.89-0.14-1.79-0.38-1.79-0.38l-26.35-15.87c0,0-0.95-0.97-2.75-0.56
			c-1.8,0.42-5.68,1.43-5.68,1.43l15.13,24.12l-17.21-0.89l-5.3,1.13l17.66,2.98c0,0-3.09,1.97-0.98,2.65
			c2.12,0.67,37.02,0.41,37.02,0.41s5.21-0.17,11.22-1.53c6.02-1.36,26.25-5.88,26.25-5.88l-0.41,0.43c0,0-2.37-0.17-2.3,2.11
			c0.05,1.64,2.41,2.28,3.51,1.8c0.52-0.23,0.75-0.43,0.99-0.9c0.24-0.47,0.18-1.15,0.18-1.15l0.52-0.07c0,0,0.08,0.2,0.27,0.36
			c0.19,0.15,0.23,0.21,0.23,0.21s-0.95,0.76-0.77,1.59c0.19,0.83,0.69,1.37,1.68,1.62c0.99,0.24,1.94-0.26,2.24-0.8
			c0.3-0.54,0.18-1.06,0.18-1.06l0.51-0.11c0,0,0.69,1.37,2.16,1.11c1.07-0.18,1.85-0.76,1.72-2.06c-0.08-0.88-0.97-1.69-2-1.71
			c-0.61-0.01-1.19,0.32-1.19,0.32l-0.05-3.27l6.09-1.51l0.17,0.73l-0.64,0.29l0.51,2.44l0.74,0.13c0,0-0.01,0.86,0.83,0.82
			c0.84-0.04,2.98-0.15,2.98-0.15l0.2,0.21c0,0,3.49-0.04,7.38-0.97c3.89-0.93,3.8-1.01,3.96-1.62c0.17-0.61-0.67-5.45-0.67-5.45
			l34.34-7.83c0,0,9.07-2.19,10.01-2.5c0.94-0.32,3.25-1.24,3.25-1.24l0.83,1.45l0.3-0.07l0.51,2.42c0,0-1.39,1.02-0.82,1.92
			c0.57,0.9,1.68,1.05,2.57,0.2c0.89-0.85,0.81-1.56,0.37-2.07c-0.44-0.51-1.38-0.38-1.38-0.38l-0.32-1.25l0.52-1.56l1.13-0.57
			l-0.04-0.18l0.69-0.32l-0.53-1.34c0,0,6.41-3.39,8.57-5.66C1559.7,214.67,1559.81,213.18,1556.18,211.89z M1468.67,243.16
			l0.65-0.52l0.13,0.16l-0.55,0.46L1468.67,243.16z M1470.35,244.29l-0.11,0.02c0,0-0.12-0.24-0.33-0.49
			c-0.21-0.25-0.59-0.39-0.59-0.39l0.35-0.33l0.42,0L1470.35,244.29z M1473.57,242.05c0,0-0.39-0.24-1.09-0.12
			c-0.66,0.11-0.66,0.23-0.66,0.25l0,0l0,0l-0.05-0.22l1.7-0.36L1473.57,242.05z M1474.68,246.23c0,0-0.03-0.11-0.1-0.27
			c-0.07-0.16-0.17-0.22-0.17-0.22l0.23-0.05L1474.68,246.23z M1475.43,243.95c0.01,0.09,0.01,0.12,0.01,0.12L1475.43,243.95
			c-0.01-0.07-0.03-0.17-0.06-0.32c-0.08-0.35-0.23-0.69-0.23-0.69l-0.35-1.63l0.48-0.1L1475.43,243.95z M1546.99,226.07l-0.14-0.65
			l0.41-0.28L1546.99,226.07z"/>
		<g>
			<path fill="#0A080C" d="M1533.6,216.99l-0.05,0.01c-0.28,0.06-0.55-0.11-0.62-0.38l-0.14-0.58c-0.06-0.28,0.11-0.55,0.38-0.62
				l0.05-0.01c0.28-0.06,0.55,0.11,0.62,0.38l0.14,0.58C1534.05,216.64,1533.87,216.92,1533.6,216.99z"/>
			<path fill="#0A080C" d="M1531.74,217.42l-0.05,0.01c-0.28,0.06-0.55-0.11-0.62-0.38l-0.14-0.58c-0.06-0.28,0.11-0.55,0.38-0.62
				l0.05-0.01c0.28-0.06,0.55,0.11,0.62,0.38l0.14,0.58C1532.18,217.08,1532.01,217.36,1531.74,217.42z"/>
			<path fill="#0A080C" d="M1529.87,217.86l-0.05,0.01c-0.28,0.06-0.55-0.11-0.62-0.38l-0.14-0.58c-0.06-0.28,0.11-0.55,0.38-0.62
				l0.05-0.01c0.28-0.06,0.55,0.11,0.62,0.38l0.14,0.58C1530.32,217.51,1530.15,217.79,1529.87,217.86z"/>
			<path fill="#0A080C" d="M1528.01,218.29l-0.05,0.01c-0.28,0.06-0.55-0.11-0.62-0.38l-0.14-0.58c-0.06-0.28,0.11-0.55,0.38-0.62
				l0.05-0.01c0.28-0.06,0.55,0.11,0.62,0.38l0.14,0.58C1528.46,217.95,1528.29,218.23,1528.01,218.29z"/>
			<path fill="#0A080C" d="M1526.15,218.73l-0.05,0.01c-0.28,0.06-0.55-0.11-0.62-0.38l-0.14-0.58c-0.06-0.28,0.11-0.55,0.38-0.62
				l0.05-0.01c0.28-0.06,0.55,0.11,0.62,0.38l0.14,0.58C1526.6,218.39,1526.43,218.66,1526.15,218.73z"/>
			<path fill="#0A080C" d="M1524.29,219.16l-0.05,0.01c-0.28,0.06-0.55-0.11-0.62-0.38l-0.14-0.58c-0.06-0.28,0.11-0.55,0.38-0.62
				l0.05-0.01c0.28-0.06,0.55,0.11,0.62,0.38l0.14,0.58C1524.74,218.82,1524.56,219.1,1524.29,219.16z"/>
			<path fill="#0A080C" d="M1522.43,219.6l-0.05,0.01c-0.28,0.06-0.55-0.11-0.62-0.38l-0.14-0.58c-0.06-0.28,0.11-0.55,0.38-0.62
				l0.05-0.01c0.28-0.06,0.55,0.11,0.62,0.38l0.14,0.58C1522.87,219.26,1522.7,219.53,1522.43,219.6z"/>
			<path fill="#0A080C" d="M1520.56,220.03l-0.05,0.01c-0.28,0.06-0.55-0.11-0.62-0.38l-0.14-0.58c-0.06-0.28,0.11-0.55,0.38-0.62
				l0.05-0.01c0.28-0.06,0.55,0.11,0.62,0.38l0.14,0.58C1521.01,219.69,1520.84,219.97,1520.56,220.03z"/>
			<path fill="#0A080C" d="M1518.7,220.47l-0.05,0.01c-0.28,0.06-0.55-0.11-0.62-0.38l-0.14-0.58c-0.06-0.28,0.11-0.55,0.38-0.62
				l0.05-0.01c0.28-0.06,0.55,0.11,0.62,0.38l0.14,0.58C1519.15,220.13,1518.98,220.41,1518.7,220.47z"/>
			<path fill="#0A080C" d="M1516.84,220.91l-0.05,0.01c-0.28,0.06-0.55-0.11-0.62-0.38l-0.14-0.58c-0.06-0.28,0.11-0.55,0.38-0.62
				l0.05-0.01c0.28-0.06,0.55,0.11,0.62,0.38l0.14,0.58C1517.29,220.56,1517.12,220.84,1516.84,220.91z"/>
			<path fill="#0A080C" d="M1514.98,221.34l-0.05,0.01c-0.28,0.06-0.55-0.11-0.62-0.38l-0.14-0.58c-0.06-0.28,0.11-0.55,0.38-0.62
				l0.05-0.01c0.28-0.06,0.55,0.11,0.62,0.38l0.14,0.58C1515.43,221,1515.25,221.28,1514.98,221.34z"/>
			<path fill="#0A080C" d="M1513.11,221.78l-0.05,0.01c-0.28,0.06-0.55-0.11-0.62-0.38l-0.14-0.58c-0.06-0.28,0.11-0.55,0.38-0.62
				l0.05-0.01c0.28-0.06,0.55,0.11,0.62,0.38l0.14,0.58C1513.56,221.43,1513.39,221.71,1513.11,221.78z"/>
			<path fill="#0A080C" d="M1511.25,222.21l-0.05,0.01c-0.28,0.06-0.55-0.11-0.62-0.38l-0.14-0.58c-0.06-0.28,0.11-0.55,0.38-0.62
				l0.05-0.01c0.28-0.06,0.55,0.11,0.62,0.38l0.14,0.58C1511.7,221.87,1511.53,222.15,1511.25,222.21z"/>
			<path fill="#0A080C" d="M1494.49,226.13l-0.05,0.01c-0.28,0.06-0.55-0.11-0.62-0.38l-0.14-0.58c-0.06-0.28,0.11-0.55,0.38-0.62
				l0.05-0.01c0.28-0.06,0.55,0.11,0.62,0.38l0.14,0.58C1494.94,225.79,1494.77,226.06,1494.49,226.13z"/>
			<path fill="#0A080C" d="M1492.63,226.56l-0.05,0.01c-0.28,0.06-0.55-0.11-0.62-0.38l-0.14-0.58c-0.06-0.28,0.11-0.55,0.38-0.62
				l0.05-0.01c0.28-0.06,0.55,0.11,0.62,0.38l0.14,0.58C1493.08,226.22,1492.91,226.5,1492.63,226.56z"/>
			<path fill="#0A080C" d="M1490.77,227l-0.05,0.01c-0.28,0.06-0.55-0.11-0.62-0.38l-0.14-0.58c-0.06-0.28,0.11-0.55,0.38-0.62
				l0.05-0.01c0.28-0.06,0.55,0.11,0.62,0.38l0.14,0.58C1491.22,226.66,1491.05,226.93,1490.77,227z"/>
			<path fill="#0A080C" d="M1488.91,227.43l-0.05,0.01c-0.28,0.06-0.55-0.11-0.62-0.38l-0.14-0.58c-0.06-0.28,0.11-0.55,0.38-0.62
				l0.05-0.01c0.28-0.06,0.55,0.11,0.62,0.38l0.14,0.58C1489.36,227.09,1489.18,227.37,1488.91,227.43z"/>
			<path fill="#0A080C" d="M1487.05,227.87l-0.05,0.01c-0.28,0.06-0.55-0.11-0.62-0.38l-0.14-0.58c-0.06-0.28,0.11-0.55,0.38-0.62
				l0.05-0.01c0.28-0.06,0.55,0.11,0.62,0.38l0.14,0.58C1487.5,227.53,1487.32,227.81,1487.05,227.87z"/>
			<path fill="#0A080C" d="M1485.18,228.31l-0.05,0.01c-0.28,0.06-0.55-0.11-0.62-0.38l-0.14-0.58c-0.06-0.28,0.11-0.55,0.38-0.62
				l0.05-0.01c0.28-0.06,0.55,0.11,0.62,0.38l0.14,0.58C1485.63,227.96,1485.46,228.24,1485.18,228.31z"/>
			<path fill="#0A080C" d="M1483.32,228.74l-0.05,0.01c-0.28,0.06-0.55-0.11-0.62-0.38l-0.14-0.58c-0.06-0.28,0.11-0.55,0.38-0.62
				l0.05-0.01c0.28-0.06,0.55,0.11,0.62,0.38l0.14,0.58C1483.77,228.4,1483.6,228.68,1483.32,228.74z"/>
			<path fill="#0A080C" d="M1481.46,229.18l-0.05,0.01c-0.28,0.06-0.55-0.11-0.62-0.38l-0.14-0.58c-0.06-0.28,0.11-0.55,0.38-0.62
				l0.05-0.01c0.28-0.06,0.55,0.11,0.62,0.38l0.14,0.58C1481.91,228.83,1481.74,229.11,1481.46,229.18z"/>
			<path fill="#0A080C" d="M1451.67,236.14l-0.05,0.01c-0.28,0.06-0.55-0.11-0.62-0.38l-0.14-0.58c-0.06-0.28,0.11-0.55,0.38-0.62
				l0.05-0.01c0.28-0.06,0.55,0.11,0.62,0.38l0.14,0.58C1452.12,235.8,1451.94,236.08,1451.67,236.14z"/>
			<path fill="#0A080C" d="M1449.81,236.58l-0.05,0.01c-0.28,0.06-0.55-0.11-0.62-0.38l-0.14-0.58c-0.06-0.28,0.11-0.55,0.38-0.62
				l0.05-0.01c0.28-0.06,0.55,0.11,0.62,0.38l0.14,0.58C1450.25,236.23,1450.08,236.51,1449.81,236.58z"/>
			<path fill="#0A080C" d="M1447.94,237.01l-0.05,0.01c-0.28,0.06-0.55-0.11-0.62-0.38l-0.14-0.58c-0.06-0.28,0.11-0.55,0.38-0.62
				l0.05-0.01c0.28-0.06,0.55,0.11,0.62,0.38l0.14,0.58C1448.39,236.67,1448.22,236.95,1447.94,237.01z"/>
			<path fill="#0A080C" d="M1446.08,237.45l-0.05,0.01c-0.28,0.06-0.55-0.11-0.62-0.38l-0.14-0.58c-0.06-0.28,0.11-0.55,0.38-0.62
				l0.05-0.01c0.28-0.06,0.55,0.11,0.62,0.38l0.14,0.58C1446.53,237.1,1446.36,237.38,1446.08,237.45z"/>
			<path fill="#0A080C" d="M1444.22,237.88l-0.05,0.01c-0.28,0.06-0.55-0.11-0.62-0.38l-0.14-0.58c-0.06-0.28,0.11-0.55,0.38-0.62
				l0.05-0.01c0.28-0.06,0.55,0.11,0.62,0.38l0.14,0.58C1444.67,237.54,1444.5,237.82,1444.22,237.88z"/>
			<path fill="#0A080C" d="M1442.36,238.32l-0.05,0.01c-0.28,0.06-0.55-0.11-0.62-0.38l-0.14-0.58c-0.06-0.28,0.11-0.55,0.38-0.62
				l0.05-0.01c0.28-0.06,0.55,0.11,0.62,0.38l0.14,0.58C1442.81,237.97,1442.63,238.25,1442.36,238.32z"/>
			<path fill="#0A080C" d="M1440.5,238.75l-0.05,0.01c-0.28,0.06-0.55-0.11-0.62-0.38l-0.14-0.58c-0.06-0.28,0.11-0.55,0.38-0.62
				l0.05-0.01c0.28-0.06,0.55,0.11,0.62,0.38l0.14,0.58C1440.94,238.41,1440.77,238.69,1440.5,238.75z"/>
			<path fill="#0A080C" d="M1438.63,239.19l-0.05,0.01c-0.28,0.06-0.55-0.11-0.62-0.38l-0.14-0.58c-0.06-0.28,0.11-0.55,0.38-0.62
				l0.05-0.01c0.28-0.06,0.55,0.11,0.62,0.38l0.14,0.58C1439.08,238.84,1438.91,239.12,1438.63,239.19z"/>
			<path fill="#0A080C" d="M1436.77,239.62l-0.05,0.01c-0.28,0.06-0.55-0.11-0.62-0.38l-0.14-0.58c-0.06-0.28,0.11-0.55,0.38-0.62
				l0.05-0.01c0.28-0.06,0.55,0.11,0.62,0.38l0.14,0.58C1437.22,239.28,1437.05,239.56,1436.77,239.62z"/>
			<path fill="#0A080C" d="M1434.91,240.06l-0.05,0.01c-0.28,0.06-0.55-0.11-0.62-0.38l-0.14-0.58c-0.06-0.28,0.11-0.55,0.38-0.62
				l0.05-0.01c0.28-0.06,0.55,0.11,0.62,0.38l0.14,0.58C1435.36,239.72,1435.19,239.99,1434.91,240.06z"/>
			<path fill="#0A080C" d="M1433.05,240.49l-0.05,0.01c-0.28,0.06-0.55-0.11-0.62-0.38l-0.14-0.58c-0.06-0.28,0.11-0.55,0.38-0.62
				l0.05-0.01c0.28-0.06,0.55,0.11,0.62,0.38l0.14,0.58C1433.5,240.15,1433.32,240.43,1433.05,240.49z"/>
			<path fill="#0A080C" d="M1431.19,240.93l-0.05,0.01c-0.28,0.06-0.55-0.11-0.62-0.38l-0.14-0.58c-0.06-0.28,0.11-0.55,0.38-0.62
				l0.05-0.01c0.28-0.06,0.55,0.11,0.62,0.38l0.14,0.58C1431.63,240.59,1431.46,240.86,1431.19,240.93z"/>
			<path fill="#0A080C" d="M1429.32,241.36l-0.05,0.01c-0.28,0.06-0.55-0.11-0.62-0.38l-0.14-0.58c-0.06-0.28,0.11-0.55,0.38-0.62
				l0.05-0.01c0.28-0.06,0.55,0.11,0.62,0.38l0.14,0.58C1429.77,241.02,1429.6,241.3,1429.32,241.36z"/>
			<path fill="#0A080C" d="M1427.46,241.8l-0.05,0.01c-0.28,0.06-0.55-0.11-0.62-0.38l-0.14-0.58c-0.06-0.28,0.11-0.55,0.38-0.62
				l0.05-0.01c0.28-0.06,0.55,0.11,0.62,0.38l0.14,0.58C1427.91,241.46,1427.74,241.74,1427.46,241.8z"/>
		</g>
		<g>
			<path fill="#0A080C" d="M1552.97,210.85l-3.2,0.46l-1.6,0.91l-1.47-0.15l-0.5-1.85l0.7-0.14l1.57-0.31l1.67-0.19
				c0,0,0.91,0.35,1.22,0.47C1551.94,210.27,1552.97,210.85,1552.97,210.85z"/>
			<line fill="#0A080C" x1="1546.9" y1="210.07" x2="1548.18" y2="212.22"/>
			<line fill="#0A080C" x1="1548.32" y1="209.78" x2="1549.81" y2="211.33"/>
		</g>
	</g>
	<path opacity="0.46" fill="none" stroke="#000000" stroke-width="1.9215" d="M1920,273.77h-302.48l76.88-195.75l-16.71-6.56
		l-29.73,75.69h-329.52l10.69-61.33l-14.7-2.56l-73.14,419.66l14.7,2.56l20.76-119.12h277.25l-46.19,117.6l16.71,6.56l87.13-221.83
		H1920V273.77z M1279.36,371.43l36.49-209.37h326.26l-82.23,209.37H1279.36z"/>
	<path opacity="0.46" fill="none" stroke="#000000" stroke-width="1.9215" d="M0,288.69h308.34l87.13,221.83l16.71-6.56
		l-46.19-117.6h277.25L664,505.48l14.7-2.56L605.56,83.25l-14.7,2.56l10.69,61.33H272.03l-29.73-75.69l-16.71,6.56l76.88,195.75H0
		L0,288.69z M360.13,371.43l-82.23-209.37h326.26l36.49,209.37H360.13z"/>
	
		<rect x="177.34" y="492.68" fill="#FFFFFF" stroke="#000000" stroke-width="1.9215" stroke-linejoin="round" stroke-miterlimit="10" width="1525.33" height="20.98"/>
	
		<rect x="251.35" y="512.01" fill="#FFFFFF" stroke="#000000" stroke-width="1.9215" stroke-linejoin="round" stroke-miterlimit="10" width="7.76" height="43.88"/>
	
		<rect x="387.57" y="512.01" fill="#FFFFFF" stroke="#000000" stroke-width="1.9215" stroke-linejoin="round" stroke-miterlimit="10" width="7.76" height="43.88"/>
	<path fill="#FFFFFF" stroke="#000000" stroke-width="1.9215" stroke-linejoin="round" stroke-miterlimit="10" d="M227.3,481.15
		c0,0-5.03-27.98,1.86-54.77c6.89-26.8,26.97-24.63,36.85-24.63c9.88,0,38.97,4.82,40,26.07s0,67.71,0,67.71
		S273.92,538.16,251,535.5s-48.54,2.22-50.44-10.33C196.75,499.89,227.3,481.15,227.3,481.15z"/>
	<path fill="#FFFFFF" stroke="#000000" stroke-width="1.9215" stroke-linejoin="round" stroke-miterlimit="10" d="M240.42,481.15
		l45.69,1.99c0,0,13.02,1.48,18.36,9.41"/>
	<path fill="#FFFFFF" stroke="#000000" stroke-width="1.9215" stroke-linejoin="round" stroke-miterlimit="10" d="M299.51,481.15
		c0,0-5.03-27.98,1.86-54.77c6.89-26.8,26.97-24.63,36.85-24.63c9.88,0,38.97,4.82,40,26.07c1.03,21.25,0,67.71,0,67.71
		s-32.09,42.63-55.01,39.97s-48.54,2.22-50.44-10.33C268.96,499.89,299.51,481.15,299.51,481.15z"/>
	<path fill="#FFFFFF" stroke="#000000" stroke-width="1.9215" stroke-linejoin="round" stroke-miterlimit="10" d="M313.9,481.15
		l45.69,1.99c0,0,13.02,1.48,18.36,9.41"/>
	<path fill="#FFFFFF" stroke="#000000" stroke-width="1.9215" stroke-linejoin="round" stroke-miterlimit="10" d="M369.28,481.15
		c0,0-5.03-27.98,1.86-54.77c6.89-26.8,26.97-24.63,36.85-24.63s38.97,4.82,40,26.07s0,67.71,0,67.71s-32.09,42.63-55.01,39.97
		s-48.54,2.22-50.44-10.33C338.73,499.89,369.28,481.15,369.28,481.15z"/>
	<path fill="#FFFFFF" stroke="#000000" stroke-width="1.9215" stroke-linejoin="round" stroke-miterlimit="10" d="M374.63,481.15
		l45.69,1.99c0,0,13.02,1.48,18.36,9.41"/>
	<path fill="#FFFFFF" stroke="#000000" stroke-width="1.9215" stroke-linejoin="round" stroke-miterlimit="10" d="M436.11,437.77
		c0,0-6.53,27.62-5.3,57.46"/>
	<path fill="#FFFFFF" stroke="#000000" stroke-width="1.9215" stroke-linejoin="round" stroke-miterlimit="10" d="M425.22,492.55
		c0,0-25.13,22.11-26.64,29.04"/>
	
		<rect x="1656.13" y="513.47" fill="#FFFFFF" stroke="#000000" stroke-width="1.9215" stroke-linejoin="round" stroke-miterlimit="10" width="7.76" height="43.88"/>
	
		<rect x="1519.92" y="513.47" fill="#FFFFFF" stroke="#000000" stroke-width="1.9215" stroke-linejoin="round" stroke-miterlimit="10" width="7.76" height="43.88"/>
	<path fill="#FFFFFF" stroke="#000000" stroke-width="1.9215" stroke-linejoin="round" stroke-miterlimit="10" d="M1687.95,482.6
		c0,0,5.03-27.98-1.86-54.77c-6.89-26.8-26.97-24.63-36.85-24.63s-38.97,4.82-40,26.07c-1.03,21.25,0,67.71,0,67.71
		s32.09,42.63,55.01,39.97c22.92-2.65,48.54,2.22,50.44-10.33C1718.5,501.34,1687.95,482.6,1687.95,482.6z"/>
	<path fill="#FFFFFF" stroke="#000000" stroke-width="1.9215" stroke-linejoin="round" stroke-miterlimit="10" d="M1674.83,482.6
		l-45.69,1.99c0,0-13.02,1.48-18.36,9.41"/>
	<path fill="#FFFFFF" stroke="#000000" stroke-width="1.9215" stroke-linejoin="round" stroke-miterlimit="10" d="M1615.74,482.6
		c0,0,5.03-27.98-1.86-54.77c-6.89-26.8-26.97-24.63-36.85-24.63s-38.97,4.82-40,26.07c-1.03,21.25,0,67.71,0,67.71
		s32.09,42.63,55.01,39.97c22.92-2.65,48.54,2.22,50.44-10.33C1646.29,501.34,1615.74,482.6,1615.74,482.6z"/>
	<path fill="#FFFFFF" stroke="#000000" stroke-width="1.9215" stroke-linejoin="round" stroke-miterlimit="10" d="M1601.34,482.6
		l-45.69,1.99c0,0-13.02,1.48-18.36,9.41"/>
	<path fill="#FFFFFF" stroke="#000000" stroke-width="1.9215" stroke-linejoin="round" stroke-miterlimit="10" d="M1545.96,482.6
		c0,0,5.03-27.98-1.86-54.77c-6.89-26.8-26.97-24.63-36.85-24.63s-38.97,4.82-40,26.07c-1.03,21.25,0,67.71,0,67.71
		s32.09,42.63,55.01,39.97c22.92-2.65,48.54,2.22,50.44-10.33C1576.52,501.34,1545.96,482.6,1545.96,482.6z"/>
	<path fill="#FFFFFF" stroke="#000000" stroke-width="1.9215" stroke-linejoin="round" stroke-miterlimit="10" d="M1540.62,482.6
		l-45.69,1.99c0,0-13.02,1.48-18.36,9.41"/>
	<path fill="#FFFFFF" stroke="#000000" stroke-width="1.9215" stroke-linejoin="round" stroke-miterlimit="10" d="M1490.03,494
		c0,0,25.13,22.11,26.64,29.04"/>
</g>
</svg>
