<?xml version="1.0" encoding="utf-8"?>
<!-- Generator: Adobe Illustrator 20.1.0, SVG Export Plug-In . SVG Version: 6.00 Build 0)  -->
<svg version="1.1" id="圖層_1" xmlns="http://www.w3.org/2000/svg" xmlns:xlink="http://www.w3.org/1999/xlink" x="0px" y="0px"
	 viewBox="0 0 200 200" enable-background="new 0 0 200 200" xml:space="preserve">
<g>
	<defs>
		<circle id="SVGID_1_" cx="100" cy="100" r="100"/>
	</defs>
	<clipPath id="SVGID_2_">
		<use xlink:href="#SVGID_1_"  overflow="visible"/>
	</clipPath>
	<g clip-path="url(#SVGID_2_)">
		<g>
			<path fill-rule="evenodd" clip-rule="evenodd" fill="#49BFBB" d="M140.35,136.44c-5.67-12.09-9.95-21.48-15.49-33.57l0.05-0.02
				c-1.96-4.75-6.66-6.34-10.85-4.55c-1.39,0.59-17.49,7.39-21.19,9c-6.15,1.75-9.2-1.96-10.43-4.19
				c-1.59-3.53-10.75-25.04-14.18-33.24c-0.71-1.71-1.06-3.14-1.57-4.91c-1.27-4.41,2.65-8.27,5.99-9.84
				c4.24-1.99,10.35-1.18,12.41,1.89c0.88,1.31,10.04,22.96,13.98,32.32l-0.01,0c1.94,4.76,6.64,6.36,10.83,4.59
				c5.52-2.34,23.41-10.6,24.79-11.23c4.15-1.88,6.15-6.42,3.97-11.07l-0.05,0.02c-5.16-12.25-9.2-21.75-14.29-34.1
				c-1.95-4.75-6.66-6.34-10.85-4.55c-17.89,7.64-21.29,9.31-39.21,16.88c-2.77,1.17-8.84,4.64-10.11,7.38
				c-2.43,3.27-2.63,8.36-0.98,12.25c3.07,7.22,34.67,78.24,34.67,78.24c0.66,1.45,1.31,2.93,1.69,4.47
				c0.88,3.59-2.65,8.65-6.98,10.43c-3.41,1.41-8.91,1.68-11.3-2.22c-0.96-1.57-1.78-2.79-2.56-4.47
				c-1.91-4.14-3.82-8.28-5.73-12.43c-3.33-7.27-7.53-16.62-9.85-21.61c-0.17-0.37-0.5-0.7-0.93-0.88
				c-0.83-0.36-1.61-0.32-2.18-0.01c-0.56,0.3-1.2,0.73-1.22,1.5c-0.01,0.46,0.15,1.18,0.32,1.56c1.03,2.24,2.43,5.3,3.95,8.64
				c1,2.27,1.91,4.29,2.63,5.87c3.28,7.13,6.55,14.25,9.8,21.39c1.75,3.84,5.65,7.13,9.69,7.55c2.89,0.91,9.54-1.22,12.28-2.47
				c17.68-8.1,21.21-9.48,38.93-17.52C140.53,145.63,142.53,141.09,140.35,136.44z"/>
			<path fill="#49BFBB" d="M93.39,96.18c0.53,1.21-0.01,2.63-1.23,3.16l0,0c-1.21,0.53-2.63-0.02-3.16-1.23L74.27,64.67
				c-0.53-1.21,0.02-2.63,1.23-3.16l0,0c1.21-0.54,2.63,0.02,3.16,1.23L93.39,96.18z"/>
			<path fill="#49BFBB" d="M89.77,151.73c0.54,1.21,0,2.63-1.21,3.17l0,0c-1.21,0.54-2.63,0-3.17-1.21l-14.92-33.36
				c-0.54-1.21,0-2.63,1.21-3.17l0,0c1.21-0.54,2.62,0,3.17,1.21L89.77,151.73z"/>
		</g>
		<rect id="loadingBar" fill="#49BFBB" width="200" height="200"/>
		<g>
			<path fill-rule="evenodd" clip-rule="evenodd" fill="#FFFFFF" d="M140.35,136.44c-5.67-12.09-9.95-21.48-15.49-33.57l0.05-0.02
				c-1.96-4.75-6.66-6.34-10.85-4.55c-1.39,0.59-17.49,7.39-21.19,9c-6.15,1.75-9.2-1.96-10.43-4.19
				c-1.59-3.53-10.75-25.04-14.18-33.24c-0.71-1.71-1.06-3.14-1.57-4.91c-1.27-4.41,2.65-8.27,5.99-9.84
				c4.24-1.99,10.35-1.18,12.41,1.89c0.88,1.31,10.04,22.96,13.98,32.32l-0.01,0c1.94,4.76,6.64,6.36,10.83,4.59
				c5.52-2.34,23.41-10.6,24.79-11.23c4.15-1.88,6.15-6.42,3.97-11.07l-0.05,0.02c-5.16-12.25-9.2-21.75-14.29-34.1
				c-1.95-4.75-6.66-6.34-10.85-4.55c-17.89,7.64-21.29,9.31-39.21,16.88c-2.77,1.17-8.84,4.64-10.11,7.38
				c-2.43,3.27-2.63,8.36-0.98,12.25c3.07,7.22,34.67,78.24,34.67,78.24c0.66,1.45,1.31,2.93,1.69,4.47
				c0.88,3.59-2.65,8.65-6.98,10.43c-3.41,1.41-8.91,1.68-11.3-2.22c-0.96-1.57-1.78-2.79-2.56-4.47
				c-1.91-4.14-3.82-8.28-5.73-12.43c-3.33-7.27-7.53-16.62-9.85-21.61c-0.17-0.37-0.5-0.7-0.93-0.88
				c-0.83-0.36-1.61-0.32-2.18-0.01c-0.56,0.3-1.2,0.73-1.22,1.5c-0.01,0.46,0.15,1.18,0.32,1.56c1.03,2.24,2.43,5.3,3.95,8.64
				c1,2.27,1.91,4.29,2.63,5.87c3.28,7.13,6.55,14.25,9.8,21.39c1.75,3.84,5.65,7.13,9.69,7.55c2.89,0.91,9.54-1.22,12.28-2.47
				c17.68-8.1,21.21-9.48,38.93-17.52C140.53,145.63,142.53,141.09,140.35,136.44z"/>
			<path fill="#FFFFFF" d="M93.39,96.18c0.53,1.21-0.01,2.63-1.23,3.16l0,0c-1.21,0.53-2.63-0.02-3.16-1.23L74.27,64.67
				c-0.53-1.21,0.02-2.63,1.23-3.16l0,0c1.21-0.54,2.63,0.02,3.16,1.23L93.39,96.18z"/>
			<path fill="#FFFFFF" d="M89.77,151.73c0.54,1.21,0,2.63-1.21,3.17l0,0c-1.21,0.54-2.63,0-3.17-1.21l-14.92-33.36
				c-0.54-1.21,0-2.63,1.21-3.17l0,0c1.21-0.54,2.62,0,3.17,1.21L89.77,151.73z"/>
		</g>
	</g>
</g>
</svg>
