<?xml version="1.0" encoding="utf-8"?>
<!-- Generator: Adobe Illustrator 21.0.2, SVG Export Plug-In . SVG Version: 6.00 Build 0)  -->
<svg version="1.1" id="圖層_1" xmlns="http://www.w3.org/2000/svg" xmlns:xlink="http://www.w3.org/1999/xlink" x="0px" y="0px"
	 viewBox="0 0 1920 1080" enable-background="new 0 0 1920 1080" xml:space="preserve">
<g>
	<g>
		<g id="XMLID_2573_">
			<polygon fill="#FFFFFF" stroke="#000000" stroke-miterlimit="10" points="1068.55,589.66 1034.65,589.09 1035.1,562.39 
				1069.01,562.96 			"/>
			
				<rect x="1039.61" y="576.27" transform="matrix(0.0171 -0.9999 0.9999 0.0171 412.709 1660.8363)" fill="#FFFFFF" stroke="#000000" stroke-linejoin="round" stroke-miterlimit="10" width="22.94" height="88.47"/>
			<path fill="#FFFFFF" stroke="#000000" stroke-linejoin="round" stroke-miterlimit="10" d="M1050.87,631.97l-36.69-0.62
				c0,0,12.93,10.05,12.74,21.85l23.59,0.39l23.59,0.41c0.2-11.79,13.47-21.4,13.47-21.4L1050.87,631.97z"/>
			<polygon fill="#FFFFFF" stroke="#000000" stroke-miterlimit="10" points="1077.34,656.35 1023.61,655.44 1023.66,653.14 
				1077.38,654.06 			"/>
			<polygon fill="#FFFFFF" stroke="#000000" stroke-miterlimit="10" points="1077.3,658.65 1023.57,657.73 1023.61,655.44 
				1077.34,656.35 			"/>
			<polygon fill="#FFFFFF" stroke="#000000" stroke-linejoin="round" stroke-miterlimit="10" points="1095.5,609.8 1082.29,596.45 
				1020.03,595.39 1007.04,608.29 			"/>
			<polygon fill="#FFFFFF" stroke="#000000" stroke-miterlimit="10" points="1082.73,589.9 1020.48,588.86 1020.36,595.4 
				1082.61,596.46 			"/>
			<g id="XMLID_2574_">
				<g id="XMLID_2575_">
					<polygon id="XMLID_2576_" fill="#FFFFFF" stroke="#000000" stroke-miterlimit="10" points="1022.66,583.51 1022.67,582.79 
						1080.72,583.78 1080.71,584.49 1022.66,583.51 					"/>
				</g>
				<g id="XMLID_2577_">
					<g id="XMLID_2578_">
						<polygon id="XMLID_2579_" fill="#FFFFFF" stroke="#000000" stroke-miterlimit="10" points="1022.21,588.88 1022.3,583.14 
							1023.03,583.15 1022.94,588.9 1022.21,588.88 						"/>
					</g>
					<g id="XMLID_2580_">
						<polygon id="XMLID_2581_" fill="#FFFFFF" stroke="#000000" stroke-miterlimit="10" points="1028.66,588.98 1028.76,583.25 
							1029.48,583.27 1029.37,589 1028.66,588.98 						"/>
					</g>
					<g id="XMLID_2582_">
						<polygon id="XMLID_2583_" fill="#FFFFFF" stroke="#000000" stroke-miterlimit="10" points="1035.11,589.1 1035.21,583.35 
							1035.93,583.37 1035.84,589.12 1035.11,589.1 						"/>
					</g>
					<g id="XMLID_2584_">
						<polygon id="XMLID_2585_" fill="#FFFFFF" stroke="#000000" stroke-miterlimit="10" points="1041.56,589.19 1041.66,583.47 
							1042.38,583.5 1042.28,589.21 1041.56,589.19 						"/>
					</g>
					<g id="XMLID_2586_">
						<polygon id="XMLID_2587_" fill="#FFFFFF" stroke="#000000" stroke-miterlimit="10" points="1048.02,589.31 1048.11,583.59 
							1048.82,583.59 1048.73,589.33 1048.02,589.31 						"/>
					</g>
					<g id="XMLID_2588_">
						<polygon id="XMLID_2589_" fill="#FFFFFF" stroke="#000000" stroke-miterlimit="10" points="1054.46,589.42 1054.56,583.68 
							1055.29,583.71 1055.19,589.44 1054.46,589.42 						"/>
					</g>
					<g id="XMLID_2590_">
						<polygon id="XMLID_2591_" fill="#FFFFFF" stroke="#000000" stroke-miterlimit="10" points="1060.9,589.53 1061.01,583.8 
							1061.72,583.81 1061.62,589.55 1060.9,589.53 						"/>
					</g>
					<g id="XMLID_2592_">
						<polygon id="XMLID_2593_" fill="#FFFFFF" stroke="#000000" stroke-miterlimit="10" points="1067.37,589.64 1067.46,583.9 
							1068.18,583.93 1068.08,589.66 1067.37,589.64 						"/>
					</g>
					<g id="XMLID_2594_">
						<polygon id="XMLID_2595_" fill="#FFFFFF" stroke="#000000" stroke-miterlimit="10" points="1073.81,589.75 1073.9,584.02 
							1074.63,584.03 1074.54,589.76 1073.81,589.75 						"/>
					</g>
					<g id="XMLID_2596_">
						<polygon id="XMLID_2597_" fill="#FFFFFF" stroke="#000000" stroke-miterlimit="10" points="1080.25,589.86 1080.35,584.12 
							1081.08,584.13 1080.98,589.89 1080.25,589.86 						"/>
					</g>
				</g>
			</g>
			<g id="XMLID_2598_">
				<g id="XMLID_2599_">
					<polygon id="XMLID_2600_" fill="#FFFFFF" stroke="#000000" stroke-miterlimit="10" points="1058.14,549.17 1058.24,544.09 
						1058.95,544.1 1058.86,549.19 1058.14,549.17 					"/>
				</g>
				<g id="XMLID_2601_">
					<polygon id="XMLID_2602_" fill="#FFFFFF" stroke="#000000" stroke-miterlimit="10" points="1045.68,548.96 1045.78,543.89 
						1046.5,543.9 1046.41,548.98 1045.68,548.96 					"/>
				</g>
			</g>
			<g id="XMLID_2603_">
				<polygon id="XMLID_2604_" fill="#FFFFFF" stroke="#000000" stroke-miterlimit="10" points="1046.09,546.78 1046.11,546.07 
					1058.56,546.27 1058.54,547 1046.09,546.78 				"/>
			</g>
			<g id="XMLID_2605_">
				<polygon id="XMLID_2606_" fill="#FFFFFF" stroke="#000000" stroke-miterlimit="10" points="1051.84,553.32 1052.09,539.73 
					1052.8,539.74 1052.56,553.34 1051.84,553.32 				"/>
			</g>
			<polygon fill="#FFFFFF" stroke="#000000" stroke-miterlimit="10" points="1056.96,538.51 1047.98,537.05 1048.94,541.81 			"/>
			<g id="XMLID_2607_">
				<path id="XMLID_2608_" d="M1067.35,651.2c0.98-3.55,2.29-7.19,4.35-10.45l0,0c1.11-1.76,2.62-3.25,4.03-4.78l0,0
					c0.32-0.33,0.87-0.81,0.98-1.09l0,0l0.68,0.19c-0.23,0.52-0.83,0.97-1.09,1.27l0,0c-1.42,1.53-2.9,3.01-3.96,4.69l0,0
					c-2.01,3.2-3.31,6.8-4.28,10.32l0,0L1067.35,651.2L1067.35,651.2z"/>
			</g>
			<g id="XMLID_2609_">
				<path id="XMLID_2610_" d="M1060.28,651.3c0.1-1.17,0.33-2.3,0.43-3.43l0,0c0.19-1.92,0.46-3.83,0.9-5.71l0,0
					c0.38-1.64,0.89-3.23,1.62-4.8l0,0c0.23-0.46,0.61-1.01,0.65-1.38l0,0l0.72,0.06c-0.08,0.57-0.51,1.13-0.7,1.52l0,0
					c-0.7,1.53-1.2,3.09-1.58,4.7l0,0c-0.43,1.86-0.69,3.75-0.88,5.65l0,0c-0.1,1.16-0.33,2.29-0.42,3.43l0,0L1060.28,651.3
					L1060.28,651.3z"/>
			</g>
			<g id="XMLID_2611_">
				<path id="XMLID_2612_" d="M1052.92,650.35c0-0.01,0-0.03,0-0.05l0,0l0,0l0,0c0.04-1.25,0.02-2.49,0.11-3.75l0,0
					c0.15-2,0.48-4.01,0.76-5.99l0,0c0.18-1.43,0.38-2.86,0.75-4.29l0,0c0.1-0.39,0.17-0.7,0.17-1.06l0,0h0.72
					c0,0.42-0.08,0.78-0.18,1.19l0,0c-0.36,1.39-0.56,2.81-0.74,4.23l0,0c-0.27,1.99-0.6,3.99-0.75,5.95l0,0
					c-0.1,1.23-0.08,2.47-0.11,3.73l0,0h0.01l-0.01,0.04l-0.01,0.04L1052.92,650.35L1052.92,650.35z"/>
			</g>
			<g id="XMLID_2613_">
				<path id="XMLID_2614_" d="M1043.7,650.12c0-0.4,0.09-0.9,0.09-0.93l0,0c0.03-1.78,0.07-3.55,0.1-5.32l0,0c0-0.54,0-1.07,0-1.61
					l0,0c0-0.27,0.01-0.54,0.01-0.8l0,0c0-1.29,0.01-2.59,0.15-3.86l0,0c0.04-0.52,0.17-1,0.17-1.44l0,0c0-0.11-0.02-0.23-0.02-0.3
					l0,0c-0.06-0.2-0.12-0.4-0.14-0.63l0,0l0.71-0.05c0.01,0.18,0.07,0.34,0.13,0.57l0,0c0.01,0.14,0.02,0.27,0.02,0.41l0,0
					c0,0.53-0.13,1.02-0.17,1.49l0,0c-0.14,1.24-0.15,2.52-0.15,3.81l0,0c0,0.26,0,0.54,0,0.8l0,0c0,0.54,0,1.08-0.01,1.62l0,0
					c-0.03,1.77-0.08,3.54-0.1,5.32l0,0c0,0.16-0.09,0.56-0.09,0.92l0,0c0,0.13,0.02,0.24,0.04,0.3l0,0l-0.13,0.02l-0.12,0.53
					C1043.61,650.78,1043.74,650.4,1043.7,650.12L1043.7,650.12z M1044.07,635.21L1044.07,635.21L1044.07,635.21L1044.07,635.21
					L1044.07,635.21L1044.07,635.21z"/>
			</g>
			<g id="XMLID_2617_">
				<path id="XMLID_2618_" d="M1035.46,646.94c-0.26-1.87-0.19-3.76-0.26-5.59l0,0c-0.04-0.6-0.04-1.18-0.04-1.77l0,0
					c0-0.97,0.04-1.94,0.15-2.92l0,0c0.07-0.64,0.05-1.32,0.07-2l0,0h0.71c-0.01,0.67,0,1.36-0.05,2.06l0,0
					c-0.11,0.96-0.17,1.91-0.17,2.86l0,0c0,0.57,0.01,1.14,0.05,1.75l0,0c0.06,1.85,0,3.72,0.24,5.54l0,0
					c0.14,1.16,0.47,2.32,0.59,3.55l0,0l-0.72,0.04C1035.95,649.3,1035.61,648.15,1035.46,646.94L1035.46,646.94z"/>
			</g>
			<g id="XMLID_2619_">
				<path id="XMLID_2620_" d="M1030.96,651.13c0.13-0.62,0.2-1.23,0.2-1.83l0,0c0-0.96-0.15-1.93-0.43-2.87l0,0
					c-0.3-0.89-0.6-1.78-0.92-2.68l0,0c-0.28-0.96-0.59-1.92-0.95-2.85l0,0c-0.47-1.19-1.13-2.33-1.83-3.49l0,0
					c-0.27-0.48-0.58-0.92-0.93-1.36l0,0c-0.13-0.19-0.69-0.71-0.74-0.69l0,0l0.05-0.16l-0.35-0.06l0.1-0.42l0.36,0.06
					c0.61,0.15,0.97,0.73,1.18,0.93l0,0c0.39,0.46,0.72,0.94,1,1.44l0,0c0.69,1.14,1.37,2.31,1.87,3.56l0,0
					c0.37,0.94,0.66,1.92,0.95,2.87l0,0c0.32,0.9,0.63,1.79,0.93,2.69l0,0c0.28,1,0.45,2,0.45,3.02l0,0c0,0.63-0.06,1.28-0.2,1.95
					l0,0L1030.96,651.13L1030.96,651.13z"/>
			</g>
			<g id="XMLID_2621_">
				<path fill="#FFFFFF" stroke="#000000" stroke-linejoin="round" stroke-miterlimit="10" d="M1018.28,619.95
					c-0.02,1.54-1.28,2.76-2.82,2.73c-1.54-0.03-2.76-1.29-2.74-2.83c0.02-1.54,1.29-2.76,2.84-2.75
					C1017.09,617.14,1018.31,618.41,1018.28,619.95z"/>
				<path fill="#FFFFFF" stroke="#000000" stroke-linejoin="round" stroke-miterlimit="10" d="M1036.07,620.25
					c-0.04,1.55-1.3,2.76-2.83,2.74c-1.54-0.03-2.76-1.3-2.74-2.84c0.03-1.54,1.29-2.76,2.82-2.74
					C1034.86,617.45,1036.09,618.72,1036.07,620.25z"/>
				<path fill="#FFFFFF" stroke="#000000" stroke-linejoin="round" stroke-miterlimit="10" d="M1053.85,620.55
					c-0.03,1.54-1.3,2.76-2.84,2.74c-1.52-0.02-2.76-1.3-2.73-2.84c0.02-1.53,1.3-2.76,2.82-2.73
					C1052.66,617.75,1053.88,619.02,1053.85,620.55z"/>
				<path fill="#FFFFFF" stroke="#000000" stroke-linejoin="round" stroke-miterlimit="10" d="M1071.65,620.86
					c-0.03,1.54-1.3,2.77-2.83,2.73c-1.55-0.02-2.76-1.29-2.73-2.83c0.01-1.53,1.29-2.76,2.83-2.73
					C1070.44,618.05,1071.66,619.32,1071.65,620.86z"/>
				<path fill="#FFFFFF" stroke="#000000" stroke-linejoin="round" stroke-miterlimit="10" d="M1089.44,621.16
					c-0.03,1.54-1.3,2.76-2.83,2.73c-1.53-0.02-2.75-1.29-2.73-2.82c0.02-1.54,1.28-2.77,2.82-2.74
					C1088.23,618.35,1089.45,619.62,1089.44,621.16z"/>
			</g>
			<polygon fill="#FFFFFF" stroke="#000000" stroke-miterlimit="10" points="1077.3,658.65 1050.43,658.19 1023.57,657.73 
				998.74,845.76 1047.24,846.58 1095.73,847.41 			"/>
			<polygon fill="#FFFFFF" stroke="#000000" stroke-miterlimit="10" points="1056.06,712.2 1047.72,712.06 1047.88,702.22 
				1056.23,702.37 			"/>
			<polygon fill="#FFFFFF" stroke="#000000" stroke-miterlimit="10" points="1056.79,673.56 1048.45,673.41 1048.61,663.58 
				1056.97,663.72 			"/>
			<polygon fill="#FFFFFF" stroke="#000000" stroke-miterlimit="10" points="1022.76,766.37 1017.64,766.27 1017.81,756.45 
				1022.94,756.54 			"/>
			<polygon fill="#FFFFFF" stroke="#000000" stroke-miterlimit="10" points="1080.91,777.62 1075.76,777.53 1075.94,767.7 
				1081.06,767.79 			"/>
			<polygon fill="#FFFFFF" stroke="#000000" stroke-miterlimit="10" points="1074.97,698.18 1069.85,698.09 1070.01,688.26 
				1075.14,688.36 			"/>
			<polygon fill="#FFFFFF" stroke="#000000" stroke-miterlimit="10" points="1029.81,693.72 1024.69,693.64 1024.84,683.81 
				1029.99,683.9 			"/>
			<g id="XMLID_2646_">
				<polygon id="XMLID_2647_" points="1017.41,735.66 1017.42,734.94 1080.24,736 1080.22,736.72 1017.41,735.66 				"/>
			</g>
			<g id="XMLID_2648_">
				<polygon id="XMLID_2649_" points="1014.75,781.83 1014.77,781.11 1080.59,782.22 1080.58,782.93 1014.75,781.83 				"/>
			</g>
			<g id="XMLID_2664_">
				<polygon id="XMLID_2665_" points="1017.34,738.92 1017.36,738.2 1039.45,738.6 1039.44,739.32 1017.34,738.92 				"/>
			</g>
			<g id="XMLID_2666_">
				<polygon id="XMLID_2667_" points="1031.4,741.8 1031.42,741.08 1042.47,741.27 1042.44,741.99 1031.4,741.8 				"/>
			</g>
			<g id="XMLID_2668_">
				<polygon id="XMLID_2669_" points="1039.07,760.44 1039.08,759.72 1077.48,760.37 1077.47,761.09 1039.07,760.44 				"/>
			</g>
			<g id="XMLID_2670_">
				<polygon id="XMLID_2671_" points="1052.04,770 1052.04,769.28 1062.52,769.46 1062.51,770.18 1052.04,770 				"/>
			</g>
			<g id="XMLID_2672_">
				<polygon id="XMLID_2673_" points="1043.63,764.28 1043.65,763.56 1055.2,763.77 1055.18,764.49 1043.63,764.28 				"/>
			</g>
			<g id="XMLID_2674_">
				<polygon id="XMLID_2675_" points="1040.13,694.25 1040.15,693.53 1066.78,694 1066.77,694.71 1040.13,694.25 				"/>
			</g>
			<g id="XMLID_2676_">
				<polygon id="XMLID_2677_" points="1037.09,697.31 1037.1,696.6 1044.78,696.74 1044.76,697.45 1037.09,697.31 				"/>
			</g>
			<g id="XMLID_2678_">
				<polygon id="XMLID_2679_" points="1059.71,681.64 1059.73,680.93 1069.05,681.09 1069.03,681.81 1059.71,681.64 				"/>
			</g>
			<g id="XMLID_2680_">
				<polygon id="XMLID_2681_" points="1064.18,671.72 1064.19,671.01 1073.09,671.15 1073.08,671.86 1064.18,671.72 				"/>
			</g>
			<g id="XMLID_2682_">
				<polygon id="XMLID_2683_" points="1061.83,674.8 1061.85,674.08 1067.95,674.17 1067.95,674.89 1061.83,674.8 				"/>
			</g>
			<g id="XMLID_2684_">
				<polygon id="XMLID_2685_" points="1030.27,667.05 1030.27,666.33 1041.45,666.51 1041.44,667.24 1030.27,667.05 				"/>
			</g>
			<g id="XMLID_2686_">
				<polygon id="XMLID_2687_" points="1027.63,671.11 1027.64,670.39 1038.16,670.56 1038.14,671.28 1027.63,671.11 				"/>
			</g>
			<g id="XMLID_2688_">
				<polygon id="XMLID_2689_" points="1036.06,674.35 1036.07,673.63 1045.16,673.79 1045.15,674.51 1036.06,674.35 				"/>
			</g>
			<g id="XMLID_2690_">
				<polygon id="XMLID_2691_" points="1034.49,669.74 1034.51,669.01 1041.4,669.13 1041.39,669.86 1034.49,669.74 				"/>
			</g>
			<path fill="#FFFFFF" stroke="#000000" stroke-miterlimit="10" d="M1069.01,562.96c0,0-0.58-9.34-16.81-9.62
				c-16.21-0.27-17.1,9.06-17.1,9.06L1069.01,562.96z"/>
			<g id="XMLID_2694_">
				<polygon id="XMLID_2695_" points="1037.56,733.37 1037.57,732.66 1049.17,732.86 1049.15,733.58 1037.56,733.37 				"/>
			</g>
			<g id="XMLID_2696_">
				<polygon id="XMLID_2697_" points="1046,729.58 1046.01,728.86 1052.87,728.98 1052.86,729.7 1046,729.58 				"/>
			</g>
		</g>
	</g>
	<polygon opacity="0.09" fill="#B8834E" points="1068.86,576.95 1443.87,536.3 1308,491 	"/>
</g>
<g>
	<rect x="572" y="57.6" fill="#FFFFFF" width="772" height="54"/>
	<g>
		<text transform="matrix(1 0 0 1 636.05 96.946)" font-family="'MicrosoftJhengHeiBold'" font-size="31px" letter-spacing="3">中國選擇購物，日本選擇住宿；你怎麼看？</text>
	</g>
	
		<line fill="none" stroke="#0A080C" stroke-width="2.1641" stroke-miterlimit="10" x1="566.11" y1="111.6" x2="1353.89" y2="111.6"/>
	<line fill="none" stroke="#0A080C" stroke-width="2.1641" stroke-miterlimit="10" x1="566.11" y1="57.6" x2="1353.89" y2="57.6"/>
</g>
<g>
	<g id="XMLID_1024_">
		
			<polygon fill-rule="evenodd" clip-rule="evenodd" fill="#FFFFFF" stroke="#000000" stroke-width="1.0735" stroke-miterlimit="10" points="
			1189.8,864.21 1251.51,870.05 1235.71,799.33 1196.24,795.62 		"/>
		
			<polygon fill-rule="evenodd" clip-rule="evenodd" fill="#FFFFFF" stroke="#000000" stroke-width="1.0735" stroke-miterlimit="10" points="
			1189.8,864.21 1219.21,866.99 1225.7,798.39 1196.24,795.62 		"/>
		
			<polygon fill-rule="evenodd" clip-rule="evenodd" fill="#FFFFFF" stroke="#000000" stroke-width="1.0735" stroke-miterlimit="10" points="
			1079.48,784.48 1079.48,784.5 1064.43,783.07 1035.62,849.61 1054.21,851.37 1097.75,855.49 1104.3,786.83 		"/>
		
			<rect x="1111.66" y="768.75" transform="matrix(0.0942 -0.9955 0.9955 0.0942 207.7461 1887.8783)" fill-rule="evenodd" clip-rule="evenodd" fill="#FFFFFF" stroke="#000000" stroke-width="1.0735" stroke-miterlimit="10" width="59.44" height="122.04"/>
		<path fill-rule="evenodd" clip-rule="evenodd" fill="#FFFFFF" stroke="#000000" stroke-width="1.0735" stroke-miterlimit="10" d="
			M1199.33,865.11l-20.96-1.98l1.53-16.12c1.49-15.74-9.44-29.65-24.41-31.07c-14.97-1.42-28.32,10.2-29.81,25.94l-1.53,16.12
			l-43.54-4.12l5.6-59.18l118.72,11.24L1199.33,865.11z"/>
		<path fill-rule="evenodd" clip-rule="evenodd" fill="#FFFFFF" stroke="#000000" stroke-width="1.0735" stroke-miterlimit="10" d="
			M1151.26,771.65c0,0-42.78-4.05-56.48-2.27c-8.64,1.13-12.22,2.4-14.18,3.23l-0.49,5.18l-0.41,4.37l-6.72,70.98l27.08,2.56
			l6.33,0.6l10.13,0.96l2.35-24.81c1.49-15.74,14.84-27.36,29.81-25.94c14.97,1.42,25.9,15.33,24.41,31.07l-2.35,24.81l7.31,0.69
			l9.44,0.89l26.69,2.53l6.71-70.91l0.42-4.45l0.42-4.45c-1.53-0.98-3.88-3.16-14.57-6.68
			C1194.05,775.7,1151.26,771.65,1151.26,771.65z"/>
	</g>
	<path fill-rule="evenodd" clip-rule="evenodd" fill="#FFFFFF" stroke="#000000" stroke-width="1.0735" stroke-miterlimit="10" d="
		M1154.16,658.3c-2.03,3.73-0.21,4.76-0.68,5.94c-0.47,1.18-9.63,9.51-19.49,13.85c-9.86,4.34-34.42,6.62-36.07,6.47
		c-13.29-1.26-17.17,16.03,1.89,23.67c3.72-3.79,15.98-6.14,32.8-5.62c7.49,0.23,15.67,0.78,23.9,1.57
		c8.23,0.8,16.46,1.83,24.04,3.03c17.64,2.8,31.38,6.95,35.02,11.31c13.51-2.41,24-20.57,5.74-22.3
		c-1.66-0.16-25.35-7.01-34.22-13.12c-8.87-6.11-16.3-16.01-16.54-17.26c-0.25-1.25,1.73-1.92,0.44-5.96
		c-0.35-1.09-1.62-1.99-3.31-2.62l0.72-7.63l2.53,0.24l0.3-3.12l-2.71-0.26c1.3-1.3,2.2-3.15,2.4-5.29
		c0.41-4.31-2.22-8.08-5.86-8.42c-3.65-0.35-6.93,2.87-7.34,7.17c-0.2,2.14,0.33,4.13,1.37,5.65l-2.71-0.26l-0.3,3.12l2.53,0.24
		l-0.72,7.63C1156.12,656.66,1154.7,657.3,1154.16,658.3z"/>
	<path fill-rule="evenodd" clip-rule="evenodd" fill="#FFFFFF" stroke="#000000" stroke-width="1.0735" stroke-miterlimit="10" d="
		M1153.48,664.25c-0.47,1.18-9.63,9.51-19.49,13.85c-9.86,4.34-34.42,6.62-36.07,6.47c0,0,50.53,14.67,123.39,11.68
		c-1.66-0.16-25.35-7.01-34.22-13.12c-8.87-6.11-16.3-16.01-16.54-17.26C1161.69,661.84,1153.48,664.25,1153.48,664.25
		L1153.48,664.25z M1168.62,657.68c-0.29-0.15-0.62-0.29-0.95-0.41c0,0-4.73-1.22-9.77-0.92l0.72-7.63l-2.53-0.24l0.3-3.12
		l2.71,0.26c-1.04-1.52-1.57-3.51-1.37-5.65c0.41-4.31,3.69-7.52,7.34-7.17c3.64,0.34,6.27,4.12,5.86,8.42c-0.2,2.14-1.1,4-2.4,5.29
		l2.71,0.26l-0.3,3.12l-2.53-0.24l-0.72,7.63L1168.62,657.68z"/>
	<path fill-rule="evenodd" clip-rule="evenodd" fill="#FFFFFF" stroke="#000000" stroke-width="1.0735" stroke-miterlimit="10" d="
		M1171.09,648.23l-14.84-1.4l0.14-1.47l2.71,0.26c-1.04-1.52-1.57-3.51-1.37-5.65c0.41-4.31,3.69-7.52,7.34-7.17
		c3.64,0.34,6.27,4.12,5.86,8.42c-0.2,2.14-1.1,4-2.4,5.29l2.71,0.26L1171.09,648.23z"/>
	<path fill-rule="evenodd" clip-rule="evenodd" fill="#FFFFFF" stroke="#000000" stroke-width="1.0735" stroke-miterlimit="10" d="
		M1171.09,648.23l-8.05-0.76c0.12-0.43,0.36-0.89,0.77-1.41c5.6-7.05,1.26-13.27,1.26-13.27c3.64,0.34,6.27,4.12,5.86,8.42
		c-0.2,2.14-1.1,4-2.4,5.29l2.71,0.26L1171.09,648.23z"/>
	<path fill-rule="evenodd" clip-rule="evenodd" fill="#FFFFFF" stroke="#000000" stroke-width="1.0735" stroke-miterlimit="10" d="
		M1158.62,648.72l9.77,0.92l-0.72,7.63l0.95,0.41c-0.29-0.15-0.62-0.29-0.95-0.41c0,0-4.73-1.22-9.77-0.92L1158.62,648.72z"/>
	
		<rect x="1163.02" y="644.71" transform="matrix(0.0942 -0.9955 0.9955 0.0942 407.0948 1746.6906)" fill-rule="evenodd" clip-rule="evenodd" fill="#FFFFFF" stroke="#000000" stroke-width="1.0735" stroke-miterlimit="10" width="0.89" height="9.81"/>
	<path fill-rule="evenodd" clip-rule="evenodd" fill="#FFFFFF" stroke="#000000" stroke-width="1.0735" stroke-miterlimit="10" d="
		M1154.16,658.3c-2.03,3.73-0.21,4.76-0.68,5.94c0,0,8.21-2.4,17.07,1.62c-0.25-1.25,1.73-1.92,0.44-5.96
		c-0.28-0.88-1.15-1.62-2.36-2.21l-0.95-0.41c0,0-4.73-1.22-9.77-0.92C1156.12,656.66,1154.7,657.3,1154.16,658.3z"/>
	<path fill-rule="evenodd" clip-rule="evenodd" fill="#FFFFFF" stroke="#000000" stroke-width="1.0735" stroke-miterlimit="10" d="
		M1214.3,735.51l1.51-15.91c1.21-12.8-115.55-25.03-116.84-11.39l-1.54,16.24c2.05-0.69,4.91-1.45,9.01-2.19
		c12.24-2.19,49.91,1.37,50.02,1.38c0.11,0.01,37.78,3.58,49.39,8.03C1209.75,733.17,1212.41,734.45,1214.3,735.51z"/>
	<path fill-rule="evenodd" clip-rule="evenodd" fill="#FFFFFF" stroke="#000000" stroke-width="1.0735" stroke-miterlimit="10" d="
		M1156.52,722.99c0,0-37.59-3.56-49.66-1.55c-12.07,2.01-12.97,4.23-14.7,4.43c-1.73,0.2-8.99,3.27-10.83,3.34
		c-1.84,0.07-11.87,0.96-11.64,5.93c0.19,4.16,6.63,8.84,13.04,13.31c1.63,1.13,5.81,2.87,7.43,3.48l0.07-0.76
		c0.58-6.08,14.69-6.91,36.41-6.28c8.4,0.24,18.14,0.31,27.36,1.19c9.21,0.89,17.18,2.01,25.68,3.38
		c22.69,3.65,39.18,8.26,39.43,14.13c6.78-1.84,18.83-8.77,20.43-12.36c2.03-4.52-8.53-7.59-10.32-8.01
		c-1.79-0.41-8.34-4.79-10.01-5.31c-1.66-0.52-2.12-2.87-13.61-7.11C1194.11,726.55,1156.52,722.99,1156.52,722.99z"/>
	<path fill-rule="evenodd" clip-rule="evenodd" fill="#FFFFFF" stroke="#000000" stroke-width="1.0735" stroke-miterlimit="10" d="
		M1156.52,722.99c0,0-37.59-3.56-49.66-1.55c-12.07,2.01-12.97,4.23-14.7,4.43c-1.68,0.19-8.59,3.1-10.66,3.32
		c3.78-0.29,75.09-5.43,146.3,13.43l0.01,0c-2.63-1.32-7.24-4.3-8.6-4.73c-1.66-0.52-2.12-2.87-13.61-7.11
		C1194.11,726.55,1156.52,722.99,1156.52,722.99z"/>
	<path fill-rule="evenodd" clip-rule="evenodd" fill="#FFFFFF" stroke="#000000" stroke-width="1.0735" stroke-miterlimit="10" d="
		M1218.86,775.96l1.18-12.5c1.5-15.82-129.34-29.66-130.93-12.8l-1.1,11.64c2.18-0.76,5.04-1.56,8.85-2.35
		c13.74-2.84,55.93,1.15,56.05,1.17c0.12,0.01,42.32,4.01,55.28,9.37C1213.49,772.69,1216.75,774.52,1218.86,775.96z"/>
	<path fill-rule="evenodd" clip-rule="evenodd" fill="#FFFFFF" stroke="#000000" stroke-width="1.0735" stroke-miterlimit="10" d="
		M1153.07,759.42c0,0-42.12-3.99-55.63-1.94c-13.51,2.05-14.5,4.4-16.44,4.6c-1.94,0.2-10.05,3.4-12.1,3.46
		c-2.06,0.06-15.38,1.49-13.01,6.19c2.37,4.71,6.94,6.55,13.07,8.03c0,0,76.34-17.76,165.51,15.25c5.05-0.46,9-1.67,11.76-5.26
		c3.22-4.17-9.6-8.08-11.61-8.52c-2-0.44-9.37-5.11-11.24-5.67c-1.87-0.56-2.4-3.05-15.28-7.6
		C1195.2,763.41,1153.07,759.42,1153.07,759.42z"/>
	
		<rect x="1162.09" y="640.16" transform="matrix(0.0942 -0.9955 0.9955 0.0942 409.2612 1745.0643)" fill-rule="evenodd" clip-rule="evenodd" fill="#FFFFFF" stroke="#000000" stroke-width="1.0735" stroke-miterlimit="10" width="3.14" height="14.91"/>
</g>
<g>
	
		<rect x="767.05" y="808.89" transform="matrix(0.9968 -0.0804 0.0804 0.9968 -64.7369 66.8435)" fill-rule="evenodd" clip-rule="evenodd" fill="#FFFFFF" stroke="#000000" stroke-width="1.0735" stroke-miterlimit="10" width="60.58" height="56.2"/>
	<path fill-rule="evenodd" clip-rule="evenodd" fill="#FFFFFF" stroke="#000000" stroke-width="1.0735" stroke-miterlimit="10" d="
		M764.89,811.41l60.38-4.87l4.52,56.01l-4.75,0.38l-1.6-19.85c-0.98-12.09-11.3-21.13-23.05-20.18
		c-11.75,0.95-20.5,11.52-19.52,23.61l1.6,19.85l-13.06,1.05L764.89,811.41z"/>
	
		<rect x="769.6" y="764.06" transform="matrix(0.9968 -0.0804 0.0804 0.9968 -59.7346 66.1478)" fill-rule="evenodd" clip-rule="evenodd" fill="#FFFFFF" stroke="#000000" stroke-width="1.0735" stroke-miterlimit="10" width="43.22" height="20.97"/>
	<path fill-rule="evenodd" clip-rule="evenodd" fill="#FFFFFF" stroke="#000000" stroke-width="1.0735" stroke-miterlimit="10" d="
		M767.93,768.2l-17.02,1.37l-0.94-4.07l-3.87,0.31l-0.2,4.08c-3.6-0.15-9-1.68-12.72-2.26l-2.59,3.57c0.22,0.26,0.47,0.53,0.73,0.82
		c8,8.56,12.01,11.97,21.84,15.2l-0.01-0.12l-0.06-0.75l0.76-0.06l15.43-1.25L767.93,768.2z"/>
	
		<polygon fill-rule="evenodd" clip-rule="evenodd" fill="#FFFFFF" stroke="#000000" stroke-width="1.0735" stroke-miterlimit="10" points="
		813.13,755.55 850.12,752.57 851.29,767.13 838.25,768.18 837.44,768.25 837.44,768.25 836.63,768.31 827.93,769.02 827.11,769.08 
		826.3,769.15 826.3,769.15 825.49,769.21 811.44,770.35 810.58,759.66 812.63,759.5 813.44,759.43 813.38,758.67 	"/>
	
		<polygon fill-rule="evenodd" clip-rule="evenodd" fill="#FFFFFF" stroke="#000000" stroke-width="1.0735" stroke-miterlimit="10" points="
		747.98,742.2 753.88,741.34 762.95,743.65 809.18,739.92 819.01,738.04 825.74,735.46 828.34,735.71 828.17,736.64 822.36,740.22 
		814.33,744.18 789.19,744.55 779.07,748.36 762.46,749.34 753.8,746.07 749.76,743.94 748.29,743.09 	"/>
	
		<rect x="812.85" y="755.45" transform="matrix(0.9968 -0.0804 0.0804 0.9968 -58.7491 68.0774)" fill-rule="evenodd" clip-rule="evenodd" fill="#FFFFFF" stroke="#000000" stroke-width="1.0735" stroke-miterlimit="10" width="5.6" height="15.64"/>
	<path fill-rule="evenodd" clip-rule="evenodd" fill="#FFFFFF" stroke="#000000" stroke-width="1.0735" stroke-miterlimit="10" d="
		M788.56,743.89l-31.07,2.55l-0.14,0.01l-0.11-0.08c-3.4-2.26-6.46-2.95-8.94-3.28c4.78,4.6,11.42,12.08,15.49,19.42l5.09-0.79
		l41.49-4.1l5.64,0.68c2.84-7.87,8.14-16.27,12.17-21.65c-2.39,0.72-5.31,1.89-8.3,4.67l-0.1,0.09l-0.14,0.01L788.56,743.89z"/>
	
		<rect x="954.3" y="786.82" transform="matrix(0.9968 -0.0804 0.0804 0.9968 -62.6459 81.7058)" fill-rule="evenodd" clip-rule="evenodd" fill="#FFFFFF" stroke="#000000" stroke-width="1.0735" stroke-miterlimit="10" width="57.14" height="63.28"/>
	<path fill-rule="evenodd" clip-rule="evenodd" fill="#FFFFFF" stroke="#000000" stroke-width="1.0735" stroke-miterlimit="10" d="
		M971.68,851.11l-14.75,1.19l-5.09-63.07l56.95-4.6l3.05,37.83c-2.66-10.01-11.95-17.01-22.36-16.17
		c-11.76,0.95-20.49,11.52-19.52,23.62L971.68,851.11z"/>
	<path fill-rule="evenodd" clip-rule="evenodd" fill="#FFFFFF" stroke="#000000" stroke-width="1.0735" stroke-miterlimit="10" d="
		M1000.03,749.49l16.82-1.36l0.26-4.19l3.83-0.31l0.84,4.01c3.49-0.72,8.5-3.11,12.04-4.27l3.1,3.13c-0.18,0.29-0.37,0.6-0.59,0.93
		c-6.44,9.77-9.8,13.79-18.86,18.57l-0.01-0.12l-0.06-0.75l-0.75,0.06l-15.25,1.23L1000.03,749.49z"/>
	
		<rect x="1000.71" y="749.34" transform="matrix(0.9968 -0.0804 0.0804 0.9968 -57.7062 83.0728)" fill-rule="evenodd" clip-rule="evenodd" fill="#FFFFFF" stroke="#000000" stroke-width="1.0735" stroke-miterlimit="10" width="3.21" height="16.98"/>
	<path fill-rule="evenodd" clip-rule="evenodd" fill="#FFFFFF" stroke="#000000" stroke-width="1.0735" stroke-miterlimit="10" d="
		M1014.94,721.57l0.16-0.93l-2.52,0.18l-11.21,2.68l-55.09,5.26l-6.08-2.87l-5.46,1.23l0.31,0.89l12.31,9.09l57.78-6.2
		C1005.15,730.91,1010.24,726.6,1014.94,721.57z"/>
	
		<polygon fill-rule="evenodd" clip-rule="evenodd" fill="#FFFFFF" stroke="#000000" stroke-width="1.0735" stroke-miterlimit="10" points="
		915.95,747.26 953.29,744.24 953.54,747.36 953.6,748.12 954.43,748.05 956.49,747.89 957.36,758.57 943.17,759.72 942.36,759.78 
		942.35,759.78 941.53,759.85 940.71,759.91 931.92,760.62 931.11,760.69 931.1,760.69 930.29,760.76 917.13,761.82 	"/>
	
		<rect x="849.02" y="789.42" transform="matrix(0.9968 -0.0804 0.0804 0.9968 -63.3609 74.1487)" fill-rule="evenodd" clip-rule="evenodd" fill="#FFFFFF" stroke="#000000" stroke-width="1.0735" stroke-miterlimit="10" width="79.38" height="68.27"/>
	<path fill-rule="evenodd" clip-rule="evenodd" fill="#FFFFFF" stroke="#000000" stroke-width="1.0735" stroke-miterlimit="10" d="
		M931.01,854.39l-1.8,0.15l-1.94-24.05c-1.11-13.75-15.33-23.84-31.75-22.51c-16.42,1.33-28.84,13.56-27.73,27.31l1.94,24.05
		l-15.5,1.25l-5.49-68.05l76.78-6.2L931.01,854.39z"/>
	
		<rect x="855.35" y="742.98" transform="matrix(0.9968 -0.0804 0.0804 0.9968 -57.7989 73.4919)" fill-rule="evenodd" clip-rule="evenodd" fill="#FFFFFF" stroke="#000000" stroke-width="1.0735" stroke-miterlimit="10" width="55.97" height="22.42"/>
	
		<rect x="956.88" y="747.95" transform="matrix(0.9968 -0.0804 0.0804 0.9968 -57.8914 81.1377)" fill-rule="evenodd" clip-rule="evenodd" fill="#FFFFFF" stroke="#000000" stroke-width="1.0735" stroke-miterlimit="10" width="42.63" height="22.42"/>
	<path fill-rule="evenodd" clip-rule="evenodd" fill="#FFFFFF" stroke="#000000" stroke-width="1.0735" stroke-miterlimit="10" d="
		M930.73,716.5l0.21-1.11l-12.89,1.98l-42.34,3.6l-45.5,2.55l0.39,1.07l15.97,6.82l72.38-5.2
		C918.95,726.19,923.53,724.55,930.73,716.5z"/>
	<path fill-rule="evenodd" clip-rule="evenodd" fill="#FFFFFF" stroke="#000000" stroke-width="1.0735" stroke-miterlimit="10" d="
		M880.2,714.83l13.98-1.13l0.76-4.16l5.29-0.43l3.61,8.31c0,0,7.37-0.46,9.24-1.12c1.86-0.66,1.84-2.58,1.84-2.58
		c1.1-0.09,2.2-0.18,3.3-0.27c0.05,0.68,0.11,1.36,0.16,2.04c2.13-2.29,5-3.84,8.14-5.12c1.89,1.6,3.02,3.1,4.42,5
		c-3.16,0.88-7.1,2.29-11.18,5.88l-38.79,3.08l-38.78,3.18c-4.61-2.89-8.72-3.65-11.98-4.01c1.08-2.1,1.96-3.76,3.56-5.65
		c3.31,0.75,6.39,1.82,8.85,3.74c-0.05-0.68-0.11-1.36-0.16-2.04c1.1-0.09,2.2-0.18,3.3-0.27c0,0,0.28,1.9,2.23,2.25
		c1.94,0.35,9.3-0.37,9.3-0.37l2.23-8.78l5.29-0.43l1.42,3.98L880.2,714.83z"/>
	<path fill-rule="evenodd" clip-rule="evenodd" fill="#FFFFFF" stroke="#000000" stroke-width="1.0735" stroke-miterlimit="10" d="
		M880.2,714.83l13.98-1.13l0.76-4.16l5.29-0.43l3.61,8.31c0,0,0.65-0.04,1.6-0.11l-49.76,4.02c0.97-0.08,1.61-0.15,1.61-0.15
		l2.23-8.78l5.29-0.43l1.42,3.98L880.2,714.83L880.2,714.83z M852.36,721.57c0.87-0.05,1.74-0.11,2.5-0.17l-2.5,0.2L852.36,721.57z"
		/>
	<path fill-rule="evenodd" clip-rule="evenodd" fill="#FFFFFF" stroke="#000000" stroke-width="1.0735" stroke-miterlimit="10" d="
		M881.05,725.35l-38.95,3.2l-0.17,0.01l-0.14-0.09c-4.25-2.7-8.09-3.51-11.19-3.89c5.6,5.14,11.26,11.01,15.03,16.84l72.95-5.89
		c0.19-0.15,9.88-16.16,12.14-19.03c-3,0.87-6.66,2.29-10.42,5.63l-0.12,0.11l-0.17,0.01L881.05,725.35z"/>
	<path fill-rule="evenodd" clip-rule="evenodd" fill="#FFFFFF" stroke="#000000" stroke-width="1.0735" stroke-miterlimit="10" d="
		M787.85,735.1l11.15-0.9l0.6-3.47l4.22-0.34l2.91,6.96c0,0,5.88-0.37,7.37-0.91c1.49-0.55,1.46-2.15,1.46-2.15
		c0.88-0.07,1.75-0.14,2.63-0.21c0.05,0.57,0.09,1.13,0.14,1.7c1.69-1.91,3.98-3.2,6.48-4.25c1.51,1.34,2.43,2.6,3.54,4.2
		c-2.52,0.72-5.66,1.89-8.91,4.88l-30.94,2.45l-30.93,2.54c-3.69-2.43-6.97-3.08-9.58-3.38c0.85-1.75,1.55-3.14,2.83-4.71
		c2.64,0.64,5.1,1.54,7.08,3.16c-0.05-0.57-0.09-1.13-0.14-1.7c0.88-0.07,1.76-0.14,2.63-0.21c0,0,0.23,1.58,1.78,1.89
		c1.55,0.3,7.42-0.28,7.42-0.28l1.75-7.34l4.22-0.34l1.15,3.33L787.85,735.1z"/>
	
		<polygon fill-rule="evenodd" clip-rule="evenodd" fill="#FFFFFF" stroke="#000000" stroke-width="1.0735" stroke-miterlimit="10" points="
		787.85,735.1 799,734.2 799.59,730.72 803.81,730.38 806.72,737.34 807.45,737.29 768.84,740.4 769.58,740.34 771.33,733 
		775.55,732.66 776.7,736 	"/>
	<path fill-rule="evenodd" clip-rule="evenodd" fill="#FFFFFF" stroke="#000000" stroke-width="1.0735" stroke-miterlimit="10" d="
		M974.61,720.02l11.15-0.9l0.6-3.47l4.21-0.34l2.91,6.96c0,0,5.89-0.37,7.37-0.91c1.48-0.55,1.46-2.15,1.46-2.15
		c0.88-0.07,1.76-0.14,2.63-0.21c0.05,0.57,0.09,1.13,0.14,1.7c1.69-1.91,3.98-3.2,6.48-4.25c1.51,1.34,2.43,2.6,3.54,4.2
		c-2.52,0.72-5.66,1.89-8.91,4.88l-30.94,2.45l-30.94,2.54c-3.69-2.43-6.97-3.08-9.57-3.38c0.85-1.75,1.55-3.14,2.83-4.71
		c2.64,0.64,5.1,1.54,7.08,3.16c-0.05-0.57-0.09-1.13-0.14-1.7c0.88-0.07,1.75-0.14,2.63-0.21c0,0,0.23,1.58,1.78,1.89
		c1.55,0.3,7.42-0.28,7.42-0.28l1.75-7.34l4.22-0.34l1.15,3.33L974.61,720.02z"/>
	
		<polygon fill-rule="evenodd" clip-rule="evenodd" fill="#FFFFFF" stroke="#000000" stroke-width="1.0735" stroke-miterlimit="10" points="
		974.61,720.02 985.76,719.12 986.36,715.65 990.58,715.31 993.48,722.26 956.35,725.26 958.1,717.93 962.32,717.59 963.46,720.92 	
		"/>
	<path fill-rule="evenodd" clip-rule="evenodd" fill="#FFFFFF" stroke="#000000" stroke-width="1.0735" stroke-miterlimit="10" d="
		M975.32,728.82l-31.07,2.55l-0.14,0.01L944,731.3c-3.4-2.26-6.46-2.95-8.94-3.28c4.78,4.6,11.42,12.08,15.49,19.42l0.26-0.02
		l51.96-4.19c1.06-2.03,10.29-19.15,12.17-21.65c-2.4,0.72-5.32,1.89-8.3,4.67l-0.1,0.09l-0.14,0.01L975.32,728.82z"/>
	<path fill-rule="evenodd" clip-rule="evenodd" fill="#FFFFFF" stroke="#000000" stroke-width="1.0735" stroke-miterlimit="10" d="
		M994.93,751.02l-35.4,2.86l1.02,12.68l35.4-2.86L994.93,751.02L994.93,751.02z M958.91,752.65l36.44-2.94l0.52-0.04l0.05,0.64
		l1.13,13.95l0.05,0.64l-0.52,0.04l-36.44,2.94l-0.52,0.04l-0.05-0.64l-1.13-13.95l-0.05-0.64L958.91,752.65L958.91,752.65z
		 M954.03,758.84l-0.94-11.6l-2.55,0.21l-0.34-4.25l52.22-4.21l0.34,4.25l-2.55,0.21l1.84,22.86l15.4-1.24l6.6,81.83l-17.67,1.43
		l-2.24-27.79c-0.98-12.09-11.3-21.13-23.05-20.18c-11.76,0.95-20.5,11.52-19.52,23.62l2.24,27.79l-15.5,1.25l-7.51-93.08
		L954.03,758.84z"/>
	<path fill-rule="evenodd" clip-rule="evenodd" fill="#FFFFFF" stroke="#000000" stroke-width="1.0735" stroke-miterlimit="10" d="
		M994.93,751.02l-35.4,2.86l1.02,12.68l35.4-2.86L994.93,751.02L994.93,751.02z M958.91,752.65l36.44-2.94l0.52-0.04l0.05,0.64
		l1.13,13.95l0.05,0.64l-0.52,0.04l-36.44,2.94l-0.52,0.04l-0.05-0.64l-1.13-13.95l-0.05-0.64L958.91,752.65L958.91,752.65z
		 M954.03,758.84l-0.94-11.6l-2.55,0.21l-0.34-4.25l52.22-4.21l0.34,4.25l-2.55,0.21l1.84,22.86l15.4-1.24l6.6,81.83l-17.67,1.43
		l-2.24-27.79c-0.98-12.09-11.3-21.13-23.05-20.18c-11.76,0.95-20.5,11.52-19.52,23.62l2.24,27.79l-15.5,1.25l-7.51-93.08
		L954.03,758.84z"/>
	<path fill-rule="evenodd" clip-rule="evenodd" fill="#FFFFFF" stroke="#000000" stroke-width="1.0735" stroke-miterlimit="10" d="
		M907.49,744.58l-49.46,3.99l1.16,14.42l49.46-3.99L907.49,744.58L907.49,744.58z M857.2,747.18l50.9-4.11l0.73-0.06l0.06,0.72
		l1.28,15.87l0.06,0.72l-0.73,0.06l-50.9,4.11l-0.72,0.06l-0.06-0.72l-1.28-15.87l-0.06-0.72L857.2,747.18L857.2,747.18z
		 M936.96,853.91l-15.5,1.25l-2.55-31.61c-1.11-13.76-15.33-23.83-31.75-22.51c-16.42,1.33-28.84,13.55-27.73,27.31l2.55,31.61
		l-15.5,1.25l-7.51-93.08l12.33-0.99l-2.1-26l-3.56,0.29l-0.39-4.84l72.95-5.89l0.39,4.84l-3.56,0.29l2.1,26l12.32-0.99
		L936.96,853.91z"/>
	
		<polygon fill-rule="evenodd" clip-rule="evenodd" fill="#FFFFFF" stroke="#000000" stroke-width="1.0735" stroke-miterlimit="10" points="
		915.15,737.26 849.31,742.57 849.2,741.13 845.64,741.42 845.36,738.03 917.86,732.18 918.13,735.57 915.03,735.82 	"/>
	<path fill-rule="evenodd" clip-rule="evenodd" fill="#FFFFFF" stroke="#000000" stroke-width="1.0735" stroke-miterlimit="10" d="
		M772.76,768.95l35.41-2.86l1.02,12.68l-35.41,2.86L772.76,768.95L772.76,768.95z M808.58,764.78l-36.44,2.94l-0.52,0.04l0.05,0.64
		l1.13,13.95l0.05,0.64l0.52-0.04l36.44-2.94l0.52-0.04l-0.05-0.64l-1.13-13.95l-0.05-0.64L808.58,764.78L808.58,764.78z
		 M835.13,862.12l-7.51-93.08l-13.23,1.07l-0.94-11.6l2.54-0.21l-0.34-4.25l-52.21,4.21l0.34,4.25l2.54-0.21l1.84,22.86l-15.39,1.24
		l6.6,81.83l17.67-1.43l-2.24-27.79c-0.98-12.09,7.77-22.67,19.52-23.62c11.75-0.95,22.08,8.09,23.06,20.18l2.24,27.79
		L835.13,862.12z"/>
	
		<polygon fill-rule="evenodd" clip-rule="evenodd" fill="#FFFFFF" stroke="#000000" stroke-width="1.0735" stroke-miterlimit="10" points="
		850.73,861.03 840.35,861.86 839.38,861.94 831.87,768.86 832.84,768.78 843.22,767.94 	"/>
	
		<polygon fill-rule="evenodd" clip-rule="evenodd" fill="#FFFFFF" stroke="#000000" stroke-width="1.0735" stroke-miterlimit="10" points="
		846.48,861.21 836.1,862.05 835.13,862.12 827.61,769.04 828.59,768.96 838.97,768.12 	"/>
	
		<polygon fill-rule="evenodd" clip-rule="evenodd" fill="#FFFFFF" stroke="#000000" stroke-width="1.0735" stroke-miterlimit="10" points="
		952.27,852.83 951.3,852.91 940.92,853.75 933.41,760.67 943.79,759.83 944.76,759.75 	"/>
	
		<polygon fill-rule="evenodd" clip-rule="evenodd" fill="#FFFFFF" stroke="#000000" stroke-width="1.0735" stroke-miterlimit="10" points="
		948.31,852.99 947.34,853.07 936.96,853.91 929.45,760.82 939.83,759.99 940.8,759.91 	"/>
	
		<rect x="845.32" y="733.63" transform="matrix(0.9968 -0.0804 0.0804 0.9968 -56.3452 73.319)" fill-rule="evenodd" clip-rule="evenodd" fill="#FFFFFF" stroke="#000000" stroke-width="1.0735" stroke-miterlimit="10" width="73.19" height="4.85"/>
	
		<rect x="950.29" y="741.08" transform="matrix(0.9968 -0.0804 0.0804 0.9968 -56.6142 80.9485)" fill-rule="evenodd" clip-rule="evenodd" fill="#FFFFFF" stroke="#000000" stroke-width="1.0735" stroke-miterlimit="10" width="52.39" height="4.26"/>
	
		<rect x="953.07" y="745.33" transform="matrix(0.9968 -0.0804 0.0804 0.9968 -56.8357 80.9753)" fill-rule="evenodd" clip-rule="evenodd" fill="#FFFFFF" stroke="#000000" stroke-width="1.0735" stroke-miterlimit="10" width="47.28" height="1.28"/>
	
		<rect x="916.53" y="747.1" transform="matrix(0.9968 -0.0804 0.0804 0.9968 -57.7034 76.2951)" fill-rule="evenodd" clip-rule="evenodd" fill="#FFFFFF" stroke="#000000" stroke-width="1.0735" stroke-miterlimit="10" width="3.29" height="14.61"/>
	
		<rect x="763.53" y="756.15" transform="matrix(0.9968 -0.0804 0.0804 0.9968 -58.4314 65.9754)" fill-rule="evenodd" clip-rule="evenodd" fill="#FFFFFF" stroke="#000000" stroke-width="1.0735" stroke-miterlimit="10" width="52.38" height="4.26"/>
	
		<rect x="766.3" y="760.4" transform="matrix(0.9968 -0.0804 0.0804 0.9968 -58.6458 66.0014)" fill-rule="evenodd" clip-rule="evenodd" fill="#FFFFFF" stroke="#000000" stroke-width="1.0735" stroke-miterlimit="10" width="47.28" height="1.1"/>
</g>
<g>
	
		<polygon fill-rule="evenodd" clip-rule="evenodd" fill="#FFFFFF" stroke="#000000" stroke-width="1.0735" stroke-miterlimit="10" points="
		519.06,931.81 573.23,920.36 550.46,840.06 546.8,840.83 546.4,817.23 542.22,818.12 541.84,795.68 537.56,796.59 537.17,773.58 
		532.69,774.53 532.28,750.46 528.14,751.33 527.77,729.13 523.33,730.06 522.92,706.23 518.62,707.14 518.22,683.99 514,684.88 
		513.61,662.19 509.43,663.07 509.37,659.64 501.92,661.22 501.81,655.07 499.05,655.66 498.99,652.24 495.64,652.94 495.03,650.09 
		493.17,636.19 492.34,636.37 491.89,623.01 487.36,623.96 486.25,618.72 486.74,615.77 482.64,616.64 476.58,588 472.9,588.78 
		478.95,617.42 474.85,618.29 476.49,620.78 477.6,626.03 473.07,626.98 478.07,639.39 477.23,639.56 481.16,653.02 481.76,655.88 
		478.41,656.59 479.74,659.74 476.98,660.33 479.37,665.99 471.92,667.56 473.25,670.72 469.07,671.61 477.9,692.51 473.67,693.41 
		482.69,714.74 478.38,715.65 487.66,737.61 483.22,738.54 491.86,759 487.73,759.88 497.1,782.05 492.62,783 501.57,804.2 
		497.29,805.1 506.02,825.77 501.85,826.65 511.04,848.39 507.37,849.17 	"/>
</g>
<g>
	
		<polygon fill-rule="evenodd" clip-rule="evenodd" fill="#FFFFFF" stroke="#000000" stroke-width="1.0735" stroke-linejoin="bevel" stroke-miterlimit="10" points="
		385.3,885.3 449.55,854.12 459.36,874.36 500.03,854.62 506.96,868.89 365.22,937.67 358.3,923.4 395.12,905.53 	"/>
	
		<path fill-rule="evenodd" clip-rule="evenodd" fill="#FFFFFF" stroke="#000000" stroke-width="1.0735" stroke-linejoin="bevel" stroke-miterlimit="10" d="
		M511.45,864.19l-11.42-23.53l-21.88,10.62l-5.18-7.54l0.28-2.15l-2.29,1.11l-1.04-2.14l-5.53,2.68l-13.46,4.12l-0.83-1.72
		l-39.22,9.94l-32.08,24.66l0.83,1.72l-11.56,8.03l-5.53,2.68l1.04,2.14l-2.3,1.11l1.86,1.11l2.71,8.74l-21.88,10.62l11.42,23.53
		l-0.17,0.08l-2.16,1.05l29.12,60l2.16-1.05l2.17-1.05l152.09-73.8l1.99-0.97l2.33-1.13l-29.12-60L511.45,864.19L511.45,864.19z"/>
	
		<path fill-rule="evenodd" clip-rule="evenodd" fill="#FFFFFF" stroke="#000000" stroke-width="1.0735" stroke-linejoin="bevel" stroke-miterlimit="10" d="
		M478.15,851.28l-5.18-7.54l0.28-2.15l-2.29,1.11l-1.04-2.14l-5.53,2.68l-13.46,4.12l-0.83-1.72l-39.22,9.94l-32.08,24.66l0.83,1.72
		l-11.56,8.03l-5.53,2.68l1.04,2.14l-2.3,1.11l1.86,1.11l2.71,8.74L478.15,851.28L478.15,851.28z"/>
	
		<polygon fill-rule="evenodd" clip-rule="evenodd" fill="#FFFFFF" stroke="#000000" stroke-width="1.0735" stroke-linejoin="bevel" stroke-miterlimit="10" points="
		470.96,842.71 469.92,840.57 464.39,843.25 450.93,847.37 450.09,845.65 410.87,855.59 378.79,880.25 379.62,881.97 368.06,889.99 
		362.52,892.68 363.56,894.82 	"/>
	
		<polygon fill-rule="evenodd" clip-rule="evenodd" fill="#FFFFFF" stroke="#000000" stroke-width="1.0735" stroke-linejoin="bevel" stroke-miterlimit="10" points="
		450.93,847.37 450.09,845.65 410.87,855.59 378.79,880.25 379.62,881.97 	"/>
	
		<rect x="383.45" y="917.24" transform="matrix(0.8997 -0.4366 0.4366 0.8997 -364.8299 293.0505)" fill-rule="evenodd" clip-rule="evenodd" fill="#FFFFFF" stroke="#000000" stroke-width="0.2319" stroke-linejoin="bevel" stroke-miterlimit="22.9256" width="143.43" height="46.07"/>
	
		<path fill-rule="evenodd" clip-rule="evenodd" fill="#FFFFFF" stroke="#000000" stroke-width="1.0735" stroke-linejoin="bevel" stroke-miterlimit="10" d="
		M513,873.86l25.03,51.57l-17.96,8.72l-12.2-25.07c-3.5-7.22-14.07-3.86-21.24,0.85c-6.31,4.15-8.09,9.97-6.6,13.04l12.02,24.77
		l-15.52,7.53l-12.19-25.07c-3.5-7.22-14.07-3.86-21.24,0.85c-6.3,4.15-8.08,9.96-6.59,13.04l12.02,24.77L433,976.39l-12.19-25.07
		c-3.5-7.22-14.07-3.86-21.24,0.85c-6.31,4.15-8.09,9.97-6.6,13.04l12.02,24.77l-17.95,8.71l-25.03-51.57l-1.08,0.52l-0.95-1.96
		l153.13-74.31l0.95,1.96L513,873.86z"/>
	
		<rect x="358.2" y="917.05" transform="matrix(0.8997 -0.4366 0.4366 0.8997 -357.2756 285.3115)" fill-rule="evenodd" clip-rule="evenodd" fill="#FFFFFF" stroke="#000000" stroke-width="1.0735" stroke-linejoin="bevel" stroke-miterlimit="10" width="167.82" height="5.85"/>
	
		<polygon fill-rule="evenodd" clip-rule="evenodd" fill="#FFFFFF" stroke="#000000" stroke-width="1.0735" stroke-linejoin="bevel" stroke-miterlimit="10" points="
		512.77,873.38 513.6,875.1 362.62,948.36 361.79,946.65 360.71,947.17 359.99,945.69 513.12,871.38 513.84,872.86 	"/>
	
		<polygon fill-rule="evenodd" clip-rule="evenodd" fill="#FFFFFF" stroke="#000000" stroke-width="1.0735" stroke-linejoin="bevel" stroke-miterlimit="10" points="
		365.16,937.12 389.47,925.32 383.29,912.58 472.7,869.19 478.89,881.94 503.2,870.14 505.58,875.04 481.26,886.84 391.85,930.22 
		367.54,942.02 	"/>
	
		<rect x="381.4" y="890.17" transform="matrix(0.8997 -0.4366 0.4366 0.8997 -348.4641 278.2213)" fill-rule="evenodd" clip-rule="evenodd" fill="#FFFFFF" stroke="#000000" stroke-width="1.0735" stroke-linejoin="bevel" stroke-miterlimit="10" width="99.38" height="14.17"/>
</g>
<g>
	<g id="XMLID_1025_">
		<g id="XMLID_1026_">
			<polygon points="1540.75,843.59 1469.03,909.7 1467.91,908.47 1539.63,842.38 			"/>
			
				<rect x="1527.84" y="809.72" transform="matrix(0.7353 -0.6777 0.6777 0.7353 -132.0311 1283.0189)" width="97.53" height="1.65"/>
		</g>
		<g id="XMLID_1027_">
			<rect x="1461.8" y="880.99" transform="matrix(0.6065 -0.7951 0.7951 0.6065 -106.674 1548.1061)" width="97.52" height="1.65"/>
			<rect x="1521.61" y="803.94" transform="matrix(0.6065 -0.7951 0.7951 0.6065 -21.892 1565.3081)" width="97.53" height="1.65"/>
		</g>
		<g id="XMLID_1028_">
			<rect x="1468.94" y="885.59" transform="matrix(0.4592 -0.8883 0.8883 0.4592 33.3404 1827.6062)" width="97.52" height="1.65"/>
			<polygon points="1586.36,757.22 1541.57,843.86 1540.1,843.1 1584.89,756.47 			"/>
		</g>
		<g id="XMLID_1029_">
			<rect x="1476.78" y="888.89" transform="matrix(0.298 -0.9546 0.9546 0.298 221.677 2080.8557)" width="97.53" height="1.65"/>
			<polygon points="1570.71,750.56 1541.65,843.66 1540.07,843.17 1569.13,750.07 			"/>
		</g>
		<g id="XMLID_1030_">
			<polygon points="1540.88,843.34 1528.42,940.07 1526.79,939.86 1539.24,843.14 			"/>
			
				<rect x="1498.34" y="794.16" transform="matrix(0.1277 -0.9918 0.9918 0.1277 561.1221 2227.9375)" width="97.53" height="1.65"/>
		</g>
		<g id="XMLID_1031_">
			<rect x="1541.5" y="843.26" transform="matrix(0.9989 -0.0465 0.0465 0.9989 -39.7924 72.6476)" width="1.65" height="97.53"/>
			<polygon points="1537.17,745.81 1541.71,843.23 1540.06,843.31 1535.52,745.89 			"/>
		</g>
		<g id="XMLID_1032_">
			
				<rect x="1549.93" y="842.19" transform="matrix(0.9757 -0.2192 0.2192 0.9757 -157.5961 361.6338)" width="1.65" height="97.53"/>
			<polygon points="1520.3,747.86 1541.68,843.02 1540.06,843.38 1518.68,748.23 			"/>
		</g>
		<g id="XMLID_1033_">
			<polygon points="1540.85,843.13 1578.43,933.13 1576.91,933.77 1539.32,843.77 			"/>
			<polygon points="1504.03,752.82 1541.61,842.81 1540.09,843.45 1502.51,753.45 			"/>
		</g>
		<g id="XMLID_1034_">
			<polygon points="1540.82,843.07 1593.45,925.17 1592.06,926.07 1539.42,843.96 			"/>
			<polygon points="1488.87,760.52 1541.51,842.62 1540.12,843.52 1487.48,761.41 			"/>
		</g>
		<g id="XMLID_1035_">
			<polygon points="1540.77,843.01 1606.87,914.72 1605.65,915.85 1539.56,844.13 			"/>
			
				<rect x="1506.9" y="758.39" transform="matrix(0.7354 -0.6777 0.6777 0.7354 -147.9874 1235.3435)" width="1.65" height="97.53"/>
		</g>
		<g id="XMLID_1036_">
			<polygon points="1540.72,842.97 1618.26,902.11 1617.26,903.43 1539.72,844.27 			"/>
			
				<rect x="1501.12" y="764.63" transform="matrix(0.6065 -0.7951 0.7951 0.6065 -55.6733 1514.2899)" width="1.65" height="97.53"/>
		</g>
		<g id="XMLID_1037_">
			<polygon points="1540.66,842.93 1627.3,887.71 1626.54,889.18 1539.9,844.39 			"/>
			<rect x="1496.52" y="771.77" transform="matrix(0.4592 -0.8883 0.8883 0.4592 80.8597 1773.8817)" width="1.65" height="97.53"/>
		</g>
		<g id="XMLID_1038_">
			<rect x="1586.07" y="809.45" transform="matrix(0.298 -0.9546 0.9546 0.298 294.8049 2117.2917)" width="1.65" height="97.53"/>
			<polygon points="1447.74,813.05 1540.84,842.11 1540.35,843.68 1447.25,814.63 			"/>
		</g>
		<g id="XMLID_1039_">
			<rect x="1587.95" y="801.16" transform="matrix(0.1277 -0.9918 0.9918 0.1277 542.978 2317.2036)" width="1.65" height="97.53"/>
			
				<rect x="1491.33" y="787.89" transform="matrix(0.1277 -0.9918 0.9918 0.1277 471.8669 2209.8015)" width="1.65" height="97.53"/>
		</g>
		<g id="XMLID_1040_">
			<polygon points="1540.45,842.88 1637.87,838.35 1637.95,840 1540.53,844.53 			"/>
			<rect x="1442.97" y="844.32" transform="matrix(0.9989 -0.0465 0.0465 0.9989 -37.6531 70.2157)" width="97.53" height="1.66"/>
		</g>
		<g id="XMLID_1041_">
			
				<rect x="1539.37" y="832.18" transform="matrix(0.9757 -0.2192 0.2192 0.9757 -143.9909 368.4519)" width="97.52" height="1.65"/>
			<polygon points="1445.04,863.46 1540.2,842.08 1540.56,843.69 1445.4,865.08 			"/>
		</g>
		<g id="XMLID_1042_">
			<rect x="1536.86" y="824.06" transform="matrix(0.9228 -0.3853 0.3853 0.9228 -195.405 674.6539)" width="97.53" height="1.65"/>
			<rect x="1446.55" y="860.87" transform="matrix(0.9228 -0.3854 0.3854 0.9228 -216.5829 642.838)" width="97.53" height="1.65"/>
		</g>
		<g id="XMLID_1043_">
			<polygon points="1540.24,842.95 1622.35,790.3 1623.24,791.69 1541.14,844.33 			"/>
			<rect x="1450.43" y="868.44" transform="matrix(0.8419 -0.5397 0.5397 0.8419 -232.0546 946.592)" width="97.53" height="1.65"/>
		</g>
	</g>
	<g id="XMLID_1044_">
		
			<path fill-rule="evenodd" clip-rule="evenodd" fill="#FFFFFF" stroke="#000000" stroke-width="1.0735" stroke-miterlimit="22.9256" d="
			M1478.75,753.34c-2.94,1.99-5.8,4.14-8.55,6.43l-5.17-1.79c0.33-1.26,0.27-2.55-0.13-3.65l-6.15-2.86
			c-1.44,0.53-2.75,1.71-3.5,3.33c-0.75,1.6-0.81,3.32-0.32,4.76l5.26,2.45l1.15,6.03c-7.3,7.62-13.6,16.41-18.58,26.28l-2.99,0.25
			c-0.01-0.67-0.13-1.32-0.34-1.91l-6.15-2.86c-1.44,0.53-2.74,1.71-3.5,3.33c-0.75,1.61-0.82,3.32-0.33,4.76l6.25,2.91
			c0.67-0.26,1.32-0.67,1.88-1.19l1.7,2.27c-4.39,10.62-6.98,21.57-7.89,32.5l-3.05,1.79c-0.03-0.09-0.06-0.18-0.09-0.27l-6.15-2.86
			c-1.45,0.54-2.75,1.71-3.5,3.34c-0.74,1.6-0.81,3.32-0.33,4.76l6.25,2.91c1.04-0.4,1.99-1.13,2.73-2.12l3.77,2.53
			c0.04,3.99,0.3,7.98,0.77,11.92l-4.94,2.23l-4.36-2.03c-1.44,0.54-2.74,1.71-3.5,3.34c-0.74,1.6-0.82,3.32-0.32,4.75l6.24,2.9
			c1.42-0.54,2.68-1.71,3.43-3.31c0.11-0.23,0.2-0.45,0.27-0.68l4.59,1.55c0.62,3.01,1.36,6,2.22,8.95l-3.38,5.26l-2.04-0.95
			c-1.44,0.54-2.74,1.71-3.5,3.34c-0.75,1.6-0.82,3.32-0.32,4.75l6.25,2.91c1.41-0.55,2.68-1.71,3.43-3.31
			c0.47-1.01,0.67-2.07,0.63-3.07l2.2,0.53c1.74,4.42,3.78,8.72,6.09,12.88l-3.23,6.32l-3.19-1.48c-1.44,0.53-2.74,1.71-3.5,3.34
			c-0.74,1.6-0.81,3.32-0.32,4.75l6.25,2.91c1.42-0.55,2.68-1.71,3.43-3.31c0.32-0.7,0.52-1.42,0.6-2.13l7.54,1.57l2.16,2.65
			c0.46,0.57,0.92,1.14,1.39,1.71l-3.31,5.39l-0.05-0.02c-1.44,0.54-2.74,1.7-3.5,3.33c-0.75,1.61-0.82,3.32-0.32,4.76l6.25,2.91
			c1.42-0.55,2.68-1.71,3.43-3.32c0.76-1.63,0.81-3.37,0.3-4.82l-1.93-0.9l5.86,0.11c8.83,8.89,19.36,16.41,31.38,22
			c12.57,5.85,25.69,9.09,38.74,9.95l2.72,3.11c-0.86,0.62-1.6,1.5-2.1,2.58c-0.74,1.6-0.82,3.32-0.32,4.75l6.25,2.91
			c1.42-0.54,2.68-1.71,3.43-3.31c0.76-1.63,0.82-3.38,0.3-4.83l-2.08-0.97l1.34-4.04c1.96-0.04,3.92-0.14,5.88-0.29l5.05,3.97
			c-0.08,0.15-0.16,0.3-0.23,0.45c-0.74,1.6-0.81,3.32-0.32,4.76l6.25,2.91c1.42-0.55,2.69-1.71,3.43-3.31
			c0.76-1.63,0.82-3.38,0.29-4.83l-2.59-1.2l1.98-4.7c3.2-0.66,6.36-1.47,9.48-2.41l4.82,3.19l-0.04,0.08
			c-0.74,1.6-0.81,3.32-0.32,4.76l6.24,2.91c1.42-0.55,2.68-1.71,3.43-3.31c0.76-1.63,0.82-3.38,0.3-4.83l-3.77-1.76l0.57-5.12
			c2.61-1.12,5.17-2.33,7.69-3.64l5.78,2.48c-0.49,1.41-0.48,2.86-0.06,4.11l6.25,2.91c1.41-0.55,2.69-1.71,3.43-3.31
			c0.76-1.63,0.82-3.38,0.3-4.83l-6.15-2.86l-0.08,0.03l-0.18-3.97c3.18-2.08,6.25-4.33,9.21-6.74l5.22,1.32
			c-0.22,1.11-0.15,2.22,0.19,3.19l6.25,2.91c1.41-0.55,2.68-1.71,3.43-3.31c0.76-1.63,0.82-3.38,0.3-4.83l-6.15-2.86l-0.08,0.03
			l-1.3-3.53c2.64-2.62,5.16-5.4,7.54-8.32l4.25,0.45c-0.14,1-0.06,1.98,0.25,2.85l6.25,2.91c1.42-0.55,2.68-1.71,3.43-3.3
			c0.76-1.63,0.82-3.38,0.3-4.83l-6.15-2.86c-0.42,0.16-0.84,0.37-1.22,0.63l-1.6-3.2c2.31-3.39,4.46-6.94,6.42-10.65l3.39-0.11
			c0.02,0.6,0.12,1.19,0.31,1.73l6.25,2.91c1.41-0.55,2.68-1.71,3.43-3.31c0.76-1.63,0.82-3.38,0.3-4.83l-6.15-2.86
			c-0.44,0.16-0.88,0.39-1.28,0.67l-2.07-3.02c1.51-3.58,2.81-7.2,3.9-10.85l4.28-1.2l6.21,2.89c1.41-0.54,2.68-1.7,3.43-3.31
			c0.76-1.63,0.81-3.37,0.3-4.83l-6.15-2.86c-1.24,0.46-2.37,1.39-3.14,2.67l-2.38-3.57c0.72-3.67,1.25-7.36,1.6-11.04l4.27-2.13
			l4.93,2.29c1.42-0.55,2.69-1.71,3.43-3.31c0.76-1.62,0.81-3.38,0.3-4.83l-6.15-2.86c-1.1,0.41-2.12,1.19-2.87,2.26l-3.46-2.49
			c-0.03-3.28-0.21-6.54-0.54-9.79l5.55-2.87l3.96,1.84c1.41-0.55,2.68-1.7,3.43-3.31c0.76-1.63,0.82-3.38,0.29-4.83l-6.14-2.86
			c-1.42,0.53-2.7,1.67-3.46,3.25l-5.45-2.89c-0.55-2.63-1.21-5.23-1.95-7.81l2.66-5.49l3.72,1.73c1.41-0.54,2.69-1.71,3.43-3.31
			c0.76-1.63,0.82-3.38,0.3-4.83l-6.15-2.86c-1.44,0.54-2.74,1.7-3.5,3.34c-0.13,0.28-0.24,0.56-0.33,0.84l-4.59-1.93
			c-1.26-2.93-2.64-5.82-4.15-8.64l2.34-4.42l3.32,1.54c1.41-0.55,2.68-1.71,3.43-3.31c0.76-1.63,0.82-3.38,0.3-4.83l-6.15-2.86
			c-1.44,0.54-2.74,1.71-3.5,3.34c-0.23,0.49-0.39,0.99-0.5,1.49l-5.65-1.64l-0.08,0.05c-1.81-2.62-3.75-5.17-5.8-7.64l1.4-5.69
			l2.13,0.99c1.41-0.55,2.69-1.71,3.43-3.31c0.76-1.63,0.82-3.38,0.3-4.83l-6.15-2.86c-1.44,0.53-2.74,1.71-3.5,3.34
			c-0.55,1.18-0.73,2.42-0.59,3.58l-4.03,1.14c-2.43-2.41-4.98-4.72-7.66-6.9l1.21-5.42c1.24-0.61,2.33-1.69,3-3.13
			c0.76-1.63,0.82-3.38,0.3-4.83l-6.15-2.86c-1.44,0.53-2.74,1.71-3.5,3.34c-0.74,1.6-0.82,3.32-0.32,4.75l0.03,0.01l-3.32,1.68
			c-3.49-2.31-7.14-4.44-10.96-6.38l-0.68-4l1.22,0.57c1.41-0.55,2.68-1.71,3.43-3.31c0.76-1.63,0.81-3.38,0.3-4.83l-6.15-2.86
			c-1.44,0.54-2.74,1.71-3.5,3.34c-0.74,1.6-0.81,3.32-0.32,4.75l0.82,0.38l-2.8,2.42c-3.4-1.41-6.83-2.64-10.29-3.68l-2.3-5.46
			c1.31-0.58,2.48-1.7,3.18-3.21c0.76-1.63,0.82-3.38,0.3-4.82l-6.15-2.86c-1.44,0.53-2.74,1.71-3.5,3.34
			c-0.75,1.6-0.81,3.32-0.32,4.76l2.11,0.98l-4.16,4.61c-3.58-0.69-7.17-1.19-10.76-1.51l-2.91-4.39c1.13-0.62,2.12-1.65,2.75-2.99
			c0.76-1.63,0.82-3.38,0.3-4.83l-6.15-2.86c-1.44,0.54-2.74,1.7-3.5,3.34c-0.75,1.6-0.81,3.32-0.32,4.75l2.65,1.23l-1.98,5.31
			c-4.05-0.02-8.08,0.19-12.08,0.62l-3.02-3.33c0.9-0.63,1.67-1.53,2.19-2.65c0.76-1.63,0.82-3.38,0.3-4.83l-6.15-2.86
			c-1.44,0.54-2.75,1.71-3.5,3.34c-0.74,1.6-0.81,3.32-0.32,4.75l3.57,1.66l-2.48,5.33c-4.35,0.85-8.63,1.97-12.84,3.34l-3.21-1.99
			c0.73-0.6,1.36-1.4,1.8-2.34c0.76-1.63,0.82-3.38,0.3-4.83l-6.15-2.86c-1.44,0.53-2.74,1.71-3.5,3.34
			c-0.74,1.6-0.81,3.31-0.32,4.75l3.75,1.74l-1.06,5.31c-3.22,1.35-6.38,2.86-9.46,4.51l-5.02-2.4c0.73-1.61,0.79-3.34,0.27-4.77
			l-6.15-2.86c-1.45,0.54-2.74,1.71-3.5,3.34c-0.74,1.6-0.82,3.32-0.33,4.76l5.72,2.66L1478.75,753.34L1478.75,753.34z
			 M1431.28,836.07c-0.15,2.23-0.23,4.46-0.24,6.68l-3.06-2.04c0.47-1.01,0.67-2.06,0.63-3.06L1431.28,836.07L1431.28,836.07z
			 M1432,857.81c0.26,1.92,0.56,3.83,0.92,5.73l-3.97-1.34c0.12-0.97,0.01-1.93-0.29-2.78l-0.12-0.06L1432,857.81L1432,857.81z
			 M1435.99,875.84c0.52,1.66,1.08,3.31,1.67,4.94c0.14,0.39,0.29,0.78,0.43,1.17l-1.83-0.45c-0.03-0.09-0.05-0.17-0.08-0.26
			l-2.83-1.32L1435.99,875.84L1435.99,875.84z M1534.73,952.26c2.03,0.1,4.06,0.13,6.08,0.12l-1.13,3.42l-2.79-1.3
			c-0.05,0.02-0.09,0.03-0.14,0.06L1534.73,952.26L1534.73,952.26z M1550.22,951.89c3.41-0.33,6.8-0.82,10.15-1.45l-1.59,3.78
			l-2.29-1.06c-0.91,0.34-1.77,0.93-2.46,1.73L1550.22,951.89L1550.22,951.89z M1451.99,772.23c0.52,1.45,0.46,3.21-0.3,4.83
			c-0.75,1.6-2.02,2.76-3.43,3.31l-6.25-2.91c-0.49-1.43-0.42-3.15,0.32-4.76c0.76-1.63,2.06-2.8,3.5-3.34L1451.99,772.23
			L1451.99,772.23z M1431.72,813.94c0.52,1.45,0.46,3.2-0.3,4.83c-0.74,1.6-2.02,2.76-3.43,3.32l-6.25-2.91
			c-0.49-1.44-0.42-3.16,0.33-4.76c0.76-1.63,2.06-2.8,3.5-3.34L1431.72,813.94L1431.72,813.94z M1631.14,810.17
			c-8.51-23.33-25.93-43.41-50.23-54.72c-24.3-11.3-50.87-11.69-74.21-3.17c-23.33,8.52-43.41,25.93-54.71,50.23
			c-11.3,24.3-11.69,50.87-3.18,74.21c8.52,23.33,25.93,43.41,50.23,54.71c24.3,11.3,50.88,11.69,74.2,3.18
			c23.34-8.52,43.41-25.93,54.71-50.23C1639.27,860.07,1639.65,833.49,1631.14,810.17z"/>
		<polygon fill="#FFFFFF" stroke="#000000" stroke-width="1.0735" stroke-miterlimit="22.9256" points="1466.59,941.83 
			1537.7,841.82 1542.68,844.15 1511.61,963.23 1506.47,960.84 1533.43,857.47 1471.5,944.57 1468.48,943.17 		"/>
	</g>
	<path fill-rule="evenodd" clip-rule="evenodd" d="M1537.11,849.65c3.38,1.57,7.43,0.1,9.01-3.29c1.58-3.39,0.1-7.43-3.29-9.01
		c-3.38-1.57-7.43-0.1-9.01,3.29C1532.25,844.03,1533.73,848.07,1537.11,849.65z"/>
</g>
<circle fill="#FFFFFF" stroke="#000000" stroke-width="1.0735" stroke-miterlimit="10" cx="1538.61" cy="846.83" r="33.99"/>
<path fill="#FFFFFF" stroke="#000000" stroke-width="1.0735" stroke-miterlimit="10" d="M349.69,1023.07
	c0,0,171.72-176.24,649.08-176.24s577.98,176.24,577.98,176.24H349.69z"/>
<g>
	<path id="XMLID_2714_" fill="#E74631" d="M1268.17,840.68c0,0-6.75,14.66-5.61,20l4.23,1.7l3.97-19.11L1268.17,840.68z"/>
	<polygon id="XMLID_2715_" fill="#E74631" points="1276.93,843.57 1274.07,843.84 1272.74,863.73 1278.83,864.06 	"/>
	<polygon id="XMLID_2716_" fill="#B8834E" points="1337.31,777.13 1302.04,772.65 1301.03,777.49 1338.25,783.19 	"/>
	<polygon id="XMLID_2717_" fill="#B8834E" points="1337.25,787.99 1296.22,781.94 1294.84,788.58 1336.32,792.49 	"/>
	<polygon id="XMLID_2718_" fill="#B8834E" points="1336.47,797.23 1293.93,792.99 1292.98,797.56 1336.23,801.14 	"/>
	<polygon id="XMLID_2719_" fill="#B8834E" points="1290.37,803.6 1334.71,808.45 1335.59,814.16 1289.29,807.71 	"/>
	<polygon id="XMLID_2720_" fill="#B8834E" points="1288.35,812.54 1334.46,819.63 1335,826.3 1287.31,817.26 	"/>
	<polygon id="XMLID_2721_" fill="#B8834E" points="1284.86,824.48 1333.66,832.76 1334.7,838.63 1284.73,829.67 	"/>
	<polygon id="XMLID_2722_" fill="#B8834E" points="1282.42,836.23 1333.37,844.99 1334.3,851.86 1280.58,840.71 	"/>
	<polygon id="XMLID_2723_" fill="#B8834E" points="1278.44,847.05 1333.17,857.29 1333.99,863.63 1278.23,852.05 	"/>
	<polygon id="XMLID_2724_" fill="#E74631" points="1392.18,891.99 1391.92,898.84 1401.78,896.73 1401.42,891.15 	"/>
	<polygon id="XMLID_2725_" fill="#E74631" points="1358.39,897.73 1365.7,899.25 1363.68,910.03 1356.43,908.52 	"/>
	<polygon id="XMLID_2726_" fill="#E74631" points="1401.61,827.52 1410.38,840.59 1413.72,843.51 1411.31,846.82 1410.98,856.69 
		1402.14,863.85 1394.83,861.37 1397.51,851.67 1401.55,846.86 1402.89,840.4 	"/>
	<g id="XMLID_2727_">
		
			<polyline id="XMLID_2728_" fill="#FFFFFF" stroke="#000000" stroke-width="1.0735" stroke-linejoin="round" stroke-miterlimit="10" points="
			1283.57,859.12 1276,888.05 1290.86,891.14 1304.57,863.63 		"/>
		
			<polyline id="XMLID_2729_" fill="#FFFFFF" stroke="#000000" stroke-width="1.0735" stroke-linejoin="round" stroke-miterlimit="10" points="
			1308.5,864 1308.36,894.77 1321.57,897.51 1330.12,864.65 		"/>
		
			<ellipse id="XMLID_2730_" transform="matrix(0.2033 -0.9791 0.9791 0.2033 342.2608 1856.6936)" cx="1312.09" cy="718.02" rx="1.22" ry="0.76"/>
		
			<ellipse id="XMLID_2731_" transform="matrix(0.2033 -0.9791 0.9791 0.2033 350.1875 1871.9852)" cx="1325.45" cy="720.8" rx="1.22" ry="0.76"/>
		<ellipse transform="matrix(0.6786 -0.7345 0.7345 0.6786 -133.4224 1267.9617)" cx="1382.14" cy="786.44" rx="1.22" ry="0.76"/>
		<ellipse transform="matrix(0.6786 -0.7345 0.7345 0.6786 -138.2415 1277.9304)" cx="1391.12" cy="796.93" rx="1.22" ry="0.76"/>
		
			<path id="XMLID_2732_" fill="#E74631" stroke="#000000" stroke-width="1.0735" stroke-linejoin="round" stroke-miterlimit="10" d="
			M1304.59,709.72c0,0,6.43-3.4,19.31-0.23c12.88,3.17,25.56,12.3,25.56,12.3s-1.29-11.34-3.76-14.51c0,0,5.49-11.41-5.97-16.4
			c-11.46-4.98-21.69-5.87-25.99-2.7s-4.05,6.98-6.97,11.01c-2.92,4.02-5.47,11.29-5.47,11.29L1304.59,709.72z"/>
		<path id="XMLID_2733_" fill="none" stroke="#000000" stroke-width="1.0735" stroke-linejoin="round" stroke-miterlimit="10" d="
			M1307.91,708.68c0,0-2.83,8.53-3.04,14.63c-0.21,6.09,3,8.63,6.61,13.11c3.6,4.48,1.21,9.59,1.21,9.59s-9.29,0.95-6.28,3.17
			c3.01,2.22,6.7,5.11,11.78,6.17c5.09,1.06,13.21,1.64,13.26-2.05c0.05-3.7-6.38-3.73-6.38-3.73l1.11-5.33"/>
		<path id="XMLID_2734_" fill="none" stroke="#000000" stroke-width="1.0735" stroke-linejoin="round" stroke-miterlimit="10" d="
			M1336.12,716.27c0,0,1.14,16.76-3.55,21.36s-9.11,6.62-9.11,6.62s13.58,0.55,18.06-4.76c4.95-5.87,6.54-13.54,3.12-20.82"/>
		<path id="XMLID_2735_" fill="none" stroke="#000000" stroke-width="1.0735" stroke-linejoin="round" stroke-miterlimit="10" d="
			M1304.59,709.72c0,0-8.52,18.7-4.06,25.49s12.74,4.97,12.74,4.97"/>
		<path id="XMLID_2736_" fill="none" stroke="#000000" stroke-width="1.0735" stroke-linejoin="round" stroke-miterlimit="10" d="
			M1318.83,708.52c0,0,9.81,10.66,17.34,12.35"/>
		<path id="XMLID_2737_" fill="none" stroke="#000000" stroke-width="1.0735" stroke-linejoin="round" stroke-miterlimit="10" d="
			M1312.47,696.4c0,0,14.46-1.65,30.51,8.93"/>
		<path id="XMLID_2738_" fill="none" stroke="#000000" stroke-width="1.0735" stroke-linejoin="round" stroke-miterlimit="10" d="
			M1316.36,720.43c0,0-3.35,6.22,1.27,6.86"/>
		<path id="XMLID_2739_" fill="none" stroke="#000000" stroke-width="1.0735" stroke-linejoin="round" stroke-miterlimit="10" d="
			M1315.83,731.76c0,0,5.54,1.15,7.68-2.05"/>
		<path id="XMLID_2740_" fill="none" stroke="#000000" stroke-width="1.0735" stroke-linejoin="round" stroke-miterlimit="10" d="
			M1308.75,746.68c0,0-23.89,7.38-24.77,30.25l17.72,3.68l0.46-11.01"/>
		<path id="XMLID_2741_" fill="none" stroke="#000000" stroke-width="1.0735" stroke-linejoin="round" stroke-miterlimit="10" d="
			M1329.96,750.77c0,0,16.45,7.03,19.37,30.27l-11.95-1.05"/>
		<path id="XMLID_2742_" fill="none" stroke="#000000" stroke-width="1.0735" stroke-linejoin="round" stroke-miterlimit="10" d="
			M1335.81,768.13c0,0,3.87,13.57,1.89,18.04c-1.99,4.47-3.74,78.37-3.74,78.37s-43.04,2.06-57.26-9.14l20.01-75.83"/>
		<path id="XMLID_2743_" fill="none" stroke="#000000" stroke-width="1.0735" stroke-linejoin="round" stroke-miterlimit="10" d="
			M1287.36,777.62c0,0-3.78,20.06-5.49,26.42s-10.62,21.81-10.62,21.81"/>
		<path id="XMLID_2744_" fill="none" stroke="#000000" stroke-width="0.9399" stroke-linejoin="round" stroke-miterlimit="10" d="
			M1276.26,822.69c0,0,1.61,8.15,0.81,10.01c-0.8,1.86-3-1.83-3.56-8.42"/>
		
			<line id="XMLID_2745_" fill="none" stroke="#000000" stroke-width="0.9399" stroke-linejoin="round" stroke-miterlimit="10" x1="1277.18" y1="828.87" x2="1282.2" y2="831.69"/>
		<path id="XMLID_2746_" fill="none" stroke="#000000" stroke-width="1.0735" stroke-linejoin="round" stroke-miterlimit="10" d="
			M1347.37,780.87c0,0-2.67,24.42,1.02,31.39s11.01,16.47,11.01,16.47s5.91,2.94,5.62,6.24c-0.29,3.3-1.35,8.42-4.57,7.75
			c-3.22-0.67-7.32-2.82-7.81-7.11c-0.49-4.3-2.02-4.54-3.73-6.81c-1.7-2.27-5.84-8.31-8.86-12.67s-3.82-14.98-3.82-14.98"/>
		<path id="XMLID_2747_" fill="none" stroke="#000000" stroke-width="1.0735" stroke-linejoin="round" stroke-miterlimit="10" d="
			M1279.4,887.99l-1.79,8.6c0,0-14.23-3.04-14.22,3.08l20.17,4.19l3.7-13.48"/>
		<path id="XMLID_2748_" fill="none" stroke="#000000" stroke-width="1.0735" stroke-linejoin="round" stroke-miterlimit="10" d="
			M1311.79,895.48l-1.93,13.84l22.63,4.7c0,0,1.62-7.8-12.35-8.38c0,0-1.85,0.64-2.59-0.76c-0.74-1.4,1.46-8.67,1.46-8.67"/>
		
			<polyline id="XMLID_2749_" fill="none" stroke="#000000" stroke-width="1.0735" stroke-linejoin="round" stroke-miterlimit="10" points="
			1284.76,899.52 1275.21,898.84 1274.33,896.08 		"/>
		
			<polyline id="XMLID_2750_" fill="none" stroke="#000000" stroke-width="1.0735" stroke-linejoin="round" stroke-miterlimit="10" points="
			1310.62,906.19 1324.6,909.64 1326.08,906.82 		"/>
		<path id="XMLID_2751_" fill="none" stroke="#000000" stroke-width="1.0735" stroke-linejoin="round" stroke-miterlimit="10" d="
			M1383.05,823.48c0,0,1.95,0.4,3.05-7.38c1.1-7.78-11.05-9.17-12.33-17.89c-1.28-8.72,10.32-22.36,10.32-22.36
			s8.66,15.8,17.65,19.76l3,6.39c0,0,4.99,2.34,0.52,6.28c-4.47,3.94-8.01,0.47-8.01,0.47s-3.39,0.21-4.08,6.46
			c-0.69,6.25-0.8,6.86-0.8,6.86S1389.3,825.92,1383.05,823.48z"/>
		<path id="XMLID_2752_" fill="none" stroke="#000000" stroke-width="1.0735" stroke-linejoin="round" stroke-miterlimit="10" d="
			M1379.87,781.53c0,0,0.2-10.25,11.57-13.74c11.37-3.48,22.48,7.38,24.17,11.28l0.7-3.35c0,0,2.27,4.15,1.84,7.2
			c0,0,3.83,3.65,3.3,7.24l-2.62-1.44c0,0,1.26,7.99-2.79,13.41c-4.05,5.42-7.77,8.2-10.11,8.97s-4.6-0.95-4.6-0.95"/>
		<path fill="none" stroke="#000000" stroke-width="1.0735" stroke-miterlimit="10" d="M1384.75,790.83c0,0-3.57,1.33-3.58,3.31"/>
		<path id="XMLID_2753_" fill="none" stroke="#000000" stroke-width="1.0735" stroke-linejoin="bevel" stroke-miterlimit="10" d="
			M1377.79,798.33c0,0,3.91,3.28,5.6,1.2"/>
		<path id="XMLID_2754_" fill="none" stroke="#000000" stroke-width="1.0735" stroke-linejoin="round" stroke-miterlimit="10" d="
			M1393,792.36c0,0,4.32,1.85,3.99,5.46"/>
		<path id="XMLID_2755_" fill="none" stroke="#000000" stroke-width="1.0735" stroke-linejoin="round" stroke-miterlimit="10" d="
			M1383.29,780.9c0,0,4.32,1.85,3.99,5.46"/>
		<path id="XMLID_2756_" fill="none" stroke="#000000" stroke-width="1.0735" stroke-linejoin="round" stroke-miterlimit="10" d="
			M1362.19,830.52"/>
		<path id="XMLID_2757_" fill="none" stroke="#000000" stroke-width="1.0735" stroke-linejoin="round" stroke-miterlimit="10" d="
			M1386.1,816.1"/>
		<path id="XMLID_2758_" fill="none" stroke="#000000" stroke-width="1.0735" stroke-linejoin="round" stroke-miterlimit="10" d="
			M1390.21,835.87l-5.61,9.32l11.56,6.6c0,0,6.12-1.51,7.18-14.42c1.06-12.9-10.4-19.99-10.4-19.99"/>
		<path id="XMLID_2759_" fill="none" stroke="#000000" stroke-width="1.0735" stroke-linejoin="round" stroke-miterlimit="10" d="
			M1387.88,847.07c0,0-6.02,12.45-9.08,9.17c-3.06-3.28-9.39-13.01-9.39-13.01s1.76-8.35-5.36-10.9"/>
		<path id="XMLID_2760_" fill="none" stroke="#000000" stroke-width="1.0735" stroke-linejoin="round" stroke-miterlimit="10" d="
			M1394.12,851.37c-3,5.47-10.15,14.55-16.77,11.88c-5.54-2.24-10.29-14.89-14.49-15.7c-4.21-0.81-5.9-6.1-5.9-6.1"/>
		<path id="XMLID_2761_" fill="none" stroke="#000000" stroke-width="1.0735" stroke-linejoin="round" stroke-miterlimit="10" d="
			M1368.43,835.95"/>
		<path id="XMLID_2762_" fill="none" stroke="#000000" stroke-width="1.0735" stroke-linejoin="round" stroke-miterlimit="10" d="
			M1373.01,828.74"/>
		
			<polyline id="XMLID_2763_" fill="none" stroke="#000000" stroke-width="1.0735" stroke-linejoin="round" stroke-miterlimit="10" points="
			1362.86,847.55 1359.43,862.75 1393.5,870.95 1396.15,851.79 		"/>
		<path id="XMLID_2764_" fill="none" stroke="#000000" stroke-width="1.0735" stroke-linejoin="round" stroke-miterlimit="10" d="
			M1398.18,821.64"/>
		<path id="XMLID_2765_" fill="none" stroke="#000000" stroke-width="1.0735" stroke-linejoin="round" stroke-miterlimit="10" d="
			M1398.18,821.64c0,0-16.18,6.15-11.49,20.07l1.81-3.01c0,0-0.01-8.87,12.29-13.28L1398.18,821.64z"/>
		<path id="XMLID_2766_" fill="none" stroke="#000000" stroke-width="1.0735" stroke-linejoin="round" stroke-miterlimit="10" d="
			M1365.68,832.67c0,0,6.34-13.95,16.12-16.39l2.78-0.49C1384.58,815.79,1371.38,830.05,1365.68,832.67z"/>
		<path id="XMLID_2767_" fill="none" stroke="#000000" stroke-width="1.0735" stroke-linejoin="round" stroke-miterlimit="10" d="
			M1401.61,827.52c0,0,9.39,8.75,8.77,13.06c-0.62,4.31,4.22,12.37,0.59,16.1s-11.04,12.15-16.15,4.68"/>
		<path id="XMLID_2768_" fill="none" stroke="#000000" stroke-width="1.0735" stroke-linejoin="round" stroke-miterlimit="10" d="
			M1410.47,843.04c0,0-7.84,0.42-7.49-2.63"/>
		<path id="XMLID_2769_" fill="none" stroke="#000000" stroke-width="1.0735" stroke-linejoin="round" stroke-miterlimit="10" d="
			M1406.04,847.79l-6.82,6.05c0,0,2.22,6.3,5.37,4.24C1407.72,856.01,1409.25,854.43,1406.04,847.79z"/>
		<path id="XMLID_2770_" fill="none" stroke="#000000" stroke-width="1.0735" stroke-linejoin="round" stroke-miterlimit="10" d="
			M1410.38,840.59c0,0,3.14,1.22,3.33,2.92c0.19,1.7-2.4,3.31-2.4,3.31"/>
		
			<polyline id="XMLID_2771_" fill="none" stroke="#000000" stroke-width="1.0735" stroke-linejoin="round" stroke-miterlimit="10" points="
			1362.73,863.43 1358.31,884.69 1370.75,890.01 1376.01,874.18 1377.55,891.42 1389.15,891.91 1391.43,870.52 		"/>
		<path id="XMLID_2772_" fill="none" stroke="#000000" stroke-width="1.0735" stroke-linejoin="round" stroke-miterlimit="10" d="
			M1381.8,816.28c0,0-12.81-6.14-14.04-12.55l-12.29,3.88c0,0,6.61,17.16,12.86,18.58"/>
		<path id="XMLID_2773_" fill="none" stroke="#000000" stroke-width="1.0735" stroke-linejoin="round" stroke-miterlimit="10" d="
			M1370.33,822.55c0,0-0.83-0.4-4.65,10.12"/>
		<path id="XMLID_2774_" fill="none" stroke="#000000" stroke-width="1.0735" stroke-linejoin="round" stroke-miterlimit="10" d="
			M1367.75,803.72c0,0-4.67-11.96-3.34-23.31c1.32-11.35,2.91-10.96-0.03-15.74s-9.71-6.64-11.22-2.07
			c-1.51,4.57-2.26,7.72,0.08,9.14c2.34,1.42,2.34,1.42,2.34,1.42s-1.48,31.86,3.4,33.33"/>
		<path id="XMLID_2775_" fill="none" stroke="#000000" stroke-width="1.0735" stroke-linejoin="round" stroke-miterlimit="10" d="
			M1360.6,885.67l-4.31,23.6c0,0-9.97-2.14-9.92,4.35l0.09,3.42l14.11,2.82l2.3,0.48l0.62-9.25l4.07-21.74"/>
		
			<line id="XMLID_2776_" fill="none" stroke="#000000" stroke-width="1.0735" stroke-linejoin="round" stroke-miterlimit="10" x1="1356.43" y1="908.52" x2="1363.68" y2="910.03"/>
		
			<line id="XMLID_2777_" fill="none" stroke="#000000" stroke-width="1.0735" stroke-linejoin="round" stroke-miterlimit="10" x1="1358.39" y1="897.73" x2="1365.7" y2="899.25"/>
		<path id="XMLID_2778_" fill="none" stroke="#000000" stroke-width="1.0735" stroke-linejoin="round" stroke-miterlimit="10" d="
			M1380.6,891.55c0,0,0.28,7.24,4.67,7.83s18.2-3.08,18.2-3.08s-1.02,7.93,3.82,9.42s5.97-0.05,5.97-0.05l-2.36-14.98
			c0,0-12.49,0.46-16.64,1.05c-4.15,0.59-5.11,0.16-5.11,0.16"/>
		
			<line id="XMLID_2779_" fill="none" stroke="#000000" stroke-width="1.0735" stroke-linejoin="round" stroke-miterlimit="10" x1="1407.72" y1="890.83" x2="1410.58" y2="906.36"/>
		
			<line id="XMLID_2780_" fill="none" stroke="#000000" stroke-width="1.0735" stroke-linejoin="round" stroke-miterlimit="10" x1="1401.42" y1="891.15" x2="1401.78" y2="896.73"/>
		
			<line id="XMLID_2781_" fill="none" stroke="#000000" stroke-width="1.0735" stroke-linejoin="round" stroke-miterlimit="10" x1="1392.18" y1="891.99" x2="1391.92" y2="898.84"/>
		<path id="XMLID_2782_" fill="none" stroke="#000000" stroke-width="1.0735" stroke-linejoin="round" stroke-miterlimit="10" d="
			M1282.55,864.04c0,0-14.92,0.79-21.8-4.53s0.68-17.26,5.81-28s7.38-4.09,7.38-4.09s-7.93,7.91-5.77,13.26
			c2.16,5.35,11.11,2.31,11.11,2.31"/>
	</g>
</g>
<g>
	<text transform="matrix(1 0 0 1 669.8499 279.6279)"><tspan x="0" y="0" font-family="'MicrosoftJhengHeiBold'" font-size="24px" letter-spacing="2">原來，要賺日本人的錢，最好在市區開個大飯店；</tspan><tspan x="52.8" y="38.21" font-family="'MicrosoftJhengHeiBold'" font-size="24px" letter-spacing="2">要賺大陸人的錢，最好在景點開藝品店。</tspan><tspan x="-92.4" y="76.41" font-family="'MicrosoftJhengHeiBold'" font-size="24px" letter-spacing="2">同樣是外國旅客，陸客與日客對台灣經濟的影響層面，大不相同。</tspan></text>
</g>
<g>
	<text transform="matrix(1 0 0 1 755.9131 986.1484)" font-family="'MicrosoftJhengHeiBold'" font-size="19px" letter-spacing="1">資料來源：交通部觀光局，2015年統計資料</text>
</g>
<g>
	<rect y="1022.74" fill-rule="evenodd" clip-rule="evenodd" width="1920" height="57.26"/>
	<g>
		<g id="XMLID_3739_">
			<g>
				<g id="XMLID_198_">
					<g>
						<path id="XMLID_199_" fill-rule="evenodd" clip-rule="evenodd" fill="#FFFFFF" d="M782.64,1060.25
							c-1.42-3.03-2.49-5.38-3.88-8.4l0.01-0.01c-0.49-1.19-1.67-1.59-2.72-1.14c-0.35,0.15-4.38,1.85-5.3,2.25
							c-1.54,0.44-2.3-0.49-2.61-1.05c-0.4-0.88-2.69-6.27-3.55-8.33c-0.18-0.43-0.26-0.78-0.39-1.23c-0.32-1.1,0.66-2.07,1.5-2.46
							c1.06-0.5,2.59-0.29,3.11,0.47c0.22,0.33,2.51,5.75,3.5,8.09l0,0c0.48,1.19,1.66,1.59,2.71,1.15
							c1.38-0.58,5.86-2.65,6.21-2.81c1.04-0.47,1.54-1.61,0.99-2.77l-0.01,0.01c-1.29-3.07-2.31-5.45-3.58-8.54
							c-0.49-1.19-1.67-1.59-2.72-1.14c-4.48,1.91-5.33,2.33-9.82,4.23c-0.7,0.29-2.21,1.16-2.53,1.85
							c-0.61,0.82-0.66,2.09-0.25,3.07c0.77,1.81,8.68,19.59,8.68,19.59c0.16,0.36,0.33,0.74,0.42,1.12
							c0.22,0.9-0.67,2.17-1.75,2.61c-0.85,0.35-2.23,0.42-2.83-0.56c-0.24-0.39-0.45-0.7-0.64-1.12c-0.48-1.04-0.96-2.08-1.43-3.11
							c-0.83-1.82-1.89-4.16-2.47-5.41c-0.04-0.09-0.13-0.17-0.23-0.22c-0.21-0.09-0.4-0.08-0.55-0.01c-0.14,0.08-0.3,0.18-0.3,0.38
							c0,0.12,0.04,0.29,0.08,0.39c0.26,0.56,0.61,1.33,0.99,2.16c0.25,0.57,0.48,1.08,0.66,1.47c0.82,1.78,1.64,3.57,2.46,5.35
							c0.44,0.96,1.41,1.78,2.43,1.89c0.72,0.23,2.39-0.31,3.07-0.62c4.43-2.03,5.31-2.37,9.75-4.39
							C782.69,1062.55,783.19,1061.41,782.64,1060.25z"/>
						<path fill="#FFFFFF" d="M770.88,1050.17c0.13,0.3,0,0.66-0.31,0.79l0,0c-0.3,0.13-0.66-0.01-0.79-0.31l-3.69-8.38
							c-0.13-0.3,0.01-0.66,0.31-0.79l0,0c0.3-0.13,0.66,0.01,0.79,0.31L770.88,1050.17z"/>
						<path fill="#FFFFFF" d="M769.98,1064.07c0.13,0.3,0,0.66-0.3,0.79l0,0c-0.3,0.14-0.66,0-0.79-0.3l-3.73-8.35
							c-0.14-0.3,0-0.66,0.3-0.79l0,0c0.3-0.14,0.66,0,0.79,0.3L769.98,1064.07z"/>
					</g>
				</g>
				<g id="XMLID_178_">
					<g id="XMLID_196_">
						<g>
							<path fill="#FFFFFF" d="M804.04,1054.35c0,2.6-2.33,4.5-5.9,4.5c-2.3,0-4.15-0.53-5.49-1.11c-0.35-0.14-0.65-0.53-0.65-0.95
								c0-0.51,0.37-0.97,0.95-0.97c0.14,0,0.28,0.02,0.44,0.09c1.04,0.46,2.56,0.94,4.54,0.94c2.28,0,4.03-0.64,4.03-2.65
								c0-3.41-9.79-1.52-9.79-7.19c0-2.56,2.07-4.73,5.97-4.73c1.8,0,3.34,0.3,4.59,0.76c0.32,0.12,0.64,0.37,0.64,0.92
								c0,0.46-0.34,0.97-0.92,0.97c-0.12,0-0.25-0.05-0.37-0.09c-1.06-0.37-2.3-0.62-3.71-0.62c-2.33,0-4.1,0.9-4.1,2.63
								C794.27,1050.85,804.04,1048.27,804.04,1054.35z"/>
						</g>
					</g>
					<g id="XMLID_194_">
						<g>
							<path fill="#FFFFFF" d="M823.66,1044.6c0,0.55-0.44,0.97-0.99,0.97h-4.68v13.21c0,0.58-0.48,1.04-1.06,1.04
								c-0.58,0-1.04-0.46-1.04-1.04v-13.21h-4.7c-0.55,0-0.97-0.41-0.97-0.97c0-0.55,0.41-0.99,0.97-0.99h11.48
								C823.23,1043.6,823.66,1044.04,823.66,1044.6z"/>
						</g>
					</g>
					<g id="XMLID_191_">
						<g>
							<path fill="#FFFFFF" d="M844.74,1051.65c-0.09,4.82-3.18,8.27-8.09,8.27c-4.93,0-8-3.46-8.09-8.27
								c0.09-4.82,3.16-8.27,8.09-8.27C841.56,1043.37,844.65,1046.83,844.74,1051.65z M842.64,1051.65c0-3.55-2.19-6.32-5.99-6.32
								c-3.83,0-5.99,2.77-5.99,6.32s2.17,6.31,5.99,6.31C840.45,1057.96,842.64,1055.2,842.64,1051.65z"/>
						</g>
					</g>
					<g id="XMLID_189_">
						<g>
							<path fill="#FFFFFF" d="M864.98,1057.66c-0.02,0.44-0.21,0.67-0.51,0.83c-1.43,0.81-3,1.43-5.25,1.43
								c-4.59,0-8.07-3.13-8.07-8.27s3.48-8.27,8.07-8.27c2.26,0,3.83,0.62,5.25,1.43c0.3,0.16,0.48,0.39,0.51,0.83
								c0.02,0.48-0.35,0.92-0.92,0.92c-0.12,0-0.28-0.02-0.41-0.09c-1.22-0.64-2.42-1.08-4.22-1.08c-4.08,0-6.18,2.72-6.18,6.27
								s2.1,6.27,6.18,6.27c1.8,0,3-0.44,4.22-1.08c0.14-0.07,0.3-0.09,0.41-0.09C864.63,1056.74,865,1057.18,864.98,1057.66z"/>
						</g>
					</g>
					<g id="XMLID_187_">
						<g>
							<path fill="#FFFFFF" d="M884.93,1058.79c0.02,0.55-0.44,1.01-1.01,1.01c-0.35,0-0.65-0.16-0.83-0.42l-5.95-7.58l-2.63,2.65
								v4.31c0,0.58-0.48,1.04-1.06,1.04c-0.58,0-1.04-0.46-1.04-1.04v-14.22c0-0.58,0.46-1.06,1.04-1.06
								c0.58,0,1.06,0.48,1.06,1.06v7.33l7.88-8.02c0.16-0.18,0.44-0.37,0.78-0.37c0.55,0,1.01,0.44,0.97,0.99
								c-0.02,0.25-0.09,0.48-0.25,0.65l-5.32,5.3l6.11,7.7C884.83,1058.33,884.93,1058.54,884.93,1058.79z"/>
						</g>
					</g>
					<g id="XMLID_185_">
						<g>
							<path fill="#FFFFFF" d="M894.59,1045.56v5.09h7.1c0.55,0,0.99,0.44,0.99,0.99c0,0.55-0.44,0.97-0.99,0.97h-7.1v6.15
								c0,0.58-0.48,1.04-1.06,1.04c-0.58,0-1.04-0.46-1.04-1.04v-14.1c0-0.58,0.46-1.06,1.04-1.06h8.97c0.55,0,0.99,0.44,0.99,0.99
								c0,0.55-0.44,0.97-0.99,0.97H894.59z"/>
						</g>
					</g>
					<g id="XMLID_183_">
						<g>
							<path fill="#FFFFFF" d="M922.36,1058.72c0,0.55-0.44,0.97-0.99,0.97h-9.24c-0.58,0-1.04-0.46-1.04-1.04v-13.99
								c0-0.58,0.46-1.06,1.04-1.06h9.24c0.55,0,0.99,0.44,0.99,0.99c0,0.55-0.44,0.97-0.99,0.97h-8.18v5.09h7.35
								c0.55,0,0.99,0.44,0.99,0.99c0,0.55-0.44,0.97-0.99,0.97h-7.35v5.12h8.18C921.92,1057.73,922.36,1058.17,922.36,1058.72z"/>
						</g>
					</g>
					<g id="XMLID_181_">
						<g>
							<path fill="#FFFFFF" d="M941.37,1059c0,0.55-0.44,0.97-0.99,0.97h-9.24c-0.58,0-1.04-0.46-1.04-1.04v-13.99
								c0-0.58,0.46-1.06,1.04-1.06h9.24c0.55,0,0.99,0.44,0.99,0.99s-0.44,0.97-0.99,0.97h-8.18v5.09h7.35
								c0.55,0,0.99,0.44,0.99,0.99c0,0.55-0.44,0.97-0.99,0.97h-7.35v5.12h8.18C940.93,1058.01,941.37,1058.44,941.37,1059z"/>
						</g>
					</g>
					<g id="XMLID_179_">
						<g>
							<path fill="#FFFFFF" d="M959.36,1058.66c0,0.58-0.48,1.04-1.06,1.04h-8.18c-0.81,0-1.45-0.65-1.45-1.45v-13.69
								c0-0.58,0.46-1.06,1.04-1.06c0.58,0,1.06,0.48,1.06,1.06v13.04h7.54C958.87,1057.6,959.36,1058.08,959.36,1058.66z"/>
						</g>
					</g>
				</g>
			</g>
		</g>
		
			<rect x="973.23" y="1034.16" fill="none" stroke="#FFFFFF" stroke-width="2.147" stroke-miterlimit="10" width="183.17" height="33.92"/>
		<g id="XMLID_3806_">
			<text transform="matrix(1 0 0 1 984.6589 1057.5469)" fill="#FFFFFF" font-family="'DFHeiStd-W9-B5pc-H'" font-size="17.1763px">如欲轉載 請註明出處</text>
		</g>
	</g>
</g>
<g>
	
		<text transform="matrix(0.8901 -0.133 0.1478 0.989 583.9195 630.8921)" font-family="'DFHeiStd-W7-B5pc-H'" font-size="18.2498px" letter-spacing="1.11">文案編輯  亮</text>
	<path fill="none" stroke="#000000" stroke-width="1.0735" stroke-miterlimit="10" d="M583.59,646.53l2.08,13.79l10.32-12.68
		c0,0,106.15-3.98,106.08-34.9c-0.07-28.15-33.33-29.6-87.11-21.59S566.28,630.39,583.59,646.53z"/>
	<polygon points="658.25,608.5 659.23,618.46 663.31,612.45 	"/>
</g>
<g>
	<path fill="#FFFFFF" stroke="#000000" stroke-width="1.0735" stroke-miterlimit="10" d="M1323.64,640.46l-2.02,13.42l-10.04-12.34
		c0,0-103.31-3.87-103.24-33.96c0.06-27.4,32.18-26.85,84.78-21.01C1407.2,599.24,1392.24,652.2,1323.64,640.46z"/>
	<polygon points="1297.93,623.83 1299.4,608.81 1305.55,617.88 	"/>
	
		<text transform="matrix(0.8925 0.1157 -0.1286 0.9917 1220.468 611.563)" font-family="'DFHeiStd-W7-B5pc-H'" font-size="18.2498px" letter-spacing="1.11">圖文製作</text>
	
		<text transform="matrix(0.8925 0.1157 -0.1286 0.9917 1309.1486 622.94)" font-family="'Avenir-Roman'" font-size="18.2498px" letter-spacing="1.11">Chieni</text>
</g>
<g>
	<path id="XMLID_2783_" fill="#FFFFFF" d="M579.21,905.76c0,0-15.57,8.53-5.62,14.19c9.95,5.65,18.13-0.4,19.1-8.88
		C593.67,902.58,579.21,905.76,579.21,905.76z"/>
	<rect x="687.39" y="870.58" fill="#FFFFFF" width="17.67" height="22.02"/>
	<polygon fill="#B8834E" points="618.57,826.08 622.31,848.92 623.2,884.24 608.81,899.58 610.97,912.76 588.27,919.94 
		586.65,912.95 571.62,907.66 580.93,888.23 570.97,844.94 576.62,840.87 581.79,843.82 585.71,842.91 577.27,832.85 	"/>
	<path fill="#E74631" d="M637.33,908.92l38.01-6.22c6.12-1,10.31-6.83,9.3-12.95l-7.63-46.59c-1-6.12-6.83-10.31-12.95-9.3
		l-38.01,6.22c-6.12,1-10.31,6.83-9.3,12.95l7.63,46.59C625.39,905.74,631.21,909.93,637.33,908.92z"/>
	<polygon fill="#E74631" points="684.55,750.11 675.49,751.05 669.97,747.98 658.48,750.14 651,755.06 643.57,754.79 651.87,794.3 
		657.73,796.16 684.05,791.85 687.39,784.8 	"/>
	<g id="XMLID_2784_">
		<path fill="none" stroke="#000000" stroke-width="1.0735" stroke-linejoin="round" stroke-miterlimit="10" d="M676.71,712.17
			c0,0,3.85,17.83-2.38,24.66s-4.36,11.16-4.36,11.16l-7.91,1.3c0,0-1.8-6.28-5.19-8.05s-7.4-2.66-9.2-8.94
			c-1.8-6.28-2.61-14.94-2.61-14.94L676.71,712.17z"/>
		<path fill="none" stroke="#000000" stroke-width="1.0735" stroke-linejoin="round" stroke-miterlimit="10" d="M669.94,744.31
			c4.32,15.03,21.48,2.71,24.68-4.92c3.21-7.63-0.92-22.12-11.77-39c-10.85-16.88-24.13-11.54-24.13-11.54s-20.75-1-23.39,23.21
			c-2.64,24.21-7.42,35.62,1.11,40.33c8.53,4.71,23.15,3.91,23.45-8"/>
		<ellipse transform="matrix(0.9869 -0.1616 0.1616 0.9869 -107.7936 118.0677)" cx="671.96" cy="721.73" rx="0.76" ry="1.22"/>
		<ellipse transform="matrix(0.9869 -0.1616 0.1616 0.9869 -108.523 115.131)" cx="653.54" cy="724.74" rx="0.76" ry="1.22"/>
		<ellipse transform="matrix(0.9869 -0.1616 0.1616 0.9869 -107.3198 105.0083)" cx="591.91" cy="712.29" rx="0.76" ry="1.22"/>
		<ellipse transform="matrix(0.9869 -0.1616 0.1616 0.9869 -107.8209 102.991)" cx="579.26" cy="714.36" rx="0.76" ry="1.22"/>
		<path fill="none" stroke="#000000" stroke-width="1.0735" stroke-linejoin="round" stroke-miterlimit="10" d="M663.1,724.42
			c0,0,3.06,4.46,2.1,6.17c-0.96,1.71-1.73,0.54-1.73,0.54"/>
		<path fill="none" stroke="#000000" stroke-width="1.0735" stroke-linejoin="round" stroke-miterlimit="10" d="M655.48,720.26
			c0,0-3.09-1.88-5.03,0.82"/>
		<path fill="none" stroke="#000000" stroke-width="1.0735" stroke-linejoin="round" stroke-miterlimit="10" d="M668.37,718.15
			c0,0,2.35-2.64,5.41-0.89"/>
		<path fill="none" stroke="#000000" stroke-width="1.0735" stroke-linejoin="round" stroke-miterlimit="10" d="M667.59,733.63
			c0,0-2.58,2.8-6.06,0.99"/>
		<path fill="none" stroke="#000000" stroke-width="1.0735" stroke-linejoin="round" stroke-miterlimit="10" d="M664.02,700.48
			c0,0,4.39,4.26,5.79,12.82"/>
		<path fill="none" stroke="#000000" stroke-width="1.0735" stroke-linejoin="round" stroke-miterlimit="10" d="M670.05,705.31
			c0,0,1.91,1.68,2.99,7.45"/>
		<path fill="none" stroke="#000000" stroke-width="1.0735" stroke-linejoin="round" stroke-miterlimit="10" d="M671.48,748.01
			l-11.71,1.92c0,0-4.16,5.49-0.05,7.27c4.11,1.78,6.81-5.62,6.81-5.62s2.22,4.33,6.11,3.5
			C676.53,754.26,671.48,748.01,671.48,748.01z"/>
		<path fill="none" stroke="#000000" stroke-width="1.0735" stroke-linejoin="round" stroke-miterlimit="10" d="M686.9,771.37
			c0.71,0.7,3.42,3.77,4.56,4.52c5.62,3.69,16.11,10.95,20.93,10.16c5.8-0.95,12.7-5.72,15.84-14.14
			c3.39-9.12,4.14-20.25,7.51-31.76s-0.17-17.07-5.38-16.79c-5.21,0.28-3.3,17.33-5.73,10.28c-2.43-7.05-6.86-4.14-4.74,0.78
			c2.12,4.91,3.87,10.24,3.87,10.24s0.4,13.17-3.6,20.84s-12.27,15.65-22.75-0.17c-10.48-15.82-13.1-15.51-13.1-15.51
			s2.79,17.56,2.51,33.43c-0.28,15.87-11.93,7.5-11.72,5.62c0,0-0.47,3.57-3.97,4.35c-3.51,0.78-5.52,2.14-9.22-2.19
			c0,0-2.09,4.25-6.36,4.54c-4.27,0.29-6.25-8.02-7.1-13.23s-4.88-26.98-4.88-26.98s-12.2,29.37-12.06,40.24
			c0,0,4.01,20.72,4.26,26.02c0.25,5.3-1.09,9.63,4.31,8.75s11.04-0.37,8.59-6.54c-2.45-6.18-4.98-6.58-4.98-6.58
			s-4.21-19.45-3.6-23.25c0.61-3.8,6.8-21.26,6.8-21.26"/>
		<path fill="none" stroke="#000000" stroke-width="1.0735" stroke-linejoin="round" stroke-miterlimit="10" d="M655.44,751.54"/>
		<path fill="none" stroke="#000000" stroke-width="1.0735" stroke-linejoin="round" stroke-miterlimit="10" d="M658.62,751.02"/>
		
			<ellipse transform="matrix(0.9869 -0.1616 0.1616 0.9869 -113.9634 117.8842)" fill="none" stroke="#000000" stroke-width="1.0735" stroke-linejoin="round" stroke-miterlimit="10" cx="667.75" cy="759.57" rx="1.11" ry="1.11"/>
		
			<ellipse transform="matrix(0.9869 -0.1616 0.1616 0.9869 -114.8519 118.1049)" fill="none" stroke="#000000" stroke-width="1.0735" stroke-linejoin="round" stroke-miterlimit="10" cx="668.66" cy="765.14" rx="1.11" ry="1.11"/>
		
			<ellipse transform="matrix(0.9869 -0.1616 0.1616 0.9869 -114.2611 105.4707)" fill="none" stroke="#000000" stroke-width="1.0735" stroke-linejoin="round" stroke-miterlimit="10" cx="591.28" cy="755.19" rx="1.11" ry="1.11"/>
		
			<ellipse transform="matrix(0.9869 -0.1616 0.1616 0.9869 -115.1496 105.6914)" fill="none" stroke="#000000" stroke-width="1.0735" stroke-linejoin="round" stroke-miterlimit="10" cx="592.2" cy="760.76" rx="1.11" ry="1.11"/>
		<polyline fill="none" stroke="#000000" stroke-width="1.0735" stroke-linejoin="round" stroke-miterlimit="10" points="
			684.05,791.85 684.52,794.7 655.37,799.48 655.54,795.54 		"/>
		<path fill="none" stroke="#000000" stroke-width="1.0735" stroke-linejoin="round" stroke-miterlimit="10" d="M637.79,911.83
			l38.05-6.23c5.11-0.84,8.61-5.7,7.77-10.81l-8.17-49.89c-0.84-5.11-5.7-8.61-10.81-7.77l-38.05,6.23
			c-5.11,0.84-8.61,5.7-7.77,10.81l8.17,49.89C627.82,909.17,632.68,912.67,637.79,911.83z"/>
		<polyline fill="none" stroke="#000000" stroke-width="1.0735" stroke-linejoin="round" stroke-miterlimit="10" points="
			647.53,821.34 654.93,820.13 655.61,824.31 649.14,825.37 		"/>
		<polyline fill="none" stroke="#000000" stroke-width="1.0735" stroke-linejoin="round" stroke-miterlimit="10" points="
			635.8,823.26 630.04,824.21 630.73,828.39 635.85,827.55 		"/>
		<polyline fill="none" stroke="#000000" stroke-width="1.0735" stroke-linejoin="round" stroke-miterlimit="10" points="
			651.91,824.92 654.19,838.84 657.89,838.23 655.61,824.31 		"/>
		<polyline fill="none" stroke="#000000" stroke-width="1.0735" stroke-linejoin="round" stroke-miterlimit="10" points="
			630.73,828.39 633,842.31 636.71,841.7 634.43,827.78 		"/>
		
			<ellipse transform="matrix(0.9869 -0.1616 0.1616 0.9869 -138.4552 121.2031)" fill="none" stroke="#000000" stroke-width="1.0735" stroke-linejoin="round" stroke-miterlimit="10" cx="675.91" cy="911.8" rx="5.81" ry="5.81"/>
		
			<ellipse transform="matrix(0.9869 -0.1616 0.1616 0.9869 -139.8981 115.394)" fill="none" stroke="#000000" stroke-width="1.0735" stroke-linejoin="round" stroke-miterlimit="10" cx="639.47" cy="917.77" rx="5.81" ry="5.81"/>
		<path fill="none" stroke="#000000" stroke-width="1.0735" stroke-linejoin="round" stroke-miterlimit="10" d="M684.52,794.7
			c0,0,8.9,13.84,14.81,36.74s7.09,61.89,7.09,61.89l-17.13,2.8c0,0-8.35-62.97-14.8-71.3l-4.44,15.89"/>
		<path fill="none" stroke="#000000" stroke-width="1.0735" stroke-linejoin="round" stroke-miterlimit="10" d="M655.37,799.48
			c0,0-5.77,9.64-5.55,21.49"/>
		<path fill="none" stroke="#000000" stroke-width="1.0735" stroke-linejoin="round" stroke-miterlimit="10" d="M649.74,825.28
			c0,0-1.21,8.21-0.88,13.69"/>
		<path fill="none" stroke="#000000" stroke-width="1.0735" stroke-linejoin="round" stroke-miterlimit="10" d="M699.47,894.48
			l0,11.28c0,0,19-4.2,19.98,4.69l-27.1,4.44l-0.07-19.23"/>
		
			<line fill="none" stroke="#000000" stroke-width="1.0735" stroke-linejoin="round" stroke-miterlimit="10" x1="699.47" y1="898.27" x2="692.9" y2="899.35"/>
		
			<line fill="none" stroke="#000000" stroke-width="1.0735" stroke-linejoin="round" stroke-miterlimit="10" x1="699.47" y1="905.76" x2="692.33" y2="908.07"/>
		<path fill="none" stroke="#000000" stroke-width="1.0735" stroke-linejoin="round" stroke-miterlimit="10" d="M658.69,908.73
			l0.05,11.77l-31.89,5.22c0,0-1.22-9.75,7.67-10.99"/>
		<path fill="none" stroke="#000000" stroke-width="1.0735" stroke-linejoin="round" stroke-miterlimit="10" d="M582.97,743.25
			c0,0,0.54,1.54-0.56-3.43c-1.11-4.97-12.22-10.2-12.22-10.2s-3.79,0.09-5.17-4.75s3.45-5.75,3.45-5.75l-0.16-9.93l2.17,3.16
			l0.66-10.95l13.92-2.28l-3.64-2.92l13.65,4.66c0,0,4.72,14.87,3.85,23.51s-8.3,8.7-7.3,14.84c1,6.13,0.61,3.7,0.61,3.7"/>
		<path fill="none" stroke="#000000" stroke-width="1.0735" stroke-linejoin="round" stroke-miterlimit="10" d="M598.89,717.98
			c0,0,1.03-8.46,0.52-11.55c0,0,2.65,4.27,2.54,5.11c-0.11,0.84,5.06-21.23-15.89-28.54l4.04-0.66c0,0-9.84-4.98-18.53,3.03
			c0,0-10.85,0.8-15.42,7.16l3.43-0.56c0,0-7.19,8.87-6.47,14.79l2.17-1.64c0,0,0.22,8.81,2.72,13.62l2.2-1.49l4.82,7.63"/>
		
			<ellipse transform="matrix(0.9869 -0.1616 0.1616 0.9869 -107.3198 105.0083)" fill="none" stroke="#000000" stroke-width="1.0735" stroke-miterlimit="10" cx="591.91" cy="712.29" rx="5.37" ry="5.37"/>
		
			<ellipse transform="matrix(0.9869 -0.1616 0.1616 0.9869 -107.8508 102.8706)" fill="none" stroke="#000000" stroke-width="1.0735" stroke-miterlimit="10" cx="578.5" cy="714.48" rx="5.37" ry="5.37"/>
		
			<line fill="none" stroke="#000000" stroke-width="1.0735" stroke-miterlimit="10" x1="586.61" y1="713.16" x2="583.81" y2="713.61"/>
		
			<line fill="none" stroke="#000000" stroke-width="1.0735" stroke-miterlimit="10" x1="573.2" y1="715.35" x2="568.47" y2="719.12"/>
		<path fill="none" stroke="#000000" stroke-width="1.0735" stroke-miterlimit="10" d="M585.45,714.85c0,0,4.56,4.62,3.86,6.05
			c-0.7,1.43-2.54,2.03-2.54,2.03"/>
		<path fill="none" stroke="#000000" stroke-width="1.0735" stroke-miterlimit="10" d="M581.17,705.33c0,0-4.45-1.91-8.11,1.33"/>
		<path fill="none" stroke="#000000" stroke-width="1.0735" stroke-miterlimit="10" d="M587.7,704.26c0,0,2.93-2.52,7.06-1.16"/>
		<path fill="none" stroke="#000000" stroke-width="1.0735" stroke-miterlimit="10" d="M592.57,725.94c0,0-4.37,3.26-9.64,1.58"/>
		<polygon fill="none" stroke="#000000" stroke-width="1.0735" stroke-linejoin="round" stroke-miterlimit="10" points="
			587.52,744.13 579.11,743.63 576.15,749.67 588.51,750.18 		"/>
		<polygon fill="none" stroke="#000000" stroke-width="1.0735" stroke-linejoin="round" stroke-miterlimit="10" points="
			587.52,744.13 595.33,742.79 597.87,748.65 591.51,749.69 		"/>
		<path fill="none" stroke="#000000" stroke-width="1.0735" stroke-linejoin="round" stroke-miterlimit="10" d="M596.6,745.72
			c0,0,12.47,1.78,18.06,11.59s17.4,30.46,17.4,30.46"/>
		<path fill="none" stroke="#000000" stroke-width="1.0735" stroke-linejoin="round" stroke-miterlimit="10" d="M576.15,749.67
			c0,0-14.06,3.19-18.31,12.23c-4.25,9.04-6.51,55.77-3.53,64.42c2.98,8.65,12.55,16.15,12.55,16.15l10.42-9.62
			c0,0-8.37-6.56-9.79-15.19c-1.41-8.63,2.28-32.66,6.61-37.04"/>
		<path fill="none" stroke="#000000" stroke-width="1.0735" stroke-linejoin="round" stroke-miterlimit="10" d="M609,767.62
			c0,0,13.38,45.96,13.35,57.85l-45.08,7.38"/>
		<polyline fill="none" stroke="#000000" stroke-width="1.0735" stroke-linejoin="round" stroke-miterlimit="10" points="
			573.6,750.4 600.81,806.46 602.23,747.05 		"/>
		
			<line fill="none" stroke="#000000" stroke-width="1.0735" stroke-linejoin="round" stroke-miterlimit="10" x1="600.81" y1="806.46" x2="603.3" y2="828.58"/>
		
			<line fill="none" stroke="#000000" stroke-width="1.0735" stroke-linejoin="round" stroke-miterlimit="10" x1="640.08" y1="793.97" x2="654.09" y2="801.96"/>
		
			<line fill="none" stroke="#000000" stroke-width="1.0735" stroke-linejoin="round" stroke-miterlimit="10" x1="650.05" y1="816.13" x2="643.32" y2="813.77"/>
		<path fill="none" stroke="#000000" stroke-width="1.0735" stroke-linejoin="round" stroke-miterlimit="10" d="M634,812.29
			c0,0-13.81-2.81-17.23-15.93"/>
		
			<line fill="none" stroke="#000000" stroke-width="1.0735" stroke-linejoin="round" stroke-miterlimit="10" x1="618.57" y1="826.08" x2="622.31" y2="848.91"/>
		<path fill="none" stroke="#000000" stroke-width="1.0735" stroke-linejoin="round" stroke-miterlimit="10" d="M575.75,834.25
			c0,0,9.11,5.77,8.58,8.88c-0.53,3.11-7.72-2.26-7.72-2.26l-5.46,5.22l-4.3-3.62"/>
		<path fill="none" stroke="#000000" stroke-width="1.0735" stroke-linejoin="round" stroke-miterlimit="10" d="M571.16,846.09
			l17.12,73.86l21.32-3.49c0,0-1.96-46.73-9.29-68.79"/>
		
			<line fill="none" stroke="#000000" stroke-width="1.0735" stroke-linejoin="round" stroke-miterlimit="10" x1="623.25" y1="881.3" x2="608.81" y2="899.58"/>
		<path fill="none" stroke="#000000" stroke-width="1.0735" stroke-linejoin="round" stroke-miterlimit="10" d="M603.62,917.43
			c0,0,3.69,4.55,9.3,2.5c5.61-2.06,7.15,6.79,2.75,7.51c-4.4,0.72-22.31,3.65-22.31,3.65l-1.86-11.36"/>
		<polyline fill="none" stroke="#000000" stroke-width="1.0735" stroke-linejoin="round" stroke-miterlimit="10" points="
			580.93,888.23 571.62,907.66 586.81,913.63 		"/>
		<path fill="none" stroke="#000000" stroke-width="1.0735" stroke-linejoin="round" stroke-miterlimit="10" d="M574.8,908.91
			c0,0-4.75,3.02-4.85,5.91c-0.1,2.88,8.31,4.37,9.88,7.84s11.17,5.62,12.72,3.51"/>
	</g>
</g>
</svg>
