<?xml version="1.0" encoding="utf-8"?>
<!-- Generator: Adobe Illustrator 20.1.0, SVG Export Plug-In . SVG Version: 6.00 Build 0)  -->
<svg version="1.1" id="svg02" xmlns="http://www.w3.org/2000/svg" xmlns:xlink="http://www.w3.org/1999/xlink" x="0px" y="0px"
	 viewBox="0 0 1920 1080" enable-background="new 0 0 1920 1080" xml:space="preserve">
<pattern  width="28.8" height="28.8" patternUnits="userSpaceOnUse" id="_x31_0_dpi_10_x25_" viewBox="0.72 -29.52 28.8 28.8" overflow="visible">
	<g>
		<rect x="0.72" y="-29.52" fill="none" width="28.8" height="28.8"/>
		<g>
			<circle fill="#231815" cx="29.52" cy="-0.72" r="0.72"/>
			<circle fill="#231815" cx="15.12" cy="-0.72" r="0.72"/>
			<circle fill="#231815" cx="29.52" cy="-15.12" r="0.72"/>
			<circle fill="#231815" cx="15.12" cy="-15.12" r="0.72"/>
			<circle fill="#231815" cx="7.92" cy="-7.92" r="0.72"/>
			<circle fill="#231815" cx="22.32" cy="-7.92" r="0.72"/>
			<circle fill="#231815" cx="7.92" cy="-22.32" r="0.72"/>
			<circle fill="#231815" cx="22.32" cy="-22.32" r="0.72"/>
		</g>
		<g>
			<circle fill="#231815" cx="0.72" cy="-0.72" r="0.72"/>
			<circle fill="#231815" cx="0.72" cy="-15.12" r="0.72"/>
		</g>
		<g>
			<circle fill="#231815" cx="29.52" cy="-29.52" r="0.72"/>
			<circle fill="#231815" cx="15.12" cy="-29.52" r="0.72"/>
		</g>
		<g>
			<circle fill="#231815" cx="0.72" cy="-29.52" r="0.72"/>
		</g>
	</g>
</pattern>
<g opacity="0.3">
	<path id="XMLID_35_" fill="none" stroke="#000000" stroke-width="1.0735" d="M1633.1,58.82h-210.53l134.49-340.56l-11.63-4.57
		L1443.76-29.32h-229.35l43.57-253.23l-10.23-1.78l-87.03,502.64l10.23,1.78l14.45-82.91h192.98l-32.15,81.85l11.63,4.57
		l60.64-154.4h214.61 M1187.2,126.79l25.4-145.72h227.08l-57.24,145.72H1187.2z"/>
	<path id="XMLID_38_" fill="none" stroke="#000000" stroke-width="1.0735" d="M296.73,69.2h214.61l60.64,154.4l11.63-4.57
		l-32.15-81.85h192.98l14.45,82.91l10.23-1.78l-87.03-500.15l-10.23,1.78l43.57,250.74H486.07l-97.93-254.5l-11.63,4.57
		L507.26,58.82H296.73 M547.38,126.79L490.15-18.93h227.08l25.4,145.72H547.38z"/>
	
		<rect x="420.16" y="211.18" fill="#FFFFFF" stroke="#000000" stroke-width="1.0735" stroke-linejoin="round" stroke-miterlimit="10" width="1061.67" height="14.6"/>
	
		<rect x="471.67" y="224.64" fill="#FFFFFF" stroke="#000000" stroke-width="1.0735" stroke-linejoin="round" stroke-miterlimit="10" width="5.4" height="30.54"/>
	
		<rect x="357.06" y="224.64" fill="#FFFFFF" stroke="#000000" stroke-width="1.0735" stroke-linejoin="round" stroke-miterlimit="10" width="5.4" height="30.54"/>
	<path fill="#FFFFFF" stroke="#000000" stroke-width="1.0735" stroke-linejoin="round" stroke-miterlimit="10" d="M297.96,203.16
		c0,0-3.5-19.47,1.3-38.12c4.8-18.65,18.77-17.14,25.65-17.14s27.13,3.36,27.84,18.15c0.71,14.79,0,47.13,0,47.13
		s-22.34,29.67-38.29,27.82c-15.95-1.85-33.79,1.55-35.11-7.19C276.69,216.2,297.96,203.16,297.96,203.16z"/>
	<path fill="#FFFFFF" stroke="#000000" stroke-width="1.0735" stroke-linejoin="round" stroke-miterlimit="10" d="M307.09,203.16
		l31.8,1.38c0,0,9.06,1.03,12.78,6.55"/>
	
		<rect x="566.49" y="224.64" fill="#FFFFFF" stroke="#000000" stroke-width="1.0735" stroke-linejoin="round" stroke-miterlimit="10" width="5.4" height="30.54"/>
	<path fill="#FFFFFF" stroke="#000000" stroke-width="1.0735" stroke-linejoin="round" stroke-miterlimit="10" d="M350.29,203.16
		c0,0-3.5-19.47,1.3-38.12c4.8-18.65,18.77-17.14,25.65-17.14s27.13,3.36,27.84,18.15c0.71,14.79,0,47.13,0,47.13
		s-22.34,29.67-38.29,27.82c-15.95-1.85-33.79,1.55-35.11-7.19C329.02,216.2,350.29,203.16,350.29,203.16z"/>
	<path fill="#FFFFFF" stroke="#000000" stroke-width="1.0735" stroke-linejoin="round" stroke-miterlimit="10" d="M359.41,203.16
		l31.8,1.38c0,0,9.06,1.03,12.78,6.55"/>
	<path fill="#FFFFFF" stroke="#000000" stroke-width="1.0735" stroke-linejoin="round" stroke-miterlimit="10" d="M403.04,203.16
		c0,0-3.5-19.47,1.3-38.12c4.8-18.65,18.77-17.14,25.65-17.14s27.13,3.36,27.84,18.15c0.71,14.79,0,47.13,0,47.13
		s-22.34,29.67-38.29,27.82c-15.95-1.85-33.79,1.55-35.11-7.19C381.77,216.2,403.04,203.16,403.04,203.16z"/>
	<path fill="#FFFFFF" stroke="#000000" stroke-width="1.0735" stroke-linejoin="round" stroke-miterlimit="10" d="M413.06,203.16
		l31.8,1.38c0,0,9.06,1.03,12.78,6.55"/>
	<path fill="#FFFFFF" stroke="#000000" stroke-width="1.0735" stroke-linejoin="round" stroke-miterlimit="10" d="M454.93,203.16
		c0,0-3.5-19.47,1.3-38.12c4.8-18.65,18.77-17.14,25.65-17.14s27.13,3.36,27.84,18.15c0.71,14.79,0,47.13,0,47.13
		s-22.34,29.67-38.29,27.82c-15.95-1.85-33.79,1.55-35.11-7.19C433.67,216.2,454.93,203.16,454.93,203.16z"/>
	<path fill="#FFFFFF" stroke="#000000" stroke-width="1.0735" stroke-linejoin="round" stroke-miterlimit="10" d="M464.06,203.16
		l31.8,1.38c0,0,9.06,1.03,12.78,6.55"/>
	<path fill="#FFFFFF" stroke="#000000" stroke-width="1.0735" stroke-linejoin="round" stroke-miterlimit="10" d="M505.19,203.16
		c0,0-3.5-19.47,1.3-38.12s18.77-17.14,25.65-17.14s27.13,3.36,27.84,18.15c0.71,14.79,0,47.13,0,47.13s-22.34,29.67-38.29,27.82
		s-33.79,1.55-35.11-7.19C483.93,216.2,505.19,203.16,505.19,203.16z"/>
	<path fill="#FFFFFF" stroke="#000000" stroke-width="1.0735" stroke-linejoin="round" stroke-miterlimit="10" d="M515.21,203.16
		l31.8,1.38c0,0,9.06,1.03,12.78,6.55"/>
	<path fill="#FFFFFF" stroke="#000000" stroke-width="1.0735" stroke-linejoin="round" stroke-miterlimit="10" d="M553.76,203.16
		c0,0-3.5-19.47,1.3-38.12c4.8-18.65,18.77-17.14,25.65-17.14s27.13,3.36,27.84,18.15c0.71,14.79,0,47.13,0,47.13
		s-22.34,29.67-38.29,27.82s-33.79,1.55-35.11-7.19C532.49,216.2,553.76,203.16,553.76,203.16z"/>
	<path fill="#FFFFFF" stroke="#000000" stroke-width="1.0735" stroke-linejoin="round" stroke-miterlimit="10" d="M557.48,203.16
		l31.8,1.38c0,0,9.06,1.03,12.78,6.55"/>
	<path fill="#FFFFFF" stroke="#000000" stroke-width="1.0735" stroke-linejoin="round" stroke-miterlimit="10" d="M600.27,172.96
		c0,0-4.54,19.23-3.69,40"/>
	<path fill="#FFFFFF" stroke="#000000" stroke-width="1.0735" stroke-linejoin="round" stroke-miterlimit="10" d="M592.69,211.09
		c0,0-17.49,15.39-18.54,20.22"/>
	
		<rect x="1449.44" y="225.65" fill="#FFFFFF" stroke="#000000" stroke-width="1.0735" stroke-linejoin="round" stroke-miterlimit="10" width="5.4" height="30.54"/>
	
		<rect x="1560.32" y="225.65" fill="#FFFFFF" stroke="#000000" stroke-width="1.0735" stroke-linejoin="round" stroke-miterlimit="10" width="5.4" height="30.54"/>
	<path fill="#FFFFFF" stroke="#000000" stroke-width="1.0735" stroke-linejoin="round" stroke-miterlimit="10" d="M1628.56,204.17
		c0,0,3.5-19.47-1.3-38.12c-4.8-18.65-18.77-17.14-25.65-17.14s-27.13,3.36-27.84,18.15s0,47.13,0,47.13s22.34,29.67,38.29,27.82
		c15.95-1.85,33.79,1.55,35.11-7.19C1649.83,217.21,1628.56,204.17,1628.56,204.17z"/>
	<path fill="#FFFFFF" stroke="#000000" stroke-width="1.0735" stroke-linejoin="round" stroke-miterlimit="10" d="M1619.43,204.17
		l-31.8,1.38c0,0-9.06,1.03-12.78,6.55"/>
	<path fill="#FFFFFF" stroke="#000000" stroke-width="1.0735" stroke-linejoin="round" stroke-miterlimit="10" d="M1578.3,204.17
		c0,0,3.5-19.47-1.3-38.12s-18.77-17.14-25.65-17.14s-27.13,3.36-27.84,18.15c-0.71,14.79,0,47.13,0,47.13s22.34,29.67,38.29,27.82
		c15.95-1.85,33.79,1.55,35.11-7.19C1599.57,217.21,1578.3,204.17,1578.3,204.17z"/>
	<path fill="#FFFFFF" stroke="#000000" stroke-width="1.0735" stroke-linejoin="round" stroke-miterlimit="10" d="M1568.28,204.17
		l-31.8,1.38c0,0-9.06,1.03-12.78,6.55"/>
	
		<rect x="1354.63" y="225.65" fill="#FFFFFF" stroke="#000000" stroke-width="1.0735" stroke-linejoin="round" stroke-miterlimit="10" width="5.4" height="30.54"/>
	<path fill="#FFFFFF" stroke="#000000" stroke-width="1.0735" stroke-linejoin="round" stroke-miterlimit="10" d="M1525.16,204.17
		c0,0,3.5-19.47-1.3-38.12s-18.77-17.14-25.65-17.14s-27.13,3.36-27.84,18.15s0,47.13,0,47.13s22.34,29.67,38.29,27.82
		c15.95-1.85,33.79,1.55,35.11-7.19C1546.42,217.21,1525.16,204.17,1525.16,204.17z"/>
	<path fill="#FFFFFF" stroke="#000000" stroke-width="1.0735" stroke-linejoin="round" stroke-miterlimit="10" d="M1516.03,204.17
		l-31.8,1.38c0,0-9.06,1.03-12.78,6.55"/>
	<path fill="#FFFFFF" stroke="#000000" stroke-width="1.0735" stroke-linejoin="round" stroke-miterlimit="10" d="M1471.59,204.17
		c0,0,3.5-19.47-1.3-38.12c-4.8-18.65-18.77-17.14-25.65-17.14s-27.13,3.36-27.84,18.15s0,47.13,0,47.13s22.34,29.67,38.29,27.82
		c15.95-1.85,33.79,1.55,35.11-7.19C1492.85,217.21,1471.59,204.17,1471.59,204.17z"/>
	<path fill="#FFFFFF" stroke="#000000" stroke-width="1.0735" stroke-linejoin="round" stroke-miterlimit="10" d="M1462.46,204.17
		l-31.8,1.38c0,0-9.06,1.03-12.78,6.55"/>
	<path fill="#FFFFFF" stroke="#000000" stroke-width="1.0735" stroke-linejoin="round" stroke-miterlimit="10" d="M1421.33,204.17
		c0,0,3.5-19.47-1.3-38.12s-18.77-17.14-25.65-17.14s-27.13,3.36-27.84,18.15c-0.71,14.79,0,47.13,0,47.13s22.34,29.67,38.29,27.82
		c15.95-1.85,33.79,1.55,35.11-7.19C1442.59,217.21,1421.33,204.17,1421.33,204.17z"/>
	<path fill="#FFFFFF" stroke="#000000" stroke-width="1.0735" stroke-linejoin="round" stroke-miterlimit="10" d="M1411.31,204.17
		l-31.8,1.38c0,0-9.06,1.03-12.78,6.55"/>
	<path fill="#FFFFFF" stroke="#000000" stroke-width="1.0735" stroke-linejoin="round" stroke-miterlimit="10" d="M1372.76,204.17
		c0,0,3.5-19.47-1.3-38.12s-18.77-17.14-25.65-17.14s-27.13,3.36-27.84,18.15s0,47.13,0,47.13s22.34,29.67,38.29,27.82
		c15.95-1.85,33.79,1.55,35.11-7.19C1394.03,217.21,1372.76,204.17,1372.76,204.17z"/>
	<path fill="#FFFFFF" stroke="#000000" stroke-width="1.0735" stroke-linejoin="round" stroke-miterlimit="10" d="M1369.04,204.17
		l-31.8,1.38c0,0-9.06,1.03-12.78,6.55"/>
	<path fill="#FFFFFF" stroke="#000000" stroke-width="1.0735" stroke-linejoin="round" stroke-miterlimit="10" d="M1333.83,212.1
		c0,0,17.49,15.39,18.54,20.22"/>
</g>
<g>
	
		<rect x="836.17" y="204.35" fill="#FFFFFF" stroke="#000000" stroke-width="1.1973" stroke-linejoin="round" stroke-miterlimit="10" width="248.54" height="57.48"/>
	
		<rect x="836.17" y="261.83" fill="none" stroke="#000000" stroke-width="1.1973" stroke-linejoin="round" stroke-miterlimit="10" width="18.05" height="217.19"/>
	
		<rect x="1066.66" y="261.83" fill="none" stroke="#000000" stroke-width="1.1973" stroke-linejoin="round" stroke-miterlimit="10" width="18.05" height="217.19"/>
	
		<rect x="867.08" y="216.04" fill="none" stroke="#000000" stroke-width="1.1973" stroke-linejoin="round" stroke-miterlimit="10" width="36.23" height="36.23"/>
	
		<text id="XMLID_41_" transform="matrix(0.8737 0 0 1 915.6323 242.2356)" fill="none" stroke="#000000" stroke-width="1.1796" font-family="'DFHeiStd-W9-B5pc-H'" font-size="23.9427px" letter-spacing="2.29">TO TAIWAN</text>
	<g id="XMLID_469_">
		<path fill="#1A1A1A" d="M892.68,229.24l-3.97,1.85c0.89,0.2,2.06,0.5,2.56,0.82c0.59,0.38,0.58,0.71,0.51,0.89l-8.74-1.75
			c-0.41-0.08-0.83-0.02-1.19,0.17l-2.05,1.08c-0.07,0.04-0.11,0.11-0.12,0.18c-0.01,0.08,0.03,0.15,0.09,0.2l2.17,1.56l-2.96,1.38
			c-0.1,0.05-0.22,0.06-0.33,0.02l-4.3-1.41c-0.33-0.11-0.68-0.09-0.99,0.06l-1.06,0.49c-0.1,0.05-0.17,0.14-0.18,0.25
			c-0.01,0.11,0.03,0.22,0.12,0.28l4.24,3.39c0.27,0.21,0.6,0.32,0.94,0.29c1.61-0.12,6.39-0.49,7.11-0.82
			c0.21-0.1,0.9-0.42,1.83-0.86l0.03,0.07c1.75-0.24,4.08-1.33,3.85-1.82l-0.3-0.65c-0.03-0.06-0.04-0.1-0.04-0.1l-0.3-0.65
			c-0.21-0.45-2.16,0.41-3.49,1.47l-0.14-0.31c1.31-1.19,3.64-2.27,3.87-1.78l0.82,1.75c2.1-1,4.08-1.93,4.7-2.22
			c1.41-0.66,3.37-1.97,2.86-3.05C897.69,228.95,894.25,228.51,892.68,229.24z"/>
	</g>
</g>
<g>
	<rect x="448" y="-171" width="1024" height="52.77"/>
</g>
<g>
	<text transform="matrix(1 0 0 1 667.4001 931.4564)"><tspan x="0" y="0" font-family="'MicrosoftJhengHeiBold'" font-size="19px" letter-spacing="1">根據觀光局來台旅客資料顯示，第一名為陸客，占比超過四成，</tspan><tspan x="114.95" y="32.21" font-family="'MicrosoftJhengHeiBold'" font-size="19px" letter-spacing="1">第二名為日本，人次不到陸客的一半，</tspan><tspan x="-10.45" y="64.41" font-family="'MicrosoftJhengHeiBold'" font-size="19px" letter-spacing="1">底下我們就好好的來分析中日旅客創造台灣觀光財的差異在哪吧！</tspan></text>
</g>
<g>
	<circle fill="#E74631" cx="1315.37" cy="473.92" r="70.72"/>
	<g>
		<g id="XMLID_3262_">
			<path id="XMLID_3265_" fill="#FFFFFF" d="M1347.43,537.09c5.52,0,10-4.48,10-10h-20
				C1337.43,532.61,1341.91,537.09,1347.43,537.09z"/>
			<path id="XMLID_3268_" fill="#F32A41" d="M1347.43,517.09c-5.52,0-10,4.48-10,10h20
				C1357.43,521.56,1352.95,517.09,1347.43,517.09z"/>
		</g>
		<g id="XMLID_3269_">
			<path fill="#FFFFFF" d="M1341.34,522.98c0-1.22,0.72-2.27,1.76-2.76c-0.21-0.05-0.42-0.07-0.63-0.07c-1.56,0-2.83,1.27-2.83,2.83
				c0,1.56,1.27,2.83,2.83,2.83c0.22,0,0.43-0.03,0.63-0.07C1342.06,525.25,1341.34,524.2,1341.34,522.98z"/>
			<g id="XMLID_3270_">
				<polygon id="XMLID_3271_" fill="#FFFFFF" points="1344.42,520.69 1344.58,521.2 1345.11,521.2 1344.68,521.51 1344.85,522.02 
					1344.42,521.7 1343.98,522.02 1344.15,521.51 1343.72,521.2 1344.25,521.2 				"/>
				<polygon id="XMLID_3272_" fill="#FFFFFF" points="1345.99,521.87 1346.15,522.37 1346.69,522.37 1346.26,522.69 1346.42,523.19 
					1345.99,522.88 1345.56,523.19 1345.72,522.69 1345.29,522.37 1345.83,522.37 				"/>
				<polygon id="XMLID_3273_" fill="#FFFFFF" points="1342.82,521.87 1342.98,522.37 1343.51,522.37 1343.08,522.69 1343.25,523.19 
					1342.82,522.88 1342.38,523.19 1342.55,522.69 1342.12,522.37 1342.65,522.37 				"/>
				<polygon id="XMLID_3274_" fill="#FFFFFF" points="1345.39,523.74 1345.55,524.25 1346.09,524.25 1345.66,524.56 1345.82,525.07 
					1345.39,524.76 1344.96,525.07 1345.12,524.56 1344.69,524.25 1345.22,524.25 				"/>
				<polygon id="XMLID_3275_" fill="#FFFFFF" points="1343.43,523.74 1343.59,524.25 1344.13,524.25 1343.7,524.56 1343.86,525.07 
					1343.43,524.76 1343,525.07 1343.16,524.56 1342.73,524.25 1343.27,524.25 				"/>
			</g>
		</g>
	</g>
	<circle fill="#E74631" cx="1105.34" cy="467.47" r="77.18"/>
	<circle fill="#E74631" cx="828.54" cy="429.39" r="115.25"/>
	<circle fill="#E74631" cx="568.65" cy="476.62" r="68.02"/>
	
		<text transform="matrix(0.9 0 0 1 790.6772 412.9814)" fill="#FFFFFF" font-family="'DFHeiStd-W9-B5pc-H'" font-size="38.2483px" letter-spacing="3.33">中國</text>
	<g>
		<g id="XMLID_3331_">
			<circle id="XMLID_3334_" fill="#DD2910" cx="752.6" cy="521.34" r="15.75"/>
			<g id="XMLID_3343_">
				<g>
					<g>
						<polygon fill="#FFDD00" points="743.88,511.82 744.9,514.96 748.2,514.96 745.53,516.9 746.54,520.04 743.88,518.1 
							741.21,520.04 742.23,516.9 739.56,514.96 742.86,514.96 						"/>
					</g>
					<polygon fill="#FFDD00" points="752.48,510.18 752.41,511.26 753.42,511.67 752.36,511.93 752.29,513.02 751.71,512.1 
						750.66,512.37 751.35,511.53 750.78,510.62 751.78,511.02 					"/>
					<polygon fill="#FFDD00" points="756.18,513.7 755.69,514.66 756.45,515.43 755.38,515.26 754.89,516.23 754.72,515.15 
						753.65,514.98 754.61,514.49 754.45,513.42 755.21,514.19 					"/>
					<polygon fill="#FFDD00" points="755.07,518.1 755.4,519.13 756.49,519.13 755.61,519.77 755.95,520.8 755.07,520.16 
						754.19,520.8 754.52,519.77 753.65,519.13 754.73,519.13 					"/>
					<polygon fill="#FFDD00" points="752.47,521.41 752.4,522.5 753.41,522.9 752.35,523.17 752.28,524.25 751.7,523.33 
						750.65,523.6 751.34,522.76 750.77,521.85 751.78,522.25 					"/>
				</g>
			</g>
		</g>
	</g>
	<g>
		<circle id="XMLID_3347_" cx="1171.49" cy="521.07" r="16.02"/>
		<g id="XMLID_3348_">
			<circle id="XMLID_3349_" fill="#FFFFFF" cx="1171.49" cy="521.07" r="15.81"/>
			<circle id="XMLID_3352_" fill="#BD0026" cx="1171.49" cy="521.07" r="7.9"/>
		</g>
	</g>
	<g>
		<g id="XMLID_3373_">
			<circle id="XMLID_3374_" fill="#FF0000" cx="496.9" cy="526.81" r="10.28"/>
			<g id="XMLID_3375_">
				<circle fill="#FF0000" cx="496.62" cy="526.9" r="0.15"/>
				<path fill="#FFFFFF" d="M496.62,526.9c-1.4-0.56-2.06-2.33-1.48-3.72c0.32-0.76,1.5-1.81,2.94-1.45
					c-0.56,0.28-0.93,0.67-0.57,1.22c0.4,0.6,0.21,1.51-0.56,1.87C496.35,525.12,495.82,526.17,496.62,526.9z"/>
				<g id="XMLID_3376_">
					<path id="XMLID_3377_" fill="#FF0000" d="M496.6,526.93c-0.29-0.24-0.77-0.49-0.88-1.45l0,0c-0.01-0.11-0.02-0.21-0.02-0.31
						l0,0c0-0.77,0.37-1.22,0.38-1.22l0,0l0,0c0.01-0.02,0.03-0.02,0.05,0l0,0c0.02,0.01,0.02,0.03,0,0.05l0,0
						c0,0-0.09,0.1-0.18,0.3l0,0c-0.09,0.2-0.18,0.5-0.18,0.87l0,0c0,0.09,0.01,0.19,0.02,0.3l0,0c0.12,0.94,0.55,1.16,0.86,1.41
						l0,0c0.02,0.01,0.02,0.03,0,0.05l0,0c-0.01,0.01-0.02,0.01-0.03,0.01l0,0C496.62,526.94,496.61,526.94,496.6,526.93
						L496.6,526.93z"/>
					<polygon fill="#FF0000" points="496.18,523.14 496.42,523.35 496.7,523.19 496.57,523.48 496.81,523.69 496.49,523.66 
						496.36,523.96 496.29,523.64 495.97,523.61 496.25,523.45 					"/>
				</g>
				<path fill="#FFFFFF" d="M496.62,526.9c0.11-1.5,1.58-2.68,3.08-2.55c0.82,0.07,2.18,0.87,2.28,2.36
					c-0.44-0.45-0.92-0.68-1.33-0.17c-0.45,0.56-1.37,0.66-1.96,0.04C498.24,526.09,497.08,525.91,496.62,526.9z"/>
				<g id="XMLID_3378_">
					<path fill="#FF0000" d="M496.59,526.89c0.14-0.36,0.24-0.88,1.11-1.29l0,0c0.1-0.05,0.19-0.08,0.28-0.11l0,0
						c0.74-0.24,1.27-0.01,1.28-0.01l0,0l0,0c0.02,0.01,0.03,0.03,0.02,0.04l0,0c-0.01,0.02-0.03,0.03-0.05,0.02l0,0
						c0,0-0.13-0.05-0.34-0.08l0,0c-0.22-0.02-0.53-0.02-0.88,0.09l0,0c-0.09,0.03-0.18,0.06-0.28,0.11l0,0
						c-0.85,0.4-0.93,0.88-1.08,1.25l0,0c-0.01,0.02-0.03,0.03-0.05,0.02l0,0c-0.01,0-0.02-0.01-0.02-0.02l0,0
						C496.59,526.91,496.59,526.9,496.59,526.89L496.59,526.89z"/>
					<polygon fill="#FF0000" points="500.08,525.33 499.95,525.62 500.19,525.84 499.87,525.8 499.74,526.1 499.67,525.78 
						499.35,525.75 499.63,525.59 499.56,525.28 499.8,525.49 					"/>
				</g>
				<path fill="#FFFFFF" d="M496.62,526.9c1.46-0.36,3.03,0.68,3.37,2.15c0.18,0.8-0.16,2.34-1.54,2.89
					c0.29-0.55,0.37-1.08-0.25-1.32c-0.68-0.26-1.05-1.1-0.64-1.85C497.9,528.19,497.71,527.03,496.62,526.9z"/>
				<g id="XMLID_3379_">
					<path fill="#FF0000" d="M496.63,526.87c0.38,0.02,0.91-0.05,1.57,0.66l0,0c0.07,0.08,0.14,0.16,0.19,0.24l0,0
						c0.45,0.63,0.4,1.21,0.4,1.21l0,0l0,0c0,0.02-0.02,0.03-0.04,0.03l0,0c-0.02,0-0.03-0.02-0.03-0.04l0,0
						c0,0,0.01-0.14-0.03-0.35l0,0c-0.04-0.22-0.14-0.51-0.36-0.81l0,0c-0.06-0.08-0.12-0.15-0.19-0.23l0,0
						c-0.64-0.69-1.13-0.62-1.52-0.64l0,0c-0.02,0-0.03-0.02-0.03-0.04l0,0c0-0.01,0.01-0.02,0.02-0.03l0,0
						C496.61,526.87,496.62,526.87,496.63,526.87L496.63,526.87z"/>
					<polygon fill="#FF0000" points="499.18,529.71 498.87,529.67 498.73,529.97 498.67,529.65 498.35,529.62 498.63,529.46 
						498.56,529.14 498.8,529.36 499.08,529.2 498.95,529.49 					"/>
				</g>
				<path fill="#FFFFFF" d="M496.62,526.9c0.79,1.28,0.28,3.1-1.01,3.87c-0.71,0.42-2.28,0.57-3.23-0.58
					c0.62,0.11,1.15,0.02,1.18-0.64c0.04-0.72,0.73-1.34,1.57-1.18C495.79,528.51,496.84,527.98,496.62,526.9z"/>
				<g id="XMLID_3380_">
					<path fill="#FF0000" d="M496.66,526.9c0.1,0.37,0.32,0.85-0.15,1.69l0,0c-0.05,0.09-0.11,0.18-0.17,0.26l0,0
						c-0.46,0.62-1.02,0.76-1.03,0.76l0,0l0,0c-0.02,0-0.04-0.01-0.04-0.03l0,0c0-0.02,0.01-0.04,0.03-0.04l0,0
						c0,0,0.13-0.03,0.33-0.14l0,0c0.19-0.11,0.44-0.29,0.66-0.59l0,0c0.05-0.07,0.11-0.16,0.16-0.25l0,0
						c0.46-0.82,0.24-1.26,0.14-1.64l0,0c0-0.02,0.01-0.04,0.03-0.04l0,0c0.01,0,0.02,0,0.03,0.01l0,0
						C496.65,526.88,496.66,526.89,496.66,526.9L496.66,526.9z"/>
					<polygon fill="#FF0000" points="494.74,530.2 494.68,529.89 494.36,529.85 494.64,529.69 494.57,529.38 494.81,529.59 
						495.09,529.43 494.96,529.73 495.2,529.94 494.87,529.91 					"/>
				</g>
				<path fill="#FFFFFF" d="M496.62,526.9c-0.98,1.14-2.86,1.22-3.99,0.22c-0.62-0.54-1.24-1.99-0.44-3.25
					c0.09,0.62,0.33,1.1,0.97,0.93c0.7-0.19,1.5,0.28,1.6,1.13C494.84,526.6,495.67,527.43,496.62,526.9z"/>
				<g id="XMLID_3381_">
					<path fill="#FF0000" d="M496.64,526.93c-0.32,0.2-0.71,0.57-1.66,0.38l0,0c-0.11-0.02-0.2-0.05-0.29-0.08l0,0
						c-0.73-0.25-1.03-0.74-1.04-0.74l0,0v0c-0.01-0.02,0-0.04,0.01-0.05l0,0c0.02-0.01,0.04,0,0.05,0.01l0,0
						c0,0,0.07,0.12,0.23,0.27l0,0c0.16,0.15,0.41,0.33,0.77,0.45l0,0c0.09,0.03,0.18,0.06,0.29,0.08l0,0
						c0.93,0.19,1.28-0.16,1.61-0.37l0,0c0.01-0.01,0.04,0,0.05,0.01l0,0c0.01,0.01,0.01,0.02,0,0.03l0,0
						C496.66,526.92,496.65,526.93,496.64,526.93L496.64,526.93z"/>
					<polygon fill="#FF0000" points="492.91,526.13 493.19,525.97 493.12,525.65 493.36,525.87 493.64,525.71 493.51,526 
						493.75,526.22 493.43,526.18 493.29,526.48 493.23,526.16 					"/>
				</g>
			</g>
		</g>
	</g>
	<g>
		<g id="XMLID_3382_">
			<circle id="XMLID_3383_" fill="#00785E" cx="518.42" cy="526.51" r="10.58"/>
			<g id="XMLID_3384_">
				<g id="XMLID_3385_">
					
						<path inkscape:flatsided="false" inkscape:randomized="0" inkscape:rounded="0" sodipodi:arg1="-1.5707963" sodipodi:arg2="-0.9424778" sodipodi:cx="329.76291" sodipodi:cy="102.52354" sodipodi:r1="19.297085" sodipodi:r2="7.3714867" sodipodi:sides="5" sodipodi:type="star" fill="#FAD016" d="
						M518.42,520.87l0.24,0.73h0.78l-0.63,0.45l0.24,0.73l-0.63-0.45l-0.63,0.45l0.24-0.73l-0.63-0.45h0.78L518.42,520.87z"/>
					
						<path inkscape:flatsided="false" inkscape:randomized="0" inkscape:rounded="0" sodipodi:arg1="-1.5707963" sodipodi:arg2="-0.9424778" sodipodi:cx="329.76291" sodipodi:cy="102.52354" sodipodi:r1="19.297085" sodipodi:r2="7.3714867" sodipodi:sides="5" sodipodi:type="star" fill="#FAD016" d="
						M513.72,524.15l0.47,0.1l0.24-0.42l0.05,0.48l0.48,0.1l-0.44,0.2l0.05,0.48l-0.32-0.36l-0.44,0.19l0.24-0.41L513.72,524.15z"/>
					
						<path inkscape:flatsided="false" inkscape:randomized="0" inkscape:rounded="0" sodipodi:arg1="-1.5707963" sodipodi:arg2="-0.9424778" sodipodi:cx="329.76291" sodipodi:cy="102.52354" sodipodi:r1="19.297085" sodipodi:r2="7.3714867" sodipodi:sides="5" sodipodi:type="star" fill="#FAD016" d="
						M515.37,522.01l0.36,0.32l0.42-0.24l-0.2,0.44l0.36,0.32l-0.48-0.05l-0.2,0.44l-0.1-0.47l-0.48-0.05l0.42-0.24L515.37,522.01z"
						/>
					
						<path inkscape:flatsided="false" inkscape:randomized="0" inkscape:rounded="0" sodipodi:arg1="-1.5707963" sodipodi:arg2="-0.9424778" sodipodi:cx="329.76291" sodipodi:cy="102.52354" sodipodi:r1="19.297085" sodipodi:r2="7.3714867" sodipodi:sides="5" sodipodi:type="star" fill="#FAD016" d="
						M523.11,524.15l-0.47,0.1l-0.24-0.42l-0.05,0.48l-0.48,0.1l0.45,0.2l-0.05,0.48l0.32-0.36l0.44,0.19l-0.24-0.41L523.11,524.15z
						"/>
					
						<path inkscape:flatsided="false" inkscape:randomized="0" inkscape:rounded="0" sodipodi:arg1="-1.5707963" sodipodi:arg2="-0.9424778" sodipodi:cx="329.76291" sodipodi:cy="102.52354" sodipodi:r1="19.297085" sodipodi:r2="7.3714867" sodipodi:sides="5" sodipodi:type="star" fill="#FAD016" d="
						M521.46,522.01l-0.36,0.32l-0.42-0.24l0.2,0.44l-0.36,0.32l0.48-0.05l0.2,0.44l0.1-0.47l0.48-0.05l-0.42-0.24L521.46,522.01z"
						/>
				</g>
				<g id="XMLID_3386_">
					<path sodipodi:nodetypes="cscccccccccccccccccccccccsc" fill="#FFFFFF" d="M518.42,528.22c-0.46,0.32-0.95,1.01-2.07,1.01
						c-1.59,0-2.18-0.47-2.65-0.82c-0.02-0.05,0.4-0.24,0.4-0.24c0.64,0.45,1.34,0.84,2.66,0.78c-1.63-0.14-2.73-1.03-3.07-1.85
						c0.88-0.61,2.34-0.6,3.54,0.24c-0.38-0.46-1.62-0.97-2.56-0.83c-0.13-0.14-0.25-0.31-0.39-0.45c1.07-0.24,2.57,0.44,3.12,1
						c-0.58-0.92-1-1.95-0.31-3.22c0.13,0.13,0.29,0.25,0.42,0.38c-0.51,0.93-0.33,2.01,0.09,2.77c-0.72-1.46-0.14-2.91,0.81-3.62
						c0.95,0.7,1.52,2.15,0.81,3.62c0.41-0.75,0.6-1.84,0.09-2.77c0.13-0.13,0.29-0.25,0.42-0.38c0.68,1.26,0.26,2.3-0.31,3.22
						c0.55-0.56,2.04-1.24,3.12-1c-0.14,0.14-0.25,0.31-0.38,0.45c-0.94-0.14-2.19,0.37-2.56,0.83c1.2-0.84,2.66-0.85,3.54-0.24
						c-0.33,0.82-1.44,1.71-3.07,1.85c1.32,0.06,2.03-0.33,2.66-0.78c0,0,0.42,0.19,0.4,0.24c-0.47,0.35-1.06,0.82-2.65,0.82
						C519.36,529.23,518.88,528.54,518.42,528.22z"/>
					<path fill="#FFFFFF" d="M518.42,528.53c-0.66,0.55-1.06,0.89-1.93,0.89l-2.64-0.01c0.07,0.13,0.14,0.25,0.22,0.37l2.5,0
						c1.2,0,1.86-0.76,1.86-0.76s0.66,0.76,1.86,0.76l2.5,0c0.08-0.12,0.15-0.24,0.22-0.37l-2.64,0
						C519.48,529.42,519.08,529.08,518.42,528.53z"/>
					<path id="XMLID_3387_" fill="#FFFFFF" d="M514.29,530.12c0.03,0.04,0.07,0.09,0.1,0.13h8.05c0.03-0.04,0.07-0.09,0.1-0.13
						H514.29z"/>
					<path id="XMLID_3388_" fill="#FFFFFF" d="M514.73,530.62c0.09,0.09,0.18,0.18,0.27,0.26h6.82c0.09-0.08,0.18-0.17,0.27-0.26
						H514.73z"/>
					<path id="XMLID_3389_" fill="#FFFFFF" d="M515.32,531.13c0.19,0.14,0.39,0.27,0.6,0.38h4.99c0.21-0.11,0.41-0.24,0.6-0.38
						H515.32z"/>
					<path id="XMLID_3390_" fill="#FFFFFF" d="M516.17,531.64c0.66,0.32,1.4,0.5,2.18,0.51h0.13c0.78-0.01,1.52-0.19,2.18-0.51
						H516.17z"/>
				</g>
			</g>
		</g>
	</g>
	<g>
		<g id="XMLID_3391_">
			<path id="XMLID_3392_" fill="#FFFFFF" d="M1379.34,535.55h10.65c0.69-0.43,1.32-0.95,1.88-1.54h-14.42
				C1378.01,534.6,1378.65,535.12,1379.34,535.55z"/>
			<g id="XMLID_3393_">
				<path id="XMLID_3394_" fill="#FFFFFF" d="M1374.93,529.4h19.45c0.12-0.5,0.2-1.01,0.24-1.54h-19.93
					C1374.74,528.39,1374.82,528.9,1374.93,529.4z"/>
				<path id="XMLID_3395_" fill="#FFFFFF" d="M1376.24,532.47h16.84c0.31-0.49,0.58-1,0.81-1.54h-18.46
					C1375.66,531.47,1375.93,531.99,1376.24,532.47z"/>
				<path id="XMLID_3396_" fill="#FFFFFF" d="M1389.99,518.63h-10.65c-0.69,0.44-1.32,0.95-1.88,1.54h14.42
					C1391.31,519.58,1390.68,519.07,1389.99,518.63z"/>
				<g id="XMLID_3397_">
					<path id="XMLID_3398_" fill="#DB241F" d="M1375.43,530.94h18.46c0.21-0.49,0.37-1.01,0.5-1.54h-19.45
						C1375.06,529.93,1375.23,530.44,1375.43,530.94z"/>
					<path id="XMLID_3399_" fill="#DB241F" d="M1377.45,534.01h14.42c0.45-0.47,0.86-0.99,1.21-1.54h-16.84
						C1376.59,533.03,1377,533.54,1377.45,534.01z"/>
					<path id="XMLID_3400_" fill="#DB241F" d="M1384.66,537.09c1.96,0,3.78-0.57,5.33-1.54h-10.65
						C1380.88,536.52,1382.7,537.09,1384.66,537.09z"/>
					<path id="XMLID_3401_" fill="#DB241F" d="M1374.93,524.78h19.45c-0.13-0.53-0.29-1.04-0.5-1.54h-18.46
						C1375.22,523.74,1375.06,524.25,1374.93,524.78z"/>
					<path id="XMLID_3402_" fill="#DB241F" d="M1374.66,527.09c0,0.26,0.01,0.51,0.03,0.77h19.93c0.02-0.26,0.03-0.51,0.03-0.77
						c0-0.26-0.01-0.51-0.03-0.77h-19.93C1374.68,526.58,1374.66,526.83,1374.66,527.09z"/>
					<path id="XMLID_3403_" fill="#DB241F" d="M1377.45,520.17c-0.45,0.47-0.86,0.99-1.21,1.54h16.85
						c-0.35-0.55-0.76-1.07-1.21-1.54H1377.45z"/>
					<path id="XMLID_3404_" fill="#DB241F" d="M1384.66,517.09c-1.96,0-3.78,0.56-5.33,1.54h10.65
						C1388.44,517.66,1386.62,517.09,1384.66,517.09z"/>
				</g>
				<path id="XMLID_3405_" fill="#FFFFFF" d="M1374.7,526.32h19.93c-0.04-0.53-0.12-1.04-0.24-1.54h-19.45
					C1374.82,525.28,1374.74,525.8,1374.7,526.32z"/>
				<path id="XMLID_3406_" fill="#FFFFFF" d="M1375.43,523.25h18.46c-0.23-0.54-0.5-1.05-0.81-1.54h-16.85
					C1375.93,522.19,1375.66,522.71,1375.43,523.25z"/>
				<path id="XMLID_3407_" fill="#0035AC" d="M1384.65,517.09c-5.52,0-9.99,4.48-9.99,10c0,0.26,0.01,0.52,0.03,0.78h9.96V517.09z"
					/>
				<g id="XMLID_3408_">
					<path fill="#FFD000" d="M1379.85,525.61c-1.24,0-2.25-1.01-2.25-2.25c0-1.24,1.01-2.25,2.25-2.25c0.37,0,0.71,0.09,1.01,0.24
						c-0.43-0.34-0.97-0.54-1.57-0.54c-1.41,0-2.55,1.14-2.55,2.55c0,1.41,1.14,2.55,2.55,2.55c0.59,0,1.13-0.2,1.57-0.54
						C1380.56,525.52,1380.22,525.61,1379.85,525.61z"/>
					<polygon id="XMLID_3409_" fill="#FFD000" points="1381.86,521.22 1382.04,522.56 1382.79,521.43 1382.37,522.72 
						1383.53,522.02 1382.6,523 1383.95,522.88 1382.68,523.35 1383.95,523.83 1382.6,523.71 1383.53,524.69 1382.37,523.99 
						1382.79,525.28 1382.04,524.15 1381.86,525.49 1381.68,524.15 1380.94,525.28 1381.35,523.99 1380.19,524.69 1381.13,523.71 
						1379.78,523.83 1381.05,523.35 1379.78,522.88 1381.13,523 1380.19,522.02 1381.35,522.72 1380.94,521.43 1381.68,522.56 					
						"/>
				</g>
			</g>
		</g>
	</g>
	<g>
		<g id="XMLID_3410_">
			<path id="XMLID_3411_" fill="#0038A7" d="M1414.68,526.88c0-5.64-4.57-10.21-10.21-10.21c-3.54,0-6.66,1.81-8.5,4.55l8.5,5.66
				H1414.68z"/>
			<path id="XMLID_3412_" fill="#CD1126" d="M1414.68,526.88h-10.21l-8.5,5.66c1.83,2.74,4.95,4.55,8.5,4.55
				C1410.11,537.09,1414.68,532.52,1414.68,526.88z"/>
			<path id="XMLID_3415_" fill="#FFFFFF" d="M1395.97,521.22c-1.08,1.62-1.72,3.57-1.72,5.66c0,2.1,0.63,4.04,1.72,5.66l8.5-5.66
				L1395.97,521.22z"/>
			<g id="XMLID_3416_">
				<path id="_x3C_Path_x3E__6_" fill="#FBD016" d="M1396.6,531.35l-0.39-0.17l-0.28,0.32l0.04-0.43l-0.39-0.17l0.42-0.09l0.04-0.43
					l0.22,0.37l0.42-0.1l-0.28,0.32L1396.6,531.35z"/>
				<path fill="#FBD016" d="M1399.83,527.12c0.06-0.06,0.12-0.13,0.18-0.19c-0.06-0.05-0.17-0.2-0.25-0.19
					c-0.18,0.02-0.36,0.04-0.54,0.07c-0.18,0.02-0.17-0.06,0-0.08c0.16-0.03,0.32-0.06,0.48-0.08c-0.11-0.09-0.12-0.12-0.25-0.08
					c-0.15,0.04-0.36,0.17-0.42,0.01c-0.04-0.11-0.12-0.15-0.02-0.21c0.08-0.05,0.17-0.09,0.25-0.14c0.16-0.09,0.15-0.09,0.18-0.26
					c-0.12,0.08-0.24,0.16-0.36,0.24c-0.05,0.04-0.11,0.07-0.16,0.11c-0.09,0.06,0-0.1,0.01-0.11c0.15-0.12,0.3-0.24,0.46-0.35
					c0.11-0.08,0.07-0.19,0.07-0.32c-0.07,0-0.26-0.02-0.31,0.03c-0.12,0.14-0.23,0.28-0.35,0.43c-0.12,0.14-0.16,0.08-0.06-0.06
					c0.1-0.13,0.19-0.26,0.28-0.39c-0.14,0.01-0.17,0-0.24,0.12c-0.05,0.08-0.1,0.16-0.15,0.24c-0.06,0.11-0.03,0.11-0.16,0.05
					c-0.1-0.05-0.22-0.02-0.19-0.15c0.03-0.09,0.05-0.18,0.07-0.27c0.05-0.17,0.04-0.17-0.07-0.31c-0.03,0.14-0.05,0.29-0.08,0.43
					c-0.01,0.06-0.02,0.13-0.03,0.19c-0.02,0.1-0.07-0.07-0.07-0.09c0.02-0.19,0.04-0.38,0.06-0.57c0.01-0.13-0.09-0.18-0.18-0.27
					c-0.05,0.05-0.2,0.17-0.19,0.25c0.02,0.18,0.04,0.36,0.07,0.55c0.02,0.18-0.06,0.17-0.09,0c-0.03-0.16-0.06-0.32-0.09-0.48
					c-0.09,0.11-0.12,0.12-0.08,0.25c0.03,0.09,0.05,0.18,0.07,0.27c0.03,0.12,0.06,0.1-0.07,0.14c-0.11,0.04-0.16,0.14-0.23,0.03
					c-0.05-0.08-0.09-0.16-0.14-0.24c-0.09-0.15-0.09-0.15-0.27-0.17c0.08,0.12,0.17,0.24,0.25,0.36c0.04,0.05,0.07,0.11,0.11,0.16
					c0.06,0.09-0.1,0-0.11-0.01c-0.12-0.15-0.24-0.3-0.36-0.45c-0.08-0.1-0.19-0.06-0.32-0.06c0.01,0.07-0.02,0.26,0.04,0.31
					c0.15,0.11,0.29,0.22,0.43,0.33c0.15,0.11,0.08,0.16-0.06,0.06c-0.13-0.09-0.27-0.18-0.4-0.27c0.02,0.14,0,0.17,0.12,0.23
					c0.14,0.08,0.38,0.12,0.3,0.29c-0.05,0.1-0.02,0.21-0.14,0.18c-0.09-0.03-0.18-0.05-0.27-0.07c-0.17-0.05-0.17-0.04-0.31,0.07
					c0.14,0.03,0.29,0.05,0.43,0.08c0.07,0.01,0.13,0.02,0.19,0.03c0.1,0.02-0.06,0.07-0.09,0.07c-0.19-0.02-0.38-0.04-0.57-0.06
					c-0.13-0.01-0.18,0.09-0.27,0.18c0.06,0.05,0.17,0.2,0.25,0.19c0.18-0.02,0.36-0.05,0.55-0.07c0.18-0.02,0.17,0.05,0,0.08
					c-0.16,0.03-0.32,0.06-0.48,0.09c0.11,0.09,0.12,0.12,0.25,0.08c0.16-0.04,0.36-0.18,0.41-0.01c0.04,0.11,0.13,0.15,0.02,0.22
					c-0.08,0.05-0.16,0.09-0.25,0.14c-0.15,0.09-0.15,0.09-0.17,0.27c0.12-0.08,0.24-0.17,0.36-0.25c0.05-0.04,0.11-0.07,0.16-0.11
					c0.09-0.06,0,0.1-0.01,0.11c-0.15,0.12-0.3,0.24-0.45,0.36c-0.1,0.08-0.06,0.19-0.06,0.32c0.07-0.01,0.26,0.02,0.31-0.04
					c0.11-0.14,0.23-0.29,0.34-0.43c0.11-0.15,0.16-0.08,0.06,0.06c-0.09,0.13-0.19,0.26-0.28,0.4c0.14-0.02,0.17,0,0.24-0.12
					c0.05-0.08,0.09-0.16,0.14-0.24c0.06-0.11,0.03-0.11,0.15-0.05c0.1,0.05,0.22,0.02,0.18,0.14c-0.02,0.09-0.05,0.18-0.07,0.27
					c-0.04,0.17-0.04,0.17,0.07,0.31c0.03-0.14,0.05-0.29,0.07-0.43c0.01-0.06,0.02-0.13,0.03-0.19c0.02-0.1,0.07,0.06,0.07,0.09
					c-0.02,0.19-0.04,0.38-0.06,0.57c-0.01,0.13,0.09,0.18,0.18,0.27c0.05-0.06,0.2-0.17,0.19-0.25c-0.02-0.18-0.05-0.36-0.07-0.54
					c-0.02-0.18,0.05-0.17,0.08,0c0.03,0.16,0.06,0.32,0.09,0.48c0.09-0.11,0.12-0.12,0.08-0.25c-0.03-0.09-0.05-0.18-0.08-0.27
					c-0.03-0.12-0.06-0.1,0.07-0.14c0.11-0.04,0.16-0.14,0.22-0.03c0.05,0.08,0.1,0.16,0.14,0.24c0.09,0.15,0.09,0.15,0.27,0.17
					c-0.08-0.12-0.17-0.24-0.25-0.36c-0.04-0.05-0.07-0.11-0.11-0.16c-0.06-0.09,0.1-0.01,0.11,0.01c0.12,0.15,0.24,0.3,0.37,0.44
					c0.08,0.1,0.19,0.06,0.32,0.06c-0.01-0.07,0.02-0.26-0.04-0.31c-0.15-0.11-0.29-0.22-0.44-0.34c-0.15-0.11-0.08-0.16,0.06-0.06
					c0.13,0.09,0.27,0.18,0.4,0.27c-0.02-0.14,0-0.17-0.12-0.24c-0.14-0.08-0.38-0.12-0.3-0.28c0.05-0.1,0.02-0.2,0.14-0.17
					c0.09,0.02,0.18,0.05,0.27,0.07c0.17,0.05,0.17,0.04,0.31-0.07c-0.13-0.02-0.25-0.05-0.38-0.07c-0.07-0.01-0.13-0.03-0.2-0.04
					c-0.03-0.01-0.14-0.1-0.04-0.09C1399.34,527.07,1399.59,527.1,1399.83,527.12z"/>
				<path id="_x3C_Path_x3E__5_" fill="#FBD016" d="M1401.65,527.22l0.25-0.35l-0.26-0.34l0.41,0.13l0.25-0.35l0,0.43l0.41,0.13
					l-0.41,0.13l0,0.43l-0.25-0.35L1401.65,527.22z"/>
				<path id="_x3C_Path_x3E__4_" fill="#FBD016" d="M1396.6,522.4l-0.39,0.17l-0.28-0.32l0.04,0.43l-0.39,0.17l0.42,0.09l0.04,0.43
					l0.22-0.37l0.42,0.09l-0.29-0.32L1396.6,522.4z"/>
			</g>
		</g>
	</g>
	<g>
		<g id="XMLID_3417_">
			<path id="XMLID_3420_" fill="#FFFFFF" d="M1374.35,530.39h-18.99c0.43,1.25,1.1,2.38,1.95,3.35h15.09
				C1373.25,532.77,1373.92,531.64,1374.35,530.39z"/>
			<path id="XMLID_3423_" fill="#DD1018" d="M1372.4,533.74h-15.09c1.6,1.82,3.85,3.06,6.39,3.35h2.3
				C1368.54,536.8,1370.8,535.56,1372.4,533.74z"/>
			<path id="XMLID_3426_" fill="#DD1018" d="M1364.85,517.06c-2.94,0-5.59,1.27-7.43,3.28h14.85
				C1370.44,518.33,1367.79,517.06,1364.85,517.06z"/>
			<path id="XMLID_3429_" fill="#FFFFFF" d="M1372.28,520.34h-14.85c-0.88,0.96-1.57,2.1-2.02,3.35h18.9
				C1373.85,522.44,1373.16,521.31,1372.28,520.34z"/>
			<path id="XMLID_3432_" fill="#00247D" d="M1374.9,527.11c0-1.2-0.21-2.35-0.6-3.42h-18.9c-0.39,1.07-0.6,2.22-0.6,3.42
				c0,1.15,0.2,2.25,0.55,3.28h18.99C1374.7,529.36,1374.9,528.26,1374.9,527.11z"/>
		</g>
	</g>
	<g>
		<g id="XMLID_3433_">
			<circle id="XMLID_3436_" fill="#CD1126" cx="1424.28" cy="527.14" r="9.95"/>
			<polygon id="XMLID_3439_" fill="#FBD016" points="1424.28,521.34 1425.72,525.77 1430.38,525.77 1426.61,528.51 1428.05,532.94 
				1424.28,530.21 1420.51,532.94 1421.95,528.51 1418.18,525.77 1422.84,525.77 			"/>
		</g>
	</g>
	
		<text transform="matrix(0.9 0 0 1 743.897 475.4521)" fill="#FFFFFF" font-family="'Lato-Black'" font-size="57.1055px" letter-spacing="5.56">40.1%</text>
	
		<text transform="matrix(0.9 0 0 1 1077.5479 451.228)" fill="#FFFFFF" font-family="'DFHeiStd-W9-B5pc-H'" font-size="28.0748px" letter-spacing="2.22">日本</text>
	
		<text transform="matrix(0.9 0 0 1 1043.21 498.875)" fill="#FFFFFF" font-family="'Lato-Black'" font-size="41.9162px" letter-spacing="3.33">15.6%</text>
	
		<text transform="matrix(0.9 0 0 1 1276.832 453.3799)" fill="#FFFFFF" font-family="'DFHeiStd-W9-B5pc-H'" font-size="25.9496px" letter-spacing="2.22">東南亞</text>
	
		<text transform="matrix(0.9 0 0 1 1257.9385 499.8413)" fill="#FFFFFF" font-family="'Lato-Black'" font-size="38.7433px" letter-spacing="3.33">13.7%</text>
	
		<text transform="matrix(0.9 0 0 1 542.9551 460.4902)" fill="#FFFFFF" font-family="'DFHeiStd-W9-B5pc-H'" font-size="25.9496px" letter-spacing="2.22">港澳</text>
	
		<text transform="matrix(0.9 0 0 1 511.2178 503.8057)" fill="#FFFFFF" font-family="'Lato-Black'" font-size="38.7433px" letter-spacing="3.33">14.5%</text>
	
		<line fill="none" stroke="#E74631" stroke-width="3.1463" stroke-miterlimit="10" x1="568.65" y1="544.77" x2="568.65" y2="590.92"/>
	
		<line fill="none" stroke="#E74631" stroke-width="3.1463" stroke-miterlimit="10" x1="828.54" y1="544.77" x2="828.54" y2="590.92"/>
	
		<line fill="none" stroke="#E74631" stroke-width="3.1463" stroke-miterlimit="10" x1="1105.34" y1="544.77" x2="1105.34" y2="590.92"/>
	
		<line fill="none" stroke="#E74631" stroke-width="3.1463" stroke-miterlimit="10" x1="1315.37" y1="544.77" x2="1315.37" y2="590.92"/>
</g>
<text transform="matrix(1 0 0 1 781.8672 166.9775)" opacity="0.63"><tspan x="0" y="0" font-family="'Lato-Bold'" font-size="20px" letter-spacing="2">2015</tspan><tspan x="54.4" y="0" font-family="'MicrosoftJhengHeiBold'" font-size="20px" letter-spacing="2">年來台旅客總數：</tspan><tspan x="230.4" y="0" font-family="'Lato-Bold'" font-size="20px" letter-spacing="2">10,439,785</tspan><tspan x="352.2" y="0" font-family="'MicrosoftJhengHeiBold'" font-size="20px" letter-spacing="2">人</tspan><tspan x="374.2" y="0" font-family="'Lato-Hairline'" font-size="20px" letter-spacing="2"> </tspan></text>
<g>
	<rect x="572" y="57.6" fill="#FFFFFF" width="772" height="54"/>
	<g>
		<text transform="matrix(1 0 0 1 823.5999 96.946)" font-family="'MicrosoftJhengHeiBold'" font-size="31px" letter-spacing="3">旅客都從哪裡來？</text>
	</g>
	
		<line id="svg02bottomLine" fill="none" stroke="#0A080C" stroke-width="2.1641" stroke-miterlimit="10" x1="566.11" y1="111.6" x2="1353.89" y2="111.6"/>
	
		<line id="svg02topLine" fill="none" stroke="#0A080C" stroke-width="2.1641" stroke-miterlimit="10" x1="566.11" y1="57.6" x2="1353.89" y2="57.6"/>
</g>
<g>
	<polygon id="XMLID_1409_" fill="#E74631" points="907.22,653.67 900.19,668.42 900.02,677.58 901.38,691.3 902.28,701.48 
		895.03,713.04 901.17,719.24 903.43,715.84 914.12,717.1 913.93,698.82 919.46,679.99 918.64,670.45 915.66,659.62 	"/>
	<polygon id="XMLID_1410_" fill="#E74631" points="880.82,653.67 885.16,670.96 885.44,683.63 885.43,697.99 884.22,705.29 
		888.64,712.41 882.22,718.46 879.4,715.9 869.24,717.86 870.23,702.79 863.34,685.21 863.34,678.65 870.64,662.9 	"/>
	<polygon id="XMLID_1411_" fill="#B8834E" points="848.36,689.36 828.62,692.39 827.78,707.96 829.59,719.98 851.18,719.48 
		851.18,711.34 	"/>
	<polygon id="XMLID_1412_" fill="#B8834E" points="828.62,692.39 807.62,692.39 807.21,699.52 810.67,719.98 826.4,719.98 	"/>
	<g id="XMLID_1414_">
		
			<path id="XMLID_1451_" fill="#FFFFFF" stroke="#000000" stroke-width="1.1259" stroke-linejoin="round" stroke-miterlimit="10" d="
			M853.25,606.61c0,0-9.52,4.04-22.22,4.3c-12.7,0.26-26.98-0.93-26.98-4.3s10.05-4.43,10.05-4.43s-1.06-12.7,1.06-15.87
			c2.12-3.17,14.29-2.12,13.49,0c0,0,7.67-3.48,12.96-2c5.29,1.47,3.17,17.35,3.17,17.35S856.42,602.57,853.25,606.61z"/>
		<ellipse id="XMLID_1415_" cx="905.39" cy="622.89" rx="0.69" ry="1.1"/>
		<ellipse id="XMLID_1416_" cx="892.92" cy="622.89" rx="0.69" ry="1.1"/>
		<ellipse id="XMLID_1417_" cx="839.74" cy="619.27" rx="0.69" ry="1.1"/>
		<ellipse id="XMLID_1418_" cx="828.23" cy="619.29" rx="0.69" ry="1.1"/>
		<path id="XMLID_1419_" fill="none" stroke="#000000" stroke-width="1.1259" stroke-linejoin="round" stroke-miterlimit="10" d="
			M914.12,620.67c0,0-5.7-5.48-15.09-4.96c-2.93,0.16-5.85-5.01-8.07-4.54c-1.42,0.31-2.35,6.2-3.49,6.56
			c-4.37,1.38-6.56,2.94-6.56,2.94s-9.23,3.63-6.08-11.29c2.29-10.84,14.36-16.4,23.76-16.39s21.25,7.77,20.87,19.9
			C919.14,623.1,914.12,620.67,914.12,620.67z"/>
		<path id="XMLID_1420_" fill="none" stroke="#000000" stroke-width="1.1259" stroke-linejoin="round" stroke-miterlimit="10" d="
			M891.69,651.96c0,0,1.24-5.65,1.06-7.59s-3.89-2.59-6.36-4.89c-2.47-2.3-3-9.36-3-9.36c-1.41,1.24-5.47-1.77-5.3-5.82
			s2.83-3.63,2.83-3.63l6.06,1.12"/>
		<path fill="none" stroke="#000000" stroke-width="1.1259" stroke-linejoin="round" stroke-miterlimit="10" d="M902.03,626.51h5.35
			c1.42,0,2.58-1.16,2.58-2.58v-2.08c0-1.42-1.16-2.58-2.58-2.58h-5.35c-1.42,0-2.58,1.16-2.58,2.58v2.08
			C899.45,625.34,900.61,626.51,902.03,626.51z"/>
		<path fill="none" stroke="#000000" stroke-width="1.1259" stroke-linejoin="round" stroke-miterlimit="10" d="M889.56,626.51h5.35
			c1.42,0,2.58-1.16,2.58-2.58v-2.08c0-1.42-1.16-2.58-2.58-2.58h-5.35c-1.42,0-2.58,1.16-2.58,2.58v2.08
			C886.98,625.34,888.14,626.51,889.56,626.51z"/>
		
			<line id="XMLID_1421_" fill="none" stroke="#000000" stroke-width="1.1259" stroke-linejoin="round" stroke-miterlimit="10" x1="899.64" y1="621.79" x2="897.49" y2="621.79"/>
		<path id="XMLID_1422_" fill="none" stroke="#000000" stroke-width="1.1259" stroke-linejoin="round" stroke-miterlimit="10" d="
			M909.96,621.79l4.95-1.08c0,0,1.67-0.65,1.49,3.59s-2.28,4.76-2.28,4.76s-1.51,8.94-8.04,12.82c-6.53,3.88-6.44,9.81-6.44,9.81"/>
		<path id="XMLID_1423_" fill="none" stroke="#000000" stroke-width="1.1259" stroke-linejoin="round" stroke-miterlimit="10" d="
			M898.1,626.51c0,0,1.97,3.11,0.19,4.65"/>
		<path id="XMLID_1424_" fill="none" stroke="#000000" stroke-width="1.1259" stroke-linejoin="round" stroke-miterlimit="10" d="
			M902.96,635.77c0,0-4.94,2.88-9.18,0"/>
		<path id="XMLID_1425_" fill="none" stroke="#000000" stroke-width="1.1259" stroke-linejoin="round" stroke-miterlimit="10" d="
			M895.86,631.25c0,0-3.07,7.38-4.89,7.29"/>
		<path id="XMLID_1426_" fill="none" stroke="#000000" stroke-width="1.1259" stroke-linejoin="round" stroke-miterlimit="10" d="
			M900.28,648.59c0,0,3.9,1.86,2.68,4.22c-1.22,2.36-3.34,3.43-7.11,3.22c-3.76-0.21-7.56-0.21-8.88-2.36
			c-1.32-2.15,1.32-5.22,5.26-5.08"/>
		<path id="XMLID_1427_" fill="none" stroke="#000000" stroke-width="1.1259" stroke-linejoin="round" stroke-miterlimit="10" d="
			M902.02,649.77c0,0,3.37,2.18,10.66,8.08c7.29,5.9,8.15,24.95,4.93,33.45c-3.22,8.5-16.46,27.94-16.46,27.94l-6.14-6.2
			c0,0,13.23-19.19,13.08-25.87s-3.41-14.68-3.41-14.68"/>
		<path id="XMLID_1428_" fill="none" stroke="#000000" stroke-width="1.1259" stroke-linejoin="round" stroke-miterlimit="10" d="
			M888.22,649.77c0,0-12.22,4.99-17.58,13.13c-3.29,4.99-7.08,12.82-7.29,19.18c-0.21,6.35,12.87,33.13,18.87,36.39l6.42-6.05
			c0,0-9.63-15.02-11.99-21.11c-2.36-6.09-0.34-18.44,1.44-20.85"/>
		<path id="XMLID_1429_" fill="none" stroke="#000000" stroke-width="1.1259" stroke-linejoin="round" stroke-miterlimit="10" d="
			M907.22,653.67c0,0-8.4,14.99-7.57,20.82c0.83,5.83,2.64,26.98,2.64,26.98"/>
		<path id="XMLID_1430_" fill="none" stroke="#000000" stroke-width="1.1259" stroke-linejoin="round" stroke-miterlimit="10" d="
			M880.82,653.67c0,0,4.49,11.23,4.61,21.37s-1.2,30.25-1.2,30.25"/>
		
			<polyline id="XMLID_1431_" fill="none" stroke="#000000" stroke-width="1.1259" stroke-linejoin="round" stroke-miterlimit="10" points="
			913.93,698.82 914.12,717.1 904.98,717.86 903.43,715.84 		"/>
		<path id="XMLID_1432_" fill="none" stroke="#000000" stroke-width="1.1259" stroke-linejoin="round" stroke-miterlimit="10" d="
			M871.16,702.79c0,0-0.52,13.39-1.91,15.07l10.16-1.96"/>
		<path id="XMLID_1433_" fill="none" stroke="#000000" stroke-width="1.1259" stroke-linejoin="round" stroke-miterlimit="10" d="
			M895.03,713.04c0,0-4.27,6.34-3.7,8.89s5,6.39,7.43,4.47s1.04-8.55,1.04-8.55"/>
		
			<line id="XMLID_1434_" fill="none" stroke="#000000" stroke-width="1.1259" stroke-linejoin="round" stroke-miterlimit="10" x1="887.46" y1="713.52" x2="892.05" y2="718.46"/>
		<path id="XMLID_1435_" fill="none" stroke="#000000" stroke-width="1.1259" stroke-linejoin="round" stroke-miterlimit="10" d="
			M892.05,723.5c0,0-0.44,3.14-4.01,3.42s-4.92-2.87-4.92-2.87v-6.2"/>
		<path id="XMLID_1436_" fill="none" stroke="#000000" stroke-width="1.1259" stroke-linejoin="round" stroke-miterlimit="10" d="
			M900.19,721.93c0,0,7.2,3.37,7.02,11.88h-3.51c0,0,0.87-5.49-4.07-8.64"/>
		<path id="XMLID_1437_" fill="none" stroke="#000000" stroke-width="1.1259" stroke-linejoin="round" stroke-miterlimit="10" d="
			M883.13,721.93c0,0-6.53,2.82-5.16,11.88h2.85c0,0-1.86-2.24,2.31-9.76"/>
		
			<line id="XMLID_1438_" fill="none" stroke="#000000" stroke-width="1.1259" stroke-linejoin="round" stroke-miterlimit="10" x1="903.4" y1="729.9" x2="880.82" y2="729.9"/>
		<path id="XMLID_1439_" fill="none" stroke="#000000" stroke-width="1.1259" stroke-linejoin="round" stroke-miterlimit="10" d="
			M907.22,729.9h10.93c0,0,4.68,0.23,4.68,7.93s0,23.55,0,23.55s1.93,8.29-9.85,8.29c0,0-46.69,0-49.64,0
			c-2.95,0-2.03-5.09-2.03-5.09s0-26.62,0-30.77s5.98-3.91,5.98-3.91h10.49"/>
		
			<line id="XMLID_1440_" fill="none" stroke="#000000" stroke-width="1.1259" stroke-linejoin="round" stroke-miterlimit="10" x1="911.89" y1="717.86" x2="914.12" y2="729.23"/>
		
			<line id="XMLID_1441_" fill="none" stroke="#000000" stroke-width="1.1259" stroke-linejoin="round" stroke-miterlimit="10" x1="873.18" y1="717.1" x2="867.29" y2="729.9"/>
		<path id="XMLID_1442_" fill="none" stroke="#000000" stroke-width="1.1259" stroke-linejoin="round" stroke-miterlimit="10" d="
			M863.34,769.67c0,0,3.99,8.68,8.51,8.68h11.27c0,0,4.2-1.38,5.51-8.68"/>
		<path id="XMLID_1443_" fill="none" stroke="#000000" stroke-width="1.1259" stroke-linejoin="round" stroke-miterlimit="10" d="
			M892.11,770.43c0,0,0.87,7.12,7.48,7.91h13.39c0,0,6.48-1.01,6.42-9.93"/>
		
			<line id="XMLID_1444_" fill="none" stroke="#000000" stroke-width="1.1259" stroke-linejoin="round" stroke-miterlimit="10" x1="897.63" y1="709.11" x2="886.63" y2="709.23"/>
		
			<polyline id="XMLID_1445_" fill="none" stroke="#000000" stroke-width="1.1259" stroke-linejoin="round" stroke-miterlimit="10" points="
			910.98,778.34 909.54,783.2 901.68,783.2 899.59,778.34 		"/>
		
			<polyline id="XMLID_1446_" fill="none" stroke="#000000" stroke-width="1.1259" stroke-linejoin="round" stroke-miterlimit="10" points="
			881.62,778.34 880.45,783.2 873.18,783.2 871.03,778.34 		"/>
		<path id="XMLID_1447_" fill="none" stroke="#000000" stroke-width="1.1259" stroke-linejoin="round" stroke-miterlimit="10" d="
			M907.22,783.2l0,6.26c0,0,10.11,0.2,9.91,5.15h-15.45V783.2"/>
		<path id="XMLID_1448_" fill="none" stroke="#000000" stroke-width="1.1259" stroke-linejoin="round" stroke-miterlimit="10" d="
			M879.4,783.2l-0.51,11.41h-16.21c0,0-1.48-3.21,7.55-5.71h2.94v-5.71"/>
		
			<line id="XMLID_1449_" fill="none" stroke="#000000" stroke-width="1.1259" stroke-linejoin="round" stroke-miterlimit="10" x1="907.22" y1="789.45" x2="901.68" y2="789.45"/>
		
			<line id="XMLID_1450_" fill="none" stroke="#000000" stroke-width="1.1259" stroke-linejoin="round" stroke-miterlimit="10" x1="873.18" y1="788.9" x2="879.12" y2="789.45"/>
		<path id="XMLID_16_" fill="#B8834E" stroke="#000000" stroke-width="1.1259" stroke-linejoin="round" stroke-miterlimit="10" d="
			M845.2,595.18c-7.91,5.34-31.34,2.26-31.34,2.26l0.24,4.74c14.61,5.88,30.69-0.53,30.69-0.53L845.2,595.18z"/>
		<path id="XMLID_1454_" fill="none" stroke="#000000" stroke-width="1.1259" stroke-linejoin="round" stroke-miterlimit="10" d="
			M822.95,610.94l-5.76,9.32c0,0-1.81-4.09-3.33-1.52c-1.52,2.57-3.64,5.55,0.24,10.09c1.63,1.9,8.25,7.77,7.65,11.8
			c-0.61,4.04-0.51,5.73-0.51,5.73"/>
		<path id="XMLID_1455_" fill="none" stroke="#000000" stroke-width="1.1259" stroke-linejoin="round" stroke-miterlimit="10" d="
			M810.37,609.74c0,0-3.19,7.25-1.97,10.93c1.21,3.67,5.7,8.16,5.7,8.16"/>
		<path id="XMLID_1456_" fill="none" stroke="#000000" stroke-width="1.1259" stroke-linejoin="round" stroke-miterlimit="10" d="
			M830.53,614.2c0,0-2.89-1.51-5.5,0.82"/>
		<path id="XMLID_1457_" fill="none" stroke="#000000" stroke-width="1.1259" stroke-linejoin="round" stroke-miterlimit="10" d="
			M837.54,613.72c0,0,0.69-1.58,4.4,0"/>
		<path id="XMLID_1458_" fill="none" stroke="#000000" stroke-width="1.1259" stroke-linejoin="round" stroke-miterlimit="10" d="
			M835.75,621.79c0,0,1.24,1.89,0,3.41"/>
		<path id="XMLID_1459_" fill="none" stroke="#000000" stroke-width="1.1259" stroke-linejoin="round" stroke-miterlimit="10" d="
			M839.05,625.19h-8.52c0,0-3.91,4.97-2.99,6.06s2.99,2.9,4.22,0c0,0,1.37,2.46,3.98,2.19c2.61-0.27,1.79-2.29,1.79-2.29
			s0.7,2.48,2.88,1.05C842.61,630.77,839.05,625.19,839.05,625.19z"/>
		
			<polygon id="XMLID_1460_" fill="none" stroke="#000000" stroke-width="1.1259" stroke-linejoin="round" stroke-miterlimit="10" points="
			818.89,643.62 829.59,653.26 825.04,659.62 811.89,644.66 		"/>
		<path id="XMLID_1461_" fill="none" stroke="#000000" stroke-width="1.1259" stroke-linejoin="round" stroke-miterlimit="10" d="
			M831.01,644.69l8.72,2.62l-9.21,12.31l-0.94-6.36C829.59,653.26,830.35,649.03,831.01,644.69c0.66-4.35,5.27-3.23,10.87-8.88
			s3.21-26.4,3.21-26.4"/>
		
			<polyline id="XMLID_1462_" fill="none" stroke="#000000" stroke-width="1.1259" stroke-linejoin="round" stroke-miterlimit="10" points="
			817.25,650.75 829.53,681.07 817.25,670.45 814.09,659.62 807.21,651.62 813.86,647.31 		"/>
		
			<polyline id="XMLID_1463_" fill="none" stroke="#000000" stroke-width="1.1259" stroke-linejoin="round" stroke-miterlimit="10" points="
			837.56,650.21 829.53,681.07 839.74,668.42 837.6,663.84 845.6,652.16 838.78,648.59 		"/>
		
			<polyline id="XMLID_1464_" fill="none" stroke="#000000" stroke-width="1.1259" stroke-linejoin="round" stroke-miterlimit="10" points="
			829.53,681.07 826.4,719.98 810.67,719.98 		"/>
		<path id="XMLID_1465_" fill="none" stroke="#000000" stroke-width="1.1259" stroke-linejoin="round" stroke-miterlimit="10" d="
			M844.57,653.67c0,0,5.79,25.93,9.23,25.81c3.44-0.12,12.07-7.57,12.07-7.57"/>
		<path id="XMLID_1466_" fill="none" stroke="#000000" stroke-width="1.1259" stroke-linejoin="round" stroke-miterlimit="10" d="
			M865.13,689.36c0,0-6.71,6.37-11.34,6.05s-5.44-6.05-5.44-6.05"/>
		<path id="XMLID_1467_" fill="none" stroke="#000000" stroke-width="1.1259" stroke-linejoin="round" stroke-miterlimit="10" d="
			M845.6,670.45c0,0,5.18,35.54,5.58,40.78c0.4,5.24,0,8.25,0,8.25l-21.59,0.5l-1.81-12.02"/>
		<path id="XMLID_1468_" fill="none" stroke="#000000" stroke-width="1.1259" stroke-linejoin="round" stroke-miterlimit="10" d="
			M805.64,654.76c0,0-0.3,8.31,1.57,32.41"/>
		<path id="XMLID_1469_" fill="none" stroke="#000000" stroke-width="1.1259" stroke-linejoin="round" stroke-miterlimit="10" d="
			M809.44,654.21l0.26,17.41c0,0-2.42,14.9-2.48,23.6c-0.07,8.7,4.68,30.76,4.68,30.76l-14.88,0.96c0,0-4.43-43.84-1.81-56.49
			c2.62-12.64,13.27-17.37,13.27-17.37"/>
		<path id="XMLID_1470_" fill="none" stroke="#000000" stroke-width="1.1259" stroke-linejoin="round" stroke-miterlimit="10" d="
			M809.69,726.12c0,0,2.86,5.14,0.98,8.04c-1.88,2.9-2.55-2.67-2.55-2.67s-0.41,13.32-4.08,13.16c-3.67-0.16-6.14,0.15-6.14-2.73
			c0-2.88,2.48-14.99,2.48-14.99"/>
		<path id="XMLID_1471_" fill="none" stroke="#000000" stroke-width="1.1259" stroke-linejoin="round" stroke-miterlimit="10" d="
			M794.37,698.71c0,0-7.55,16.5-6.87,31.98c0.78,17.98,16.53,27.81,19.71,23.6c3.19-4.21,3.46-20.12,3.46-20.12"/>
		<path id="XMLID_1472_" fill="none" stroke="#000000" stroke-width="1.1259" stroke-linejoin="round" stroke-miterlimit="10" d="
			M846.82,719.98c0,0-1.87,26.35-3.98,37.82s-3.27,28.33-3.27,28.33h-11.79c0,0,1.71-48.1-1.34-50.74c0,0-7.78,13.04-6.35,21.47
			c1.43,8.43,6.95,18.65,6.95,18.65l-8.2,5.39c0,0-12.67-14.01-13.23-25.3"/>
		<path id="XMLID_1473_" fill="none" stroke="#000000" stroke-width="1.1259" stroke-linejoin="round" stroke-miterlimit="10" d="
			M837.56,786.13c0,0,10.46,0.32,10.8,3.32s-1.54,5.15-1.54,5.15h-19.04v-8.47"/>
		<path id="XMLID_1474_" fill="none" stroke="#000000" stroke-width="1.1259" stroke-linejoin="round" stroke-miterlimit="10" d="
			M818.85,780.9c0,0-14.04,7.79-10.74,13.71h9.3l10.36-5.71"/>
	</g>
</g>
<g>
	<path id="XMLID_1280_" fill="#E74631" d="M608.77,715.47h0.88v11.21h-4.37C605.28,726.68,607.9,715.47,608.77,715.47z"/>
	<path id="XMLID_1281_" fill="#E74631" d="M616.76,692.67h26.5c0,0,8.72,25.37,8.24,43.45c-0.47,18.08-3.16,47.04-3.16,47.04h-20.4
		l-1.28-1.66c0,0,1.28-4.96,1.28-21.05c0-16.09,1.13-26.22-4.17-30.68c-5.31-4.46-9.69-2.43-9.69-2.43l-0.71-16.45h-4.65
		C608.74,710.89,611.92,696.29,616.76,692.67z"/>
	<path id="XMLID_1282_" fill="#B8834E" d="M610.65,690.94c0,0,5.21,1.61,2.73,6.79s-4.1,8.91-6.73,7.38s-3.16-10.42-3.16-10.42
		l0.53-9.11L610.65,690.94z"/>
	<polygon id="XMLID_1283_" fill="#B8834E" points="564.41,710.89 577,710.89 583.77,710.89 584.13,697.53 583.77,688 587.46,694.69 
		595.99,700.92 596.26,688 597.83,678.93 589.93,657.75 582.87,643.18 577.33,638.56 571.72,650.24 567.14,657.75 561.73,650.24 
		552.94,639.35 550.14,637.1 544.03,639.35 535.87,645.27 530.15,661.16 524.01,690.94 523.41,701.78 527.69,711.91 532.18,717.9 
		542.8,710.89 	"/>
	<pattern  id="SVGID_1_" xlink:href="#_x31_0_dpi_10_x25_" patternTransform="matrix(1.4032 0 0 1.4032 2953.3984 2660.6318)">
	</pattern>
	<path fill="url(#SVGID_1_)" d="M586.65,786.95h31.13c6.5,0,11.82-5.32,11.82-11.82v-38.93c0-6.5-5.32-11.82-11.82-11.82h-31.13
		c-6.5,0-11.82,5.32-11.82,11.82v38.93C574.82,781.63,580.14,786.95,586.65,786.95z"/>
	<g id="XMLID_1284_">
		
			<path id="XMLID_1314_" fill="#FFFFFF" stroke="#000000" stroke-width="1.1259" stroke-linejoin="round" stroke-miterlimit="10" d="
			M578.59,612.35c0,0,2.13-7.34,2.13-10.15c0,0,1.73,4.16,1.51,4.89c-0.22,0.72,7.51-17.94-9.76-27.47
			c-0.11-0.06-0.2-0.14-0.29-0.23c-0.72-0.84-4.92-5.05-12.77-0.05c-0.19,0.12-0.4,0.18-0.62,0.17c-1.73-0.1-9.93-0.3-14.36,4.13
			h1.36c0.8,0,1.32,0.85,0.95,1.56l-4.82,9.29c-0.06,0.11-0.1,0.23-0.11,0.36c-0.14,1.1-0.77,6.8,0.12,10.98
			c0.14,0.67,0.88,1.03,1.5,0.75l0,0c0.55-0.25,1.2,0,1.43,0.55l2.73,6.43"/>
		<path id="XMLID_1285_" fill="none" stroke="#000000" stroke-width="1.1259" stroke-linejoin="round" stroke-miterlimit="10" d="
			M648.32,618.48c0,0,0.83,16.34-5.68,21.48c-6.51,5.14-4.56,9.98-4.56,9.98l-10.23-0.49c0,0,1.43-6.06-1.31-8.12
			c-2.74-2.06-6.17-3.43-6.85-9.25c-0.69-5.82-0.14-13.6-0.14-13.6l17.1-3.07c1.61-0.29,3.27-0.13,4.8,0.45L648.32,618.48z"/>
		<path id="XMLID_1286_" fill="none" stroke="#000000" stroke-width="1.1259" stroke-linejoin="round" stroke-miterlimit="10" d="
			M644.86,637.38c6.89-1.61,7.78-2.53,9.29-7.68c1.12-3.85,2.91-10.22-1.37-17.49c-7.86-13.38-17-11.74-17-11.74
			s-17.65-2.98-21.46,10.83c-2.97,10.76-3.83,12.95-0.17,20.89c2.05,4.45,7.52,7.17,8.36,6.09"/>
		<ellipse id="XMLID_1287_" cx="642.72" cy="625.16" rx="0.69" ry="1.1"/>
		<ellipse id="XMLID_1288_" cx="626.67" cy="625.16" rx="0.69" ry="1.1"/>
		<ellipse id="XMLID_1289_" cx="573.23" cy="606.29" rx="0.69" ry="1.1"/>
		<ellipse id="XMLID_1290_" cx="561.73" cy="606.29" rx="0.69" ry="1.1"/>
		<path id="XMLID_1291_" fill="none" stroke="#000000" stroke-width="0.9732" stroke-linejoin="round" stroke-miterlimit="10" d="
			M634.49,625.08c0,0,2.06,3.28,0.96,4.31c-1.1,1.03-1.61,0.17-1.61,0.17"/>
		<path id="XMLID_1292_" fill="none" stroke="#000000" stroke-width="1.1259" stroke-linejoin="round" stroke-miterlimit="10" d="
			M628.95,621.68c0,0-2.46-2.11-4.57,0"/>
		<path id="XMLID_1293_" fill="none" stroke="#000000" stroke-width="1.1259" stroke-linejoin="round" stroke-miterlimit="10" d="
			M640.06,621.63c0,0,2.46-2,4.92,0"/>
		<path id="XMLID_1294_" fill="none" stroke="#000000" stroke-width="1.1259" stroke-linejoin="round" stroke-miterlimit="10" d="
			M637.26,633.87c0,0-2.69,2.11-5.51,0"/>
		<path id="XMLID_1295_" fill="none" stroke="#000000" stroke-width="1.1259" stroke-linejoin="round" stroke-miterlimit="10" d="
			M623.78,650.24"/>
		<path id="XMLID_1296_" fill="none" stroke="#000000" stroke-width="1.1259" stroke-linejoin="round" stroke-miterlimit="10" d="
			M626.67,650.24"/>
		
			<circle id="XMLID_1297_" fill="none" stroke="#000000" stroke-width="1.1259" stroke-linejoin="round" stroke-miterlimit="10" cx="566.46" cy="644.18" r="1"/>
		
			<circle id="XMLID_1298_" fill="none" stroke="#000000" stroke-width="1.1259" stroke-linejoin="round" stroke-miterlimit="10" cx="566.46" cy="649.25" r="1"/>
		
			<polyline id="XMLID_1299_" fill="none" stroke="#000000" stroke-width="1.1259" stroke-linejoin="round" stroke-miterlimit="10" points="
			643.26,690.08 643.26,692.67 616.76,692.67 617.49,689.22 		"/>
		<path fill="none" stroke="#000000" stroke-width="1.1259" stroke-linejoin="round" stroke-miterlimit="10" d="M586.35,789.59
			h31.72c5.43,0,9.88-4.44,9.88-9.88v-42.49c0-5.43-4.44-9.88-9.88-9.88h-31.72c-5.43,0-9.88,4.44-9.88,9.88v42.49
			C576.47,785.14,580.92,789.59,586.35,789.59z"/>
		
			<polyline id="XMLID_1300_" fill="none" stroke="#000000" stroke-width="1.1259" stroke-linejoin="round" stroke-miterlimit="10" points="
			606.66,710.89 613.38,710.89 613.38,714.7 607.5,714.7 		"/>
		
			<polyline id="XMLID_1301_" fill="none" stroke="#000000" stroke-width="1.1259" stroke-linejoin="round" stroke-miterlimit="10" points="
			595.99,710.89 590.76,710.89 590.76,714.7 595.42,714.7 		"/>
		
			<polyline id="XMLID_1302_" fill="none" stroke="#000000" stroke-width="1.1259" stroke-linejoin="round" stroke-miterlimit="10" points="
			610.02,714.7 610.02,727.35 613.38,727.35 613.38,714.7 		"/>
		
			<polyline id="XMLID_1303_" fill="none" stroke="#000000" stroke-width="1.1259" stroke-linejoin="round" stroke-miterlimit="10" points="
			590.76,714.7 590.76,727.35 594.13,727.35 594.13,714.7 		"/>
		
			<circle id="XMLID_1304_" fill="none" stroke="#000000" stroke-width="1.1259" stroke-linejoin="round" stroke-miterlimit="10" cx="618.67" cy="795.08" r="5.21"/>
		
			<circle id="XMLID_1305_" fill="none" stroke="#000000" stroke-width="1.1259" stroke-linejoin="round" stroke-miterlimit="10" cx="585.55" cy="795.08" r="5.21"/>
		<path id="XMLID_1306_" fill="none" stroke="#000000" stroke-width="1.1259" stroke-linejoin="round" stroke-miterlimit="10" d="
			M643.26,692.67c5.15,11.87,5.7,11.55,7.78,34.67c1.91,21.13-2.69,55.81-2.69,55.81h-22.59"/>
		<path id="XMLID_1307_" fill="none" stroke="#000000" stroke-width="1.1259" stroke-linejoin="round" stroke-miterlimit="10" d="
			M608.74,710.89c1.52-10.52,8.03-18.22,8.03-18.22"/>
		<path id="XMLID_1308_" fill="none" stroke="#000000" stroke-width="1.1259" stroke-linejoin="round" stroke-miterlimit="10" d="
			M608.04,714.7c0,0-2.26,7.09-2.76,11.99"/>
		<path id="XMLID_1309_" fill="none" stroke="#000000" stroke-width="1.1259" stroke-linejoin="round" stroke-miterlimit="10" d="
			M642.04,783.16l-1.63,9.99c0,0,17.43-0.96,17.01,7.05h-24.63l2.73-17.03"/>
		
			<line id="XMLID_1310_" fill="none" stroke="#000000" stroke-width="1.1259" stroke-linejoin="round" stroke-miterlimit="10" x1="641.49" y1="786.52" x2="635.51" y2="786.52"/>
		
			<line id="XMLID_1311_" fill="none" stroke="#000000" stroke-width="1.1259" stroke-linejoin="round" stroke-miterlimit="10" x1="640.4" y1="793.15" x2="633.75" y2="794.16"/>
		<path id="XMLID_1312_" fill="none" stroke="#000000" stroke-width="1.1259" stroke-linejoin="round" stroke-miterlimit="10" d="
			M603.87,789.87l-1.66,10.43h-28.98c0,0,0.34-8.81,8.38-8.62"/>
		<path id="XMLID_1313_" fill="none" stroke="#000000" stroke-width="1.1259" stroke-linejoin="round" stroke-miterlimit="10" d="
			M560.83,632.4c0,0,0.26,1.44,0-3.11c-0.26-4.56-9.34-10.8-9.34-10.8s-3.37-0.47-3.89-4.96s3.89-4.59,3.89-4.59l1.3-8.82l1.46,3.11
			l2.17-9.6h12.65l8.61,2.99c0,0,2.03,13.85,0,21.37c-2.03,7.52-8.61,6.5-8.61,12.08c0,5.57,0,3.36,0,3.36"/>
		<path id="XMLID_1315_" fill="none" stroke="#000000" stroke-width="1.1259" stroke-miterlimit="10" d="M567.14,607.62
			c0,0,3.37,4.75,2.54,5.91s-2.54,1.43-2.54,1.43"/>
		<path id="XMLID_1316_" fill="none" stroke="#000000" stroke-width="1.1259" stroke-miterlimit="10" d="M564.65,602.38
			c0,0-3.66-2.34-7.37,0"/>
		<path id="XMLID_1317_" fill="none" stroke="#000000" stroke-width="1.1259" stroke-miterlimit="10" d="M570.58,602.38
			c0,0,2.96-1.81,6.42,0"/>
		<path id="XMLID_1318_" fill="none" stroke="#000000" stroke-width="1.1259" stroke-miterlimit="10" d="M571.83,618.48
			c0,0-4.34,2.25-8.76,0"/>
		
			<polygon id="XMLID_1319_" fill="none" stroke="#000000" stroke-width="1.1259" stroke-linejoin="round" stroke-miterlimit="10" points="
			564.73,633.84 557.36,632.18 553.86,637.1 564.73,639.35 		"/>
		
			<polygon id="XMLID_1320_" fill="none" stroke="#000000" stroke-width="1.1259" stroke-linejoin="round" stroke-miterlimit="10" points="
			564.73,633.84 571.83,633.79 573.23,639.35 567.45,639.35 		"/>
		<path id="XMLID_1321_" fill="none" stroke="#000000" stroke-width="1.1259" stroke-linejoin="round" stroke-miterlimit="10" d="
			M572.53,636.57c0,0,10.78,3.38,14.3,12.88s10.99,29.49,10.99,29.49"/>
		<path id="XMLID_1322_" fill="none" stroke="#000000" stroke-width="1.1259" stroke-linejoin="round" stroke-miterlimit="10" d="
			M553.86,637.1c0,0-12.91,0.79-17.98,8.17c-5.08,7.38-13.84,48.42-12.46,56.52c1.38,8.09,8.77,16.12,8.77,16.12l10.61-7.01
			c0,0-6.46-7.02-6.46-14.86c0-7.85,6.76-28.58,11.22-31.83"/>
		<path id="XMLID_1323_" fill="none" stroke="#000000" stroke-width="1.1259" stroke-linejoin="round" stroke-miterlimit="10" d="
			M580.34,657.75c0,0,5.18,42.62,3.43,53.14H542.8"/>
		
			<polyline id="XMLID_1324_" fill="none" stroke="#000000" stroke-width="1.1259" stroke-linejoin="round" stroke-miterlimit="10" points="
			577.33,638.56 567.45,659.14 551.49,637.38 		"/>
		
			<line id="XMLID_1325_" fill="none" stroke="#000000" stroke-width="1.1259" stroke-linejoin="round" stroke-miterlimit="10" x1="604.03" y1="685.58" x2="615.27" y2="694.69"/>
		
			<line id="XMLID_1326_" fill="none" stroke="#000000" stroke-width="1.1259" stroke-linejoin="round" stroke-miterlimit="10" x1="609.65" y1="706.64" x2="604.03" y2="703.58"/>
		<path id="XMLID_1327_" fill="none" stroke="#000000" stroke-width="1.1259" stroke-linejoin="round" stroke-miterlimit="10" d="
			M595.99,700.92c0,0-11.82-4.49-12.94-16.6"/>
		
			<line id="XMLID_1328_" fill="none" stroke="#000000" stroke-width="1.1259" stroke-linejoin="round" stroke-miterlimit="10" x1="580.34" y1="710.89" x2="580.34" y2="731.64"/>
		<path id="XMLID_1329_" fill="none" stroke="#000000" stroke-width="1.1259" stroke-linejoin="round" stroke-miterlimit="10" d="
			M541.25,711.91c0,0,7.23,6.43,6.31,9.11c-0.92,2.68-6.51-3.12-6.51-3.12l-5.59,3.83l-3.28-3.83"/>
		<path id="XMLID_1330_" fill="none" stroke="#000000" stroke-width="1.1259" stroke-linejoin="round" stroke-miterlimit="10" d="
			M535.46,721.73l4.45,67.86h19.38c0,0,5.04-41.65,1.75-62.24"/>
		
			<line id="XMLID_1331_" fill="none" stroke="#000000" stroke-width="1.1259" stroke-linejoin="round" stroke-miterlimit="10" x1="576.47" y1="760.45" x2="561.04" y2="774.54"/>
		<path id="XMLID_1332_" fill="none" stroke="#000000" stroke-width="1.1259" stroke-linejoin="round" stroke-miterlimit="10" d="
			M553.86,789.59c0,0,2.61,4.57,7.87,3.56s5.34,7.05,1.34,7.05s-20.28,0-20.28,0v-10.32"/>
		
			<polyline id="XMLID_1333_" fill="none" stroke="#000000" stroke-width="1.1259" stroke-linejoin="round" stroke-miterlimit="10" points="
			538,760.45 526.95,776.3 539.53,783.79 		"/>
		<path id="XMLID_1334_" fill="none" stroke="#000000" stroke-width="1.1259" stroke-linejoin="round" stroke-miterlimit="10" d="
			M529.58,777.87c0,0-4.64,1.99-5.15,4.53c-0.51,2.54,6.73,5.08,7.61,8.37c0.89,3.3,9.07,6.6,10.75,4.95"/>
		<path id="XMLID_1335_" fill="none" stroke="#000000" stroke-width="0.9732" stroke-linejoin="round" stroke-miterlimit="10" d="
			M627.85,649.45c0,0-4.94,0.87-15.14,2.44c0,0,2.8,9.6,11.67,9.26s7.37-10.9,7.37-10.9s1.4,10.75,8.3,10.91s9.53-8.26,9.53-8.26
			l-11.51-2.96"/>
		<path id="XMLID_1336_" fill="none" stroke="#000000" stroke-width="1.1259" stroke-linejoin="round" stroke-miterlimit="10" d="
			M606.66,662.21l6.47,5.53c0,0-8.01,14.56-9.1,17.83s-0.18,21.11-0.18,21.11s2.18,0.73,3.46,6.55c1.27,5.82-3.64,4.55-8.55,4.55
			s-3.09-3.64-2.55-8.37s0-23.65,0-23.65c1.46-9.64,16.51-33.87,16.51-33.87s0.41,19.86,0.41,24.59s0.55,12.37,4.37,12.74
			s6.29-3.09,6.29-3.09c2.65,4.37,4.63,3.46,7.85,3.28c3.22-0.18,4.15-3.28,4.15-3.28c-0.46,1.64,8.65,10.73,11.19-3.28
			s2.62-29.95,2.62-29.95s2.37,0.11,9.35,15.63c6.98,15.52,15.46,9.66,20.11,3.45s6.21-17.93,6.21-17.93s-0.78-4.97-1.94-9.62
			c-1.16-4.66,3.18-6.6,4.3,0c1.13,6.6,1.9-8.77,6.56-8.27c4.66,0.51,6.98,5.95,2.33,15.64c-4.66,9.7-6.93,19.45-11.25,27.03
			c-3.99,7-10.8,10.22-16.07,10.22c-4.38,0-12.61-7.95-17.06-12.03c-0.9-0.83-2.86-3.94-3.38-4.66l7.59-9.35"/>
	</g>
</g>
<g>
	<circle id="XMLID_1337_" fill="#E74631" cx="1155.24" cy="619.42" r="4.97"/>
	<polygon id="XMLID_1338_" fill="#E74631" points="1121.98,656.01 1090.18,658.51 1090.18,662.94 1123.91,661.16 	"/>
	<polygon id="XMLID_1339_" fill="#E74631" points="1123.91,665.55 1086.77,667.73 1086.77,673.81 1123.91,669.68 	"/>
	<polygon id="XMLID_1340_" fill="#E74631" points="1124.91,673.81 1086.77,677.85 1086.77,682.04 1125.41,677.29 	"/>
	<polygon id="XMLID_1341_" fill="#E74631" points="1085.58,687.82 1125.41,683.99 1127.23,688.84 1085.38,691.62 	"/>
	<polygon id="XMLID_1342_" fill="#E74631" points="1085.43,696.04 1127.23,693.85 1128.92,699.61 1085.38,700.37 	"/>
	<polygon id="XMLID_1343_" fill="#E74631" points="1084.55,707.16 1128.92,705.53 1130.9,710.5 1085.38,711.74 	"/>
	<polygon id="XMLID_1344_" fill="#E74631" points="1084.55,717.92 1130.9,716.33 1132.97,722.19 1083.75,722.19 	"/>
	<polygon id="XMLID_1345_" fill="#E74631" points="1083.03,728.16 1132.97,727.17 1134.84,732.59 1083.75,732.59 	"/>
	<polygon id="XMLID_1346_" fill="#E74631" points="1191.12,746.88 1192.15,752.94 1200.42,749.29 1199.09,744.46 	"/>
	<polygon id="XMLID_1347_" fill="#E74631" points="1162.49,758.08 1169.19,758.08 1169.38,767.92 1162.74,767.92 	"/>
	<polygon id="XMLID_1348_" fill="#B8834E" points="1187.65,688.54 1197.73,698.41 1201.19,700.37 1199.68,703.71 1201.19,712.45 
		1194.74,720.35 1187.86,719.51 1188.45,710.5 1191.12,705.53 1191.12,699.61 	"/>
	<g id="XMLID_1349_">
		<ellipse id="XMLID_1350_" cx="1089.05" cy="608.7" rx="0.69" ry="1.1"/>
		<ellipse id="XMLID_1351_" cx="1101.29" cy="608.7" rx="0.69" ry="1.1"/>
		<ellipse transform="matrix(0.5151 -0.8572 0.8572 0.5151 1.7149 1315.0419)" cx="1163.05" cy="656.01" rx="1.1" ry="0.69"/>
		<ellipse transform="matrix(0.5151 -0.8572 0.8572 0.5151 -0.0254 1327.1174)" cx="1172.85" cy="663.58" rx="1.1" ry="0.69"/>
		
			<path id="XMLID_1352_" fill="#FFFFFF" stroke="#000000" stroke-width="1.1259" stroke-linejoin="round" stroke-miterlimit="10" d="
			M1080.94,602.77c0,0,5.03-4.16,16.92-3.72s24.69,6.14,24.69,6.14s-3.2-9.72-5.94-12.06c0,0,2.74-11.03-8.23-13.31
			c-10.98-2.29-20.12-1.2-23.32,2.37s-2.29,6.87-4.12,10.94c-1.83,4.07-2.74,10.91-2.74,10.91L1080.94,602.77z"/>
		<path id="XMLID_1353_" fill="none" stroke="#000000" stroke-width="1.1259" stroke-linejoin="round" stroke-miterlimit="10" d="
			M1083.67,601.26c0,0-0.93,8.01,0,13.4c0.93,5.39,4.21,7.03,8.19,10.31c3.98,3.28,2.81,8.2,2.81,8.2s-7.99,2.53-4.94,3.93
			c3.05,1.4,6.81,3.27,11.47,3.27s11.9-0.97,11.27-4.22c-0.63-3.26-6.28-2.11-6.28-2.11v-4.88"/>
		<path id="XMLID_1354_" fill="none" stroke="#000000" stroke-width="1.1259" stroke-linejoin="round" stroke-miterlimit="10" d="
			M1109.83,602.77c0,0,4.06,14.51,0.78,19.41s-6.79,7.47-6.79,7.47s12.03-1.99,15-7.47c3.28-6.06,3.27-13.09-1.06-18.86"/>
		<path id="XMLID_1355_" fill="none" stroke="#000000" stroke-width="1.1259" stroke-linejoin="round" stroke-miterlimit="10" d="
			M1080.94,602.77c0,0-4.07,17.97,1.08,23.13c5.15,5.15,12.1,2.05,12.1,2.05"/>
		<path id="XMLID_1356_" fill="none" stroke="#000000" stroke-width="1.1259" stroke-linejoin="round" stroke-miterlimit="10" d="
			M1093.24,599.12c0,0,10.56,7.57,17.48,7.69"/>
		<path id="XMLID_1357_" fill="none" stroke="#000000" stroke-width="1.1259" stroke-linejoin="round" stroke-miterlimit="10" d="
			M1085.43,589.63c0,0,12.4-4.09,28.43,2.28"/>
		<path id="XMLID_1358_" fill="none" stroke="#000000" stroke-width="1.1259" stroke-linejoin="round" stroke-miterlimit="10" d="
			M1093.24,610.03c0,0-1.81,6.07,2.37,5.8"/>
		<path id="XMLID_1359_" fill="none" stroke="#000000" stroke-width="1.1259" stroke-linejoin="round" stroke-miterlimit="10" d="
			M1094.84,620.08c0,0,5.08,0,6.37-3.2"/>
		<path id="XMLID_1360_" fill="none" stroke="#000000" stroke-width="1.1259" stroke-linejoin="round" stroke-miterlimit="10" d="
			M1091.34,634.47c0,0-19.64,10.84-16.24,31.08h16.24l-1.61-9.76"/>
		<path id="XMLID_1361_" fill="none" stroke="#000000" stroke-width="1.1259" stroke-linejoin="round" stroke-miterlimit="10" d="
			M1110.72,634.2c0,0,15.73,3.17,22.53,23.06l-10.69,1.26"/>
		<path id="XMLID_1362_" fill="none" stroke="#000000" stroke-width="1.1259" stroke-linejoin="round" stroke-miterlimit="10" d="
			M1119.02,648.37c0,0,5.88,11.21,4.95,15.5c-0.93,4.29,11.01,69.51,11.01,69.51s-37.42,9.66-51.96,2.42l3.74-70.25"/>
		<path id="XMLID_1363_" fill="none" stroke="#000000" stroke-width="1.1259" stroke-linejoin="round" stroke-miterlimit="10" d="
			M1078.2,665.55c0,0,0.34,18.31,0,24.2s-5.35,21.1-5.35,21.1"/>
		
			<polyline id="XMLID_1364_" fill="none" stroke="#000000" stroke-width="1.1259" stroke-linejoin="round" stroke-miterlimit="10" points="
			1075.19,710.85 1066.06,707.69 1062.51,721.77 1081.29,728.16 1083.03,728.16 		"/>
		<path id="XMLID_1365_" fill="none" stroke="#000000" stroke-width="0.9857" stroke-linejoin="round" stroke-miterlimit="10" d="
			M1076.67,707.16c0,0,2.9,6.86,2.54,8.64s-2.97-1.07-4.66-6.75"/>
		
			<line id="XMLID_1366_" fill="none" stroke="#000000" stroke-width="0.9857" stroke-linejoin="round" stroke-miterlimit="10" x1="1078.61" y1="712.42" x2="1083.53" y2="713.98"/>
		
			<circle id="XMLID_1367_" fill="none" stroke="#000000" stroke-width="1.1259" stroke-linejoin="round" stroke-miterlimit="10" cx="1072.11" cy="717.8" r="3.79"/>
		<path id="XMLID_1368_" fill="none" stroke="#000000" stroke-width="1.1259" stroke-linejoin="round" stroke-miterlimit="10" d="
			M1131.5,657.46c0,0,2.11,21.94,6.62,27.39c4.51,5.45,12.67,12.46,12.67,12.46s5.73,1.5,6.08,4.45c0.35,2.95,0.35,7.64-2.6,7.64
			s-6.94-1.14-8.16-4.82c-1.22-3.68-2.6-3.62-4.51-5.3c-1.91-1.68-6.64-6.24-10.09-9.52c-3.45-3.28-6.09-12.46-6.09-12.46"/>
		
			<polyline id="XMLID_1369_" fill="none" stroke="#000000" stroke-width="1.1259" stroke-linejoin="round" stroke-miterlimit="10" points="
			1089.74,737.83 1088.36,764.61 1101.98,764.61 1109.01,737.95 		"/>
		
			<polyline id="XMLID_1370_" fill="none" stroke="#000000" stroke-width="1.1259" stroke-linejoin="round" stroke-miterlimit="10" points="
			1112.52,737.56 1118.02,764.61 1130.12,764.61 1131.63,734.19 		"/>
		<path id="XMLID_1371_" fill="none" stroke="#000000" stroke-width="1.1259" stroke-linejoin="round" stroke-miterlimit="10" d="
			M1091.34,763.94v7.88c0,0-13.05-0.07-11.93,5.3h18.48l0.79-12.51"/>
		<path id="XMLID_1372_" fill="none" stroke="#000000" stroke-width="1.1259" stroke-linejoin="round" stroke-miterlimit="10" d="
			M1121.15,764.61l0.83,12.51h20.73c0,0,0-7.15-12.37-5.11c0,0-1.51,0.9-2.41-0.19s-0.3-7.88-0.3-7.88"/>
		
			<polyline id="XMLID_1373_" fill="none" stroke="#000000" stroke-width="1.1259" stroke-linejoin="round" stroke-miterlimit="10" points="
			1098.15,773.08 1089.64,774.23 1088.36,771.97 		"/>
		
			<polyline id="XMLID_1374_" fill="none" stroke="#000000" stroke-width="1.1259" stroke-linejoin="round" stroke-miterlimit="10" points="
			1122.08,774.23 1134.98,774.71 1135.77,771.97 		"/>
		<path id="XMLID_1375_" fill="none" stroke="#000000" stroke-width="1.1259" stroke-linejoin="round" stroke-miterlimit="10" d="
			M1170.6,688.38c0,0,1.79-0.01,1.33-7.04c-0.45-7.03-11.37-6.04-14.09-13.46s4.99-21.52,4.99-21.52s10.49,12.3,19.11,14.13
			l3.8,5.07c0,0,4.81,1.15,1.6,5.42c-3.21,4.28-6.95,1.87-6.95,1.87s-2.94,0.8-2.41,6.42c0.53,5.61,0.55,6.17,0.55,6.17
			S1176.54,689.38,1170.6,688.38z"/>
		<path id="XMLID_1376_" fill="none" stroke="#000000" stroke-width="1.1259" stroke-linejoin="round" stroke-miterlimit="10" d="
			M1160.16,652.11c0,0-1.7-9.04,7.66-14.17c9.35-5.13,21.09,2.38,23.29,5.5v-3.07c0,0,2.75,3.23,2.93,5.99c0,0,4.03,2.51,4.22,5.75
			l-2.57-0.79c0,0,2.57,6.78,0,12.29s-5.33,8.62-7.25,9.72c-1.92,1.1-4.21,0-4.21,0"/>
		<path fill="none" stroke="#000000" stroke-width="1.1259" stroke-miterlimit="10" d="M1166.15,659.38c0,0-2.89,1.82-2.54,3.56"/>
		<path id="XMLID_1377_" fill="none" stroke="#000000" stroke-width="1.1259" stroke-linejoin="bevel" stroke-miterlimit="10" d="
			M1161.4,667.24c0,0,4.03,2.16,5.13,0.03"/>
		<path id="XMLID_1378_" fill="none" stroke="#000000" stroke-width="1.1259" stroke-linejoin="round" stroke-miterlimit="10" d="
			M1173.67,659.22c0,0,4.13,0.84,4.5,4.07"/>
		<path id="XMLID_1379_" fill="none" stroke="#000000" stroke-width="1.1259" stroke-linejoin="round" stroke-miterlimit="10" d="
			M1163.05,650.93c0,0,4.13,0.84,4.5,4.07"/>
		<path id="XMLID_1380_" fill="none" stroke="#000000" stroke-width="1.1259" stroke-linejoin="round" stroke-miterlimit="10" d="
			M1153.57,698.36"/>
		<path id="XMLID_1381_" fill="none" stroke="#000000" stroke-width="1.1259" stroke-linejoin="round" stroke-miterlimit="10" d="
			M1171.94,681.34"/>
		<path id="XMLID_1382_" fill="none" stroke="#000000" stroke-width="1.1259" stroke-linejoin="round" stroke-miterlimit="10" d="
			M1179.15,697.95l-3.23,9.21l11.36,3.69c0,0,5.1-2.45,3.68-13.97c-1.43-11.53-12.78-15.66-12.78-15.66"/>
		<path id="XMLID_1383_" fill="none" stroke="#000000" stroke-width="1.1259" stroke-linejoin="round" stroke-miterlimit="10" d="
			M1179.15,708.21c0,0-3.02,12.03-6.3,9.71c-3.28-2.32-10.62-9.71-10.62-9.71s0.02-7.65-6.7-8.6"/>
		<path id="XMLID_1384_" fill="none" stroke="#000000" stroke-width="1.1259" stroke-linejoin="round" stroke-miterlimit="10" d="
			M1185.41,710.85c-1.64,5.35-6.26,14.63-12.56,13.49c-5.28-0.95-11.75-11.2-15.59-11.14c-3.84,0.05-6.29-4.28-6.29-4.28"/>
		<path id="XMLID_1385_" fill="none" stroke="#000000" stroke-width="1.1259" stroke-linejoin="round" stroke-miterlimit="10" d="
			M1160.04,702"/>
		<path id="XMLID_1386_" fill="none" stroke="#000000" stroke-width="1.1259" stroke-linejoin="round" stroke-miterlimit="10" d="
			M1162.75,694.83"/>
		
			<polyline id="XMLID_1387_" fill="none" stroke="#000000" stroke-width="1.1259" stroke-linejoin="round" stroke-miterlimit="10" points="
			1157.26,713.2 1157.02,727.17 1188.45,728.16 1187.28,710.85 		"/>
		<path id="XMLID_1388_" fill="none" stroke="#000000" stroke-width="1.1259" stroke-linejoin="round" stroke-miterlimit="10" d="
			M1183.56,683.99"/>
		<path id="XMLID_1389_" fill="none" stroke="#000000" stroke-width="1.1259" stroke-linejoin="round" stroke-miterlimit="10" d="
			M1183.56,683.99c0,0-13.09,8.35-6.43,19.72l1.04-2.97c0,0-1.62-7.79,8.37-13.9L1183.56,683.99z"/>
		<path id="XMLID_1390_" fill="none" stroke="#000000" stroke-width="1.1259" stroke-linejoin="round" stroke-miterlimit="10" d="
			M1157.02,699.61c0,0,3.02-13.4,11.17-17.34l2.36-0.94C1170.55,681.34,1161.55,696.27,1157.02,699.61z"/>
		<path id="XMLID_1391_" fill="none" stroke="#000000" stroke-width="1.1259" stroke-linejoin="round" stroke-miterlimit="10" d="
			M1187.65,688.54c0,0,9.85,5.97,10.09,9.87c0.24,3.9,5.96,10.1,3.46,14.03c-2.5,3.94-7.48,12.69-13.33,7.06"/>
		<path id="XMLID_1392_" fill="none" stroke="#000000" stroke-width="1.1259" stroke-linejoin="round" stroke-miterlimit="10" d="
			M1198.26,700.55c0,0-6.81,1.79-7.06-0.94"/>
		<path id="XMLID_1393_" fill="none" stroke="#000000" stroke-width="1.1259" stroke-linejoin="round" stroke-miterlimit="10" d="
			M1195.23,705.53l-4.89,6.56c0,0,3.1,5.13,5.49,2.74C1198.21,712.45,1199.27,710.78,1195.23,705.53z"/>
		<path id="XMLID_1394_" fill="none" stroke="#000000" stroke-width="1.1259" stroke-linejoin="round" stroke-miterlimit="10" d="
			M1197.73,698.41c0,0,2.98,0.5,3.46,1.96c0.48,1.46-1.51,3.34-1.51,3.34"/>
		
			<polyline id="XMLID_1395_" fill="none" stroke="#000000" stroke-width="1.1259" stroke-linejoin="round" stroke-miterlimit="10" points="
			1160.04,727.17 1160.04,746.65 1171.94,749.05 1173.67,734.19 1178.17,749.05 1188.45,747.36 1186.55,728.16 		"/>
		<path id="XMLID_1396_" fill="none" stroke="#000000" stroke-width="1.1259" stroke-linejoin="round" stroke-miterlimit="10" d="
			M1168.19,682.28c0,0-12.38-3.06-14.62-8.46l-10.09,5.65c0,0,8.93,13.87,14.69,13.97"/>
		<path id="XMLID_1397_" fill="none" stroke="#000000" stroke-width="1.1259" stroke-linejoin="round" stroke-miterlimit="10" d="
			M1159.26,689.87c0,0-0.8-0.2-2.24,9.74"/>
		<path id="XMLID_1398_" fill="none" stroke="#000000" stroke-width="1.1259" stroke-linejoin="round" stroke-miterlimit="10" d="
			M1153.57,673.81c0,0-6.28-9.65-7.19-19.86c-0.91-10.21,0.56-10.16-2.9-13.82c-3.46-3.66-9.74-4.06-10.23,0.23
			c-0.49,4.29-0.58,7.19,1.74,8.01c2.31,0.82,2.31,0.82,2.31,0.82s4.51,28.25,9.07,28.65"/>
		
			<polyline id="XMLID_1399_" fill="none" stroke="#000000" stroke-width="1.1259" stroke-linejoin="round" stroke-miterlimit="10" points="
			1136.91,637.27 1139.38,609.02 1142.41,609.47 1139.66,637.27 		"/>
		<path id="XMLID_1400_" fill="none" stroke="#000000" stroke-width="1.1259" stroke-linejoin="round" stroke-miterlimit="10" d="
			M1142.41,609.47c0,0,6.16,3.82,11.16,3.7s10.16-6.11,14.88-6.36v18.26c0,0-2.54-0.79-6.21,1.01s-6.25,3.82-10.4,2.47
			c-4.15-1.35-10.62-4.82-10.62-4.82"/>
		
			<circle id="XMLID_1401_" fill="none" stroke="#000000" stroke-width="1.1259" stroke-linejoin="round" stroke-miterlimit="10" cx="1154.36" cy="620.3" r="4.09"/>
		<path id="XMLID_1402_" fill="none" stroke="#000000" stroke-width="1.1259" stroke-linejoin="round" stroke-miterlimit="10" d="
			M1162.24,747.09l0.52,21.51c0,0-9.15-0.06-7.92,5.63l0.71,2.99l12.91-0.1h2.1l-1.14-8.23l-0.39-19.84"/>
		
			<line id="XMLID_1403_" fill="none" stroke="#000000" stroke-width="1.1259" stroke-linejoin="round" stroke-miterlimit="10" x1="1162.74" y1="767.92" x2="1169.38" y2="767.92"/>
		
			<line id="XMLID_1404_" fill="none" stroke="#000000" stroke-width="1.1259" stroke-linejoin="round" stroke-miterlimit="10" x1="1162.49" y1="758.08" x2="1169.19" y2="758.08"/>
		<path id="XMLID_1405_" fill="none" stroke="#000000" stroke-width="1.1259" stroke-linejoin="round" stroke-miterlimit="10" d="
			M1180.87,748.6c0,0,1.57,6.31,5.53,6.02s15.43-6.02,15.43-6.02s0.55,7.16,5.07,7.58c4.52,0.42,5.23-1.13,5.23-1.13l-4.81-12.72
			c0,0-10.89,2.69-14.42,3.96s-4.46,1.07-4.46,1.07"/>
		
			<line id="XMLID_1406_" fill="none" stroke="#000000" stroke-width="1.1259" stroke-linejoin="round" stroke-miterlimit="10" x1="1204.56" y1="743.02" x2="1209.91" y2="756.14"/>
		
			<line id="XMLID_1407_" fill="none" stroke="#000000" stroke-width="1.1259" stroke-linejoin="round" stroke-miterlimit="10" x1="1199.09" y1="744.46" x2="1200.42" y2="749.29"/>
		
			<line id="XMLID_1408_" fill="none" stroke="#000000" stroke-width="1.1259" stroke-linejoin="round" stroke-miterlimit="10" x1="1191.12" y1="746.88" x2="1192.15" y2="752.94"/>
	</g>
</g>
<g>
	<polygon id="XMLID_1737_" fill="#E74631" points="1311.73,657 1317.03,653.6 1319.27,655.77 1315.47,662.59 1313.34,665.24 
		1304.42,657.93 1307.8,653.6 	"/>
	<polygon id="XMLID_1738_" fill="#E74631" points="1329.14,686.41 1298.7,686.41 1292.99,696.26 1286,718.66 1280.61,749.79 
		1279.65,754.24 1298.7,753.66 1310.71,754.24 1330.12,752.72 1340.25,749.48 	"/>
	<path fill="#B8834E" d="M1411.83,780.29l-33.47-36.57c-3.59-3.92-3.32-10.07,0.6-13.66l17.07-15.62c3.92-3.59,10.07-3.32,13.66,0.6
		l33.47,36.57c3.59,3.92,3.32,10.07-0.6,13.66l-17.07,15.62C1421.57,784.48,1415.42,784.21,1411.83,780.29z"/>
	<g id="XMLID_1739_">
		
			<path id="XMLID_1743_" fill="#FFFFFF" stroke="#000000" stroke-width="1.1259" stroke-linejoin="round" stroke-miterlimit="10" d="
			M1291.77,648.68c1.95-4.48,2.46-16.08,3.04-39.88c0.58-23.8,20.46-22.17,20.46-22.17s10.65-5.66,19.45,7.39
			c8.8,13.05,12.91,32.73,8.04,39.71s-3.56,20.04-3.56,20.04"/>
		<ellipse id="XMLID_1740_" cx="1304.43" cy="609.85" rx="0.69" ry="1.1"/>
		<ellipse id="XMLID_1741_" cx="1317.59" cy="610.95" rx="0.69" ry="1.1"/>
		<path fill="none" stroke="#000000" stroke-width="1.1259" stroke-linejoin="round" stroke-miterlimit="10" d="M1310.71,640.36
			c0,0,0,0-0.02-5.71c-0.02-5.71-7.79-2.05-10.6-9.84c-2.81-7.79-0.07-21.34-0.07-21.34s2.27-4.11,6.62-8.3s8.72-0.03,8.72-0.03
			s6.45-4.54,7.79,1.99c3.1,15,4.91,17.52,12.07,16.89"/>
		<path id="XMLID_1742_" fill="none" stroke="#000000" stroke-width="1.1259" stroke-linejoin="round" stroke-miterlimit="10" d="
			M1328.02,614.32L1328.02,614.32c0,0,3.3-1.38,3.61,1.82c0.31,3.21,0.25,6.91-3.61,7.71c-3.86,0.79-6.36,3.04-6.98,8.71
			c-0.62,5.68,0,8.22,0,8.22s-1.2,7.84-7.12,7.89c-9.12,0.08-4.59-4.42-3.22-9.48"/>
		<path id="XMLID_1744_" fill="none" stroke="#000000" stroke-width="1.1259" stroke-miterlimit="10" d="M1307.78,605.23
			c0,0-2.28-2.5-5.31-0.33"/>
		<path id="XMLID_1745_" fill="none" stroke="#000000" stroke-width="1.1259" stroke-miterlimit="10" d="M1316.9,605.23
			c0,0,1.75-2.15,5.29,0"/>
		<path id="XMLID_1746_" fill="none" stroke="#000000" stroke-width="1.1259" stroke-miterlimit="10" d="M1310.82,609.85
			c0,0-3.79,3.76-3.03,6.07"/>
		<path id="XMLID_1747_" fill="none" stroke="#000000" stroke-width="1.1259" stroke-miterlimit="10" d="M1313.34,620.04
			c0,0-5.2,2.08-8.92,0"/>
		<path id="XMLID_1748_" fill="none" stroke="#000000" stroke-width="1.1259" stroke-linejoin="round" stroke-miterlimit="10" d="
			M1321.04,640.79c0,0,13.02,3.01,18.16,12.99c0,0-11.17,1.03-12.64,5.21"/>
		<path id="XMLID_1749_" fill="none" stroke="#000000" stroke-width="1.1259" stroke-linejoin="round" stroke-miterlimit="10" d="
			M1310.71,640.36c0,0-16,3.12-18.94,8.32c0,0,7.36,7.01,7.2,9.88"/>
		<path id="XMLID_1750_" fill="none" stroke="#000000" stroke-width="1.1259" stroke-linejoin="round" stroke-miterlimit="10" d="
			M1302.47,651.33c0,0-4.59,3.76-3.65,10.01s-0.13,25.07-0.13,25.07h30.44c0,0-2.92-16.54-2.92-21.17s1.1-13.91,1.1-13.91"/>
		<path id="XMLID_1751_" fill="none" stroke="#000000" stroke-width="1.1259" stroke-linejoin="round" stroke-miterlimit="10" d="
			M1311.73,657c0,0,2.64-4.24,6.55-3.07c3.9,1.17-4.93,11.31-4.93,11.31s-8.36-4.5-8.22-8.24c0.15-3.74,3.01-3.72,4.12-3.07
			C1310.1,654.42,1311.73,657,1311.73,657z"/>
		<path id="XMLID_1752_" fill="none" stroke="#000000" stroke-width="1.1259" stroke-linejoin="round" stroke-miterlimit="10" d="
			M1329.14,686.41c0,0,5.1,19.53,8.1,41.3c3,21.77,3,21.77,3,21.77s-16.1,6.51-29.54,4.76c-13.44-1.75-31.06,0-31.06,0
			s6.3-53.11,19.05-67.83"/>
		<path id="XMLID_1753_" fill="none" stroke="#000000" stroke-width="1.1259" stroke-linejoin="round" stroke-miterlimit="10" d="
			M1292.67,650.17c0,0-15.13,19.24-11.59,29.24c3.54,10,11.42,13.52,11.42,13.52l1.84,0.76"/>
		<path id="XMLID_1754_" fill="none" stroke="#000000" stroke-width="1.1259" stroke-linejoin="round" stroke-miterlimit="10" d="
			M1298.97,657.51c0,0-12.41,13.96-11.55,19.08c0.92,5.52,9.22,12.61,9.22,12.61"/>
		<path id="XMLID_1755_" fill="none" stroke="#000000" stroke-width="1.1259" stroke-linejoin="round" stroke-miterlimit="10" d="
			M1338.82,653.32c0,0,6.15,16.86,7.12,18.55c0.97,1.69,10.67,17.34,14.54,22.85c3.88,5.51,5.82,7.15,5.82,9.96s-6.3,9.41-8.73,5.63
			c-2.42-3.78,0.25-8.38-3.97-13.37s-15.52-17.97-16.67-21.56c-1.26-3.94-10.7-16.81-10.7-16.81"/>
		
			<line id="XMLID_1756_" fill="none" stroke="#000000" stroke-width="1.1259" stroke-linejoin="round" stroke-miterlimit="10" x1="1332.53" y1="668" x2="1326.6" y2="669.83"/>
		
			<line id="XMLID_1757_" fill="none" stroke="#000000" stroke-width="1.1259" stroke-linejoin="round" stroke-miterlimit="10" x1="1291.1" y1="668" x2="1298.97" y2="668"/>
		
			<polyline id="XMLID_1758_" fill="none" stroke="#000000" stroke-width="1.1259" stroke-linejoin="round" stroke-miterlimit="10" points="
			1356.45,706.7 1352.28,712.74 1354.36,715.53 1358.38,711.11 		"/>
		<path fill="none" stroke="#000000" stroke-width="1.1259" stroke-linejoin="round" stroke-miterlimit="10" d="M1412.56,780.99
			l-35.22-38.28c-3.09-3.36-2.87-8.64,0.49-11.74l18.68-17.19c3.36-3.09,8.64-2.87,11.74,0.49l35.22,38.28
			c3.09,3.36,2.87,8.64-0.49,11.74l-18.68,17.19C1420.93,784.57,1415.65,784.35,1412.56,780.99z"/>
		
			<polyline id="XMLID_1759_" fill="none" stroke="#000000" stroke-width="1.1259" stroke-linejoin="round" stroke-miterlimit="10" points="
			1364.17,699.74 1367.45,697.35 1370.05,700.87 1366.3,703.6 		"/>
		
			<polyline id="XMLID_1760_" fill="none" stroke="#000000" stroke-width="1.1259" stroke-linejoin="round" stroke-miterlimit="10" points="
			1362.57,711.25 1378.89,730.26 1382.52,726.66 1366.11,707.58 		"/>
		<path id="XMLID_1761_" fill="none" stroke="#000000" stroke-width="1.1259" stroke-linejoin="round" stroke-miterlimit="10" d="
			M1388.89,724.4c0,0-0.34,4.26,3.36,8.62c3.69,4.37,30.56,32.91,30.56,32.91s4.7,4.7,8.56,3.69"/>
		
			<circle id="XMLID_1762_" fill="none" stroke="#000000" stroke-width="1.1259" stroke-linejoin="round" stroke-miterlimit="10" cx="1431.38" cy="784.74" r="6.4"/>
		<path id="XMLID_1763_" fill="none" stroke="#000000" stroke-width="1.1259" stroke-linejoin="round" stroke-miterlimit="10" d="
			M1325.06,753.66c0,0-2,24.99-2.87,28.62c0,0,1.76,8.65,0,8.86c-1.77,0.21-20.96,0-20.96,0s-2.16-8.04,10.96-8.86
			c0,0,3.55-2.38,3.83-9.83s-0.48-17.9-0.48-17.9"/>
		<path id="XMLID_1764_" fill="none" stroke="#000000" stroke-width="1.1259" stroke-linejoin="round" stroke-miterlimit="10" d="
			M1305.13,783.92c0,0-2.21,6.19,17.49,0.82"/>
		
			<line id="XMLID_1765_" fill="none" stroke="#000000" stroke-width="1.1259" stroke-linejoin="round" stroke-miterlimit="10" x1="1307.43" y1="754.54" x2="1307.43" y2="783.04"/>
		<path id="XMLID_1766_" fill="none" stroke="#000000" stroke-width="1.1259" stroke-linejoin="round" stroke-miterlimit="10" d="
			M1298.7,753.66c0,0,3.25,22.23,2.41,24.69c-0.84,2.46-2.47,4.07-4.88,4.69c-2.41,0.63-12.45,0.03-12.68,8.1h17.7"/>
		<path id="XMLID_1767_" fill="none" stroke="#000000" stroke-width="1.1259" stroke-linejoin="round" stroke-miterlimit="10" d="
			M1290.45,783.92c0,0-2.75,3.4,10.66,3.01"/>
	</g>
</g>
</svg>
