<?xml version="1.0" encoding="utf-8"?>
<!-- Generator: Adobe Illustrator 20.1.0, SVG Export Plug-In . SVG Version: 6.00 Build 0)  -->
<svg version="1.1" id="圖層_1" xmlns="http://www.w3.org/2000/svg" xmlns:xlink="http://www.w3.org/1999/xlink" x="0px" y="0px"
	 viewBox="0 0 1920 290.55" enable-background="new 0 0 1920 290.55" xml:space="preserve">
<g>
	
		<rect x="1507.14" y="63.49" transform="matrix(-1 -4.477630e-11 4.477630e-11 -1 3427.1362 267.9377)" fill="#FFFFFF" width="412.86" height="140.95"/>
	<rect y="63.49" fill="#FFFFFF" width="412.86" height="140.95"/>
	<polygon fill="#E74631" points="874.87,290.55 791,145.28 874.87,0 1042.62,0 1126.5,145.28 1042.62,290.55 	"/>
	<polygon fill="none" stroke="#000000" stroke-width="7.9305" stroke-linejoin="round" stroke-miterlimit="10" points="
		885.26,272.55 811.78,145.28 885.26,18 1032.23,18 1105.72,145.28 1032.23,272.55 	"/>
	<g>
		
			<text transform="matrix(0.9 0 0 1 1199.8096 181.0033)" font-family="'微軟正黑體'" font-size="111.2353px" letter-spacing="11.11">日本</text>
	</g>
	
		<text transform="matrix(0.9 0 0 1 485.3096 181.0063)" font-family="'微軟正黑體'" font-size="111.2353px" letter-spacing="11.11">中國</text>
	<g>
		<path d="M952.53,90.49l-13.76,115.52h-41.07L882.08,90.49h28.51c3.31,31.82,5.68,58.74,7.1,80.77c1.4-22.26,2.88-42.02,4.45-59.29
			l1.88-21.48H952.53z"/>
		<path d="M1027.52,125.45h-25.11v-8.56c0-4-0.32-6.54-0.96-7.63c-0.64-1.09-1.71-1.64-3.21-1.64c-1.63,0-2.86,0.74-3.69,2.21
			c-0.84,1.48-1.25,3.71-1.25,6.71c0,3.86,0.47,6.76,1.41,8.71c0.9,1.95,3.44,4.31,7.64,7.06c12.03,7.94,19.61,14.45,22.74,19.54
			c3.12,5.09,4.69,13.3,4.69,24.62c0,8.23-0.87,14.29-2.6,18.19c-1.73,3.9-5.09,7.17-10.05,9.81c-4.97,2.64-10.75,3.96-17.34,3.96
			c-7.24,0-13.41-1.52-18.53-4.57c-5.12-3.04-8.47-6.92-10.05-11.63c-1.58-4.71-2.38-11.39-2.38-20.05v-7.56h25.11v14.06
			c0,4.33,0.35,7.11,1.06,8.35c0.71,1.24,1.96,1.85,3.76,1.85c1.8,0,3.14-0.78,4.01-2.35c0.88-1.57,1.32-3.9,1.32-6.99
			c0-6.8-0.83-11.25-2.5-13.34c-1.71-2.09-5.93-5.59-12.65-10.49c-6.72-4.95-11.17-8.54-13.36-10.77c-2.18-2.23-3.99-5.33-5.43-9.28
			c-1.43-3.95-2.15-8.99-2.15-15.13c0-8.85,1.02-15.32,3.05-19.41c2.03-4.09,5.32-7.29,9.86-9.6c4.54-2.31,10.02-3.46,16.44-3.46
			c7.02,0,13,1.26,17.95,3.78c4.94,2.52,8.22,5.7,9.82,9.53c1.61,3.83,2.41,10.33,2.41,19.51V125.45z"/>
	</g>
	<polyline fill="none" stroke="#000000" stroke-width="7.9305" stroke-linejoin="round" stroke-miterlimit="10" points="
		871.39,42.03 392.84,42.03 278.81,134.55 392.26,248.52 872.97,247.38 	"/>
	<polyline fill="none" stroke="#000000" stroke-width="7.9305" stroke-linejoin="round" stroke-miterlimit="10" points="
		1044.98,42.03 1529.53,42.03 1643.56,134.55 1530.11,248.52 1049.41,247.38 	"/>
	<polygon fill="#B8834E" points="341.07,105.7 305.22,132.99 338.35,162.24 	"/>
	<polygon fill="#B8834E" points="1588.74,105.7 1624.59,132.99 1591.47,162.24 	"/>
	<line fill="none" stroke="#B8834E" stroke-width="7.9305" stroke-miterlimit="10" x1="395.21" y1="68.17" x2="351.69" y2="97.7"/>
	<line fill="none" stroke="#B8834E" stroke-width="7.9305" stroke-miterlimit="10" x1="351.69" y1="170.75" x2="385.88" y2="206"/>
	
		<line fill="none" stroke="#B8834E" stroke-width="7.9305" stroke-miterlimit="10" x1="359.28" y1="122.57" x2="395.21" y2="105.7"/>
	
		<line fill="none" stroke="#B8834E" stroke-width="7.9305" stroke-miterlimit="10" x1="359.28" y1="145.28" x2="395.21" y2="162.24"/>
	
		<line fill="none" stroke="#B8834E" stroke-width="7.9305" stroke-miterlimit="10" x1="1525.88" y1="65.05" x2="1569.39" y2="94.58"/>
	
		<line fill="none" stroke="#B8834E" stroke-width="7.9305" stroke-miterlimit="10" x1="1569.39" y1="167.63" x2="1535.2" y2="202.88"/>
	
		<line fill="none" stroke="#B8834E" stroke-width="7.9305" stroke-miterlimit="10" x1="1561.81" y1="119.45" x2="1525.88" y2="102.58"/>
	
		<line fill="none" stroke="#B8834E" stroke-width="7.9305" stroke-miterlimit="10" x1="1561.81" y1="142.16" x2="1525.88" y2="159.12"/>
	
		<line fill="none" stroke="#000000" stroke-width="7.9305" stroke-miterlimit="10" x1="318.21" y1="102.58" x2="45.97" y2="102.58"/>
	
		<line fill="none" stroke="#000000" stroke-width="7.9305" stroke-miterlimit="10" x1="304.33" y1="162.24" x2="45.97" y2="162.24"/>
	
		<line fill="none" stroke="#000000" stroke-width="7.9305" stroke-miterlimit="10" x1="282.44" y1="133.97" x2="24.09" y2="133.97"/>
	
		<line fill="none" stroke="#000000" stroke-width="7.9305" stroke-miterlimit="10" x1="1604.17" y1="102.58" x2="1874.03" y2="102.58"/>
	
		<line fill="none" stroke="#000000" stroke-width="7.9305" stroke-miterlimit="10" x1="1615.67" y1="162.24" x2="1874.03" y2="162.24"/>
	
		<line fill="none" stroke="#000000" stroke-width="7.9305" stroke-miterlimit="10" x1="1640.38" y1="133.97" x2="1898.74" y2="133.97"/>
</g>
</svg>
