<?xml version="1.0" encoding="utf-8"?>
<!-- Generator: Adobe Illustrator 20.1.0, SVG Export Plug-In . SVG Version: 6.00 Build 0)  -->
<svg version="1.1" id="圖層_1" xmlns="http://www.w3.org/2000/svg" xmlns:xlink="http://www.w3.org/1999/xlink" x="0px" y="0px"
	 viewBox="0 0 1920 941.44" enable-background="new 0 0 1920 941.44" xml:space="preserve">
<g>
	<g opacity="0.38">
		<defs>
			<rect id="SVGID_1_" opacity="0.38" width="1920" height="941.44"/>
		</defs>
		<clipPath id="SVGID_2_">
			<use xlink:href="#SVGID_1_"  overflow="visible"/>
		</clipPath>
		<g clip-path="url(#SVGID_2_)">
			<path fill="none" stroke="#1A1A1A" stroke-width="2.5569" stroke-miterlimit="10" d="M-13.43,631.6l-2.55-0.4l-1.2-1.59
				l-2.78-2.55l-1.99-3.51c0,0-2.79-3.03-2.87-3.27c-0.08-0.24-2.3-3.58-2.3-3.58l-2.72-2.71l-2.22-1.91l-0.37-0.11v63.5l1.83-0.23
				l1.37-1.49l0.9-5.08l1.38-2.39l1.55-3.46l2.41-3.4l2.47-3.51l2.39-1.83l2-1.91l0.71-3.51l1.51-3.11l2-3.27
				c0,0,1.11-1.83,1.19-2.07c0.08-0.24,0.41-3.02,0.41-3.02l0-2.79l-0.8-1.59L-13.43,631.6z"/>
			<path fill="none" stroke="#1A1A1A" stroke-width="2.5569" stroke-miterlimit="10" d="M996.48,574.22l1.03-1.51l1.83,0.64
				l1.6,1.04l2.07,1.51l2.47-0.32l1.75-1.51l-0.79-2.79l-1.67-0.8l-0.56,1.11l-1.2,0.88l-1.67-1.19l0.48-1.59l-0.16-1.99l0.32-2.23
				v-1.67l-1.27-1.04l-0.8-1.75l0.72-2.55l1.6-1.19l1.11-1.51l-0.48-2.71l1.28-1.19c0,0,1.91-1.99,1.91-2.23
				c0-0.24,0.24-3.19,0.24-3.19l0.87-3.34l1.67-1.92l1.36-1.35c0,0,1.35-3.19,1.35-3.42c0-0.24-0.08-3.75-0.08-3.98
				c0-0.24-0.08-2.55-0.08-2.87c0-0.32,1.03-2.71,1.03-2.71s1.28-2.15,1.36-2.55c0.08-0.4,0.16-2.79,0.16-2.79l0.96-2.39l0.71-1.03
				l0.96-0.48l0.79,0.4l0.17,1.27l0.79,1.43l1.03,0l1.2-0.8l0.07-1.99l1.28-0.48l1.19-1.12l0.09-1.91l-1.84-1.68l-0.88-1.83
				c0,0,0.64-1.51,0.64-1.83c0-0.32,0.64-2.31,0.64-2.31s0-1.67-0.17-2.08c-0.16-0.39-2.15-1.43-2.15-1.43l-1.67-1.04l-1.11-1.75
				l1.03-0.88l1.52,0.08l1.27,0.96l2.55,1.11l0.64,0.56l1.76-0.4l-0.17-1.75l-1.51-1.51l-1.12-2.39l0.16-2.47l-1.36-2.23l-1.51-1.59
				l-0.24-2.39c0,0-1.28-1.68-1.36-2c-0.08-0.32-3.01-2.15-3.01-2.15l-3.11-1.59l-1.19-1.83l-4.07-1.76l-2.55,0.16l-1.91,1.2
				l-3.27,1.91l-2.07-0.32c0,0-1.91-1.19-1.91-1.51c0-0.32-0.23-2.47-0.23-2.47l1.35-0.72l1.6,0.56l1.91-0.48l0.71-1.43l-0.39-1.91
				l1.11-1.63l1.91-1.31l2.51-1.55l1.67-1.19h2.99l2.27-0.6l0.6-1.91l-1.43-2.51l-3.58-3.34l-4.9-2.63l-4.67-2.87l-2.98-2.39
				l-3.23-0.83l-2.39-0.84l-1.67-1.67l-1.07-1.79l-0.36-1.67l0.96-0.84l1.66,0.48l1.68,1.67l2.99,1.55l2.75,0.24l2.27,0.36l2.12,1
				l1.83,1.19l1.91,0.56h2.31l0.8-1.27l-1.12-1.67l-3.27-3.11l-4.3-1.83l-3.51-1.91l-1.03-1.83l-0.56-2.15l-1.99-1.59l-3.82-0.96
				l-2.87-1.44l-1.99-1.59l-0.72-2.63l-0.33-2.55l-2.39-3.34l-3.19-3.11l-2.39-3.67l-2.47-3.03l-4.15-5.73l-2.63-4.14l-2.14-2.95
				l-2.31-1.36l-3.11-0.96l-2.06-1.04l-3.43-1.44l-3.02-1.36l-2.63-2.07l-1.91-1.2l-2.63-0.64l-2.07-1.04l-0.88-2.47l0.48-1.83
				l0.81-1.59c0,0,0.63-1.52,0.64-1.76c-0.01-0.24,0.79-2.47,0.79-2.47l0.88-1.2l0.24-2.15l1.12-1.27l1.35-0.88l2.71-1.75l1.19-2.71
				c0,0-0.23-2.15-0.31-2.79c-0.08-0.64-1.44-2.15-1.44-2.15l-0.88-1.36l0.32-1.36l1.67-0.47l0.96,0.4l0.64,1.51l1.59,1.52
				l1.91-0.16l1.59-1.11l0.33-1.83l-0.72-1.59l-0.71-1.75l-0.08-1.99l0.87-1.43l1.59-0.24l1.83-0.56l1.59-1.27l1.91-0.96l1.6-1.19
				l1.43-0.88l1.68-0.47l1.75-1.2l1.12-1.19l1.99-0.08l1.59,0.24l0.88,1.28l1.27,1.43l1.75,0.08l1.75-1.44l0-2.15l-1.51-1.19
				l-0.87-1.28l0.95-1.04l0.4-1.51l-0.17-1.11l0.09-1.44l-0.09-1.51l-1.18-0.16H975l-2.87,0.4l-3.58-1.19l-2.15,0.08l-3.11,0.32
				l-3.43-0.32l-1.91-1.28l-2.39-0.88l-3.03-0.08l-3.1-1.19l-1.91-1.67l-1.67-0.96l-1.99-0.56l-2.71,0.64l-2.47,2.15l-1.99,2.87
				l-2,2.31l-1.67,1.35l-0.64,1.44l-0.24,1.59l-0.72,1.59l-1.59,0.24l-3.75,0.24l-2.7-0.48l-3.75-1.91l-2.95-2.95l-1.03-2.47
				l-0.24-2.47l0.72-2.15l-0.48-3.27l-2.22-1.68l-2.95-2.79l-2.55-0.79l-1.52,0.56l-0.56,1.51l-0.87,0.64l-1.91,0.16l-3.26-1.03
				l-5.5-1.76l-3.66-2.39l-5.18-3.51l-2.47-2.95l-0.64-2.79l0.79-3.35l-0.56-3.02l1.44-1.91l1.51-0.32l2.63,0.24l1.36,0.95l1.6,1.76
				l2.47,0.48l1.99-0.8l0.8-1.6l1.67-0.4l1.6,0.32l2.15,0.08l1.36-1.04l0.79-1.91l0.72-1.35v-2.31l-0.56-2.63l0.32-2.31l1.68-1.99
				l2.31-2.23l2.71-1.75l2.39-1.44l2.23-0.55l1.83-0.72l1.35-1.99l-0.15-2.63l0.15-2.95l0.48-2.47l0.96-2.31l2.39-1.67l1.91-0.48
				l2.56,0.24l2.22,0.88l3.26-0.08l2.16,0.48l2.96,1.35l3.89,2.39l1.75,1.91l1.05,2.55l-0.57,3.66l-1.59,2.39l-2.15,2.79l-1.35,1.35
				l-1.28,2.16v1.9l0.95,1.59c0,0,0,1.04,0.17,1.44c0.16,0.4,2.15,2.07,2.39,2.31c0.24,0.24,2.39,0.72,2.39,0.72l1.67,0.24
				l0.56,1.11l-0.39,1.75l0.64,1.59l0.08,1.44l-2.47,1.12l-3.35,1.51l-0.87,1.75l1.19,2.07l3.82-0.16l3.5-1.11l2.95-1.36l1.67-2.95
				l1.58-3.42l2.87-4.15l4.86-3.9l4.31-2.55l3.02-1.36l3.83-0.71l3.66-0.24l5.58-0.24l3.74,0.8l2.47,1.67l1.75,1.27l2.23-0.32
				c0,0,0.88-0.64,1.11-0.32c0.24,0.32,4.63,1.67,4.63,1.67l4.94,2.39l2.23,1.83l0.16,3.03c0,0,0.32,2.79,0.32,3.19
				c0,0.4,1.42,5.02,1.42,5.02s0.25,1.75,0.25,2.08c-0.01,0.32-1.28,2.47-1.28,2.47l-0.48,5.57c0,0,0.08,2.23,0.41,2.79
				c0.31,0.56,1.51,1.43,1.51,1.43l2.86,0.48c0,0,1.68,0.96,1.83,1.44c0.16,0.48,1.83,1.75,1.83,1.75l2.07,1.2
				c0,0,1.91,0.4,2.32,0.56c0.39,0.16,2.39,0.08,2.39,0.08l1.6-1.04l1.91-1.03c0,0,2.07,0.24,2.15,0.48
				c0.08,0.24,1.83,1.36,1.83,1.36l2.47,0.79l1.76-0.39l1.43-0.72l1.83,0.32l1.68,0.56c0,0,2.31,2.23,2.55,2.72
				c0.24,0.47,2.71,3.9,2.71,3.9l2.95,3.59c0,0,0.55,1.75,0.63,1.99c0.08,0.24,0.4,1.67,0.4,1.67l-1.12,1.83l-1.43,1.76l-1.44,1.12
				c0,0-1.44,1.03-1.44,1.43c0,0.4,0.24,1.67,0.24,1.67l1.11,1.12l2.23,0.48l2.07,1.04l0.56,1.36l1.75,1.91l1.43,3.19l2.71,3.51
				l1.59,2.07c0,0,0.31,1.12,0.56,1.68c0.24,0.56,1.03,2.63,1.03,2.63l-0.55,3.98l0.64,2.55l0,3.59c0,0,0.78,2.79,0.87,3.02
				c0.08,0.24,1.67,2.55,1.83,2.95c0.15,0.4,0.64,3.03,0.64,3.03l-0.08,2.31l-0.4,1.35l-0.71,1.91l0.15,2.07l1.36,0.8l1.51-0.24
				l0.96-1.11l0.39-1.28l1.44-0.16l0.64,1.67c0,0-0.32,0.88-0.16,1.2c0.16,0.32,1.03,0.64,1.03,0.64l2.07-0.32l0.96-1.67l1.83-0.32
				l1.75-1.04l0.31-1.44l1.05-0.32l0.79,0.79c0,0,0.16,0.96,0.32,1.36c0.16,0.4,1.11,0.64,1.11,0.64l1.91-0.48l2.47-1.76l1.11-2.07
				l2.31-1.27h1.43l2.64,0.16l1.35-1.19l0.08-0.8l1.28-0.8l2.15,0.24l1.52,1.52l1.83,1.27l1.83-0.4l0.8-2.15l-0.64-1.91l-0.96-1.04
				l0.96-1.19l1.27-0.56l1.6,0.79l3.02-0.07l1.68-1.36l-0.24-2.39l-0.95-1.59l-0.31-4.46l0.07-3.91l-1.43-4.14l-2.63-4.06
				l-2.31-2.71l-0.96-2.95l-1.11-3.51c0,0-1.28-2.94-1.44-3.18c-0.16-0.24-3.42-4.3-3.42-4.3l-0.96-2.31l-3.43-4.54l-5.33-4.3
				l-5.02-6.22l-5.57-3.91l-5.42-5.89l-5.97-5.74l-4.85-3.74c0,0-6.06-3.59-6.22-3.82c-0.16-0.24-4.94-3.27-4.94-3.27l-3.58-1.44
				l-3.1-3.9c0,0-0.97-3.19-0.97-3.43c0-0.24,1.12-3.43,1.12-3.43l2.55-2.55c0,0,1.44-1.75,1.68-1.75c0.24,0,3.02-0.32,3.43-0.4
				c0.39-0.08,2.63-1.51,3.02-1.83c0.39-0.32,2.31-3.27,2.31-3.27l1.04-1.35l3.42-2.39c0,0,0.8-2.78,0.8-3.02
				c0-0.24,0.39-2.63,0.39-2.63l2.08-0.56l1.91-1.83l-0.64-2.87l-2.16-3.27c0,0-1.27-2.71-1.27-3.03c0-0.31-1.51-2.79-1.51-2.79
				s-1.75-3.03-1.75-3.27c0-0.24-0.32-3.59-0.32-3.83s0.56-4.38,0.56-4.38l1.68-1.99l3.5-3.11l1.03-2.47l1.43-1.67l1.91-0.72
				l2.24-0.32c0,0,1.35-1.44,1.52-1.83c0.16-0.39,0.55-4.46,0.55-4.46l0.33-3.03l1.43-2.63l2.15-0.16l1.2,0.39l2.79-0.16h2
				l1.18,1.36l2.55,5.02l1.84,0.64l2.79,0.8l3.11-0.64l2.54,1.27l2.39,1.11l2.15,0.8l3.35-0.64l3.9-1.27l3.43-2.08l2.87-2.31
				l3.19-2.79l2.94-2.39l1.36-2.63l2.39-2.94l0.56-4.46l-0.88-3.83l0.32-3.98l1.35-3.19l1.91-1.59l1.04-2.63l-0.25-2.07l0.56-2.23
				l0.84-3.11l1.67-3.23l1.2-4.78l1.67-2.75l1.32-2.87l1.67-4.06l0.37-2.63l0.36-5.62l-0.72-5.14l-1.07-5.26l-0.35-3.83l0.25-2.87
				l0.83-2.63l0.01-3.23l-0.12-4.3v-3.95l2.39-5.02l2.15-3.95l-0.12-2.98l-1.79-2.99l-0.95-2.51l-0.6-4.06l-2.51-3.7l-2.02-5.02
				c0,0-1.8-2.63-1.91-2.99c-0.12-0.36-2.63-3.46-2.63-3.46l-2.63-2.99l-0.96-3.47L1117,86.1l-3.7-3.82l-3.58-3.94l-1.2-2.99
				l-0.95-3.58l-2.87-4.3l-1.19-4.3l-0.36-3.71l0.48-4.9l-1.07-2.51l-1.67-3.59l-4.79-2.51c0,0-1.91-1.91-2.03-2.27
				c-0.12-0.36-1.67-3.83-1.67-3.83l-3.11-2.87l-3.23-1.91l-0.24-2.15l1.08-1.68l-1.19-2.27c0,0-3.11-1.44-3.35-1.79
				c-0.24-0.36-7.05-3.22-7.05-3.22s-7.88-3.59-8.24-3.71c-0.36-0.12-6.93-2.27-6.93-2.27s-3.82-3.23-4.19-3.7
				c-0.36-0.48-6.45-3.23-6.45-3.23l-3.82-2.15l-2.99,0.12l-3.95,0.6l-4.29-0.36l-3.72-1.32l-2.14-0.12l-0.12,1.08l0.72,0.96
				l1.55,1.43l2.99,3.11l0.84,2.03l1.91,2.99l0.6,2.39l-1.79,2.03l-1.55-1.2l-0.25-2.86l-0.23-2.15l-1.44-1.68l-1.91-0.72
				l-0.83,0.83l0.24,1.56l0.94,1.31l-0.11,1.43l-2.63,1.79l-2.39,0.6l-4.3,0.36l-1.67-0.84l-0.35-1.32l1.07-1.55
				c0,0,0.6-2.39,0.71-2.75c0.12-0.36-0.95-1.91-0.95-1.91l-2.03-0.12l-2.87-1.08c0,0-0.84-1.55-0.84-1.91
				c0-0.36-0.24-2.39-0.24-2.39l-1.56-1.31l-1.79-0.12l-1.19,0.6l-1.19,1.55l-0.25,1.2l0.25,1.19l1.32,1.44l1.43,0.48l1.2,1.32
				l0.11,1.67l-1.91,0.84l-1.43,1.08l-2.51,0.12l-1.91-1.08c0,0-0.96-2.16-0.96-2.63c0-0.48-0.72-2.62-0.84-3.11
				c-0.11-0.48-1.44-2.39-1.79-2.75c-0.36-0.35-2.28-2.63-2.51-3.11c-0.25-0.48-1.91-2.63-1.91-2.63l-2.63-1.32l-3.35,0.12
				l-3.7,0.72l-2.4,0.35l-3.58-0.48l-2.63-1.43l-2.98-0.13l-2.98-0.12l-2.76-1.79l-0.83-1.68l0.6-3.34c0,0,1.8-1.44,2.27-1.68
				c0.48-0.24,2.51-1.67,2.51-1.67l0.05-0.08H-32.44v580l0.37,0.05l2.47,1.68l2.47,0.71l2.22-0.32l2.39-0.56l2.39,0.64l1.91,0.72
				l3.03,0.64l2.7,0.47l3.51,0l1.35-0.16l1.04,0.39l1.75-0.87l0.96-0.48l1.19,0.64l0.47,1.19l1.44,0.96c0,0,1.91,0.48,2.07,0.72
				c0.16,0.24,3.02,0.56,3.02,0.56l2.15,0.48l2.39,1.43l2.47,0.8l1.35-0.08l1.36-0.64l1.12-0.96h1.51l1.27,1.2l0.88,0.63l1.6-0.08
				l1.75-0.64l1.27-1.04l0.8-0.8l1.27-0.24l1.36,0.48l1.11,0.64l1.67-0.16l1.04-1.35l1.11-0.39h2.95l2.07,0.79l3.75,0.16l1.91-0.32
				l2.31,0.16l2.31-0.48l0.71-1.04l2.08-1.19l4.54-0.08l2.47,0.48l3.27,0.32l2.22,1.03l2.55,0.32l1.75,0.32l1.99-0.64l2.39-0.24
				l2.55,0.08l2.39-0.4l2.95-1.11l2.7-0.08l2.47,0.16l2.94-0.63l3.44-0.56l1.11-1.67l2.87-0.08l2.55,1.04c0,0,3.42,1.43,3.43,1.75
				c0,0.32,1.83,2.47,1.83,2.71c0,0.24,0.48,2.63,0.48,2.95c0,0.32,0.32,3.35,0.32,3.35l2.31,1.2l2.39,0.47l1.67,0.16l2.16,1.99
				l1.03,2.15l0.55,3.03c0,0,1.75,3.19,1.75,3.51c0,0.32,0.48,2.71,0.8,3.34c0.31,0.64,2.55,3.19,2.55,3.19s1.91,1.68,2.22,1.91
				c0.32,0.24,1.36,0.47,1.75,0.56c0.4,0.08,2.47,0.08,2.47,0.08l2.47,0.48l2.3,1.04c0,0,1.68,0.8,1.91,1.19
				c0.24,0.4,2.08,1.75,2.08,1.75s3.26,4.23,3.26,4.47c0.01,0.24,2.63,5.1,2.63,5.1l5.65,3.19c0,0,4.46,2.15,4.78,2.39
				c0.32,0.24,3.19,0.64,3.82,0.88c0.64,0.24,4.54,0.72,4.54,0.72l2.94-1.51l3.27-1.51l2.39-1.59l1.51,0.16l1.68-1.04l1.51-0.88
				l1.19,0.64l0.16,1.75l-1.2,0.24l-1.12,0.72l-2.14,2.71l-1.91,3.18l-2.95,1.68l-3.82,2.23l-2.47,0.71l-2.95,0.96l-2.22,0.55
				l-1.04-0.71l-1.99-1.68l-1.84-0.48l-1.28,0.72l0.17,2.15l2.62,2.15l8.29,9.01l5.65,5.57c0,0,4.86,6.45,5.02,6.77
				c0.16,0.32,6.05,3.91,6.21,4.14c0.16,0.24,5.1,3.11,5.1,3.11l5.57,0.16l3.99-0.8l4.3-2.31l3.9-2.15l4.31-2.55l1.91-1.04l0.8-2.3
				l0.16-2l1.19-1.59l0.4-2.63l-1.75-2.55l-1.92-1.35l0.24-2.39l1.83-1.19l1.03-1.83l-0.4-1.51l-0.72-1.75l1.44-1.43l1.83,0.64
				l2.08,0.32l2.07-0.16l1.43,1.12l-0.32,0.96l-1.6,0.72l-1.82,0.71c0,0-0.32,1.91-0.32,2.15c0,0.24,0.33,1.91,0.33,1.91l0.64,0.72
				c0,0,0.48,2.39,0.48,2.79c0,0.4,1.35,1.99,1.35,1.99l2.07-0.24l0.96,1.12l-0.72,1.03l-1.67,1.2l-1.28,1.67l0.72,3.51l1.44,1.44
				l2.39,3.11c0,0,1.19,1.83,1.35,2.23c0.16,0.4,0.88,2.07,0.88,2.07l0.56,5.42l-1.83,4.3l-0.47,5.1l0.39,4.22l1.76,5.1l1.19,3.43
				l2.39,7.09c0,0,0.32,4.22,0.31,4.62c0,0.4,1.04,7.65,1.11,7.97c0.08,0.32,1.2,3.75,1.2,3.75l1.59,5.9l2.63,7.73l1.35,5.66
				l1.35,4.62l0.8,4.31l2.55,10.19c0,0,2.94,4.86,3.43,5.82c0.47,0.95,2.62,5.97,3.18,6.93c0.55,0.96,2.39,4.7,2.39,4.7l5.65,11.63
				l3.26,3.98l2.39,2.87l1.75,5.42l3.02,7.65l1.6,7.49l3.19,8.76l4.93,12.11l4.15,7.49c0,0,3.5,3.83,4.29,5.42
				c0.8,1.6,3.52,7.97,3.52,7.97l3.34,5.42c0,0,0.96,4.93,1.28,5.42c0.31,0.47,3.98,6.37,3.98,6.37l1.28,5.42l3.02,10.2
				c0,0,0.15,4.78,0.47,5.58c0.32,0.8,4.46,8.92,4.46,8.92s2.87,5.1,3.51,6.21c0.63,1.11,4.45,4.47,4.45,4.47l4.15,4.46l3.98,1.91
				l3.19,0.33l3.98-3.19l3.83-2.86l0.64-4.78l0.95-4.94l3.98-3.82l5.9-2.86l4.3-0.96l0.8-2.07l-1.91-1.59l-0.64-2.55l1.28-3.98
				l2.39-3.34l2.39-5.42l0.64-1.91l3.51-0.8l3.34,0.32l1.91-0.64l0.32-3.66l-1.42-8.77l-0.33-6.37c0,0-1.91-4.46-2.07-5.26
				c-0.16-0.8-0.16-5.74-0.16-5.74l2.87-5.25l2.39-6.06l1.11-4.14l1.12-4.94l0.15-4.3l0.33-2.71l-0.8-3.98l-2.07-1.43l-1.91-1.11
				v-2.39l2.07-0.47l1.27-1.92l-2.06-3.98l-1.6-3.35c0,0,1.27-4.14,1.28-4.62c0-0.47-1.28-7.33-1.28-7.33l-1.27-3.51l-0.32-5.26
				l0.8-4.78l0.16-3.19l3.19-3.98l3.66-1.28l2.55,1.12l2.87,0.16l3.34-1.59l0.32-3.35l0.31-4.62l3.03-1.27l4.94,0.8l4.3-0.48
				l3.98-3.35l1.43-4.14l-0.64-3.35c0,0-0.31-1.43-0.15-2.07c0.15-0.64,4.46-5.1,4.46-5.1l6.85-3.18l4.15-4.94
				c0,0,2.71-4.78,3.19-5.26c0.47-0.48,4.13-3.5,4.13-3.5l4.47-2.55l4.94-6.06l3.99-7.97l4.14-5.26l3.19-4.3l1.28-3.18l0.16-3.67
				l2.86-3.34l2.87,0.16l0.47,2.23l0.32,1.12h2.23l4.14-1.59l3.5-1.27l2.87-2.87l2.24-2.23l3.35-2.55l0.64-2.7l-0.33-1.91l1.12-1.6
				l2.07-1.59L460,666.8l-2.06-2.23l-1.75-3.82l0.79-5.1l2.88-3.02l4.61-1.59l4.78-1.11l4.46-3.03l2.08-1.59l1.91,0.64
				c0,0,0.64,2.07,0.8,2.55c0.15,0.48,2.23,2.07,2.23,2.07l4.94,0.96l5.89,0.48l4.47-1.12l3.98-1.75l4.14-2.23l5.09-2.55l5.1-0.16
				l3.35,0.32l4.46,0c0,0,4.46-2.55,4.63-3.03c0.15-0.48,0.64-5.42,0.64-5.42l-2.24-4.14l-1.11-3.03l1.75-2.07l4.14,0.48l2.71,1.75
				l3.18,5.58l2.87,5.74l0.8,5.89c0,0,2.86,7.49,2.86,8.12c0,0.64,4.78,7.49,4.78,7.49l5.73,7.49l3.34,4.62l6.38,6.37l3.5,3.98
				l2.24,1.6l1.43-0.48l-0.31-1.75l-0.64-1.43l2.07-0.96l2.55,2.39l2.55,3.03c0,0,3.02,4.14,3.34,4.62
				c0.33,0.48,3.35,3.19,3.35,3.19l0,2.23l-1.12,1.43l-2.07-0.48l-2.23-2.23l-2.71-0.8l-0.47,1.28l0.8,1.59l3.82,3.34l2.23,2.07
				l2.23,1.75l2.23,0.16l2.06,1.75l3.51,4.94c0,0,3.19,5.9,3.35,6.53c0.16,0.64,2.39,6.53,2.39,6.53l1.28,3.67l0.47,8.45l-0.15,5.89
				l-0.64,4.78l-1.91,5.41l-0.32,6.21l0.47,3.35h1.91l2.07-1.59l1.6-3.82l0.31-2.23l1.28-1.6l0.79,0.96l-0.48,3.03l-0.95,3.18
				l-0.17,3.67l1.44,1.91l1.28-0.32l0.64-0.63l0.79,0.31l0.64,1.44l2.39,0.32l1.28-1.28h1.59l2.07,1.43l1.28,0.79l3.02-1.27
				l1.6-2.71l0.48-3.19l3.35-2.55l6.53-3.51l4.46-3.02l3.19-3.82l1.43-4.62l-0.48-3.99l-0.47-4.78l1.27-0.16l1.75,2.87l3.82,5.1
				c0,0,0.64,5.26,0.79,5.74c0.17,0.48,3.35,4.78,3.35,4.78s2.55,1.12,2.72,2.07c0.15,0.95,1.27,4.3,1.43,5.1
				c0.16,0.8,1.43,5.42,1.43,5.42l1.76,4.78l1.1,4.3l0.48,3.67l2.23,5.89l1.91,6.53c0,0,2.86,5.58,3.19,6.53
				c0.32,0.95,2.55,4.78,2.55,4.78s0.16,3.99,0.48,4.46c0.31,0.47,1.59,3.66,1.59,3.66h1.11c0,0,2.07,1.75,2.24,2.23
				c0.15,0.48,1.43,3.5,1.43,3.5l2.87,6.21l1.6,7.49l0.8,6.21l0.63,5.58c0,0,2.08,5.89,2.39,6.53c0.32,0.64,0.16,4.94,0.64,6.06
				c0.48,1.11-1.28,8.28-1.28,8.28l-2.55,3.03l-0.96,5.26l1.43,6.85l0.16,2.55l1.27,1.59l0.64,0.32l-0.48,1.59l0,2.55l-1.28,3.67
				l-0.95,6.85l-0.48,4.95c0,0-1.11,2.86-1.11,3.34s-0.48,6.7-0.48,6.7l1.59,4.13l0.52,1.84l-0.25,2.75l-0.47,2.63v2.15l0.59,0.95
				l1.8-0.6l0.95-1.55l0.12-3.71l-0.47-2.51l-0.12-2.39l1.08-1.44h1.79l1.32,2.39l0.95,2.63l1.56,1.91l3.22,1.31
				c0,0,1.07,2.75,1.31,3.46c0.24,0.72,2.51,2.99,2.51,2.99s1.19,0.96,1.55,1.67c0.36,0.72,1.56,3.47,1.56,3.47s0.72,0.95,1.07,1.31
				c0.36,0.36,1.91,0.96,1.91,0.96l1.68,1.91l1.31,1.44c0,0,0.12,2.39,0.12,3.11c0,0.72,1.91,3.94,2.39,4.55
				c0.47,0.59,3.23,4.06,3.23,4.06s0.17,0.17,0.44,0.45h31.8l-2.85-5.82l-2.63-1.67l-3.46-0.72l-4.78,0.36l-2.28-0.12l-2.92-1.56
				l-3.88-3.47l-2.09-0.47c0,0-1.32-1.14-1.5-1.44c-0.18-0.3-1.97-2.93-1.97-2.93l-1.19-2.39l-1.07-2.09l0.05-1.79l0.97-1.08
				l1.31,0.18l0.78-0.78l0.18-1.79l-0.3-1.14l-0.71-4.24l-1.26-3.53l-1.13-1.97l-1.38-0.95l-1.9-1.38l-1.38-1.85l-0.42-2.98
				l-0.05-3.05l-0.24-2.57l-0.78-2.45l-1.73-2.39h-1.79l-1.67,0.54L699.3,897l-1.61,0.84l-1.97-0.72l-1.13-2.09l0.18-2.33l-0.6-2.15
				l-0.9-3.11l-0.71-3.89c0,0-0.42-3.52-0.36-3.82c0.06-0.3,0.6-4.96,0.6-4.96l0.47-2.87l1.33-2.89c0,0,1.35-2.47,1.44-2.71
				c0.07-0.23,0.95-2.23,0.95-2.47c0.01-0.24,0.24-2.87,0.24-2.87l0.24-2.63l0.72-2.71l0.56-3.98c0,0,0.88-3.19,1.04-3.5
				c0.16-0.32,1.68-2.79,1.76-3.27c0.07-0.48,0.31-2.79,0.31-2.79l0.95-2.23l0.64-2.63l-0.31-4.06l-0.56-3.11l-0.32-3.27l0.56-2.95
				c0,0,0.32-1.83,0.32-2.15c0-0.32-0.48-2.87-0.48-2.87l-1.12-1.67l0.32-2.55l2.62-1.99l2.23-0.64l2.95-0.32l3.51,0.16l2.39,0.72
				l1.99,0.8l0.88,1.83l0.24,2.55l-0.8,4.62l-0.64,4.62l0.4,2.39l1.19,1.04l2.63-0.56l2.62-0.64l2.47,0.72l1.92,0.48l1.91-0.72
				l1.83-0.96h1.91l1.19,1.04l3.59,2.39l1.59,1.91l2.15,1.03l1.11,1.44l1.6,2.23l1.75,1.28l1.35,0.16l2.15,0.16l1.2,0.4l1.43,2.71
				l2.31,6.53l2.87,2.95l1.44,2.95l0.16,3.19v2.31l0.55,2.79l1.83,0.72l1.67-0.8l0.88-1.51v-1.91l0.72-1.51l1.52-0.08l1.43,1.19
				l1.35,2.15l0.56,1.76l-0.4,2.23l-1.59,1.36l-0.4,1.28l0.72,2.23l1.99,1.04h2.07l0.8-1.59l-0.09-1.83l0.81-1.75l1.75-0.16
				l0.95,1.91l1.12,2.07l1.99,0.87l1.91,1.19l2.08,1.76l2.3,1.75c0,0,0.87,0.87,1.11,1.11c0.24,0.24,1.76,0.48,1.76,0.48l2,0.8
				l2.3,1.43l1.36,1.11l0.48,1.6l-0.4,1.03l-2.07,1.44l-0.72,2.56l-0.33,4.46l-0.08,5.97l0.41,4.3l0.07,1.67l0.64,0.96l1.03,0.87
				l0.08,1.2l-0.64,0.72l-0.79,0.71l0.23,1.28l1.44,0.48l3.02-0.56l1.84-1.67l1.19-1.75l0.96-0.8l0.96-1.52l0.47-2.71l1.67-1.75
				l4.62-2.94l3.66-1.44l1.68-0.72l1.52-1.28l0.23-1.91l-0.56-2.07l0.48-0.72l0.88,0.64l1.36,1.59l2.06,0.4l1.76-0.96l0.32-2.31
				l-0.64-2.32l1.36-0.63l1.11-1.2l-0.16-1.84l1.11-1.28l0.32-1.75l-0.4-1.91l0.88-1.51l0.8-1.59l1.59-0.72l0.95,0.08l0.72,0.79
				l0.16,1.04l0.8,0.64l1.75-0.32l2.15-1.76l2.16-2.39l3.02-2.39l2.39-1.19l2.15-0.4l1.36-0.87l0.79-1.91l1.51-1.36l2.08-0.64
				l2.47-1.91l2.08-2.47l2.55-0.47l1.83-0.95l2-0.88l1.03-2.07l0.24-2.15l0.72-1.43l1.28-0.87l0.72-2.39l-0.47-2.55l0.71-1.99
				l-0.79-2.15l-0.88-2.15l-0.16-2.31l1.03-1.51l-0.08-1.83l-0.88-2.47l0.32-1.67l1.35-1.6c0,0,0.96-1.59,0.96-1.83
				c-0.01-0.24,0-2.23,0-2.23l-1.43-1.59l-1.27-1.44l-0.72-4.22l-0.96-4.46l0.24-4.06l-0.24-3.51l-1.43-3.66l-1.19-3.99l-2.51-5.61
				l-2.39-5.14l-1.67-4.9l-0.72-3.58l-1.79-1.92l-4.89-3.46l-2.88-4.18l-2.39-4.42l-2.98-3.94l-2.51-2.27l-1.55-0.72l-1.32-0.24
				l-2.26-1.07l-5.27-4.43l-7.48-6.93l-4.22-4.54l-4.14-3.83l-4.22-3.58l-1.44-2.79l-0.08-2.07l0.32-1.84l-0.96-2.47l-2.46-1.99
				l-4.78-3.1l-4.23-4.39l-2.22-3.9l-1.92-3.02l-1.27-1.36l-0.32-2.15l1.03-1.03c0,0,1.12-1.43,1.28-1.67
				c0.15-0.24,0.31-2.55,0.31-2.55s-0.4-2.95-0.4-3.42c0-0.48,0.16-3.03,0.16-3.03l0.4-2.87l0.24-2.87l1.28-1.36l2.06-0.56
				l1.36-1.04l1.67-1.44l1.75-2.15l1.21-2.47l-0.17-2.87l0.89-1.99l1.82-1.12l1.68-2.63l1.36-1.99l1.27-0.56l2.07-0.39l1.83-0.72
				l1.75-1.51l1.03-2.07l0.56-1.99l1.76-1.83l1.75-0.24l2.87-0.72l2.39-1.75l1.75-1.35l2.39-1.44l1.52-2.47l0.32-1.91l1.19-0.8
				l2.22,0.48l1.11,1.51l2.32,2.47l3.1,1.67l1.75,0.24l0.8,1.12l0.32,1.75l1.67,0.87l2.87-0.4l1.83-1.35l0.4-1.43l1.27-0.24
				l1.2,0.72l1.28,1.43l1.99,0.32l0.8,0.87l-0.31,1.28l-1.91,0.64l-0.96,2.07l-0.24,3.19l0.48,3.67l1.83,3.74l2.31,2.79l1.67,1.11
				l0.49,1.28l0.15,1.11l0.16,1.28l1.68,1.11l2.7,0.24l3.02-0.56l1.6-1.51l0.71-2.15l-0.15-1.91l-1.36-1.04l-1.59-0.4l-0.95-1.67
				l0.4-2.15l-1.11-1.36l-1.2-0.32l-1.27,0.08l-1.43-1.04l0-1.67l1.04-1.35l2.14,0.4l2.08,0.16l1.92-1.28l1.19-1.99l-0.48-2.15
				l1.12-1.52l2.79-0.64l2.31,0.72l1.83-1.04l1.59-0.8l2.39-0.4l1.99,0.24l2.47-0.48l1.83-1.75l1.19-2.23l2.32-1.6l2.39,0.08
				l1.44,1.19l2.07,0.32l1.2-0.96l1.67-0.48l1.68,0.48l1.51-1.03l0.8-1.52l1.35-0.07l1.27,0.39l1.84-1.19l-0.4-1.99l-0.56-1.28
				l1.27-0.72l1.12,0.24l0.8,1.28l1.59-0.48l1.03-1.43l1.27-0.88l2.24-0.64l0.31-1.75l-0.16-2.39l-1.67-2.55l-1.19-1.91l-1.91-2.07
				l-0.24-1.91l0.08-1.68l1.35-1.28l1.28,0.72l1.11,2.24l2.63,3.58l2.3,3.9l3.11,1.59l2.38-1.28l1.68-1.35l1.75-0.56l1.67-0.4
				l0.8-1.43l1.43-1.68l1.84,0l0.39,0.96l0.39,2.23l1.75,0.48l1.36-0.79l0.95-1.36l2.15-1.59l2.07,0.32l2.08,0.96l2.71-0.56
				l0.72-1.35l0.24-1.67l2.15-0.16l1.11,1.36h3.82l2.24-1.83l1.83-0.72l2.71,0.32l1.44-1.27v-1.68l-0.24-1.51l0.96-1.35l1.19-0.8
				l1.67-1.59l0.16-1.91l0.56-1.67l0.48-1.51l1.52-0.8l2.79-0.16l2.07-1.28l1.36-1.91l2-1.59c0,0,2.06-0.72,2.22-0.96
				c0.16-0.24,2.79-3.19,2.79-3.19l1.11-3.02l1.44-2.07l0.08-1.44l1.51-1.35l2.63-0.4l1.28-0.79l2.39-1.52l1.36-2.95l0.07-1.75
				l1.52-0.72l0.95-2.31l-0.95-2.39l0.56-0.96l1.44,0.08l2.54-0.72l0.01-2.31l-1.59-1.27L996.48,574.22z"/>
			<path fill="none" stroke="#1A1A1A" stroke-width="2.5569" stroke-miterlimit="10" d="M1349.43,7.38
				c0.36-0.12,2.51-0.95,2.87-0.83c0.35,0.12,1.91,0.6,1.91,0.6s0.95,0.72,1.19,1.07c0.23,0.35,1.55,0.96,2.03,1.08
				c0.48,0.12,2.14,0.12,2.14,0.12s1.21-0.48,1.68-0.47c0.48,0,2.15-0.24,2.15-0.24s1.31-0.47,1.43-1.07
				c0.13-0.6,0.84-2.27,0.84-2.63c0.01-0.36-0.23-1.55-0.59-2.03c-0.36-0.48-2.63-2.51-3.23-2.75c-0.6-0.24-2.87-1.79-3.59-2.15
				c-0.72-0.36-2.26-1.08-3.11-1.67c-0.83-0.6-2.51-1.68-3.11-2.27c-0.6-0.6-2.15-2.03-2.99-2.39c-0.18-0.08-0.38-0.17-0.6-0.26
				h-90.33c1.78,1.35,6.3,4.58,7.17,5.74c1.07,1.43,8.84,7.65,9.07,8.25c0.24,0.6,6.93,6.45,6.93,6.45l9.08,7.89l9.07,8.84
				l8.01,8.37l9.19,7.05c0,0,5.14,2.87,5.38,3.23c0.24,0.36,4.3,3.83,4.3,3.83l5.97,7.65c0,0,4.66,4.18,4.9,4.66
				c0.24,0.48,5.37,3.35,5.73,3.94c0.36,0.6,2.51,1.91,2.99,2.39c0.47,0.48,1.07,1.19,2.15,2.15c1.07,0.96,1.79,1.43,2.62,2.03
				c0.84,0.59,1.44,0.71,1.44,0.71l0.95-0.12l1.32-1.31c0,0,0.83-2.27,0.83-2.87c0-0.6-0.11-2.27-0.12-2.63
				c0.01-0.36,0.24-1.67,0.95-2.15c0.73-0.48,1.44-0.24,2.05-1.31c0.59-1.08,1.66-2.15,1.43-3.83c-0.24-1.67-0.84-4.3-1.43-5.38
				c-0.6-1.08-1.68-3.47-1.8-4.18c-0.12-0.72-0.11-1.31-0.83-2.39c-0.72-1.08-1.43-2.15-2.39-2.87c-0.96-0.72-2.63-2.15-3.11-2.51
				c-0.48-0.36,0.12,0.24-0.48-0.36c-0.6-0.6-3.35-2.99-3.35-2.99l-1.67-1.67c0,0-1.31-1.08-1.31-1.44c0-0.36,0.35-1.55,0.35-1.55
				l0.96-0.24l1.31,0.6l1.67,1.32l1.32,0.12l1.44-0.6l1.07-1.43l1.79-1.32l1.91-0.48c0,0,1.55,0,2.16,0.12
				c0.6,0.12,3.7,0.84,3.7,0.84l0.96,0.24l1.31,0.24l1.44-1.07l-1.31-1.19l-4.42-2.27c0,0-2.51-1.91-2.86-2.39
				c-0.37-0.48-2.15-2.15-2.51-2.75c-0.36-0.6-1.91-2.39-3.1-3.23c-1.2-0.83-2.04-1.91-2.04-1.91l-1.07-3.11c0,0,0-2.75,0-3.23
				c0-0.48-0.11-2.63,0.12-3.23C1347.64,9.54,1349.07,7.5,1349.43,7.38z"/>
			<path fill="none" stroke="#1A1A1A" stroke-width="2.5569" stroke-miterlimit="10" d="M389.39,925.53l-4.46-9.71l-2.87-5.58
				c0,0-2.86-4.15-3.34-5.58c-0.48-1.43-2.7-4.78-2.7-4.78l-3.19-5.11l-4.78-4.77l-2.87-2.87l-2.86-2.23l-2.88-0.47l-2.55,0.63
				l-0.95,2.71l1.75,1.43l2.07,0.64l1.91,2.39c0,0-0.17,2.87-0.16,3.34c0,0.48-0.88,2.47-0.88,2.47l-0.56,2.71l-1.12,3.27
				l-1.28,5.57l-0.32,4.94c0,0-1.59,3.82-1.59,4.46c0,0.64,0.79,5.58,0.79,5.58s0.48,4.45,0.48,4.93c0,0.47,0.32,3.19,0.32,3.19
				l0.32,5.26l1.11,9.09l1.83,4.24h29.69c0.85-1.28,1.85-2.83,1.94-3.27c0.16-0.8,1.44-5.42,1.44-6.06c0.01-0.64,0-5.1-0.47-6.52
				C392.73,933.98,389.39,925.53,389.39,925.53z"/>
			<path fill="none" stroke="#1A1A1A" stroke-width="2.5569" stroke-miterlimit="10" d="M1348.58,82.43l-1.56-2.15l-1.91-1.91
				l-2.03,0.36l-0.36,2.15c0,0,1.19,1.55,1.31,1.91c0.12,0.35,0.6,1.91,0.6,1.91l-0.84,1.55l-1.91-0.12c0,0-1.79,0.48-1.79,0.96
				c0.01,0.47,0.6,3.58,0.6,3.58l1.67,2.16c0,0,2.03,0.6,2.39,0.6c0.35,0,1.08,0.24,1.43,0c0.36-0.24,1.21-1.2,1.2-1.55
				c0-0.36-0.47-0.96,0.01-1.2c0.47-0.24,2.74-0.96,2.74-0.96s0.48-1.19,0.59-1.67c0.13-0.48,0.24-2.39,0.24-2.39l-0.95-1.91
				L1348.58,82.43z"/>
			<path fill="none" stroke="#1A1A1A" stroke-width="2.5569" stroke-miterlimit="10" d="M1346.91,102.74l-0.95-2.03l-2.4-1.07
				c0,0-0.83,1.31-0.83,1.79c0,0.48,0.72,3.46,0.72,3.46l1.08,2.15c0,0,0.12,0.84,0.72,1.07c0.6,0.24,0.12,0.24,1.2,0.36
				c1.07,0.12,2.03-0.12,2.03-0.12l0.96-2.03l-1.07-2.03L1346.91,102.74z"/>
			<path fill="none" stroke="#1A1A1A" stroke-width="2.5569" stroke-miterlimit="10" d="M1344.51,114.09l-1.31,2.27
				c0,0-0.12,1.56,0.35,2.03c0.48,0.47,0.96,1.07,1.55,0.83c0.6-0.24,1.56-1.31,1.68-1.67c0.12-0.36-0.25-2.39-0.25-2.39
				L1344.51,114.09z"/>
			<path fill="none" stroke="#1A1A1A" stroke-width="2.5569" stroke-miterlimit="10" d="M1341.4,131.3
				c0.48,0.24,2.28,0.12,2.39-0.36c0.12-0.48,0.12-1.32,0.12-1.32l-0.96-1.2l-2.27-0.72c0,0-0.36,1.91-0.24,2.27
				C1340.57,130.34,1340.93,131.06,1341.4,131.3z"/>
			<path fill="none" stroke="#1A1A1A" stroke-width="2.5569" stroke-miterlimit="10" d="M1343.8,135c0,0-0.71,1.08-0.71,1.55
				c-0.01,0.48-0.13,1.31,0.23,1.67c0.36,0.36,1.19,0.84,1.55,0.72c0.37-0.12,1.08-0.72,1.08-0.72l-0.12-1.79L1343.8,135z"/>
			<path fill="none" stroke="#1A1A1A" stroke-width="2.5569" stroke-miterlimit="10" d="M1339.97,143.25
				c-0.12,0.36-0.47,2.03-0.24,2.39c0.24,0.36,1.32,0.84,1.32,0.84l1.32-0.24l1.08-1.91l-2.15-1.56
				C1341.28,142.77,1340.09,142.89,1339.97,143.25z"/>
			<path fill="none" stroke="#1A1A1A" stroke-width="2.5569" stroke-miterlimit="10" d="M1339.26,148.27c0,0-0.24,0.72-0.37,1.31
				c-0.11,0.6-0.83,2.51-0.83,2.51l-1.67,1.19c0,0,0.23,2.75,0.72,2.99c0.47,0.24,1.54,0.6,1.91,0.36c0.35-0.24,1.67-1.43,1.67-1.43
				l0.71-2.03c0,0-0.01-2.03,0-2.39c0-0.36,0-2.15,0-2.15C1341.4,148.27,1339.26,148.27,1339.26,148.27z"/>
			<path fill="none" stroke="#1A1A1A" stroke-width="2.5569" stroke-miterlimit="10" d="M1321.8,167.38l-1.55,2.75l-0.48,2.27
				l-0.96,1.79l-1.07,4.54l0.72,0.96l1.44,0.24c0,0,1.91-1.32,2.14-1.79c0.25-0.48,0.84-2.03,0.96-2.51
				c0.12-0.48,0.24-2.63,0.24-2.99c0-0.36,2.28-2.63,2.28-2.63l1.19-1.44l0.6-1.79l-2.98-0.71L1321.8,167.38z"/>
			<path fill="none" stroke="#1A1A1A" stroke-width="2.5569" stroke-miterlimit="10" d="M1308.54,179.81l-2.51,0.48l-1.67,2.63
				l-1.67,1.67c0,0-1.67,0.12-2.15-0.12c-0.48-0.24-1.8-1.68-1.8-1.68l-1.79-1.43l-1.32,0.36c0,0-0.49,0.96-0.12,1.68
				c0.37,0.72,1.19,2.03,1.19,2.03s-0.24,1.91-0.48,2.27c-0.24,0.36-1.31,1.44-1.43,1.79c-0.12,0.36-1.55,2.87-1.55,2.87l-1.44,1.55
				c0,0-0.48,2.63-0.37,2.99c0.12,0.36,0.36,1.79,0.36,2.27c0,0.48,0,1.32,0,1.32l0.71,0.6l1.55,0.12c0,0,1.2-1.43,1.56-1.91
				c0.36-0.48,0.84-2.51,1.19-2.75c0.37-0.24,1.56-2.15,1.56-2.15s1.67-2.39,2.04-2.63c0.35-0.24,1.55-2.63,1.55-2.63l3.35-4.66
				l2.39-1.08l1.44-0.12l1.55-0.83l-0.96-1.32L1308.54,179.81z"/>
			<path fill="none" stroke="#1A1A1A" stroke-width="2.5569" stroke-miterlimit="10" d="M1277.7,209.44c0,0.36-1.31,2.75-1.32,3.23
				c0,0.48,0.35,2.15,0.35,2.15l1.92,0.48l1.32-0.71l0.23-1.91c0,0-0.36-0.72,0.48-1.43c0.84-0.72,1.91-2.03,1.91-2.03l0.23-2.99
				c0,0,1.2-1.79,1.56-1.91c0.36-0.12,1.56-0.95,1.56-0.95l0.84-0.84l-0.6-1.55l-2.03-0.36l-2.03-1.43l-1.92,0.12l-1.19,1.91
				c0,0,0.12,2.63,0.12,3.23c-0.01,0.6-0.36,2.87-0.36,2.87S1277.7,209.08,1277.7,209.44z"/>
			<path fill="none" stroke="#1A1A1A" stroke-width="2.5569" stroke-miterlimit="10" d="M1209.55,183.66l-5.57-3.35l-2.23-0.79
				l-1.75-0.16l-0.96,2.39l0.64,3.51l3.19,2.87l6.54,8.28l2.7,6.37l2.39,3.51l1.75,3.18l-0.32,2.71l-1.6,0.16l-0.15,2.39
				c0,0,3.35,3.35,3.83,4.15c0.47,0.8,2.07,3.18,2.07,3.18l0.32,2.55l-2.23,1.27l-2.71-0.32l-2.71-0.8l-3.19-1.43l-2.07-0.96
				l-2.23-0.96l-1.91-0.16l-0.47,2.39l0.8,1.28l3.5,2.23l1.75,2.07l-0.16,3.19l-3.02,1.91l-2.55,2.23l0.47,1.75l1.92,2.07l1.43,3.03
				c0,0,1.11,1.11,2.07,1.44c0.96,0.32,3.03,1.91,3.03,1.91l2.55,2.07l2.06,4.62l1.11,4.3c0,0,1.91,1.75,2.39,2.07
				c0.49,0.32,4.46,0.32,4.46,0.32l1.28-2.55l-1.11-2.07l0.15-2.07l2.56-0.32l2.55,0.96l1.75,0.16l2.07-0.47l0.16-2.55l-1.59-1.12
				l-3.02-1.43l-3.5-1.91l-4.14-0.96l-3.83-1.12l-3.03-1.59l-1.11-2.55l0.32-2.07l1.6-0.95l1.91-0.16l2.71,0.8l1.75,1.91l2.23,1.43
				l1.28-0.31l2.55-2.07l2.87-2.55h3.18l5.89,2.23l9.24,3.82c0,0,5.58,1.28,6.05,1.6c0.48,0.32,5.42,2.87,6.05,3.35
				c0.64,0.47,2.22,2.23,3.03,2.55c0.8,0.32,2.07-0.32,2.07-0.32l-0.16-2.39l-1.91-3.98c0,0-1.43-2.23-1.43-3.19
				c0-0.96,0.64-5.42,0.64-5.42l2.71-4.3l2.71-0.64l3.19-0.15l4.3,0.8l3.18-0.96l2.55-1.28l1.75-2.71l2.08-0.16l2.22-0.8l0.96-2.23
				l-0.16-1.59l-1.27,0.32l-2.55,1.91l-2.23-0.48l-2.55-2.07l-2.71-1.75l-4.61-3.83c0,0-1.11-3.19-1.75-4.62
				c-0.64-1.43-0.16-3.82-0.16-3.82l0.63-2.39l-1.59-0.96h-0.96l-2.07,3.67l-1.28,2.71l-2.55,0.96l-4.3-0.64l-4.63-2.55l-3.66-0.48
				l-4.78-0.16l-9.25-4.78l-9.72-5.1l-9.87-7.33L1209.55,183.66z"/>
			<path fill="none" stroke="#1A1A1A" stroke-width="2.5569" stroke-miterlimit="10" d="M1283.29,364.51c0,0-2.71-4.62-2.54-5.42
				c0.16-0.79,0.16-6.53,0.16-6.53s0.79-3.83,1.11-4.3c0.33-0.48-1.43-5.58-1.59-6.06c-0.16-0.48-2.71-6.37-2.71-6.37l-3.82-5.74
				l-2.71-3.98l-0.16-4.46l1.91-1.43l2.39,0.8l1.6,0.16l0.64-2.55l-1.6-2.55l-1.9-3.03c0,0-1.12-3.19-0.96-3.66
				c0.17-0.48,1.6-1.91,1.6-1.91l1.43-4.78c0,0-2.24-4.78-2.55-5.42c-0.32-0.64-7.81-10.04-7.81-10.04l-9.08-8.92l-6.06-4.78
				l-3.19-4.3l-2.07-3.99l-1.12-3.18l-2.71-0.8l-2.87-0.95l-2.86-2.39l-1.59-0.16l-1.44,0.79l0.8,3.51l1.59,2.39l1.44,0.64
				l3.35-1.12l1.59,0.48c0,0,1.43,1.59,1.75,2.07c0.32,0.48,0.96,2.7,0.96,2.7l-0.8,1.12l-1.75-0.32l-1.44-1.92l-1.75,0.8
				l-1.12,1.44l-1.75-1.44l-1.75-2.71l-2.4-2.07l-3.18-0.16l-1.12,2.07l2.55,2.55l0.63,3.19l-2.23,0.96l-1.44,2.87l1.6,2.23
				l4.46,4.62l0.8,3.02l-1.6,2.55v1.43l1.44,0.48l2.23,0.16l1.75,1.27l2.71,3.98l1.11,5.1l1.27,5.74l0.64,7.17l0.96,4.14l0.47,6.69
				l-1.44,2.71l-4.14,3.35l-0.33,1.91c0,0,0.16,3.03,0.16,3.51c0,0.47-2.23,5.57-2.23,5.57l-4.63,3.19l-3.98,2.87l-3.52,1.75
				l-0.15,1.91l-2.87,0.96l-3.97-1.6l-1.12-3.34l-1.59-1.28l-1.11-1.59l1.11-2.07l2.39-0.96l1.6-3.18l-1.44-2.39l-1.59-0.32
				l-5.9,3.19l-1.12,3.82l3.66,5.41l1.76,4.31l-0.8,4.94l-3.18,3.35l-1.28,3.35L1210,368l1.91,3.35l-0.95,3.66l-5.26,2.07
				l-3.18-0.15l-2.55-1.6l0.64-2.23l-2.07-2.39l-1.91-0.16l-0.47,2.08l-1.6,1.43l-2.38-0.8l-2.87-1.28l-3.19,0.48l-1.75,2.39
				c0,0-3.51,0.8-4.47,1.12c-0.95,0.32-5.41,1.11-5.41,1.11l-3.19,0.32l-2.55-0.8l-1.76-2.07l-2.69,0.32l-3.83,1.91l-1.76,1.59
				l0.17,2.55c0,0-2.55,2.39-3.19,3.34c-0.64,0.96-2.7,3.83-2.86,4.3c-0.17,0.48-2.87,3.99-2.87,3.99l-2.23,0.47l-1.91,4.14
				c0,0-2.55,0.16-3.19,0.16s-3.67-0.16-3.67-0.16l-0.64,2.55l1.6,3.34l0.64,1.12l3.19,0.79l1.58,0.32c0,0,0.96,1.91,1.44,1.91
				c0.48,0,3.35-0.64,3.35-0.64l3.19-0.31l3.19,0.63l2.55,1.44l2.71,0.16l1.6-1.59l-0.96-4.14v-2.07l1.75-1.75l2.54,0.96l1.28,2.07
				l4.78-1.11l2.87-1.59c0,0,2.72,0,3.51-0.48c0.79-0.47,4.46-1.59,4.46-1.59l3.66-0.48l2.55-2.39l3.98-2.07l4.3-0.63l4.3,1.75
				l1.6,1.12l3.99-0.8l2.86-0.96c0,0,1.28,0.8,1.28,1.44c0,0.63,0.64,3.5,0.64,3.5s-1.44,0.96-1.92,1.28
				c-0.47,0.32-1.91,1.43-1.91,2.07c0,0.64,1.27,1.12,1.27,1.75c0,0.64,0.96,2.71,1.11,3.83c0.17,1.11,1.13,2.71,1.13,2.71
				l4.62,1.59c0,0,1.75,2.71,2.06,3.35c0.33,0.64,4.46,2.71,4.46,2.71l3.03,0.32c0,0,1.91-1.12,2.07-1.75
				c0.16-0.64,0.16-3.51,0.16-3.51l0.96-3.34l0.8-2.55l0.31-2.87l2.23-1.91l2.71-0.32l2.24-1.75l-0.8-1.91l-3.18-1.43l-4.3-2.07
				l-1.12-2.87l0.48-3.66l3.03-1.75l1.43,0.96l0.64,2.71l1.75,1.43l4.62,0.96l1.91,1.28l3.19,1.11l6.05,0.32l3.66,0.16l2.07-1.12
				l1.12-3.18l0.95-3.67l0.48-2.07l1.91-0.48l2.39,1.11l0.32,1.91c0,0,0.64,3.19,0.96,3.82c0.31,0.64,2.06,3.5,2.06,3.5l2.71,0.32
				l1.28-4.46l-1.75-3.83l-1.28-2.23l0.8-3.18l3.5-0.32l3.03-0.8c0,0,0.16-2.55,0.16-3.03c0-0.48,1.59-2.07,1.59-2.07l2.87,0.8
				l0.32,1.59l-0.95,1.12l0.32,3.35l1.59,2.87l1.91,3.19l2.23,0.31l1.6-2.23c0,0,0.95-1.28,1.11-1.91c0.17-0.64,0-1.91-0.32-2.55
				c-0.31-0.64-0.96-2.39-1.11-2.87c-0.16-0.48,0.32-2.71,0.32-2.71l1.43-1.28l2.39-0.64l0.17-2.07l-2.55-2.71L1283.29,364.51z"/>
			<path fill="none" stroke="#1A1A1A" stroke-width="2.5569" stroke-miterlimit="10" d="M1203.47,405.13
				c-0.16-0.64,0.16-2.7,0.16-2.7l1.6-0.96v-1.75l-0.97-2.71l-1.27-0.48l-1.44,0.8l-0.32,2.55l-0.48,2.07l-1.59,0.32l-2.71-1.59
				l-4.15-2.07l-3.5-0.16c0,0-3.02,1.28-3.35,1.75c-0.32,0.48-0.79,1.43-0.48,2.23c0.32,0.8,0.8,3.03,0.8,3.03l-1.11,1.44H1181
				l-2.39,0.47l-1.27-1.91l-3.03-1.76l-2.08,1.76l0.48,3.98l-1.59,3.03l-2.39,2.23l1.11,3.35l2.39,2.23l0.96,4.94
				c0,0,1.91,1.11,3.02,1.91c1.12,0.8,3.51,2.07,3.51,2.07s0.79,1.44,1.75,1.59c0.95,0.16,2.55-0.16,2.55-0.16s1.12-0.48,1.12-1.27
				c0-0.79-0.48-2.23-0.32-2.71c0.16-0.48,1.59-1.75,1.76-2.39c0.16-0.64-0.16-3.51-0.16-4.14c0-0.64,1.44-2.39,1.44-2.39
				s3.81-1.43,4.45-1.43c0.64,0,3.67,0.64,3.67,0.64s1.59,1.28,2.07,1.91c0.48,0.64,1.13,0.95,1.76,1.43
				c0.64,0.48,0.95,0.96,1.59,0.48c0.64-0.48,1.28-1.12,1.28-1.12s-0.16-1.59-0.15-2.55c0-0.96-0.48-2.07,0-2.55
				c0.47-0.48,3.02-1.75,3.34-2.39c0.32-0.64-0.48-3.51-0.64-3.99C1205.06,407.68,1203.63,405.76,1203.47,405.13z"/>
			<path fill="none" stroke="#1A1A1A" stroke-width="2.5569" stroke-miterlimit="10" d="M1159.01,416.59l-0.31-2.39l-1.44-1.28
				l-1.43-0.32l-1.91,0.96l-2.87,0.32l-3.99-1.91l-2.22-2.39l-3.19-2.39l-3.02-0.32l-1.76,1.91l-1.6,4.14l-3.66,0.96
				c0,0-2.55,0.32-2.55,1.43c0,1.12,0.16,2.87,0.16,2.87l-1.6,0.64l-3.66-0.96c0,0-1.6-0.48-2.4,0c-0.79,0.48-2.54,1.43-2.54,1.43
				l-1.28,3.35c0,0-0.31,3.02,0.33,3.51c0.63,0.48,1.75,1.11,1.75,1.11l0.8-1.75c0,0-0.48-1.92-0.48-2.55
				c0-0.64,1.11-1.91,1.92-2.07c0.8-0.15,2.39,0.48,3.03,0.8c0.63,0.32,2.54-1.43,3.19,0.64c0.63,2.07,0.63,2.71,0.47,3.35
				c-0.14,0.64,1.6,3.03,1.6,3.03s1.44,0.64,1.59,1.28c0.16,0.63,0.8,2.23,0.8,2.23s2.07,0.47,2.71,0.16
				c0.63-0.32,2.55-2.71,2.55-2.71s-1.11-2.71-1.27-3.19c-0.16-0.47-0.95-2.55-0.95-2.55l2.06-1.27l2.24,1.43l2.86,3.03l2.55,2.87
				l0.96,2.07l0.8,2.87v3.34l-2.07,2.23c0,0-0.96,2.39-0.96,2.87c0,0.48,0,1.75,0.8,3.02c0.8,1.28,3.82,4.3,3.82,4.3
				s0.8,1.44,1.12,2.23c0.31,0.8,0.47,3.35,0.47,3.35s-0.79,2.07-0.32,2.71c0.49,0.64,2.07,1.91,2.07,1.91l3.35,0.32l0.64,0.96
				l1.6,0.48l0.48-1.59l-1.11-2.23l-2.23-2.23l-0.96-2.71l0.8-1.91l1.75-0.63l0.95,1.91l-0.15,1.44l1.43,2.07l1.59,2.07v2.55
				c0,0-0.16,1.59-0.16,2.07c0,0.48,0.32,2.07,0.32,2.07l0.64-0.32l1.91-2.71l1.43-1.6l-0.64-3.02c0,0,0.01-0.96,0.65-1.28
				c0.64-0.32,1.58,0.16,1.58,0.16s-0.47,1.12,0.01,1.44c0.47,0.32,1.27,0.64,1.75,0.31c0.48-0.31,1.27-1.59,1.27-2.07
				c0-0.48-0.64-3.34-0.79-3.83c-0.16-0.47-1.75-2.39-1.91-3.82c-0.16-1.43,0-2.71,0-4.14c0-1.43-0.48-6.21-0.48-7.01
				c0-0.8-0.32-3.67,0.16-4.3c0.48-0.63,1.59-1.28,1.91-1.91c0.32-0.64,0.64-3.98,0.32-4.46c-0.32-0.48-1.28-1.75-2.07-2.71
				c-0.8-0.96-1.9-3.19-2.71-3.51c-0.8-0.32-3.19-0.16-3.19-0.16h-2.55l-0.79-1.75l0.8-1.12L1159.01,416.59z"/>
			<path fill="none" stroke="#1A1A1A" stroke-width="2.5569" stroke-miterlimit="10" d="M1140.69,428.22l-0.96,0.8l-0.79,1.43
				l-0.48,1.76l-0.17,2.39l-0.47,4.14l1.61,2.87l1.42,0.48l1.44-2.07c0,0-0.16-2.55-0.16-3.03c0-0.48-1.28-1.75-1.28-1.75
				l-0.16-2.07c0,0,1.75-1.91,1.75-2.39C1142.44,430.29,1140.69,428.22,1140.69,428.22z"/>
			<polygon fill="none" stroke="#1A1A1A" stroke-width="2.5569" stroke-miterlimit="10" points="1163.63,480.49 1164.58,479.53 
				1164.26,477.78 1162.51,476.5 1159.8,475.39 1158.36,477.3 1159.33,479.05 1161.07,480.32 			"/>
			<path fill="none" stroke="#1A1A1A" stroke-width="2.5569" stroke-miterlimit="10" d="M1155.97,523.5c0,0,0.96-1.75,0.96-2.23
				c0-0.48,0.47-1.75,0.47-1.75l1.91-1.27l0.96-1.44l-0.64-1.59l-1.9,0.16l-1.44,1.11l-2.55,1.43l-2.86,0.96l-0.64,2.23
				c0,0,0.16-0.16,1.12,0.8c0.95,0.95,0.95,0.95,0.95,0.95l2.06,1.28L1155.97,523.5z"/>
			<polygon fill="none" stroke="#1A1A1A" stroke-width="2.5569" stroke-miterlimit="10" points="1149.43,538.32 1149.76,536.09 
				1149.76,534.97 1149.12,534.97 1146.57,535.13 1145.29,536.57 1146.09,538.64 			"/>
			<path fill="none" stroke="#1A1A1A" stroke-width="2.5569" stroke-miterlimit="10" d="M1136.53,560.14
				c0.16,1.27,0.79,2.39,0.79,2.39s2.23,0.16,2.55-0.32c0.31-0.48,0.8-1.75,0.8-3.03c0-1.27-0.31-2.87,0.16-3.35
				c0.47-0.47,1.75-1.27,2.22-1.59c0.48-0.32,2.23-2.07,2.23-2.07l0.47-2.23l-0.79-1.75l-1.91,0.48l-0.96,1.91
				c0,0-1.92,1.28-2.55,1.75c-0.64,0.48-2.71,2.87-2.71,3.5C1136.85,556.48,1136.37,558.87,1136.53,560.14z"/>
			<path fill="none" stroke="#1A1A1A" stroke-width="2.5569" stroke-miterlimit="10" d="M1103.9,586.43c0,0-0.82-1.08-1.43-0.48
				c-0.6,0.59-1.31,1.67-1.31,2.15c0,0.48,1.31,2.39,1.31,2.39s1.32,0.47,1.79,0.24c0.47-0.24,1.79-1.91,1.79-1.91l-0.72-1.08
				L1103.9,586.43z"/>
			<path fill="#E74631" stroke="#1A1A1A" stroke-width="2.5569" stroke-miterlimit="10" d="M1044.99,584.26l-0.12-0.95l-1.79-2.51
				l-1.68,0l-1.67-1.8c0,0-0.96-1.2-1.91-1.19c-0.95,0-2.63,0.6-2.63,0.6l-1.31,1.43c0,0-0.84,1.08-1.32,1.19
				c-0.48,0.12-2.39,0.24-2.63,0.72c-0.25,0.48-3.23,6.81-3.23,6.81l-2.51,5.38l-0.6,6.81l-2.27,4.54c0,0-1.67,6.33-1.55,7.17
				c0.12,0.84,0.35,6.46,0.35,6.46s1.44,4.42,1.91,4.9c0.48,0.48,2.51,3.47,2.51,3.47s1.07,2.63,1.2,3.23
				c0.12,0.6,2.39,4.54,2.39,4.54l3.7,2.27l0.83,1.44c0,0,0.72,2.27,1.19,3.11c0.48,0.83,0.96,2.27,1.33,2.51
				c0.35,0.24,1.54,0.6,1.54,0.6l2.27-1.43l-0.35-2.03c0,0-1.31-2.27-1.55-2.98c-0.24-0.72-0.48-2.87-0.48-2.87s1.56-3.35,1.91-3.82
				c0.36-0.48,1.19-3.1,1.67-3.82c0.48-0.72,1.92-3.7,1.92-3.7s1.55-5.26,1.55-5.86c0-0.6,0-7.17,0.12-7.76
				c0.12-0.6,0.12-6.57,0.12-7.41c0-0.84-0.12-3.35,0.12-3.7c0.24-0.36,0.95-3.47,0.95-3.47s-0.24-3.94-0.24-4.3
				c0-0.36-0.96-2.99-0.96-3.35c0-0.36,0.36-2.86,0.36-2.86L1044.99,584.26z"/>
			<path fill="none" stroke="#1A1A1A" stroke-width="2.5569" stroke-miterlimit="10" d="M1229.29,320.62l-1.37-0.54l-0.72,0.6
				c0,0-0.77,1.49-0.77,1.73c0,0.24-0.3,1.73-0.3,2.03c0.01,0.3,0.66,1.85,0.78,2.09c0.12,0.24,1.01,0.96,1.19,1.32
				c0.18,0.36,0.9,1.08,0.9,1.08l-0.18,1.91c0,0,0.3,0.84,0.48,1.08c0.18,0.24,1.5,0.6,1.5,0.6l1.91-1.2c0,0,0.3-2.33,0.35-2.51
				c0.06-0.18-0.42-2.57-0.42-2.57s-1.32-1.44-1.55-1.67c-0.23-0.24-1.67-1.25-1.67-1.25v-1.79L1229.29,320.62z"/>
			<path fill="none" stroke="#1A1A1A" stroke-width="2.5569" stroke-miterlimit="10" d="M990.22-1.51l1.56-0.36l1.66-0.36
				c0.37-0.24,1.8-0.72,1.92-1.08c0.12-0.36-0.6-2.51-0.6-2.51l-1.8-0.96l-2.86,0.6l-1.67,1.79c0,0,0.23,1.91,0.35,2.27
				C988.91-1.75,990.22-1.51,990.22-1.51z"/>
			<path fill="none" stroke="#1A1A1A" stroke-width="2.5569" stroke-miterlimit="10" d="M998.47-3.78l-0.23,1.32l1.67,2.63
				l1.44-0.48l1.43-0.6l1.67,0.35l0.72,1.32l1.44,2.03c0,0,0,0.24,0.96,0.12c0.95-0.12,2.02-0.36,2.39-0.72
				c0.36-0.36,0.72-1.07,0.71-1.43c0-0.36-0.36-1.32-0.6-1.67c-0.24-0.36-0.6-1.32-0.6-1.32s0-0.6,0.35-0.84
				c0.37-0.24,0.48-0.72,0.49-1.07c0-0.36-0.84-1.32-0.84-1.32l-2.39-0.24l-2.87-1.08c0,0-1.55-0.48-2.03-0.72
				c-0.48-0.24-2.74-0.6-3.11-0.36c-0.36,0.24-1.2,0.96-1.2,0.96l0.25,1.44L998.47-3.78z"/>
			<path fill="none" stroke="#1A1A1A" stroke-width="2.5569" stroke-miterlimit="10" d="M1088.17,13.32c0,0,3.34,1.6,3.82,2.07
				c0.48,0.48,1.91,2.55,1.91,2.55l0.8,2.07c0,0,0.63,1.76,1.11,2.24c0.48,0.47,1.91,1.59,1.91,1.59s0.48,0.32,0.48,1.28
				c0,0.96,0.48,1.75-0.31,1.91c-0.81,0.16-1.28,0.8-1.91,0c-0.64-0.8-1.6-2.39-1.6-2.39l-2.55-0.8l-1.59,0.48l-0.48,1.75
				l-0.31,0.96l2.06,2.71c0,0,3.99,3.19,4.15,3.67c0.15,0.48,4.45,7.01,4.45,7.01l2.55,3.19c0,0,0.47,3.66,0.8,4.14
				c0.32,0.48,6.85,7.81,6.85,7.81l5.9,5.26l5.74,3.66l4.94,3.98l2.72,2.39l2.54,3.03l3.35,5.74l4.3,7.17l6.85,9.88
				c0,0,5.57,6.85,5.57,7.33c0,0.48,4.3,8.45,4.3,8.45l1.11,4.3l6.53,4.78l7.33,8.77c0,0,2.39,3.19,2.39,3.66
				c0,0.48,2.38,6.85,2.54,7.33c0.16,0.48,4.14,5.1,4.3,5.74c0.16,0.64,2.23,3.66,2.55,4.3c0.32,0.64,1.6,4.93,2.07,5.89
				c0.48,0.96,4.3,5.74,4.3,5.74l3.5,3.51l1.92,3.66l1.91,1.59c0,0,1.91-0.8,2.07-1.27c0.16-0.48-0.63-3.02-0.95-3.5
				c-0.32-0.48-1.91-3.35-2.07-4.15c-0.16-0.8-0.64-4.62-0.64-4.62l1.12-2.23l2.39,0.64l2.55,1.28l3.19,0.16
				c0,0,3.02,0.64,3.35,1.11c0.32,0.48,3.03,3.51,3.03,3.51s4.62,3.51,4.94,3.98c0.32,0.48,2.07,1.12,2.07,1.12l0.64-2.87
				c0,0-1.59-2.55-2.06-3.03c-0.48-0.48-2.72-2.39-3.66-3.19c-0.97-0.79-2.55-3.18-3.19-3.66c-0.64-0.48-1.76-1.12-1.76-1.12
				l-2.07,0.32c0,0,0.31,0.48-1.75-0.47c-2.07-0.96-3.82-2.23-3.82-2.23l-3.98-5.42l-5.74-3.66l-7.8-6.37l-3.83-3.99l-3.34-7.65
				l-2.24-7.01l-0.79-3.66l-1.6-3.02l-0.48-2.87l1.44-2.23l2.23-0.32l3.19,0.17l3.97,1.11l4.31,2.07l4.46,1.91l3.66,2.08l1.59-0.64
				l-1.42-1.44l-4.79-3.34l-6.37-6.7l-8.77-7.49l-7.64-6.38l-7.02-6.37l-11.78-11.63l-4.94-4.78c0,0-2.86-2.39-3.34-2.87
				c-0.47-0.47-4.3-3.51-4.62-3.99c-0.33-0.47-4.62-3.82-4.94-4.62c-0.32-0.79-3.35-5.1-3.35-5.1l-2.71-5.58l-3.51-3.98l-5.26-4.78
				c0,0-5.42-4.46-5.73-4.94c-0.31-0.48-5.26-4.78-5.26-4.78l-3.49-4.14l-3.03-3.82l-2.55-2.71l-4.94-2.7l-2.55-2.71l-1.43-0.32
				l-0.32,1.44l-2.07,0.8l-1.59,0.16l-0.17,1.27c0,0,1.44,0.96,1.91,1.12C1084.19,11.73,1088.17,13.32,1088.17,13.32z"/>
			<path fill="none" stroke="#1A1A1A" stroke-width="2.5569" stroke-miterlimit="10" d="M580.62,706.17
				c-0.32-0.48-2.39-1.59-2.39-1.59l-1.75,0.16c0,0-0.16,1.91,0,2.55c0.16,0.64,2.39,2.55,2.39,2.55l1.91,0.96
				c0,0,1.75-0.47,1.75-1.27c0-0.8-0.79-2.55-0.79-2.55L580.62,706.17z"/>
			<path fill="none" stroke="#1A1A1A" stroke-width="2.5569" stroke-miterlimit="10" d="M873.86,684.02l-1.79-0.12l-0.83-1.79
				c0,0-1.43-1.08-1.92-1.2c-0.47-0.12-1.91,0-2.02,0.36c-0.12,0.36-0.37,1.55-0.37,1.55s-1.55,0.6-2.03,0.6
				c-0.48,0-3.71-1.19-3.71-1.19l-1.91,0.71l-1.32,1.08l-2.98,0.12c0,0-1.79-0.48-2.27-0.48c-0.47,0-2.26,0.6-2.26,0.6
				s-0.96,1.56-1.32,1.55c-0.35,0-2.27,0-2.27,0s-0.24-0.48-1.31-0.24c-1.08,0.24-1.69,2.15-1.69,2.15l0.12,1.8l-2.63,2.63
				l-2.87,2.03l-1.67,2.98l0.37,5.02l0.47,3.82c0,0,1.55,2.03,1.55,2.51c0,0.48,0,3.59,0.24,4.18c0.24,0.6,5.49,2.99,5.49,2.99
				s3.46,1.91,3.95,2.15c0.48,0.24,5.02,0.6,5.02,0.6s0.72,1.08,1.79,0.83c1.08-0.24,2.63-1.07,2.63-1.07s0.24-1.44,0.6-1.79
				c0.36-0.36,2.51-1.31,2.51-1.31l2.03-1.44l3.82-2.63l2.51-1.79c0,0,0.35-4.55,0.35-4.9c0-0.36-0.47-3.11-0.35-3.7
				c0.12-0.6,1.07-2.99,1.44-3.7c0.35-0.72,1.67-2.99,1.91-3.35c0.24-0.36,1.19-0.96,1.55-1.32c0.36-0.36,1.2-1.79,1.2-1.79
				s0.24-3.11-0.12-3.7C875.41,686.18,873.86,684.02,873.86,684.02z"/>
			<path fill="none" stroke="#1A1A1A" stroke-width="2.5569" stroke-miterlimit="10" d="M1019.25,950.04
				c-0.37-0.24-2.16-1.55-2.16-1.55l-0.12-2.51l-1.19-0.6l-0.24,0.84l-1.2,1.43c0,0-1.79,0-1.79-0.35c0-0.36,0.12-2.87,0.12-3.35
				c-0.01-0.48-1.91-2.39-1.91-2.39l-1.68,0.95v2.51l-1.44,3.23l-1.79,0.6l-0.95-1.32l1.19-1.43l0.24-3.23l-2.26-1.55l-1.92,1.19
				l-0.96,5.74c0,0-1.31,2.15-1.67,2.51c-0.07,0.07-0.24,0.26-0.48,0.52h21.15C1019.78,950.66,1019.4,950.14,1019.25,950.04z"/>
			<path fill="none" stroke="#1A1A1A" stroke-width="2.5569" stroke-miterlimit="10" d="M1173.88,927.48l-0.96-0.83l-1.43-2.28
				c0,0,0.59-2.03,0.83-2.63c0.24-0.6-0.95-4.06-0.95-4.06s-1.19-1.32-1.2-1.67c0-0.36,0.48-2.75,0.59-3.23
				c0.12-0.48-1.31-2.15-1.31-2.15l-2.51,0.36l-1.79-0.72c0,0,0.47-2.03,0.72-2.39c0.24-0.36,2.27-1.79,2.27-1.79l0.48-3.11
				l-2.39-2.63l-0.6-2.39l0.25-1.91l-0.97-0.24l-0.71,0.96l-1.55,0.36l-0.48-2.04l-1.79-2.75l-2.15-1.19l-2.27-1.91l-2.15-2.15
				l-2.03-1.44l-1.07,0.36l-0.12,2.03l1.79,4.66l1.67,5.38l0.59,2.87l-2.26,1.55l-2.27,0.24l-1.08,0.36l-0.72,1.19l-1.19,0.6
				c0,0-1.19-0.72-1.19-1.19c0-0.47-1.67-2.03-1.67-2.03l-2.27,0.35l-0.6,1.79l0.01,2.87l0.35,3.58l-0.6,1.55l-2.27-0.24l-1.31-1.31
				h-2.63l-1.07,0.96l0,3.7l-1.07,3.11l-3.58,0.36l-2.03-0.72l-0.72-2.51l-1.44-3.59l-1.67-1.91c0,0-2.87-0.6-3.11-0.96
				c-0.24-0.35-2.04-0.95-2.04-0.95l-1.91,1.19l-0.36,1.32l-2.51,0.6l-2.51,0.48c0,0-0.72,2.87-0.72,3.23
				c0,0.36,0.48,2.63,0.48,2.63s-0.36,0.84-0.72,1.07c-0.37,0.24-3.23,0.96-3.7,0.96c-0.48,0-3.83,0.24-3.83,0.24l-3.11,2.03
				l-2.27,2.27c0,0-0.72,2.51-0.72,3.23c0,0.72-0.48,4.06-0.6,4.55c-0.12,0.47-0.6,2.86-0.6,2.86l-1.07,2.87l0,3.47l1.68,2.02
				l1.32,0.72l3.34-0.83l0-4.3l1.91-5.97l1.44-3.94l3.1-2.27l2.15,0.96v2.15c0,0-0.36,2.15-0.12,2.63c0.24,0.47,1.91,2.26,1.91,2.26
				s2.03-1.19,2.27-1.55c0.24-0.36,0.24-3.11,0.24-3.11l1.19-1.32l0.95,1.07l-0.12,2.75l2.15,2.51c0,0,2.27,0.84,2.75,0.24
				c0.48-0.6,0.48-2.87,0.48-2.87l-0.84-2.51c0,0,0.95-0.84,0.96-1.68c0-0.83,0.36-2.51,0.36-2.51l2.51,0.24l2.87,2.03l3.23,1.55
				l2.86,2.03l1.56,3.71c0,0-0.24,2.39-0.6,2.63c-0.35,0.24-2.27,1.91-2.27,1.91s-1.55,2.63-1.43,3.7c0.12,1.07,0.72,3.34,0.72,3.34
				s1.19,1.44,1.19,1.91c0,0.47-0.48,2.39-0.49,2.98c0,0.01,0.01,0.02,0.01,0.03h26.88c-0.21-0.3-0.35-0.5-0.35-0.5l-2.15-3.11
				l-0.72-3.35l2.39-2.15l1.68-2.39l0.12-2.51l1.07-2.03l2.52-0.12l1.19,2.75c0,0,0.24,2.51,0.47,2.99
				c0.23,0.47,2.15,3.23,2.15,3.23l0.6,4.06l0.07,3.13h3.62c-0.32-1.74-0.82-4.32-0.82-4.32l0.72-3.83l3.35-2.03l1.66-5.02
				c0,0,1.08-4.18,0.96-4.54C1176.62,931.18,1173.88,927.48,1173.88,927.48z"/>
			<path fill="none" stroke="#1A1A1A" stroke-width="2.5569" stroke-miterlimit="10" d="M1126.44,889.59c0,0,2.51,0.6,3.46,0.6
				c0.96,0,4.78-0.95,4.78-0.95s1.32-1.44,1.55-2.27c0.24-0.84,0.36-2.15,0.36-2.15l-1.43-2.63l-3-2.87h-2.86l-2.4,1.43l-1.67,2.15
				l-2.75,1.08l0.24,4.42L1126.44,889.59z"/>
			<path fill="none" stroke="#1A1A1A" stroke-width="2.5569" stroke-miterlimit="10" d="M1117.72,891.5c0,0,1.19-3.58,1.31-4.42
				c0.12-0.84,1.44-6.57,1.44-6.57l4.18-4.31c0,0,1.08-3.58,1.32-4.06c0.24-0.48-0.36-4.42-0.35-4.9c0-0.48,0.11-4.3,0.11-4.3
				l0.48-3.59l-0.59-2.15l-1.32-0.12l-0.95,2.15c0,0-1.07,4.66-1.07,5.02c0,0.36-0.96,4.9-0.96,4.9l-2.27,4.42l-2.15,5.26
				c0,0-1.54,2.98-1.54,3.7c0,0.72-0.97,8.73-0.97,8.73s0.35,0.24,0.83,1.31C1115.69,893.65,1117.72,891.5,1117.72,891.5z"/>
			<path fill="none" stroke="#1A1A1A" stroke-width="2.5569" stroke-miterlimit="10" d="M1103.38,881.82c0,0-2.28-0.36-3.11,1.08
				c-0.83,1.44-1.31,4.42-1.31,4.78c0,0.36,1.31,3.35,1.31,3.35l4.18,3.46c0,0,3.35,1.07,3.58,1.43c0.24,0.36,1.44,3.35,1.44,3.35
				s1.55,2.51,1.91,2.51c0.35,0,4.3-2.75,4.3-2.75l-0.59-4.18l-2.28-2.39c0,0-1.32-1.79-1.32-2.87c0-1.07-0.71-4.66,0.12-5.61
				c0.83-0.96,3.35-6.09,3.47-6.57c0.11-0.48,0.24-4.18,0.35-4.9c0.12-0.72,0.96-4.06,0.96-4.42c0-0.36-0.6-3.94-0.6-3.94l-2.39-0.6
				l-3.11-1.31l-2.63,1.79l-1.2,5.01c0,0-1.43,1.56-1.55,2.27c-0.12,0.72-0.12,2.87-0.12,4.66c0.01,1.79,0,3.82,0,3.82
				L1103.38,881.82z"/>
			<path fill="none" stroke="#1A1A1A" stroke-width="2.5569" stroke-miterlimit="10" d="M1098.84,868.92c0,0,0.6,0.72,0.6,1.2
				c0,0.48-0.12,2.27,0,2.87c0.11,0.6,1.31,1.67,1.55,1.32c0.24-0.36,1.56-2.51,1.56-2.51l-0.12-2.75l-0.84-1.79l0.12-3.12
				c0,0,2.51-2.27,2.87-2.27c0.35,0,2.98-1.67,3.34-2.15c0.37-0.48,1.19-2.99,1.32-3.34c0.11-0.36,0.36-4.06,0.36-4.06l-1.44-1.79
				l-0.83,0.24c0,0-1.56,0.96-2.03,1.08c-0.48,0.12-2.04-0.47-2.04-0.47l-2.38-0.6l-2.16,0.36l-3.58-2.03l-3.35-2.63l-2.63-2.15
				h-2.27l-0.84,1.79l1.56,1.79l1.91,1.67l0.12,4.31l0.6,5.37c0,0-1.79,4.66-1.8,5.14c0,0.48-0.11,5.5,0.37,6.81
				c0.47,1.32,0.47,1.32,0.47,1.32l2.51-0.6l0.72-2.51l3.46-0.36L1098.84,868.92z"/>
			<path fill="none" stroke="#1A1A1A" stroke-width="2.5569" stroke-miterlimit="10" d="M1055.35,838.56l-2.39-1.19l-1.67-1.91
				l-1.67-0.72l-1.19,0.84l0.95,2.62l1.67,1.08l0.36,2.51l-1.32,0.84l0.12,2.39l1.79,2.15c0,0-0.47,1.43-0.24,1.91
				s2.27,0.84,2.27,0.84s1.2-2.03,1.21-2.51c-0.01-0.48-0.48-2.03-0.37-2.75c0.12-0.72,1.79-1.79,1.79-1.79l1.44-0.36l-0.24-2.27
				L1055.35,838.56z"/>
			<path fill="none" stroke="#1A1A1A" stroke-width="2.5569" stroke-miterlimit="10" d="M1046.51,859.35c0.36-0.83,0-3.82,0-3.82
				l-1.19-2.63l-1.32,0.12l-0.48,3.35l-1.08,4.18l-1.19,2.03l2.03,6.09l-0.6,1.8l-0.96,0.83l-2.15,1.07l-1.67,1.8l-3.11,5.26
				l-3.23,5.13l-4.77,6.45l-4.43,4.54l-1.43,1.08l-5.74,4.89l-4.07,6.1l-0.59,4.06l-0.96,1.32l-0.59,1.31l0.35,1.19l1.32-0.6
				l2.14-2.39c0,0,2.64-2.15,3-2.63c0.36-0.48,3.35-2.63,3.35-2.63s3.35-2.15,3.7-2.87c0.36-0.72,2.39-4.18,2.63-4.54
				c0.24-0.36,4.3-2.75,4.55-3.11c0.23-0.36,3.34-4.3,3.83-5.13c0.47-0.84,1.67-4.65,1.67-4.65l0.25-3l2.74-2.27
				c0,0,5.38-5.37,5.62-5.97c0.23-0.6,3.58-2.27,3.58-2.27l0.24-7.29l-1.91-3.59C1046.03,862.57,1046.15,860.19,1046.51,859.35z"/>
			<path fill="none" stroke="#1A1A1A" stroke-width="2.5569" stroke-miterlimit="10" d="M1088.57,840c0,0,0.71-1.43,0.84-2.39
				c0.11-0.96-0.12-2.51-0.13-3.59c0-1.07-0.23-3.59-0.23-3.59l0.95-1.08l-0.59-0.83l-1.55,0.24l-1.2,1.43l-0.12,3.94
				c0,0-0.6,2.15-0.6,2.75c0,0.6,1.07,3.47,1.07,3.47L1088.57,840z"/>
			<path fill="none" stroke="#1A1A1A" stroke-width="2.5569" stroke-miterlimit="10" d="M1077.22,823.15c0-1.08-0.23-3.11-0.35-3.47
				c-0.12-0.35-1.91-2.27-1.91-2.27l-1.32-0.84l-2.99-2.03l-3.22-0.24l-0.6-1.44l-1.19-0.24l-2.16,0.24l-2.26-0.24l-2.27-1.19
				l-3.34,0.24l-1.08,1.19l0.24,1.68l3.22,1.31l3.35,3.59l2.63,4.78l0.6,2.87c0,0,1.07,1.08,1.67,2.15c0.61,1.08,2.28,3.34,2.39,3.7
				c0.12,0.36,0,1.19,0.72,2.27c0.71,1.08,0,0.48,1.31,1.44c1.32,0.96,3.59,1.43,3.59,1.43s2.86-2.63,3.22-3.11
				c0.37-0.47,0.84-3.7,0.95-4.06c0.12-0.36-0.95-3.95-0.95-4.42C1077.46,826.01,1077.22,824.22,1077.22,823.15z"/>
			<path fill="none" stroke="#1A1A1A" stroke-width="2.5569" stroke-miterlimit="10" d="M1107.09,842.39
				c-0.12,0.36,1.08,2.15,1.08,2.15l1.42-0.36c0,0,0.13-2.27,0.37-2.63c0.23-0.36,1.91-1.55,1.91-1.55h2.75l0.95,1.43l2.75,2.27
				c0,0,4.3,2.87,4.54,3.35c0.24,0.48,2.39,0.48,2.39,0.48s0.36-1.08,0.24-1.68c-0.12-0.6-1.68-2.39-2.15-3.23
				c-0.48-0.84-2.03-2.99-2.87-3.82c-0.84-0.84-3.22-2.27-3.22-2.27l-3.71-2.87l-3.46-2.51l-1.67-0.24l-0.48,2.03
				c0,0,0.47,2.27,0.6,3.1c0.12,0.84-0.48,3.83-0.48,3.83S1107.21,842.03,1107.09,842.39z"/>
			<path fill="none" stroke="#1A1A1A" stroke-width="2.5569" stroke-miterlimit="10" d="M1120.72,812.52l3.34,0.12l1.79-2.03
				l-0.12-2.87l-1.44-3.11c0-0.48-1.19-2.87-1.19-2.87l-2.51-1.08l-0.84,1.79l0.36,2.39l0.36,2.39l-1.07,1.79L1120.72,812.52z"/>
			<path fill="none" stroke="#1A1A1A" stroke-width="2.5569" stroke-miterlimit="10" d="M1143.42,856.97l1.43,1.19l0.6,1.67
				l2.98,1.56c0,0,2.16,0.47,2.87,0.12c0.72-0.36,1.67-0.95,1.2-2.87c-0.48-1.91-1.08-2.75-1.56-4.18
				c-0.47-1.43-1.43-3.58-1.43-4.78c0-1.19-0.6-2.75-0.83-4.3c-0.24-1.55-0.24-4.54-0.24-5.14c0-0.6,0-2.75,0-2.75l-2.75-2.87
				l-3.47-3.34c0,0-2.98,0.11-3.34,0c-0.36-0.12-3.7,0-3.7,0l-3.59-0.48l-3.82-0.36l-0.72,2.15l1.08,4.06l3.94,4.18l1.55,0.84
				l2.39,1.67c0,0,1.08,2.03,1.43,2.39c0.36,0.36,0.96,0.72,1.44,0.96c0.47,0.24,1.79,0.84,1.79,0.84v2.15l-2.03,1.79l-0.72,2.99
				l-2.51,1.07c0,0-1.91,0.48-1.91,0c0-0.48-0.24-1.91-0.24-1.91l0.83-1.31l-0.6-2.03l-3.35-2.87l-2.03,0.83l0.24,1.67
				c0,0,0,1.79,0.12,2.75c0.12,0.96,1.08,2.87,1.08,2.87l1.2,1.8l1.07,2.87c0,0-0.6,1.79-0.6,2.15s1.19,2.15,1.19,2.15l2.28-0.47
				l0.6-1.43l1.43,0.48l2.51,3.7l0.84,1.79l-0.96,1.32c0,0-1.19,0.12-1.43,0.84c-0.25,0.72-0.25,3.71-0.25,3.71s0.73,2.03,0.97,2.86
				c0.24,0.84,1.78,2.87,2.39,3.23c0.59,0.35,1.54,1.2,1.91,1.43c0.35,0.24,1.79,0.13,1.79,0.13v-2.27l-0.36-2.16l1.32-0.83
				l1.19,0.12c0,0,1.19-0.84,1.31-1.19c0.12-0.37,0.12-2.28,0-2.75c-0.12-0.48-2.26-3.35-2.51-3.71c-0.24-0.36-2.15-3.22-2.27-3.58
				c-0.12-0.36-1.19-4.19-1.19-5.14c0-0.96,0-3.11,0-3.11L1143.42,856.97z"/>
			<path fill="none" stroke="#1A1A1A" stroke-width="2.5569" stroke-miterlimit="10" d="M1090.37,811.92l2.27,2.03l1.79,4.9
				l2.27,0.24l0.72-1.68l-0.72-3.11l-2.03-2.75c0,0-2.51-2.75-2.51-3.11c0-0.36-1.55-4.18-1.55-4.18l1.55-0.95l2.75,1.31l2.28,2.39
				l1.79,1.67l1.08,2.75l4.3,2.51l2.15,3.11l1.54,2.15l0.25,1.43l2.63,1.67l1.91,2.27l3.11,0.6l1.08,1.56h1.43l1.55,3.58l2.63,1.55
				l2.03-2.03c0,0-0.12-2.63-0.24-3.11c-0.12-0.48-1.08-1.55-1.08-2.15c0-0.6,0.24-1.79,0.25-2.39c-0.01-0.6-1.44-2.04-1.44-2.04
				l-1.67,0.24l-3.95-0.12c0,0-0.24-0.96-0.24-1.32c0-0.36,0.36-1.67,0.36-1.67l-1.79-3.11c0,0-2.99-1.91-3.12-2.27
				c-0.11-0.36-0.47-2.87-0.47-2.87l1.79-0.48l2.75,0.72c0,0,1.31-0.6,1.31-0.95c0-0.36-2.27-2.87-2.27-2.87l-1.44-1.55l-2.5-0.36
				l-2.63-2.15l-2.51-0.6c0,0-1.08,0.83-1.08,1.19c0,0.36,1.32,3.35,1.32,3.35l-0.12,1.92c0,0-2.03,1.07-2.86,0.6
				c-0.84-0.48-1.56-2.87-1.56-3.22c0-0.36,0-2.27,0-2.87c0-0.6-6.1-5.98-6.58-5.98c-0.47,0-4.42,0-4.42,0l-2.51,2.63
				c0,0-12.07-5.02-12.07-5.38c0-0.36-0.37-3.11-0.37-3.11l0.6-2.27l-0.72-1.43l0.6-1.32l1.08-0.12l1.31,1.79
				c0,0,0.25,2.51,0.6,2.99c0.36,0.48,2.15,0.96,2.28,0.36c0.11-0.6,0.23-2.51,0.11-3.35c-0.11-0.83-1.07-2.03-0.95-2.86
				c0.12-0.84-0.24-2.75-0.24-2.75l-2.39,0.6l-0.6,0.95l-1.91,0.24c0,0-1.79,0.24-2.16,0.12c-0.35-0.12-1.55-0.72-1.55-0.72
				s-2.51-3.46-2.39-5.26c0.12-1.79,1.79-11.11,1.79-11.11l0.48-3.34l3.47-3.11l2.98,1.2c0,0,1.8-1.55,2.04-2.39
				c0.24-0.84,0.12-5.38,0.12-5.38s1.79-3.46,1.79-3.94c0-0.48,0.96-5.26,0.96-5.26s-0.48-3.59-0.47-4.18
				c-0.01-0.6-3.11-4.78-3.47-5.14c-0.35-0.36-3.11-2.99-3.35-4.18c-0.24-1.2-0.95-6.1-0.95-6.46c0-0.36,0.47-2.99,0.6-3.34
				c0.12-0.36,1.31-2.15,1.32-2.63c0-0.48-1.32-4.18-1.8-4.42c-0.47-0.24-2.63-0.47-2.63-0.47s-1.67,2.27-1.78,2.62
				c-0.12,0.36-0.37,0.96-1.08,1.08c-0.72,0.12-3.59-0.24-4.66-0.96c-1.08-0.71-2.51-2.03-3.94-2.63c-1.43-0.6-4.91-2.03-4.91-2.03
				l-3.33-0.24l-2.52,0.36c0,0-2.86,0.72-3.1,1.07c-0.24,0.36-1.68,1.79-1.68,1.79s0.6,2.51,0.6,3.23c0,0.72,0.35,19.36,0.35,19.36
				s0.96,11.59,0.96,12.07c0,0.48-0.61,3.71-0.37,4.66c0.24,0.96,2.15,4.9,2.63,5.5c0.49,0.6,1.32,1.79,0.6,2.39
				c-0.72,0.6-1.55,1.19-2.86,1.19c-1.32,0-3.95-3.23-4.07-3.58c-0.11-0.36-2.39-3.47-2.39-3.47l-1.67-0.12l-0.6,2.39l1.44,5.62
				c0,0,1.43,1.55,1.67,1.91c0.25,0.36,1.55,2.87,1.55,3.23c0,0.36,1.91,11.23,2.15,11.71c0.24,0.48,2.51,2.87,2.51,4.06
				c0,1.2,1.31,3.94,1.56,4.42c0.23,0.48,3.22,2.75,3.22,2.75l1.68,2.75c0,0,1.42-0.12,1.91-0.12c0.48,0,1.44-0.36,1.55-0.96
				c0.12-0.6,0.12-1.79,0-2.15c-0.12-0.36-1.32-2.27-1.32-2.75c0-0.48,2.63-1.79,2.63-1.79l2.88,1.08l1.08,1.44l0.71,2.75l-4.78,4.3
				c0,0-1.19,3.58-1.19,4.18c0,0.6,1.19,3.95,1.19,3.95l8.49,4.3c0,0,0.24,1.43,1.19,1.79c0.96,0.36,5.74-1.19,5.74-1.19
				s-0.24-2.15-0.01-2.63c0.25-0.48,2.63-1.8,2.63-1.8l4.78,0.96l3.46,2.39l2.75,1.43L1090.37,811.92z"/>
		</g>
	</g>
	<circle fill="#E74631" cx="1299.58" cy="768.86" r="160.61"/>
	<g>
		<g>
			<path fill="#FFFFFF" d="M1348.57,909.79c12.54,0,22.71-10.17,22.71-22.71h-45.43C1325.86,899.62,1336.03,909.79,1348.57,909.79z"
				/>
			<path fill="#F32A41" d="M1348.57,864.36c-12.54,0-22.71,10.17-22.71,22.71h45.43C1371.29,874.53,1361.12,864.36,1348.57,864.36z"
				/>
		</g>
		<g>
			<path fill="#FFFFFF" d="M1334.74,877.74c0-2.78,1.64-5.16,4-6.26c-0.47-0.11-0.95-0.17-1.44-0.17c-3.55,0-6.43,2.88-6.43,6.43
				c0,3.55,2.88,6.43,6.43,6.43c0.5,0,0.98-0.06,1.44-0.17C1336.37,882.9,1334.74,880.52,1334.74,877.74z"/>
			<g>
				<polygon fill="#FFFFFF" points="1341.74,872.54 1342.11,873.7 1343.32,873.7 1342.34,874.41 1342.71,875.56 1341.74,874.85 
					1340.75,875.56 1341.13,874.41 1340.15,873.7 1341.36,873.7 				"/>
				<polygon fill="#FFFFFF" points="1345.31,875.22 1345.68,876.37 1346.89,876.37 1345.91,877.08 1346.29,878.23 1345.31,877.52 
					1344.33,878.23 1344.7,877.08 1343.72,876.37 1344.93,876.37 				"/>
				<polygon fill="#FFFFFF" points="1338.1,875.22 1338.47,876.37 1339.68,876.37 1338.7,877.08 1339.07,878.23 1338.1,877.52 
					1337.12,878.23 1337.49,877.08 1336.51,876.37 1337.72,876.37 				"/>
				<polygon fill="#FFFFFF" points="1343.94,879.48 1344.31,880.63 1345.53,880.63 1344.55,881.34 1344.92,882.49 1343.94,881.78 
					1342.96,882.49 1343.34,881.34 1342.35,880.63 1343.57,880.63 				"/>
				<polygon fill="#FFFFFF" points="1339.49,879.48 1339.87,880.63 1341.08,880.63 1340.1,881.34 1340.47,882.49 1339.49,881.78 
					1338.52,882.49 1338.89,881.34 1337.91,880.63 1339.12,880.63 				"/>
			</g>
		</g>
	</g>
	<circle fill="#E74631" cx="1494.26" cy="347.01" r="175.28"/>
	<circle fill="#E74631" cx="482.18" cy="439.18" r="261.74"/>
	<circle fill="#E74631" cx="799.39" cy="758.01" r="154.48"/>
	
		<text transform="matrix(0.9 0 0 1 401.194 401.9103)" fill="#FFFFFF" font-family="'DFHeiStd-W9-B5pc-H'" font-size="86.863px" letter-spacing="7.78">中國</text>
	<g>
		<g>
			<circle fill="#DD2910" cx="797.97" cy="424.47" r="35.76"/>
			<g>
				<g>
					<g>
						<polygon fill="#FFDD00" points="778.16,402.84 780.47,409.97 787.97,409.97 781.91,414.38 784.22,421.51 778.16,417.1 
							772.09,421.51 774.41,414.38 768.34,409.97 775.84,409.97 						"/>
					</g>
					<polygon fill="#FFDD00" points="797.69,399.12 797.53,401.59 799.82,402.5 797.43,403.1 797.27,405.57 795.95,403.48 
						793.56,404.09 795.14,402.19 793.82,400.11 796.11,401.02 					"/>
					<polygon fill="#FFDD00" points="806.11,407.11 804.98,409.3 806.72,411.05 804.29,410.66 803.16,412.86 802.78,410.42 
						800.34,410.03 802.54,408.91 802.17,406.48 803.9,408.22 					"/>
					<polygon fill="#FFDD00" points="803.58,417.1 804.33,419.45 806.8,419.45 804.8,420.9 805.56,423.25 803.57,421.8 
						801.57,423.24 802.33,420.9 800.34,419.45 802.81,419.45 					"/>
					<polygon fill="#FFDD00" points="797.67,424.63 797.51,427.09 799.8,428.01 797.41,428.61 797.25,431.08 795.93,428.99 
						793.54,429.6 795.12,427.7 793.8,425.62 796.1,426.53 					"/>
				</g>
			</g>
		</g>
	</g>
	<g>
		<circle cx="1261.02" cy="323.47" r="36.37"/>
		<g>
			<ellipse fill="#FFFFFF" cx="1261.02" cy="323.47" rx="35.9" ry="35.89"/>
			<circle fill="#BD0026" cx="1261.02" cy="323.47" r="17.95"/>
		</g>
	</g>
	<path fill="none" stroke="#E74631" stroke-width="5.1137" stroke-miterlimit="10" d="M1331.45,365.54
		c0,0-286.51-12.53-299.01,239.92c0,0-68.14-140.33-292.85-134.73"/>
	<path fill="none" stroke="#E74631" stroke-width="5.1137" stroke-miterlimit="10" d="M894.63,636.38
		c60.74-63.62,137.82-30.92,137.82-30.92s118.44-86.58,172.29,79.36"/>
	<g>
		<g>
			<circle fill="#FF0000" cx="888.92" cy="597.95" r="23.35"/>
			<g>
				<circle fill="#FF0000" cx="888.29" cy="598.17" r="0.34"/>
				<path fill="#FFFFFF" d="M888.29,598.17c-3.17-1.28-4.68-5.29-3.36-8.44c0.72-1.73,3.4-4.11,6.68-3.29
					c-1.27,0.64-2.12,1.51-1.3,2.76c0.91,1.37,0.48,3.43-1.28,4.26C887.67,594.11,886.47,596.5,888.29,598.17z"/>
				<g>
					<path fill="#FF0000" d="M888.24,598.24c-0.67-0.54-1.74-1.12-2-3.3l0,0c-0.03-0.25-0.04-0.48-0.04-0.7l0,0
						c0-1.75,0.85-2.76,0.86-2.76l0,0l0,0c0.03-0.04,0.08-0.04,0.11-0.01l0,0c0.03,0.03,0.04,0.08,0.01,0.11l0,0
						c0,0-0.21,0.24-0.41,0.69l0,0c-0.2,0.46-0.41,1.12-0.41,1.98l0,0c0,0.21,0.01,0.44,0.04,0.68l0,0
						c0.27,2.13,1.26,2.63,1.95,3.19l0,0c0.03,0.03,0.04,0.08,0.01,0.11l0,0c-0.01,0.02-0.04,0.03-0.06,0.03l0,0
						C888.27,598.25,888.26,598.24,888.24,598.24L888.24,598.24z"/>
					<polygon fill="#FF0000" points="887.29,589.61 887.83,590.1 888.46,589.73 888.17,590.4 888.72,590.88 887.99,590.81 
						887.7,591.48 887.54,590.77 886.82,590.69 887.45,590.33 					"/>
				</g>
				<path fill="#FFFFFF" d="M888.29,598.17c0.25-3.41,3.59-6.08,7-5.79c1.87,0.16,4.95,1.97,5.18,5.35
					c-0.99-1.01-2.09-1.56-3.02-0.39c-1.02,1.28-3.12,1.51-4.45,0.09C891.97,596.33,889.32,595.92,888.29,598.17z"/>
				<g>
					<path fill="#FF0000" d="M888.22,598.15c0.31-0.81,0.53-2,2.52-2.92l0,0c0.22-0.11,0.44-0.19,0.65-0.26l0,0
						c1.67-0.54,2.89-0.03,2.9-0.03l0,0l0,0c0.04,0.01,0.06,0.06,0.04,0.1l0,0c-0.02,0.04-0.06,0.06-0.1,0.04l0,0
						c0,0-0.29-0.12-0.78-0.18l0,0c-0.5-0.06-1.19-0.05-2,0.21l0,0c-0.2,0.07-0.41,0.15-0.63,0.25l0,0
						c-1.94,0.91-2.12,2.01-2.44,2.83l0,0c-0.02,0.04-0.06,0.06-0.1,0.04l0,0c-0.02-0.01-0.04-0.02-0.04-0.05l0,0
						C888.21,598.18,888.21,598.16,888.22,598.15L888.22,598.15z"/>
					<polygon fill="#FF0000" points="896.13,594.59 895.84,595.26 896.38,595.75 895.66,595.67 895.36,596.34 895.21,595.63 
						894.48,595.55 895.11,595.18 894.96,594.47 895.5,594.96 					"/>
				</g>
				<path fill="#FFFFFF" d="M888.29,598.17c3.32-0.81,6.89,1.55,7.66,4.88c0.42,1.83-0.36,5.32-3.51,6.57
					c0.66-1.25,0.84-2.46-0.56-2.99c-1.53-0.58-2.39-2.51-1.45-4.2C891.18,601.1,890.75,598.46,888.29,598.17z"/>
				<g>
					<path fill="#FF0000" d="M888.3,598.1c0.86,0.05,2.07-0.11,3.55,1.51l0,0c0.17,0.18,0.31,0.36,0.44,0.54l0,0
						c1.03,1.43,0.92,2.74,0.92,2.75l0,0l0,0c-0.01,0.05-0.04,0.08-0.09,0.07l0,0c-0.04,0-0.07-0.04-0.07-0.08l0,0
						c0,0,0.02-0.31-0.07-0.8l0,0c-0.1-0.49-0.32-1.15-0.82-1.85l0,0c-0.13-0.17-0.27-0.35-0.43-0.52l0,0
						c-1.46-1.57-2.56-1.4-3.45-1.46l0,0c-0.04,0-0.08-0.04-0.07-0.08l0,0c0-0.03,0.02-0.05,0.04-0.06l0,0
						C888.26,598.1,888.28,598.09,888.3,598.1L888.3,598.1z"/>
					<polygon fill="#FF0000" points="894.1,604.54 893.38,604.46 893.08,605.13 892.93,604.41 892.21,604.34 892.84,603.97 
						892.69,603.26 893.23,603.75 893.86,603.38 893.56,604.05 					"/>
				</g>
				<path fill="#FFFFFF" d="M888.29,598.17c1.8,2.91,0.64,7.03-2.3,8.79c-1.61,0.96-5.17,1.29-7.33-1.32
					c1.4,0.24,2.61,0.04,2.68-1.45c0.08-1.64,1.65-3.05,3.56-2.67C886.39,601.82,888.77,600.6,888.29,598.17z"/>
				<g>
					<path fill="#FF0000" d="M888.37,598.15c0.22,0.84,0.74,1.93-0.35,3.84l0,0c-0.12,0.22-0.24,0.41-0.38,0.59l0,0
						c-1.04,1.41-2.32,1.72-2.33,1.72l0,0l0,0c-0.04,0.01-0.09-0.02-0.1-0.06l0,0c-0.01-0.04,0.02-0.08,0.06-0.09l0,0
						c0,0,0.3-0.07,0.74-0.32l0,0c0.44-0.24,1-0.66,1.51-1.35l0,0c0.12-0.17,0.25-0.36,0.36-0.57l0,0c1.05-1.87,0.55-2.87,0.33-3.73
						l0,0c-0.01-0.04,0.01-0.09,0.06-0.1l0,0c0.02-0.01,0.05,0,0.07,0.01l0,0C888.35,598.12,888.36,598.14,888.37,598.15
						L888.37,598.15z"/>
					<polygon fill="#FF0000" points="884.02,605.66 883.87,604.94 883.15,604.87 883.78,604.5 883.63,603.79 884.17,604.28 
						884.8,603.92 884.5,604.58 885.05,605.07 884.32,604.99 					"/>
				</g>
				<path fill="#FFFFFF" d="M888.29,598.17c-2.22,2.6-6.5,2.76-9.07,0.5c-1.41-1.23-2.81-4.52-0.99-7.38
					c0.2,1.41,0.76,2.49,2.2,2.11c1.58-0.42,3.41,0.64,3.63,2.57C884.24,597.48,886.13,599.37,888.29,598.17z"/>
				<g>
					<path fill="#FF0000" d="M888.33,598.24c-0.72,0.46-1.62,1.29-3.76,0.85l0,0c-0.24-0.05-0.46-0.11-0.67-0.18l0,0
						c-1.67-0.56-2.35-1.68-2.35-1.69l0,0v0c-0.02-0.04-0.01-0.09,0.03-0.11l0,0c0.04-0.02,0.08-0.01,0.11,0.03l0,0
						c0,0,0.16,0.27,0.52,0.61l0,0c0.37,0.34,0.94,0.75,1.74,1.02l0,0c0.2,0.07,0.42,0.13,0.65,0.17l0,0
						c2.1,0.42,2.9-0.36,3.65-0.83l0,0c0.03-0.02,0.08-0.01,0.11,0.03l0,0c0.02,0.02,0.02,0.05,0.01,0.07l0,0
						C888.36,598.22,888.35,598.23,888.33,598.24L888.33,598.24z"/>
					<polygon fill="#FF0000" points="879.86,596.4 880.49,596.04 880.34,595.32 880.88,595.82 881.52,595.46 881.21,596.12 
						881.76,596.61 881.03,596.53 880.73,597.2 880.58,596.48 					"/>
				</g>
			</g>
		</g>
	</g>
	<g>
		<g>
			<circle fill="#00785E" cx="937.78" cy="572.74" r="24.02"/>
			<g>
				<g>
					
						<path arg1="-1.5707963" arg2="-0.9424778" cx="329.76291" cy="102.52354" r1="19.297085" r2="7.3714867" sides="5" type="star" fill="#FAD016" d="
						M937.78,559.93l0.55,1.66h1.77l-1.43,1.03l0.55,1.66l-1.43-1.03l-1.43,1.03l0.55-1.66l-1.43-1.03h1.77L937.78,559.93z"/>
					
						<path arg1="-1.5707963" arg2="-0.9424778" cx="329.76291" cy="102.52354" r1="19.297085" r2="7.3714867" sides="5" type="star" fill="#FAD016" d="
						M927.12,567.37l1.08,0.23l0.55-0.94l0.11,1.08l1.08,0.22l-1.01,0.44l0.11,1.08l-0.74-0.81l-1.01,0.44l0.55-0.94L927.12,567.37z
						"/>
					
						<path arg1="-1.5707963" arg2="-0.9424778" cx="329.76291" cy="102.52354" r1="19.297085" r2="7.3714867" sides="5" type="star" fill="#FAD016" d="
						M930.87,562.52l0.82,0.73l0.95-0.54l-0.45,0.99l0.82,0.73l-1.1-0.11l-0.45,0.99l-0.23-1.06l-1.1-0.11l0.96-0.54L930.87,562.52z
						"/>
					
						<path arg1="-1.5707963" arg2="-0.9424778" cx="329.76291" cy="102.52354" r1="19.297085" r2="7.3714867" sides="5" type="star" fill="#FAD016" d="
						M948.44,567.37l-1.08,0.23l-0.56-0.94l-0.11,1.08l-1.08,0.22l1.01,0.44l-0.11,1.08l0.73-0.81l1.01,0.44l-0.55-0.94
						L948.44,567.37z"/>
					
						<path arg1="-1.5707963" arg2="-0.9424778" cx="329.76291" cy="102.52354" r1="19.297085" r2="7.3714867" sides="5" type="star" fill="#FAD016" d="
						M944.7,562.52l-0.82,0.73l-0.96-0.54l0.45,0.99l-0.82,0.73l1.1-0.11l0.45,0.99l0.23-1.06l1.1-0.11l-0.96-0.54L944.7,562.52z"/>
				</g>
				<g>
					<path nodetypes="cscccccccccccccccccccccccsc" fill="#FFFFFF" d="M937.78,576.63c-1.05,0.72-2.15,2.28-4.7,2.28
						c-3.6,0-4.94-1.06-6.01-1.85c-0.04-0.12,0.92-0.55,0.92-0.55c1.45,1.01,3.05,1.9,6.05,1.77c-3.7-0.33-6.21-2.34-6.97-4.2
						c2-1.39,5.32-1.36,8.04,0.55c-0.85-1.05-3.69-2.21-5.81-1.88c-0.31-0.31-0.57-0.7-0.88-1.02c2.44-0.54,5.84,1.01,7.08,2.28
						c-1.31-2.08-2.27-4.44-0.71-7.3c0.3,0.29,0.65,0.57,0.95,0.86c-1.17,2.11-0.74,4.57,0.2,6.29c-1.63-3.33-0.32-6.61,1.83-8.21
						c2.15,1.6,3.46,4.89,1.83,8.21c0.94-1.71,1.37-4.18,0.2-6.29c0.3-0.29,0.65-0.57,0.95-0.86c1.55,2.87,0.6,5.22-0.71,7.3
						c1.24-1.27,4.64-2.81,7.08-2.28c-0.31,0.32-0.57,0.71-0.87,1.02c-2.13-0.32-4.96,0.84-5.82,1.88c2.72-1.91,6.04-1.94,8.04-0.55
						c-0.76,1.86-3.26,3.88-6.97,4.2c3,0.13,4.6-0.75,6.05-1.77c0,0,0.96,0.43,0.92,0.55c-1.07,0.8-2.41,1.85-6.01,1.85
						C939.93,578.91,938.83,577.35,937.78,576.63z"/>
					<path fill="#FFFFFF" d="M937.78,577.32c-1.5,1.24-2.4,2.03-4.39,2.03l-5.99-0.01c0.15,0.29,0.32,0.56,0.49,0.84l5.67,0.01
						c2.72,0,4.22-1.72,4.22-1.72s1.5,1.72,4.22,1.72l5.67-0.01c0.18-0.27,0.34-0.55,0.49-0.84l-5.99,0.01
						C940.19,579.35,939.28,578.56,937.78,577.32z"/>
					<path fill="#FFFFFF" d="M928.41,580.93c0.08,0.1,0.15,0.19,0.23,0.29h18.28c0.08-0.1,0.16-0.19,0.23-0.29H928.41z"/>
					<path fill="#FFFFFF" d="M929.42,582.08c0.2,0.2,0.4,0.4,0.62,0.58h15.49c0.21-0.18,0.42-0.38,0.62-0.58H929.42z"/>
					<path fill="#FFFFFF" d="M930.76,583.24c0.43,0.32,0.88,0.61,1.36,0.87h11.34c0.47-0.26,0.93-0.55,1.36-0.87H930.76z"/>
					<path fill="#FFFFFF" d="M932.67,584.4c1.5,0.72,3.18,1.13,4.96,1.15h0.3c1.77-0.02,3.46-0.44,4.96-1.15H932.67z"/>
				</g>
			</g>
		</g>
	</g>
	<g>
		<g>
			<path fill="#FFFFFF" d="M1421.04,906.29h24.19c1.57-0.99,3-2.17,4.28-3.49h-32.75C1418.03,904.12,1419.47,905.3,1421.04,906.29z"
				/>
			<g>
				<path fill="#FFFFFF" d="M1411.04,892.31h44.18c0.27-1.13,0.45-2.3,0.54-3.49h-45.26
					C1410.59,890.01,1410.77,891.18,1411.04,892.31z"/>
				<path fill="#FFFFFF" d="M1414,899.3h38.25c0.71-1.1,1.32-2.27,1.84-3.49h-41.92C1412.68,897.03,1413.3,898.2,1414,899.3z"/>
				<path fill="#FFFFFF" d="M1445.23,867.87h-24.19c-1.57,0.99-3,2.16-4.28,3.49h32.75
					C1448.23,870.03,1446.79,868.85,1445.23,867.87z"/>
				<g>
					<path fill="#DB241F" d="M1412.17,895.81h41.92c0.47-1.12,0.84-2.29,1.13-3.49h-44.18
						C1411.33,893.52,1411.7,894.69,1412.17,895.81z"/>
					<path fill="#DB241F" d="M1416.76,902.79h32.75c1.03-1.07,1.95-2.24,2.75-3.49H1414
						C1414.81,900.55,1415.73,901.73,1416.76,902.79z"/>
					<path fill="#DB241F" d="M1433.13,909.78c4.45,0,8.59-1.28,12.09-3.49h-24.19C1424.54,908.5,1428.68,909.78,1433.13,909.78z"/>
					<path fill="#DB241F" d="M1411.04,881.84h44.18c-0.29-1.2-0.66-2.37-1.13-3.49h-41.93
						C1411.7,879.47,1411.32,880.63,1411.04,881.84z"/>
					<path fill="#DB241F" d="M1410.42,887.07c0,0.59,0.03,1.17,0.07,1.75h45.26c0.04-0.58,0.07-1.16,0.07-1.75
						c0-0.59-0.03-1.17-0.07-1.74h-45.26C1410.45,885.9,1410.42,886.48,1410.42,887.07z"/>
					<path fill="#DB241F" d="M1416.75,871.36c-1.03,1.07-1.95,2.24-2.75,3.49h38.26c-0.8-1.25-1.72-2.42-2.75-3.49H1416.75z"/>
					<path fill="#DB241F" d="M1433.13,864.37c-4.45,0-8.59,1.28-12.1,3.49h24.19C1441.72,865.65,1437.58,864.37,1433.13,864.37z"/>
				</g>
				<path fill="#FFFFFF" d="M1410.5,885.33h45.26c-0.09-1.19-0.27-2.36-0.54-3.49h-44.18
					C1410.77,882.97,1410.59,884.14,1410.5,885.33z"/>
				<path fill="#FFFFFF" d="M1412.17,878.34h41.93c-0.51-1.22-1.13-2.39-1.83-3.49H1414
					C1413.29,875.95,1412.68,877.12,1412.17,878.34z"/>
				<path fill="#0035AC" d="M1433.11,864.37c-12.53,0.01-22.69,10.17-22.69,22.7c0,0.6,0.03,1.19,0.08,1.78h22.61V864.37z"/>
				<g>
					<path fill="#FFD000" d="M1422.21,883.7c-2.82,0-5.11-2.29-5.11-5.12c0-2.82,2.29-5.11,5.11-5.11c0.83,0,1.61,0.2,2.3,0.55
						c-0.98-0.77-2.21-1.23-3.56-1.23c-3.2,0-5.79,2.59-5.79,5.79c0,3.2,2.59,5.79,5.79,5.79c1.34,0,2.57-0.46,3.55-1.23
						C1423.82,883.5,1423.04,883.7,1422.21,883.7z"/>
					<polygon fill="#FFD000" points="1426.77,873.73 1427.19,876.78 1428.88,874.21 1427.93,877.14 1430.57,875.56 1428.45,877.78 
						1431.51,877.51 1428.63,878.59 1431.51,879.67 1428.45,879.4 1430.57,881.62 1427.93,880.04 1428.88,882.96 1427.19,880.4 
						1426.77,883.44 1426.36,880.4 1424.67,882.96 1425.62,880.04 1422.98,881.62 1425.1,879.4 1422.04,879.67 1424.92,878.59 
						1422.04,877.51 1425.1,877.78 1422.98,875.56 1425.62,877.14 1424.67,874.21 1426.36,876.78 					"/>
				</g>
			</g>
		</g>
	</g>
	<g>
		<g>
			<path fill="#0038A7" d="M1501.3,887.08c0-12.81-10.38-23.19-23.19-23.19c-8.05,0-15.13,4.1-19.3,10.33l19.3,12.86H1501.3z"/>
			<path fill="#CD1126" d="M1501.3,887.08h-23.19l-19.3,12.86c4.16,6.22,11.25,10.33,19.3,10.33
				C1490.92,910.26,1501.3,899.88,1501.3,887.08z"/>
			<path fill="#FFFFFF" d="M1458.82,874.22c-2.46,3.68-3.9,8.1-3.9,12.86c0,4.76,1.44,9.18,3.9,12.86l19.3-12.86L1458.82,874.22z"/>
			<g>
				<path id="_x3C_Path_x3E__6_" fill="#FBD016" d="M1460.25,897.24l-0.89-0.38l-0.64,0.73l0.09-0.97l-0.9-0.38l0.95-0.21l0.08-0.97
					l0.49,0.84l0.94-0.22l-0.65,0.73L1460.25,897.24z"/>
				<path fill="#FBD016" d="M1467.58,887.63c0.14-0.14,0.28-0.29,0.41-0.43c-0.13-0.11-0.39-0.45-0.56-0.43
					c-0.41,0.05-0.83,0.1-1.24,0.15c-0.42,0.05-0.39-0.13,0-0.19c0.36-0.06,0.72-0.13,1.08-0.19c-0.26-0.2-0.28-0.26-0.58-0.18
					c-0.34,0.09-0.82,0.39-0.94,0.02c-0.08-0.24-0.28-0.34-0.04-0.48c0.19-0.1,0.38-0.21,0.56-0.31c0.35-0.19,0.35-0.2,0.41-0.59
					c-0.28,0.18-0.55,0.36-0.83,0.55c-0.12,0.08-0.25,0.17-0.37,0.25c-0.2,0.13-0.01-0.22,0.03-0.25c0.35-0.27,0.69-0.53,1.04-0.8
					c0.24-0.19,0.15-0.42,0.15-0.72c-0.17,0.01-0.6-0.05-0.7,0.08c-0.26,0.32-0.52,0.65-0.79,0.97c-0.26,0.32-0.36,0.17-0.13-0.14
					c0.22-0.3,0.43-0.6,0.65-0.89c-0.32,0.03-0.38,0-0.54,0.27c-0.11,0.18-0.22,0.37-0.33,0.55c-0.15,0.24-0.07,0.25-0.35,0.11
					c-0.23-0.12-0.5-0.05-0.43-0.33c0.06-0.21,0.11-0.42,0.17-0.62c0.1-0.38,0.1-0.38-0.15-0.7c-0.06,0.33-0.12,0.65-0.18,0.98
					c-0.03,0.15-0.05,0.29-0.08,0.44c-0.04,0.23-0.16-0.15-0.16-0.21c0.05-0.43,0.09-0.87,0.14-1.3c0.03-0.3-0.2-0.4-0.42-0.6
					c-0.11,0.12-0.45,0.39-0.43,0.56c0.05,0.41,0.1,0.82,0.15,1.24c0.05,0.42-0.13,0.38-0.19,0c-0.07-0.36-0.13-0.72-0.2-1.08
					c-0.2,0.26-0.27,0.27-0.18,0.58c0.06,0.21,0.11,0.42,0.17,0.62c0.07,0.27,0.13,0.22-0.16,0.33c-0.25,0.09-0.37,0.31-0.51,0.07
					c-0.11-0.19-0.22-0.37-0.32-0.56c-0.2-0.35-0.21-0.35-0.61-0.39c0.19,0.27,0.39,0.54,0.58,0.82c0.09,0.12,0.17,0.24,0.26,0.36
					c0.13,0.19-0.22,0.01-0.26-0.03c-0.28-0.34-0.55-0.67-0.83-1.01c-0.19-0.23-0.42-0.14-0.72-0.13c0.01,0.17-0.04,0.6,0.1,0.7
					c0.33,0.26,0.66,0.51,0.99,0.76c0.34,0.26,0.19,0.36-0.14,0.14c-0.3-0.21-0.6-0.42-0.91-0.62c0.04,0.32,0.01,0.38,0.28,0.53
					c0.32,0.18,0.85,0.28,0.68,0.65c-0.11,0.24-0.04,0.47-0.31,0.4c-0.21-0.06-0.41-0.11-0.62-0.16c-0.39-0.1-0.39-0.1-0.7,0.15
					c0.32,0.06,0.65,0.12,0.98,0.17c0.15,0.03,0.29,0.05,0.44,0.08c0.23,0.04-0.14,0.16-0.2,0.16c-0.43-0.04-0.87-0.09-1.3-0.13
					c-0.3-0.03-0.4,0.2-0.61,0.42c0.13,0.11,0.4,0.45,0.56,0.43c0.41-0.05,0.82-0.11,1.24-0.16c0.41-0.05,0.38,0.12,0,0.19
					c-0.36,0.07-0.72,0.14-1.08,0.2c0.25,0.2,0.27,0.27,0.58,0.18c0.36-0.1,0.81-0.4,0.94-0.02c0.09,0.24,0.3,0.35,0.05,0.49
					c-0.19,0.1-0.37,0.21-0.56,0.31c-0.34,0.2-0.34,0.2-0.39,0.6c0.28-0.19,0.55-0.38,0.82-0.57c0.12-0.08,0.24-0.17,0.37-0.25
					c0.2-0.13,0.01,0.22-0.03,0.25c-0.34,0.27-0.68,0.55-1.02,0.82c-0.24,0.19-0.14,0.42-0.14,0.72c0.17-0.01,0.6,0.04,0.7-0.09
					c0.26-0.32,0.51-0.65,0.77-0.98c0.26-0.33,0.36-0.18,0.13,0.14c-0.21,0.3-0.42,0.6-0.63,0.9c0.32-0.04,0.38-0.01,0.54-0.28
					c0.11-0.19,0.21-0.37,0.32-0.56c0.14-0.24,0.07-0.25,0.35-0.12c0.24,0.11,0.49,0.04,0.42,0.33c-0.05,0.2-0.11,0.41-0.17,0.62
					c-0.1,0.39-0.1,0.39,0.16,0.7c0.06-0.33,0.11-0.66,0.17-0.98c0.03-0.14,0.05-0.29,0.08-0.44c0.04-0.23,0.16,0.15,0.16,0.2
					c-0.05,0.43-0.09,0.87-0.13,1.3c-0.03,0.3,0.2,0.4,0.42,0.61c0.11-0.13,0.45-0.39,0.43-0.56c-0.05-0.41-0.11-0.82-0.16-1.24
					c-0.05-0.41,0.12-0.38,0.19,0c0.07,0.37,0.14,0.73,0.2,1.09c0.2-0.26,0.27-0.28,0.18-0.58c-0.06-0.21-0.12-0.41-0.17-0.62
					c-0.07-0.27-0.13-0.22,0.16-0.33c0.24-0.09,0.36-0.32,0.51-0.07c0.11,0.19,0.22,0.37,0.33,0.55c0.2,0.34,0.21,0.34,0.61,0.39
					c-0.19-0.27-0.38-0.54-0.58-0.81c-0.08-0.12-0.17-0.25-0.26-0.37c-0.14-0.2,0.22-0.01,0.25,0.03c0.28,0.34,0.56,0.67,0.83,1.01
					c0.19,0.24,0.42,0.14,0.72,0.13c-0.01-0.17,0.04-0.59-0.1-0.7c-0.33-0.25-0.66-0.51-0.99-0.76c-0.34-0.25-0.19-0.35,0.13-0.13
					c0.31,0.21,0.61,0.41,0.91,0.62c-0.04-0.32-0.01-0.38-0.28-0.54c-0.31-0.17-0.86-0.28-0.69-0.64c0.11-0.23,0.04-0.45,0.31-0.38
					c0.21,0.05,0.41,0.11,0.62,0.17c0.38,0.1,0.38,0.1,0.7-0.15c-0.28-0.05-0.57-0.1-0.85-0.16c-0.15-0.03-0.3-0.06-0.45-0.08
					c-0.06-0.01-0.31-0.22-0.09-0.2C1466.47,887.51,1467.02,887.58,1467.58,887.63z"/>
				<path id="_x3C_Path_x3E__5_" fill="#FBD016" d="M1471.71,887.86l0.58-0.78l-0.58-0.78l0.93,0.3l0.56-0.79l0,0.97l0.93,0.29
					l-0.92,0.3l0.01,0.97l-0.57-0.79L1471.71,887.86z"/>
				<path id="_x3C_Path_x3E__4_" fill="#FBD016" d="M1460.24,876.9l-0.89,0.39l-0.64-0.73l0.1,0.97l-0.9,0.38l0.95,0.2l0.09,0.97
					l0.49-0.84l0.95,0.21l-0.65-0.72L1460.24,876.9z"/>
			</g>
		</g>
	</g>
	<g>
		<g>
			<path fill="#FFFFFF" d="M1409.71,894.6h-43.13c0.98,2.83,2.49,5.4,4.43,7.61h34.28C1407.22,900.01,1408.73,897.43,1409.71,894.6z
				"/>
			<path fill="#DD1018" d="M1405.28,902.21h-34.28c3.64,4.14,8.75,6.95,14.52,7.61h5.23
				C1396.53,909.16,1401.64,906.35,1405.28,902.21z"/>
			<path fill="#DD1018" d="M1388.14,864.34c-6.68,0-12.69,2.87-16.87,7.45h33.73C1400.84,867.21,1394.83,864.34,1388.14,864.34z"/>
			<path fill="#FFFFFF" d="M1405.01,871.79h-33.73c-1.99,2.19-3.57,4.77-4.59,7.61h42.92C1408.58,876.55,1407,873.98,1405.01,871.79
				z"/>
			<path fill="#00247D" d="M1410.96,887.15c0-2.72-0.48-5.34-1.36-7.76h-42.92c-0.88,2.42-1.35,5.03-1.35,7.76
				c0,2.61,0.44,5.12,1.25,7.45h43.13C1410.52,892.27,1410.96,889.76,1410.96,887.15z"/>
		</g>
	</g>
	<g>
		<g>
			<ellipse fill="#CD1126" cx="1523.1" cy="887.07" rx="22.59" ry="22.59"/>
			<polygon fill="#FBD016" points="1523.1,873.9 1526.37,883.96 1536.95,883.96 1528.39,890.19 1531.67,900.25 1523.1,894.03 
				1514.54,900.25 1517.81,890.19 1509.25,883.96 1519.83,883.96 			"/>
		</g>
	</g>
	
		<text transform="matrix(0.9 0 0 1 284.1564 543.7824)" fill="#FFFFFF" font-family="'Avenir-Black'" font-size="129.6884px" letter-spacing="12.22">40.2%</text>
	
		<text transform="matrix(0.9 0 0 1 1432.4073 314.9016)" fill="#FFFFFF" font-family="'DFHeiStd-W9-B5pc-H'" font-size="63.7586px" letter-spacing="5.56">日本</text>
	
		<text transform="matrix(0.9 0 0 1 1346.5016 415.967)" fill="#FFFFFF" font-family="'Avenir-Black'" font-size="95.1931px" letter-spacing="8.89">16.5%</text>
	
		<text transform="matrix(0.9 0 0 1 1215.2032 736.5959)" fill="#FFFFFF" font-family="'DFHeiStd-W9-B5pc-H'" font-size="58.9323px" letter-spacing="5.56">東南亞</text>
	
		<text transform="matrix(0.9 0 0 1 1164.9713 830.2014)" fill="#FFFFFF" font-family="'Avenir-Black'" font-size="87.9871px" letter-spacing="7.78">14.0%</text>
	
		<text transform="matrix(0.9 0 0 1 744.6656 728.925)" fill="#FFFFFF" font-family="'DFHeiStd-W9-B5pc-H'" font-size="58.9323px" letter-spacing="5.56">港澳</text>
	
		<text transform="matrix(0.9 0 0 1 665.2623 822.5305)" fill="#FFFFFF" font-family="'Avenir-Black'" font-size="87.9871px" letter-spacing="7.78">13.9%</text>
</g>
</svg>
