<?xml version="1.0" encoding="utf-8"?>
<!-- Generator: Adobe Illustrator 20.1.0, SVG Export Plug-In . SVG Version: 6.00 Build 0)  -->
<svg version="1.1" id="圖層_1" xmlns="http://www.w3.org/2000/svg" xmlns:xlink="http://www.w3.org/1999/xlink" x="0px" y="0px"
	 viewBox="0 0 375 667" enable-background="new 0 0 375 667" xml:space="preserve">
<g id="svg10Earth">
	<g>
		<g id="XMLID_1025_">
			<g id="XMLID_1026_">
				<polygon points="363.54,431.31 332.59,465.26 332.02,464.74 362.97,430.79 				"/>
				<rect x="356.05" y="413.95" transform="matrix(0.6737 -0.739 0.739 0.6737 -182.5233 415.3084)" width="45.94" height="0.78"/>
			</g>
			<g id="XMLID_1027_">
				
					<rect x="327.97" y="450.09" transform="matrix(0.5351 -0.8448 0.8448 0.5351 -217.4087 505.9002)" width="45.94" height="0.78"/>
				
					<rect x="352.89" y="411.49" transform="matrix(0.5351 -0.8448 0.8448 0.5351 -173.2198 508.9898)" width="45.94" height="0.78"/>
			</g>
			<g id="XMLID_1028_">
				
					<rect x="331.51" y="451.96" transform="matrix(0.3803 -0.9249 0.9249 0.3803 -198.6897 608.1675)" width="45.94" height="0.78"/>
				<polygon points="381.41,388.92 363.94,431.4 363.22,431.11 380.69,388.62 				"/>
			</g>
			<g id="XMLID_1029_">
				
					<rect x="335.33" y="453.19" transform="matrix(0.2139 -0.9768 0.9768 0.2139 -161.4305 706.5439)" width="45.94" height="0.78"/>
				<polygon points="373.8,386.43 363.97,431.31 363.21,431.14 373.04,386.27 				"/>
			</g>
			<g id="XMLID_1030_">
				<polygon points="363.59,431.19 361.71,477.09 360.93,477.06 362.82,431.16 				"/>
				<rect x="341.57" y="407.85" transform="matrix(0.041 -0.9992 0.9992 0.041 -58.3167 755.7188)" width="45.94" height="0.78"/>
			</g>
			<g id="XMLID_1031_">
				<rect x="365.87" y="431" transform="matrix(0.9911 -0.1331 0.1331 0.9911 -57.1518 52.7749)" width="0.78" height="45.94"/>
				<polygon points="357.87,385.57 363.98,431.1 363.21,431.21 357.09,385.68 				"/>
			</g>
			<g id="XMLID_1032_">
				
					<rect x="369.79" y="430.16" transform="matrix(0.9529 -0.3031 0.3031 0.9529 -119.9432 133.5373)" width="0.78" height="45.94"/>
				<polygon points="350.03,387.23 363.96,431.01 363.21,431.24 349.29,387.46 				"/>
			</g>
			<g id="XMLID_1033_">
				<polygon points="363.57,431.09 384.89,471.78 384.2,472.15 362.88,431.45 				"/>
				<polygon points="342.6,390.22 363.92,430.91 363.23,431.27 341.91,390.58 				"/>
			</g>
			<g id="XMLID_1034_">
				<polygon points="363.55,431.06 391.61,467.44 391,467.91 362.94,431.54 				"/>
				<polygon points="335.8,394.45 363.86,430.82 363.24,431.3 335.19,394.93 				"/>
			</g>
			<g id="XMLID_1035_">
				<rect x="379.85" y="423.83" transform="matrix(0.6736 -0.7391 0.7391 0.6736 -206.1147 426.834)" width="0.78" height="45.94"/>
				<rect x="346.17" y="392.59" transform="matrix(0.6737 -0.739 0.739 0.6737 -194.021 391.6873)" width="0.78" height="45.94"/>
			</g>
			<g id="XMLID_1036_">
				<polygon points="363.5,431.02 402.31,455.6 401.9,456.26 363.09,431.67 				"/>
				
					<rect x="343.71" y="395.76" transform="matrix(0.5351 -0.8448 0.8448 0.5351 -193.7639 485.3431)" width="0.78" height="45.94"/>
			</g>
			<g id="XMLID_1037_">
				
					<rect x="384.18" y="417.13" transform="matrix(0.3802 -0.9249 0.9249 0.3802 -168.6999 628.4349)" width="0.78" height="45.94"/>
				<rect x="341.84" y="399.3" transform="matrix(0.3803 -0.9249 0.9249 0.3803 -178.4575 578.1917)" width="0.78" height="45.94"/>
			</g>
			<g id="XMLID_1038_">
				
					<rect x="385.41" y="413.32" transform="matrix(0.2139 -0.9768 0.9768 0.2139 -122.9248 719.8094)" width="0.78" height="45.94"/>
				
					<rect x="340.61" y="403.11" transform="matrix(0.2139 -0.9768 0.9768 0.2139 -148.1627 668.0284)" width="0.78" height="45.94"/>
			</g>
			<g id="XMLID_1039_">
				<rect x="385.95" y="409.35" transform="matrix(0.041 -0.9992 0.9992 0.041 -61.4658 800.5953)" width="0.78" height="45.94"/>
				<rect x="340.07" y="407.07" transform="matrix(0.041 -0.9992 0.9992 0.041 -103.1908 752.5724)" width="0.78" height="45.94"/>
			</g>
			<g id="XMLID_1040_">
				<polygon points="363.37,430.99 408.9,424.88 409.01,425.65 363.48,431.76 				"/>
				<rect x="317.64" y="433.65" transform="matrix(0.9911 -0.133 0.133 0.9911 -54.7207 49.176)" width="45.94" height="0.78"/>
			</g>
			<g id="XMLID_1041_">
				
					<rect x="362.38" y="424.01" transform="matrix(0.9529 -0.3032 0.3032 0.9529 -110.5274 136.7937)" width="45.94" height="0.78"/>
				<polygon points="319.45,444.55 363.22,430.62 363.46,431.37 319.68,445.29 				"/>
			</g>
			<g id="XMLID_1042_">
				<rect x="360.87" y="420.31" transform="matrix(0.8858 -0.464 0.464 0.8858 -151.3836 226.134)" width="45.94" height="0.78"/>
				
					<rect x="319.99" y="441.28" transform="matrix(0.8858 -0.4641 0.4641 0.8858 -165.8004 209.6042)" width="45.94" height="0.78"/>
			</g>
			<g id="XMLID_1043_">
				<polygon points="363.28,431.03 399.65,402.96 400.13,403.58 363.76,431.64 				"/>
				
					<rect x="322.12" y="444.67" transform="matrix(0.7918 -0.6108 0.6108 0.7918 -199.9849 303.4423)" width="45.94" height="0.78"/>
			</g>
		</g>
		
			<ellipse transform="matrix(0.9962 -0.0869 0.0869 0.9962 -36.2322 33.1378)" fill="#FFFFFF" stroke="#000000" stroke-width="0.75" stroke-miterlimit="10" cx="362.67" cy="432.92" rx="16.01" ry="16.01"/>
		<g id="XMLID_1044_">
			
				<path fill-rule="evenodd" clip-rule="evenodd" fill="#FFFFFF" stroke="#000000" stroke-width="0.75" stroke-miterlimit="22.9256" d="
				M330.76,391.5c-1.3,1.06-2.55,2.18-3.75,3.37l-2.5-0.63c0.1-0.61,0.02-1.21-0.21-1.71l-3-1.09c-0.65,0.31-1.22,0.92-1.51,1.71
				c-0.28,0.78-0.25,1.59,0.04,2.25l2.57,0.93l0.79,2.78c-3.11,3.87-5.71,8.26-7.64,13.09l-1.39,0.24
				c-0.03-0.31-0.11-0.61-0.24-0.88l-3-1.09c-0.65,0.31-1.22,0.91-1.5,1.71c-0.28,0.78-0.25,1.59,0.04,2.25l3.05,1.11
				c0.3-0.15,0.59-0.37,0.84-0.63l0.89,0.99c-1.63,5.16-2.39,10.41-2.37,15.57l-1.36,0.97c-0.02-0.04-0.04-0.08-0.05-0.12l-3-1.09
				c-0.66,0.31-1.22,0.92-1.51,1.71c-0.28,0.78-0.25,1.59,0.04,2.25l3.05,1.11c0.47-0.23,0.89-0.61,1.19-1.11l1.87,1.03
				c0.18,1.87,0.47,3.73,0.85,5.56l-2.23,1.25l-2.13-0.77c-0.66,0.31-1.22,0.91-1.51,1.71c-0.28,0.78-0.25,1.59,0.04,2.24l3.05,1.11
				c0.64-0.31,1.19-0.91,1.47-1.69c0.04-0.11,0.07-0.22,0.1-0.33l2.22,0.54c0.41,1.39,0.88,2.76,1.41,4.11l-1.37,2.61l-1-0.36
				c-0.66,0.31-1.22,0.92-1.51,1.71c-0.28,0.78-0.25,1.59,0.04,2.24l3.05,1.11c0.64-0.31,1.19-0.91,1.47-1.69
				c0.18-0.49,0.23-1,0.17-1.47l1.05,0.16c1,2,2.13,3.94,3.38,5.79l-1.26,3.1l-1.56-0.57c-0.66,0.31-1.22,0.92-1.51,1.71
				c-0.28,0.78-0.25,1.59,0.04,2.24l3.05,1.11c0.64-0.31,1.19-0.91,1.47-1.69c0.12-0.34,0.19-0.69,0.19-1.03l3.6,0.43l1.12,1.16
				c0.24,0.25,0.48,0.5,0.72,0.75l-1.33,2.66l-0.02-0.01c-0.66,0.31-1.22,0.91-1.51,1.71c-0.29,0.78-0.25,1.59,0.04,2.25l3.05,1.11
				c0.64-0.32,1.19-0.91,1.47-1.7c0.29-0.79,0.24-1.62-0.06-2.27l-0.94-0.34l2.75-0.19c4.51,3.81,9.75,6.91,15.63,9.04
				c6.14,2.23,12.43,3.21,18.59,3.08l1.4,1.35c-0.38,0.33-0.69,0.77-0.88,1.3c-0.28,0.78-0.25,1.59,0.04,2.24l3.05,1.11
				c0.64-0.31,1.19-0.91,1.47-1.69c0.29-0.8,0.25-1.62-0.06-2.28l-1.02-0.37l0.46-1.95c0.92-0.1,1.84-0.23,2.75-0.38l2.53,1.66
				c-0.03,0.07-0.06,0.15-0.09,0.22c-0.28,0.78-0.25,1.59,0.04,2.25l3.05,1.11c0.64-0.31,1.19-0.91,1.47-1.69
				c0.29-0.79,0.24-1.62-0.06-2.28l-1.26-0.46l0.74-2.29c1.47-0.44,2.92-0.95,4.35-1.52l2.39,1.3l-0.02,0.04
				c-0.28,0.78-0.25,1.59,0.04,2.24l3.05,1.11c0.64-0.32,1.19-0.91,1.47-1.69c0.29-0.8,0.25-1.62-0.06-2.28l-1.84-0.67l0.06-2.42
				c1.18-0.63,2.33-1.3,3.46-2.02l2.82,0.93c-0.17,0.68-0.11,1.36,0.14,1.93l3.05,1.11c0.64-0.32,1.19-0.91,1.47-1.69
				c0.29-0.8,0.25-1.62-0.06-2.28l-3-1.09l-0.04,0.02l-0.25-1.86c1.41-1.11,2.76-2.29,4.05-3.54l2.5,0.41
				c-0.06,0.53,0.02,1.05,0.22,1.49l3.05,1.11c0.64-0.32,1.19-0.91,1.47-1.69c0.29-0.79,0.25-1.62-0.06-2.28l-3-1.09l-0.04,0.02
				l-0.75-1.6c1.13-1.34,2.2-2.74,3.2-4.21l2.01,0.04c-0.03,0.47,0.05,0.93,0.23,1.33l3.05,1.11c0.64-0.32,1.19-0.91,1.47-1.69
				c0.29-0.8,0.25-1.62-0.06-2.28l-3-1.09c-0.19,0.09-0.38,0.21-0.55,0.35l-0.88-1.44c0.95-1.69,1.81-3.44,2.58-5.26l1.58-0.19
				c0.03,0.28,0.11,0.55,0.22,0.8l3.05,1.11c0.64-0.31,1.19-0.91,1.47-1.69c0.29-0.8,0.24-1.62-0.06-2.28l-3-1.09
				c-0.2,0.09-0.4,0.22-0.57,0.37l-1.1-1.33c0.56-1.74,1.02-3.49,1.39-5.25l1.96-0.74l3.03,1.1c0.64-0.31,1.19-0.91,1.47-1.69
				c0.29-0.8,0.24-1.62-0.06-2.28l-3-1.09c-0.56,0.27-1.06,0.75-1.37,1.38l-1.26-1.58c0.19-1.75,0.29-3.5,0.3-5.25l1.92-1.17
				l2.41,0.87c0.64-0.32,1.19-0.91,1.47-1.7c0.29-0.79,0.24-1.62-0.06-2.28l-3-1.09c-0.5,0.24-0.95,0.64-1.26,1.18l-1.72-1.03
				c-0.15-1.54-0.37-3.06-0.65-4.57l2.49-1.57l1.93,0.7c0.64-0.31,1.19-0.91,1.47-1.69c0.29-0.8,0.24-1.62-0.06-2.28l-3-1.09
				c-0.65,0.31-1.2,0.89-1.49,1.67l-2.68-1.13c-0.37-1.21-0.78-2.41-1.23-3.58l1.02-2.68l1.81,0.66c0.64-0.31,1.19-0.91,1.47-1.69
				c0.29-0.8,0.25-1.62-0.06-2.28l-3-1.09c-0.66,0.31-1.22,0.91-1.51,1.71c-0.05,0.14-0.09,0.27-0.12,0.41l-2.23-0.72
				c-0.71-1.33-1.48-2.62-2.3-3.88l0.92-2.17l1.62,0.59c0.64-0.32,1.19-0.91,1.47-1.69c0.29-0.8,0.25-1.62-0.06-2.28l-3-1.09
				c-0.66,0.31-1.22,0.91-1.51,1.71c-0.09,0.24-0.14,0.48-0.17,0.72l-2.72-0.54l-0.04,0.03c-0.96-1.16-1.97-2.27-3.03-3.35
				l0.42-2.73l1.04,0.38c0.64-0.32,1.19-0.91,1.47-1.69c0.29-0.79,0.25-1.62-0.06-2.28l-3-1.09c-0.66,0.31-1.22,0.92-1.51,1.71
				c-0.21,0.58-0.24,1.17-0.13,1.7l-1.84,0.7c-1.24-1.03-2.53-2.01-3.88-2.93l0.34-2.59c0.56-0.34,1.03-0.89,1.28-1.59
				c0.29-0.8,0.25-1.62-0.06-2.28l-3-1.09c-0.66,0.31-1.22,0.91-1.51,1.71c-0.28,0.78-0.25,1.59,0.04,2.24l0.01,0l-1.49,0.92
				c-1.73-0.94-3.53-1.79-5.4-2.55l-0.48-1.85l0.6,0.22c0.64-0.32,1.19-0.91,1.47-1.69c0.29-0.8,0.24-1.62-0.06-2.28l-3-1.09
				c-0.66,0.31-1.22,0.91-1.51,1.71c-0.28,0.78-0.25,1.59,0.04,2.24l0.4,0.15l-1.22,1.25c-1.65-0.52-3.31-0.96-4.98-1.31l-1.3-2.47
				c0.59-0.33,1.09-0.9,1.36-1.64c0.29-0.8,0.25-1.62-0.06-2.28l-3-1.09c-0.65,0.31-1.22,0.91-1.5,1.71
				c-0.28,0.78-0.25,1.59,0.04,2.25l1.03,0.37l-1.77,2.33c-1.71-0.18-3.41-0.27-5.11-0.27l-1.54-1.94c0.51-0.34,0.93-0.86,1.17-1.52
				c0.29-0.8,0.25-1.62-0.06-2.28l-3-1.09c-0.66,0.31-1.22,0.91-1.51,1.71c-0.28,0.78-0.25,1.59,0.04,2.24l1.3,0.47l-0.71,2.57
				c-1.9,0.16-3.78,0.42-5.64,0.78l-1.55-1.44c0.4-0.33,0.72-0.79,0.92-1.33c0.29-0.8,0.25-1.62-0.06-2.28l-3-1.09
				c-0.66,0.31-1.22,0.92-1.51,1.71c-0.28,0.78-0.25,1.59,0.04,2.24l1.75,0.63l-0.95,2.6c-2,0.58-3.97,1.28-5.89,2.09l-1.59-0.8
				c0.32-0.31,0.58-0.71,0.75-1.17c0.29-0.8,0.25-1.62-0.06-2.28l-3-1.09c-0.65,0.31-1.22,0.91-1.51,1.71
				c-0.28,0.78-0.25,1.59,0.04,2.24l1.83,0.66l-0.28,2.54c-1.46,0.77-2.88,1.6-4.26,2.5l-2.45-0.92c0.28-0.78,0.23-1.6-0.07-2.25
				l-3-1.09c-0.66,0.31-1.22,0.92-1.51,1.71c-0.28,0.78-0.25,1.59,0.04,2.25l2.79,1.01L330.76,391.5L330.76,391.5z M311.87,432.26
				c0.02,1.05,0.07,2.1,0.16,3.15l-1.52-0.83c0.18-0.49,0.23-1,0.17-1.46L311.87,432.26L311.87,432.26z M313.09,442.43
				c0.2,0.89,0.42,1.78,0.67,2.65l-1.92-0.47c0.02-0.46-0.07-0.9-0.25-1.29l-0.06-0.02L313.09,442.43L313.09,442.43z M315.7,450.73
				c0.31,0.76,0.64,1.51,0.99,2.25c0.08,0.18,0.17,0.36,0.25,0.53l-0.88-0.13c-0.02-0.04-0.03-0.08-0.05-0.12l-1.38-0.5
				L315.7,450.73L315.7,450.73z M365.17,482.55c0.96-0.04,1.91-0.1,2.86-0.19l-0.39,1.65l-1.36-0.5c-0.02,0.01-0.04,0.02-0.06,0.03
				L365.17,482.55L365.17,482.55z M372.42,481.74c1.59-0.29,3.16-0.66,4.7-1.1l-0.59,1.84l-1.12-0.41c-0.41,0.2-0.79,0.51-1.08,0.91
				L372.42,481.74L372.42,481.74z M318.97,401.46c0.3,0.66,0.35,1.49,0.06,2.28c-0.28,0.78-0.83,1.38-1.47,1.69l-3.05-1.11
				c-0.29-0.65-0.33-1.46-0.04-2.25c0.29-0.79,0.85-1.4,1.51-1.71L318.97,401.46L318.97,401.46z M311.17,421.86
				c0.3,0.66,0.35,1.48,0.06,2.28c-0.28,0.78-0.83,1.38-1.47,1.7l-3.05-1.11c-0.29-0.65-0.33-1.47-0.04-2.25
				c0.29-0.79,0.85-1.4,1.51-1.71L311.17,421.86L311.17,421.86z M404.59,411.93c-4.95-10.6-13.94-19.31-25.81-23.62
				c-11.86-4.31-24.35-3.4-34.95,1.55c-10.6,4.95-19.31,13.94-23.62,25.81c-4.31,11.86-3.4,24.35,1.55,34.95
				c4.95,10.6,13.94,19.31,25.81,23.62c11.87,4.31,24.35,3.4,34.95-1.55c10.6-4.95,19.31-13.95,23.62-25.81
				C410.45,435.01,409.54,422.52,404.59,411.93z"/>
			<polygon fill="#FFFFFF" stroke="#000000" stroke-width="0.75" stroke-miterlimit="22.9256" points="332.76,480.44 362.04,430.61 
				364.47,431.49 354.77,488.64 352.25,487.73 360.68,438.12 335.18,481.53 333.7,480.99 			"/>
		</g>
		
			<ellipse transform="matrix(0.3414 -0.9399 0.9399 0.3414 -166.2065 625.3843)" fill-rule="evenodd" clip-rule="evenodd" cx="363.17" cy="431.3" rx="3.19" ry="3.19"/>
	</g>
	<g>
		
			<polygon fill-rule="evenodd" clip-rule="evenodd" fill="#FFFFFF" stroke="#000000" stroke-width="0.75" stroke-miterlimit="10" points="
			82.06,445.22 107.11,438.5 94.44,401.51 92.75,401.97 91.97,390.94 90.04,391.46 89.3,380.97 87.32,381.51 86.56,370.75 
			84.49,371.31 83.69,360.06 81.78,360.57 81.05,350.2 79,350.75 78.21,339.61 76.22,340.14 75.46,329.32 73.5,329.85 72.75,319.24 
			70.82,319.76 70.71,318.16 67.26,319.08 67.06,316.21 65.78,316.55 65.66,314.95 64.11,315.37 63.76,314.05 62.54,307.6 
			62.16,307.7 61.61,301.46 59.52,302.02 58.87,299.6 59.02,298.21 57.13,298.72 53.58,285.47 51.87,285.93 55.42,299.17 
			53.52,299.68 54.35,300.81 55,303.23 52.91,303.79 55.56,309.47 55.17,309.57 57.34,315.77 57.7,317.09 56.15,317.5 56.85,318.95 
			55.57,319.29 56.83,321.88 53.39,322.8 54.09,324.25 52.15,324.77 56.81,334.32 54.86,334.85 59.61,344.6 57.61,345.13 
			62.5,355.17 60.45,355.72 65.01,365.07 63.1,365.58 68.03,375.72 65.96,376.28 70.68,385.96 68.7,386.5 73.3,395.94 71.37,396.46 
			76.21,406.4 74.52,406.86 		"/>
	</g>
	<g>
		<g>
			
				<rect x="190.04" y="286.38" transform="matrix(0.9988 -0.0497 0.0497 0.9988 -14.3345 10.2498)" fill="#FFFFFF" stroke="#000000" stroke-width="0.75" stroke-miterlimit="10" width="17.87" height="14.07"/>
			
				<rect x="176.82" y="310.78" transform="matrix(0.9988 -0.0495 0.0495 0.9988 -15.4316 10.2908)" fill="#FFFFFF" stroke="#000000" stroke-width="0.75" stroke-linejoin="round" stroke-miterlimit="10" width="46.62" height="12.09"/>
			<path fill="#FFFFFF" stroke="#000000" stroke-width="0.75" stroke-linejoin="round" stroke-miterlimit="10" d="M200.43,322.86
				l-19.31,0.96c0,0,7.15,4.83,7.46,11.04l12.41-0.62l12.42-0.61c-0.31-6.21,6.33-11.73,6.33-11.73L200.43,322.86z"/>
			<polygon fill="#FFFFFF" stroke="#000000" stroke-width="0.75" stroke-miterlimit="10" points="215.2,334.75 186.92,336.16 
				186.86,334.94 215.14,333.54 			"/>
			<polygon fill="#FFFFFF" stroke="#000000" stroke-width="0.75" stroke-miterlimit="10" points="215.26,335.96 186.98,337.36 
				186.92,336.16 215.2,334.75 			"/>
			<polygon fill="#FFFFFF" stroke="#000000" stroke-width="0.75" stroke-linejoin="round" stroke-miterlimit="10" points="
				223.11,309.64 215.7,303.08 182.93,304.71 176.55,311.95 			"/>
			
				<rect x="183" y="300.44" transform="matrix(0.9988 -0.0497 0.0497 0.9988 -14.7781 10.2888)" fill="#FFFFFF" stroke="#000000" stroke-width="0.75" stroke-miterlimit="10" width="32.81" height="3.45"/>
			<polygon id="XMLID_2576_" fill="#FFFFFF" stroke="#000000" stroke-width="0.75" stroke-miterlimit="10" points="183.9,298.37 
				183.88,297.99 214.43,296.48 214.45,296.85 183.9,298.37 			"/>
			<polygon id="XMLID_2579_" fill="#FFFFFF" stroke="#000000" stroke-width="0.75" stroke-miterlimit="10" points="183.85,301.21 
				183.69,298.19 184.08,298.17 184.23,301.19 183.85,301.21 			"/>
			<polygon id="XMLID_2581_" fill="#FFFFFF" stroke="#000000" stroke-width="0.75" stroke-miterlimit="10" points="187.24,301.03 
				187.1,298.02 187.47,298 187.62,301.02 187.24,301.03 			"/>
			<polygon id="XMLID_2583_" fill="#FFFFFF" stroke="#000000" stroke-width="0.75" stroke-miterlimit="10" points="190.64,300.87 
				190.49,297.85 190.87,297.83 191.02,300.86 190.64,300.87 			"/>
			<polygon id="XMLID_2585_" fill="#FFFFFF" stroke="#000000" stroke-width="0.75" stroke-miterlimit="10" points="194.03,300.69 
				193.88,297.68 194.26,297.67 194.42,300.68 194.03,300.69 			"/>
			<polygon id="XMLID_2587_" fill="#FFFFFF" stroke="#000000" stroke-width="0.75" stroke-miterlimit="10" points="197.43,300.53 
				197.28,297.52 197.65,297.49 197.81,300.52 197.43,300.53 			"/>
			<polygon id="XMLID_2589_" fill="#FFFFFF" stroke="#000000" stroke-width="0.75" stroke-miterlimit="10" points="200.82,300.36 
				200.68,297.34 201.06,297.33 201.21,300.35 200.82,300.36 			"/>
			<polygon id="XMLID_2591_" fill="#FFFFFF" stroke="#000000" stroke-width="0.75" stroke-miterlimit="10" points="204.22,300.19 
				204.07,297.18 204.45,297.16 204.59,300.18 204.22,300.19 			"/>
			<polygon id="XMLID_2593_" fill="#FFFFFF" stroke="#000000" stroke-width="0.75" stroke-miterlimit="10" points="207.62,300.02 
				207.46,297.01 207.85,296.99 208,300.01 207.62,300.02 			"/>
			<polygon id="XMLID_2595_" fill="#FFFFFF" stroke="#000000" stroke-width="0.75" stroke-miterlimit="10" points="211.01,299.86 
				210.85,296.84 211.24,296.82 211.39,299.84 211.01,299.86 			"/>
			<polygon id="XMLID_2597_" fill="#FFFFFF" stroke="#000000" stroke-width="0.75" stroke-miterlimit="10" points="214.4,299.69 
				214.25,296.67 214.64,296.65 214.78,299.68 214.4,299.69 			"/>
			<polygon id="XMLID_2600_" fill="#FFFFFF" stroke="#000000" stroke-width="0.75" stroke-miterlimit="10" points="201.35,279.07 
				201.22,276.4 201.6,276.38 201.73,279.06 201.35,279.07 			"/>
			<polygon id="XMLID_2602_" fill="#FFFFFF" stroke="#000000" stroke-width="0.75" stroke-miterlimit="10" points="194.79,279.4 
				194.67,276.73 195.04,276.71 195.17,279.38 194.79,279.4 			"/>
			<polygon id="XMLID_2604_" fill="#FFFFFF" stroke="#000000" stroke-width="0.75" stroke-miterlimit="10" points="194.93,278.24 
				194.91,277.86 201.46,277.53 201.48,277.92 194.93,278.24 			"/>
			<polygon id="XMLID_2606_" fill="#FFFFFF" stroke="#000000" stroke-width="0.75" stroke-miterlimit="10" points="198.18,281.47 
				197.83,274.32 198.21,274.3 198.56,281.46 198.18,281.47 			"/>
			<polygon fill="#FFFFFF" stroke="#000000" stroke-width="0.75" stroke-miterlimit="10" points="200.35,273.51 195.58,273.06 
				196.25,275.53 			"/>
			<path id="XMLID_2608_" d="M209.76,332.39c0.39-1.9,0.95-3.86,1.92-5.65l0,0c0.52-0.96,1.26-1.8,1.95-2.65l0,0
				c0.16-0.18,0.43-0.46,0.48-0.61l0,0l0.36,0.08c-0.1,0.28-0.4,0.54-0.53,0.71l0,0c-0.69,0.85-1.42,1.69-1.92,2.6l0,0
				c-0.94,1.75-1.5,3.69-1.89,5.58l0,0L209.76,332.39L209.76,332.39z"/>
			<path id="XMLID_2610_" d="M206.06,332.69c0.01-0.62,0.1-1.22,0.11-1.82l0,0c0.03-1.02,0.11-2.03,0.27-3.04l0,0
				c0.14-0.88,0.36-1.73,0.69-2.58l0,0c0.1-0.25,0.29-0.55,0.29-0.75l0,0l0.38,0.01c-0.02,0.3-0.23,0.61-0.32,0.83l0,0
				c-0.32,0.83-0.52,1.67-0.67,2.53l0,0c-0.16,0.99-0.23,2-0.27,3l0,0c-0.01,0.62-0.09,1.21-0.1,1.82l0,0L206.06,332.69
				L206.06,332.69z"/>
			<path id="XMLID_2612_" d="M202.15,332.45c0-0.01,0-0.02,0-0.02l0,0l0,0l0,0c-0.02-0.66-0.08-1.31-0.07-1.98l0,0
				c0.01-1.06,0.11-2.12,0.19-3.18l0,0c0.04-0.76,0.1-1.52,0.25-2.28l0,0c0.04-0.21,0.06-0.37,0.05-0.57l0,0l0.38-0.03
				c0.01,0.22-0.01,0.42-0.05,0.63l0,0c-0.14,0.74-0.2,1.5-0.24,2.25l0,0c-0.07,1.06-0.18,2.12-0.19,3.16l0,0
				c-0.01,0.65,0.05,1.3,0.07,1.97l0,0l0.01,0l0,0.02l-0.01,0.02L202.15,332.45L202.15,332.45z"/>
			<path id="XMLID_2614_" d="M197.29,332.66c-0.01-0.21,0.01-0.48,0.01-0.49l0,0c-0.05-0.94-0.09-1.87-0.13-2.8l0,0
				c-0.02-0.28-0.04-0.56-0.06-0.85l0,0c-0.01-0.14-0.01-0.28-0.02-0.42l0,0c-0.05-0.68-0.08-1.36-0.06-2.03l0,0
				c0-0.27,0.05-0.53,0.04-0.77l0,0c0-0.06-0.02-0.12-0.02-0.16l0,0c-0.04-0.1-0.08-0.21-0.09-0.33l0,0l0.37-0.05
				c0.01,0.09,0.05,0.18,0.09,0.3l0,0c0.01,0.07,0.02,0.14,0.03,0.22l0,0c0.02,0.28-0.03,0.54-0.03,0.79l0,0
				c-0.03,0.66,0.01,1.33,0.05,2.01l0,0c0.01,0.14,0.02,0.28,0.03,0.42l0,0c0.02,0.29,0.04,0.57,0.05,0.85l0,0
				c0.05,0.93,0.08,1.86,0.13,2.8l0,0c0.01,0.08-0.03,0.3-0.02,0.49l0,0c0,0.07,0.02,0.13,0.03,0.16l0,0l-0.07,0.01l-0.04,0.28
				C197.27,333.01,197.32,332.8,197.29,332.66L197.29,332.66z M196.97,324.8L196.97,324.8L196.97,324.8L196.97,324.8L196.97,324.8
				L196.97,324.8z"/>
			<path id="XMLID_2618_" d="M192.85,331.27c-0.2-0.97-0.23-1.97-0.33-2.93l0,0c-0.04-0.32-0.06-0.62-0.08-0.93l0,0
				c-0.03-0.51-0.05-1.02-0.02-1.54l0,0c0.01-0.34-0.02-0.7-0.04-1.06l0,0l0.38-0.03c0.02,0.35,0.05,0.71,0.05,1.08l0,0
				c-0.03,0.51-0.02,1.01,0.01,1.51l0,0c0.02,0.3,0.05,0.6,0.09,0.92l0,0c0.1,0.97,0.13,1.96,0.32,2.91l0,0
				c0.11,0.61,0.33,1.2,0.43,1.85l0,0l-0.38,0.05C193.19,332.49,192.97,331.9,192.85,331.27L192.85,331.27z"/>
			<path id="XMLID_2620_" d="M190.63,333.63c0.05-0.33,0.06-0.65,0.04-0.97l0,0c-0.03-0.51-0.15-1.01-0.33-1.5l0,0
				c-0.19-0.46-0.38-0.92-0.58-1.38l0,0c-0.18-0.5-0.38-0.99-0.6-1.47l0,0c-0.29-0.61-0.68-1.19-1.08-1.77l0,0
				c-0.16-0.24-0.33-0.47-0.54-0.68l0,0c-0.07-0.1-0.39-0.35-0.42-0.34l0,0l0.02-0.09l-0.19-0.02l0.04-0.23l0.19,0.02
				c0.33,0.06,0.54,0.35,0.65,0.45l0,0c0.22,0.23,0.41,0.47,0.57,0.72l0,0c0.4,0.58,0.8,1.17,1.11,1.81l0,0
				c0.23,0.48,0.42,0.99,0.6,1.48l0,0c0.2,0.46,0.39,0.92,0.58,1.38l0,0c0.18,0.52,0.3,1.04,0.34,1.57l0,0
				c0.02,0.33,0.01,0.68-0.04,1.03l0,0L190.63,333.63L190.63,333.63z"/>
			<path fill="#FFFFFF" stroke="#000000" stroke-width="0.75" stroke-linejoin="round" stroke-miterlimit="10" d="M182.87,317.68
				c0.04,0.81-0.58,1.5-1.39,1.54c-0.81,0.04-1.5-0.58-1.54-1.39c-0.04-0.81,0.58-1.5,1.4-1.54
				C182.15,316.25,182.83,316.87,182.87,317.68z"/>
			<path fill="#FFFFFF" stroke="#000000" stroke-width="0.75" stroke-linejoin="round" stroke-miterlimit="10" d="M192.24,317.22
				c0.04,0.82-0.58,1.5-1.39,1.54c-0.81,0.04-1.5-0.59-1.54-1.4c-0.04-0.81,0.58-1.5,1.39-1.54
				C191.5,315.78,192.19,316.41,192.24,317.22z"/>
			<path fill="#FFFFFF" stroke="#000000" stroke-width="0.75" stroke-linejoin="round" stroke-miterlimit="10" d="M201.6,316.75
				c0.04,0.81-0.59,1.5-1.4,1.54c-0.8,0.04-1.5-0.58-1.53-1.4c-0.04-0.81,0.59-1.5,1.39-1.53
				C200.87,315.32,201.56,315.95,201.6,316.75z"/>
			<path fill="#FFFFFF" stroke="#000000" stroke-width="0.75" stroke-linejoin="round" stroke-miterlimit="10" d="M210.96,316.29
				c0.04,0.81-0.59,1.5-1.39,1.54c-0.81,0.04-1.5-0.58-1.54-1.39c-0.05-0.8,0.58-1.5,1.39-1.54
				C210.23,314.85,210.92,315.48,210.96,316.29z"/>
			
				<ellipse transform="matrix(0.9987 -0.0503 0.0503 0.9987 -15.6012 11.3999)" fill="#FFFFFF" stroke="#000000" stroke-width="0.75" stroke-linejoin="round" stroke-miterlimit="10" cx="218.86" cy="315.89" rx="1.47" ry="1.47"/>
			<polygon fill="#FFFFFF" stroke="#000000" stroke-width="0.75" stroke-miterlimit="10" points="215.26,335.96 201.11,336.66 
				186.98,337.36 180.51,437.09 206.04,435.82 231.56,434.55 			"/>
			
				<rect x="201.45" y="359.79" transform="matrix(0.9988 -0.0499 0.0499 0.9988 -17.8359 10.6177)" fill="#FFFFFF" stroke="#000000" stroke-width="0.75" stroke-miterlimit="10" width="4.4" height="5.18"/>
			
				<rect x="200.48" y="339.45" transform="matrix(0.9988 -0.0485 0.0485 0.9988 -16.3358 10.2227)" fill="#FFFFFF" stroke="#000000" stroke-width="0.75" stroke-miterlimit="10" width="4.4" height="5.18"/>
			<polygon fill="#FFFFFF" stroke="#000000" stroke-width="0.75" stroke-miterlimit="10" points="190.36,394.51 187.67,394.63 
				187.41,389.46 190.11,389.33 			"/>
			<polygon fill="#FFFFFF" stroke="#000000" stroke-width="0.75" stroke-miterlimit="10" points="221.33,398.39 218.62,398.52 
				218.37,393.34 221.06,393.21 			"/>
			<polygon fill="#FFFFFF" stroke="#000000" stroke-width="0.75" stroke-miterlimit="10" points="215.42,356.82 212.72,356.96 
				212.46,351.78 215.16,351.65 			"/>
			<polygon fill="#FFFFFF" stroke="#000000" stroke-width="0.75" stroke-miterlimit="10" points="191.52,356.07 188.83,356.2 
				188.56,351.03 191.27,350.89 			"/>
			<polygon id="XMLID_2647_" points="186.47,378.55 186.45,378.17 219.52,376.53 219.53,376.9 186.47,378.55 			"/>
			<polygon id="XMLID_2649_" points="186.69,402.92 186.67,402.54 221.32,400.81 221.34,401.19 186.69,402.92 			"/>
			<polygon id="XMLID_2665_" points="186.55,380.26 186.53,379.89 198.16,379.32 198.18,379.7 186.55,380.26 			"/>
			<polygon id="XMLID_2667_" points="194.04,381.28 194.03,380.91 199.84,380.62 199.85,381 194.04,381.28 			"/>
			<polygon id="XMLID_2669_" points="198.73,390.82 198.71,390.44 218.92,389.43 218.94,389.81 198.73,390.82 			"/>
			<polygon id="XMLID_2671_" points="205.88,395.39 205.86,395.01 211.37,394.74 211.39,395.11 205.88,395.39 			"/>
			<polygon id="XMLID_2673_" points="201.26,392.68 201.24,392.3 207.32,392 207.34,392.38 201.26,392.68 			"/>
			<polygon id="XMLID_2675_" points="196.97,355.98 196.95,355.6 210.97,354.91 210.99,355.29 196.97,355.98 			"/>
			<polygon id="XMLID_2677_" points="195.47,357.7 195.45,357.32 199.49,357.12 199.51,357.5 195.47,357.7 			"/>
			<polygon id="XMLID_2679_" points="206.82,348.67 206.8,348.29 211.71,348.05 211.73,348.42 206.82,348.67 			"/>
			<polygon id="XMLID_2681_" points="208.82,343.29 208.8,342.92 213.49,342.68 213.5,343.05 208.82,343.29 			"/>
			<polygon id="XMLID_2683_" points="207.69,344.99 207.68,344.62 210.88,344.45 210.91,344.82 207.69,344.99 			"/>
			<polygon id="XMLID_2685_" points="190.83,342.02 190.8,341.65 196.69,341.35 196.7,341.73 190.83,342.02 			"/>
			<polygon id="XMLID_2687_" points="189.58,344.25 189.56,343.87 195.1,343.59 195.11,343.97 189.58,344.25 			"/>
			<polygon id="XMLID_2689_" points="194.13,345.66 194.11,345.28 198.89,345.05 198.91,345.43 194.13,345.66 			"/>
			<polygon id="XMLID_2691_" points="193.14,343.29 193.12,342.91 196.75,342.73 196.77,343.11 193.14,343.29 			"/>
			<path fill="#FFFFFF" stroke="#000000" stroke-width="0.75" stroke-miterlimit="10" d="M207.55,285.94c0,0-0.63-4.89-9.18-4.47
				c-8.53,0.43-8.68,5.36-8.68,5.36L207.55,285.94z"/>
			<polygon id="XMLID_2695_" points="196.98,376.64 196.97,376.26 203.07,375.96 203.08,376.34 196.98,376.64 			"/>
			<polygon id="XMLID_2697_" points="201.29,374.35 201.27,373.97 204.88,373.79 204.9,374.17 201.29,374.35 			"/>
		</g>
		<polygon id="svg10Light" opacity="0.09" fill="#B8834E" points="207.96,293.3 403.7,258.78 330.67,239.73 		"/>
	</g>
	<g>
		<g id="XMLID_1024_">
			
				<polygon fill-rule="evenodd" clip-rule="evenodd" fill="#FFFFFF" stroke="#000000" stroke-width="0.75" stroke-miterlimit="10" points="
				278.64,442.52 305.98,447.11 301.21,415.06 283.73,412.14 			"/>
			
				<polygon fill-rule="evenodd" clip-rule="evenodd" fill="#FFFFFF" stroke="#000000" stroke-width="0.75" stroke-miterlimit="10" points="
				278.64,442.52 291.67,444.71 296.78,414.32 283.73,412.14 			"/>
			
				<polygon fill-rule="evenodd" clip-rule="evenodd" fill="#FFFFFF" stroke="#000000" stroke-width="0.75" stroke-miterlimit="10" points="
				232.01,403.4 232,403.41 225.34,402.29 210.34,431.04 218.58,432.43 237.86,435.67 243,405.25 			"/>
			
				<rect x="244.87" y="398.31" transform="matrix(0.1657 -0.9862 0.9862 0.1657 -204.3388 609.6625)" fill-rule="evenodd" clip-rule="evenodd" fill="#FFFFFF" stroke="#000000" stroke-width="0.75" stroke-miterlimit="10" width="26.58" height="54.57"/>
			<path fill-rule="evenodd" clip-rule="evenodd" fill="#FFFFFF" stroke="#000000" stroke-width="0.75" stroke-miterlimit="10" d="
				M282.86,443.23l-9.29-1.56l1.2-7.14c1.17-6.97-3.26-13.53-9.89-14.65c-6.63-1.11-12.96,3.64-14.13,10.61l-1.2,7.14l-19.29-3.24
				l4.4-26.21l52.59,8.84L282.86,443.23z"/>
			<path fill-rule="evenodd" clip-rule="evenodd" fill="#FFFFFF" stroke="#000000" stroke-width="0.75" stroke-miterlimit="10" d="
				M264.43,400c0,0-18.95-3.18-25.12-2.83c-3.89,0.22-5.53,0.68-6.43,0.98l-0.39,2.29l-0.33,1.94l-5.28,31.44l12,2.02l2.8,0.47
				l4.49,0.75l1.85-10.99c1.17-6.97,7.5-11.72,14.13-10.61c6.63,1.11,11.06,7.67,9.89,14.65l-1.85,10.99l3.24,0.54l4.18,0.7
				l11.82,1.99l5.28-31.41l0.33-1.97l0.33-1.97c-0.65-0.49-1.63-1.53-6.28-3.45C283.39,403.18,264.43,400,264.43,400z"/>
		</g>
		<path fill-rule="evenodd" clip-rule="evenodd" fill="#FFFFFF" stroke="#000000" stroke-width="0.75" stroke-miterlimit="10" d="
			M269.38,349.53c-1.03,1.6-0.25,2.12-0.5,2.63c-0.25,0.51-4.6,3.93-9.14,5.55c-4.54,1.62-15.57,1.85-16.3,1.72
			c-5.89-0.99-8.18,6.6,0.08,10.62c1.78-1.57,7.32-2.22,14.81-1.45c3.33,0.35,6.96,0.85,10.61,1.47c3.65,0.62,7.28,1.34,10.62,2.13
			c7.78,1.82,13.77,4.11,15.26,6.17c6.1-0.64,11.37-8.4,3.28-9.76c-0.74-0.12-11.08-3.94-14.84-6.96c-3.76-3.01-6.76-7.66-6.82-8.23
			c-0.07-0.56,0.83-0.8,0.39-2.65c-0.12-0.5-0.66-0.94-1.39-1.28l0.57-3.38l1.12,0.19l0.23-1.38l-1.2-0.2
			c0.62-0.54,1.08-1.34,1.24-2.28c0.32-1.91-0.73-3.67-2.34-3.95c-1.62-0.27-3.18,1.06-3.5,2.96c-0.16,0.95,0.02,1.85,0.43,2.56
			l-1.2-0.2l-0.23,1.38l1.12,0.19l-0.57,3.38C270.31,348.86,269.65,349.1,269.38,349.53z"/>
		<path fill-rule="evenodd" clip-rule="evenodd" fill="#FFFFFF" stroke="#000000" stroke-width="0.75" stroke-miterlimit="10" d="
			M268.88,352.16c-0.25,0.51-4.6,3.93-9.14,5.55c-4.54,1.62-15.57,1.85-16.3,1.72c0,0,22.07,8.17,54.66,9.18
			c-0.74-0.12-11.08-3.94-14.84-6.96c-3.76-3.01-6.76-7.66-6.82-8.23C272.62,351.35,268.88,352.16,268.88,352.16L268.88,352.16z
			 M275.85,349.72c-0.13-0.08-0.27-0.15-0.41-0.21c0,0-2.07-0.69-4.33-0.73l0.57-3.38l-1.12-0.19l0.23-1.38l1.2,0.2
			c-0.41-0.71-0.59-1.62-0.43-2.56c0.32-1.91,1.89-3.24,3.5-2.96c1.61,0.27,2.66,2.04,2.34,3.95c-0.16,0.95-0.62,1.75-1.24,2.28
			l1.2,0.2l-0.23,1.38l-1.12-0.19l-0.57,3.38L275.85,349.72z"/>
		<path fill-rule="evenodd" clip-rule="evenodd" fill="#FFFFFF" stroke="#000000" stroke-width="0.75" stroke-miterlimit="10" d="
			M277.25,345.58l-6.57-1.1l0.11-0.65l1.2,0.2c-0.41-0.71-0.59-1.62-0.43-2.56c0.32-1.91,1.89-3.24,3.5-2.96
			c1.61,0.27,2.66,2.04,2.34,3.95c-0.16,0.95-0.62,1.75-1.24,2.28l1.2,0.2L277.25,345.58z"/>
		<path fill-rule="evenodd" clip-rule="evenodd" fill="#FFFFFF" stroke="#000000" stroke-width="0.75" stroke-miterlimit="10" d="
			M277.25,345.58l-3.57-0.6c0.07-0.19,0.19-0.39,0.39-0.6c2.72-2.96,0.99-5.88,0.99-5.88c1.61,0.27,2.66,2.04,2.34,3.95
			c-0.16,0.95-0.62,1.75-1.24,2.28l1.2,0.2L277.25,345.58z"/>
		<path fill-rule="evenodd" clip-rule="evenodd" fill="#FFFFFF" stroke="#000000" stroke-width="0.75" stroke-miterlimit="10" d="
			M271.68,345.4l4.33,0.73l-0.57,3.38l0.41,0.21c-0.13-0.08-0.27-0.15-0.41-0.21c0,0-2.07-0.69-4.33-0.73L271.68,345.4z"/>
		
			<rect x="273.61" y="343.76" transform="matrix(0.1657 -0.9862 0.9862 0.1657 -112.7392 558.655)" fill-rule="evenodd" clip-rule="evenodd" fill="#FFFFFF" stroke="#000000" stroke-width="0.75" stroke-miterlimit="10" width="0.4" height="4.39"/>
		<path fill-rule="evenodd" clip-rule="evenodd" fill="#FFFFFF" stroke="#000000" stroke-width="0.75" stroke-miterlimit="10" d="
			M269.38,349.53c-1.03,1.6-0.25,2.12-0.5,2.63c0,0,3.74-0.81,7.56,1.27c-0.07-0.56,0.83-0.8,0.39-2.65
			c-0.1-0.4-0.46-0.76-0.98-1.06l-0.41-0.21c0,0-2.07-0.69-4.33-0.73C270.31,348.86,269.65,349.1,269.38,349.53z"/>
		<path fill-rule="evenodd" clip-rule="evenodd" fill="#FFFFFF" stroke="#000000" stroke-width="0.75" stroke-miterlimit="10" d="
			M293.72,385.91l1.18-7.05c0.95-5.67-50.73-14.89-51.75-8.85l-1.21,7.19c0.94-0.24,2.24-0.49,4.09-0.69
			c5.53-0.58,22.22,2.22,22.27,2.23c0.05,0.01,16.74,2.81,21.77,5.17C291.76,384.72,292.91,385.37,293.72,385.91z"/>
		<path fill-rule="evenodd" clip-rule="evenodd" fill="#FFFFFF" stroke="#000000" stroke-width="0.75" stroke-miterlimit="10" d="
			M268.35,378.46c0,0-16.65-2.8-22.1-2.29c-5.45,0.51-5.92,1.47-6.7,1.5c-0.78,0.03-4.11,1.17-4.94,1.14
			c-0.82-0.03-5.32,0.04-5.38,2.27c-0.05,1.86,2.67,4.16,5.39,6.36c0.69,0.56,2.5,1.47,3.2,1.79l0.06-0.34
			c0.45-2.69,6.77-2.61,16.44-1.63c3.74,0.38,8.08,0.72,12.16,1.41c4.08,0.69,7.6,1.45,11.34,2.33c10,2.36,17.21,4.95,17.13,7.57
			c3.08-0.6,8.68-3.31,9.51-4.85c1.05-1.95-3.56-3.66-4.35-3.9c-0.79-0.24-3.57-2.41-4.29-2.69c-0.72-0.29-0.85-1.35-5.84-3.61
			C285,381.26,268.35,378.46,268.35,378.46z"/>
		<path fill-rule="evenodd" clip-rule="evenodd" fill="#FFFFFF" stroke="#000000" stroke-width="0.75" stroke-miterlimit="10" d="
			M268.35,378.46c0,0-16.65-2.8-22.1-2.29c-5.45,0.51-5.92,1.47-6.7,1.5c-0.76,0.03-3.93,1.11-4.86,1.14
			c1.7-0.01,33.67,0,64.82,10.71l0,0c-1.13-0.67-3.09-2.15-3.68-2.39c-0.72-0.29-0.85-1.35-5.84-3.61
			C285,381.26,268.35,378.46,268.35,378.46z"/>
		<path fill-rule="evenodd" clip-rule="evenodd" fill="#FFFFFF" stroke="#000000" stroke-width="0.75" stroke-miterlimit="10" d="
			M294.45,404.1l0.93-5.54c1.18-7.01-56.73-17.4-57.99-9.93l-0.87,5.16c1-0.27,2.3-0.53,4.02-0.76c6.22-0.82,24.91,2.32,24.96,2.33
			c0.05,0.01,18.75,3.15,24.35,5.96C292.16,402.46,293.55,403.39,294.45,404.1z"/>
		<path fill-rule="evenodd" clip-rule="evenodd" fill="#FFFFFF" stroke="#000000" stroke-width="0.75" stroke-miterlimit="10" d="
			M265.64,394.6c0,0-18.66-3.14-24.75-2.66c-6.09,0.48-6.61,1.49-7.48,1.52c-0.87,0.03-4.59,1.19-5.51,1.15
			c-0.92-0.04-6.91,0.17-6,2.34c0.91,2.18,2.88,3.14,5.57,4c0,0,34.62-5.46,73.33,12.13c2.27-0.04,4.07-0.46,5.42-1.97
			c1.57-1.76-4.02-3.91-4.9-4.18c-0.88-0.26-4.02-2.58-4.83-2.89c-0.82-0.31-0.97-1.44-6.57-3.88
			C284.3,397.74,265.64,394.6,265.64,394.6z"/>
		
			<rect x="273.26" y="341.74" transform="matrix(0.1657 -0.9862 0.9862 0.1657 -111.7396 558.0615)" fill-rule="evenodd" clip-rule="evenodd" fill="#FFFFFF" stroke="#000000" stroke-width="0.75" stroke-miterlimit="10" width="1.4" height="6.67"/>
	</g>
	<g>
		
			<rect x="58.76" y="421.71" transform="matrix(0.9892 -0.1466 0.1466 0.9892 -62.9991 15.4503)" fill-rule="evenodd" clip-rule="evenodd" fill="#FFFFFF" stroke="#000000" stroke-width="0.75" stroke-miterlimit="10" width="29.18" height="27.07"/>
		<path fill-rule="evenodd" clip-rule="evenodd" fill="#FFFFFF" stroke="#000000" stroke-width="0.75" stroke-miterlimit="10" d="
			M56.93,423.99l28.86-4.28l3.97,26.78l-2.27,0.34l-1.41-9.49c-0.86-5.78-6.11-9.79-11.73-8.96c-5.62,0.83-9.48,6.2-8.63,11.98
			l1.41,9.49l-6.24,0.92L56.93,423.99z"/>
		
			<rect x="57.99" y="400.38" transform="matrix(0.9892 -0.1466 0.1466 0.9892 -58.6829 14.4029)" fill-rule="evenodd" clip-rule="evenodd" fill="#FFFFFF" stroke="#000000" stroke-width="0.75" stroke-miterlimit="10" width="20.82" height="10.1"/>
		<path fill-rule="evenodd" clip-rule="evenodd" fill="#FFFFFF" stroke="#000000" stroke-width="0.75" stroke-miterlimit="10" d="
			M57.01,403.13l-8.14,1.21l-0.58-1.93l-1.85,0.27l0.04,1.97c-1.73,0.04-4.38-0.52-6.19-0.68l-1.13,1.8
			c0.11,0.12,0.24,0.24,0.38,0.37c4.12,3.86,6.15,5.37,10.98,6.61l-0.01-0.06l-0.05-0.36l0.36-0.05l7.38-1.09L57.01,403.13z"/>
		
			<polygon fill-rule="evenodd" clip-rule="evenodd" fill="#FFFFFF" stroke="#000000" stroke-width="0.75" stroke-miterlimit="10" points="
			78.32,395.6 96.01,392.98 97.04,399.94 90.81,400.87 90.42,400.92 90.42,400.92 90.03,400.98 85.87,401.6 85.48,401.66 
			85.09,401.71 85.09,401.71 84.71,401.77 77.99,402.77 77.23,397.66 78.21,397.51 78.6,397.46 78.55,397.09 		"/>
		
			<polygon fill-rule="evenodd" clip-rule="evenodd" fill="#FFFFFF" stroke="#000000" stroke-width="0.75" stroke-miterlimit="10" points="
			46.58,391.27 49.39,390.67 53.83,391.49 75.93,388.21 80.59,386.99 83.74,385.54 85,385.58 84.95,386.03 82.27,387.94 
			78.54,390.1 66.47,391.08 61.72,393.24 53.77,394.24 49.51,392.94 47.5,392.05 46.77,391.69 		"/>
		
			<rect x="78.44" y="395.46" transform="matrix(0.9892 -0.1466 0.1466 0.9892 -57.6513 16.005)" fill-rule="evenodd" clip-rule="evenodd" fill="#FFFFFF" stroke="#000000" stroke-width="0.75" stroke-miterlimit="10" width="2.7" height="7.54"/>
		<path fill-rule="evenodd" clip-rule="evenodd" fill="#FFFFFF" stroke="#000000" stroke-width="0.75" stroke-miterlimit="10" d="
			M66.14,390.78L51.29,393l-0.06,0.01l-0.06-0.03c-1.71-0.98-3.2-1.21-4.4-1.29c2.44,2.06,5.88,5.44,8.07,8.84l2.42-0.54l19.81-3.3
			l2.73,0.15c1.12-3.87,3.39-8.08,5.16-10.8c-1.13,0.42-2.49,1.08-3.84,2.51l-0.05,0.05L81,388.6L66.14,390.78z"/>
		
			<rect x="148.16" y="405.16" transform="matrix(0.9892 -0.1466 0.1466 0.9892 -59.8663 28.272)" fill-rule="evenodd" clip-rule="evenodd" fill="#FFFFFF" stroke="#000000" stroke-width="0.75" stroke-miterlimit="10" width="27.52" height="30.48"/>
		<path fill-rule="evenodd" clip-rule="evenodd" fill="#FFFFFF" stroke="#000000" stroke-width="0.75" stroke-miterlimit="10" d="
			M157.59,436.45l-7.05,1.04l-4.47-30.15l27.23-4.03l2.68,18.09c-1.6-4.73-6.29-7.79-11.27-7.06c-5.62,0.83-9.48,6.2-8.62,11.98
			L157.59,436.45z"/>
		<path fill-rule="evenodd" clip-rule="evenodd" fill="#FFFFFF" stroke="#000000" stroke-width="0.75" stroke-miterlimit="10" d="
			M167.96,386.7l8.04-1.19l-0.01-2.02l1.83-0.27l0.53,1.9c1.65-0.46,3.99-1.77,5.65-2.44l1.59,1.4c-0.08,0.15-0.16,0.3-0.25,0.47
			c-2.78,4.9-4.27,6.94-8.47,9.53l-0.01-0.06l-0.05-0.36l-0.36,0.05l-7.29,1.08L167.96,386.7z"/>
		
			<rect x="168.55" y="386.54" transform="matrix(0.9892 -0.1466 0.1466 0.9892 -55.424 29.0351)" fill-rule="evenodd" clip-rule="evenodd" fill="#FFFFFF" stroke="#000000" stroke-width="0.75" stroke-miterlimit="10" width="1.54" height="8.18"/>
		<path fill-rule="evenodd" clip-rule="evenodd" fill="#FFFFFF" stroke="#000000" stroke-width="0.75" stroke-miterlimit="10" d="
			M174.23,372.8l0.05-0.45l-1.2,0.17l-5.3,1.65l-26.31,4.29l-3.01-1.18l-2.58,0.77l0.18,0.42l6.21,3.98l27.57-4.83
			C169.83,377.6,172.14,375.37,174.23,372.8z"/>
		
			<polygon fill-rule="evenodd" clip-rule="evenodd" fill="#FFFFFF" stroke="#000000" stroke-width="0.75" stroke-miterlimit="10" points="
			127.48,388.32 145.33,385.67 145.55,387.16 145.6,387.53 146,387.47 146.99,387.32 147.74,392.43 140.96,393.44 140.57,393.49 
			140.57,393.49 140.18,393.55 139.78,393.61 135.58,394.23 135.19,394.29 135.19,394.29 134.8,394.35 128.51,395.28 		"/>
		
			<rect x="97.71" y="409.42" transform="matrix(0.9892 -0.1466 0.1466 0.9892 -61.1545 21.722)" fill-rule="evenodd" clip-rule="evenodd" fill="#FFFFFF" stroke="#000000" stroke-width="0.75" stroke-miterlimit="10" width="38.24" height="32.88"/>
		<path fill-rule="evenodd" clip-rule="evenodd" fill="#FFFFFF" stroke="#000000" stroke-width="0.75" stroke-miterlimit="10" d="
			M138.15,439.33l-0.86,0.13l-1.7-11.5c-0.97-6.57-8.13-10.97-15.98-9.8c-7.85,1.16-13.43,7.44-12.45,14.02l1.7,11.5l-7.41,1.1
			l-4.82-32.53l36.71-5.44L138.15,439.33z"/>
		
			<rect x="98.55" y="387.3" transform="matrix(0.9892 -0.1466 0.1466 0.9892 -56.3451 20.6596)" fill-rule="evenodd" clip-rule="evenodd" fill="#FFFFFF" stroke="#000000" stroke-width="0.75" stroke-miterlimit="10" width="26.96" height="10.8"/>
		
			<rect x="147.51" y="386.65" transform="matrix(0.9892 -0.1466 0.1466 0.9892 -55.7558 27.358)" fill-rule="evenodd" clip-rule="evenodd" fill="#FFFFFF" stroke="#000000" stroke-width="0.75" stroke-miterlimit="10" width="20.53" height="10.8"/>
		<path fill-rule="evenodd" clip-rule="evenodd" fill="#FFFFFF" stroke="#000000" stroke-width="0.75" stroke-miterlimit="10" d="
			M133.6,373.06l0.07-0.54l-6.13,1.37l-20.24,3.09l-21.79,2.68l0.22,0.5l7.89,2.76l34.62-4.82
			C128.24,378.1,130.39,377.16,133.6,373.06z"/>
		<path fill-rule="evenodd" clip-rule="evenodd" fill="#FFFFFF" stroke="#000000" stroke-width="0.75" stroke-miterlimit="10" d="
			M109.26,373.88l6.68-0.99l0.23-2.02l2.53-0.37l2,3.88c0,0,3.53-0.46,4.4-0.83c0.87-0.38,0.8-1.3,0.8-1.3
			c0.53-0.08,1.05-0.16,1.58-0.23c0.05,0.32,0.1,0.65,0.14,0.97c0.95-1.17,2.28-2.01,3.75-2.72c0.96,0.71,1.55,1.39,2.29,2.26
			c-1.49,0.52-3.34,1.33-5.19,3.18l-18.54,2.72L91.4,381.2c-2.31-1.24-4.31-1.47-5.89-1.54c0.45-1.04,0.82-1.87,1.53-2.83
			c1.61,0.26,3.13,0.67,4.38,1.52c-0.05-0.32-0.1-0.65-0.14-0.97c0.53-0.08,1.05-0.16,1.58-0.23c0,0,0.2,0.9,1.14,1.01
			c0.95,0.11,4.46-0.48,4.46-0.48l0.79-4.29l2.53-0.37l0.81,1.87L109.26,373.88z"/>
		<path fill-rule="evenodd" clip-rule="evenodd" fill="#FFFFFF" stroke="#000000" stroke-width="0.75" stroke-miterlimit="10" d="
			M109.26,373.88l6.68-0.99l0.23-2.02l2.53-0.37l2,3.88c0,0,0.31-0.04,0.77-0.11l-23.79,3.52c0.46-0.07,0.77-0.12,0.77-0.12
			l0.79-4.29l2.53-0.37l0.81,1.87L109.26,373.88L109.26,373.88z M96.09,378.01c0.42-0.05,0.83-0.11,1.2-0.16l-1.2,0.18L96.09,378.01
			z"/>
		<path fill-rule="evenodd" clip-rule="evenodd" fill="#FFFFFF" stroke="#000000" stroke-width="0.75" stroke-miterlimit="10" d="
			M110,378.91l-18.62,2.78l-0.08,0.01l-0.07-0.04c-2.13-1.16-4-1.43-5.5-1.51c2.86,2.29,5.77,4.93,7.77,7.61l34.87-5.17
			c0.09-0.08,4.23-8.08,5.23-9.54c-1.42,0.52-3.13,1.31-4.83,3.04l-0.06,0.06l-0.08,0.01L110,378.91z"/>
		<path fill-rule="evenodd" clip-rule="evenodd" fill="#FFFFFF" stroke="#000000" stroke-width="0.75" stroke-miterlimit="10" d="
			M65.52,386.58l5.33-0.79l0.18-1.69l2.02-0.3l1.62,3.25c0,0,2.82-0.36,3.51-0.67c0.7-0.31,0.63-1.08,0.63-1.08
			c0.42-0.06,0.84-0.12,1.26-0.19c0.04,0.27,0.08,0.54,0.12,0.81c0.75-0.97,1.81-1.66,2.98-2.25c0.77,0.6,1.25,1.17,1.84,1.9
			c-1.19,0.43-2.66,1.09-4.12,2.63l-14.79,2.17l-14.79,2.21c-1.85-1.05-3.45-1.25-4.71-1.32c0.35-0.87,0.65-1.56,1.21-2.35
			c1.29,0.22,2.5,0.58,3.5,1.29c-0.04-0.27-0.08-0.54-0.12-0.81c0.42-0.06,0.84-0.12,1.26-0.19c0,0,0.16,0.75,0.92,0.85
			c0.76,0.09,3.56-0.37,3.56-0.37l0.61-3.58l2.02-0.3l0.66,1.57L65.52,386.58z"/>
		
			<polygon fill-rule="evenodd" clip-rule="evenodd" fill="#FFFFFF" stroke="#000000" stroke-width="0.75" stroke-miterlimit="10" points="
			65.52,386.58 70.85,385.79 71.03,384.1 73.04,383.8 74.66,387.05 75.01,387 56.56,389.74 56.91,389.68 57.52,386.1 59.53,385.8 
			60.19,387.37 		"/>
		<path fill-rule="evenodd" clip-rule="evenodd" fill="#FFFFFF" stroke="#000000" stroke-width="0.75" stroke-miterlimit="10" d="
			M154.8,373.35l5.33-0.79l0.18-1.69l2.01-0.3l1.62,3.25c0,0,2.82-0.36,3.51-0.67c0.7-0.31,0.63-1.08,0.63-1.08
			c0.42-0.06,0.84-0.12,1.26-0.19c0.04,0.27,0.08,0.54,0.12,0.81c0.75-0.97,1.81-1.66,2.98-2.25c0.77,0.6,1.25,1.17,1.84,1.9
			c-1.19,0.43-2.66,1.09-4.12,2.63l-14.79,2.17l-14.79,2.21c-1.85-1.05-3.45-1.25-4.71-1.32c0.35-0.87,0.64-1.56,1.21-2.35
			c1.29,0.22,2.5,0.58,3.5,1.29c-0.04-0.27-0.08-0.54-0.12-0.81c0.42-0.06,0.84-0.12,1.26-0.19c0,0,0.16,0.75,0.92,0.85
			c0.76,0.09,3.56-0.37,3.56-0.37l0.61-3.58l2.02-0.3l0.66,1.57L154.8,373.35z"/>
		
			<polygon fill-rule="evenodd" clip-rule="evenodd" fill="#FFFFFF" stroke="#000000" stroke-width="0.75" stroke-miterlimit="10" points="
			154.8,373.35 160.13,372.56 160.31,370.87 162.32,370.57 163.94,373.82 146.19,376.45 146.8,372.87 148.81,372.58 149.47,374.14 
					"/>
		<path fill-rule="evenodd" clip-rule="evenodd" fill="#FFFFFF" stroke="#000000" stroke-width="0.75" stroke-miterlimit="10" d="
			M155.42,377.55l-14.85,2.22l-0.06,0.01l-0.06-0.03c-1.71-0.98-3.2-1.21-4.4-1.29c2.45,2.06,5.88,5.44,8.07,8.84l0.12-0.02
			l24.84-3.68c0.45-1.01,4.33-9.53,5.16-10.8c-1.13,0.42-2.49,1.08-3.84,2.51l-0.04,0.05l-0.07,0.01L155.42,377.55z"/>
		<path fill-rule="evenodd" clip-rule="evenodd" fill="#FFFFFF" stroke="#000000" stroke-width="0.75" stroke-miterlimit="10" d="
			M165.56,387.6l-16.92,2.51l0.9,6.06l16.92-2.51L165.56,387.6L165.56,387.6z M148.3,389.53l17.42-2.58l0.25-0.04l0.05,0.31
			l0.99,6.67l0.04,0.3l-0.25,0.04l-17.42,2.58l-0.25,0.04l-0.04-0.3l-0.99-6.67l-0.05-0.31L148.3,389.53L148.3,389.53z
			 M146.15,392.67l-0.82-5.55l-1.22,0.18l-0.3-2.03l24.96-3.7l0.3,2.03l-1.22,0.18l1.62,10.93l7.36-1.09l5.8,39.12l-8.45,1.25
			l-1.97-13.29c-0.86-5.78-6.11-9.79-11.73-8.96c-5.62,0.83-9.48,6.2-8.63,11.98l1.97,13.29l-7.41,1.1l-6.59-44.5L146.15,392.67z"/>
		<path fill-rule="evenodd" clip-rule="evenodd" fill="#FFFFFF" stroke="#000000" stroke-width="0.75" stroke-miterlimit="10" d="
			M165.56,387.6l-16.92,2.51l0.9,6.06l16.92-2.51L165.56,387.6L165.56,387.6z M148.3,389.53l17.42-2.58l0.25-0.04l0.05,0.31
			l0.99,6.67l0.04,0.3l-0.25,0.04l-17.42,2.58l-0.25,0.04l-0.04-0.3l-0.99-6.67l-0.05-0.31L148.3,389.53L148.3,389.53z
			 M146.15,392.67l-0.82-5.55l-1.22,0.18l-0.3-2.03l24.96-3.7l0.3,2.03l-1.22,0.18l1.62,10.93l7.36-1.09l5.8,39.12l-8.45,1.25
			l-1.97-13.29c-0.86-5.78-6.11-9.79-11.73-8.96c-5.62,0.83-9.48,6.2-8.63,11.98l1.97,13.29l-7.41,1.1l-6.59-44.5L146.15,392.67z"/>
		<path fill-rule="evenodd" clip-rule="evenodd" fill="#FFFFFF" stroke="#000000" stroke-width="0.75" stroke-miterlimit="10" d="
			M123.33,387.3l-23.64,3.5l1.02,6.89l23.64-3.5L123.33,387.3L123.33,387.3z M99.24,390.16l24.33-3.61l0.35-0.05l0.05,0.34
			l1.12,7.59l0.05,0.34l-0.35,0.05l-24.33,3.61l-0.35,0.05l-0.05-0.34l-1.12-7.59l-0.05-0.34L99.24,390.16L99.24,390.16z
			 M141,438.91l-7.41,1.1l-2.24-15.11c-0.97-6.58-8.13-10.96-15.98-9.8c-7.85,1.16-13.43,7.44-12.45,14.01l2.24,15.11l-7.41,1.1
			l-6.59-44.5l5.89-0.87l-1.84-12.43l-1.7,0.25l-0.34-2.31l34.87-5.17l0.34,2.31l-1.7,0.25l1.84,12.43l5.89-0.87L141,438.91z"/>
		
			<polygon fill-rule="evenodd" clip-rule="evenodd" fill="#FFFFFF" stroke="#000000" stroke-width="0.75" stroke-miterlimit="10" points="
			126.77,383.54 95.3,388.2 95.2,387.51 93.5,387.77 93.26,386.15 127.91,381.01 128.15,382.63 126.67,382.85 		"/>
		<path fill-rule="evenodd" clip-rule="evenodd" fill="#FFFFFF" stroke="#000000" stroke-width="0.75" stroke-miterlimit="10" d="
			M59.35,403.33l16.93-2.51l0.9,6.06l-16.93,2.51L59.35,403.33L59.35,403.33z M76.44,400.18l-17.42,2.58l-0.25,0.04l0.05,0.31
			l0.99,6.67l0.04,0.3l0.25-0.04l17.42-2.58l0.25-0.04l-0.04-0.3l-0.99-6.67l-0.05-0.31L76.44,400.18L76.44,400.18z M92.31,446.12
			l-6.59-44.5l-6.32,0.94l-0.82-5.55l1.22-0.18l-0.3-2.03l-24.96,3.7l0.3,2.03l1.22-0.18l1.62,10.93l-7.36,1.09l5.8,39.12l8.45-1.25
			l-1.97-13.29c-0.86-5.78,3.01-11.14,8.63-11.98c5.62-0.83,10.87,3.18,11.73,8.96l1.97,13.29L92.31,446.12z"/>
		
			<polygon fill-rule="evenodd" clip-rule="evenodd" fill="#FFFFFF" stroke="#000000" stroke-width="0.75" stroke-miterlimit="10" points="
			99.78,445.09 94.82,445.83 94.35,445.89 87.76,401.4 88.23,401.33 93.19,400.59 		"/>
		
			<polygon fill-rule="evenodd" clip-rule="evenodd" fill="#FFFFFF" stroke="#000000" stroke-width="0.75" stroke-miterlimit="10" points="
			97.74,445.31 92.78,446.05 92.31,446.12 85.72,401.62 86.19,401.55 91.15,400.82 		"/>
		
			<polygon fill-rule="evenodd" clip-rule="evenodd" fill="#FFFFFF" stroke="#000000" stroke-width="0.75" stroke-miterlimit="10" points="
			148.32,437.9 147.85,437.97 142.89,438.7 136.3,394.2 141.26,393.47 141.73,393.4 		"/>
		
			<polygon fill-rule="evenodd" clip-rule="evenodd" fill="#FFFFFF" stroke="#000000" stroke-width="0.75" stroke-miterlimit="10" points="
			146.42,438.1 145.96,438.17 141,438.91 134.4,394.41 139.36,393.67 139.83,393.6 		"/>
		
			<rect x="93.14" y="382.86" transform="matrix(0.9892 -0.1466 0.1466 0.9892 -55.0883 20.3808)" fill-rule="evenodd" clip-rule="evenodd" fill="#FFFFFF" stroke="#000000" stroke-width="0.75" stroke-miterlimit="10" width="35.25" height="2.34"/>
		
			<rect x="143.83" y="383.41" transform="matrix(0.9892 -0.1466 0.1466 0.9892 -54.6547 27.0805)" fill-rule="evenodd" clip-rule="evenodd" fill="#FFFFFF" stroke="#000000" stroke-width="0.75" stroke-miterlimit="10" width="25.24" height="2.05"/>
		
			<rect x="145.25" y="385.45" transform="matrix(0.9892 -0.1466 0.1466 0.9892 -54.8463 27.1233)" fill-rule="evenodd" clip-rule="evenodd" fill="#FFFFFF" stroke="#000000" stroke-width="0.75" stroke-miterlimit="10" width="22.77" height="0.62"/>
		
			<rect x="127.99" y="388.16" transform="matrix(0.9892 -0.1466 0.1466 0.9892 -56.0158 23.1041)" fill-rule="evenodd" clip-rule="evenodd" fill="#FFFFFF" stroke="#000000" stroke-width="0.75" stroke-miterlimit="10" width="1.58" height="7.04"/>
		
			<rect x="54.55" y="396.64" transform="matrix(0.9892 -0.1466 0.1466 0.9892 -57.5577 14.1378)" fill-rule="evenodd" clip-rule="evenodd" fill="#FFFFFF" stroke="#000000" stroke-width="0.75" stroke-miterlimit="10" width="25.23" height="2.05"/>
		
			<rect x="55.96" y="398.68" transform="matrix(0.9892 -0.1466 0.1466 0.9892 -57.7429 14.1794)" fill-rule="evenodd" clip-rule="evenodd" fill="#FFFFFF" stroke="#000000" stroke-width="0.75" stroke-miterlimit="10" width="22.77" height="0.53"/>
	</g>
	<g>
		
			<polygon fill-rule="evenodd" clip-rule="evenodd" fill="#FFFFFF" stroke="#000000" stroke-width="0.75" stroke-linejoin="bevel" stroke-miterlimit="10" points="
			-29.09,437.09 4.91,420.98 9.98,431.69 31.51,421.49 35.09,429.05 -39.94,464.58 -43.51,457.03 -24.02,447.8 		"/>
		
			<path fill-rule="evenodd" clip-rule="evenodd" fill="#FFFFFF" stroke="#000000" stroke-width="0.75" stroke-linejoin="bevel" stroke-miterlimit="10" d="
			M37.48,426.59l-5.9-12.45L20,419.63l-2.69-4l0.16-1.13l-1.21,0.57l-0.54-1.13l-2.93,1.39l-7.11,2.1l-0.43-0.91l-20.72,5.04
			L-32.5,434.4l0.43,0.91l-6.13,4.17l-2.93,1.39l0.54,1.13l-1.21,0.58l0.98,0.6l1.39,4.62l-11.58,5.49l5.9,12.45l-0.09,0.04
			l-1.14,0.54l15.04,31.76l1.14-0.54l1.15-0.54l80.5-38.13l1.05-0.5l1.24-0.59l-15.04-31.76L37.48,426.59L37.48,426.59z"/>
		
			<path fill-rule="evenodd" clip-rule="evenodd" fill="#FFFFFF" stroke="#000000" stroke-width="0.75" stroke-linejoin="bevel" stroke-miterlimit="10" d="
			M20,419.63l-2.69-4l0.16-1.13l-1.21,0.57l-0.54-1.13l-2.93,1.39l-7.11,2.1l-0.43-0.91l-20.72,5.04L-32.5,434.4l0.43,0.91
			l-6.13,4.17l-2.93,1.39l0.54,1.13l-1.21,0.58l0.98,0.6l1.39,4.62L20,419.63L20,419.63z"/>
		
			<polygon fill-rule="evenodd" clip-rule="evenodd" fill="#FFFFFF" stroke="#000000" stroke-width="0.75" stroke-linejoin="bevel" stroke-miterlimit="10" points="
			16.25,415.07 15.71,413.94 12.78,415.33 5.67,417.43 5.24,416.52 -15.48,421.56 -32.5,434.4 -32.07,435.31 -38.21,439.48 
			-41.13,440.86 -40.6,442 		"/>
		
			<polygon fill-rule="evenodd" clip-rule="evenodd" fill="#FFFFFF" stroke="#000000" stroke-width="0.75" stroke-linejoin="bevel" stroke-miterlimit="10" points="
			5.67,417.43 5.24,416.52 -15.48,421.56 -32.5,434.4 -32.07,435.31 		"/>
		
			<rect x="-30.34" y="454.27" transform="matrix(0.9037 -0.4281 0.4281 0.9037 -198.9385 48.081)" fill-rule="evenodd" clip-rule="evenodd" fill="#FFFFFF" stroke="#000000" stroke-width="0.75" stroke-linejoin="bevel" stroke-miterlimit="22.9256" width="75.58" height="24.28"/>
		
			<path fill-rule="evenodd" clip-rule="evenodd" fill="#FFFFFF" stroke="#000000" stroke-width="0.75" stroke-linejoin="bevel" stroke-miterlimit="10" d="
			M38.24,431.69l12.93,27.3l-9.51,4.5l-6.3-13.27c-1.81-3.82-7.39-2.11-11.2,0.34c-3.35,2.16-4.31,5.21-3.54,6.84l6.21,13.11
			l-8.21,3.89l-6.3-13.27c-1.81-3.82-7.39-2.1-11.2,0.34c-3.34,2.16-4.31,5.21-3.54,6.84l6.21,13.11l-8.22,3.89l-6.3-13.27
			c-1.81-3.82-7.39-2.11-11.19,0.34c-3.35,2.16-4.31,5.21-3.54,6.84l6.21,13.11l-9.5,4.5l-12.93-27.3l-0.57,0.27l-0.49-1.04
			l81.06-38.39l0.49,1.04L38.24,431.69z"/>
		
			<rect x="-43.55" y="454.1" transform="matrix(0.9037 -0.4281 0.4281 0.9037 -194.9836 44.1423)" fill-rule="evenodd" clip-rule="evenodd" fill="#FFFFFF" stroke="#000000" stroke-width="0.75" stroke-linejoin="bevel" stroke-miterlimit="10" width="88.43" height="3.08"/>
		
			<polygon fill-rule="evenodd" clip-rule="evenodd" fill="#FFFFFF" stroke="#000000" stroke-width="0.75" stroke-linejoin="bevel" stroke-miterlimit="10" points="
			38.12,431.44 38.56,432.35 -41.36,470.2 -41.79,469.3 -42.36,469.57 -42.73,468.78 38.32,430.39 38.69,431.17 		"/>
		
			<polygon fill-rule="evenodd" clip-rule="evenodd" fill="#FFFFFF" stroke="#000000" stroke-width="0.75" stroke-linejoin="bevel" stroke-miterlimit="10" points="
			-39.97,464.29 -27.1,458.2 -30.29,451.45 17.04,429.03 20.23,435.78 33.1,429.69 34.33,432.28 21.46,438.37 -25.87,460.79 
			-38.74,466.89 		"/>
		
			<rect x="-31.21" y="439.88" transform="matrix(0.9037 -0.4281 0.4281 0.9037 -190.3845 40.5476)" fill-rule="evenodd" clip-rule="evenodd" fill="#FFFFFF" stroke="#000000" stroke-width="0.75" stroke-linejoin="bevel" stroke-miterlimit="10" width="52.37" height="7.47"/>
	</g>
	<path id="svg10Ground01" fill="#FFFFFF" stroke="#000000" stroke-width="0.75" stroke-miterlimit="10" d="M-224.87,843.23
		c0-228.3,185.07-413.37,413.37-413.37s413.37,185.07,413.37,413.37"/>
	<g>
		<path id="XMLID_2714_" fill="#E74631" d="M204.45,533.49c0,0-2.76,8.04-1.87,10.78l2.31,0.67l1.06-10.23L204.45,533.49z"/>
		<polygon id="XMLID_2715_" fill="#E74631" points="209.19,534.54 207.71,534.84 208.07,545.33 211.28,545.18 		"/>
		<polygon id="XMLID_2716_" fill="#B8834E" points="237.31,496.49 218.58,496.03 218.31,498.61 238.12,499.62 		"/>
		<polygon id="XMLID_2717_" fill="#B8834E" points="237.85,502.19 216.02,501.2 215.65,504.76 237.6,504.6 		"/>
		<polygon id="XMLID_2718_" fill="#B8834E" points="237.93,507.07 215.41,507.12 215.15,509.57 238.02,509.14 		"/>
		<polygon id="XMLID_2719_" fill="#B8834E" points="214.11,512.87 237.61,513.05 238.38,516 213.76,515.08 		"/>
		<polygon id="XMLID_2720_" fill="#B8834E" points="213.52,517.66 238.07,518.92 238.72,522.39 213.23,520.19 		"/>
		<polygon id="XMLID_2721_" fill="#B8834E" points="212.33,524.11 238.36,525.85 239.21,528.87 212.54,526.84 		"/>
		<polygon id="XMLID_2722_" fill="#B8834E" points="211.68,530.4 238.86,532.28 239.71,535.83 210.95,532.84 		"/>
		<polygon id="XMLID_2723_" fill="#B8834E" points="210.17,536.29 239.41,538.74 240.17,542.02 210.32,538.92 		"/>
		<polygon id="XMLID_2724_" fill="#E74631" points="272.19,553.78 272.42,557.39 277.47,555.76 276.99,552.85 		"/>
		<polygon id="XMLID_2725_" fill="#E74631" points="254.78,558.59 258.69,559 258.21,564.76 254.33,564.35 		"/>
		<polygon id="XMLID_2726_" fill="#E74631" points="273.7,519.48 278.99,525.87 280.89,527.22 279.81,529.08 280.16,534.27 
			275.91,538.5 271.94,537.59 272.83,532.36 274.7,529.62 275.06,526.17 		"/>
		<g id="XMLID_2727_">
			
				<polyline id="XMLID_2728_" fill="#FFFFFF" stroke="#000000" stroke-width="0.75" stroke-linejoin="round" stroke-miterlimit="10" points="
				213.5,542.34 211.07,557.91 219.03,558.73 224.75,543.58 			"/>
			
				<polyline id="XMLID_2729_" fill="#FFFFFF" stroke="#000000" stroke-width="0.75" stroke-linejoin="round" stroke-miterlimit="10" points="
				226.83,543.57 228.4,559.71 235.47,560.44 238.2,542.76 			"/>
			
				<ellipse id="XMLID_2730_" transform="matrix(0.1033 -0.9947 0.9947 0.1033 -266.2405 638.3813)" cx="220.94" cy="466.85" rx="0.64" ry="0.4"/>
			
				<ellipse id="XMLID_2731_" transform="matrix(0.1033 -0.9947 0.9947 0.1033 -260.5663 646.1607)" cx="228.09" cy="467.59" rx="0.64" ry="0.4"/>
			<ellipse transform="matrix(0.6008 -0.7994 0.7994 0.6008 -294.5706 408.0493)" cx="261.3" cy="498.98" rx="0.64" ry="0.4"/>
			<ellipse transform="matrix(0.6008 -0.7994 0.7994 0.6008 -296.4818 414.2639)" cx="266.57" cy="504" rx="0.64" ry="0.4"/>
			<path id="XMLID_2732_" fill="#E74631" stroke="#000000" stroke-width="0.75" stroke-linejoin="round" stroke-miterlimit="10" d="
				M216.56,462.9c0,0,3.19-2.12,10.11-1.15c6.92,0.98,14.06,5.09,14.06,5.09s-1.28-5.88-2.74-7.41c0,0,2.27-6.28-4-8.28
				c-6.27-2-11.68-1.92-13.77-0.03s-1.75,3.88-3.07,6.14c-1.32,2.26-2.27,6.21-2.27,6.21L216.56,462.9z"/>
			<path id="XMLID_2733_" fill="none" stroke="#000000" stroke-width="0.75" stroke-linejoin="round" stroke-miterlimit="10" d="
				M218.25,462.18c0,0-1.03,4.62-0.81,7.83c0.22,3.2,2.03,4.36,4.16,6.52s1.15,4.96,1.15,4.96s-4.82,0.99-3.13,1.99
				c1.69,1,3.78,2.32,6.51,2.61c2.72,0.28,7.01,0.16,6.84-1.78c-0.17-1.94-3.54-1.61-3.54-1.61l0.3-2.85"/>
			<path id="XMLID_2734_" fill="none" stroke="#000000" stroke-width="0.75" stroke-linejoin="round" stroke-miterlimit="10" d="
				M233.44,464.65c0,0,1.49,8.72-0.72,11.39s-4.42,3.95-4.42,3.95s7.15-0.44,9.21-3.46c2.28-3.34,2.71-7.45,0.53-11.08"/>
			<path id="XMLID_2735_" fill="none" stroke="#000000" stroke-width="0.75" stroke-linejoin="round" stroke-miterlimit="10" d="
				M216.56,462.9c0,0-3.47,10.26-0.77,13.58c2.7,3.32,6.94,1.93,6.94,1.93"/>
			<path id="XMLID_2736_" fill="none" stroke="#000000" stroke-width="0.75" stroke-linejoin="round" stroke-miterlimit="10" d="
				M223.96,461.51c0,0,5.71,5.06,9.75,5.55"/>
			<path id="XMLID_2737_" fill="none" stroke="#000000" stroke-width="0.75" stroke-linejoin="round" stroke-miterlimit="10" d="
				M219.98,455.49c0,0,7.49-1.63,16.47,3.06"/>
			<path id="XMLID_2738_" fill="none" stroke="#000000" stroke-width="0.75" stroke-linejoin="round" stroke-miterlimit="10" d="
				M223.3,467.88c0,0-1.43,3.44,1.03,3.53"/>
			<path id="XMLID_2739_" fill="none" stroke="#000000" stroke-width="0.75" stroke-linejoin="round" stroke-miterlimit="10" d="
				M223.63,473.85c0,0,2.97,0.31,3.92-1.49"/>
			<path id="XMLID_2740_" fill="none" stroke="#000000" stroke-width="0.75" stroke-linejoin="round" stroke-miterlimit="10" d="
				M220.71,482.05c0,0-12.13,5.14-11.37,17.18l9.49,0.99l-0.35-5.8"/>
			<path id="XMLID_2741_" fill="none" stroke="#000000" stroke-width="0.75" stroke-linejoin="round" stroke-miterlimit="10" d="
				M232.05,483.07c0,0,9,2.81,11.77,14.84l-6.32,0.08"/>
			<path id="XMLID_2742_" fill="none" stroke="#000000" stroke-width="0.75" stroke-linejoin="round" stroke-miterlimit="10" d="
				M236.04,491.85c0,0,2.75,6.91,1.95,9.36s2.22,41.28,2.22,41.28s-22.45,3.37-30.5-1.74l6.45-40.82"/>
			<path id="XMLID_2743_" fill="none" stroke="#000000" stroke-width="0.75" stroke-linejoin="round" stroke-miterlimit="10" d="
				M211.15,499.41c0,0-0.91,10.72-1.47,14.14c-0.55,3.42-4.41,12-4.41,12"/>
			<path id="XMLID_2744_" fill="none" stroke="#000000" stroke-width="0.75" stroke-linejoin="round" stroke-miterlimit="10" d="
				M207.73,523.63c0,0,1.28,4.19,0.96,5.2c-0.32,1.02-1.67-0.8-2.31-4.22"/>
			
				<line id="XMLID_2745_" fill="none" stroke="#000000" stroke-width="0.75" stroke-linejoin="round" stroke-miterlimit="10" x1="208.54" y1="526.82" x2="211.32" y2="528.03"/>
			<path id="XMLID_2746_" fill="none" stroke="#000000" stroke-width="0.75" stroke-linejoin="round" stroke-miterlimit="10" d="
				M242.78,497.92c0,0-0.1,12.95,2.21,16.4s6.65,8.05,6.65,8.05s3.26,1.22,3.28,2.97c0.02,1.75-0.26,4.48-1.99,4.31
				c-1.72-0.18-3.99-1.09-4.48-3.31c-0.49-2.23-1.3-2.27-2.32-3.37c-1.01-1.1-3.5-4.05-5.32-6.17c-1.82-2.12-2.8-7.65-2.8-7.65"/>
			<path id="XMLID_2747_" fill="none" stroke="#000000" stroke-width="0.75" stroke-linejoin="round" stroke-miterlimit="10" d="
				M212.86,557.7l-0.48,4.6c0,0-7.62-0.83-7.29,2.37l10.79,1.12l1.22-7.26"/>
			<path id="XMLID_2748_" fill="none" stroke="#000000" stroke-width="0.75" stroke-linejoin="round" stroke-miterlimit="10" d="
				M230.23,559.9l-0.27,7.36l12.11,1.26c0,0,0.43-4.18-6.92-3.74c0,0-0.94,0.44-1.4-0.26s0.3-4.62,0.3-4.62"/>
			
				<polyline id="XMLID_2749_" fill="none" stroke="#000000" stroke-width="0.75" stroke-linejoin="round" stroke-miterlimit="10" points="
				216.28,563.45 211.24,563.61 210.63,562.2 			"/>
			
				<polyline id="XMLID_2750_" fill="none" stroke="#000000" stroke-width="0.75" stroke-linejoin="round" stroke-miterlimit="10" points="
				230.19,565.57 237.7,566.63 238.33,565.08 			"/>
			<path id="XMLID_2751_" fill="none" stroke="#000000" stroke-width="0.75" stroke-linejoin="round" stroke-miterlimit="10" d="
				M263.75,518.36c0,0,1.04,0.1,1.21-4.03s-6.28-4.22-7.42-8.72c-1.14-4.51,4.22-12.27,4.22-12.27s5.38,7.82,10.31,9.42l1.91,3.19
				c0,0,2.74,0.96,0.61,3.27c-2.13,2.3-4.17,0.67-4.17,0.67s-1.77,0.29-1.79,3.6c-0.03,3.31-0.05,3.64-0.05,3.64
				S267.16,519.3,263.75,518.36z"/>
			<path id="XMLID_2752_" fill="none" stroke="#000000" stroke-width="0.75" stroke-linejoin="round" stroke-miterlimit="10" d="
				M259.85,496.53c0,0-0.44-5.38,5.33-7.82c5.78-2.43,12.18,2.67,13.27,4.63l0.19-1.79c0,0,1.41,2.05,1.35,3.68
				c0,0,2.2,1.71,2.12,3.62l-1.45-0.62c0,0,1.09,4.12-0.75,7.18c-1.83,3.06-3.63,4.71-4.82,5.24c-1.19,0.53-2.46-0.26-2.46-0.26"/>
			<path fill="none" stroke="#000000" stroke-width="0.75" stroke-miterlimit="10" d="M262.91,501.15c0,0-1.8,0.89-1.7,1.92"/>
			<path id="XMLID_2753_" fill="none" stroke="#000000" stroke-width="0.75" stroke-linejoin="bevel" stroke-miterlimit="10" d="
				M259.66,505.45c0,0,2.23,1.51,3,0.33"/>
			<path id="XMLID_2754_" fill="none" stroke="#000000" stroke-width="0.75" stroke-linejoin="round" stroke-miterlimit="10" d="
				M267.31,501.51c0,0,2.37,0.74,2.38,2.65"/>
			<path id="XMLID_2755_" fill="none" stroke="#000000" stroke-width="0.75" stroke-linejoin="round" stroke-miterlimit="10" d="
				M261.61,496.02c0,0,2.37,0.74,2.38,2.65"/>
			<path id="XMLID_2756_" fill="none" stroke="#000000" stroke-width="0.75" stroke-linejoin="round" stroke-miterlimit="10" d="
				M253.19,523.15"/>
			<path id="XMLID_2757_" fill="none" stroke="#000000" stroke-width="0.75" stroke-linejoin="round" stroke-miterlimit="10" d="
				M264.96,514.32"/>
			<path id="XMLID_2758_" fill="none" stroke="#000000" stroke-width="0.75" stroke-linejoin="round" stroke-miterlimit="10" d="
				M268.16,524.47l-2.45,5.19l6.41,2.84c0,0,3.13-1.12,3-7.94c-0.13-6.82-6.52-9.92-6.52-9.92"/>
			<path id="XMLID_2759_" fill="none" stroke="#000000" stroke-width="0.75" stroke-linejoin="round" stroke-miterlimit="10" d="
				M267.54,530.46c0,0-2.49,6.85-4.27,5.29c-1.78-1.56-5.61-6.32-5.61-6.32s0.48-4.47-3.39-5.43"/>
			<path id="XMLID_2760_" fill="none" stroke="#000000" stroke-width="0.75" stroke-linejoin="round" stroke-miterlimit="10" d="
				M271.04,532.39c-1.28,3.03-4.55,8.17-8.16,7.12c-3.03-0.88-6.18-7.26-8.43-7.46c-2.25-0.2-3.42-2.88-3.42-2.88"/>
			<path id="XMLID_2761_" fill="none" stroke="#000000" stroke-width="0.75" stroke-linejoin="round" stroke-miterlimit="10" d="
				M256.75,525.67"/>
			<path id="XMLID_2762_" fill="none" stroke="#000000" stroke-width="0.75" stroke-linejoin="round" stroke-miterlimit="10" d="
				M258.77,521.65"/>
			
				<polyline id="XMLID_2763_" fill="none" stroke="#000000" stroke-width="0.75" stroke-linejoin="round" stroke-miterlimit="10" points="
				254.45,532.05 253.46,540.2 271.76,542.68 272.13,532.5 			"/>
			<path id="XMLID_2764_" fill="none" stroke="#000000" stroke-width="0.75" stroke-linejoin="round" stroke-miterlimit="10" d="
				M271.59,516.58"/>
			<path id="XMLID_2765_" fill="none" stroke="#000000" stroke-width="0.75" stroke-linejoin="round" stroke-miterlimit="10" d="
				M271.59,516.58c0,0-8.15,4.09-4.95,11.13l0.79-1.67c0,0-0.48-4.65,5.74-7.61L271.59,516.58z"/>
			<path id="XMLID_2766_" fill="none" stroke="#000000" stroke-width="0.75" stroke-linejoin="round" stroke-miterlimit="10" d="
				M255.13,524.1c0,0,2.58-7.65,7.58-9.45l1.43-0.41C264.14,514.24,257.98,522.42,255.13,524.1z"/>
			<path id="XMLID_2767_" fill="none" stroke="#000000" stroke-width="0.75" stroke-linejoin="round" stroke-miterlimit="10" d="
				M273.7,519.48c0,0,5.39,4.09,5.29,6.38s2.87,6.26,1.17,8.41c-1.7,2.15-5.14,6.96-8.22,3.32"/>
			<path id="XMLID_2768_" fill="none" stroke="#000000" stroke-width="0.75" stroke-linejoin="round" stroke-miterlimit="10" d="
				M279.17,527.15c0,0-4.09,0.64-4.07-0.98"/>
			<path id="XMLID_2769_" fill="none" stroke="#000000" stroke-width="0.75" stroke-linejoin="round" stroke-miterlimit="10" d="
				M277.1,529.87l-3.25,3.54c0,0,1.5,3.18,3.04,1.94S279.14,533.18,277.1,529.87z"/>
			<path id="XMLID_2770_" fill="none" stroke="#000000" stroke-width="0.75" stroke-linejoin="round" stroke-miterlimit="10" d="
				M278.99,525.87c0,0,1.71,0.47,1.9,1.35c0.19,0.88-1.08,1.86-1.08,1.86"/>
			
				<polyline id="XMLID_2771_" fill="none" stroke="#000000" stroke-width="0.75" stroke-linejoin="round" stroke-miterlimit="10" points="
				255.23,540.38 254.04,551.76 260.85,553.89 262.76,545.31 264.49,554.26 270.6,553.9 270.65,542.57 			"/>
			<path id="XMLID_2772_" fill="none" stroke="#000000" stroke-width="0.75" stroke-linejoin="round" stroke-miterlimit="10" d="
				M262.71,514.65c0,0-7.05-2.54-8.03-5.83l-6.24,2.69c0,0,4.38,8.65,7.73,9.05"/>
			<path id="XMLID_2773_" fill="none" stroke="#000000" stroke-width="0.75" stroke-linejoin="round" stroke-miterlimit="10" d="
				M257.03,518.54c0,0-0.46-0.17-1.9,5.55"/>
			<path id="XMLID_2774_" fill="none" stroke="#000000" stroke-width="0.75" stroke-linejoin="round" stroke-miterlimit="10" d="
				M254.68,508.81c0,0-3.08-6.02-2.99-12.04c0.09-6.02,0.94-5.9-0.86-8.25c-1.8-2.35-5.44-2.96-5.99-0.49
				c-0.55,2.48-0.77,4.17,0.53,4.79c1.3,0.62,1.3,0.62,1.3,0.62s0.92,16.78,3.56,17.29"/>
			<path id="XMLID_2775_" fill="none" stroke="#000000" stroke-width="0.75" stroke-linejoin="round" stroke-miterlimit="10" d="
				M255.3,552.15l-1,12.6c0,0-5.34-0.59-4.97,2.81l0.23,1.79l7.55,0.72l1.23,0.13l-0.17-4.88l0.98-11.61"/>
			
				<line id="XMLID_2776_" fill="none" stroke="#000000" stroke-width="0.75" stroke-linejoin="round" stroke-miterlimit="10" x1="254.33" y1="564.35" x2="258.21" y2="564.76"/>
			
				<line id="XMLID_2777_" fill="none" stroke="#000000" stroke-width="0.75" stroke-linejoin="round" stroke-miterlimit="10" x1="254.78" y1="558.59" x2="258.69" y2="559"/>
			<path id="XMLID_2778_" fill="none" stroke="#000000" stroke-width="0.75" stroke-linejoin="round" stroke-miterlimit="10" d="
				M266.1,554.17c0,0,0.53,3.78,2.86,3.86s9.38-2.58,9.38-2.58s-0.11,4.21,2.51,4.74c2.62,0.52,3.12-0.34,3.12-0.34l-2.04-7.73
				c0,0-6.52,0.91-8.67,1.44c-2.14,0.53-2.67,0.35-2.67,0.35"/>
			
				<line id="XMLID_2779_" fill="none" stroke="#000000" stroke-width="0.75" stroke-linejoin="round" stroke-miterlimit="10" x1="280.28" y1="552.34" x2="282.6" y2="560.33"/>
			
				<line id="XMLID_2780_" fill="none" stroke="#000000" stroke-width="0.75" stroke-linejoin="round" stroke-miterlimit="10" x1="276.99" y1="552.85" x2="277.47" y2="555.76"/>
			
				<line id="XMLID_2781_" fill="none" stroke="#000000" stroke-width="0.75" stroke-linejoin="round" stroke-miterlimit="10" x1="272.19" y1="553.78" x2="272.42" y2="557.39"/>
			<path id="XMLID_2782_" fill="none" stroke="#000000" stroke-width="0.75" stroke-linejoin="round" stroke-miterlimit="10" d="
				M213.23,544.97c0,0-7.78,1.21-11.67-1.21c-3.89-2.42-0.56-9.09,1.56-14.99c2.12-5.9,3.65-2.53,3.65-2.53s-3.74,4.57-2.32,7.26
				s5.95,0.62,5.95,0.62"/>
		</g>
	</g>
	<g id="svg10BubbleLeft">
		<path fill="#FFFFFF" stroke="#000000" stroke-linecap="round" stroke-linejoin="round" stroke-miterlimit="10" d="M147.44,426.47
			l0.32,9.27l-8.3-7.04c0,0-69.95,10.34-73.67-9.9c-3.39-18.43,18.2-23.43,54.37-24.74C156.34,392.74,156.79,413.8,147.44,426.47z"
			/>
		
			<text transform="matrix(0.9988 -0.049 0.049 0.9988 71.6813 420.1957)" font-family="'Lato', 'Heiti TC', '儷黑 Pro', LiHei Pro', '微軟正黑體', 'Microsoft JhengHei'" font-weight='bold' font-size="12px" letter-spacing="1">文案編輯</text>
		<polygon points="127.5,409.2 127.52,415.72 130.6,412.1 		"/>
		
			<text transform="matrix(0.9968 -0.0803 0.0803 0.9968 134.6139 416.8429)" font-family="'Lato', 'Heiti TC', '儷黑 Pro', LiHei Pro', '微軟正黑體', 'Microsoft JhengHei'" font-weight='bold' font-size="12px" letter-spacing="1">亮</text>
	</g>
	<g id="svg10BubbleRight">
		<path fill="#FFFFFF" stroke="#000000" stroke-linecap="round" stroke-linejoin="round" stroke-miterlimit="10" d="M271.87,440.28
			l-0.47,9.69l-8.04-8.06c0,0-73.8,4.72-75.93-16.7c-1.94-19.5,20.96-21.44,58.82-21.08C328.35,404.9,321.53,443.67,271.87,440.28z"
			/>
		<polygon points="252.5,429.25 252.46,419.21 257.14,424.8 		"/>
		
			<text transform="matrix(0.9996 0.0276 -0.0276 0.9996 195.0702 427.1614)" font-family="'Lato', 'Heiti TC', '儷黑 Pro', LiHei Pro', '微軟正黑體', 'Microsoft JhengHei'" font-weight='bold' font-size="12px" letter-spacing="1">圖文製作</text>
		
			<text transform="matrix(0.9996 0.0276 -0.0276 0.9996 260.8834 428.614)" font-family="'Lato'" font-weight='bold' font-size="12px" letter-spacing="1">Chieni</text>
	</g>
	<g>
		<path id="XMLID_2783_" fill="#FFFFFF" d="M97.85,556.18c0,0-8.61,3.66-3.69,7.14s9.52,0.74,10.48-3.66
			C105.59,555.27,97.85,556.18,97.85,556.18z"/>
		
			<rect x="155.8" y="543.82" transform="matrix(0.9951 0.0992 -0.0992 0.9951 55.2884 -13.2017)" fill="#FFFFFF" width="9.31" height="11.6"/>
		<polygon fill="#B8834E" points="122.65,516.46 123.41,528.63 122.03,547.2 113.69,554.49 114.13,561.51 101.86,564.09 
			101.37,560.34 93.77,556.78 99.66,547.08 96.7,523.87 99.88,522.02 102.43,523.84 104.54,523.57 100.64,517.85 		"/>
		<path fill="#E74631" d="M128.16,560.88l20.26-1.28c3.26-0.21,5.76-3.04,5.55-6.3l-1.57-24.83c-0.21-3.26-3.04-5.76-6.3-5.55
			l-20.26,1.28c-3.26,0.21-5.76,3.04-5.55,6.3l1.57,24.83C122.06,558.58,124.9,561.08,128.16,560.88z"/>
		<polygon fill="#E74631" points="161.21,480.07 156.41,480.1 153.68,478.2 147.54,478.73 143.36,480.92 139.48,480.39 
			141.77,501.54 144.74,502.82 158.77,501.93 160.88,498.41 		"/>
		<g id="XMLID_2784_">
			<path fill="none" stroke="#000000" stroke-width="0.75" stroke-linejoin="round" stroke-miterlimit="10" d="M159.08,459.77
				c0,0,1.09,9.55-2.54,12.8c-3.63,3.25-2.87,5.62-2.87,5.62l-4.22,0.27c0,0-0.62-3.39-2.3-4.49c-1.68-1.1-3.74-1.78-4.36-5.17
				c-0.62-3.39-0.59-7.97-0.59-7.97L159.08,459.77z"/>
			<path fill="none" stroke="#000000" stroke-width="0.75" stroke-linejoin="round" stroke-miterlimit="10" d="M153.85,476.27
				c1.48,8.11,11.12,2.54,13.2-1.29c2.08-3.83,0.68-11.65-4.13-21.07c-4.81-9.42-12.05-7.31-12.05-7.31s-10.83-1.61-13.48,10.95
				c-2.65,12.55-5.75,18.29-1.53,21.21c4.23,2.92,11.93,3.26,12.71-2.97"/>
			<ellipse transform="matrix(0.998 -0.0629 0.0629 0.998 -28.9297 10.7461)" cx="156.09" cy="464.54" rx="0.4" ry="0.64"/>
			<ellipse transform="matrix(0.998 -0.0629 0.0629 0.998 -28.9881 10.1295)" cx="146.28" cy="465.16" rx="0.4" ry="0.64"/>
			<ellipse transform="matrix(0.998 -0.0629 0.0629 0.998 -28.4371 8.1171)" cx="114.61" cy="455.4" rx="0.4" ry="0.64"/>
			<ellipse transform="matrix(0.998 -0.0629 0.0629 0.998 -28.4772 7.6936)" cx="107.87" cy="455.83" rx="0.4" ry="0.64"/>
			<path fill="none" stroke="#000000" stroke-width="0.75" stroke-linejoin="round" stroke-miterlimit="10" d="M151.31,465.48
				c0,0,1.37,2.5,0.78,3.34s-0.93,0.19-0.93,0.19"/>
			<path fill="none" stroke="#000000" stroke-width="0.75" stroke-linejoin="round" stroke-miterlimit="10" d="M147.53,462.91
				c0,0-1.52-1.15-2.68,0.17"/>
			<path fill="none" stroke="#000000" stroke-width="0.75" stroke-linejoin="round" stroke-miterlimit="10" d="M154.39,462.47
				c0,0,1.37-1.26,2.88-0.18"/>
			<path fill="none" stroke="#000000" stroke-width="0.75" stroke-linejoin="round" stroke-miterlimit="10" d="M153.18,470.55
				c0,0-1.5,1.34-3.23,0.2"/>
			<path fill="none" stroke="#000000" stroke-width="0.75" stroke-linejoin="round" stroke-miterlimit="10" d="M153.04,452.98
				c0,0,2.08,2.46,2.37,7.02"/>
			<path fill="none" stroke="#000000" stroke-width="0.75" stroke-linejoin="round" stroke-miterlimit="10" d="M155.95,455.83
				c0,0,0.92,0.98,1.18,4.06"/>
			<path fill="none" stroke="#000000" stroke-width="0.75" stroke-linejoin="round" stroke-miterlimit="10" d="M154.47,478.29
				l-6.24,0.39c0,0-2.47,2.66-0.41,3.81c2.06,1.15,3.86-2.59,3.86-2.59s0.94,2.39,3.02,2.16
				C156.79,481.83,154.47,478.29,154.47,478.29z"/>
			<path fill="none" stroke="#000000" stroke-width="0.75" stroke-linejoin="round" stroke-miterlimit="10" d="M161.33,491.34
				c0.33,0.4,1.59,2.15,2.16,2.61c2.76,2.23,7.88,6.58,10.44,6.42c3.09-0.19,6.96-2.33,9.04-6.59c2.25-4.6,3.23-10.4,5.6-16.26
				c2.37-5.86,0.81-8.96-1.94-9.08c-2.75-0.12-2.64,8.91-3.54,5.09c-0.9-3.83-3.38-2.53-2.52,0.16c0.85,2.69,1.49,5.57,1.49,5.57
				s-0.48,6.93-2.98,10.74c-2.5,3.81-7.25,7.56-11.92-1.28c-4.67-8.84-6.06-8.82-6.06-8.82s0.55,9.35-0.43,17.66
				c-0.98,8.31-6.65,3.31-6.44,2.33c0,0-0.43,1.85-2.31,2.07c-1.88,0.23-3.01,0.83-4.72-1.63c0,0-1.32,2.12-3.57,2.05
				c-2.25-0.07-2.86-4.53-3.03-7.31c-0.17-2.77-1.15-14.4-1.15-14.4s-7.93,14.76-8.43,20.47c0,0,1.02,11.07,0.87,13.87
				c-0.15,2.79-1.08,4.99,1.8,4.81c2.88-0.18,5.81,0.38,4.85-2.98s-2.27-3.71-2.27-3.71s-1.19-10.42-0.67-12.38
				c0.52-1.96,4.67-10.79,4.67-10.79"/>
			<path fill="none" stroke="#000000" stroke-width="0.75" stroke-linejoin="round" stroke-miterlimit="10" d="M145.87,479.3"/>
			<path fill="none" stroke="#000000" stroke-width="0.75" stroke-linejoin="round" stroke-miterlimit="10" d="M147.57,479.19"/>
			
				<ellipse transform="matrix(0.998 -0.0629 0.0629 0.998 -30.1729 10.5215)" fill="none" stroke="#000000" stroke-width="0.75" stroke-linejoin="round" stroke-miterlimit="10" cx="151.91" cy="484.16" rx="0.59" ry="0.59"/>
			
				<ellipse transform="matrix(0.998 -0.0629 0.0629 0.998 -30.3595 10.5392)" fill="none" stroke="#000000" stroke-width="0.75" stroke-linejoin="round" stroke-miterlimit="10" cx="152.09" cy="487.13" rx="0.59" ry="0.59"/>
			
				<ellipse transform="matrix(0.998 -0.0629 0.0629 0.998 -29.8561 7.9999)" fill="none" stroke="#000000" stroke-width="0.75" stroke-linejoin="round" stroke-miterlimit="10" cx="112.04" cy="477.87" rx="0.59" ry="0.59"/>
			
				<ellipse transform="matrix(0.998 -0.0629 0.0629 0.998 -30.0426 8.0176)" fill="none" stroke="#000000" stroke-width="0.75" stroke-linejoin="round" stroke-miterlimit="10" cx="112.23" cy="480.84" rx="0.59" ry="0.59"/>
			<polyline fill="none" stroke="#000000" stroke-width="0.75" stroke-linejoin="round" stroke-miterlimit="10" points="
				158.77,501.93 158.87,503.46 143.33,504.43 143.63,502.38 			"/>
			<path fill="none" stroke="#000000" stroke-width="0.75" stroke-linejoin="round" stroke-miterlimit="10" d="M128.25,562.43
				l20.27-1.28c2.72-0.17,4.81-2.54,4.64-5.26l-1.68-26.58c-0.17-2.72-2.54-4.81-5.26-4.64l-20.27,1.28
				c-2.72,0.17-4.81,2.54-4.64,5.26l1.68,26.58C123.15,560.51,125.52,562.6,128.25,562.43z"/>
			<polyline fill="none" stroke="#000000" stroke-width="0.75" stroke-linejoin="round" stroke-miterlimit="10" points="
				138.08,515.49 142.02,515.24 142.16,517.47 138.71,517.69 			"/>
			<polyline fill="none" stroke="#000000" stroke-width="0.75" stroke-linejoin="round" stroke-miterlimit="10" points="
				131.83,515.88 128.76,516.08 128.9,518.31 131.63,518.13 			"/>
			<polyline fill="none" stroke="#000000" stroke-width="0.75" stroke-linejoin="round" stroke-miterlimit="10" points="
				140.19,517.59 140.66,525.01 142.63,524.89 142.16,517.47 			"/>
			<polyline fill="none" stroke="#000000" stroke-width="0.75" stroke-linejoin="round" stroke-miterlimit="10" points="
				128.9,518.31 129.37,525.72 131.34,525.6 130.87,518.18 			"/>
			
				<ellipse transform="matrix(0.998 -0.0629 0.0629 0.998 -35.2311 10.4492)" fill="none" stroke="#000000" stroke-width="0.75" stroke-linejoin="round" stroke-miterlimit="10" cx="148.23" cy="564.4" rx="3.06" ry="3.06"/>
			
				<ellipse transform="matrix(0.998 -0.0629 0.0629 0.998 -35.3467 9.2296)" fill="none" stroke="#000000" stroke-width="0.75" stroke-linejoin="round" stroke-miterlimit="10" cx="128.82" cy="565.63" rx="3.06" ry="3.06"/>
			<path fill="none" stroke="#000000" stroke-width="0.75" stroke-linejoin="round" stroke-miterlimit="10" d="M158.87,503.46
				c0,0,3.95,7.72,5.84,20.04c1.9,12.32,0.48,32.82,0.48,32.82l-9.13,0.58c0,0-1.09-33.46-4.04-38.16l-3.16,8.1"/>
			<path fill="none" stroke="#000000" stroke-width="0.75" stroke-linejoin="round" stroke-miterlimit="10" d="M143.33,504.43
				c0,0-3.53,4.75-4.03,10.98"/>
			<path fill="none" stroke="#000000" stroke-width="0.75" stroke-linejoin="round" stroke-miterlimit="10" d="M139.03,517.67
				c0,0-1.06,4.24-1.18,7.13"/>
			<path fill="none" stroke="#000000" stroke-width="0.75" stroke-linejoin="round" stroke-miterlimit="10" d="M161.49,556.55
				l-0.59,5.92c0,0,10.18-1.21,10.23,3.5l-14.44,0.91l0.97-10.09"/>
			
				<line fill="none" stroke="#000000" stroke-width="0.75" stroke-linejoin="round" stroke-miterlimit="10" x1="161.29" y1="558.54" x2="157.79" y2="558.76"/>
			
				<line fill="none" stroke="#000000" stroke-width="0.75" stroke-linejoin="round" stroke-miterlimit="10" x1="160.9" y1="562.46" x2="157.04" y2="563.3"/>
			<path fill="none" stroke="#000000" stroke-width="0.75" stroke-linejoin="round" stroke-miterlimit="10" d="M139.36,561.89
				l-0.59,6.17l-16.99,1.07c0,0-0.13-5.18,4.59-5.36"/>
			<path fill="none" stroke="#000000" stroke-width="0.75" stroke-linejoin="round" stroke-miterlimit="10" d="M108.31,471.17
				c0,0,0.21,0.84-0.12-1.83c-0.32-2.66-5.87-5.98-5.87-5.98s-1.99-0.15-2.46-2.76s2.11-2.83,2.11-2.83l0.43-5.22l0.97,1.77
				l0.92-5.71l7.42-0.47l-1.76-1.72l6.92,3.16c0,0,1.7,8.04,0.79,12.53s-4.81,4.13-4.6,7.4c0.21,3.27,0.12,1.97,0.12,1.97"/>
			<path fill="none" stroke="#000000" stroke-width="0.75" stroke-linejoin="round" stroke-miterlimit="10" d="M117.98,458.75
				c0,0,0.98-4.38,0.88-6.03c0,0,1.17,2.38,1.07,2.81c-0.1,0.43,3.76-10.87-6.84-15.79l2.15-0.14c0,0-4.9-3.12-9.88,0.62
				c0,0-5.73-0.15-8.46,2.95l1.83-0.12c0,0-4.24,4.28-4.16,7.42l1.22-0.75c0,0-0.34,4.63,0.71,7.28l1.23-0.67l2.13,4.25"/>
			
				<ellipse transform="matrix(0.998 -0.0629 0.0629 0.998 -28.4371 8.1171)" fill="none" stroke="#000000" stroke-width="0.75" stroke-miterlimit="10" cx="114.61" cy="455.4" rx="2.83" ry="2.83"/>
			
				<ellipse transform="matrix(0.998 -0.0629 0.0629 0.998 -28.4796 7.6683)" fill="none" stroke="#000000" stroke-width="0.75" stroke-miterlimit="10" cx="107.47" cy="455.85" rx="2.83" ry="2.83"/>
			
				<line fill="none" stroke="#000000" stroke-width="0.75" stroke-miterlimit="10" x1="111.79" y1="455.58" x2="110.29" y2="455.68"/>
			
				<line fill="none" stroke="#000000" stroke-width="0.75" stroke-miterlimit="10" x1="104.64" y1="456.03" x2="101.97" y2="457.76"/>
			<path fill="none" stroke="#000000" stroke-width="0.75" stroke-miterlimit="10" d="M111.09,456.41c0,0,2.15,2.66,1.71,3.37
				c-0.44,0.71-1.44,0.93-1.44,0.93"/>
			<path fill="none" stroke="#000000" stroke-width="0.75" stroke-miterlimit="10" d="M109.35,451.19c0,0-2.23-1.23-4.32,0.27"/>
			<path fill="none" stroke="#000000" stroke-width="0.75" stroke-miterlimit="10" d="M112.83,450.97c0,0,1.67-1.17,3.76-0.24"/>
			<path fill="none" stroke="#000000" stroke-width="0.75" stroke-miterlimit="10" d="M114.25,462.6c0,0-2.46,1.48-5.14,0.32"/>
			<polygon fill="none" stroke="#000000" stroke-width="0.75" stroke-linejoin="round" stroke-miterlimit="10" points="
				110.65,471.87 106.27,471.17 104.4,474.18 110.85,475.1 			"/>
			<polygon fill="none" stroke="#000000" stroke-width="0.75" stroke-linejoin="round" stroke-miterlimit="10" points="
				110.65,471.87 114.81,471.58 115.84,474.78 112.45,475 			"/>
			<path fill="none" stroke="#000000" stroke-width="0.75" stroke-linejoin="round" stroke-miterlimit="10" d="M115.32,473.18
				c0,0,6.44,1.58,8.86,7.02c2.42,5.44,7.53,16.88,7.53,16.88"/>
			<path fill="none" stroke="#000000" stroke-width="0.75" stroke-linejoin="round" stroke-miterlimit="10" d="M104.4,474.18
				c0,0-7.54,0.94-10.24,5.45c-2.7,4.52-6.33,28.9-5.22,33.59c1.11,4.69,5.74,9.12,5.74,9.12l5.96-4.5c0,0-4.05-3.87-4.34-8.47
				c-0.29-4.6,2.9-17,5.4-19.07"/>
			<path fill="none" stroke="#000000" stroke-width="0.75" stroke-linejoin="round" stroke-miterlimit="10" d="M120.68,485.31
				c0,0,4.61,24.8,3.98,31.03l-24.02,1.51"/>
			<polyline fill="none" stroke="#000000" stroke-width="0.75" stroke-linejoin="round" stroke-miterlimit="10" points="
				103.02,474.43 114.36,505.24 118.21,474.17 			"/>
			
				<line fill="none" stroke="#000000" stroke-width="0.75" stroke-linejoin="round" stroke-miterlimit="10" x1="114.36" y1="505.24" x2="114.51" y2="516.98"/>
			
				<line fill="none" stroke="#000000" stroke-width="0.75" stroke-linejoin="round" stroke-miterlimit="10" x1="135.6" y1="500.75" x2="142.53" y2="505.67"/>
			
				<line fill="none" stroke="#000000" stroke-width="0.75" stroke-linejoin="round" stroke-miterlimit="10" x1="139.67" y1="512.89" x2="136.27" y2="511.3"/>
			<path fill="none" stroke="#000000" stroke-width="0.75" stroke-linejoin="round" stroke-miterlimit="10" d="M131.46,510.04
				c0,0-7.1-2.2-8.2-9.25"/>
			
				<line fill="none" stroke="#000000" stroke-width="0.75" stroke-linejoin="round" stroke-miterlimit="10" x1="122.65" y1="516.46" x2="123.41" y2="528.62"/>
			<path fill="none" stroke="#000000" stroke-width="0.75" stroke-linejoin="round" stroke-miterlimit="10" d="M99.77,518.51
				c0,0,4.48,3.5,4.04,5.11s-3.93-1.59-3.93-1.59l-3.13,2.45l-2.06-2.12"/>
			<path fill="none" stroke="#000000" stroke-width="0.75" stroke-linejoin="round" stroke-miterlimit="10" d="M96.74,524.47
				l5.12,39.62l11.36-0.72c0,0,1.41-24.61-1.28-36.55"/>
			
				<line fill="none" stroke="#000000" stroke-width="0.75" stroke-linejoin="round" stroke-miterlimit="10" x1="122.22" y1="545.66" x2="113.69" y2="554.49"/>
			<path fill="none" stroke="#000000" stroke-width="0.75" stroke-linejoin="round" stroke-miterlimit="10" d="M110.03,563.58
				c0,0,1.7,2.58,4.75,1.8c3.05-0.78,3.39,3.93,1.05,4.08c-2.34,0.15-11.89,0.75-11.89,0.75l-0.38-6.05"/>
			<polyline fill="none" stroke="#000000" stroke-width="0.75" stroke-linejoin="round" stroke-miterlimit="10" points="
				99.66,547.08 93.77,556.78 101.42,560.71 			"/>
			<path fill="none" stroke="#000000" stroke-width="0.75" stroke-linejoin="round" stroke-miterlimit="10" d="M95.37,557.6
				c0,0-2.65,1.34-2.85,2.84s4.13,2.73,4.77,4.63c0.64,1.9,5.56,3.53,6.49,2.5"/>
		</g>
	</g>
</g>
<g>
	<rect x="10.39" y="21.4" fill="#FFFFFF" width="353.74" height="70.1"/>
	<g id="svg10Heading">
		<text transform="matrix(1 0 0 1 17.8566 52.7549)"><tspan x="0" y="0" font-family="'Lato', 'Heiti TC', '儷黑 Pro', LiHei Pro', '微軟正黑體', 'Microsoft JhengHei'" font-weight='bold' font-size="22px" letter-spacing="2">中國選擇購物，日本選擇住宿；</tspan><tspan x="108.9" y="26.4" font-family="'Lato', 'Heiti TC', '儷黑 Pro', LiHei Pro', '微軟正黑體', 'Microsoft JhengHei'" font-weight='bold' font-size="22px" letter-spacing="2">你怎麼看？</tspan></text>
	</g>
	
		<line id="svg10bottomLine" fill="none" stroke="#0A080C" stroke-width="2" stroke-miterlimit="10" x1="6.77" y1="91.69" x2="367.74" y2="91.69"/>
	
		<line id="svg10topLine" fill="none" stroke="#0A080C" stroke-width="2" stroke-miterlimit="10" x1="6.77" y1="21.4" x2="367.74" y2="21.4"/>
</g>
<g id="svg10subHeading">
	<text transform="matrix(1 0 0 1 18.0156 152.0789)"><tspan x="0" y="0" font-family="'Lato', 'Heiti TC', '儷黑 Pro', LiHei Pro', '微軟正黑體', 'Microsoft JhengHei'" font-weight='bold' font-size="14px" letter-spacing="1">原來，要賺日本人的錢，最好在市區開個大飯店；</tspan><tspan x="30.8" y="24" font-family="'Lato', 'Heiti TC', '儷黑 Pro', LiHei Pro', '微軟正黑體', 'Microsoft JhengHei'" font-weight='bold' font-size="14px" letter-spacing="1">要賺大陸人的錢，最好在景點開藝品店。</tspan><tspan x="107.8" y="48" font-family="'Lato', 'Heiti TC', '儷黑 Pro', LiHei Pro', '微軟正黑體', 'Microsoft JhengHei'" font-weight='bold' font-size="14px" letter-spacing="1">同樣是外國旅客，</tspan><tspan x="7.7" y="72" font-family="'Lato', 'Heiti TC', '儷黑 Pro', LiHei Pro', '微軟正黑體', 'Microsoft JhengHei'" font-weight='bold' font-size="14px" letter-spacing="1">陸客與日客對台灣經濟的影響層面，大不相同。</tspan></text>
</g>
<g id="svg10TextSource">
	
		<text transform="matrix(1 0 0 1 58.5708 603.1777)" fill="#9E9F9F" font-family="'Lato', 'Heiti TC', '儷黑 Pro', LiHei Pro', '微軟正黑體', 'Microsoft JhengHei'" font-weight='bold' font-size="12px" letter-spacing="1">資料來源：交通部觀光局，2015年統計資料</text>
</g>
<g id="svg10Footer">
	<rect x="-6.17" y="610.5" fill-rule="evenodd" clip-rule="evenodd" width="387.34" height="61.03"/>
	<g>
		<g id="XMLID_3739_">
			<g>
				<g id="XMLID_197_">
					<g>
						<path id="XMLID_198_" fill-rule="evenodd" clip-rule="evenodd" fill="#FFFFFF" d="M73.38,643.49
							c-0.92-1.96-1.61-3.48-2.51-5.43l0.01,0c-0.32-0.77-1.08-1.03-1.75-0.74c-0.22,0.1-2.83,1.2-3.43,1.46
							c-0.99,0.28-1.49-0.32-1.69-0.68c-0.26-0.57-1.74-4.05-2.29-5.38c-0.12-0.28-0.17-0.51-0.25-0.8
							c-0.21-0.71,0.43-1.34,0.97-1.59c0.69-0.32,1.67-0.19,2.01,0.31c0.14,0.21,1.62,3.71,2.26,5.23l0,0
							c0.31,0.77,1.07,1.03,1.75,0.74c0.89-0.38,3.79-1.71,4.01-1.82c0.67-0.3,1-1.04,0.64-1.79l-0.01,0
							c-0.84-1.98-1.49-3.52-2.31-5.52c-0.32-0.77-1.08-1.03-1.75-0.74c-2.89,1.24-3.44,1.51-6.34,2.73
							c-0.45,0.19-1.43,0.75-1.64,1.19c-0.39,0.53-0.43,1.35-0.16,1.98c0.5,1.17,5.61,12.65,5.61,12.65
							c0.11,0.23,0.21,0.48,0.27,0.72c0.14,0.58-0.43,1.4-1.13,1.69c-0.55,0.23-1.44,0.27-1.83-0.36c-0.16-0.25-0.29-0.45-0.42-0.72
							c-0.31-0.67-0.62-1.34-0.93-2.01c-0.54-1.18-1.22-2.69-1.59-3.5c-0.03-0.06-0.08-0.11-0.15-0.14c-0.13-0.06-0.26-0.05-0.35,0
							c-0.09,0.05-0.19,0.12-0.2,0.24c0,0.08,0.02,0.19,0.05,0.25c0.17,0.36,0.39,0.86,0.64,1.4c0.16,0.37,0.31,0.7,0.43,0.95
							c0.53,1.15,1.06,2.3,1.59,3.46c0.28,0.62,0.91,1.15,1.57,1.22c0.47,0.15,1.54-0.2,1.99-0.4c2.86-1.31,3.43-1.53,6.3-2.83
							C73.41,644.98,73.73,644.25,73.38,643.49z"/>
						<path fill="#FFFFFF" d="M65.78,636.98c0.09,0.2,0,0.43-0.2,0.51l0,0c-0.2,0.09-0.43,0-0.51-0.2l-2.38-5.41
							c-0.09-0.2,0-0.42,0.2-0.51l0,0c0.2-0.09,0.43,0,0.51,0.2L65.78,636.98z"/>
						<path fill="#FFFFFF" d="M65.2,645.97c0.09,0.19,0,0.42-0.2,0.51l0,0c-0.2,0.09-0.43,0-0.51-0.2l-2.41-5.4
							c-0.09-0.19,0-0.42,0.2-0.51l0,0c0.2-0.09,0.43,0,0.51,0.2L65.2,645.97z"/>
					</g>
				</g>
				<g id="XMLID_177_">
					<g id="XMLID_195_">
						<g>
							<path fill="#FFFFFF" d="M87.2,639.69c0,1.68-1.5,2.9-3.81,2.9c-1.49,0-2.68-0.34-3.54-0.72c-0.22-0.09-0.42-0.34-0.42-0.61
								c0-0.33,0.24-0.62,0.61-0.62c0.09,0,0.18,0.01,0.28,0.06c0.67,0.3,1.65,0.61,2.93,0.61c1.47,0,2.61-0.42,2.61-1.71
								c0-2.2-6.33-0.98-6.33-4.64c0-1.65,1.34-3.05,3.86-3.05c1.16,0,2.16,0.19,2.96,0.49c0.21,0.07,0.42,0.24,0.42,0.6
								c0,0.3-0.22,0.63-0.6,0.63c-0.07,0-0.16-0.03-0.24-0.06c-0.68-0.24-1.49-0.4-2.4-0.4c-1.5,0-2.65,0.58-2.65,1.7
								C80.89,637.43,87.2,635.76,87.2,639.69z"/>
						</g>
					</g>
					<g id="XMLID_193_">
						<g>
							<path fill="#FFFFFF" d="M99.87,633.39c0,0.36-0.28,0.63-0.64,0.63h-3.02v8.53c0,0.37-0.31,0.67-0.69,0.67
								c-0.37,0-0.67-0.3-0.67-0.67v-8.53h-3.04c-0.36,0-0.63-0.27-0.63-0.63c0-0.36,0.27-0.64,0.63-0.64h7.41
								C99.59,632.74,99.87,633.03,99.87,633.39z"/>
						</g>
					</g>
					<g id="XMLID_190_">
						<g>
							<path fill="#FFFFFF" d="M113.49,637.94c-0.06,3.11-2.05,5.35-5.23,5.35c-3.19,0-5.17-2.23-5.23-5.35
								c0.06-3.11,2.04-5.35,5.23-5.35C111.44,632.6,113.43,634.83,113.49,637.94z M112.14,637.94c0-2.29-1.41-4.08-3.87-4.08
								c-2.47,0-3.87,1.79-3.87,4.08s1.4,4.08,3.87,4.08C110.72,642.02,112.14,640.23,112.14,637.94z"/>
						</g>
					</g>
					<g id="XMLID_188_">
						<g>
							<path fill="#FFFFFF" d="M126.56,641.83c-0.01,0.28-0.13,0.43-0.33,0.54c-0.92,0.52-1.94,0.92-3.39,0.92
								c-2.96,0-5.21-2.02-5.21-5.35s2.25-5.35,5.21-5.35c1.46,0,2.47,0.4,3.39,0.92c0.19,0.1,0.31,0.25,0.33,0.54
								c0.01,0.31-0.22,0.6-0.6,0.6c-0.07,0-0.18-0.01-0.27-0.06c-0.79-0.42-1.56-0.7-2.72-0.7c-2.64,0-3.99,1.76-3.99,4.05
								s1.35,4.05,3.99,4.05c1.16,0,1.93-0.28,2.72-0.7c0.09-0.04,0.19-0.06,0.27-0.06C126.34,641.23,126.58,641.51,126.56,641.83z"
								/>
						</g>
					</g>
					<g id="XMLID_186_">
						<g>
							<path fill="#FFFFFF" d="M139.45,642.56c0.01,0.36-0.28,0.66-0.65,0.66c-0.22,0-0.42-0.1-0.54-0.27l-3.84-4.9l-1.7,1.71v2.78
								c0,0.37-0.31,0.67-0.68,0.67c-0.37,0-0.67-0.3-0.67-0.67v-9.19c0-0.37,0.3-0.69,0.67-0.69c0.37,0,0.68,0.31,0.68,0.69v4.73
								l5.09-5.18c0.1-0.12,0.28-0.24,0.51-0.24c0.36,0,0.66,0.28,0.63,0.64c-0.01,0.16-0.06,0.31-0.16,0.42l-3.44,3.42l3.95,4.97
								C139.39,642.26,139.45,642.39,139.45,642.56z"/>
						</g>
					</g>
					<g id="XMLID_184_">
						<g>
							<path fill="#FFFFFF" d="M145.7,634.01v3.29h4.59c0.36,0,0.64,0.28,0.64,0.64c0,0.36-0.28,0.63-0.64,0.63h-4.59v3.98
								c0,0.37-0.31,0.67-0.68,0.67c-0.37,0-0.67-0.3-0.67-0.67v-9.11c0-0.37,0.3-0.69,0.67-0.69h5.79c0.36,0,0.64,0.28,0.64,0.64
								c0,0.36-0.28,0.63-0.64,0.63H145.7z"/>
						</g>
					</g>
					<g id="XMLID_182_">
						<g>
							<path fill="#FFFFFF" d="M163.63,642.51c0,0.36-0.28,0.63-0.64,0.63h-5.97c-0.37,0-0.67-0.3-0.67-0.67v-9.04
								c0-0.37,0.3-0.69,0.67-0.69h5.97c0.36,0,0.64,0.28,0.64,0.64c0,0.36-0.28,0.63-0.64,0.63h-5.29v3.29h4.75
								c0.36,0,0.64,0.28,0.64,0.64c0,0.36-0.28,0.63-0.64,0.63h-4.75v3.31h5.29C163.35,641.87,163.63,642.15,163.63,642.51z"/>
						</g>
					</g>
					<g id="XMLID_180_">
						<g>
							<path fill="#FFFFFF" d="M175.91,642.69c0,0.36-0.28,0.63-0.64,0.63h-5.97c-0.37,0-0.67-0.3-0.67-0.67v-9.04
								c0-0.37,0.3-0.69,0.67-0.69h5.97c0.36,0,0.64,0.28,0.64,0.64c0,0.36-0.28,0.63-0.64,0.63h-5.29v3.29h4.75
								c0.36,0,0.64,0.28,0.64,0.64c0,0.36-0.28,0.63-0.64,0.63h-4.75v3.31h5.29C175.63,642.05,175.91,642.33,175.91,642.69z"/>
						</g>
					</g>
					<g id="XMLID_178_">
						<g>
							<path fill="#FFFFFF" d="M187.53,642.47c0,0.37-0.31,0.67-0.68,0.67h-5.29c-0.52,0-0.94-0.42-0.94-0.94v-8.84
								c0-0.37,0.3-0.69,0.67-0.69c0.37,0,0.68,0.31,0.68,0.69v8.43h4.87C187.22,641.78,187.53,642.09,187.53,642.47z"/>
						</g>
					</g>
				</g>
			</g>
		</g>
		<rect x="196.49" y="626.64" fill="none" stroke="#FFFFFF" stroke-miterlimit="10" width="118.33" height="21.91"/>
		<g>
			<g>
				<path fill="#FFFFFF" d="M207.12,632.94c-0.09,0.52-0.17,1.01-0.24,1.48h2.24c-0.07,1.38-0.24,2.65-0.53,3.85
					c-0.13,0.49-0.28,0.91-0.43,1.29c0.44,0.38,0.87,0.76,1.28,1.14l-0.92,1c-0.33-0.34-0.65-0.67-0.98-0.98
					c-0.07,0.09-0.13,0.17-0.18,0.23c-0.53,0.72-1.17,1.32-1.92,1.83l-0.73-1c0.65-0.44,1.2-0.97,1.63-1.57
					c0.09-0.1,0.17-0.21,0.24-0.33c-0.25-0.2-0.51-0.4-0.78-0.59c-0.06,0.18-0.1,0.34-0.14,0.49l-1.22-0.26
					c0.38-1.22,0.7-2.52,0.97-3.91h-0.97v-1.21h1.19c0.09-0.54,0.17-1.1,0.24-1.65L207.12,632.94z M207.41,638.13
					c0.22-0.84,0.38-1.69,0.45-2.51h-1.21c-0.18,0.91-0.34,1.72-0.52,2.43c0.36,0.23,0.7,0.48,1.03,0.72
					C207.24,638.58,207.32,638.35,207.41,638.13z M214.06,642.43h-1.3v-0.69h-1.94v0.78h-1.31v-8.97h4.55V642.43z M212.76,640.53
					v-5.77h-1.94v5.77H212.76z"/>
				<path fill="#FFFFFF" d="M220.81,634.91c0.03-0.07,0.07-0.14,0.09-0.23c0.27-0.68,0.47-1.32,0.61-1.92l1.31,0.39
					c-0.11,0.47-0.23,0.92-0.38,1.35h3.19c-0.17,1.02-0.48,2.03-0.94,3.03l-0.96-0.57c0.19-0.41,0.33-0.84,0.44-1.3h-0.7
					c-0.04,0.45-0.09,0.88-0.13,1.28c0.16,0.84,0.34,1.57,0.57,2.16c0.33,0.98,0.88,1.83,1.64,2.59l-1.09,1.04
					c-0.54-0.64-0.95-1.31-1.23-2.04c-0.16-0.37-0.29-0.79-0.41-1.27c-0.04,0.12-0.08,0.23-0.11,0.34
					c-0.42,1.17-1.01,2.16-1.75,3.01l-0.7-0.9v0.5h-2.73v0.36h-1.21v-3.93l-0.91-0.8c1.04-0.92,1.89-1.96,2.55-3.12l1.13,0.6
					c-0.07,0.12-0.13,0.24-0.2,0.36c0.29,0.31,0.6,0.59,0.92,0.83c0.44,0.36,0.88,0.64,1.31,0.85l-0.73,1.25
					c-0.06-0.02-0.1-0.06-0.13-0.09v2.74c0.54-0.67,0.99-1.48,1.32-2.43c0.31-0.82,0.52-1.94,0.63-3.34h-0.18
					c-0.27,0.64-0.53,1.21-0.82,1.69l-1.17-0.87c0.29-0.46,0.53-0.97,0.76-1.54l-1.15,0.68c-0.33-0.68-0.79-1.33-1.34-1.95
					l1.13-0.69C220,633.6,220.46,634.25,220.81,634.91z M217.87,633.63c-0.42,1.03-0.89,1.81-1.39,2.34l-1.04-0.91
					c0.53-0.6,0.97-1.28,1.31-2.03L217.87,633.63z M219.64,638.27c-0.2-0.14-0.39-0.3-0.57-0.48c-0.31-0.27-0.6-0.57-0.88-0.88
					c-0.37,0.52-0.74,0.98-1.12,1.35H219.64z M219.05,641.22v-1.78h-1.52v1.78H219.05z"/>
				<path fill="#FFFFFF" d="M228.15,633.55v-0.79h1.09v0.79h1.47v1.08h-1.47v0.43h1.43v4.55h-1.48v0.52h1.55v1.09h-1.55v1.48h-1.09
					v-1.48h-1.48v-1.09h1.48v-0.52h-1.43v-4.55h1.48v-0.43h-1.48v-1.08H228.15z M228.19,636.8v-0.61h-0.43v0.61H228.19z
					 M228.19,638.49v-0.61h-0.43v0.61H228.19z M229.14,636.8h0.43v-0.61h-0.43V636.8z M229.14,638.49h0.43v-0.61h-0.43V638.49z
					 M233.01,633.24v-0.48h1.17v0.48h2.39v1h-2.39v0.3h2.08v3.52h-0.12c0.24,0.3,0.47,0.6,0.64,0.91l-0.91,0.52
					c-0.07-0.14-0.14-0.28-0.22-0.41c-0.04,0.01-0.09,0.01-0.12,0.01v0.52h1.09v1.04h-1.09v0.7c0,0.58-0.1,0.94-0.3,1.12
					c-0.22,0.2-0.6,0.31-1.13,0.31c-0.22,0-0.42-0.02-0.61-0.04l-0.21-1.22c0.27,0.09,0.54,0.13,0.82,0.13
					c0.2,0,0.31-0.17,0.31-0.52v-0.48h-1.68c0.2,0.24,0.37,0.5,0.5,0.74l-0.95,0.56c-0.17-0.33-0.38-0.64-0.64-0.95l0.57-0.34h-1.27
					v-1.04h3.47v-0.4c-1,0.09-2.1,0.14-3.3,0.14l-0.18-0.95c0.73,0,1.43,0,2.09-0.02v-0.32h-2.04v-3.52h2.04v-0.3h-2.13v-1H233.01z
					 M233.01,635.85v-0.31h-0.92v0.31H233.01z M233.01,637.06v-0.3h-0.92v0.3H233.01z M234.17,635.85h0.96v-0.31h-0.96V635.85z
					 M234.17,637.06h0.96v-0.3h-0.96V637.06z M234.95,638.14l0.13-0.09h-0.91v0.28c0.31-0.01,0.61-0.03,0.9-0.06
					C235.03,638.23,234.98,638.19,234.95,638.14z"/>
				<path fill="#FFFFFF" d="M240.24,633.24v-0.43h1.17v0.43h2.13v1.04h-2.13v0.3h2.67c-0.03-0.57-0.06-1.18-0.07-1.82h1.21
					c0.01,0.67,0.02,1.28,0.04,1.82h2.34v1.09h-2.3c0.06,1.22,0.13,2.11,0.23,2.69c0.02,0.16,0.06,0.3,0.08,0.43
					c0.37-0.71,0.7-1.51,0.99-2.42l1.13,0.56c-0.51,1.51-1.08,2.71-1.69,3.6c0.02,0.08,0.04,0.14,0.07,0.2
					c0.16,0.49,0.28,0.72,0.36,0.72c0.02,0,0.04-0.02,0.06-0.08c0.02-0.11,0.03-0.41,0.03-0.92l1.18,0.34
					c-0.11,0.97-0.3,1.55-0.57,1.77c-0.18,0.16-0.41,0.23-0.7,0.23c-0.33,0-0.65-0.25-0.97-0.75c-0.1-0.18-0.19-0.34-0.27-0.54
					c-0.49,0.5-1.01,0.93-1.59,1.3l-0.5-0.91h-1.75v0.91h-1.17v-0.91h-2.39v-1.04h2.39v-0.27h-2.21v-3.42h2.21v-0.22h-2.3v-1h2.3
					v-0.25h-2.43v-1.09h2.43v-0.3h-2.04v-1.04H240.24z M240.24,638.4v-0.26h-1v0.26H240.24z M240.24,639.58v-0.27h-1v0.27H240.24z
					 M244.78,640.11c-0.09-0.31-0.16-0.65-0.22-1.01c-0.19-0.87-0.33-2.01-0.42-3.43h-2.73v0.25h2.34v1h-2.34v0.22h2.25v3.42h-2.25
					v0.27h2.25v0.41C244.09,640.89,244.47,640.51,244.78,640.11z M241.41,638.4h1.04v-0.26h-1.04V638.4z M241.41,639.58h1.04v-0.27
					h-1.04V639.58z M247.31,633.85l-1.09,0.65c-0.19-0.38-0.43-0.74-0.73-1.09l1.03-0.65C246.83,633.1,247.1,633.47,247.31,633.85z"
					/>
				<path fill="#FFFFFF" d="M256.67,634.37v1.25h-4.16v-1.25H256.67z M256.29,642.78h-1.21v-0.43h-1v0.43h-1.21v-3.77h3.42V642.78z
					 M256.2,637.4v1.22h-3.21v-1.22H256.2z M256.2,632.89v1.21h-3.16v-1.21H256.2z M256.2,635.89v1.21h-3.16v-1.21H256.2z
					 M255.08,641.22v-1.04h-1v1.04H255.08z M258.97,633.33v-0.57h1.27v0.57h2.21v1.13h-2.21v0.3h1.73v1.04h-1.73v0.3h2.3v1.13h-5.98
					v-1.13h2.42v-0.3h-1.78v-1.04h1.78v-0.3h-2.16v-1.13H258.97z M262.1,641.44c0,0.89-0.5,1.34-1.48,1.34
					c-0.18,0-0.39-0.02-0.61-0.04l-0.21-1.18c0.29,0.09,0.57,0.13,0.82,0.13c0.16,0,0.24-0.16,0.25-0.48h-2.51v1.56h-1.22v-5.25
					h4.95V641.44z M260.88,638.92v-0.3h-2.51v0.3H260.88z M260.88,640.22v-0.3h-2.51v0.3H260.88z"/>
				<path fill="#FFFFFF" d="M267.86,634.37v1.21h-4.25v-1.21H267.86z M267.56,642.78h-1.18v-0.43h-1.3v0.43h-1.17v-3.77h3.64V642.78
					z M267.43,637.44v1.18H264v-1.18H267.43z M267.47,635.92v1.18h-3.43v-1.18H267.47z M267.34,632.94v1.12h-3.16v-1.12H267.34z
					 M266.38,641.26v-1.13h-1.3v1.13H266.38z M271.68,633.8l-0.77,0.43h2.59v1.21h-1.95v2.09h1.73v1.21h-1.73v2.43h2.09v1.21h-5.55
					v-1.21h2.21v-2.43h-1.78v-1.21h1.78v-2.09h-2v-1.21h1.94c-0.17-0.29-0.37-0.58-0.6-0.87l1.13-0.7
					C271.13,633.03,271.43,633.4,271.68,633.8z"/>
				<path fill="#FFFFFF" d="M278.87,640.74h-2.64v0.57h-1.25v-8.02h3.9V640.74z M277.61,636.37v-1.86h-1.39v1.86H277.61z
					 M277.61,639.53v-2h-1.39v2H277.61z M284.37,633.03v8.1c0,1.07-0.48,1.61-1.43,1.61c-0.36,0-0.78-0.07-1.25-0.18l-0.25-1.34
					c0.45,0.18,0.89,0.25,1.3,0.25c0.26,0,0.39-0.29,0.39-0.87v-1.25h-2.32c-0.06,0.4-0.12,0.78-0.21,1.15
					c-0.18,0.73-0.45,1.48-0.85,2.23l-1.17-0.7c0.42-0.93,0.7-1.74,0.85-2.43c0.16-0.84,0.23-1.69,0.23-2.54v-4.04h0.6H284.37z
					 M283.12,638.14v-1.34h-2.21v0.89c0,0.17-0.01,0.32-0.01,0.45H283.12z M283.12,635.58v-1.34h-2.21v1.34H283.12z"/>
				<path fill="#FFFFFF" d="M288.05,633.46v2.82h2.13v-3.52h1.25v3.52h2.13v-2.77h1.25v3.94h-3.39V641h2.64v-2.78h1.26v4.52h-1.26
					v-0.52h-6.54v0.57h-1.27v-4.56h1.27V641h2.64v-3.55h-3.39v-3.99H288.05z"/>
				<path fill="#FFFFFF" d="M302.15,632.76v0.31h3.55v0.99h-3.55v0.22h4.51v1.86h-1.25v-0.82h-3.34v0.31l2.86-0.22l0.09,0.99
					l-2.84,0.22c0.11,0.1,0.32,0.16,0.61,0.16c0.21,0.02,0.51,0.02,0.89,0.02c0.65,0,1.04-0.01,1.17-0.03
					c0.13-0.02,0.21-0.07,0.24-0.13c0.04-0.03,0.08-0.16,0.1-0.36l1.18,0.64c-0.08,0.41-0.23,0.67-0.47,0.78
					c-0.16,0.04-0.38,0.08-0.67,0.1c-0.18,0.02-0.7,0.03-1.55,0.03c-0.48,0-0.9-0.01-1.28-0.04c-1.03-0.02-1.54-0.37-1.54-1.03
					v-0.02l-1.86,0.14v-0.99l1.86-0.16v-0.41h-2.13v3.04c0,0.33-0.01,0.67-0.03,0.99c0.17-0.21,0.31-0.42,0.42-0.64
					c0.24-0.44,0.4-0.92,0.48-1.43l1.09,0.25c-0.04,0.22-0.09,0.42-0.13,0.61h1.86c-0.2,1.23-0.52,2.15-0.98,2.77
					c-0.03,0.04-0.06,0.08-0.08,0.1c0.58,0.4,1.66,0.59,3.26,0.59c0.87,0,1.63-0.04,2.31-0.13l-0.36,1.22h-1.95
					c-1.81,0-3.05-0.22-3.72-0.67c-0.1-0.08-0.19-0.14-0.27-0.21c-0.37,0.32-0.79,0.63-1.25,0.92l-0.87-0.95
					c0.58-0.26,1.04-0.52,1.39-0.79c-0.16-0.22-0.31-0.46-0.44-0.72c-0.13,0.18-0.28,0.33-0.42,0.47l-0.46-0.42
					c-0.02,0.18-0.06,0.36-0.08,0.53c-0.12,0.65-0.32,1.31-0.6,1.98l-1.12-0.65c0.28-0.82,0.47-1.53,0.57-2.13
					c0.11-0.73,0.17-1.48,0.17-2.22v-3.54h3.34v-1.52H302.15z M300.6,640.24c0.18-0.31,0.32-0.67,0.41-1.07h-0.85
					c-0.03,0.07-0.07,0.13-0.09,0.18c-0.01,0.01-0.01,0.01-0.01,0.01C300.23,639.7,300.4,640,300.6,640.24z M305.58,638.14v1.73
					c0,0.25,0.01,0.4,0.04,0.44c0.02,0.02,0.06,0.03,0.1,0.03c0.03,0,0.07-0.01,0.1-0.03c0.03-0.01,0.06-0.04,0.08-0.1
					c0.02-0.09,0.04-0.41,0.07-0.95l1.03,0.52c-0.03,0.73-0.16,1.18-0.37,1.35c-0.11,0.09-0.22,0.14-0.36,0.17
					c-0.2,0.03-0.39,0.04-0.55,0.04c-0.49,0-0.79-0.04-0.9-0.16c-0.29-0.06-0.42-0.4-0.42-1.02v-1h-0.54
					c-0.06,0.64-0.19,1.1-0.39,1.39c-0.2,0.33-0.53,0.59-1.02,0.79l-0.56-1.04c0.27-0.11,0.48-0.29,0.62-0.52
					c0.16-0.24,0.23-0.8,0.24-1.64h0.6H305.58z"/>
			</g>
		</g>
	</g>
</g>
</svg>
