<?xml version="1.0" encoding="utf-8"?>
<!-- Generator: Adobe Illustrator 20.1.0, SVG Export Plug-In . SVG Version: 6.00 Build 0)  -->
<svg version="1.1" id="圖層_1" xmlns="http://www.w3.org/2000/svg" xmlns:xlink="http://www.w3.org/1999/xlink" x="0px" y="0px"
	 viewBox="0 0 375 667" enable-background="new 0 0 375 667" xml:space="preserve">
<g>
	<rect x="10.63" y="19.82" fill="#FFFFFF" width="353.74" height="39.95"/>
	<g id="svg06Heading01">
		<text transform="matrix(1 0 0 1 37.9495 46.7075)"><tspan x="0" y="0" font-family="'Lato', 'Heiti TC', '儷黑 Pro', LiHei Pro', '微軟正黑體', 'Microsoft JhengHei'" font-weight='bold' font-size="22px" letter-spacing="2">中國</tspan><tspan x="48.4" y="0" font-family="'Lato'" font-weight='bold' font-size="22px" letter-spacing="2">vs.</tspan><tspan x="81.3" y="0" font-family="'Lato', 'Heiti TC', '儷黑 Pro', LiHei Pro', '微軟正黑體', 'Microsoft JhengHei'" font-weight='bold' font-size="22px" letter-spacing="2">日本：喜歡住哪裡？</tspan></text>
	</g>
	
		<line id="svg06bottomLine01" fill="none" stroke="#0A080C" stroke-width="2" stroke-miterlimit="10" x1="7.02" y1="59.5" x2="367.98" y2="59.5"/>
	
		<line id="svg06topLine01" fill="none" stroke="#0A080C" stroke-width="2" stroke-miterlimit="10" x1="7.02" y1="19.55" x2="367.98" y2="19.55"/>
</g>
<g id="svg06subHeading02">
	<text transform="matrix(1 0 0 1 25.8 622.5228)"><tspan x="0" y="0" font-family="'Lato', 'Heiti TC', '儷黑 Pro', LiHei Pro', '微軟正黑體', 'Microsoft JhengHei'" font-weight='bold' font-size="14px" letter-spacing="1">從旅客的角度來看，兩者在房價上有較大差異，</tspan><tspan x="53.9" y="24" font-family="'Lato', 'Heiti TC', '儷黑 Pro', LiHei Pro', '微軟正黑體', 'Microsoft JhengHei'" font-weight='bold' font-size="14px" letter-spacing="1">國際觀光旅館的房價約高三成。</tspan></text>
</g>
<g id="svg06subHeading01">
	<text transform="matrix(1 0 0 1 25.8002 85.0789)"><tspan x="0" y="0" font-family="'Lato', 'Heiti TC', '儷黑 Pro', LiHei Pro', '微軟正黑體', 'Microsoft JhengHei'" font-weight='bold' font-size="14px" letter-spacing="1">除了購物費，旅館內支出的差異也是看點十足。</tspan><tspan x="17.44" y="24" font-family="'Lato', 'Heiti TC', '儷黑 Pro', LiHei Pro', '微軟正黑體', 'Microsoft JhengHei'" font-weight='bold' font-size="14px" letter-spacing="1">我們以最具規模、最受規範的住宿業類別─</tspan><tspan x="71.34" y="48" font-family="'Lato', 'Heiti TC', '儷黑 Pro', LiHei Pro', '微軟正黑體', 'Microsoft JhengHei'" font-weight='bold' font-size="14px" letter-spacing="1">觀光旅館業─為探討對象，</tspan><tspan x="-7.7" y="72" font-family="'Lato', 'Heiti TC', '儷黑 Pro', LiHei Pro', '微軟正黑體', 'Microsoft JhengHei'" font-weight='bold' font-size="14px" letter-spacing="1">依法又可分為國際觀光旅館業與一般觀光旅館業。</tspan></text>
</g>
<g>
	<path id="svg06GroundRight" opacity="0.32" fill="#B8834E" d="M156.9,377.36h141.9c20.68,0,37.44-16.76,37.44-37.44v0
		c0-20.68-16.76-37.44-37.44-37.44H156.9c-20.68,0-37.44,16.76-37.44,37.44v0C119.46,360.6,136.23,377.36,156.9,377.36z"/>
	<path id="svg06GroundLeft" opacity="0.32" fill="#B8834E" d="M74.94,547.13h141.9c20.68,0,37.44-16.76,37.44-37.44v0
		c0-20.68-16.76-37.44-37.44-37.44H74.94c-20.68,0-37.44,16.76-37.44,37.44v0C37.5,530.37,54.26,547.13,74.94,547.13z"/>
	<g id="svg06HotelRight">
		<g>
			
				<rect id="XMLID_746_" x="84.13" y="408.51" fill="#FFFFFF" stroke="#000000" stroke-width="0.75" stroke-miterlimit="10" width="79.69" height="135.92"/>
			
				<rect x="79.63" y="505.97" fill="#FFFFFF" stroke="#000000" stroke-width="0.75" stroke-miterlimit="10" width="87.99" height="4.41"/>
			
				<rect x="76.03" y="510.27" fill="#FFFFFF" stroke="#000000" stroke-width="0.75" stroke-miterlimit="10" width="51.49" height="7.49"/>
			
				<rect x="154.3" y="510.27" fill="#FFFFFF" stroke="#000000" stroke-width="0.75" stroke-miterlimit="10" width="16.34" height="7.49"/>
			
				<rect x="79.63" y="408.51" fill="#FFFFFF" stroke="#000000" stroke-width="0.75" stroke-miterlimit="10" width="87.99" height="4.41"/>
			
				<rect x="79.63" y="448.76" fill="#FFFFFF" stroke="#000000" stroke-width="0.75" stroke-miterlimit="10" width="87.99" height="4.41"/>
			
				<rect x="87.93" y="521.73" fill="#B8834E" stroke="#000000" stroke-width="0.75" stroke-miterlimit="10" width="12.72" height="15.12"/>
			
				<rect x="104.46" y="521.73" fill="#B8834E" stroke="#000000" stroke-width="0.75" stroke-miterlimit="10" width="12.72" height="15.12"/>
			<polygon id="XMLID_747_" fill="#FFFFFF" stroke="#000000" stroke-width="0.75" stroke-miterlimit="10" points="84.13,408.51 
				123.5,396.13 163.81,408.51 			"/>
			
				<rect x="103.57" y="520.41" fill="#FFFFFF" stroke="#000000" stroke-width="0.75" stroke-miterlimit="10" width="14.49" height="1.91"/>
			
				<rect x="87.05" y="520.41" fill="#FFFFFF" stroke="#000000" stroke-width="0.75" stroke-miterlimit="10" width="14.49" height="1.91"/>
			
				<rect x="103.57" y="535.89" fill="#FFFFFF" stroke="#000000" stroke-width="0.75" stroke-miterlimit="10" width="14.49" height="1.91"/>
			
				<rect x="87.05" y="535.89" fill="#FFFFFF" stroke="#000000" stroke-width="0.75" stroke-miterlimit="10" width="14.49" height="1.91"/>
			<g id="XMLID_748_">
				
					<rect x="105.01" y="417.9" fill="#FFFFFF" stroke="#000000" stroke-width="0.75" stroke-miterlimit="10" width="9.46" height="11.23"/>
				
					<rect x="104.35" y="416.92" fill="#FFFFFF" stroke="#000000" stroke-width="0.75" stroke-miterlimit="10" width="10.77" height="1.42"/>
				
					<rect x="104.35" y="428.42" fill="#FFFFFF" stroke="#000000" stroke-width="0.75" stroke-miterlimit="10" width="10.77" height="1.42"/>
			</g>
			<g id="XMLID_749_">
				
					<rect x="91.03" y="417.9" fill="#FFFFFF" stroke="#000000" stroke-width="0.75" stroke-miterlimit="10" width="9.46" height="11.23"/>
				
					<rect x="90.37" y="416.92" fill="#FFFFFF" stroke="#000000" stroke-width="0.75" stroke-miterlimit="10" width="10.77" height="1.42"/>
				
					<rect x="90.37" y="428.42" fill="#FFFFFF" stroke="#000000" stroke-width="0.75" stroke-miterlimit="10" width="10.77" height="1.42"/>
			</g>
			<g id="XMLID_750_">
				
					<rect x="132.97" y="417.9" fill="#FFFFFF" stroke="#000000" stroke-width="0.75" stroke-miterlimit="10" width="9.46" height="11.23"/>
				
					<rect x="132.31" y="416.92" fill="#FFFFFF" stroke="#000000" stroke-width="0.75" stroke-miterlimit="10" width="10.77" height="1.42"/>
				
					<rect x="132.31" y="428.42" fill="#FFFFFF" stroke="#000000" stroke-width="0.75" stroke-miterlimit="10" width="10.77" height="1.42"/>
			</g>
			<g id="XMLID_751_">
				
					<rect x="146.95" y="417.9" fill="#FFFFFF" stroke="#000000" stroke-width="0.75" stroke-miterlimit="10" width="9.46" height="11.23"/>
				
					<rect x="146.3" y="416.92" fill="#FFFFFF" stroke="#000000" stroke-width="0.75" stroke-miterlimit="10" width="10.77" height="1.42"/>
				
					<rect x="146.3" y="428.42" fill="#FFFFFF" stroke="#000000" stroke-width="0.75" stroke-miterlimit="10" width="10.77" height="1.42"/>
			</g>
			<g id="XMLID_752_">
				
					<rect x="118.99" y="417.9" fill="#FFFFFF" stroke="#000000" stroke-width="0.75" stroke-miterlimit="10" width="9.46" height="11.23"/>
				
					<rect x="118.33" y="416.92" fill="#FFFFFF" stroke="#000000" stroke-width="0.75" stroke-miterlimit="10" width="10.77" height="1.42"/>
				
					<rect x="118.33" y="428.42" fill="#FFFFFF" stroke="#000000" stroke-width="0.75" stroke-miterlimit="10" width="10.77" height="1.42"/>
			</g>
			<g id="XMLID_753_">
				
					<rect x="105.01" y="434.22" fill="#FFFFFF" stroke="#000000" stroke-width="0.75" stroke-miterlimit="10" width="9.46" height="11.23"/>
				
					<rect x="104.35" y="433.24" fill="#FFFFFF" stroke="#000000" stroke-width="0.75" stroke-miterlimit="10" width="10.77" height="1.42"/>
				
					<rect x="104.35" y="444.74" fill="#FFFFFF" stroke="#000000" stroke-width="0.75" stroke-miterlimit="10" width="10.77" height="1.42"/>
			</g>
			<g id="XMLID_754_">
				
					<rect x="91.03" y="434.22" fill="#FFFFFF" stroke="#000000" stroke-width="0.75" stroke-miterlimit="10" width="9.46" height="11.23"/>
				
					<rect x="90.37" y="433.24" fill="#FFFFFF" stroke="#000000" stroke-width="0.75" stroke-miterlimit="10" width="10.77" height="1.42"/>
				
					<rect x="90.37" y="444.74" fill="#FFFFFF" stroke="#000000" stroke-width="0.75" stroke-miterlimit="10" width="10.77" height="1.42"/>
			</g>
			<g id="XMLID_755_">
				
					<rect x="132.97" y="434.22" fill="#FFFFFF" stroke="#000000" stroke-width="0.75" stroke-miterlimit="10" width="9.46" height="11.23"/>
				
					<rect x="132.31" y="433.24" fill="#FFFFFF" stroke="#000000" stroke-width="0.75" stroke-miterlimit="10" width="10.77" height="1.42"/>
				
					<rect x="132.31" y="444.74" fill="#FFFFFF" stroke="#000000" stroke-width="0.75" stroke-miterlimit="10" width="10.77" height="1.42"/>
			</g>
			<g id="XMLID_756_">
				
					<rect x="146.95" y="434.22" fill="#FFFFFF" stroke="#000000" stroke-width="0.75" stroke-miterlimit="10" width="9.46" height="11.23"/>
				
					<rect x="146.3" y="433.24" fill="#FFFFFF" stroke="#000000" stroke-width="0.75" stroke-miterlimit="10" width="10.77" height="1.42"/>
				
					<rect x="146.3" y="444.74" fill="#FFFFFF" stroke="#000000" stroke-width="0.75" stroke-miterlimit="10" width="10.77" height="1.42"/>
			</g>
			<g id="XMLID_757_">
				
					<rect x="118.99" y="434.22" fill="#FFFFFF" stroke="#000000" stroke-width="0.75" stroke-miterlimit="10" width="9.46" height="11.23"/>
				
					<rect x="118.33" y="433.24" fill="#FFFFFF" stroke="#000000" stroke-width="0.75" stroke-miterlimit="10" width="10.77" height="1.42"/>
				
					<rect x="118.33" y="444.74" fill="#FFFFFF" stroke="#000000" stroke-width="0.75" stroke-miterlimit="10" width="10.77" height="1.42"/>
			</g>
			<g id="XMLID_758_">
				
					<rect x="105.01" y="458.64" fill="#B8834E" stroke="#000000" stroke-width="0.75" stroke-miterlimit="10" width="9.46" height="11.23"/>
				
					<rect x="104.35" y="457.66" fill="#B8834E" stroke="#000000" stroke-width="0.75" stroke-miterlimit="10" width="10.77" height="1.42"/>
				
					<rect x="104.35" y="469.17" fill="#B8834E" stroke="#000000" stroke-width="0.75" stroke-miterlimit="10" width="10.77" height="1.42"/>
			</g>
			<g id="XMLID_759_">
				
					<rect x="91.03" y="458.64" fill="#B8834E" stroke="#000000" stroke-width="0.75" stroke-miterlimit="10" width="9.46" height="11.23"/>
				
					<rect x="90.37" y="457.66" fill="#B8834E" stroke="#000000" stroke-width="0.75" stroke-miterlimit="10" width="10.77" height="1.42"/>
				
					<rect x="90.37" y="469.17" fill="#B8834E" stroke="#000000" stroke-width="0.75" stroke-miterlimit="10" width="10.77" height="1.42"/>
			</g>
			<g id="XMLID_760_">
				
					<rect x="132.97" y="458.64" fill="#B8834E" stroke="#000000" stroke-width="0.75" stroke-miterlimit="10" width="9.46" height="11.23"/>
				
					<rect x="132.31" y="457.66" fill="#B8834E" stroke="#000000" stroke-width="0.75" stroke-miterlimit="10" width="10.77" height="1.42"/>
				
					<rect x="132.31" y="469.17" fill="#B8834E" stroke="#000000" stroke-width="0.75" stroke-miterlimit="10" width="10.77" height="1.42"/>
			</g>
			<g id="XMLID_761_">
				
					<rect x="146.95" y="458.64" fill="#B8834E" stroke="#000000" stroke-width="0.75" stroke-miterlimit="10" width="9.46" height="11.23"/>
				
					<rect x="146.3" y="457.66" fill="#B8834E" stroke="#000000" stroke-width="0.75" stroke-miterlimit="10" width="10.77" height="1.42"/>
				
					<rect x="146.3" y="469.17" fill="#B8834E" stroke="#000000" stroke-width="0.75" stroke-miterlimit="10" width="10.77" height="1.42"/>
			</g>
			<g id="XMLID_762_">
				
					<rect x="118.99" y="458.64" fill="#B8834E" stroke="#000000" stroke-width="0.75" stroke-miterlimit="10" width="9.46" height="11.23"/>
				
					<rect x="118.33" y="457.66" fill="#B8834E" stroke="#000000" stroke-width="0.75" stroke-miterlimit="10" width="10.77" height="1.42"/>
				
					<rect x="118.33" y="469.17" fill="#B8834E" stroke="#000000" stroke-width="0.75" stroke-miterlimit="10" width="10.77" height="1.42"/>
			</g>
			<g id="XMLID_763_">
				
					<rect x="105.01" y="475.93" fill="#B8834E" stroke="#000000" stroke-width="0.75" stroke-miterlimit="10" width="9.46" height="11.23"/>
				
					<rect x="104.35" y="474.95" fill="#B8834E" stroke="#000000" stroke-width="0.75" stroke-miterlimit="10" width="10.77" height="1.42"/>
				
					<rect x="104.35" y="486.45" fill="#B8834E" stroke="#000000" stroke-width="0.75" stroke-miterlimit="10" width="10.77" height="1.42"/>
			</g>
			<g id="XMLID_764_">
				
					<rect x="91.03" y="475.93" fill="#B8834E" stroke="#000000" stroke-width="0.75" stroke-miterlimit="10" width="9.46" height="11.23"/>
				
					<rect x="90.37" y="474.95" fill="#B8834E" stroke="#000000" stroke-width="0.75" stroke-miterlimit="10" width="10.77" height="1.42"/>
				
					<rect x="90.37" y="486.45" fill="#B8834E" stroke="#000000" stroke-width="0.75" stroke-miterlimit="10" width="10.77" height="1.42"/>
			</g>
			<g id="XMLID_765_">
				
					<rect x="132.97" y="475.93" fill="#B8834E" stroke="#000000" stroke-width="0.75" stroke-miterlimit="10" width="9.46" height="11.23"/>
				
					<rect x="132.31" y="474.95" fill="#B8834E" stroke="#000000" stroke-width="0.75" stroke-miterlimit="10" width="10.77" height="1.42"/>
				
					<rect x="132.31" y="486.45" fill="#B8834E" stroke="#000000" stroke-width="0.75" stroke-miterlimit="10" width="10.77" height="1.42"/>
			</g>
			<g id="XMLID_766_">
				
					<rect x="146.95" y="475.93" fill="#B8834E" stroke="#000000" stroke-width="0.75" stroke-miterlimit="10" width="9.46" height="11.23"/>
				
					<rect x="146.3" y="474.95" fill="#B8834E" stroke="#000000" stroke-width="0.75" stroke-miterlimit="10" width="10.77" height="1.42"/>
				
					<rect x="146.3" y="486.45" fill="#B8834E" stroke="#000000" stroke-width="0.75" stroke-miterlimit="10" width="10.77" height="1.42"/>
			</g>
			<g id="XMLID_767_">
				
					<rect x="118.99" y="475.93" fill="#B8834E" stroke="#000000" stroke-width="0.75" stroke-miterlimit="10" width="9.46" height="11.23"/>
				
					<rect x="118.33" y="474.95" fill="#B8834E" stroke="#000000" stroke-width="0.75" stroke-miterlimit="10" width="10.77" height="1.42"/>
				
					<rect x="118.33" y="486.45" fill="#B8834E" stroke="#000000" stroke-width="0.75" stroke-miterlimit="10" width="10.77" height="1.42"/>
			</g>
			<g id="XMLID_768_">
				
					<rect x="105.01" y="491.13" fill="#B8834E" stroke="#000000" stroke-width="0.75" stroke-miterlimit="10" width="9.46" height="11.23"/>
				
					<rect x="104.35" y="490.15" fill="#B8834E" stroke="#000000" stroke-width="0.75" stroke-miterlimit="10" width="10.77" height="1.42"/>
				
					<rect x="104.35" y="501.65" fill="#B8834E" stroke="#000000" stroke-width="0.75" stroke-miterlimit="10" width="10.77" height="1.42"/>
			</g>
			<g id="XMLID_769_">
				
					<rect x="91.03" y="491.13" fill="#B8834E" stroke="#000000" stroke-width="0.75" stroke-miterlimit="10" width="9.46" height="11.23"/>
				
					<rect x="90.37" y="490.15" fill="#B8834E" stroke="#000000" stroke-width="0.75" stroke-miterlimit="10" width="10.77" height="1.42"/>
				
					<rect x="90.37" y="501.65" fill="#B8834E" stroke="#000000" stroke-width="0.75" stroke-miterlimit="10" width="10.77" height="1.42"/>
			</g>
			<g id="XMLID_770_">
				
					<rect x="132.97" y="491.13" fill="#B8834E" stroke="#000000" stroke-width="0.75" stroke-miterlimit="10" width="9.46" height="11.23"/>
				
					<rect x="132.31" y="490.15" fill="#B8834E" stroke="#000000" stroke-width="0.75" stroke-miterlimit="10" width="10.77" height="1.42"/>
				
					<rect x="132.31" y="501.65" fill="#B8834E" stroke="#000000" stroke-width="0.75" stroke-miterlimit="10" width="10.77" height="1.42"/>
			</g>
			<g id="XMLID_771_">
				
					<rect x="146.95" y="491.13" fill="#B8834E" stroke="#000000" stroke-width="0.75" stroke-miterlimit="10" width="9.46" height="11.23"/>
				
					<rect x="146.3" y="490.15" fill="#B8834E" stroke="#000000" stroke-width="0.75" stroke-miterlimit="10" width="10.77" height="1.42"/>
				
					<rect x="146.3" y="501.65" fill="#B8834E" stroke="#000000" stroke-width="0.75" stroke-miterlimit="10" width="10.77" height="1.42"/>
			</g>
			<g id="XMLID_772_">
				
					<rect x="118.99" y="491.13" fill="#B8834E" stroke="#000000" stroke-width="0.75" stroke-miterlimit="10" width="9.46" height="11.23"/>
				
					<rect x="118.33" y="490.15" fill="#B8834E" stroke="#000000" stroke-width="0.75" stroke-miterlimit="10" width="10.77" height="1.42"/>
				
					<rect x="118.33" y="501.65" fill="#B8834E" stroke="#000000" stroke-width="0.75" stroke-miterlimit="10" width="10.77" height="1.42"/>
			</g>
			<path id="XMLID_773_" fill="#FFFFFF" stroke="#000000" stroke-width="0.75" stroke-miterlimit="10" d="M127.52,538.84v-26.61
				c0,0,0.57-17.55,13.62-17.55c13.05,0,12.84,17.55,12.84,17.55v26.61H127.52z"/>
			
				<rect x="125.96" y="538.84" fill="#FFFFFF" stroke="#000000" stroke-width="0.75" stroke-miterlimit="10" width="29.58" height="3.14"/>
			
				<rect x="124.4" y="541.98" fill="#FFFFFF" stroke="#000000" stroke-width="0.75" stroke-miterlimit="10" width="33.02" height="3.14"/>
			
				<circle id="XMLID_774_" fill="#FFFFFF" stroke="#000000" stroke-width="0.75" stroke-miterlimit="10" cx="140.91" cy="510.27" r="7.49"/>
			
				<rect x="131.27" y="510.27" fill="#B8834E" stroke="#000000" stroke-width="0.75" stroke-miterlimit="10" width="19.68" height="28.57"/>
			
				<circle id="XMLID_775_" fill="#FFFFFF" stroke="#000000" stroke-width="0.75" stroke-miterlimit="10" cx="141.11" cy="510.27" r="4.91"/>
			
				<line id="XMLID_776_" fill="#FFFFFF" stroke="#000000" stroke-width="0.75" stroke-miterlimit="10" x1="141.11" y1="496.61" x2="141.11" y2="502.77"/>
			
				<line id="XMLID_777_" fill="#FFFFFF" stroke="#000000" stroke-width="0.75" stroke-miterlimit="10" x1="135.93" y1="504.67" x2="133.41" y2="501.54"/>
			
				<line id="XMLID_778_" fill="#FFFFFF" stroke="#000000" stroke-width="0.75" stroke-miterlimit="10" x1="146.03" y1="504.67" x2="148.4" y2="501.66"/>
		</g>
		<g>
			
				<rect x="59.06" y="459.9" fill="#FFFFFF" stroke="#000000" stroke-width="0.75" stroke-miterlimit="10" width="130.67" height="28.37"/>
			<g id="XMLID_803_">
				
					<text transform="matrix(1 0 0 1 71.4258 480.7041)" font-family="'Lato', 'Heiti TC', '儷黑 Pro', LiHei Pro', '微軟正黑體', 'Microsoft JhengHei'" font-weight='bold' font-size="16px" letter-spacing="1">一般觀光旅館</text>
			</g>
		</g>
	</g>
	<g id="svg06HotelLeft">
		<g>
			<path id="XMLID_780_" fill="#FFFFFF" stroke="#000000" stroke-width="0.75" stroke-miterlimit="10" d="M240.64,229.38
				c0-5.35-4.34-9.69-9.69-9.69s-9.69,4.34-9.69,9.69h-0.1v17.95h19.57v-17.95H240.64z"/>
			<path id="XMLID_781_" fill="#FFFFFF" stroke="#000000" stroke-width="0.75" stroke-miterlimit="10" d="M288.86,229.38
				c0-5.35-4.34-9.69-9.69-9.69c-5.35,0-9.69,4.34-9.69,9.69h-0.1v17.95h19.57v-17.95H288.86z"/>
			
				<rect x="210.19" y="326" fill="#FFFFFF" stroke="#000000" stroke-width="0.75" stroke-miterlimit="10" width="90.13" height="50.95"/>
			
				<rect x="214.17" y="254.13" fill="#FFFFFF" stroke="#000000" stroke-width="0.75" stroke-miterlimit="10" width="34.22" height="71.95"/>
			
				<rect x="261.8" y="254.13" fill="#FFFFFF" stroke="#000000" stroke-width="0.75" stroke-miterlimit="10" width="34.22" height="71.95"/>
			
				<rect x="210.19" y="341.83" fill="#FFFFFF" stroke="#000000" stroke-width="0.75" stroke-miterlimit="10" width="90.13" height="35.11"/>
			
				<rect x="238.78" y="344.27" fill="#FFFFFF" stroke="#000000" stroke-width="0.75" stroke-miterlimit="10" width="31.87" height="32.67"/>
			
				<rect x="238.78" y="340.34" fill="#FFFFFF" stroke="#000000" stroke-width="0.75" stroke-miterlimit="10" width="31.87" height="3.93"/>
			<path id="XMLID_782_" fill="#B8834E" stroke="#000000" stroke-width="0.75" stroke-miterlimit="10" d="M243.17,376.95v-19.59
				c0,0,1.56-10.46,11.3-10.46c9.75,0,11.71,10.19,11.71,10.19v19.86H243.17z"/>
			<path id="XMLID_783_" fill="#B8834E" stroke="#000000" stroke-width="0.75" stroke-miterlimit="10" d="M214.37,371.99v-16.47
				c0,0-0.52-9.54,3.4-9.8s3.55,9.67,3.55,9.67v16.6H214.37z"/>
			
				<rect x="213.06" y="370.55" fill="#B8834E" stroke="#000000" stroke-width="0.75" stroke-miterlimit="10" width="9.8" height="3.53"/>
			<path id="XMLID_784_" fill="#B8834E" stroke="#000000" stroke-width="0.75" stroke-miterlimit="10" d="M226.29,371.99v-16.47
				c0,0-0.52-9.54,3.4-9.8s3.55,9.67,3.55,9.67v16.6H226.29z"/>
			
				<rect x="224.98" y="370.55" fill="#B8834E" stroke="#000000" stroke-width="0.75" stroke-miterlimit="10" width="9.8" height="3.53"/>
			<path id="XMLID_785_" fill="#B8834E" stroke="#000000" stroke-width="0.75" stroke-miterlimit="10" d="M276.22,371.99v-16.47
				c0,0-0.52-9.54,3.4-9.8s3.55,9.67,3.55,9.67v16.6H276.22z"/>
			
				<rect x="274.91" y="370.55" fill="#B8834E" stroke="#000000" stroke-width="0.75" stroke-miterlimit="10" width="9.8" height="3.53"/>
			<path id="XMLID_786_" fill="#B8834E" stroke="#000000" stroke-width="0.75" stroke-miterlimit="10" d="M288.14,371.99v-16.47
				c0,0-0.52-9.54,3.4-9.8s3.55,9.67,3.55,9.67v16.6H288.14z"/>
			
				<rect x="286.83" y="370.55" fill="#B8834E" stroke="#000000" stroke-width="0.75" stroke-miterlimit="10" width="9.8" height="3.53"/>
			
				<polygon id="XMLID_787_" fill="#B8834E" stroke="#000000" stroke-width="0.75" stroke-linejoin="bevel" stroke-miterlimit="10" points="
				210.19,354.48 214.34,354.48 212.27,357.09 			"/>
			
				<polygon id="XMLID_788_" fill="#B8834E" stroke="#000000" stroke-width="0.75" stroke-linejoin="bevel" stroke-miterlimit="10" points="
				221.72,354.48 225.88,354.48 223.8,357.09 			"/>
			
				<polygon id="XMLID_789_" fill="#B8834E" stroke="#000000" stroke-width="0.75" stroke-linejoin="bevel" stroke-miterlimit="10" points="
				233.92,354.48 238.08,354.48 236,357.09 			"/>
			
				<polygon id="XMLID_790_" fill="#B8834E" stroke="#000000" stroke-width="0.75" stroke-linejoin="bevel" stroke-miterlimit="10" points="
				271.51,354.48 275.67,354.48 273.59,357.09 			"/>
			
				<polygon id="XMLID_791_" fill="#B8834E" stroke="#000000" stroke-width="0.75" stroke-linejoin="bevel" stroke-miterlimit="10" points="
				283.39,354.48 287.55,354.48 285.47,357.09 			"/>
			
				<polygon id="XMLID_792_" fill="#B8834E" stroke="#000000" stroke-width="0.75" stroke-linejoin="bevel" stroke-miterlimit="10" points="
				295.59,354.48 299.75,354.48 297.67,357.09 			"/>
			
				<rect x="210.19" y="352.41" fill="#B8834E" stroke="#000000" stroke-width="0.75" stroke-linejoin="bevel" stroke-miterlimit="10" width="4.16" height="1.64"/>
			
				<rect x="221.72" y="352.41" fill="#B8834E" stroke="#000000" stroke-width="0.75" stroke-linejoin="bevel" stroke-miterlimit="10" width="4.16" height="1.64"/>
			
				<rect x="233.92" y="352.41" fill="#B8834E" stroke="#000000" stroke-width="0.75" stroke-linejoin="bevel" stroke-miterlimit="10" width="4.16" height="1.64"/>
			
				<rect x="271.51" y="352.41" fill="#B8834E" stroke="#000000" stroke-width="0.75" stroke-linejoin="bevel" stroke-miterlimit="10" width="4.16" height="1.64"/>
			
				<rect x="283.56" y="352.41" fill="#B8834E" stroke="#000000" stroke-width="0.75" stroke-linejoin="bevel" stroke-miterlimit="10" width="4.16" height="1.64"/>
			
				<rect x="295.77" y="352.41" fill="#B8834E" stroke="#000000" stroke-width="0.75" stroke-linejoin="bevel" stroke-miterlimit="10" width="4.16" height="1.64"/>
			
				<line id="XMLID_793_" fill="#B8834E" stroke="#000000" stroke-width="0.75" stroke-linejoin="bevel" stroke-miterlimit="10" x1="214.37" y1="361.92" x2="221.32" y2="361.92"/>
			
				<line id="XMLID_794_" fill="#B8834E" stroke="#000000" stroke-width="0.75" stroke-linejoin="bevel" stroke-miterlimit="10" x1="226.29" y1="361.92" x2="233.14" y2="361.92"/>
			
				<line id="XMLID_795_" fill="#B8834E" stroke="#000000" stroke-width="0.75" stroke-linejoin="bevel" stroke-miterlimit="10" x1="276.22" y1="362.3" x2="282.8" y2="362.3"/>
			
				<line id="XMLID_796_" fill="#B8834E" stroke="#000000" stroke-width="0.75" stroke-linejoin="bevel" stroke-miterlimit="10" x1="288.14" y1="362.3" x2="295.09" y2="362.3"/>
			
				<rect x="217.15" y="331.49" fill="#B8834E" stroke="#000000" stroke-width="0.75" stroke-linejoin="bevel" stroke-miterlimit="10" width="4.9" height="5.95"/>
			
				<rect x="225.07" y="331.49" fill="#B8834E" stroke="#000000" stroke-width="0.75" stroke-linejoin="bevel" stroke-miterlimit="10" width="4.9" height="5.95"/>
			
				<rect x="233.31" y="331.49" fill="#B8834E" stroke="#000000" stroke-width="0.75" stroke-linejoin="bevel" stroke-miterlimit="10" width="4.9" height="5.95"/>
			
				<rect x="219.39" y="313.25" fill="#B8834E" stroke="#000000" stroke-width="0.75" stroke-linejoin="bevel" stroke-miterlimit="10" width="5.38" height="6.53"/>
			
				<rect x="228.08" y="313.25" fill="#B8834E" stroke="#000000" stroke-width="0.75" stroke-linejoin="bevel" stroke-miterlimit="10" width="5.38" height="6.53"/>
			
				<rect x="237.13" y="313.25" fill="#B8834E" stroke="#000000" stroke-width="0.75" stroke-linejoin="bevel" stroke-miterlimit="10" width="5.38" height="6.53"/>
			
				<rect x="219.39" y="302.67" fill="#B8834E" stroke="#000000" stroke-width="0.75" stroke-linejoin="bevel" stroke-miterlimit="10" width="5.38" height="6.53"/>
			
				<rect x="228.08" y="302.67" fill="#B8834E" stroke="#000000" stroke-width="0.75" stroke-linejoin="bevel" stroke-miterlimit="10" width="5.38" height="6.53"/>
			
				<rect x="237.13" y="302.67" fill="#B8834E" stroke="#000000" stroke-width="0.75" stroke-linejoin="bevel" stroke-miterlimit="10" width="5.38" height="6.53"/>
			
				<rect x="219.39" y="292.7" fill="#B8834E" stroke="#000000" stroke-width="0.75" stroke-linejoin="bevel" stroke-miterlimit="10" width="5.38" height="6.53"/>
			
				<rect x="228.08" y="292.7" fill="#B8834E" stroke="#000000" stroke-width="0.75" stroke-linejoin="bevel" stroke-miterlimit="10" width="5.38" height="6.53"/>
			
				<rect x="237.13" y="292.7" fill="#B8834E" stroke="#000000" stroke-width="0.75" stroke-linejoin="bevel" stroke-miterlimit="10" width="5.38" height="6.53"/>
			
				<rect x="219.39" y="281.83" fill="#B8834E" stroke="#000000" stroke-width="0.75" stroke-linejoin="bevel" stroke-miterlimit="10" width="5.38" height="6.53"/>
			
				<rect x="228.08" y="281.83" fill="#B8834E" stroke="#000000" stroke-width="0.75" stroke-linejoin="bevel" stroke-miterlimit="10" width="5.38" height="6.53"/>
			
				<rect x="237.13" y="281.83" fill="#B8834E" stroke="#000000" stroke-width="0.75" stroke-linejoin="bevel" stroke-miterlimit="10" width="5.38" height="6.53"/>
			
				<rect x="219.39" y="271.54" fill="#B8834E" stroke="#000000" stroke-width="0.75" stroke-linejoin="bevel" stroke-miterlimit="10" width="5.38" height="6.53"/>
			
				<rect x="228.08" y="271.54" fill="#B8834E" stroke="#000000" stroke-width="0.75" stroke-linejoin="bevel" stroke-miterlimit="10" width="5.38" height="6.53"/>
			
				<rect x="237.13" y="271.54" fill="#B8834E" stroke="#000000" stroke-width="0.75" stroke-linejoin="bevel" stroke-miterlimit="10" width="5.38" height="6.53"/>
			
				<rect x="219.39" y="261.58" fill="none" stroke="#000000" stroke-width="0.75" stroke-linejoin="bevel" stroke-miterlimit="10" width="5.38" height="6.53"/>
			
				<rect x="228.08" y="261.58" fill="none" stroke="#000000" stroke-width="0.75" stroke-linejoin="bevel" stroke-miterlimit="10" width="5.38" height="6.53"/>
			
				<rect x="237.13" y="261.58" fill="none" stroke="#000000" stroke-width="0.75" stroke-linejoin="bevel" stroke-miterlimit="10" width="5.38" height="6.53"/>
			
				<rect x="268.43" y="313.25" fill="#B8834E" stroke="#000000" stroke-width="0.75" stroke-linejoin="bevel" stroke-miterlimit="10" width="5.38" height="6.53"/>
			
				<rect x="277.12" y="313.25" fill="#B8834E" stroke="#000000" stroke-width="0.75" stroke-linejoin="bevel" stroke-miterlimit="10" width="5.38" height="6.53"/>
			
				<rect x="286.17" y="313.25" fill="#B8834E" stroke="#000000" stroke-width="0.75" stroke-linejoin="bevel" stroke-miterlimit="10" width="5.38" height="6.53"/>
			
				<rect x="268.43" y="302.67" fill="#B8834E" stroke="#000000" stroke-width="0.75" stroke-linejoin="bevel" stroke-miterlimit="10" width="5.38" height="6.53"/>
			
				<rect x="277.12" y="302.67" fill="#B8834E" stroke="#000000" stroke-width="0.75" stroke-linejoin="bevel" stroke-miterlimit="10" width="5.38" height="6.53"/>
			
				<rect x="286.17" y="302.67" fill="#B8834E" stroke="#000000" stroke-width="0.75" stroke-linejoin="bevel" stroke-miterlimit="10" width="5.38" height="6.53"/>
			
				<rect x="268.43" y="292.7" fill="#B8834E" stroke="#000000" stroke-width="0.75" stroke-linejoin="bevel" stroke-miterlimit="10" width="5.38" height="6.53"/>
			
				<rect x="277.12" y="292.7" fill="#B8834E" stroke="#000000" stroke-width="0.75" stroke-linejoin="bevel" stroke-miterlimit="10" width="5.38" height="6.53"/>
			
				<rect x="286.17" y="292.7" fill="#B8834E" stroke="#000000" stroke-width="0.75" stroke-linejoin="bevel" stroke-miterlimit="10" width="5.38" height="6.53"/>
			
				<rect x="268.43" y="281.83" fill="#B8834E" stroke="#000000" stroke-width="0.75" stroke-linejoin="bevel" stroke-miterlimit="10" width="5.38" height="6.53"/>
			
				<rect x="277.12" y="281.83" fill="#B8834E" stroke="#000000" stroke-width="0.75" stroke-linejoin="bevel" stroke-miterlimit="10" width="5.38" height="6.53"/>
			
				<rect x="286.17" y="281.83" fill="#B8834E" stroke="#000000" stroke-width="0.75" stroke-linejoin="bevel" stroke-miterlimit="10" width="5.38" height="6.53"/>
			
				<rect x="268.43" y="271.54" fill="#B8834E" stroke="#000000" stroke-width="0.75" stroke-linejoin="bevel" stroke-miterlimit="10" width="5.38" height="6.53"/>
			
				<rect x="277.12" y="271.54" fill="#B8834E" stroke="#000000" stroke-width="0.75" stroke-linejoin="bevel" stroke-miterlimit="10" width="5.38" height="6.53"/>
			
				<rect x="286.17" y="271.54" fill="#B8834E" stroke="#000000" stroke-width="0.75" stroke-linejoin="bevel" stroke-miterlimit="10" width="5.38" height="6.53"/>
			
				<rect x="268.43" y="261.58" fill="none" stroke="#000000" stroke-width="0.75" stroke-linejoin="bevel" stroke-miterlimit="10" width="5.38" height="6.53"/>
			
				<rect x="277.12" y="261.58" fill="none" stroke="#000000" stroke-width="0.75" stroke-linejoin="bevel" stroke-miterlimit="10" width="5.38" height="6.53"/>
			
				<rect x="286.17" y="261.58" fill="none" stroke="#000000" stroke-width="0.75" stroke-linejoin="bevel" stroke-miterlimit="10" width="5.38" height="6.53"/>
			
				<rect x="241.23" y="331.49" fill="#B8834E" stroke="#000000" stroke-width="0.75" stroke-linejoin="bevel" stroke-miterlimit="10" width="4.9" height="5.95"/>
			
				<rect x="249.29" y="331.49" fill="#B8834E" stroke="#000000" stroke-width="0.75" stroke-linejoin="bevel" stroke-miterlimit="10" width="4.9" height="5.95"/>
			
				<rect x="257.21" y="331.49" fill="#B8834E" stroke="#000000" stroke-width="0.75" stroke-linejoin="bevel" stroke-miterlimit="10" width="4.9" height="5.95"/>
			
				<rect x="265.45" y="331.49" fill="#B8834E" stroke="#000000" stroke-width="0.75" stroke-linejoin="bevel" stroke-miterlimit="10" width="4.9" height="5.95"/>
			
				<rect x="273.37" y="331.49" fill="#B8834E" stroke="#000000" stroke-width="0.75" stroke-linejoin="bevel" stroke-miterlimit="10" width="4.9" height="5.95"/>
			
				<rect x="280.7" y="331.49" fill="#B8834E" stroke="#000000" stroke-width="0.75" stroke-linejoin="bevel" stroke-miterlimit="10" width="4.9" height="5.95"/>
			
				<rect x="288.62" y="331.49" fill="#B8834E" stroke="#000000" stroke-width="0.75" stroke-linejoin="bevel" stroke-miterlimit="10" width="4.9" height="5.95"/>
			
				<rect x="211.87" y="251.28" fill="#FFFFFF" stroke="#000000" stroke-width="0.75" stroke-miterlimit="10" width="38.16" height="3.4"/>
			
				<rect x="216.14" y="237.81" fill="#FFFFFF" stroke="#000000" stroke-width="0.75" stroke-miterlimit="10" width="30.15" height="3.4"/>
			
				<rect x="219.16" y="227.79" fill="#FFFFFF" stroke="#000000" stroke-width="0.75" stroke-miterlimit="10" width="23.89" height="3.4"/>
			
				<rect x="267.23" y="227.79" fill="#FFFFFF" stroke="#000000" stroke-width="0.75" stroke-miterlimit="10" width="23.89" height="3.4"/>
			
				<rect x="264.1" y="237.81" fill="#FFFFFF" stroke="#000000" stroke-width="0.75" stroke-miterlimit="10" width="30.15" height="3.4"/>
			
				<rect x="259.49" y="251.28" fill="#FFFFFF" stroke="#000000" stroke-width="0.75" stroke-miterlimit="10" width="38.16" height="3.4"/>
			
				<rect x="218.01" y="241.2" fill="#FFFFFF" stroke="#000000" stroke-width="0.75" stroke-miterlimit="10" width="26.35" height="10.08"/>
			
				<rect x="266" y="241.2" fill="#FFFFFF" stroke="#000000" stroke-width="0.75" stroke-miterlimit="10" width="26.35" height="10.08"/>
			
				<rect x="238.05" y="243.23" fill="#FFFFFF" stroke="#000000" stroke-width="0.75" stroke-miterlimit="10" width="1.78" height="5.63"/>
			
				<rect x="287.12" y="243.23" fill="#FFFFFF" stroke="#000000" stroke-width="0.75" stroke-miterlimit="10" width="1.78" height="5.63"/>
			
				<rect x="248.39" y="268.1" fill="#B8834E" stroke="#000000" stroke-width="0.75" stroke-miterlimit="10" width="13.41" height="12.85"/>
		</g>
		<g>
			
				<rect x="189.76" y="287.97" fill="#FFFFFF" stroke="#000000" stroke-width="0.75" stroke-miterlimit="10" width="130.67" height="28.37"/>
			<g id="XMLID_800_">
				
					<text transform="matrix(1 0 0 1 202.4971 307.8647)" font-family="'Lato', 'Heiti TC', '儷黑 Pro', LiHei Pro', '微軟正黑體', 'Microsoft JhengHei'" font-weight='bold' font-size="16px" letter-spacing="1">國際觀光旅館</text>
			</g>
		</g>
	</g>
	<g id="svg06MoneyRight">
		
			<rect id="XMLID_808_" x="199.27" y="448.41" fill="#B8834E" stroke="#000000" stroke-width="0.75" stroke-miterlimit="10" width="24.15" height="97.62"/>
		
			<ellipse id="XMLID_810_" fill="#B8834E" stroke="#000000" stroke-width="0.75" stroke-miterlimit="10" cx="211.35" cy="448.56" rx="12.08" ry="7.44"/>
		
			<text transform="matrix(0.1335 -0.9572 0.9872 0.1598 215.3139 453.6791)" font-family="'Lato', 'Heiti TC', '儷黑 Pro', LiHei Pro', '微軟正黑體', 'Microsoft JhengHei'" font-weight='bold' font-size="14.778px" letter-spacing="1.03">$</text>
	</g>
	<g id="svg06MoneyLeft">
		
			<rect id="XMLID_812_" x="157.31" y="214.94" fill="#B8834E" stroke="#000000" stroke-width="0.75" stroke-miterlimit="10" width="24.15" height="162.15"/>
		
			<ellipse id="XMLID_814_" fill="#B8834E" stroke="#000000" stroke-width="0.75" stroke-miterlimit="10" cx="169.39" cy="214.94" rx="12.08" ry="7.44"/>
		
			<text transform="matrix(0.1335 -0.9572 0.9872 0.1598 173.3604 220.0704)" font-family="'Lato', 'Heiti TC', '儷黑 Pro', LiHei Pro', '微軟正黑體', 'Microsoft JhengHei'" font-weight='bold' font-size="14.778px" letter-spacing="1.03">$</text>
	</g>
	
		<path id="svg06Bling02" opacity="0" fill="#FFFFFF" stroke="#000000" stroke-width="0.75" stroke-linejoin="bevel" stroke-miterlimit="10" d="
		M311.04,271.26c0,0-1.7,9.35-5.9,9.35c0,0,5.9,3.34,5.9,9.35c0,0,0.75-9.35,6.03-9.35C317.07,280.61,312.16,280.61,311.04,271.26z"
		/>
	
		<path id="svg06Bling01" opacity="0" fill="#FFFFFF" stroke="#000000" stroke-width="0.75" stroke-linejoin="bevel" stroke-miterlimit="10" d="
		M316.67,250.49c0,0-1.35,7.4-4.67,7.4c0,0,4.67,2.64,4.67,7.4c0,0,0.59-7.4,4.77-7.4C321.44,257.89,317.55,257.89,316.67,250.49z"
		/>
	
		<path id="svg06Bling03" opacity="0" fill="#FFFFFF" stroke="#000000" stroke-width="0.75" stroke-linejoin="bevel" stroke-miterlimit="10" d="
		M199.39,313.11c0,0-1.7,9.35-5.9,9.35c0,0,5.9,3.34,5.9,9.35c0,0,0.75-9.35,6.03-9.35C205.42,322.46,200.51,322.46,199.39,313.11z"
		/>
	<g id="svg06CarLeft">
		<g>
			<path fill="#FFFFFF" d="M55.61,342.96c-0.12,0-0.22-0.05-0.3-0.14s-0.1-0.21-0.07-0.32l1.13-4.54c0.04-0.17,0.19-0.28,0.36-0.28
				h2.81c0.16,0,0.3,0.1,0.36,0.26l1.52,4.54c0.04,0.11,0.02,0.24-0.05,0.34c-0.07,0.1-0.18,0.16-0.3,0.16H55.61z"/>
			<path d="M59.55,338.05l1.52,4.54h-5.46l1.13-4.54H59.55 M59.55,337.3h-2.81c-0.34,0-0.64,0.23-0.73,0.57l-1.13,4.54
				c-0.06,0.22-0.01,0.46,0.14,0.64c0.14,0.18,0.36,0.29,0.59,0.29h5.46c0.24,0,0.47-0.12,0.61-0.31c0.14-0.2,0.18-0.45,0.1-0.68
				l-1.52-4.54C60.15,337.5,59.87,337.3,59.55,337.3L59.55,337.3z"/>
		</g>
		<g>
			<path fill="#FFFFFF" d="M55.14,345.18c-0.56,0-1.01-0.45-1.01-1.01v-1.65c0-0.56,0.45-1.01,1.01-1.01h6.62
				c0.56,0,1.01,0.45,1.01,1.01v1.65c0,0.56-0.45,1.01-1.01,1.01H55.14z"/>
			<path d="M61.76,341.89c0.35,0,0.64,0.28,0.64,0.64v1.65c0,0.35-0.28,0.64-0.64,0.64h-6.62c-0.35,0-0.64-0.28-0.64-0.64v-1.65
				c0-0.35,0.28-0.64,0.64-0.64H61.76 M61.76,341.14h-6.62c-0.76,0-1.39,0.62-1.39,1.39v1.65c0,0.76,0.62,1.39,1.39,1.39h6.62
				c0.76,0,1.39-0.62,1.39-1.39v-1.65C63.15,341.76,62.53,341.14,61.76,341.14L61.76,341.14z"/>
		</g>
		<g>
			<path fill="#FFFFFF" d="M72.63,361.39c-0.2,0-0.37-0.16-0.38-0.36l-0.44-16.32c0-0.15,0.08-0.29,0.23-0.35
				c0.05-0.02,0.1-0.03,0.15-0.03c0.1,0,0.19,0.04,0.26,0.11c0.08,0.07,7.58,7.52,13.15,16.39c0.07,0.12,0.08,0.26,0.01,0.38
				c-0.07,0.12-0.19,0.19-0.33,0.19H72.63z"/>
			<path d="M72.19,344.7c0,0,7.49,7.38,13.09,16.32H72.63L72.19,344.7 M72.19,343.95c-0.1,0-0.2,0.02-0.3,0.06
				c-0.28,0.12-0.46,0.4-0.45,0.71l0.44,16.32c0.01,0.41,0.34,0.73,0.75,0.73h12.65c0.27,0,0.52-0.15,0.66-0.39s0.12-0.53-0.02-0.76
				c-5.59-8.91-13.13-16.38-13.2-16.45C72.58,344.02,72.39,343.95,72.19,343.95L72.19,343.95z"/>
		</g>
		<g>
			<path fill="#FFFFFF" d="M97.91,376.66c-0.17,0-0.32-0.11-0.36-0.28l-0.95-3.55H81.22l-0.86,3.55c-0.04,0.17-0.19,0.29-0.36,0.29
				H44.07c-0.17,0-0.31-0.11-0.36-0.27l-0.97-3.21H27.48l-1.04,3.22c-0.05,0.15-0.19,0.26-0.36,0.26h-8.02
				c-0.21,0-0.38-0.17-0.38-0.38V366.1c0-2.39,0.41-3.75,2.62-4.59c2.37-0.9,13.52-3.45,14.97-3.78c1.24-1.72,8.91-12.36,9.6-12.96
				c0.94-0.82,1.18-0.82,2.51-0.82h24.07c0.91,0,1.14,0.18,1.66,1.28c0.38,0.82,6.6,12.02,7.45,13.54c6,0.67,17.24,1.91,18.04,1.91
				c0,0,0,0,0,0c1.07,0,1.3,0.73,1.5,1.38l0.04,0.14c0.23,0.72,4.31,14,4.31,14c0.04,0.11,0.01,0.24-0.06,0.33
				c-0.07,0.1-0.18,0.15-0.3,0.15H97.91z"/>
			<path d="M71.45,344.31c0.73,0,0.84,0.06,1.32,1.06c0.42,0.9,7.55,13.73,7.55,13.73s17.23,1.93,18.27,1.93c0,0,0.01,0,0.01,0
				c0.01,0,0.02,0,0.03,0c0.82,0,0.92,0.53,1.15,1.25c0.23,0.72,4.31,14,4.31,14h-6.18l-1.02-3.83H80.92l-0.93,3.83H44.07
				l-1.06-3.48H27.21l-1.13,3.48h-8.02c0,0,0-7.84,0-10.19c0-2.34,0.37-3.48,2.38-4.24c2.49-0.94,15.06-3.8,15.06-3.8
				s8.93-12.4,9.63-13.02c0.84-0.73,0.98-0.73,2.27-0.73C47.39,344.31,70.9,344.31,71.45,344.31 M71.45,343.56H47.39
				c-1.41,0-1.75,0.03-2.76,0.92c-0.69,0.61-7.3,9.75-9.58,12.91c-1.91,0.44-12.55,2.88-14.88,3.77c-2.41,0.91-2.86,2.44-2.86,4.94
				v10.19c0,0.41,0.34,0.75,0.75,0.75h8.02c0.32,0,0.61-0.21,0.71-0.52l0.96-2.96h14.71l0.89,2.95c0.1,0.32,0.39,0.53,0.72,0.53
				h35.92c0.35,0,0.65-0.24,0.73-0.57l0.79-3.26h14.8l0.87,3.28c0.09,0.33,0.38,0.56,0.72,0.56h6.18c0.24,0,0.46-0.11,0.6-0.3
				c0.14-0.19,0.18-0.44,0.11-0.67c-0.17-0.54-4.09-13.29-4.31-14l-0.04-0.14c-0.2-0.65-0.51-1.64-1.82-1.64h0
				c-0.76,0-10.93-1.11-17.84-1.89c-2.1-3.79-7.02-12.65-7.34-13.35C72.91,343.89,72.58,343.56,71.45,343.56L71.45,343.56z"/>
		</g>
		<rect x="17.55" y="363.38" width="1.76" height="1.76"/>
		<rect x="19.31" y="365.14" width="1.76" height="1.76"/>
		<rect x="21.07" y="363.38" width="1.76" height="1.76"/>
		<rect x="22.83" y="365.14" width="1.76" height="1.76"/>
		<rect x="24.59" y="363.38" width="1.76" height="1.76"/>
		<rect x="26.35" y="365.14" width="1.76" height="1.76"/>
		<rect x="28.11" y="363.38" width="1.76" height="1.76"/>
		<rect x="29.88" y="365.14" width="1.76" height="1.76"/>
		<rect x="31.64" y="363.38" width="1.76" height="1.76"/>
		<rect x="33.4" y="365.14" width="1.76" height="1.76"/>
		<rect x="35.16" y="363.38" width="1.76" height="1.76"/>
		<rect x="36.92" y="365.14" width="1.76" height="1.76"/>
		<rect x="38.68" y="363.38" width="1.76" height="1.76"/>
		<rect x="40.44" y="365.14" width="1.76" height="1.76"/>
		<rect x="42.2" y="363.38" width="1.76" height="1.76"/>
		<rect x="43.97" y="365.14" width="1.76" height="1.76"/>
		<rect x="45.73" y="363.38" width="1.76" height="1.76"/>
		<rect x="47.49" y="365.14" width="1.76" height="1.76"/>
		<rect x="49.25" y="363.38" width="1.76" height="1.76"/>
		<rect x="51.01" y="365.14" width="1.76" height="1.76"/>
		<rect x="52.77" y="363.38" width="1.76" height="1.76"/>
		<rect x="54.53" y="365.14" width="1.76" height="1.76"/>
		<rect x="56.29" y="363.38" width="1.76" height="1.76"/>
		<rect x="58.05" y="365.14" width="1.76" height="1.76"/>
		<rect x="59.82" y="363.38" width="1.76" height="1.76"/>
		<rect x="61.58" y="365.14" width="1.76" height="1.76"/>
		<rect x="63.34" y="363.38" width="1.76" height="1.76"/>
		<rect x="65.1" y="365.14" width="1.76" height="1.76"/>
		<rect x="66.86" y="363.38" width="1.76" height="1.76"/>
		<rect x="68.62" y="365.14" width="1.76" height="1.76"/>
		<rect x="70.34" y="363.38" width="1.76" height="1.76"/>
		<rect x="72.1" y="365.14" width="1.76" height="1.76"/>
		<rect x="73.82" y="363.38" width="1.76" height="1.76"/>
		<rect x="75.58" y="365.14" width="1.76" height="1.76"/>
		<rect x="77.3" y="363.38" width="1.76" height="1.76"/>
		<rect x="79.06" y="365.14" width="1.76" height="1.76"/>
		<rect x="80.78" y="363.38" width="1.76" height="1.76"/>
		<rect x="82.54" y="365.14" width="1.76" height="1.76"/>
		<rect x="84.26" y="363.38" width="1.76" height="1.76"/>
		<rect x="86.02" y="365.14" width="1.76" height="1.76"/>
		<rect x="87.74" y="363.38" width="1.76" height="1.76"/>
		<rect x="89.51" y="365.14" width="1.76" height="1.76"/>
		<rect x="91.22" y="363.38" width="1.76" height="1.76"/>
		<rect x="92.99" y="365.14" width="1.76" height="1.76"/>
		<rect x="94.71" y="363.38" width="1.76" height="1.76"/>
		<rect x="96.47" y="365.14" width="1.76" height="1.76"/>
		<rect x="98.19" y="363.38" width="1.76" height="1.76"/>
		<rect x="99.95" y="365.14" width="1.76" height="1.76"/>
		<g>
			<path fill="#FFFFFF" d="M60.18,360.47c-0.21,0-0.38-0.17-0.38-0.38v-14.73c0-0.21,0.17-0.38,0.38-0.38h9.25
				c1.38,0,1.55,0.03,2.14,0.95c0.57,0.89,4.44,12.69,4.88,14.04c0.04,0.11,0.02,0.24-0.05,0.34s-0.18,0.15-0.3,0.15H60.18z"/>
			<path d="M69.43,345.36c1.28,0,1.32,0,1.82,0.78c0.56,0.88,4.84,13.95,4.84,13.95H60.18v-14.73
				C69.11,345.36,68.48,345.36,69.43,345.36 M69.43,344.61h-9.25c-0.41,0-0.75,0.34-0.75,0.75v14.73c0,0.41,0.34,0.75,0.75,0.75
				h15.91c0.24,0,0.47-0.12,0.61-0.31c0.14-0.19,0.18-0.45,0.11-0.67c-0.72-2.2-4.34-13.21-4.92-14.12
				C71.19,344.65,70.83,344.61,69.43,344.61L69.43,344.61z"/>
		</g>
		<g>
			<path fill="#FFFFFF" d="M40.98,360.47c-0.13,0-0.25-0.06-0.31-0.17c-0.07-0.11-0.08-0.24-0.03-0.36
				c0.22-0.5,5.47-12.36,6.21-13.73c0.65-1.19,0.8-1.22,2.69-1.22h6.88c0.21,0,0.38,0.17,0.38,0.38v14.73
				c0,0.21-0.17,0.38-0.38,0.38H40.98z"/>
			<path d="M56.42,345.36v14.73H40.97c0,0,5.45-12.33,6.2-13.71c0.56-1.02,0.56-1.02,2.36-1.02
				C50.36,345.36,56.42,345.36,56.42,345.36 M56.42,344.61h-6.88c-1.93,0-2.28,0.04-3.02,1.42c-0.76,1.39-6,13.26-6.23,13.76
				c-0.1,0.23-0.08,0.5,0.06,0.71c0.14,0.21,0.37,0.34,0.63,0.34h15.45c0.41,0,0.75-0.34,0.75-0.75v-14.73
				C57.17,344.95,56.83,344.61,56.42,344.61L56.42,344.61z"/>
		</g>
		<g>
			<path fill="#FFFFFF" d="M75.41,361.12c-0.14,0-0.26-0.08-0.33-0.2l-2.07-3.84c-0.03-0.05-0.04-0.12-0.04-0.18v-0.34
				c0-0.15,0.09-0.29,0.24-0.35c0.05-0.02,0.09-0.03,0.14-0.03c0.1,0,0.2,0.04,0.27,0.12l3.04,3.18c0.08,0.08,0.12,0.2,0.1,0.32
				C76.58,360.84,75.8,361.12,75.41,361.12z"/>
			<path d="M73.34,356.56l3.03,3.18c-0.15,1-0.97,1-0.97,1l-2.07-3.84V356.56 M73.34,355.81c-0.09,0-0.19,0.02-0.28,0.05
				c-0.28,0.11-0.47,0.39-0.47,0.7v0.34c0,0.12,0.03,0.25,0.09,0.36l2.07,3.84c0.13,0.24,0.38,0.39,0.66,0.39
				c0.5,0,1.51-0.34,1.71-1.64c0.04-0.23-0.04-0.46-0.2-0.63l-3.03-3.18C73.74,355.89,73.54,355.81,73.34,355.81L73.34,355.81z"/>
		</g>
		<g>
			<path fill="#FFFFFF" d="M72.48,359.4c-0.21,0-0.38-0.17-0.38-0.38v-4.58c0-0.21,0.17-0.38,0.38-0.38h0.25
				c0.71,0,1.27,0.43,1.27,0.98v3.37c0,0.55-0.56,0.98-1.27,0.98H72.48z"/>
			<path d="M72.72,354.45c0.5,0,0.9,0.27,0.9,0.6v3.37c0,0.33-0.4,0.6-0.9,0.6h-0.25v-4.58H72.72 M72.72,353.7h-0.25
				c-0.41,0-0.75,0.34-0.75,0.75v4.58c0,0.41,0.34,0.75,0.75,0.75h0.25c0.92,0,1.65-0.59,1.65-1.35v-3.37
				C74.37,354.29,73.65,353.7,72.72,353.7L72.72,353.7z"/>
		</g>
		<g>
			<path fill="#FFFFFF" d="M97.91,376.66c-0.17,0-0.32-0.11-0.36-0.28l-0.95-3.55H81.22l-0.86,3.55c-0.04,0.17-0.19,0.29-0.36,0.29
				H44.07c-0.17,0-0.31-0.11-0.36-0.27l-0.97-3.21H27.48l-1.04,3.22c-0.05,0.15-0.19,0.26-0.36,0.26h-8.02
				c-0.21,0-0.38-0.17-0.38-0.38v-3.99c0-0.21,0.17-0.38,0.38-0.38h84.75c0.16,0,0.31,0.1,0.36,0.26l1.29,3.99
				c0.04,0.11,0.02,0.24-0.05,0.34c-0.07,0.1-0.18,0.15-0.3,0.15H97.91z"/>
			<path d="M102.8,372.29c0.72,2.24,1.29,3.99,1.29,3.99h-6.18l-1.02-3.83H80.92l-0.93,3.83H44.07l-1.06-3.48H27.21l-1.13,3.48
				h-8.02c0,0,0-1.83,0-3.99H102.8 M102.8,371.54H18.05c-0.41,0-0.75,0.34-0.75,0.75v3.99c0,0.41,0.34,0.75,0.75,0.75h8.02
				c0.32,0,0.61-0.21,0.71-0.52l0.96-2.96h14.71l0.89,2.95c0.1,0.32,0.39,0.53,0.72,0.53h35.92c0.35,0,0.65-0.24,0.73-0.57
				l0.79-3.26h14.8l0.87,3.28c0.09,0.33,0.38,0.56,0.72,0.56h6.18c0.24,0,0.47-0.11,0.61-0.31c0.14-0.19,0.18-0.44,0.11-0.67
				l-1.29-3.99C103.41,371.75,103.12,371.54,102.8,371.54L102.8,371.54z"/>
		</g>
		<g>
			<path fill="#FFFFFF" d="M98.32,367.89c-0.45,0-0.81-0.42-0.81-0.93v-3.46c0-0.51,0.36-0.93,0.81-0.93h1.96
				c0.46,0,0.76,0.28,0.91,0.83l0.87,3.11c0.01,0.03,0.01,0.07,0.01,0.1c0,0.03,0.01,0.1,0.03,0.16c0.05,0.23,0.12,0.57-0.11,0.84
				c-0.15,0.19-0.39,0.28-0.73,0.28H98.32z"/>
			<path d="M100.29,362.94c0.3,0,0.45,0.2,0.55,0.56l0.87,3.11c0,0.31,0.35,0.91-0.43,0.91h-2.95c-0.24,0-0.43-0.25-0.43-0.56v-3.46
				c0-0.31,0.19-0.56,0.43-0.56H100.29 M100.29,362.19h-1.96c-0.65,0-1.18,0.59-1.18,1.31v3.46c0,0.72,0.53,1.31,1.18,1.31h2.95
				c0.45,0,0.8-0.14,1.02-0.42c0.33-0.41,0.23-0.89,0.18-1.15c-0.01-0.04-0.02-0.07-0.02-0.11c0-0.07-0.01-0.11-0.03-0.18
				l-0.87-3.11C101.3,362.34,100.65,362.19,100.29,362.19L100.29,362.19z"/>
		</g>
		<g>
			<path fill="#FFFFFF" d="M99.11,366.93c-0.37,0-0.67-0.34-0.67-0.77v-2.21c0-0.43,0.29-0.77,0.67-0.77h1.52
				c0.25,0,0.59,0.12,0.73,0.68l0.58,2.2c0.01,0.53-0.28,0.87-0.65,0.87H99.11z"/>
			<path d="M100.62,363.56c0.2,0,0.3,0.14,0.37,0.4l0.58,2.21c0,0.22-0.13,0.4-0.29,0.4h-2.17c-0.16,0-0.29-0.18-0.29-0.4v-2.21
				c0-0.22,0.13-0.4,0.29-0.4H100.62 M100.62,362.81h-1.52c-0.58,0-1.04,0.5-1.04,1.15v2.21c0,0.64,0.46,1.15,1.04,1.15h2.17
				c0.58,0,1.04-0.5,1.04-1.15c0-0.06-0.01-0.13-0.02-0.19l-0.58-2.21C101.5,362.9,100.88,362.81,100.62,362.81L100.62,362.81z"/>
		</g>
		<g>
			<path fill="#FFFFFF" d="M96.69,373.69c-0.14,0-0.26-0.07-0.33-0.19l-1.57-2.8c-0.07-0.12-0.06-0.26,0-0.37s0.19-0.19,0.32-0.19
				h8.42c0.15,0,0.29,0.1,0.35,0.24l1.09,2.8c0.04,0.12,0.03,0.25-0.04,0.35c-0.07,0.1-0.19,0.16-0.31,0.16L96.69,373.69z"/>
			<path d="M103.54,370.51l1.09,2.8l-7.94,0l-1.57-2.8H103.54 M103.54,369.76h-8.42c-0.27,0-0.51,0.14-0.65,0.37
				s-0.14,0.51-0.01,0.75l1.57,2.8c0.13,0.24,0.38,0.38,0.65,0.38c0,0,0,0,0,0l7.94,0c0.25,0,0.48-0.12,0.62-0.33
				s0.17-0.46,0.08-0.7l-1.09-2.8C104.13,369.95,103.85,369.76,103.54,369.76L103.54,369.76z"/>
		</g>
		<g>
			<path fill="#FFFFFF" d="M20.1,373.69c-0.1,0-0.2-0.04-0.27-0.11c-0.07-0.07-0.11-0.17-0.11-0.27l0.02-2.8
				c0-0.21,0.17-0.37,0.38-0.37h8.8c0.13,0,0.25,0.07,0.32,0.18c0.07,0.11,0.07,0.25,0.01,0.37l-1.43,2.8
				c-0.06,0.13-0.19,0.2-0.33,0.2L20.1,373.69z"/>
			<path d="M28.93,370.51l-1.43,2.8l-7.39,0l0.02-2.8H28.93 M28.93,369.76h-8.8c-0.41,0-0.75,0.33-0.75,0.74l-0.02,2.8
				c0,0.2,0.08,0.39,0.22,0.53c0.14,0.14,0.33,0.22,0.53,0.22c0,0,0,0,0,0l7.39,0c0.28,0,0.54-0.16,0.67-0.41l1.43-2.8
				c0.12-0.23,0.11-0.51-0.03-0.73C29.43,369.9,29.19,369.76,28.93,369.76L28.93,369.76z M28.93,371.26L28.93,371.26L28.93,371.26
				L28.93,371.26z"/>
		</g>
		<g>
			<path fill="#FFFFFF" d="M18.05,372.8c-0.21,0-0.38-0.17-0.38-0.38v-3.93c0-0.19,0.15-0.36,0.34-0.37c0,0,0.1-0.01,0.27-0.01
				c2.07,0,4.29,1.13,4.29,4.32c0,0.21-0.17,0.38-0.38,0.38H18.05z"/>
			<path d="M18.29,368.49c0.88,0,3.91,0.27,3.91,3.94h-4.15v-3.93C18.05,368.49,18.14,368.49,18.29,368.49 M18.29,367.74
				L18.29,367.74c-0.19,0-0.3,0.01-0.3,0.01c-0.39,0.04-0.68,0.36-0.68,0.75v3.93c0,0.41,0.34,0.75,0.75,0.75h4.15
				c0.41,0,0.75-0.34,0.75-0.75C22.95,368.97,20.55,367.74,18.29,367.74L18.29,367.74z"/>
		</g>
		<g>
			<path fill="#FFFFFF" d="M18.05,372.8c-0.21,0-0.38-0.17-0.38-0.38v-3.15c0-0.19,0.15-0.36,0.34-0.37c0,0,0.08-0.01,0.22-0.01
				c1.69,0,3.51,0.93,3.51,3.53c0,0.21-0.17,0.38-0.38,0.38H18.05z"/>
			<path d="M18.24,369.27c0.71,0,3.13,0.21,3.13,3.15h-3.32v-3.15C18.05,369.28,18.12,369.27,18.24,369.27 M18.24,368.52
				c-0.16,0-0.26,0.01-0.26,0.01c-0.38,0.04-0.68,0.36-0.68,0.75v3.15c0,0.41,0.34,0.75,0.75,0.75h3.32c0.41,0,0.75-0.34,0.75-0.75
				C22.12,369.55,20.03,368.52,18.24,368.52L18.24,368.52z"/>
		</g>
		<g>
			<path fill="#FFFFFF" d="M18.05,371.23c-0.21,0-0.38-0.17-0.38-0.38v-1.57c0-0.19,0.15-0.36,0.34-0.37c0,0,0.08-0.01,0.22-0.01
				c0.54,0,2.38,0.13,3.16,1.79c0.05,0.12,0.05,0.25-0.02,0.36s-0.19,0.17-0.32,0.17H18.05z"/>
			<path d="M18.24,369.27c0.55,0,2.14,0.13,2.82,1.58h-3.01v-1.57C18.05,369.28,18.12,369.27,18.24,369.27 M18.24,368.52
				c-0.16,0-0.26,0.01-0.26,0.01c-0.38,0.04-0.68,0.36-0.68,0.75v1.57c0,0.41,0.34,0.75,0.75,0.75h3.01c0.26,0,0.5-0.13,0.63-0.35
				c0.14-0.22,0.16-0.49,0.05-0.72C20.87,368.67,18.84,368.52,18.24,368.52L18.24,368.52z"/>
		</g>
		<g>
			<path fill="#FFFFFF" d="M18.05,376.66c-1.16,0-2.1-1.06-2.1-2.37c0-1.31,0.94-2.37,2.1-2.37h8.89c0.11,0,0.22,0.05,0.29,0.13
				c0.07,0.09,0.1,0.2,0.08,0.31l-0.73,3.99c-0.03,0.18-0.19,0.31-0.37,0.31H18.05z"/>
			<path d="M26.94,372.29L26.94,372.29 M26.94,372.29l-0.73,3.99h-8.16c-0.95,0-1.72-0.89-1.72-1.99c0-1.1,0.77-1.99,1.72-1.99
				H26.94 M26.95,371.54L26.95,371.54h-8.89c-1.36,0-2.47,1.23-2.47,2.74c0,1.51,1.11,2.74,2.47,2.74h8.16
				c0.36,0,0.67-0.26,0.74-0.61l0.72-3.93c0.02-0.06,0.03-0.13,0.03-0.2C27.69,371.88,27.36,371.54,26.95,371.54L26.95,371.54z
				 M26.94,373.04L26.94,373.04L26.94,373.04L26.94,373.04z"/>
		</g>
		<g>
			<path fill="#FFFFFF" d="M97.61,376.66c-0.18,0-0.34-0.13-0.37-0.31l-0.73-3.99c-0.02-0.11,0.01-0.22,0.08-0.31
				c0.07-0.09,0.18-0.14,0.29-0.14h7.3c1.16,0,2.1,1.06,2.1,2.37c0,1.31-0.94,2.37-2.1,2.37H97.61z"/>
			<path d="M104.18,372.29c0.95,0,1.72,0.89,1.72,1.99c0,1.1-0.77,1.99-1.72,1.99h-6.57l-0.73-3.99H104.18 M104.18,371.54h-7.3
				c-0.22,0-0.43,0.1-0.58,0.27c-0.14,0.17-0.2,0.4-0.16,0.62l0.73,3.99c0.07,0.36,0.38,0.61,0.74,0.61h6.57
				c1.36,0,2.47-1.23,2.47-2.74C106.65,372.78,105.54,371.54,104.18,371.54L104.18,371.54z"/>
		</g>
		<g>
			<path fill="#FFFFFF" d="M79.93,376.16c-0.21,0-0.38-0.17-0.38-0.37c-0.01-4.85,4.13-8.8,9.22-8.81c5.1,0,9.25,3.94,9.25,8.77
				c0,0.1-0.04,0.19-0.11,0.27s-0.17,0.11-0.26,0.11L79.93,376.16z"/>
			<path d="M88.8,367.35c4.89,0,8.85,3.77,8.86,8.4l-17.73,0.03c-0.01-4.64,3.95-8.42,8.85-8.43
				C88.79,367.35,88.79,367.35,88.8,367.35 M88.8,366.6h-0.02c-5.3,0.01-9.61,4.13-9.6,9.18c0,0.2,0.08,0.39,0.22,0.53
				c0.14,0.14,0.33,0.22,0.53,0.22c0,0,0,0,0,0l17.73-0.03c0.2,0,0.39-0.08,0.53-0.22s0.22-0.33,0.22-0.53
				C98.4,370.7,94.09,366.6,88.8,366.6L88.8,366.6z"/>
		</g>
		<g>
			<path fill="#FFFFFF" d="M97.93,376.65l-0.44,0c-0.19,0-0.35-0.15-0.37-0.34c-0.44-4.49-4.02-7.88-8.32-7.88
				c-4.32,0.01-7.89,3.4-8.32,7.88c-0.02,0.19-0.18,0.34-0.37,0.34h-0.44c-0.21,0-0.38-0.17-0.38-0.38
				c-0.01-4.94,4.05-10.48,9.49-10.49c5.45,0,9.52,5.54,9.53,10.49c0,0.1-0.04,0.2-0.11,0.27
				C98.13,376.62,98.03,376.66,97.93,376.65L97.93,376.65z"/>
			<path d="M88.79,366.17c5.04,0,9.13,5.07,9.14,10.11c0,0,0,0,0,0l0,0c0,0,0,0,0,0h-0.44c-0.45-4.6-4.17-8.22-8.69-8.22
				c0,0-0.01,0-0.02,0c-4.52,0.01-8.24,3.61-8.68,8.22h-0.44c0,0,0,0,0,0l0,0c0,0,0,0,0,0c-0.01-5.05,4.07-10.1,9.12-10.11
				C88.79,366.17,88.79,366.17,88.79,366.17 M88.79,365.42L88.79,365.42h-0.02c-2.61,0-5.1,1.22-7.02,3.43
				c-1.81,2.09-2.85,4.8-2.85,7.44c0,0.41,0.34,0.75,0.75,0.75c0.02,0,0.04,0,0.05,0h0.39c0.39,0,0.71-0.29,0.75-0.68
				c0.41-4.29,3.82-7.53,7.93-7.54c4.12,0,7.53,3.24,7.96,7.54c0.04,0.38,0.36,0.68,0.75,0.68h0.39c0.02,0,0.04,0,0.05,0
				c0.41,0,0.75-0.34,0.75-0.75C98.67,371.15,94.44,365.42,88.79,365.42L88.79,365.42z"/>
		</g>
		<g>
			<path fill="#FFFFFF" d="M88.64,383.09c-1.89-0.04-3.64-0.82-4.95-2.18c-1.3-1.36-2-3.15-1.96-5.04c0.08-3.81,3.25-6.91,7.06-6.91
				l0.16,0c1.89,0.04,3.65,0.81,4.95,2.18s2,3.15,1.96,5.04c-0.08,3.81-3.25,6.91-7.06,6.91L88.64,383.09z"/>
			<path d="M88.79,369.34c0.05,0,0.1,0,0.15,0c3.69,0.08,6.62,3.14,6.54,6.84c-0.08,3.64-3.06,6.54-6.69,6.54c-0.05,0-0.1,0-0.15,0
				c-3.69-0.08-6.62-3.14-6.54-6.84C82.19,372.24,85.17,369.34,88.79,369.34 M88.8,368.59L88.8,368.59c-4.01,0-7.35,3.27-7.44,7.28
				c-0.09,4.1,3.17,7.51,7.28,7.6l0.17,0c4.01,0,7.35-3.26,7.44-7.28c0.09-4.1-3.17-7.51-7.28-7.6L88.8,368.59L88.8,368.59z"/>
		</g>
		<g>
			<path fill="#FFFFFF" d="M88.7,380.42c-1.17-0.03-2.27-0.51-3.08-1.35c-0.81-0.85-1.24-1.96-1.22-3.14
				c0.05-2.37,2.02-4.3,4.39-4.3c1.27,0.03,2.36,0.51,3.18,1.36c0.81,0.85,1.24,1.96,1.22,3.14c-0.05,2.37-2.02,4.3-4.39,4.3
				C88.8,380.42,88.7,380.42,88.7,380.42z"/>
			<path d="M88.8,372.01c0.03,0,0.06,0,0.09,0c2.22,0.05,3.98,1.89,3.93,4.11c-0.05,2.19-1.84,3.93-4.02,3.93c-0.03,0-0.06,0-0.09,0
				c-2.22-0.05-3.98-1.89-3.93-4.11C84.83,373.75,86.62,372.01,88.8,372.01 M88.8,371.26c-2.57,0-4.71,2.09-4.77,4.66
				c-0.06,2.63,2.03,4.82,4.66,4.87l0.11,0c2.57,0,4.71-2.09,4.77-4.67c0.03-1.27-0.44-2.48-1.32-3.4
				c-0.88-0.92-2.07-1.44-3.34-1.47L88.8,371.26L88.8,371.26z"/>
		</g>
		<g>
			<path fill="#FFFFFF" d="M88.74,378.85c-0.75-0.02-1.46-0.33-1.98-0.87c-0.52-0.54-0.8-1.26-0.78-2.01
				c0.03-1.52,1.3-2.76,2.82-2.76c0.82,0.02,1.52,0.33,2.04,0.87c0.52,0.54,0.8,1.26,0.78,2.01c-0.03,1.52-1.3,2.76-2.82,2.76
				C88.79,378.85,88.74,378.85,88.74,378.85z"/>
			<path d="M88.8,373.58c0.02,0,0.04,0,0.05,0c1.35,0.03,2.42,1.15,2.39,2.5c-0.03,1.33-1.12,2.39-2.45,2.39c-0.02,0-0.04,0-0.05,0
				c-1.35-0.03-2.42-1.15-2.39-2.5C86.38,374.64,87.47,373.58,88.8,373.58 M88.8,372.83L88.8,372.83c-1.73,0-3.16,1.4-3.2,3.13
				c-0.02,0.85,0.3,1.66,0.89,2.28c0.59,0.62,1.39,0.97,2.24,0.99l0.07,0c1.72,0,3.16-1.4,3.2-3.13c0.02-0.85-0.3-1.66-0.89-2.28
				c-0.59-0.62-1.39-0.97-2.24-0.99L88.8,372.83L88.8,372.83z"/>
		</g>
		<g>
			<path fill="#FFFFFF" d="M26.35,376.16c-0.1,0-0.19-0.04-0.26-0.11c-0.07-0.07-0.11-0.17-0.11-0.27c-0.01-4.85,4.13-8.8,9.22-8.81
				c5.1,0,9.25,3.94,9.25,8.77c0,0.1-0.04,0.19-0.11,0.27s-0.17,0.11-0.27,0.11L26.35,376.16z"/>
			<path d="M35.21,367.35c4.89,0,8.85,3.77,8.86,8.4l-17.73,0.03c-0.01-4.64,3.95-8.42,8.85-8.43
				C35.2,367.35,35.21,367.35,35.21,367.35 M35.21,366.6H35.2c-5.3,0.01-9.61,4.13-9.6,9.18c0,0.2,0.08,0.39,0.22,0.53
				c0.14,0.14,0.33,0.22,0.53,0.22c0,0,0,0,0,0l17.73-0.03c0.41,0,0.75-0.34,0.75-0.75C44.82,370.7,40.5,366.6,35.21,366.6
				L35.21,366.6z"/>
		</g>
		<g>
			<path fill="#FFFFFF" d="M44.35,376.65l-0.44,0c-0.19,0-0.35-0.15-0.37-0.34c-0.44-4.49-4.02-7.88-8.32-7.88
				c-4.32,0.01-7.89,3.4-8.32,7.88c-0.02,0.19-0.18,0.34-0.37,0.34h-0.44c-0.21,0-0.38-0.17-0.38-0.38c0-2.55,1-5.17,2.76-7.19
				c1.85-2.12,4.24-3.29,6.74-3.3c5.45,0,9.52,5.54,9.53,10.49c0,0.1-0.04,0.2-0.11,0.27C44.54,376.62,44.45,376.66,44.35,376.65
				L44.35,376.65z"/>
			<path d="M35.21,366.17c5.04,0,9.13,5.07,9.14,10.11c0,0,0,0,0,0l0,0c0,0,0,0,0,0H43.9c-0.45-4.6-4.17-8.22-8.69-8.22
				c0,0-0.01,0-0.02,0c-4.52,0.01-8.24,3.61-8.68,8.22h-0.44c0,0,0,0,0,0l0,0c0,0,0,0,0,0c-0.01-5.05,4.07-10.1,9.12-10.11
				C35.2,366.17,35.21,366.17,35.21,366.17 M35.21,365.42L35.21,365.42c0,0-0.01,0-0.01,0c-5.27,0.01-9.88,5.09-9.87,10.86
				c0,0.41,0.34,0.75,0.75,0.75c0.02,0,0.04,0,0.05,0h0.39c0.39,0,0.71-0.29,0.75-0.68c0.41-4.29,3.82-7.53,7.93-7.54
				c4.12,0,7.53,3.24,7.96,7.54c0.04,0.38,0.36,0.68,0.75,0.68h0.39c0.02,0,0.04,0,0.05,0c0.41,0,0.75-0.34,0.75-0.75
				C45.09,371.15,40.86,365.42,35.21,365.42L35.21,365.42z"/>
		</g>
		<g>
			<path fill="#FFFFFF" d="M35.06,383.09c-3.89-0.09-6.99-3.32-6.91-7.22c0.08-3.81,3.25-6.91,7.06-6.91l0.16,0
				c3.89,0.09,6.99,3.32,6.91,7.22c-0.08,3.81-3.25,6.91-7.06,6.91L35.06,383.09z"/>
			<path d="M35.21,369.34c0.05,0,0.1,0,0.15,0c3.69,0.08,6.62,3.14,6.54,6.84c-0.08,3.64-3.06,6.54-6.69,6.54c-0.05,0-0.1,0-0.15,0
				c-3.69-0.08-6.62-3.14-6.54-6.84C28.6,372.24,31.58,369.34,35.21,369.34 M35.21,368.59L35.21,368.59c-4.01,0-7.35,3.27-7.44,7.28
				c-0.09,4.1,3.17,7.51,7.28,7.6l0.17,0c4.01,0,7.35-3.26,7.44-7.28c0.09-4.1-3.17-7.51-7.28-7.6L35.21,368.59L35.21,368.59z"/>
		</g>
		<g>
			<path fill="#FFFFFF" d="M35.12,380.42c-1.17-0.03-2.27-0.51-3.08-1.35c-0.81-0.85-1.24-1.96-1.22-3.14
				c0.05-2.37,2.02-4.3,4.39-4.3c1.27,0.03,2.36,0.51,3.18,1.36c0.81,0.85,1.24,1.96,1.22,3.14c-0.05,2.37-2.02,4.3-4.39,4.3
				C35.21,380.42,35.12,380.42,35.12,380.42z"/>
			<path d="M35.21,372.01c0.03,0,0.06,0,0.09,0c2.22,0.05,3.98,1.89,3.93,4.11c-0.05,2.19-1.84,3.93-4.02,3.93
				c-0.03,0-0.06,0-0.09,0c-2.22-0.05-3.98-1.89-3.93-4.11C31.24,373.75,33.03,372.01,35.21,372.01 M35.21,371.26
				c-2.57,0-4.71,2.09-4.77,4.66c-0.03,1.27,0.44,2.48,1.32,3.4c0.88,0.92,2.07,1.44,3.34,1.47l0.11,0c2.57,0,4.71-2.09,4.77-4.67
				c0.03-1.27-0.44-2.48-1.32-3.4c-0.88-0.92-2.07-1.44-3.34-1.47L35.21,371.26L35.21,371.26z"/>
		</g>
		<g>
			<path fill="#FFFFFF" d="M35.15,378.85c-0.75-0.02-1.46-0.33-1.98-0.87c-0.52-0.54-0.8-1.26-0.78-2.01
				c0.03-1.52,1.3-2.76,2.82-2.76c0.82,0.02,1.52,0.33,2.04,0.87c0.52,0.54,0.8,1.26,0.78,2.01c-0.03,1.52-1.3,2.76-2.82,2.76
				C35.21,378.85,35.15,378.85,35.15,378.85z"/>
			<path d="M35.21,373.58c0.02,0,0.04,0,0.05,0c1.35,0.03,2.42,1.15,2.39,2.5c-0.03,1.33-1.12,2.39-2.45,2.39c-0.02,0-0.04,0-0.05,0
				c-1.35-0.03-2.42-1.15-2.39-2.5C32.8,374.64,33.88,373.58,35.21,373.58 M35.21,372.83C35.21,372.83,35.21,372.83,35.21,372.83
				c-1.73,0-3.16,1.4-3.2,3.13c-0.02,0.85,0.3,1.66,0.89,2.28c0.59,0.62,1.39,0.97,2.24,0.99l0.07,0c1.72,0,3.16-1.4,3.2-3.13
				c0.02-0.85-0.3-1.66-0.89-2.28c-0.59-0.62-1.39-0.97-2.24-0.99L35.21,372.83L35.21,372.83z"/>
		</g>
	</g>
	<g id="svg06CarRight">
		<g>
			<path fill="#FFFFFF" d="M315.5,516.55c-0.52,0-0.95-0.42-0.95-0.95v-5.36c0-0.52,0.42-0.95,0.95-0.95h12.51
				c0.52,0,0.95,0.42,0.95,0.95v5.36c0,0.52-0.42,0.95-0.95,0.95H315.5z"/>
			<path d="M328.01,509.67c0.32,0,0.57,0.26,0.57,0.57v5.36c0,0.32-0.26,0.57-0.57,0.57h-12.51c-0.32,0-0.57-0.26-0.57-0.57v-5.36
				c0-0.32,0.26-0.57,0.57-0.57H328.01 M328.01,508.92h-12.51c-0.73,0-1.32,0.59-1.32,1.32v5.36c0,0.73,0.59,1.32,1.32,1.32h12.51
				c0.73,0,1.32-0.59,1.32-1.32v-5.36C329.33,509.51,328.74,508.92,328.01,508.92L328.01,508.92z"/>
		</g>
		<g>
			<path fill="#FFFFFF" d="M328.88,516.55c-0.44,0-0.81-0.36-0.81-0.81v-8.38c0-0.44,0.36-0.81,0.81-0.81h9.74
				c0.44,0,0.81,0.36,0.81,0.81v8.38c0,0.44-0.36,0.81-0.81,0.81H328.88z"/>
			<path d="M338.61,506.93c0.24,0,0.43,0.19,0.43,0.43v8.38c0,0.24-0.19,0.43-0.43,0.43h-9.74c-0.24,0-0.43-0.19-0.43-0.43v-8.38
				c0-0.24,0.19-0.43,0.43-0.43H338.61 M338.61,506.18h-9.74c-0.65,0-1.18,0.53-1.18,1.18v8.38c0,0.65,0.53,1.18,1.18,1.18h9.74
				c0.65,0,1.18-0.53,1.18-1.18v-8.38C339.8,506.71,339.27,506.18,338.61,506.18L338.61,506.18z"/>
		</g>
		<g>
			<path fill="#FFFFFF" d="M321.7,510.04c-0.34,0-0.61-0.27-0.61-0.61v-5.65c0-0.34,0.27-0.61,0.61-0.61h5.31
				c0.34,0,0.61,0.27,0.61,0.61v5.65c0,0.34-0.27,0.61-0.61,0.61H321.7z"/>
			<path d="M327.01,503.55c0.13,0,0.24,0.11,0.24,0.24v5.65c0,0.13-0.11,0.24-0.24,0.24h-5.31c-0.13,0-0.24-0.11-0.24-0.24v-5.65
				c0-0.13,0.11-0.24,0.24-0.24H327.01 M327.01,502.8h-5.31c-0.54,0-0.99,0.44-0.99,0.99v5.65c0,0.54,0.44,0.99,0.99,0.99h5.31
				c0.54,0,0.99-0.44,0.99-0.99v-5.65C327.99,503.24,327.55,502.8,327.01,502.8L327.01,502.8z"/>
		</g>
		<g>
			<path fill="#FFFFFF" d="M334.86,516.55c-0.1,0-0.21-0.04-0.28-0.12l-11.6-12.63c-0.1-0.11-0.13-0.27-0.07-0.4
				c0.06-0.14,0.2-0.22,0.34-0.22h0.71c0.1,0,0.19,0.04,0.26,0.1l13.21,12.63c0.11,0.11,0.15,0.27,0.09,0.41
				c-0.06,0.14-0.19,0.24-0.35,0.24H334.86z"/>
			<path d="M323.97,503.55l13.22,12.63h-2.32l-11.6-12.63H323.97 M323.97,502.8h-0.71c-0.3,0-0.57,0.18-0.69,0.45
				c-0.12,0.27-0.07,0.59,0.13,0.81l11.6,12.63c0.14,0.15,0.34,0.24,0.55,0.24h2.32c0.31,0,0.58-0.19,0.7-0.47
				c0.11-0.28,0.04-0.61-0.18-0.82L324.49,503C324.35,502.87,324.16,502.8,323.97,502.8L323.97,502.8z"/>
		</g>
		<g>
			<path fill="#FFFFFF" d="M328.45,516.55c-0.07,0-0.14-0.02-0.2-0.06l-10.36-6.51c-0.14-0.09-0.21-0.26-0.16-0.42
				c0.05-0.16,0.19-0.27,0.36-0.27h0.71c0.06,0,0.12,0.02,0.18,0.05l11.98,6.51c0.15,0.08,0.23,0.25,0.18,0.42
				c-0.04,0.17-0.19,0.28-0.36,0.28H328.45z"/>
			<path d="M318.79,509.67l11.98,6.51h-2.32l-10.36-6.51H318.79 M318.79,508.92h-0.71c-0.33,0-0.63,0.22-0.72,0.54
				c-0.09,0.32,0.04,0.66,0.32,0.84l10.36,6.51c0.12,0.08,0.26,0.11,0.4,0.11h2.32c0.34,0,0.64-0.23,0.73-0.57
				c0.08-0.33-0.07-0.68-0.37-0.84l-11.98-6.51C319.04,508.95,318.92,508.92,318.79,508.92L318.79,508.92z"/>
		</g>
		<g>
			<path fill="#FFFFFF" d="M319.71,516.55c-0.16,0-0.31-0.11-0.36-0.26c-0.05-0.16,0.01-0.33,0.14-0.42l13.15-9.24
				c0.06-0.04,0.14-0.07,0.22-0.07h0.71c0.16,0,0.3,0.1,0.35,0.25s0,0.32-0.12,0.42l-11.53,9.24c-0.07,0.05-0.15,0.08-0.23,0.08
				H319.71z"/>
			<path d="M333.56,506.93L333.56,506.93 M333.56,506.93l-11.53,9.24h-2.32l13.15-9.24H333.56 M333.57,506.18L333.57,506.18h-0.71
				c-0.15,0-0.3,0.05-0.43,0.14l-13.15,9.24c-0.27,0.19-0.38,0.53-0.28,0.84c0.1,0.31,0.39,0.52,0.72,0.52h2.32
				c0.17,0,0.34-0.06,0.47-0.16l11.51-9.22c0.19-0.14,0.31-0.36,0.31-0.6C334.32,506.52,333.98,506.18,333.57,506.18L333.57,506.18z
				 M333.56,507.68L333.56,507.68L333.56,507.68L333.56,507.68z"/>
		</g>
		<g>
			<path fill="#FFFFFF" d="M313.06,514.9c-0.21,0-0.38-0.17-0.38-0.38v-0.59c0-0.21,0.17-0.38,0.38-0.38h28.04
				c0.21,0,0.38,0.17,0.38,0.38v0.59c0,0.21-0.17,0.38-0.38,0.38H313.06z"/>
			<path d="M341.11,513.93v0.59h-28.04v-0.59H341.11 M341.11,513.18h-28.04c-0.41,0-0.75,0.34-0.75,0.75v0.59
				c0,0.41,0.34,0.75,0.75,0.75h28.04c0.41,0,0.75-0.34,0.75-0.75v-0.59C341.86,513.52,341.52,513.18,341.11,513.18L341.11,513.18z"
				/>
		</g>
		<g>
			<path fill="#FFFFFF" d="M340.74,516.55c-0.21,0-0.38-0.17-0.38-0.38v-2.72c0-0.21,0.17-0.38,0.38-0.38
				c1.01,0,1.83,0.82,1.83,1.83v1.26c0,0.21-0.17,0.38-0.38,0.38H340.74z"/>
			<path d="M340.74,513.46c0.81,0,1.46,0.65,1.46,1.46v1.26h-1.46V513.46 M340.74,512.71c-0.41,0-0.75,0.34-0.75,0.75v2.72
				c0,0.41,0.34,0.75,0.75,0.75h1.46c0.41,0,0.75-0.34,0.75-0.75v-1.26C342.95,513.7,341.96,512.71,340.74,512.71L340.74,512.71z"/>
		</g>
		<g>
			<path fill="#FFFFFF" d="M312.08,516.55c-0.21,0-0.38-0.17-0.38-0.38v-1.26c0-1.01,0.82-1.83,1.83-1.83
				c0.21,0,0.38,0.17,0.38,0.38v2.72c0,0.21-0.17,0.38-0.38,0.38H312.08z"/>
			<path d="M313.54,513.46v2.72h-1.46v-1.26C312.08,514.11,312.73,513.46,313.54,513.46 M313.54,512.71c-1.22,0-2.21,0.99-2.21,2.21
				v1.26c0,0.41,0.34,0.75,0.75,0.75h1.46c0.41,0,0.75-0.34,0.75-0.75v-2.72C314.29,513.04,313.95,512.71,313.54,512.71
				L313.54,512.71z"/>
		</g>
		<g>
			<path fill="#FFFFFF" d="M296.36,531.27c-0.14,0-0.27-0.08-0.33-0.2c-0.06-0.13-0.05-0.28,0.03-0.39
				c4.61-6.38,10.04-13.4,10.09-13.47c0.07-0.09,0.18-0.15,0.3-0.15h3.62c0.21,0,0.38,0.17,0.38,0.38v13.46
				c0,0.21-0.17,0.38-0.38,0.38H296.36z"/>
			<path d="M310.06,517.43v13.46h-13.7c4.66-6.44,10.09-13.46,10.09-13.46H310.06 M310.06,516.68h-3.62c-0.23,0-0.45,0.11-0.59,0.29
				c-0.05,0.07-5.49,7.1-10.1,13.48c-0.16,0.23-0.19,0.53-0.06,0.78c0.13,0.25,0.39,0.41,0.67,0.41h13.7c0.41,0,0.75-0.34,0.75-0.75
				v-13.46C310.81,517.02,310.48,516.68,310.06,516.68L310.06,516.68z"/>
		</g>
		<g>
			<path fill="#FFFFFF" d="M348.57,545.97c-0.16,0-0.31-0.11-0.36-0.26l-1.04-3.33h-13.51l-0.78,3.31
				c-0.04,0.17-0.19,0.29-0.37,0.29h-28.79c-0.16,0-0.3-0.1-0.35-0.25l-1.15-3.34h-13.15l-1.09,3.34c-0.05,0.15-0.19,0.26-0.36,0.26
				h-4.72c-0.21,0-0.38-0.17-0.38-0.38v-9.4c0-1.2,0.63-1.4,2.03-1.85c0.83-0.27,12.1-4.53,12.21-4.57
				c0.04-0.02,0.09-0.02,0.13-0.02l4.97-0.01l6.19-11.89h-1.63c-0.13,0-0.26-0.07-0.33-0.19c-0.07-0.12-0.07-0.26,0-0.38
				c0.05-0.08,1.22-2.04,3.5-2.04h33.66c1.04,0,1.42,0.27,1.85,0.85c0.39,0.52,6.53,12.29,6.98,13.29l0.06,0.13
				c0.31,0.69,0.44,1.01,0.44,2.16v13.92c0,0.21-0.17,0.38-0.38,0.38H348.57z"/>
			<path d="M343.28,515.62c0.88,0,1.17,0.19,1.55,0.7c0.36,0.48,6.53,12.31,6.94,13.23c0.33,0.72,0.46,0.95,0.46,2.13
				c0,0.46,0,13.92,0,13.92h-3.66l-1.12-3.6h-14.08l-0.85,3.6h-28.79l-1.24-3.6h-13.69l-1.17,3.6h-4.72c0,0,0-8.9,0-9.4
				c0-0.88,0.29-1.02,1.77-1.5c0.85-0.28,12.23-4.57,12.23-4.57l5.2-0.01l6.58-12.64h-2.24c0,0,1.08-1.86,3.17-1.86
				C311.71,515.62,342.74,515.62,343.28,515.62 M343.28,514.87h-33.66c-2.49,0-3.77,2.14-3.82,2.23c-0.14,0.23-0.14,0.52,0,0.75
				c0.13,0.23,0.38,0.38,0.65,0.38h1.01l-5.8,11.14l-4.74,0.01c-0.09,0-0.18,0.02-0.26,0.05c-3.93,1.48-11.54,4.35-12.2,4.56
				c-1.43,0.46-2.29,0.74-2.29,2.21v9.4c0,0.41,0.34,0.75,0.75,0.75h4.72c0.32,0,0.61-0.21,0.71-0.52l1-3.08h12.61l1.06,3.09
				c0.1,0.3,0.39,0.51,0.71,0.51h28.79c0.35,0,0.65-0.24,0.73-0.58l0.71-3.02h12.94l0.95,3.07c0.1,0.31,0.39,0.53,0.72,0.53h3.66
				c0.41,0,0.75-0.34,0.75-0.75v-13.92c0-1.22-0.15-1.59-0.47-2.31l-0.06-0.13c-0.29-0.65-6.56-12.75-7.02-13.36
				C344.87,515.12,344.33,514.87,343.28,514.87L343.28,514.87z"/>
		</g>
		<g>
			<path fill="#FFFFFF" d="M321.75,530.5c-0.36,0-0.66-0.3-0.66-0.66v-12.12c0-0.36,0.3-0.66,0.66-0.66h13.67
				c0.36,0,0.66,0.3,0.66,0.66v12.12c0,0.36-0.3,0.66-0.66,0.66H321.75z"/>
			<path d="M335.42,517.43c0.16,0,0.29,0.13,0.29,0.29v12.12c0,0.16-0.13,0.29-0.29,0.29h-13.67c-0.16,0-0.29-0.13-0.29-0.29v-12.12
				c0-0.16,0.13-0.29,0.29-0.29H335.42 M335.42,516.68h-13.67c-0.57,0-1.04,0.46-1.04,1.04v12.12c0,0.57,0.46,1.04,1.04,1.04h13.67
				c0.57,0,1.04-0.46,1.04-1.04v-12.12C336.46,517.15,335.99,516.68,335.42,516.68L335.42,516.68z"/>
		</g>
		<g>
			<path fill="#FFFFFF" d="M304.82,530.5c-0.13,0-0.24-0.06-0.31-0.17c-0.07-0.11-0.08-0.24-0.03-0.35l5.15-12.09
				c0.49-0.8,0.81-0.83,1.56-0.83h7.88c0.36,0,0.66,0.3,0.66,0.66v12.12c0,0.36-0.3,0.66-0.66,0.66H304.82z"/>
			<path d="M319.06,517.43c0.16,0,0.29,0.13,0.29,0.29v12.12c0,0.16-0.13,0.29-0.29,0.29h-14.25l5.15-12.09
				c0.37-0.6,0.54-0.6,1.22-0.6H319.06 M319.06,516.68h-7.88c-0.81,0-1.3,0.04-1.86,0.96c-0.02,0.03-0.04,0.06-0.05,0.1l-5.15,12.09
				c-0.1,0.23-0.07,0.5,0.06,0.71s0.37,0.34,0.63,0.34h14.25c0.57,0,1.04-0.46,1.04-1.04v-12.12
				C320.1,517.15,319.63,516.68,319.06,516.68L319.06,516.68z"/>
		</g>
		<g>
			<path fill="#FFFFFF" d="M339.84,530.5c-1.49,0-1.74-0.55-1.74-1.79v-9.68c0-1.19,0.08-1.97,1.17-1.97h3.57
				c0.75,0,1.8,1.87,4.9,8.71c0.58,1.27,1.08,2.37,1.25,2.66c0.48,0.79,0.75,1.29,0.52,1.71c-0.21,0.36-0.68,0.36-0.84,0.36H339.84z
				"/>
			<path d="M342.85,517.43c1,0,5.18,10.1,5.83,11.19c0.61,1.01,0.85,1.5,0,1.5c-0.71,0-7.62,0-8.84,0c-1.22,0-1.36-0.33-1.36-1.41
				c0-1.08,0-9.68,0-9.68c0-1.32,0.14-1.6,0.8-1.6C339.94,517.43,340.6,517.43,342.85,517.43 M342.85,516.68h-3.57
				c-1.55,0-1.55,1.36-1.55,2.35v9.68c0,1.37,0.35,2.16,2.11,2.16h8.84c0.57,0,0.96-0.19,1.17-0.55c0.35-0.63-0.05-1.3-0.53-2.09
				c-0.16-0.27-0.68-1.41-1.23-2.62C344.58,517.85,343.78,516.68,342.85,516.68L342.85,516.68z"/>
		</g>
		<g>
			<path fill="#FFFFFF" d="M283.37,547.16c-1.54,0-1.85-0.79-1.85-2.08v-5.11c0-0.21,0.17-0.38,0.38-0.38h7.54
				c0.12,0,0.23,0.06,0.3,0.15c0.07,0.1,0.09,0.22,0.06,0.33l-2.12,6.81c-0.05,0.16-0.19,0.26-0.36,0.26H283.37z"/>
			<path d="M289.43,539.97l-2.12,6.81c0,0-2.71,0-3.94,0c-1.23,0-1.48-0.52-1.48-1.7c0-1.18,0-5.11,0-5.11H289.43 M289.43,539.22
				h-7.54c-0.41,0-0.75,0.34-0.75,0.75v5.11c0,1.21,0.26,2.45,2.23,2.45h3.94c0.33,0,0.62-0.21,0.72-0.53l2.12-6.81
				c0.07-0.23,0.03-0.48-0.11-0.67C289.89,539.34,289.67,539.22,289.43,539.22L289.43,539.22z M289.43,540.72L289.43,540.72
				L289.43,540.72L289.43,540.72z"/>
		</g>
		<g>
			<path fill="#FFFFFF" d="M287.81,545.51c-0.21,0-0.38-0.17-0.38-0.38c0-4.38,3.74-7.94,8.34-7.94c4.6,0,8.34,3.56,8.34,7.94
				c0,0.21-0.17,0.38-0.38,0.38H287.81z"/>
			<path d="M295.77,537.58c4.4,0,7.97,3.39,7.97,7.56h-15.93C287.81,540.97,291.37,537.58,295.77,537.58 M295.77,536.83
				c-4.81,0-8.72,3.73-8.72,8.31c0,0.41,0.34,0.75,0.75,0.75h15.93c0.41,0,0.75-0.34,0.75-0.75
				C304.49,540.56,300.58,536.83,295.77,536.83L295.77,536.83z"/>
		</g>
		<g>
			<path fill="#FFFFFF" d="M303.58,545.96c-0.19,0-0.35-0.15-0.37-0.34c-0.39-4.01-3.58-7.03-7.44-7.03c-3.85,0-7.05,3.02-7.44,7.03
				c-0.02,0.19-0.18,0.34-0.37,0.34h-0.4c-0.21,0-0.38-0.17-0.38-0.37c0-2.29,0.89-4.45,2.51-6.08c1.62-1.63,3.78-2.52,6.07-2.52
				c4.73,0,8.58,3.86,8.58,8.6c0,0.21-0.17,0.38-0.38,0.38H303.58z M299.88,543.91c-0.21,0-0.38-0.17-0.38-0.38s0.17-0.38,0.38-0.38
				s0.38,0.17,0.38,0.38S300.08,543.91,299.88,543.91z"/>
			<path d="M295.77,537.36c4.53,0,8.21,3.69,8.21,8.23c0,0,0,0,0,0s0,0,0,0c0,0,0,0,0,0h-0.4c-0.4-4.14-3.74-7.37-7.81-7.37
				c-4.07,0-7.41,3.23-7.81,7.37h-0.4c0,0,0,0,0,0l0,0c0,0,0,0,0,0C287.56,541.06,291.24,537.36,295.77,537.36 M295.77,536.61
				c-4.94,0-8.96,4.03-8.96,8.98c0,0.41,0.34,0.75,0.75,0.75c0.02,0,0.03,0,0.05,0h0.35c0.39,0,0.71-0.29,0.75-0.68
				c0.37-3.82,3.41-6.69,7.06-6.69c3.66,0,6.69,2.88,7.06,6.69c0.04,0.38,0.36,0.68,0.75,0.68h0.35c0.02,0,0.03,0,0.05,0
				c0.41,0,0.75-0.34,0.75-0.75C304.73,540.64,300.71,536.61,295.77,536.61L295.77,536.61z"/>
		</g>
		<g>
			<path fill="#FFFFFF" d="M295.77,551.76c-3.44,0-6.3-2.8-6.38-6.24c-0.04-1.71,0.59-3.32,1.76-4.56c1.18-1.23,2.77-1.94,4.47-1.98
				l0.15,0c3.44,0,6.3,2.8,6.38,6.24c0.08,3.52-2.71,6.45-6.23,6.54L295.77,551.76z"/>
			<path d="M295.77,539.36c3.25,0,5.93,2.6,6.01,5.87c0.08,3.32-2.55,6.07-5.87,6.15c-0.05,0-0.1,0-0.15,0
				c-3.25,0-5.93-2.6-6.01-5.87c-0.08-3.32,2.55-6.07,5.87-6.15C295.68,539.36,295.73,539.36,295.77,539.36 M295.77,538.61l-0.16,0
				c-1.81,0.04-3.49,0.79-4.73,2.09c-1.25,1.31-1.91,3.02-1.87,4.83c0.09,3.64,3.12,6.6,6.76,6.6l0.16,0
				c1.81-0.04,3.49-0.79,4.73-2.09c1.25-1.31,1.91-3.02,1.87-4.83C302.45,541.58,299.41,538.61,295.77,538.61L295.77,538.61z"/>
		</g>
		<g>
			<path fill="#FFFFFF" d="M295.77,549.66c-2.31,0-4.23-1.88-4.28-4.18c-0.06-2.36,1.82-4.33,4.18-4.38c0,0,0.1,0,0.1,0
				c2.31,0,4.23,1.88,4.28,4.18c0.06,2.36-1.82,4.33-4.18,4.38C295.87,549.66,295.77,549.66,295.77,549.66z"/>
			<path d="M295.77,541.47c2.11,0,3.85,1.69,3.9,3.81c0.05,2.16-1.66,3.95-3.81,4c-0.03,0-0.06,0-0.09,0c-2.11,0-3.85-1.69-3.9-3.81
				c-0.05-2.16,1.66-3.95,3.81-4C295.71,541.47,295.74,541.47,295.77,541.47 M295.77,540.72l-0.11,0c-2.57,0.06-4.61,2.2-4.55,4.77
				c0.06,2.51,2.15,4.55,4.65,4.55l0.11,0c1.24-0.03,2.4-0.54,3.26-1.44c0.86-0.9,1.32-2.08,1.29-3.32
				C300.37,542.76,298.28,540.72,295.77,540.72L295.77,540.72z"/>
		</g>
		<g>
			<path fill="#FFFFFF" d="M295.77,549.33c-2.13,0-3.9-1.73-3.95-3.86c-0.05-2.18,1.68-4,3.86-4.05c0,0,0,0,0,0
				c2.22,0,4,1.73,4.05,3.86c0.05,2.18-1.68,4-3.86,4.05C295.86,549.33,295.77,549.33,295.77,549.33z"/>
			<path d="M295.77,541.8c1.94,0,3.53,1.55,3.58,3.49c0.05,1.98-1.52,3.62-3.49,3.66c-0.03,0-0.06,0-0.09,0
				c-1.94,0-3.53-1.55-3.58-3.49c-0.05-1.98,1.52-3.62,3.49-3.66C295.72,541.8,295.74,541.8,295.77,541.8 M295.77,541.05l-0.1,0
				c-1.16,0.03-2.23,0.5-3.03,1.34c-0.8,0.84-1.22,1.93-1.2,3.09c0.06,2.33,2,4.23,4.33,4.23l0.1,0c2.39-0.06,4.28-2.04,4.23-4.43
				C300.04,542.94,298.1,541.05,295.77,541.05L295.77,541.05z"/>
		</g>
		<g>
			<path fill="#FFFFFF" d="M295.77,549.3c-2.13,0-3.9-1.73-3.95-3.86c-0.02-1.06,0.36-2.06,1.09-2.82s1.71-1.2,2.77-1.22
				c0,0,0,0,0,0c2.22,0,4,1.73,4.05,3.86c0.05,2.18-1.68,4-3.86,4.05C295.86,549.3,295.77,549.3,295.77,549.3z"/>
			<path d="M295.77,541.77c1.94,0,3.53,1.55,3.58,3.49c0.05,1.98-1.52,3.62-3.49,3.66c-0.03,0-0.06,0-0.09,0
				c-1.94,0-3.53-1.55-3.58-3.49c-0.05-1.98,1.52-3.62,3.49-3.66C295.72,541.77,295.74,541.77,295.77,541.77 M295.77,541.02l-0.1,0
				c-2.39,0.06-4.28,2.04-4.23,4.43c0.06,2.33,2,4.23,4.33,4.23l0.1,0c2.39-0.06,4.28-2.04,4.23-4.43
				C300.04,542.91,298.1,541.02,295.77,541.02L295.77,541.02z"/>
		</g>
		<g>
			<path fill="#FFFFFF" d="M295.77,548c-1.41,0-2.59-1.15-2.63-2.56c-0.03-1.45,1.12-2.65,2.56-2.69c0,0,0,0,0,0
				c1.48,0,2.65,1.15,2.69,2.56c0.02,0.7-0.24,1.37-0.72,1.88c-0.48,0.51-1.14,0.8-1.84,0.81C295.83,548,295.77,548,295.77,548z"/>
			<path d="M295.77,543.12c1.22,0,2.22,0.97,2.25,2.2c0.03,1.24-0.95,2.27-2.2,2.3c-0.02,0-0.04,0-0.05,0
				c-1.22,0-2.22-0.97-2.25-2.2c-0.03-1.24,0.95-2.27,2.2-2.3C295.73,543.12,295.75,543.12,295.77,543.12 M295.77,542.37l-0.07,0
				c-0.8,0.02-1.55,0.35-2.1,0.93c-0.55,0.58-0.85,1.34-0.83,2.14c0.04,1.62,1.38,2.93,3,2.93l0.07,0c1.65-0.04,2.97-1.42,2.93-3.07
				C298.73,543.69,297.39,542.37,295.77,542.37L295.77,542.37z"/>
		</g>
		<g>
			<path fill="#FFFFFF" d="M349.77,541.73c-0.52,0-0.95-0.42-0.95-0.95v-6.53c0-0.52,0.42-0.95,0.95-0.95h2.63
				c0.52,0,0.95,0.42,0.95,0.95v6.53c0,0.52-0.42,0.95-0.95,0.95H349.77z"/>
			<path d="M352.4,533.69c0.32,0,0.57,0.26,0.57,0.57v6.53c0,0.32-0.26,0.57-0.57,0.57h-2.63c-0.32,0-0.57-0.26-0.57-0.57v-6.53
				c0-0.32,0.26-0.57,0.57-0.57H352.4 M352.4,532.94h-2.63c-0.73,0-1.32,0.59-1.32,1.32v6.53c0,0.73,0.59,1.32,1.32,1.32h2.63
				c0.73,0,1.32-0.59,1.32-1.32v-6.53C353.72,533.53,353.13,532.94,352.4,532.94L352.4,532.94z"/>
		</g>
		<g>
			<path fill="#FFFFFF" d="M348.92,547.16c-0.16,0-0.31-0.11-0.36-0.26l-2.12-6.81c-0.04-0.11-0.01-0.24,0.06-0.33
				c0.07-0.1,0.18-0.15,0.3-0.15h6.16c0.21,0,0.38,0.17,0.38,0.38v5.11c0,1.28-0.31,2.08-1.85,2.08H348.92z"/>
			<path d="M352.97,539.97c0,0,0,3.92,0,5.11c0,1.18-0.25,1.7-1.48,1.7c-1.23,0-2.57,0-2.57,0l-2.12-6.81H352.97 M352.97,539.22
				h-6.16c-0.24,0-0.46,0.11-0.6,0.31c-0.14,0.19-0.18,0.44-0.11,0.67l2.12,6.81c0.1,0.31,0.39,0.53,0.72,0.53h2.57
				c1.96,0,2.23-1.24,2.23-2.45v-5.11C353.72,539.56,353.38,539.22,352.97,539.22L352.97,539.22z"/>
		</g>
		<g>
			<path fill="#FFFFFF" d="M332.51,545.51c-0.21,0-0.38-0.17-0.38-0.38c0-4.38,3.74-7.94,8.34-7.94c4.6,0,8.34,3.56,8.34,7.94
				c0,0.21-0.17,0.38-0.38,0.38H332.51z"/>
			<path d="M340.48,537.58c4.4,0,7.97,3.39,7.97,7.56h-15.93C332.51,540.97,336.08,537.58,340.48,537.58 M340.48,536.83
				c-4.81,0-8.72,3.73-8.72,8.31c0,0.41,0.34,0.75,0.75,0.75h15.93c0.41,0,0.75-0.34,0.75-0.75
				C349.19,540.56,345.28,536.83,340.48,536.83L340.48,536.83z"/>
		</g>
		<g>
			<path fill="#FFFFFF" d="M348.29,545.96c-0.19,0-0.35-0.15-0.37-0.34c-0.39-4.01-3.59-7.03-7.44-7.03s-7.05,3.02-7.44,7.03
				c-0.02,0.19-0.18,0.34-0.37,0.34h-0.4c-0.21,0-0.38-0.17-0.38-0.37c0-2.29,0.89-4.45,2.51-6.08c1.62-1.63,3.78-2.52,6.07-2.52
				c4.73,0,8.58,3.86,8.58,8.6c0,0.21-0.17,0.37-0.37,0.37C348.69,545.96,348.29,545.96,348.29,545.96z"/>
			<path d="M340.48,537.36c4.53,0,8.21,3.69,8.21,8.23c0,0,0,0,0,0l0,0c0,0,0,0,0,0h-0.4c-0.4-4.14-3.74-7.37-7.81-7.37
				s-7.41,3.23-7.81,7.37h-0.4c0,0,0,0,0,0l0,0c0,0,0,0,0,0C332.27,541.06,335.94,537.36,340.48,537.36 M340.48,536.61
				c-4.94,0-8.96,4.03-8.96,8.98c0,0.41,0.34,0.75,0.75,0.75c0.02,0,0.03,0,0.05,0h0.35c0.39,0,0.71-0.29,0.75-0.68
				c0.37-3.82,3.41-6.69,7.06-6.69s6.69,2.88,7.06,6.69c0.04,0.38,0.36,0.68,0.75,0.68h0.35c0.02,0,0.03,0,0.05,0
				c0.41,0,0.75-0.34,0.75-0.75C349.44,540.64,345.42,536.61,340.48,536.61L340.48,536.61z"/>
		</g>
		<g>
			<path fill="#FFFFFF" d="M340.47,551.76c-3.44,0-6.3-2.8-6.38-6.24c-0.08-3.52,2.71-6.45,6.23-6.54l0.15,0
				c3.44,0,6.3,2.8,6.38,6.24c0.08,3.52-2.71,6.45-6.23,6.54L340.47,551.76z"/>
			<path d="M340.48,539.36c3.25,0,5.93,2.6,6.01,5.87c0.08,3.32-2.55,6.07-5.87,6.15c-0.05,0-0.1,0-0.15,0
				c-3.25,0-5.93-2.6-6.01-5.87c-0.08-3.32,2.55-6.07,5.87-6.15C340.38,539.36,340.43,539.36,340.48,539.36 M340.48,538.61l-0.16,0
				c-1.81,0.04-3.49,0.79-4.73,2.09c-1.25,1.31-1.91,3.02-1.87,4.83c0.09,3.64,3.12,6.6,6.76,6.6l0.16,0
				c1.81-0.04,3.49-0.79,4.73-2.09c1.25-1.31,1.91-3.02,1.87-4.83C347.15,541.58,344.12,538.61,340.48,538.61L340.48,538.61z"/>
		</g>
		<g>
			<path fill="#FFFFFF" d="M340.48,549.66c-2.3,0-4.22-1.88-4.28-4.18c-0.06-2.36,1.82-4.33,4.18-4.38c0,0,0.1,0,0.1,0
				c2.3,0,4.22,1.88,4.28,4.18c0.06,2.36-1.82,4.33-4.18,4.38C340.58,549.66,340.48,549.66,340.48,549.66z"/>
			<path d="M340.48,541.47c2.11,0,3.85,1.69,3.9,3.81c0.05,2.16-1.66,3.95-3.81,4c-0.03,0-0.06,0-0.09,0c-2.11,0-3.85-1.69-3.9-3.81
				c-0.05-2.16,1.66-3.95,3.81-4C340.42,541.47,340.45,541.47,340.48,541.47 M340.48,540.72l-0.11,0c-2.57,0.06-4.61,2.2-4.55,4.77
				c0.06,2.51,2.15,4.55,4.65,4.55l0.11,0c1.24-0.03,2.4-0.54,3.26-1.44c0.86-0.9,1.32-2.08,1.29-3.32
				C345.07,542.76,342.98,540.72,340.48,540.72L340.48,540.72z"/>
		</g>
		<g>
			<path fill="#FFFFFF" d="M340.47,549.33c-2.13,0-3.9-1.73-3.95-3.86c-0.03-1.06,0.36-2.06,1.09-2.82c0.73-0.76,1.71-1.2,2.77-1.22
				c0,0,0,0,0,0c2.22,0,3.99,1.73,4.04,3.86c0.05,2.18-1.68,4-3.86,4.05C340.57,549.33,340.48,549.33,340.47,549.33z"/>
			<path d="M340.48,541.8c1.94,0,3.53,1.55,3.58,3.49c0.05,1.98-1.52,3.62-3.49,3.66c-0.03,0-0.06,0-0.09,0
				c-1.94,0-3.53-1.55-3.58-3.49c-0.05-1.98,1.52-3.62,3.49-3.66C340.42,541.8,340.45,541.8,340.48,541.8 M340.48,541.05l-0.1,0
				c-2.39,0.06-4.28,2.04-4.23,4.43c0.06,2.33,2,4.23,4.33,4.23l0.1,0c2.39-0.06,4.28-2.04,4.23-4.43
				C344.75,542.94,342.81,541.05,340.48,541.05L340.48,541.05z"/>
		</g>
		<g>
			<path fill="#FFFFFF" d="M340.47,549.3c-2.13,0-3.9-1.73-3.95-3.86c-0.03-1.06,0.36-2.06,1.09-2.82c0.73-0.76,1.71-1.2,2.77-1.22
				c0,0,0,0,0,0c2.22,0,3.99,1.73,4.04,3.86c0.05,2.18-1.68,4-3.86,4.05C340.57,549.3,340.48,549.3,340.47,549.3z"/>
			<path d="M340.48,541.77c1.94,0,3.53,1.55,3.58,3.49c0.05,1.98-1.52,3.62-3.49,3.66c-0.03,0-0.06,0-0.09,0
				c-1.94,0-3.53-1.55-3.58-3.49c-0.05-1.98,1.52-3.62,3.49-3.66C340.42,541.77,340.45,541.77,340.48,541.77 M340.48,541.02l-0.1,0
				c-2.39,0.06-4.28,2.04-4.23,4.43c0.06,2.33,2,4.23,4.33,4.23l0.1,0c2.39-0.06,4.28-2.04,4.23-4.43
				C344.75,542.91,342.81,541.02,340.48,541.02L340.48,541.02z"/>
		</g>
		<g>
			<path fill="#FFFFFF" d="M340.47,548c-1.42,0-2.59-1.15-2.63-2.56c-0.03-1.45,1.12-2.65,2.56-2.69h0c1.48,0,2.65,1.15,2.69,2.56
				c0.02,0.7-0.24,1.37-0.72,1.88s-1.14,0.8-1.84,0.81C340.53,548,340.48,548,340.47,548z"/>
			<path d="M340.47,543.12c1.22,0,2.22,0.97,2.25,2.2c0.03,1.24-0.95,2.27-2.2,2.3c-0.02,0-0.04,0-0.05,0
				c-1.22,0-2.22-0.97-2.25-2.2c-0.03-1.24,0.95-2.27,2.2-2.3C340.44,543.12,340.46,543.12,340.47,543.12 M340.47,542.37l-0.07,0
				c-1.65,0.04-2.97,1.42-2.93,3.07c0.04,1.62,1.38,2.93,3,2.93l0.07,0c1.65-0.04,2.97-1.42,2.93-3.07
				C343.44,543.69,342.09,542.37,340.47,542.37L340.47,542.37z"/>
		</g>
		<g>
			<path fill="#FFFFFF" d="M350.82,537.69c-0.52,0-0.95-0.42-0.95-0.95v-1.61c0-0.52,0.42-0.95,0.95-0.95h2.15
				c0.21,0,0.38,0.17,0.38,0.38v2.75c0,0.21-0.17,0.38-0.38,0.38H350.82z"/>
			<path d="M352.97,534.57v2.75h-2.15c-0.32,0-0.57-0.26-0.57-0.57v-1.61c0-0.32,0.26-0.57,0.57-0.57H352.97 M352.97,533.82h-2.15
				c-0.73,0-1.32,0.59-1.32,1.32v1.61c0,0.73,0.59,1.32,1.32,1.32h2.15c0.41,0,0.75-0.34,0.75-0.75v-2.75
				C353.72,534.15,353.38,533.82,352.97,533.82L352.97,533.82z"/>
		</g>
		<g>
			<path fill="#FFFFFF" d="M350.82,539.86c-0.52,0-0.95-0.42-0.95-0.95v-0.55c0-0.52,0.42-0.95,0.95-0.95h2.15
				c0.21,0,0.38,0.17,0.38,0.38v1.7c0,0.21-0.17,0.38-0.38,0.38H350.82z"/>
			<path d="M352.97,537.79v1.69h-2.15c-0.32,0-0.57-0.26-0.57-0.57v-0.55c0-0.32,0.26-0.57,0.57-0.57H352.97 M352.97,537.04h-2.15
				c-0.73,0-1.32,0.59-1.32,1.32v0.55c0,0.73,0.59,1.32,1.32,1.32h2.15c0.41,0,0.75-0.34,0.75-0.75v-1.69
				C353.72,537.38,353.38,537.04,352.97,537.04L352.97,537.04z"/>
		</g>
		<g>
			<path fill="#FFFFFF" d="M283.26,539.87c-1.01,0-1.79-1.27-1.79-2.89s0.79-2.89,1.79-2.89s1.79,1.27,1.79,2.89
				S284.27,539.87,283.26,539.87z"/>
			<path d="M283.26,534.46c0.78,0,1.42,1.13,1.42,2.52c0,1.39-0.64,2.52-1.42,2.52c-0.78,0-1.42-1.13-1.42-2.52
				C281.85,535.59,282.48,534.46,283.26,534.46 M283.26,533.71c-1.24,0-2.17,1.4-2.17,3.27c0,1.86,0.93,3.27,2.17,3.27
				c1.24,0,2.17-1.4,2.17-3.27C285.43,535.12,284.5,533.71,283.26,533.71L283.26,533.71z"/>
		</g>
		<g>
			<path fill="#FFFFFF" d="M282.81,539.51c-0.88,0-1.34-1.27-1.34-2.53s0.46-2.54,1.34-2.54c0.88,0,1.34,1.28,1.34,2.54
				S283.69,539.51,282.81,539.51z"/>
			<path d="M282.81,534.82c0.53,0,0.96,0.97,0.96,2.16c0,1.19-0.43,2.16-0.96,2.16c-0.53,0-0.96-0.97-0.96-2.16
				C281.85,535.79,282.28,534.82,282.81,534.82 M282.81,534.07c-1.01,0-1.71,1.2-1.71,2.91c0,1.71,0.7,2.91,1.71,2.91
				s1.71-1.2,1.71-2.91C284.52,535.27,283.82,534.07,282.81,534.07L282.81,534.07z"/>
		</g>
		<g>
			<path fill="#FFFFFF" d="M330.58,533.91c-0.21,0-0.38-0.17-0.38-0.38v-0.14c0-0.49,0.4-0.88,0.88-0.88h2.84
				c0.49,0,0.88,0.4,0.88,0.88v0.14c0,0.21-0.17,0.38-0.38,0.38H330.58z"/>
			<path d="M333.93,532.88c0.28,0,0.51,0.23,0.51,0.51v0.14h-3.86v-0.14c0-0.28,0.23-0.51,0.51-0.51H333.93 M333.93,532.13h-2.84
				c-0.69,0-1.26,0.56-1.26,1.26v0.14c0,0.41,0.34,0.75,0.75,0.75h3.86c0.41,0,0.75-0.34,0.75-0.75v-0.14
				C335.19,532.7,334.63,532.13,333.93,532.13L333.93,532.13z"/>
		</g>
		<g>
			<path fill="#FFFFFF" d="M314.93,533.91c-0.21,0-0.38-0.17-0.38-0.38v-0.14c0-0.49,0.4-0.88,0.88-0.88h2.84
				c0.49,0,0.88,0.4,0.88,0.88v0.14c0,0.21-0.17,0.38-0.38,0.38H314.93z"/>
			<path d="M318.28,532.88c0.28,0,0.51,0.23,0.51,0.51v0.14h-3.86v-0.14c0-0.28,0.23-0.51,0.51-0.51H318.28 M318.28,532.13h-2.84
				c-0.69,0-1.26,0.56-1.26,1.26v0.14c0,0.41,0.34,0.75,0.75,0.75h3.86c0.41,0,0.75-0.34,0.75-0.75v-0.14
				C319.54,532.7,318.98,532.13,318.28,532.13L318.28,532.13z"/>
		</g>
		<g>
			<path fill="#FFFFFF" d="M305.3,531.2c-0.36,0-1.09-0.25-1.24-1.22c-0.02-0.13,0.03-0.26,0.13-0.35l2.86-2.35
				c0.07-0.06,0.15-0.09,0.24-0.09c0.05,0,0.11,0.01,0.16,0.04c0.13,0.06,0.21,0.19,0.21,0.34v0.31c0,0.08-0.02,0.15-0.06,0.21
				l-1.99,2.94C305.54,531.14,305.42,531.2,305.3,531.2z"/>
			<path d="M307.29,527.57v0.31l-1.99,2.94c0,0-0.73,0-0.87-0.9L307.29,527.57 M307.29,526.82c-0.17,0-0.34,0.06-0.48,0.17
				l-2.86,2.35c-0.2,0.17-0.3,0.43-0.26,0.69c0.19,1.21,1.14,1.54,1.61,1.54c0.25,0,0.48-0.12,0.62-0.33l1.99-2.94
				c0.08-0.12,0.13-0.27,0.13-0.42v-0.31c0-0.29-0.17-0.55-0.43-0.68C307.5,526.85,307.39,526.82,307.29,526.82L307.29,526.82z"/>
		</g>
		<g>
			<path fill="#FFFFFF" d="M307.83,529.95c-0.71,0-1.26-0.43-1.26-0.97v-3.34c0-0.55,0.55-0.97,1.26-0.97h0.24
				c0.21,0,0.38,0.17,0.38,0.38v4.53c0,0.21-0.17,0.38-0.38,0.38H307.83z"/>
			<path d="M308.07,525.04v4.53h-0.24c-0.49,0-0.89-0.27-0.89-0.6v-3.34c0-0.33,0.4-0.6,0.89-0.6H308.07 M308.07,524.29h-0.24
				c-0.92,0-1.64,0.59-1.64,1.35v3.34c0,0.76,0.72,1.35,1.64,1.35h0.24c0.41,0,0.75-0.34,0.75-0.75v-4.53
				C308.82,524.63,308.49,524.29,308.07,524.29L308.07,524.29z"/>
		</g>
	</g>
	<g id="svg06HotelLeftText">
		<text transform="matrix(1 0 0 1 56.5977 239.7119)" fill="#E74631" font-family="'Lato', 'Heiti TC', '儷黑 Pro', LiHei Pro', '微軟正黑體', 'Microsoft JhengHei'" font-weight='bold' font-size="16px">平均房價</text>
		
			<text id="svg06HotelLeftNumber" transform="matrix(1 0 0 1 30.5552 266.5806)" fill="#E74631" font-family="'Lato'" font-weight='bold' font-size="25px">3,981NTD</text>
	</g>
	<g id="svg06HotelRightText">
		<text transform="matrix(1 0 0 1 268.2012 442.4326)" fill="#E74631" font-family="'Lato', 'Heiti TC', '儷黑 Pro', LiHei Pro', '微軟正黑體', 'Microsoft JhengHei'" font-weight='bold' font-size="16px">平均房價</text>
		
			<text id="svg06HotelRightNumber" transform="matrix(1 0 0 1 239.8369 469.3008)" fill="#E74631" font-family="'Lato'" font-weight='bold' font-size="26px">3,060NTD</text>
	</g>
</g>
</svg>
