<?xml version="1.0" encoding="utf-8"?>
<!-- Generator: Adobe Illustrator 20.1.0, SVG Export Plug-In . SVG Version: 6.00 Build 0)  -->
<svg version="1.1" id="圖層_1" xmlns="http://www.w3.org/2000/svg" xmlns:xlink="http://www.w3.org/1999/xlink" x="0px" y="0px"
	 viewBox="0 0 375 667" enable-background="new 0 0 375 667" xml:space="preserve">
<rect id="svg05Floor05RightBar" x="285.71" y="216.28" fill="#DBDCDC" stroke="#000000" stroke-width="0.75" stroke-miterlimit="10" width="29.28" height="19.24"/>
<rect id="svg05Floor04RightBar" x="285.71" y="277.37" fill="#DBDCDC" stroke="#000000" stroke-width="0.75" stroke-miterlimit="10" width="3.86" height="19.24"/>
<rect id="svg05Floor03RightBar" x="285.71" y="338.47" fill="#E74631" stroke="#000000" stroke-width="0.75" stroke-miterlimit="10" width="68.5" height="19.24"/>
<rect id="svg05Floor02RightBar" x="285.71" y="399.57" fill="#DBDCDC" stroke="#000000" stroke-width="0.75" stroke-miterlimit="10" width="12.95" height="19.24"/>
<rect id="svg05Floor01RightBar" x="285.71" y="460.67" fill="#DBDCDC" stroke="#000000" stroke-width="0.75" stroke-miterlimit="10" width="3.48" height="19.24"/>
<g>
	<g id="svg05Floor05People">
		<g id="XMLID_1768_">
			<path id="XMLID_1769_" fill="#FFFFFF" stroke="#000000" stroke-width="0.75" stroke-miterlimit="10" d="M164.61,213.7l2.95,4.22
				l-1.92,3.09l-1.75-2.02v9.69h-7.97v-9.25l-1.9,1.77l-1.69-3.88l3.37-3.6h1.99c0,0,0.84,1.92,2.25,1.92
				c1.41,0,2.07-1.92,2.07-1.92H164.61z"/>
		</g>
		<polygon id="XMLID_1770_" fill="#FFFFFF" stroke="#000000" stroke-width="0.75" stroke-miterlimit="10" points="214.93,213.51 
			206.45,213.5 204.16,228.87 208.77,228.87 210.59,218.89 212.26,228.87 216.81,228.87 		"/>
		<g id="XMLID_1771_">
			<path id="XMLID_1772_" fill="#FFFFFF" d="M187.93,196.95c0,0,3.44-1.4,6.61-0.27c3.16,1.13,6.06,12.94,5.73,13.67
				c-0.33,0.74-3.74,3.01-5.32,2.3c-1.58-0.71-4.67-0.71-4.67-0.71s-1.48,1.93-3.21,1c-1.73-0.93-3.76-2.31-3.7-4.17
				C183.43,206.92,185.31,198.53,187.93,196.95z"/>
			<path id="XMLID_1773_" fill="none" stroke="#000000" stroke-width="0.75" stroke-linejoin="round" stroke-miterlimit="10" d="
				M187.43,202.98c0,0-0.24,4.73,1.65,6.22s1.59,2.68,1.59,2.68h2.08c0,0,0.2-1.69,0.99-2.28c0.79-0.6,1.79-0.99,1.98-2.68
				c0.2-1.69,0.04-3.94,0.04-3.94H187.43z"/>
			<path id="XMLID_1774_" fill="none" stroke="#000000" stroke-width="0.75" stroke-linejoin="round" stroke-miterlimit="10" d="
				M190.52,210.94c-0.48,4.04-5.39,1.6-6.54-0.22c-1.14-1.82-0.69-5.71,1.38-10.5c2.07-4.78,5.7-3.97,5.7-3.97s5.28-1.13,6.97,4.97
				c1.69,6.1,3.4,8.82,1.41,10.39c-1.99,1.57-5.77,1.98-6.35-1.07"/>
			<ellipse id="XMLID_1775_" cx="189.05" cy="205.23" rx="0.2" ry="0.32"/>
			<ellipse id="XMLID_1776_" cx="193.9" cy="205.23" rx="0.2" ry="0.32"/>
			<path id="XMLID_1777_" fill="none" stroke="#000000" stroke-width="0.75" stroke-linejoin="round" stroke-miterlimit="10" d="
				M191.43,205.55c0,0-0.6,1.27-0.28,1.67c0.32,0.4,0.47,0.07,0.47,0.07"/>
			<path id="XMLID_1778_" fill="none" stroke="#000000" stroke-width="0.75" stroke-linejoin="round" stroke-miterlimit="10" d="
				M193.21,204.16c0,0,0.71-0.61,1.32,0"/>
			<path id="XMLID_1779_" fill="none" stroke="#000000" stroke-width="0.75" stroke-linejoin="round" stroke-miterlimit="10" d="
				M189.82,204.16c0,0-0.71-0.58-1.43,0"/>
			<path id="XMLID_1780_" fill="none" stroke="#000000" stroke-width="0.75" stroke-linejoin="round" stroke-miterlimit="10" d="
				M190.67,208.1c0,0,0.78,0.61,1.59,0"/>
			<path id="XMLID_1781_" fill="none" stroke="#000000" stroke-width="0.75" stroke-linejoin="round" stroke-miterlimit="10" d="
				M190.27,211.95h3.08c0,0,1.3,1.23,0.32,1.86s-1.98-1.16-1.98-1.16s-0.39,1.2-1.42,1.16
				C189.24,213.77,190.27,211.95,190.27,211.95z"/>
			<path id="XMLID_1782_" fill="none" stroke="#000000" stroke-width="0.75" stroke-linejoin="round" stroke-miterlimit="10" d="
				M187.3,218.59c-0.15,0.21-0.72,1.11-0.98,1.35c-1.29,1.18-3.67,3.48-4.94,3.48c-1.53,0-3.5-0.93-4.66-2.96
				c-1.25-2.2-1.53,1.64-2.88-1.17c-1.35-2.81-0.67-4.38,0.67-4.53s1.57,4.31,1.9,2.39s1.58-1.35,1.25,0s-0.56,2.79-0.56,2.79
				s0.07-3.27,1.42-1.47c1.35,1.8,3.8,3.5,5.83-1c2.02-4.5,2.71-4.53,2.71-4.53s0.02,4.62,0.76,8.68c0.74,4.06,3.37,1.42,3.24,0.95
				c0,0,0.27,0.9,1.2,0.95c0.93,0.05,1.51,0.32,2.27-0.95c0,0,0.71,1,1.82,0.9s1.27-2.32,1.27-3.69s0.12-7.12,0.12-7.12
				s4.36,7.02,4.78,9.81c0,0-0.16,5.48,0,6.85s0.69,2.42-0.74,2.42c-1.42,0-2.85,0.37-2.48-1.32c0.37-1.69,1-1.9,1-1.9
				s0.26-5.17-0.05-6.11c-0.32-0.95-2.64-5.17-2.64-5.17"/>
			<path id="XMLID_1783_" fill="none" stroke="#000000" stroke-width="0.75" stroke-linejoin="round" stroke-miterlimit="10" d="
				M194.54,212.18"/>
			<path id="XMLID_1784_" fill="none" stroke="#000000" stroke-width="0.75" stroke-linejoin="round" stroke-miterlimit="10" d="
				M193.7,212.18"/>
			
				<circle id="XMLID_1785_" fill="none" stroke="#000000" stroke-width="0.75" stroke-linejoin="round" stroke-miterlimit="10" cx="191.72" cy="214.76" r="0.29"/>
			
				<circle id="XMLID_1786_" fill="none" stroke="#000000" stroke-width="0.75" stroke-linejoin="round" stroke-miterlimit="10" cx="191.72" cy="216.23" r="0.29"/>
			
				<polyline id="XMLID_1787_" fill="none" stroke="#000000" stroke-width="0.75" stroke-linejoin="round" stroke-miterlimit="10" points="
				188.89,223.72 188.89,224.47 196.57,224.47 196.36,223.47 			"/>
			<path id="XMLID_1788_" fill="none" stroke="#000000" stroke-width="0.75" stroke-linejoin="round" stroke-miterlimit="10" d="
				M188.89,224.47c0,0-1.7,3.92-2.25,10.05c-0.55,6.12,0.78,16.17,0.78,16.17h4.51c0,0-0.5-16.5,0.8-18.91l1.81,3.89"/>
			<path id="XMLID_1789_" fill="none" stroke="#000000" stroke-width="0.75" stroke-linejoin="round" stroke-miterlimit="10" d="
				M196.57,224.47c0,0,1.88,2.23,2.33,5.28"/>
			<path id="XMLID_1790_" fill="none" stroke="#000000" stroke-width="0.75" stroke-linejoin="round" stroke-miterlimit="10" d="
				M199.1,230.85c0,0,0.65,2.05,0.8,3.47"/>
			<path id="XMLID_1791_" fill="none" stroke="#000000" stroke-width="0.75" stroke-linejoin="round" stroke-miterlimit="10" d="
				M189.25,250.69l0.47,2.89c0,0-5.05-0.28-4.93,2.04h7.14l-0.79-4.93"/>
			
				<line id="XMLID_1792_" fill="none" stroke="#000000" stroke-width="0.75" stroke-linejoin="round" stroke-miterlimit="10" x1="189.41" y1="251.66" x2="191.14" y2="251.66"/>
			
				<line id="XMLID_1793_" fill="none" stroke="#000000" stroke-width="0.75" stroke-linejoin="round" stroke-miterlimit="10" x1="189.72" y1="253.58" x2="191.65" y2="253.88"/>
		</g>
		<g id="XMLID_1797_">
			<path id="XMLID_1798_" fill="#FFFFFF" stroke="#000000" stroke-width="0.75" stroke-miterlimit="10" d="M229.5,213.7l2.95,4.22
				l-1.92,3.09l-1.75-2.02v9.69h-7.97v-9.25l-1.9,1.77l-1.69-3.88l3.37-3.6h1.99c0,0,0.84,1.92,2.25,1.92
				c1.41,0,2.07-1.92,2.07-1.92H229.5z"/>
		</g>
		<g id="svg05Floor05Clothes">
			<g>
				<path fill="#FFFFFF" stroke="#000000" stroke-width="0.75" stroke-miterlimit="10" d="M182.28,210.84l4.73,6.61l-2.99,4.91
					l-2.79-3.16l0.15,15.29l-12.58,0.12l-0.14-14.6l-2.98,2.82l-2.72-6.11l5.27-5.74l3.14-0.03c0,0,1.35,3.01,3.58,2.99
					s3.23-3.06,3.23-3.06L182.28,210.84z"/>
				<g>
					
						<ellipse transform="matrix(1 -9.547613e-03 9.547613e-03 1 -2.076 1.5973)" fill="#E74631" cx="166.26" cy="218.23" rx="1.58" ry="1.58"/>
					
						<ellipse transform="matrix(1 -9.547613e-03 9.547613e-03 1 -2.1131 1.6356)" fill="#E74631" cx="170.25" cy="222.14" rx="1.58" ry="1.58"/>
					
						<ellipse transform="matrix(1 -9.547613e-03 9.547613e-03 1 -2.0377 1.6345)" fill="#E74631" cx="170.17" cy="214.24" rx="1.58" ry="1.58"/>
					
						<ellipse transform="matrix(1 -9.547613e-03 9.547613e-03 1 -2.1503 1.6738)" fill="#E74631" cx="174.23" cy="226.05" rx="1.58" ry="1.58"/>
					
						<ellipse transform="matrix(1 -9.547613e-03 9.547613e-03 1 -2.0749 1.6727)" fill="#E74631" cx="174.16" cy="218.15" rx="1.58" ry="1.58"/>
					
						<ellipse transform="matrix(1 -9.547613e-03 9.547613e-03 1 -2.1886 1.6366)" fill="#E74631" cx="170.32" cy="230.04" rx="1.58" ry="1.58"/>
					<path fill="#E74631" d="M175.84,234.34c0.03-0.13,0.05-0.26,0.05-0.4c-0.01-0.87-0.72-1.57-1.59-1.57
						c-0.87,0.01-1.57,0.72-1.57,1.6c0,0.1,0.02,0.2,0.04,0.3C173.8,234.29,174.82,234.31,175.84,234.34z"/>
					
						<ellipse transform="matrix(1 -9.547613e-03 9.547613e-03 1 -2.1503 1.6738)" fill="#E74631" cx="174.23" cy="226.05" rx="1.58" ry="1.58"/>
					<path fill="#E74631" d="M181.58,210.87c-0.17,0.05-0.36,0.08-0.57,0.08c-0.15,0-0.29-0.02-0.43-0.04
						c0.27,0.51,0.8,0.86,1.41,0.85c0.15,0,0.28-0.03,0.42-0.07C182.09,211.48,181.81,211.2,181.58,210.87z"/>
					
						<ellipse transform="matrix(1 -9.547613e-03 9.547613e-03 1 -2.1503 1.6738)" fill="#E74631" cx="174.23" cy="226.05" rx="1.58" ry="1.58"/>
					<path fill="#E74631" d="M181.25,226.38c-0.03-0.24-0.03-0.49,0-0.73v-0.97c-0.42,0.29-0.7,0.77-0.7,1.32
						c0.01,0.54,0.28,1.01,0.7,1.29V226.38z"/>
					
						<ellipse transform="matrix(1 -9.547613e-03 9.547613e-03 1 -2.0749 1.6727)" fill="#E74631" cx="174.16" cy="218.15" rx="1.58" ry="1.58"/>
					
						<ellipse transform="matrix(1 -9.547613e-03 9.547613e-03 1 -2.0738 1.7482)" fill="#E74631" cx="182.06" cy="218.08" rx="1.58" ry="1.58"/>
					
						<ellipse transform="matrix(1 -9.547613e-03 9.547613e-03 1 -2.1121 1.711)" fill="#E74631" cx="178.15" cy="222.06" rx="1.58" ry="1.58"/>
					<path fill="#E74631" d="M185.68,215.43c-0.41-0.66-0.82-1.28-1.16-1.95c-0.08,0.19-0.13,0.4-0.13,0.62
						c0.01,0.82,0.65,1.49,1.46,1.55C185.79,215.58,185.73,215.51,185.68,215.43z"/>
					
						<ellipse transform="matrix(1 -9.547613e-03 9.547613e-03 1 -2.0366 1.7099)" fill="#E74631" cx="178.07" cy="214.16" rx="1.58" ry="1.58"/>
					<path fill="#E74631" d="M181.58,210.87c-0.17,0.05-0.36,0.08-0.57,0.08c-0.15,0-0.29-0.02-0.43-0.04
						c0.27,0.51,0.8,0.86,1.41,0.85c0.15,0,0.28-0.03,0.42-0.07C182.09,211.48,181.81,211.2,181.58,210.87z"/>
					<path fill="#E74631" d="M175.84,234.34c0.03-0.13,0.05-0.26,0.05-0.4c-0.01-0.87-0.72-1.57-1.59-1.57
						c-0.87,0.01-1.57,0.72-1.57,1.6c0,0.1,0.02,0.2,0.04,0.3C173.8,234.29,174.82,234.31,175.84,234.34z"/>
					<path fill="#E74631" d="M181.58,234.56c0.01,0,0.01-0.01,0.02-0.01c-0.34-0.65-0.36-1.39-0.13-2.06
						c-0.5,0.27-0.84,0.79-0.84,1.4c0,0.23,0.06,0.44,0.15,0.63C181.05,234.54,181.31,234.55,181.58,234.56z"/>
					
						<ellipse transform="matrix(1 -9.547613e-03 9.547613e-03 1 -2.1875 1.7121)" fill="#E74631" cx="178.22" cy="229.97" rx="1.58" ry="1.58"/>
					
						<ellipse transform="matrix(1 -9.547613e-03 9.547613e-03 1 -2.1503 1.6738)" fill="#E74631" cx="174.23" cy="226.05" rx="1.58" ry="1.58"/>
					<path fill="#E74631" d="M181.25,226.38c-0.03-0.24-0.03-0.49,0-0.73v-0.97c-0.42,0.29-0.7,0.77-0.7,1.32
						c0.01,0.54,0.28,1.01,0.7,1.29V226.38z"/>
				</g>
			</g>
			<path id="XMLID_1799_" fill="#FFFFFF" stroke="#000000" stroke-width="0.75" stroke-miterlimit="10" d="M177.97,211.76
				c0,0-0.73-1.18-2.78-1.1c-2.06,0.08-1.43,5.57,1.31,4.76C179.24,214.61,177.97,211.76,177.97,211.76z"/>
		</g>
	</g>
	<rect x="120.5" y="227.18" fill="#FFFFFF" width="141.51" height="71.28"/>
	<g id="svg05Floor05">
		
			<rect x="120.4" y="225.96" transform="matrix(-1 -3.235158e-11 3.235158e-11 -1 382.5118 481.4538)" fill="#FFFFFF" stroke="#000000" stroke-width="0.75" stroke-linejoin="round" stroke-miterlimit="10" width="141.72" height="29.53"/>
		<g>
			
				<text transform="matrix(1 0 0 1 137.3291 246.4473)" font-family="'MicrosoftJhengHeiBold'" font-size="14px" letter-spacing="1">服飾或相關配件</text>
		</g>
		
			<rect x="120.59" y="253.41" transform="matrix(-1 -3.224588e-11 3.224588e-11 -1 382.5823 508.9044)" fill="#FFFFFF" stroke="#000000" stroke-width="0.75" stroke-linejoin="round" stroke-miterlimit="10" width="141.39" height="2.08"/>
	</g>
</g>
<g>
	<g id="svg05Floor04People">
		
			<rect x="148.82" y="262.21" fill="#FFFFFF" stroke="#000000" stroke-width="0.75" stroke-linejoin="round" stroke-miterlimit="10" width="25.06" height="35.51"/>
		
			<rect x="205.43" y="262.21" fill="#FFFFFF" stroke="#000000" stroke-width="0.75" stroke-linejoin="round" stroke-miterlimit="10" width="25.06" height="35.51"/>
		
			<rect x="148.82" y="261.79" fill="#FFFFFF" stroke="#000000" stroke-width="0.75" stroke-linejoin="round" stroke-miterlimit="10" width="81.7" height="7.2"/>
		<g id="XMLID_1800_">
			<polygon id="XMLID_1801_" fill="#FFFFFF" points="183.31,276.82 184.31,280.11 184.27,281.71 184.86,284.84 184.29,288.86 
				194.05,288.65 192.7,286.57 192.33,284.34 193.15,280.96 195.97,278.84 194.46,277.11 192.51,276.64 188.72,276.64 
				187.07,276.22 186.24,275.84 			"/>
			<path id="XMLID_1803_" fill="#FFFFFF" d="M183.08,277.11c0,0-3.01,10.52-2.89,13.42c0.15,3.45,0.94,6.16,0.39,7.23
				c-0.55,1.07-2.59,2.68-1.07,3.57c1.51,0.88,3.03,0.44,3.36-1.45l0.59-5.61l-0.89-4.53l1.71-8.45l0.34-2.64L183.08,277.11z"/>
			<path id="XMLID_1804_" fill="#FFFFFF" d="M190.01,257.73c0,0-4.44,1.39-5.37,3.45c-0.93,2.06,0.29,3.73,0.17,5.47
				s-0.49,4.82,1.56,6.25c2.05,1.43,1.09,4.75,2.81,3.5c1.72-1.25,1.06-1.35,2.24-2.41c1.18-1.06,2.61-0.58,3.39-0.95
				c0.77-0.37,4.29,1.25,4.29,1.25s0.11,2.84,1.1,0c0.99-2.84-1.3-8.44-1.3-8.44S197.67,257.5,190.01,257.73z"/>
			<g id="XMLID_1805_">
				<path id="XMLID_1806_" fill="none" stroke="#000000" stroke-width="0.75" stroke-linejoin="round" stroke-miterlimit="10" d="
					M194.56,268.39c0,0,1.56-0.09,1.12,1.48s-0.71,0.45-1.33,1.08c-0.83,0.82-1.37,1.75-2.37,2.55c-1.73,1.39-1.13,1.84-1.13,1.84"
					/>
				<path id="XMLID_1807_" fill="none" stroke="#000000" stroke-width="0.75" stroke-linejoin="round" stroke-miterlimit="10" d="
					M196.17,268.15c-1.22,1.45-2.25-1.19-3.27-2.14c-1.03-0.94-2.97-0.73-3.64-2.62c-0.58-1.64-0.33-2.8-0.33-2.8
					s-0.89,0.2-1.44,0.55c-0.55,0.35-2.34,3.41-2.34,3.41s-1.31,5.96,0.58,7.71c1.9,1.75,1.66,2.8,1.66,2.8"/>
				<path id="XMLID_1808_" fill="none" stroke="#000000" stroke-width="0.75" stroke-linejoin="round" stroke-miterlimit="10" d="
					M197.64,279.74c4.63,0.9,2.93-10.78,0.17-17.26c-2.76-6.49-8.83-4.55-8.83-4.55s-4.28,0.86-4.61,4.55
					c-0.39,4.42,0.44,4.17,0.44,4.17"/>
				<ellipse id="XMLID_1809_" cx="186.37" cy="266.97" rx="0.26" ry="0.45"/>
				<ellipse id="XMLID_1810_" cx="191.12" cy="267.7" rx="0.26" ry="0.45"/>
				<path fill="none" stroke="#000000" stroke-width="0.75" stroke-miterlimit="10" d="M187.77,265.81c0,0-0.85-1.02-1.85-0.62"/>
				
					<line id="XMLID_1811_" fill="none" stroke="#000000" stroke-width="0.75" stroke-miterlimit="10" x1="190.59" y1="266.52" x2="191.68" y2="266.01"/>
				<path id="XMLID_1812_" fill="none" stroke="#000000" stroke-width="0.75" stroke-miterlimit="10" d="M188.73,267.86
					c0,0-1.11,1.05-0.67,1.79"/>
				<path id="XMLID_1813_" fill="none" stroke="#000000" stroke-width="0.75" stroke-miterlimit="10" d="M189.47,271
					c0,0-1.36,0.68-2.82-0.32"/>
				<path id="XMLID_1814_" fill="none" stroke="#000000" stroke-width="0.75" stroke-linejoin="round" stroke-miterlimit="10" d="
					M188.35,276.64c0,0,1.05-1.27,3.33-1.59v1.59H188.35z"/>
				<path id="XMLID_1815_" fill="none" stroke="#000000" stroke-width="0.75" stroke-linejoin="round" stroke-miterlimit="10" d="
					M188.35,276.64c0,0-0.49-1.56-1.72-2.29l0.02,1.5L188.35,276.64z"/>
				<path id="XMLID_1816_" fill="none" stroke="#000000" stroke-width="0.75" stroke-linejoin="round" stroke-miterlimit="10" d="
					M185.4,278.22c0,0-1.83,0.71-1.13,3.49s0.29,5.37-0.16,8.31c-0.59,3.89-0.85,4.88-1.03,6.25s-0.52,11.14-0.52,11.14
					s8.23,1.47,9.37,0.87l1.58,0.18l0,0h1.4c0,0-0.13-11.79,0.13-12.99c0.26-1.2,0.5-3.32-0.28-5.45c-0.79-2.14-2.55-3.14-2.46-5.25
					c0.09-2.1,1.58-4.79,0.97-6.39"/>
				<path id="XMLID_1817_" fill="none" stroke="#000000" stroke-width="0.75" stroke-linejoin="round" stroke-miterlimit="10" d="
					M191.68,276.64c0,0,3.22-0.37,4.49,2.07c0,0-2.57,1.53-2.72,3"/>
				<path id="XMLID_1818_" fill="none" stroke="#000000" stroke-width="0.75" stroke-linejoin="round" stroke-miterlimit="10" d="
					M186.65,275.85c0,0-2.63-0.18-3.57,1.26c0,0,0.87,0.31,1.03,2.46"/>
				<path id="XMLID_1819_" fill="none" stroke="#000000" stroke-width="0.75" stroke-linejoin="round" stroke-miterlimit="10" d="
					M183.08,277.11c0,0-3.01,10.52-2.89,13.42c0.15,3.45,0.94,6.16,0.39,7.23c-0.55,1.07-2.59,2.68-1.07,3.57
					c1.51,0.88,3.03,0.44,3.36-1.45"/>
				<path id="XMLID_1820_" fill="none" stroke="#000000" stroke-width="0.75" stroke-linejoin="round" stroke-miterlimit="10" d="
					M184.27,281.71c0,0-2.01,6.91-1.49,9.37c0.52,2.46,0.51,3.86,0.51,3.86"/>
				<path id="XMLID_1821_" fill="none" stroke="#000000" stroke-width="0.75" stroke-linejoin="round" stroke-miterlimit="10" d="
					M196.17,278.72c0,0,2.42,2.01,4.57,5.33c3.55,5.48-3.83,9.27-3.83,9.27s-1.71,1.45-1.16,2.67c0.54,1.22,1.22,2.78,0,2.57
					c-0.94-0.16-0.94-0.16-0.94-0.16"/>
				<path id="XMLID_1822_" fill="none" stroke="#000000" stroke-width="0.75" stroke-linejoin="round" stroke-miterlimit="10" d="
					M193.92,280.64c0,0,5.64,4.45,5.15,7.09c-0.49,2.64-3.78,4.76-3.78,4.76"/>
				
					<line id="XMLID_1827_" fill="none" stroke="#000000" stroke-width="0.75" stroke-linejoin="round" stroke-miterlimit="10" x1="194.05" y1="288.65" x2="184.31" y2="288.65"/>
			</g>
		</g>
		
			<ellipse transform="matrix(0.2866 -0.958 0.958 0.2866 -132.1881 374.3925)" fill="#FFFFFF" stroke="#000000" stroke-width="0.75" stroke-linejoin="round" stroke-miterlimit="10" cx="185.31" cy="275.96" rx="1.2" ry="1.2"/>
		
			<ellipse transform="matrix(0.2866 -0.958 0.958 0.2866 -134.4044 376.3474)" fill="#FFFFFF" stroke="#000000" stroke-width="0.75" stroke-linejoin="round" stroke-miterlimit="10" cx="185.51" cy="278.43" rx="1.2" ry="1.2"/>
		
			<ellipse transform="matrix(0.2866 -0.958 0.958 0.2866 -135.494 379.2648)" fill="#FFFFFF" stroke="#000000" stroke-width="0.75" stroke-linejoin="round" stroke-miterlimit="10" cx="186.93" cy="280.62" rx="1.2" ry="1.2"/>
		
			<ellipse transform="matrix(0.2866 -0.958 0.958 0.2866 -134.4911 382.018)" fill="#FFFFFF" stroke="#000000" stroke-width="0.75" stroke-linejoin="round" stroke-miterlimit="10" cx="189.28" cy="281.32" rx="1.2" ry="1.2"/>
		
			<ellipse transform="matrix(0.2866 -0.958 0.958 0.2866 -131.5462 382.322)" fill="#FFFFFF" stroke="#000000" stroke-width="0.75" stroke-linejoin="round" stroke-miterlimit="10" cx="190.96" cy="279.49" rx="1.2" ry="1.2"/>
		
			<ellipse transform="matrix(0.2866 -0.958 0.958 0.2866 -128.448 381.8048)" fill="#FFFFFF" stroke="#000000" stroke-width="0.75" stroke-linejoin="round" stroke-miterlimit="10" cx="192.16" cy="277.15" rx="1.2" ry="1.2"/>
		
			<circle id="XMLID_1828_" fill="#FFFFFF" stroke="#000000" stroke-width="0.75" stroke-miterlimit="10" cx="194.35" cy="271.22" r="0.99"/>
		<path id="XMLID_1829_" fill="#FFFFFF" stroke="#000000" stroke-width="0.75" stroke-linejoin="round" stroke-miterlimit="10" d="
			M163.61,273.36c-1-0.46-1.08-2.16-1.08-2.16h-2.87c-0.44,1.69-1.55,2.16-1.55,2.16s-4.69,1.84-4.54,5.3h14.64
			C168.2,278.65,167.93,275.33,163.61,273.36z"/>
		<path id="XMLID_1830_" fill="none" stroke="#000000" stroke-width="0.75" stroke-linejoin="round" stroke-miterlimit="10" d="
			M158.58,272.64c0,0-2.02-0.64-1.4,1.16s3.7,2.99,3.7,2.99s2.88-2.11,3.38-3.11s-0.21-1.84-1.24-0.86"/>
		
			<polygon id="XMLID_1831_" fill="#FFFFFF" stroke="#000000" stroke-width="0.75" stroke-linejoin="round" stroke-miterlimit="10" points="
			160.88,276.98 160.24,278.09 161.1,279.75 161.91,277.97 		"/>
		<g id="svg05Floor04Ruby">
			<polygon fill="#E74631" stroke="#000000" stroke-width="0.75" stroke-linejoin="round" stroke-miterlimit="10" points="
				209.34,265.59 203.76,270.53 215.12,283.92 226.68,271.03 220.81,265.84 			"/>
			
				<line fill="none" stroke="#000000" stroke-width="0.75" stroke-linejoin="round" stroke-miterlimit="10" x1="203.76" y1="270.53" x2="225.86" y2="271.01"/>
			<polyline fill="none" stroke="#000000" stroke-width="0.75" stroke-linejoin="round" stroke-miterlimit="10" points="
				213.02,265.67 210.32,270.67 215.12,283.92 			"/>
			<polyline fill="none" stroke="#000000" stroke-width="0.75" stroke-linejoin="round" stroke-miterlimit="10" points="
				218.01,265.78 220.49,270.89 215.12,283.92 			"/>
		</g>
	</g>
	<rect x="120.5" y="290.31" fill="#FFFFFF" width="141.51" height="71.28"/>
	<g id="svg05Floor04">
		
			<rect x="120.5" y="285.77" fill="#FFFFFF" stroke="#000000" stroke-width="0.75" stroke-linejoin="round" stroke-miterlimit="10" width="141.51" height="30.55"/>
		
			<rect x="120.56" y="314.24" transform="matrix(-1 -3.226498e-11 3.226498e-11 -1 382.5118 630.5608)" fill="#FFFFFF" stroke="#000000" stroke-width="0.75" stroke-linejoin="round" stroke-miterlimit="10" width="141.39" height="2.08"/>
		<g>
			
				<text transform="matrix(1 0 0 1 144.9941 306.8591)" font-family="'MicrosoftJhengHeiBold'" font-size="14px" letter-spacing="1">珠寶或玉器類</text>
		</g>
	</g>
</g>
<g>
	<g id="svg05Floor03People">
		
			<rect x="150.6" y="324.54" transform="matrix(-1 -4.492197e-11 4.492197e-11 -1 382.8271 680.3055)" fill="#FFFFFF" stroke="#000000" stroke-width="0.75" stroke-linejoin="round" stroke-miterlimit="10" width="81.63" height="31.22"/>
		
			<rect x="207.82" y="349.15" transform="matrix(-1 -4.489132e-11 4.489132e-11 -1 436.6283 704.7574)" fill="none" stroke="#000000" stroke-width="0.75" stroke-linejoin="round" stroke-miterlimit="10" width="20.99" height="6.45"/>
		
			<rect x="207.82" y="342.58" transform="matrix(-1 -4.489132e-11 4.489132e-11 -1 436.6283 691.6161)" fill="none" stroke="#000000" stroke-width="0.75" stroke-linejoin="round" stroke-miterlimit="10" width="20.99" height="6.45"/>
		
			<rect x="207.82" y="335.92" transform="matrix(-1 -4.480473e-11 4.480473e-11 -1 436.6283 678.2875)" fill="none" stroke="#000000" stroke-width="0.75" stroke-linejoin="round" stroke-miterlimit="10" width="20.99" height="6.45"/>
		<polygon id="XMLID_1840_" fill="#FFFFFF" points="186.27,337.09 193.27,335.98 192.66,331.83 193.21,327.08 193.43,324.42 
			191.26,321.21 188.67,319.68 186.43,318.64 183.07,319.19 182.4,318.59 180.51,320.95 178.11,324.42 177.1,329.73 178.15,334.57 
			182.74,337.09 		"/>
		<path id="XMLID_1841_" fill="none" stroke="#000000" stroke-width="0.75" stroke-linejoin="round" stroke-miterlimit="10" d="
			M201.14,352.02"/>
		
			<rect x="202.88" y="350.66" transform="matrix(-1 -4.512891e-11 4.512891e-11 -1 422.167 706.3607)" fill="#FFFFFF" stroke="#000000" stroke-width="0.75" stroke-linejoin="round" stroke-miterlimit="10" width="16.4" height="5.04"/>
		
			<rect x="202.88" y="345.52" transform="matrix(-1 -4.535096e-11 4.535096e-11 -1 422.167 696.0897)" fill="#FFFFFF" stroke="#000000" stroke-width="0.75" stroke-linejoin="round" stroke-miterlimit="10" width="16.4" height="5.04"/>
		
			<rect x="202.88" y="340.31" transform="matrix(-1 -4.446367e-11 4.446367e-11 -1 422.167 685.6724)" fill="#FFFFFF" stroke="#000000" stroke-width="0.75" stroke-linejoin="round" stroke-miterlimit="10" width="16.4" height="5.04"/>
		<g id="svg05Floor03Pineapple">
			<polygon fill="#E74631" stroke="#000000" stroke-width="0.75" stroke-linejoin="round" stroke-miterlimit="10" points="
				173.87,324.08 174.34,353.82 171.72,351.02 169.64,353.2 168.55,349.63 166.09,352.92 165.13,348.92 161.84,352.2 160.05,349.3 
				157.79,352.38 157.79,323.95 			"/>
			
				<ellipse transform="matrix(0.6883 -0.7254 0.7254 0.6883 -194.6701 226.2905)" fill="#FFFFFF" stroke="#000000" stroke-width="0.75" stroke-linejoin="round" stroke-miterlimit="10" cx="165.99" cy="339.67" rx="4.68" ry="4.68"/>
			<path fill="#FFFFFF" stroke="#000000" stroke-width="0.75" stroke-linejoin="round" stroke-miterlimit="10" d="M168.03,335.46
				c0,0,1.45-3.72,3.37-3.55c0,0-2.19-0.33-3.09,0.43c0,0,1.44-4.21,3-4.23c0,0-2.94,0.66-4.39,3.79l-0.19-5.95l-1.19,3.08
				l-2.88-2.73c0,0,2.64,4.15,1.82,5.49c0,0-1.69-1.86-2.66-0.66c0,0,4.01,3.65,3.04,4.01L168.03,335.46z"/>
			
				<line fill="#FFFFFF" stroke="#000000" stroke-width="0.75" stroke-linejoin="round" stroke-miterlimit="10" x1="166.3" y1="336.52" x2="163.27" y2="339.71"/>
			
				<line fill="#FFFFFF" stroke="#000000" stroke-width="0.75" stroke-linejoin="round" stroke-miterlimit="10" x1="168.56" y1="338.65" x2="164.77" y2="342.16"/>
			
				<line fill="#FFFFFF" stroke="#000000" stroke-width="0.75" stroke-linejoin="round" stroke-miterlimit="10" x1="168.91" y1="340.66" x2="164.8" y2="336.75"/>
			
				<line fill="#FFFFFF" stroke="#000000" stroke-width="0.75" stroke-linejoin="round" stroke-miterlimit="10" x1="167.21" y1="342.46" x2="163.24" y2="338.4"/>
		</g>
		<g id="XMLID_1843_">
			<g id="XMLID_1845_">
				<ellipse transform="matrix(0.0576 -0.9983 0.9983 0.0576 -146.9749 500.7481)" cx="191.76" cy="328.23" rx="0.39" ry="0.24"/>
				<ellipse transform="matrix(0.0576 -0.9983 0.9983 0.0576 -151.9197 496.5168)" cx="187.05" cy="328.73" rx="0.39" ry="0.24"/>
				<path fill="none" stroke="#000000" stroke-width="0.75" stroke-linejoin="round" stroke-miterlimit="10" d="M188,337.3
					c0.13-2.31,2.65-1.51,4.52-3.79c1.86-2.28,0.38-7.27,0.38-7.27s-0.02-2.6-1.22-3.26s-4.02-2-6.77-0.63
					c-2.46,1.23-2.28,5.73-2.28,5.73s-1.08-0.27-1.08,1.99s1.31,1.47,1.31,1.47s2.98,3.63,2.88,5.35c0,0-0.31,1.94,1.06,2.09
					C188.18,339.13,188,337.3,188,337.3z"/>
				<path fill="none" stroke="#000000" stroke-width="0.75" stroke-miterlimit="10" d="M190.41,326.23c0,0,1.13-0.71,2.18,0.13"/>
				<path fill="none" stroke="#000000" stroke-width="0.75" stroke-miterlimit="10" d="M187.72,326.37c0,0-0.7-0.72-2.33,0.41"/>
				<path fill="none" stroke="#000000" stroke-width="0.75" stroke-miterlimit="10" d="M189.77,329.32c0,0,0.84,0.52,0.68,1.1
					c-0.16,0.58-0.41,0.75-0.41,0.75"/>
				<path fill="none" stroke="#000000" stroke-width="0.75" stroke-miterlimit="10" d="M188.13,331.93c0,0,2.26,1,3.41-0.11"/>
				<path fill="none" stroke="#000000" stroke-width="0.75" stroke-miterlimit="10" d="M191.68,322.98c0,0-1.69-2.7-2.84-3.33
					c-1.15-0.63-0.58,0.53-0.58,0.53s-3.24-1.31-2.91-0.48c0.33,0.83-2.45,0.17-2.45,0.79c0,0.62-2.09,1.23-1.94,1.87
					s-2.36,2.02-1.62,3.23s-0.64,2.38,0.07,3.13c0.7,0.75-0.29,1.81,0.54,2.42c0.84,0.61,2.23,3.91,4.99,3.42"/>
				<path id="XMLID_1846_" fill="none" stroke="#000000" stroke-width="0.75" stroke-miterlimit="10" d="M188.14,337.21
					c0,0,4-0.53,4.42,2.53"/>
				
					<polyline id="XMLID_1847_" fill="none" stroke="#000000" stroke-width="0.75" stroke-linejoin="round" stroke-miterlimit="10" points="
					182.52,355.14 183.56,358.77 186.67,358.77 				"/>
				<path id="XMLID_1848_" fill="none" stroke="#000000" stroke-width="0.75" stroke-linejoin="round" stroke-miterlimit="10" d="
					M197.43,349.13c0,0,1.43,6.01,0.11,8.97l-8.75,0.67"/>
				
					<polygon id="XMLID_1849_" fill="none" stroke="#000000" stroke-width="0.75" stroke-linejoin="round" stroke-miterlimit="10" points="
					182.52,358.77 186.07,361.37 186.93,361.49 188.14,361.65 187.75,371.35 185.33,371.35 180.63,366.41 				"/>
				
					<line id="XMLID_1850_" fill="none" stroke="#000000" stroke-width="0.75" stroke-linejoin="round" stroke-miterlimit="10" x1="186.07" y1="362.73" x2="186.07" y2="369.8"/>
				
					<line id="XMLID_1851_" fill="none" stroke="#000000" stroke-width="0.75" stroke-linejoin="round" stroke-miterlimit="10" x1="182.52" y1="358.77" x2="186.33" y2="360.29"/>
				
					<line id="XMLID_1852_" fill="none" stroke="#000000" stroke-width="0.75" stroke-linejoin="round" stroke-miterlimit="10" x1="182.24" y1="354.84" x2="182.03" y2="360.75"/>
				
					<polyline id="XMLID_1853_" fill="none" stroke="#000000" stroke-width="0.75" stroke-linejoin="round" stroke-miterlimit="10" points="
					197.53,358.1 197.3,359.58 188.44,360.29 				"/>
				
					<polyline id="XMLID_1856_" fill="none" stroke="#000000" stroke-width="0.75" stroke-linejoin="round" stroke-miterlimit="10" points="
					198.82,345.98 200.65,353.07 198.08,354.15 				"/>
				<path id="XMLID_1857_" fill="none" stroke="#000000" stroke-width="0.75" stroke-linejoin="round" stroke-miterlimit="10" d="
					M200.65,353.07l0.89,8.57c0,0,1.62,2.2,0.89,3.38s-2.78,1.77-3.05,0.43"/>
				
					<line id="XMLID_1858_" fill="none" stroke="#000000" stroke-width="0.75" stroke-linejoin="round" stroke-miterlimit="10" x1="197.89" y1="356.95" x2="198.32" y2="361.65"/>
				
					<rect x="191.14" y="334.1" fill="#FFFFFF" stroke="#000000" stroke-width="0.75" stroke-miterlimit="10" width="15.21" height="9.49"/>
				
					<circle id="XMLID_1860_" fill="#FFFFFF" stroke="#000000" stroke-width="0.75" stroke-miterlimit="10" cx="195.95" cy="339" r="2.97"/>
				
					<path id="XMLID_1861_" fill="#FFFFFF" stroke="#000000" stroke-width="0.75" stroke-linejoin="round" stroke-miterlimit="10" d="
					M190.1,351.49c0,0,4.95-3.55,5.23-4.79c0.28-1.24-0.23-3.17-0.23-3.17s0.55,0.16,1.1,0c0.55-0.16,0.14-3.6,1.65-3.19
					s2.27,2.73,1.3,4.8c-0.96,2.08-0.43,2.84-2.94,5.34c-2.05,2.04-4.79,3.66-4.79,3.66"/>
				<path id="XMLID_1862_" fill="none" stroke="#000000" stroke-width="0.75" stroke-linejoin="round" stroke-miterlimit="10" d="
					M185.86,336.94c0,0-6.11,2.57-7.22,6.59c-1.11,4.03,2.66,12.52,6.28,12.98c3.28,0.41,6.87-1.64,6.87-1.64l-1.68-3.38
					c0,0-2.54,0.02-3.64-1.76c-1.11-1.79-1.54-3.02-1.54-3.02"/>
				
					<line id="XMLID_1863_" fill="none" stroke="#000000" stroke-width="0.75" stroke-linejoin="round" stroke-miterlimit="10" x1="195.59" y1="337.17" x2="194.84" y2="340.31"/>
				
					<line id="XMLID_1864_" fill="none" stroke="#000000" stroke-width="0.75" stroke-linejoin="round" stroke-miterlimit="10" x1="197.53" y1="337.17" x2="196.52" y2="340.64"/>
				
					<line id="XMLID_1865_" fill="none" stroke="#000000" stroke-width="0.75" stroke-linejoin="round" stroke-miterlimit="10" x1="193.8" y1="338.17" x2="198.08" y2="338.45"/>
				
					<line id="XMLID_1866_" fill="none" stroke="#000000" stroke-width="0.75" stroke-linejoin="round" stroke-miterlimit="10" x1="194.1" y1="339.43" x2="197.53" y2="339.73"/>
				
					<polyline id="XMLID_1867_" fill="none" stroke="#000000" stroke-width="0.75" stroke-linejoin="round" stroke-miterlimit="10" points="
					198.74,337.42 201.92,335.35 200.99,337.42 204.97,336.38 202.27,338.31 205.38,339.43 202.33,339.73 203.65,341.62 
					198.92,339.73 				"/>
			</g>
		</g>
	</g>
	<rect x="120.5" y="352.29" fill="#FFFFFF" width="141.51" height="71.28"/>
	<g id="svg05Floor03">
		
			<rect x="120.56" y="346.72" transform="matrix(-1 -3.229074e-11 3.229074e-11 -1 382.5118 723.2731)" fill="#FFFFFF" stroke="#000000" stroke-width="0.75" stroke-linejoin="round" stroke-miterlimit="10" width="141.39" height="29.83"/>
		
			<rect x="120.56" y="375.51" transform="matrix(-1 -3.223922e-11 3.223922e-11 -1 382.5118 753.1072)" fill="#FFFFFF" stroke="#000000" stroke-width="0.75" stroke-linejoin="round" stroke-miterlimit="10" width="141.39" height="2.08"/>
		<g>
			
				<text transform="matrix(1 0 0 1 152.6943 367.5523)" font-family="'MicrosoftJhengHeiBold'" font-size="14px" letter-spacing="1">名產或特產</text>
		</g>
	</g>
</g>
<g>
	<g id="svg05Floor02People">
		
			<rect x="150.75" y="392.23" transform="matrix(-1 -3.781387e-11 3.781387e-11 -1 383.1307 809.9505)" fill="#FFFFFF" stroke="#000000" stroke-width="0.75" stroke-linejoin="round" stroke-miterlimit="10" width="81.63" height="25.5"/>
		<g id="XMLID_1869_">
			
				<polygon id="XMLID_1870_" fill="#FFFFFF" stroke="#000000" stroke-width="0.75" stroke-linejoin="round" stroke-miterlimit="10" points="
				228.26,396.95 226.2,395.47 219.24,395.47 217.05,396.95 217.05,410.68 228.08,410.68 			"/>
			
				<rect x="219.24" y="393.85" transform="matrix(-1 -4.492197e-11 4.492197e-11 -1 445.436 789.3184)" fill="#FFFFFF" stroke="#000000" stroke-width="0.75" stroke-linejoin="round" stroke-miterlimit="10" width="6.96" height="1.61"/>
			
				<rect x="220.34" y="395.68" transform="matrix(-1 -4.534874e-11 4.534874e-11 -1 445.2149 803.3946)" fill="#E74631" stroke="#000000" stroke-width="0.75" stroke-linejoin="round" stroke-miterlimit="10" width="4.53" height="12.04"/>
		</g>
		<g id="XMLID_1871_">
			
				<polygon id="XMLID_1872_" fill="#FFFFFF" stroke="#000000" stroke-width="0.75" stroke-linejoin="round" stroke-miterlimit="10" points="
				239.23,396.95 237.16,395.47 230.2,395.47 228.01,396.95 228.01,410.68 239.04,410.68 			"/>
			
				<rect x="230.2" y="393.85" transform="matrix(-1 -4.439927e-11 4.439927e-11 -1 467.3618 789.3184)" fill="#FFFFFF" stroke="#000000" stroke-width="0.75" stroke-linejoin="round" stroke-miterlimit="10" width="6.96" height="1.61"/>
			
				<rect x="231.3" y="395.68" transform="matrix(-1 -4.534874e-11 4.534874e-11 -1 467.1407 803.3946)" fill="#E74631" stroke="#000000" stroke-width="0.75" stroke-linejoin="round" stroke-miterlimit="10" width="4.53" height="12.04"/>
		</g>
		<g id="XMLID_1873_">
			
				<polygon id="XMLID_1874_" fill="#FFFFFF" stroke="#000000" stroke-width="0.75" stroke-linejoin="round" stroke-miterlimit="10" points="
				217.21,396.95 215.15,395.47 208.18,395.47 205.99,396.95 205.99,410.68 217.02,410.68 			"/>
			
				<rect x="208.18" y="393.85" transform="matrix(-1 -4.387702e-11 4.387702e-11 -1 423.326 789.3184)" fill="#FFFFFF" stroke="#000000" stroke-width="0.75" stroke-linejoin="round" stroke-miterlimit="10" width="6.96" height="1.61"/>
			
				<rect x="209.29" y="395.68" transform="matrix(-1 -4.414481e-11 4.414481e-11 -1 423.1049 803.3946)" fill="#E74631" stroke="#000000" stroke-width="0.75" stroke-linejoin="round" stroke-miterlimit="10" width="4.53" height="12.04"/>
		</g>
		<g id="XMLID_1875_">
			
				<polygon id="XMLID_1876_" fill="#FFFFFF" stroke="#000000" stroke-width="0.75" stroke-linejoin="round" stroke-miterlimit="10" points="
				165.6,396.95 163.54,395.47 156.57,395.47 154.39,396.95 154.39,410.68 165.42,410.68 			"/>
			
				<rect x="156.57" y="393.85" transform="matrix(-1 -4.544421e-11 4.544421e-11 -1 320.1117 789.3184)" fill="#FFFFFF" stroke="#000000" stroke-width="0.75" stroke-linejoin="round" stroke-miterlimit="10" width="6.96" height="1.61"/>
			
				<rect x="157.68" y="395.68" transform="matrix(-1 -4.213797e-11 4.213797e-11 -1 319.8906 803.3946)" fill="#E74631" stroke="#000000" stroke-width="0.75" stroke-linejoin="round" stroke-miterlimit="10" width="4.53" height="12.04"/>
		</g>
		<g id="XMLID_1877_">
			
				<polygon id="XMLID_1878_" fill="#FFFFFF" stroke="#000000" stroke-width="0.75" stroke-linejoin="round" stroke-miterlimit="10" points="
				154.39,396.95 152.32,395.47 145.36,395.47 143.17,396.95 143.17,410.68 154.2,410.68 			"/>
			
				<rect x="145.36" y="393.85" transform="matrix(-1 -4.544421e-11 4.544421e-11 -1 297.6802 789.3184)" fill="#FFFFFF" stroke="#000000" stroke-width="0.75" stroke-linejoin="round" stroke-miterlimit="10" width="6.96" height="1.61"/>
			
				<rect x="146.46" y="395.68" transform="matrix(-1 -4.695367e-11 4.695367e-11 -1 297.4591 803.3946)" fill="#E74631" stroke="#000000" stroke-width="0.75" stroke-linejoin="round" stroke-miterlimit="10" width="4.53" height="12.04"/>
		</g>
		<g id="XMLID_1879_">
			
				<polygon id="XMLID_1880_" fill="#FFFFFF" stroke="#000000" stroke-width="0.75" stroke-linejoin="round" stroke-miterlimit="10" points="
				176.8,396.38 174.74,394.9 167.78,394.9 165.59,396.38 165.59,410.11 176.62,410.11 			"/>
			
				<rect x="167.78" y="393.28" transform="matrix(-1 -4.492197e-11 4.492197e-11 -1 342.5168 788.1791)" fill="#FFFFFF" stroke="#000000" stroke-width="0.75" stroke-linejoin="round" stroke-miterlimit="10" width="6.96" height="1.61"/>
			
				<rect x="168.88" y="395.11" transform="matrix(-1 -4.695367e-11 4.695367e-11 -1 342.2957 802.2553)" fill="#E74631" stroke="#000000" stroke-width="0.75" stroke-linejoin="round" stroke-miterlimit="10" width="4.53" height="12.04"/>
		</g>
		
			<polygon id="XMLID_1881_" fill="#FFFFFF" stroke="#000000" stroke-width="0.75" stroke-linejoin="round" stroke-miterlimit="10" points="
			230.06,387.34 153.6,387.34 150.75,392.37 232.38,392.39 		"/>
		<path id="XMLID_1882_" fill="none" stroke="#000000" stroke-width="0.75" stroke-linejoin="round" stroke-miterlimit="10" d="
			M201.29,413.93"/>
		<g id="XMLID_1883_">
			<path id="XMLID_1884_" fill="#FFFFFF" d="M190.31,382.92c0,0-5.38,5.31-5.17,7.8s4.51,5.55,4.35,7.18
				c-0.16,1.63-0.08,2.54-0.08,2.54l2.37,1.62c0,0,0.19-3.15,1.11-3.7c0.91-0.54,3.33-1.4,3.71-3.21s0.27-8.28,0.27-8.28
				L190.31,382.92z"/>
			<polygon id="XMLID_1885_" fill="#FFFFFF" points="205.38,406.19 208.36,408.6 201.7,414.74 200.47,410.09 			"/>
			<path id="XMLID_1886_" fill="#FFFFFF" stroke="#000000" stroke-width="0.75" stroke-linejoin="round" stroke-miterlimit="10" d="
				M206.11,406.79c0,0-0.98-4.78,0-4.91c0.98-0.13,0.98,2.09,0.98,2.09s2.34-4.84,3.6-3.93c1.26,0.91,2.53,4.29-2.92,8.1"/>
			<path id="XMLID_1887_" fill="#FFFFFF" d="M199.56,387.03c0,0-3.04,1.29-7.1,1.37c-4.06,0.08-8.62-0.3-8.62-1.37
				s3.21-1.42,3.21-1.42s-0.34-4.06,0.34-5.07c0.68-1.01,4.56-0.68,4.31,0c0,0,2.45-1.11,4.14-0.64c1.69,0.47,1.01,5.54,1.01,5.54
				S200.57,385.74,199.56,387.03z"/>
			<ellipse id="XMLID_1888_" cx="195.24" cy="391.08" rx="0.22" ry="0.35"/>
			<ellipse id="XMLID_1889_" cx="191.57" cy="391.08" rx="0.22" ry="0.35"/>
			<path id="XMLID_1890_" fill="none" stroke="#000000" stroke-width="0.75" stroke-linejoin="round" stroke-miterlimit="10" d="
				M199.56,387.03c0,0-3.04,1.29-7.1,1.37c-4.06,0.08-8.62-0.3-8.62-1.37s3.21-1.42,3.21-1.42s-0.34-4.06,0.34-5.07
				c0.68-1.01,4.56-0.68,4.31,0c0,0,2.45-1.11,4.14-0.64c1.69,0.47,1.01,5.54,1.01,5.54S200.57,385.74,199.56,387.03z"/>
			<path id="XMLID_1891_" fill="none" stroke="#000000" stroke-width="0.75" stroke-linejoin="round" stroke-miterlimit="10" d="
				M186.97,384.1c0,0,7.49,0.98,10.01-0.72"/>
			<path id="XMLID_1892_" fill="none" stroke="#000000" stroke-width="0.75" stroke-linejoin="round" stroke-miterlimit="10" d="
				M196.85,385.45c0,0-5.14,2.05-9.81,0.17"/>
			<path id="XMLID_1893_" fill="none" stroke="#000000" stroke-width="0.75" stroke-linejoin="round" stroke-miterlimit="10" d="
				M189.88,388.42l-1.84,2.98c0,0-0.58-1.31-1.07-0.48c-0.49,0.82-1.16,1.77,0.08,3.22c0.52,0.61,2.64,2.48,2.44,3.77
				c-0.19,1.29-0.16,1.83-0.16,1.83"/>
			<path id="XMLID_1894_" fill="none" stroke="#000000" stroke-width="0.75" stroke-linejoin="round" stroke-miterlimit="10" d="
				M185.86,388.04c0,0-1.02,2.32-0.63,3.49c0.39,1.17,1.82,2.61,1.82,2.61"/>
			<path id="XMLID_1895_" fill="none" stroke="#000000" stroke-width="0.75" stroke-linejoin="round" stroke-miterlimit="10" d="
				M192.3,389.46c0,0-0.92-0.48-1.76,0.26"/>
			<path id="XMLID_1896_" fill="none" stroke="#000000" stroke-width="0.75" stroke-linejoin="round" stroke-miterlimit="10" d="
				M194.54,389.31c0,0,0.22-0.5,1.4,0"/>
			<path id="XMLID_1897_" fill="none" stroke="#000000" stroke-width="0.75" stroke-linejoin="round" stroke-miterlimit="10" d="
				M193.97,391.88c0,0,0.4,0.61,0,1.09"/>
			<path id="XMLID_1898_" fill="none" stroke="#000000" stroke-width="0.75" stroke-linejoin="round" stroke-miterlimit="10" d="
				M195.02,392.97h-2.72c0,0-1.25,1.59-0.95,1.94c0.3,0.35,0.95,0.93,1.35,0c0,0,0.44,0.79,1.27,0.7s0.57-0.73,0.57-0.73
				s0.22,0.79,0.92,0.34C196.16,394.75,195.02,392.97,195.02,392.97z"/>
			
				<polygon id="XMLID_1899_" fill="none" stroke="#000000" stroke-width="0.75" stroke-linejoin="round" stroke-miterlimit="10" points="
				188.58,398.86 192,401.94 190.55,403.97 186.35,399.19 			"/>
			<path id="XMLID_1900_" fill="none" stroke="#000000" stroke-width="0.75" stroke-linejoin="round" stroke-miterlimit="10" d="
				M192.46,399.2l2.79,0.84l-2.94,3.93l-0.3-2.03C192,401.94,192.24,400.59,192.46,399.2c0.21-1.39,1.68-1.03,3.47-2.84
				c1.79-1.81,1.03-8.43,1.03-8.43"/>
			
				<polyline id="XMLID_1901_" fill="none" stroke="#000000" stroke-width="0.75" stroke-linejoin="round" stroke-miterlimit="10" points="
				188.06,401.14 191.98,410.82 188.06,407.43 187.05,403.97 184.85,401.41 186.97,400.04 			"/>
			
				<polyline id="XMLID_1902_" fill="none" stroke="#000000" stroke-width="0.75" stroke-linejoin="round" stroke-miterlimit="10" points="
				194.55,400.97 191.98,410.82 195.24,406.78 194.56,405.32 197.12,401.59 194.94,400.45 			"/>
			
				<polyline id="XMLID_1903_" fill="none" stroke="#000000" stroke-width="0.75" stroke-linejoin="round" stroke-miterlimit="10" points="
				191.98,410.82 190.98,423.26 185.96,423.26 			"/>
			<path id="XMLID_1904_" fill="none" stroke="#000000" stroke-width="0.75" stroke-linejoin="round" stroke-miterlimit="10" d="
				M196.79,402.07c0,0,1.85,8.29,2.95,8.25c1.1-0.04,3.86-2.42,3.86-2.42l1.79-1.7l2.97,2.41l-5,4.87c0,0-2.14,2.03-3.62,1.93
				c-1.48-0.1-1.74-1.93-1.74-1.93"/>
			<path id="XMLID_1905_" fill="none" stroke="#000000" stroke-width="0.75" stroke-linejoin="round" stroke-miterlimit="10" d="
				M197.12,407.43c0,0,1.65,11.36,1.78,13.03c0.13,1.67,0,2.64,0,2.64l-6.9,0.16l-0.58-3.84"/>
			<path id="XMLID_1906_" fill="none" stroke="#000000" stroke-width="0.75" stroke-linejoin="round" stroke-miterlimit="10" d="
				M184.85,412.77"/>
			<path id="XMLID_1907_" fill="none" stroke="#000000" stroke-width="0.75" stroke-linejoin="round" stroke-miterlimit="10" d="
				M184.35,402.42"/>
			<path id="XMLID_1908_" fill="none" stroke="#000000" stroke-width="0.75" stroke-linejoin="round" stroke-miterlimit="10" d="
				M185.64,407.81L185.64,407.81c0,0-0.77,4.76-0.79,7.54c-0.02,2.78,1.5,9.83,1.5,9.83l-4.76,0.31c0,0-1.42-14.01-0.58-18.05
				c0.84-4.04,4.24-5.55,4.24-5.55"/>
			<path id="XMLID_1909_" fill="none" stroke="#000000" stroke-width="0.75" stroke-linejoin="round" stroke-miterlimit="10" d="
				M185.64,425.22c0,0,0.91,1.64,0.31,2.57c-0.6,0.93-0.82-0.85-0.82-0.85s-0.13,4.26-1.3,4.2c-1.17-0.05-1.96,0.05-1.96-0.87
				c0-0.92,0.79-4.79,0.79-4.79"/>
		</g>
		<g id="svg05Floor02Tea">
			<path fill="#B8834E" stroke="#000000" stroke-width="0.75" stroke-miterlimit="10" d="M129.95,379.83c0,0,7.82,0.95,9.67,6.48
				c1.85,5.53-2.75,9.74,0.75,12.5c0,0-5.24,0.34-7.67-5.26C130.26,387.95,133.18,383.7,129.95,379.83z"/>
			<path id="XMLID_1916_" fill="none" stroke="#000000" stroke-width="0.75" stroke-linejoin="round" stroke-miterlimit="10" d="
				M134.63,384.54c0,0,0.96,1.18,1.59,6.09s1.79,7.17,6.96,9.93"/>
			<path fill="#B8834E" stroke="#000000" stroke-width="0.75" stroke-miterlimit="10" d="M122.85,392.03c0,0,5.17-1.59,7.88,1.35
				c2.71,2.95,1.01,6.88,3.97,7.62c0,0-3.19,1.68-6.28-1.14S125.95,393.55,122.85,392.03z"/>
			<path fill="none" stroke="#000000" stroke-width="0.75" stroke-linejoin="round" stroke-miterlimit="10" d="M127.1,393.68
				c0,0,0.93,0.47,2.7,3.37c1.77,2.9,3.13,3.99,7.14,4.27"/>
		</g>
	</g>
	<rect x="120.5" y="413.38" fill="#FFFFFF" width="141.51" height="71.28"/>
	<g id="svg05Floor02">
		
			<rect x="120.62" y="408.43" transform="matrix(-1 -3.221302e-11 3.221302e-11 -1 382.5118 845.9728)" fill="#FFFFFF" stroke="#000000" stroke-width="0.75" stroke-linejoin="round" stroke-miterlimit="10" width="141.28" height="29.12"/>
		
			<rect x="120.62" y="436.51" transform="matrix(-1 -3.222590e-11 3.222590e-11 -1 382.5118 875.0954)" fill="#FFFFFF" stroke="#000000" stroke-width="0.75" stroke-linejoin="round" stroke-miterlimit="10" width="141.28" height="2.08"/>
		<g>
			
				<text transform="matrix(1 0 0 1 175.7939 430.0159)" font-family="'MicrosoftJhengHeiBold'" font-size="14px" letter-spacing="1">茶葉</text>
		</g>
	</g>
</g>
<g>
	<g id="svg05Floor01People">
		
			<rect x="150.81" y="449.64" transform="matrix(-1 -3.780455e-11 3.780455e-11 -1 383.3232 933.9511)" fill="#FFFFFF" stroke="#000000" stroke-width="0.75" stroke-linejoin="round" stroke-miterlimit="10" width="81.7" height="34.68"/>
		<g id="XMLID_2811_">
			<g id="XMLID_2812_">
				<path id="XMLID_2813_" fill="#FFFFFF" d="M190.56,441.56c0,0,5.97-2.28,7.77,1.39c1.8,3.67,1.91,5.84,1.75,11.33
					c-0.15,5.49,0.89,1.56,1.79,3.35c0.9,1.79-1.23,6.91-1.23,6.91l-10.83,1.8h-6.87c0,0,2.48-5.31,2.41-10.29
					S184.21,443.56,190.56,441.56z"/>
				<ellipse id="XMLID_2814_" cx="188.66" cy="449.4" rx="0.24" ry="0.38"/>
				<ellipse id="XMLID_2815_" cx="193.2" cy="449.78" rx="0.24" ry="0.38"/>
				<path fill="none" stroke="#000000" stroke-width="0.75" stroke-linejoin="round" stroke-miterlimit="10" d="M190.82,459.92
					c0,0,0,0-0.01-1.97s-2.69-0.71-3.65-3.39c-0.97-2.69-0.02-7.36-0.02-7.36s0.79-1,2.87-1.06c2.19-0.07,1.57-1.87,1.57-1.87
					s3.04-1.96,3.53,0.75c0.94,5.19,0.34,6.04,2.81,5.82"/>
				<path id="XMLID_2816_" fill="none" stroke="#000000" stroke-width="0.75" stroke-linejoin="round" stroke-miterlimit="10" d="
					M196.79,450.94L196.79,450.94c0,0,1.14-0.48,1.25,0.63c0.11,1.11,0.09,2.38-1.25,2.66c-1.33,0.27-2.19,1.05-2.41,3
					s0,2.83,0,2.83s-0.41,2.7-2.45,2.72c-3.15,0.03-1.58-1.52-1.11-3.27"/>
				<path id="XMLID_2817_" fill="none" stroke="#000000" stroke-width="0.75" stroke-linejoin="round" stroke-miterlimit="10" d="
					M184.29,462.79c0.67-1.55,0.85-5.54,1.05-13.75s7.05-7.64,7.05-7.64s3.67-1.95,6.71,2.55c3.03,4.5-1.17,11.59,2.77,13.69
					c2.59,1.38-1.23,6.91-1.23,6.91"/>
				<path id="XMLID_2818_" fill="none" stroke="#000000" stroke-width="0.75" stroke-miterlimit="10" d="M189.82,447.81
					c0,0-0.79-0.86-1.83-0.12"/>
				<path id="XMLID_2819_" fill="none" stroke="#000000" stroke-width="0.75" stroke-miterlimit="10" d="M192.96,447.81
					c0,0,0.6-0.74,1.82,0"/>
				<path id="XMLID_2820_" fill="none" stroke="#000000" stroke-width="0.75" stroke-miterlimit="10" d="M190.86,449.4
					c0,0-1.31,1.3-1.05,2.09"/>
				<path id="XMLID_2821_" fill="none" stroke="#000000" stroke-width="0.75" stroke-miterlimit="10" d="M191.73,452.91
					c0,0-1.79,0.72-3.08,0"/>
				<path id="XMLID_2822_" fill="none" stroke="#000000" stroke-width="0.75" stroke-linejoin="round" stroke-miterlimit="10" d="
					M196.29,466.34c0.51-1.44,4.36-1.8,4.36-1.8c-1.77-3.44-6.26-4.48-6.26-4.48s1.96,1.89,0.54,3.64c-1.42,1.74-3-0.92-3-0.92
					s-2.01,2.61-3.03,0.92s1.11-3.64,1.11-3.64"/>
				<path id="XMLID_2823_" fill="none" stroke="#000000" stroke-width="0.75" stroke-linejoin="round" stroke-miterlimit="10" d="
					M190.82,459.92c0,0-5.52,1.07-6.53,2.87c0,0,2.49,1.88,2.43,2.87"/>
				<path id="XMLID_2824_" fill="none" stroke="#000000" stroke-width="0.75" stroke-linejoin="round" stroke-miterlimit="10" d="
					M187.99,463.7c0,0-1.58,1.3-1.26,3.45c0.32,2.15-0.04,8.64-0.04,8.64h10.5c0,0-1.01-5.7-1.01-7.3s0.38-4.79,0.38-4.79"/>
				<path id="XMLID_2826_" fill="none" stroke="#000000" stroke-width="0.75" stroke-linejoin="round" stroke-miterlimit="10" d="
					M199.98,464.6c0,0,5.74,5.79,4.24,10.03c-1.5,4.24-4.84,5.73-4.84,5.73l-1.04,0.43"/>
				<path id="XMLID_2827_" fill="none" stroke="#000000" stroke-width="0.75" stroke-linejoin="round" stroke-miterlimit="10" d="
					M196.86,465.66c0,0,5.52,5.16,4.97,7.47c-0.55,2.31-3.97,5.54-3.97,5.54"/>
				<path id="XMLID_2828_" fill="none" stroke="#000000" stroke-width="0.75" stroke-linejoin="round" stroke-miterlimit="10" d="
					M184.29,462.79c0,0-2.77,7.41-3.11,7.99c-0.33,0.58-3.68,5.98-5.01,7.88s-2.01,2.46-2.01,3.43c0,0.97,2.17,3.24,3.01,1.94
					c0.84-1.3-0.09-2.89,1.37-4.61s5.35-6.2,5.75-7.43c0.43-1.36,2.43-4.84,2.43-4.84"/>
				
					<line id="XMLID_2829_" fill="none" stroke="#000000" stroke-width="0.75" stroke-linejoin="round" stroke-miterlimit="10" x1="198.56" y1="467.38" x2="196.3" y2="470.08"/>
				
					<line id="XMLID_2830_" fill="none" stroke="#000000" stroke-width="0.75" stroke-linejoin="round" stroke-miterlimit="10" x1="184.98" y1="470.42" x2="186.68" y2="470.58"/>
			</g>
		</g>
		<path id="XMLID_2836_" fill="#FFFFFF" stroke="#000000" stroke-width="0.75" stroke-linejoin="round" stroke-miterlimit="10" d="
			M228.99,457.47h-1.61v1.55c0,0-1.21,0.3-1.21,2.05c0,1.74,0,5.53,0,5.53s-0.27,1.8,1.41,1.8s0.54,0,1.68,0
			c1.14,0,0.92-1.8,0.92-1.8v-5.53c0,0-0.06-1.61-1.2-2.04L228.99,457.47z"/>
		<path id="XMLID_2837_" fill="#FFFFFF" stroke="#000000" stroke-width="0.75" stroke-linejoin="round" stroke-miterlimit="10" d="
			M223.99,457.47h-1.61v1.55c0,0-1.21,0.3-1.21,2.05c0,1.74,0,5.53,0,5.53s-0.27,1.8,1.41,1.8s0.54,0,1.68,0
			c1.14,0,0.92-1.8,0.92-1.8v-5.53c0,0-0.06-1.61-1.2-2.04L223.99,457.47z"/>
		<path id="XMLID_2838_" fill="#FFFFFF" stroke="#000000" stroke-width="0.75" stroke-linejoin="round" stroke-miterlimit="10" d="
			M218.81,457.47h-1.61v1.55c0,0-1.21,0.3-1.21,2.05c0,1.74,0,5.53,0,5.53s-0.27,1.8,1.41,1.8s0.54,0,1.68,0
			c1.14,0,0.92-1.8,0.92-1.8v-5.53c0,0-0.06-1.61-1.2-2.04L218.81,457.47z"/>
		<path id="XMLID_2839_" fill="#FFFFFF" stroke="#000000" stroke-width="0.75" stroke-linejoin="round" stroke-miterlimit="10" d="
			M228.99,443.26h-1.61v1.55c0,0-1.21,0.3-1.21,2.05s0,5.53,0,5.53s-0.27,1.8,1.41,1.8s0.54,0,1.68,0c1.14,0,0.92-1.8,0.92-1.8
			v-5.53c0,0-0.06-1.61-1.2-2.04L228.99,443.26z"/>
		<path id="XMLID_2840_" fill="#FFFFFF" stroke="#000000" stroke-width="0.75" stroke-linejoin="round" stroke-miterlimit="10" d="
			M223.99,443.26h-1.61v1.55c0,0-1.21,0.3-1.21,2.05s0,5.53,0,5.53s-0.27,1.8,1.41,1.8s0.54,0,1.68,0c1.14,0,0.92-1.8,0.92-1.8
			v-5.53c0,0-0.06-1.61-1.2-2.04L223.99,443.26z"/>
		<path id="XMLID_2841_" fill="#FFFFFF" stroke="#000000" stroke-width="0.75" stroke-linejoin="round" stroke-miterlimit="10" d="
			M218.81,443.26h-1.61v1.55c0,0-1.21,0.3-1.21,2.05s0,5.53,0,5.53s-0.27,1.8,1.41,1.8s0.54,0,1.68,0c1.14,0,0.92-1.8,0.92-1.8
			v-5.53c0,0-0.06-1.61-1.2-2.04L218.81,443.26z"/>
		<g id="XMLID_2847_">
			
				<polyline id="XMLID_2848_" fill="#FFFFFF" stroke="#000000" stroke-width="0.75" stroke-linejoin="round" stroke-miterlimit="10" points="
				214.91,462.29 214.91,458.9 213.57,458.9 213.57,462.39 			"/>
			
				<circle id="XMLID_2849_" fill="#FFFFFF" stroke="#000000" stroke-width="0.75" stroke-linejoin="round" stroke-miterlimit="10" cx="214.24" cy="464.62" r="3.76"/>
			
				<circle id="XMLID_2850_" fill="#FFFFFF" stroke="#000000" stroke-width="0.75" stroke-linejoin="round" stroke-miterlimit="10" cx="208.96" cy="463.55" r="1.52"/>
			<path id="XMLID_2851_" fill="#FFFFFF" stroke="#000000" stroke-width="0.75" stroke-linejoin="round" stroke-miterlimit="10" d="
				M213.57,459.54c0,0-2.1-0.01-2.1,1c0,1.01-1.54,1.86-1.54,1.86"/>
		</g>
		<g id="XMLID_2852_">
			<path id="XMLID_2853_" fill="#FFFFFF" stroke="#000000" stroke-width="0.75" stroke-linejoin="round" stroke-miterlimit="10" d="
				M178.79,451.43c0,0-3.43-6.22-8.72-5.41c-5.29,0.81-6.07,5.56-5.59,7.6c0.48,2.04-0.37,5.45,1.67,8
				c2.04,2.55,7.32,3.15,10.12,1.48c2.8-1.66,5.62-4.45,4.33-8.11C179.69,452.45,178.79,451.43,178.79,451.43z"/>
			<path id="XMLID_2854_" fill="#FFFFFF" stroke="#000000" stroke-width="0.75" stroke-linejoin="round" stroke-miterlimit="10" d="
				M175.63,453.59c0,0,0.75,2.09-0.6,2.74s-2.91-0.45-2.91-0.45"/>
			<path id="XMLID_2855_" fill="#FFFFFF" stroke="#000000" stroke-width="0.75" stroke-linejoin="round" stroke-miterlimit="10" d="
				M176.03,457.36c-0.97,0.66-2.29,2.04-1.39,2.34c0.9,0.3,2.88-0.96,3.12-1.92S176.03,457.36,176.03,457.36z"/>
			
				<ellipse transform="matrix(0.9205 -0.3907 0.3907 0.9205 -163.7549 101.9952)" fill="#FFFFFF" stroke="#000000" stroke-width="0.75" stroke-linejoin="round" stroke-miterlimit="10" cx="168.81" cy="453.48" rx="2.07" ry="1.01"/>
			
				<ellipse transform="matrix(0.9205 -0.3907 0.3907 0.9205 -162.1673 104.1685)" fill="#FFFFFF" stroke="#000000" stroke-width="0.75" stroke-linejoin="round" stroke-miterlimit="10" cx="174.94" cy="450.66" rx="2.07" ry="1.01"/>
			
				<line id="XMLID_2856_" fill="none" stroke="#000000" stroke-width="0.75" stroke-linejoin="round" stroke-miterlimit="10" x1="164.67" y1="456.22" x2="166.56" y2="456.21"/>
			
				<line id="XMLID_2857_" fill="none" stroke="#000000" stroke-width="0.75" stroke-linejoin="round" stroke-miterlimit="10" x1="171.04" y1="463.96" x2="171.41" y2="461.38"/>
		</g>
		
			<rect x="213.55" y="454.19" transform="matrix(-1 -4.509294e-11 4.509294e-11 -1 445.9034 909.6327)" fill="#FFFFFF" stroke="#000000" stroke-width="0.75" stroke-linejoin="round" stroke-miterlimit="10" width="18.8" height="1.26"/>
		<g id="svg05Floor01Perfume">
			<polyline fill="#B8834E" stroke="#000000" stroke-width="0.75" stroke-miterlimit="10" points="151.32,454.75 151.28,448.41 
				148.78,448.42 148.82,454.95 			"/>
			
				<ellipse transform="matrix(1 -5.950989e-03 5.950989e-03 1 -2.7296 0.9013)" fill="#E74631" stroke="#000000" stroke-width="0.75" stroke-linejoin="round" stroke-miterlimit="10" cx="150.09" cy="459.12" rx="7.03" ry="7.03"/>
			
				<ellipse transform="matrix(1 -5.950989e-03 5.950989e-03 1 -2.7182 0.8425)" fill="#E74631" stroke="#000000" stroke-width="0.75" stroke-linejoin="round" stroke-miterlimit="10" cx="140.2" cy="457.18" rx="2.84" ry="2.84"/>
			<path fill="none" stroke="#000000" stroke-width="0.75" stroke-linejoin="round" stroke-miterlimit="10" d="M148.78,449.62
				c0,0-3.93,0-3.92,1.89c0.01,1.89-2.86,3.49-2.86,3.49"/>
		</g>
	</g>
	<rect x="120.5" y="472.16" fill="#FFFFFF" width="141.51" height="71.28"/>
	<g id="svg05Floor01">
		
			<rect x="120.67" y="465.99" transform="matrix(-1 -3.225121e-11 3.225121e-11 -1 382.5118 964.6658)" fill="#FFFFFF" stroke="#000000" stroke-width="0.75" stroke-linejoin="round" stroke-miterlimit="10" width="141.17" height="32.68"/>
		<g>
			<text transform="matrix(1 0 0 1 144.9941 487.937)" font-family="'MicrosoftJhengHeiBold'" font-size="14px" letter-spacing="1">化妝品或香水</text>
		</g>
		
			<rect x="120.67" y="497.63" transform="matrix(-1 -3.228985e-11 3.228985e-11 -1 382.5118 997.3455)" fill="#FFFFFF" stroke="#000000" stroke-width="0.75" stroke-linejoin="round" stroke-miterlimit="10" width="141.17" height="2.08"/>
	</g>
</g>
<rect id="svg05Floor05LeftBar" x="16.91" y="216.28" fill="#E74631" stroke="#000000" stroke-width="0.75" stroke-miterlimit="10" width="83.59" height="19.24"/>
<rect id="svg05Floor04LeftBar" x="46.53" y="277.37" fill="#DBDCDC" stroke="#000000" stroke-width="0.75" stroke-miterlimit="10" width="53.97" height="19.24"/>
<rect id="svg05Floor03LeftBar" x="39.29" y="338.47" fill="#DBDCDC" stroke="#000000" stroke-width="0.75" stroke-miterlimit="10" width="61.21" height="19.24"/>
<rect id="svg05Floor02LeftBar" x="86.33" y="399.57" fill="#DBDCDC" stroke="#000000" stroke-width="0.75" stroke-miterlimit="10" width="14.17" height="19.24"/>
<rect id="svg05Floor01LeftBar" x="71.77" y="460.67" fill="#DBDCDC" stroke="#000000" stroke-width="0.75" stroke-miterlimit="10" width="28.73" height="19.24"/>
<g id="svg05LeftCar">
	<polygon opacity="0.3" fill="#B8834E" points="92.52,255.5 86.55,269.05 97.32,269.05 	"/>
	<polygon opacity="0.3" fill="#B8834E" points="102.55,255.5 96.57,269.05 107.34,269.05 	"/>
	<path fill="#FFFFFF" d="M88.16,259.27c0,0.33-0.35,0.59-0.81,0.59s-0.81-0.26-0.81-0.59v-9.87c0-0.33,0.35-0.59,0.81-0.59
		s0.81,0.26,0.81,0.59V259.27z"/>
	<path d="M86.71,249.4c0-0.24,0.29-0.43,0.64-0.43S88,249.16,88,249.4v9.87c0,0.24-0.29,0.43-0.64,0.43s-0.64-0.19-0.64-0.43V249.4
		L86.71,249.4z M86.38,249.4v9.87c0,0.42,0.43,0.76,0.97,0.76c0.54,0,0.97-0.33,0.97-0.76v-9.87c0-0.42-0.43-0.76-0.97-0.76
		C86.81,248.64,86.38,248.97,86.38,249.4L86.38,249.4z"/>
	<path fill="#FFFFFF" d="M88.16,217.95c0,0.33-0.35,0.59-0.81,0.59s-0.81-0.26-0.81-0.59v-9.87c0-0.33,0.35-0.59,0.81-0.59
		s0.81,0.26,0.81,0.59V217.95z"/>
	<path d="M86.71,208.07c0-0.24,0.29-0.43,0.64-0.43s0.64,0.19,0.64,0.43v9.87c0,0.24-0.29,0.43-0.64,0.43s-0.64-0.19-0.64-0.43
		V208.07L86.71,208.07z M86.38,208.07v9.87c0,0.42,0.43,0.76,0.97,0.76c0.54,0,0.97-0.33,0.97-0.76v-9.87
		c0-0.42-0.43-0.76-0.97-0.76C86.81,207.32,86.38,207.65,86.38,208.07L86.38,208.07z"/>
	<path fill="#FFFFFF" d="M108.19,259.27c0,0.33-0.35,0.59-0.81,0.59c-0.45,0-0.81-0.26-0.81-0.59v-9.87c0-0.33,0.35-0.59,0.81-0.59
		c0.45,0,0.81,0.26,0.81,0.59V259.27z"/>
	<path d="M106.74,249.4c0-0.24,0.29-0.43,0.64-0.43c0.36,0,0.64,0.19,0.64,0.43v9.87c0,0.24-0.29,0.43-0.64,0.43
		c-0.36,0-0.64-0.19-0.64-0.43V249.4L106.74,249.4z M106.41,249.4v9.87c0,0.42,0.43,0.76,0.97,0.76c0.54,0,0.97-0.33,0.97-0.76
		v-9.87c0-0.42-0.43-0.76-0.97-0.76C106.84,248.64,106.41,248.97,106.41,249.4L106.41,249.4z"/>
	<path fill="#FFFFFF" d="M108.19,217.95c0,0.33-0.35,0.59-0.81,0.59c-0.45,0-0.81-0.26-0.81-0.59v-9.87c0-0.33,0.35-0.59,0.81-0.59
		c0.45,0,0.81,0.26,0.81,0.59V217.95z"/>
	<path d="M106.74,208.07c0-0.24,0.29-0.43,0.64-0.43c0.36,0,0.64,0.19,0.64,0.43v9.87c0,0.24-0.29,0.43-0.64,0.43
		c-0.36,0-0.64-0.19-0.64-0.43V208.07L106.74,208.07z M106.41,208.07v9.87c0,0.42,0.43,0.76,0.97,0.76c0.54,0,0.97-0.33,0.97-0.76
		v-9.87c0-0.42-0.43-0.76-0.97-0.76C106.84,207.32,106.41,207.65,106.41,208.07L106.41,208.07z"/>
	<path fill="#FFFFFF" d="M105.68,259.83c0,0.62-0.5,1.13-1.13,1.13H90.08c-0.62,0-1.13-0.5-1.13-1.13c0-0.62,0.49-1.34,1.13-1.34
		h14.47C105.19,258.49,105.68,259.21,105.68,259.83z"/>
	<path d="M89.12,259.83c0-0.53,0.43-1.18,0.96-1.18h14.47c0.53,0,0.96,0.65,0.96,1.18c0,0.53-0.43,0.96-0.96,0.96H90.08
		C89.55,260.79,89.12,260.36,89.12,259.83L89.12,259.83z M88.8,259.83c0,0.71,0.58,1.29,1.29,1.29h14.47c0.71,0,1.29-0.58,1.29-1.29
		c0-0.7-0.56-1.51-1.29-1.51H90.08C89.36,258.32,88.8,259.13,88.8,259.83L88.8,259.83z"/>
	<path fill="#FFFFFF" d="M106.35,258.35c0,0.81-0.66,1.46-1.46,1.46H89.86c-0.81,0-1.46-0.66-1.46-1.46v-3.06
		c0-0.81,0.66-1.46,1.46-1.46h15.03c0.81,0,1.46,0.66,1.46,1.46V258.35z"/>
	<path d="M88.56,255.29c0-0.72,0.58-1.3,1.3-1.3h15.03c0.72,0,1.3,0.58,1.3,1.3v3.06c0,0.72-0.58,1.3-1.3,1.3H89.86
		c-0.72,0-1.3-0.58-1.3-1.3V255.29L88.56,255.29z M88.23,255.29v3.06c0,0.9,0.73,1.63,1.63,1.63h15.03c0.9,0,1.63-0.73,1.63-1.63
		v-3.06c0-0.9-0.73-1.63-1.63-1.63H89.86C88.96,253.66,88.23,254.39,88.23,255.29L88.23,255.29z"/>
	<path fill="#FFFFFF" d="M107.36,256.29c0,0.81-0.72,1.46-1.61,1.46H89c-0.89,0-1.61-0.66-1.61-1.46l0.34-57.61
		c0-0.81,0.72-1.46,1.61-1.46h16.07c0.89,0,1.61,0.66,1.61,1.46L107.36,256.29L107.36,256.29z"/>
	<path d="M87.54,256.29l0.34-57.61c0-0.72,0.65-1.3,1.45-1.3h16.07c0.8,0,1.45,0.58,1.45,1.3l0.34,57.61c0,0.72-0.65,1.3-1.45,1.3
		H89C88.19,257.59,87.54,257.01,87.54,256.29L87.54,256.29z M87.22,256.29L87.22,256.29c0,0.9,0.8,1.63,1.78,1.63h16.75
		c0.98,0,1.78-0.73,1.78-1.63l-0.34-57.61c0-0.9-0.8-1.63-1.78-1.63H89.33c-0.98,0-1.78,0.73-1.78,1.63L87.22,256.29L87.22,256.29
		L87.22,256.29z"/>
	<path fill="#FFFFFF" d="M105.28,249.5c0,0.84-0.66,1.52-1.47,1.52H90.96c-0.81,0-1.47-0.68-1.47-1.52l0.29-44.75
		c0-0.84,0.66-1.52,1.47-1.52h12.26c0.81,0,1.47,0.68,1.47,1.52L105.28,249.5L105.28,249.5z"/>
	<path d="M89.71,249.5L90,204.76c0-0.72,0.56-1.3,1.25-1.3h12.26c0.69,0,1.25,0.58,1.25,1.3l0.29,44.75c0,0.72-0.56,1.3-1.25,1.3
		H90.96C90.27,250.8,89.71,250.22,89.71,249.5L89.71,249.5z M89.27,249.5L89.27,249.5c0,0.96,0.76,1.74,1.69,1.74h12.85
		c0.93,0,1.69-0.78,1.69-1.74l-0.29-44.75c0-0.95-0.76-1.73-1.69-1.73H91.25c-0.93,0-1.69,0.78-1.69,1.74L89.27,249.5L89.27,249.5
		L89.27,249.5z"/>
	<path fill="#FFFFFF" d="M92.45,261.35c0,0.26-0.43,0.29-1.4,0.29c-0.5,0-1.33-0.09-1.33-0.43c0-0.21,0.3-0.24,0.43-0.25
		c0.21-0.02,0.51-0.02,0.85-0.02h0.06C91.2,260.93,92.45,260.95,92.45,261.35z"/>
	<path d="M89.83,261.21c0-0.17,0.52-0.17,1.23-0.17s1.29,0.14,1.29,0.31c0,0.17-0.58,0.18-1.29,0.18S89.83,261.38,89.83,261.21
		L89.83,261.21z M89.61,261.21c0,0.5,1.1,0.54,1.44,0.54c0.91,0,1.5,0,1.5-0.4c0-0.47-1.05-0.53-1.5-0.53l-0.06,0
		c-0.35,0-0.64,0-0.86,0.02C89.99,260.86,89.61,260.9,89.61,261.21L89.61,261.21z"/>
	<path fill="#FFFFFF" d="M92.24,261.62c0,0.29-0.55,0.65-1.19,0.65c-0.64,0-1.2-0.47-1.2-0.75c0-0.06,0.02-0.11,0.06-0.15
		c0.11-0.11,0.34-0.1,0.69-0.08c0.13,0.01,0.29,0.01,0.44,0.01C91.74,261.3,92.24,261.3,92.24,261.62z"/>
	<path d="M89.96,261.52c0-0.21,0.5-0.11,1.09-0.11c0.59,0,1.08,0,1.08,0.22c0,0.21-0.48,0.54-1.08,0.54
		C90.46,262.16,89.96,261.73,89.96,261.52L89.96,261.52z M89.74,261.52c0,0.38,0.64,0.86,1.31,0.86c0.67,0,1.29-0.37,1.29-0.76
		c0-0.22-0.17-0.36-0.5-0.4c-0.21-0.03-0.51-0.03-0.79-0.03c-0.15,0-0.31-0.01-0.44-0.01c-0.38-0.02-0.63-0.03-0.77,0.11
		C89.78,261.34,89.74,261.43,89.74,261.52L89.74,261.52z"/>
	<path fill="#FFFFFF" d="M94.63,261.26c0,0.27-0.59,0.37-1.1,0.37c-0.73,0-1.15-0.01-1.15-0.26c0-0.34,0.95-0.36,1.15-0.36h0.05
		c0.28,0,0.51,0,0.69,0.02C94.38,261.05,94.63,261.07,94.63,261.26z"/>
	<path d="M92.5,261.37c0-0.14,0.47-0.25,1.04-0.25c0.57,0,0.99,0,0.99,0.13c0,0.14-0.42,0.26-0.99,0.26
		C92.97,261.52,92.5,261.51,92.5,261.37L92.5,261.37z M92.28,261.37c0,0.36,0.5,0.36,1.25,0.36c0.28,0,1.21-0.03,1.21-0.48
		c0-0.29-0.35-0.32-0.46-0.33c-0.18-0.02-0.42-0.02-0.7-0.02h-0.05C93.07,260.91,92.28,260.97,92.28,261.37L92.28,261.37z"/>
	<path fill="#FFFFFF" d="M94.53,261.54c0,0.24-0.45,0.63-0.99,0.63c-0.49,0-0.98-0.27-0.98-0.54c0-0.28,0.41-0.28,0.98-0.28
		c0.13,0,0.25-0.01,0.36-0.01c0.29-0.01,0.48-0.02,0.58,0.07C94.51,261.44,94.53,261.48,94.53,261.54z"/>
	<path d="M92.67,261.62c0-0.17,0.39-0.17,0.87-0.17c0.48,0,0.88-0.08,0.88,0.09c0,0.17-0.4,0.52-0.88,0.52
		C93.06,262.06,92.67,261.8,92.67,261.62L92.67,261.62z M92.45,261.62c0,0.33,0.53,0.65,1.09,0.65c0.57,0,1.1-0.41,1.1-0.74
		c0-0.08-0.03-0.16-0.09-0.22c-0.13-0.13-0.34-0.12-0.66-0.1c-0.11,0.01-0.23,0.01-0.35,0.01c-0.23,0-0.47,0-0.64,0.02
		C92.53,261.31,92.45,261.48,92.45,261.62L92.45,261.62z"/>
	<path fill="#FFFFFF" d="M104.87,261.19c0,0.34-0.84,0.43-1.33,0.43c-0.97,0-1.4-0.03-1.4-0.29c0-0.41,1.25-0.42,1.4-0.42h0.06
		c0.34,0,0.64,0,0.85,0.02C104.57,260.95,104.87,260.98,104.87,261.19z"/>
	<path d="M102.25,261.34c0-0.17,0.58-0.31,1.29-0.31s1.23,0,1.23,0.17c0,0.17-0.52,0.33-1.23,0.33S102.25,261.51,102.25,261.34
		L102.25,261.34z M102.03,261.34c0,0.4,0.6,0.4,1.5,0.4c0.34,0,1.44-0.04,1.44-0.54c0-0.31-0.38-0.35-0.52-0.36
		c-0.22-0.02-0.52-0.02-0.86-0.02l-0.06,0C103.08,260.81,102.03,260.86,102.03,261.34L102.03,261.34z"/>
	<path fill="#FFFFFF" d="M104.74,261.5c0,0.28-0.56,0.75-1.2,0.75c-0.64,0-1.19-0.36-1.19-0.65c0-0.32,0.5-0.32,1.19-0.32
		c0.16,0,0.31-0.01,0.44-0.01c0.35-0.02,0.58-0.03,0.69,0.08C104.71,261.39,104.74,261.44,104.74,261.5z"/>
	<path d="M102.46,261.61c0-0.21,0.48-0.22,1.08-0.22c0.6,0,1.09-0.1,1.09,0.11c0,0.21-0.5,0.64-1.09,0.64
		C102.94,262.14,102.46,261.82,102.46,261.61L102.46,261.61z M102.24,261.61c0,0.39,0.63,0.76,1.29,0.76c0.68,0,1.31-0.48,1.31-0.86
		c0-0.09-0.03-0.17-0.1-0.23c-0.15-0.14-0.4-0.13-0.77-0.11c-0.13,0.01-0.28,0.01-0.44,0.01c-0.28,0-0.58,0-0.79,0.03
		C102.41,261.25,102.24,261.39,102.24,261.61L102.24,261.61z"/>
	<path fill="#FFFFFF" d="M102.26,261.36c0,0.24-0.41,0.26-1.15,0.26c-0.51,0-1.1-0.1-1.1-0.37c0-0.19,0.25-0.21,0.36-0.23
		c0.17-0.02,0.41-0.02,0.69-0.02h0.05C101.31,261,102.26,261.02,102.26,261.36z"/>
	<path d="M100.13,261.24c0-0.14,0.42-0.13,0.99-0.13c0.57,0,1.04,0.11,1.04,0.25c0,0.14-0.47,0.15-1.04,0.15
		C100.54,261.51,100.13,261.38,100.13,261.24L100.13,261.24z M99.91,261.24c0,0.44,0.92,0.48,1.21,0.48c0.76,0,1.25,0,1.25-0.36
		c0-0.41-0.79-0.47-1.25-0.47h-0.05c-0.28,0-0.52,0-0.7,0.02C100.26,260.92,99.91,260.96,99.91,261.24L99.91,261.24z"/>
	<path fill="#FFFFFF" d="M102.09,261.61c0,0.27-0.48,0.54-0.98,0.54c-0.54,0-0.99-0.38-0.99-0.63c0-0.05,0.02-0.1,0.06-0.14
		c0.1-0.09,0.29-0.08,0.58-0.07c0.11,0.01,0.23,0.01,0.36,0.01C101.68,261.33,102.09,261.33,102.09,261.61z"/>
	<path d="M100.23,261.52c0-0.17,0.4-0.09,0.88-0.09c0.48,0,0.87,0,0.87,0.17c0,0.17-0.39,0.43-0.87,0.43
		C100.64,262.04,100.23,261.7,100.23,261.52L100.23,261.52z M100.02,261.52c0,0.32,0.53,0.74,1.1,0.74c0.56,0,1.09-0.32,1.09-0.65
		c0-0.14-0.08-0.32-0.44-0.37c-0.18-0.02-0.41-0.02-0.64-0.02c-0.12,0-0.24-0.01-0.35-0.01c-0.32-0.02-0.52-0.03-0.66,0.1
		C100.05,261.36,100.02,261.44,100.02,261.52L100.02,261.52z"/>
	<path d="M88.02,248.25l0.32-0.18c0.11,0,0.27,0.05,0.27,0.67v3.42c0,2.56-0.29,3.65-0.59,3.85V248.25L88.02,248.25z M87.69,248.06
		v0.19v7.76v0.61l0.51-0.34c0.25-0.17,0.43-0.57,0.55-1.25c0.12-0.7,0.19-1.66,0.19-2.87v-3.42c0-0.24,0-0.97-0.58-0.99l-0.09,0
		l-0.08,0.04l-0.32,0.18L87.69,248.06L87.69,248.06z"/>
	<path d="M88.22,209.06l0.09-7.62c0.13,0.09,0.32,0.39,0.44,1.32c0.07,0.59,0.11,1.32,0.11,2.24l0,0.34v3.36
		c0,0.54-0.05,0.67-0.18,0.69L88.22,209.06L88.22,209.06z M87.89,209.22l0.14,0.1l0.45,0.33l0.1,0.07l0.13-0.01
		c0.47-0.05,0.47-0.58,0.47-1.01v-3.36l0-0.34c0-0.94-0.04-1.69-0.11-2.29c-0.11-0.86-0.29-1.35-0.58-1.55l-0.5-0.35l-0.01,0.61
		l-0.09,7.62L87.89,209.22L87.89,209.22z"/>
	<path d="M88.02,247.41l0.07-8.63l0.59-0.23l-0.07,8.49L88.02,247.41L88.02,247.41z M87.69,248l0.5-0.32l0.59-0.37l0.15-0.09l0-0.18
		l0.07-8.49l0-0.48l-0.45,0.18l-0.59,0.23l-0.2,0.08l0,0.22l-0.07,8.63L87.69,248L87.69,248z"/>
	<path d="M88.09,238l0.04-8.56l0.59-0.09l-0.04,8.46L88.09,238L88.09,238z M87.77,238.45l0.43-0.14l0.59-0.2l0.22-0.07l0-0.23
		l0.04-8.46l0-0.38l-0.38,0.06l-0.59,0.09l-0.27,0.04l0,0.28L87.77,238L87.77,238.45L87.77,238.45z"/>
	<path d="M88.2,218.81l0.04-8.62l0.59,0.38l-0.07,8.46L88.2,218.81L88.2,218.81z M87.87,219.04l0.21,0.08l0.57,0.22l0.44,0.17
		l0-0.47l0.07-8.46l0-0.18L89,210.3l-0.59-0.38l-0.5-0.32l0,0.59l-0.04,8.62L87.87,219.04L87.87,219.04z"/>
	<path d="M88.13,228.28l0.03-8.56l0.59,0.2l-0.03,8.46L88.13,228.28L88.13,228.28z M87.81,228.56l0.27,0.05l0.59,0.1l0.38,0.06
		l0-0.38l0.03-8.46l0-0.23l-0.22-0.08l-0.59-0.2l-0.43-0.15l0,0.45l-0.03,8.56L87.81,228.56L87.81,228.56z"/>
	<path d="M106.13,248.74c0-0.61,0.16-0.66,0.27-0.67l0.32,0.18v7.76c-0.3-0.2-0.59-1.29-0.59-3.85V248.74L106.13,248.74z
		 M105.8,248.74v3.42c0,1.2,0.06,2.17,0.19,2.87c0.12,0.69,0.3,1.09,0.55,1.25l0.51,0.34v-0.61v-7.76v-0.19l-0.17-0.09l-0.32-0.18
		l-0.08-0.04l-0.09,0C105.8,247.77,105.8,248.5,105.8,248.74L105.8,248.74z"/>
	<path d="M105.88,205c0-0.92,0.04-1.66,0.11-2.24c0.12-0.93,0.31-1.23,0.44-1.32l0.09,7.62l-0.45,0.33
		c-0.13-0.02-0.18-0.14-0.18-0.69v-3.36L105.88,205L105.88,205z M105.56,205l0,0.34v3.36c0,0.43,0,0.95,0.47,1.01l0.13,0.01
		l0.1-0.07l0.45-0.33l0.14-0.1l0-0.17l-0.09-7.62l-0.01-0.61l-0.5,0.35c-0.28,0.2-0.47,0.69-0.58,1.55
		C105.59,203.31,105.56,204.06,105.56,205L105.56,205z"/>
	<path d="M106.05,238.55l0.59,0.23l0.07,8.63l-0.59-0.37L106.05,238.55L106.05,238.55z M105.72,238.07l0,0.48l0.07,8.49l0,0.18
		l0.15,0.09l0.59,0.37l0.5,0.32l-0.01-0.6l-0.07-8.63l0-0.22l-0.2-0.08l-0.59-0.23L105.72,238.07L105.72,238.07z"/>
	<path d="M106.01,229.34l0.59,0.09l0.04,8.56l-0.59-0.2L106.01,229.34L106.01,229.34z M105.69,228.96l0,0.38l0.04,8.46l0,0.23
		l0.22,0.07l0.59,0.2l0.43,0.14l0-0.45l-0.04-8.56l0-0.28l-0.27-0.04l-0.59-0.09L105.69,228.96L105.69,228.96z"/>
	<path d="M105.91,210.57l0.59-0.38l0.04,8.62l-0.57,0.22L105.91,210.57L105.91,210.57z M105.58,210.4l0,0.18l0.07,8.46l0,0.47
		l0.44-0.17l0.57-0.22l0.21-0.08l0-0.22l-0.04-8.62l0-0.59l-0.5,0.32l-0.59,0.38L105.58,210.4L105.58,210.4z"/>
	<path d="M105.98,219.92l0.59-0.2l0.03,8.56l-0.59,0.1L105.98,219.92L105.98,219.92z M105.65,219.69l0,0.23l0.03,8.46l0,0.38
		l0.38-0.06l0.59-0.1l0.27-0.05l0-0.28l-0.03-8.56l0-0.45l-0.43,0.15l-0.59,0.2L105.65,219.69L105.65,219.69z"/>
	<path d="M92.57,200.03c0-0.35,0.29-0.64,0.64-0.64h8.33c0.35,0,0.64,0.29,0.64,0.64l-0.23,1.44c0,0.35-0.28,0.64-0.64,0.64h-7.87
		c-0.35,0-0.64-0.29-0.64-0.64L92.57,200.03L92.57,200.03z M92.25,200.03v0.03l0,0.03l0.22,1.41c0.01,0.52,0.44,0.93,0.96,0.93h7.87
		c0.52,0,0.95-0.42,0.96-0.93l0.22-1.41l0-0.03v-0.03c0-0.53-0.43-0.96-0.96-0.96h-8.33C92.68,199.07,92.25,199.5,92.25,200.03
		L92.25,200.03z"/>
	<path d="M90.24,253.87l0.23-1.44v-0.02c0-0.29,0.29-0.55,0.6-0.55h5.16c0.3,0,0.55,0.24,0.55,0.55l0.01,1.44
		c0,0.3-0.25,0.55-0.55,0.55h-5.45C90.49,254.4,90.25,254.17,90.24,253.87L90.24,253.87z M89.91,253.85l0,0.03
		c0.01,0.47,0.4,0.85,0.87,0.85h5.45c0.48,0,0.87-0.39,0.87-0.87l-0.01-1.44c0-0.48-0.39-0.87-0.87-0.87h-5.16
		c-0.49,0-0.92,0.4-0.93,0.86l-0.22,1.41L89.91,253.85L89.91,253.85z"/>
	<path d="M97.94,253.86l0.01-1.44c0-0.3,0.24-0.55,0.55-0.55h5.16c0.31,0,0.6,0.26,0.6,0.55v0.02l0.23,1.44
		c-0.01,0.29-0.25,0.53-0.55,0.53h-5.45C98.19,254.4,97.94,254.16,97.94,253.86L97.94,253.86z M97.62,253.86L97.62,253.86
		c0,0.48,0.39,0.87,0.87,0.87h5.45c0.48,0,0.86-0.37,0.87-0.85l0-0.03l0-0.03l-0.22-1.41c-0.01-0.46-0.44-0.86-0.93-0.86H98.5
		c-0.48,0-0.87,0.39-0.87,0.87L97.62,253.86L97.62,253.86L97.62,253.86z"/>
	<path d="M110.32,254.28c0-0.02,0.01-0.03,0.02-0.03l1.26-0.23c0.03,0,0.04,0.05,0.04,0.13c0,0.18-0.06,0.47-0.12,0.48l-0.89,0.16
		C110.55,254.81,110.32,254.4,110.32,254.28L110.32,254.28z M110.1,254.28L110.1,254.28c0,0.18,0.21,0.55,0.34,0.66
		c0.09,0.07,0.17,0.08,0.22,0.07l0.89-0.16c0.27-0.05,0.3-0.54,0.3-0.69c0-0.1-0.01-0.22-0.1-0.3c-0.05-0.04-0.12-0.06-0.19-0.05
		l-1.27,0.23C110.19,254.06,110.1,254.16,110.1,254.28L110.1,254.28z"/>
	<rect x="106.89" y="255.38" fill="#FFFFFF" width="4.14" height="0.39"/>
	<path d="M107,255.49h3.92v0.18H107V255.49L107,255.49z M106.78,255.28v0.22v0.18v0.22H107h3.92h0.22v-0.22v-0.18v-0.22h-0.22H107
		H106.78L106.78,255.28z"/>
	<rect x="110.83" y="254.61" fill="#FFFFFF" width="0.4" height="0.93"/>
	<path d="M110.94,254.72h0.22v0.72h-0.22V254.72L110.94,254.72z M110.72,254.5v0.22v0.72v0.22h0.22h0.06h0.38v-0.22v-0.72v-0.22
		h-0.38h-0.06H110.72L110.72,254.5z"/>
	<path fill="#FFFFFF" d="M111.26,255.59c0,0.1-0.08,0.19-0.19,0.19h-0.1c-0.1,0-0.19-0.08-0.19-0.19c0-0.1,0.08-0.19,0.19-0.19h0.1
		C111.18,255.4,111.26,255.49,111.26,255.59z"/>
	<path d="M110.9,255.59c0-0.04,0.04-0.08,0.08-0.08h0.1c0.04,0,0.08,0.04,0.08,0.08c0,0.04-0.04,0.08-0.08,0.08h-0.1
		C110.93,255.67,110.9,255.63,110.9,255.59L110.9,255.59z M110.68,255.59c0,0.16,0.13,0.3,0.3,0.3h0.1c0.16,0,0.3-0.13,0.3-0.3
		c0-0.16-0.13-0.3-0.3-0.3h-0.1C110.82,255.29,110.68,255.43,110.68,255.59L110.68,255.59z"/>
	<path fill="#FFFFFF" d="M84.53,254.28c0-0.12-0.08-0.22-0.2-0.24l-1.27-0.23c-0.07-0.01-0.14,0.01-0.19,0.05
		c-0.09,0.08-0.1,0.19-0.1,0.3c0,0.15,0.02,0.65,0.3,0.69l0.89,0.16c0.05,0.01,0.13,0.01,0.22-0.07
		C84.33,254.83,84.53,254.46,84.53,254.28L84.53,254.28L84.53,254.28z"/>
	<path d="M84.32,254.28c0,0.12-0.23,0.53-0.31,0.52l-0.89-0.16c-0.06-0.01-0.12-0.3-0.12-0.48c0-0.08,0.01-0.14,0.04-0.13l1.26,0.23
		C84.31,254.25,84.32,254.26,84.32,254.28L84.32,254.28z M84.53,254.28c0-0.12-0.08-0.22-0.2-0.24l-1.27-0.23
		c-0.07-0.01-0.14,0.01-0.19,0.05c-0.09,0.08-0.1,0.19-0.1,0.3c0,0.15,0.02,0.65,0.3,0.69l0.89,0.16c0.05,0.01,0.13,0.01,0.22-0.07
		C84.33,254.83,84.53,254.46,84.53,254.28L84.53,254.28L84.53,254.28z"/>
	<rect x="83.61" y="255.38" fill="#FFFFFF" width="4.14" height="0.39"/>
	<path d="M87.64,255.49v0.18h-3.92v-0.18H87.64L87.64,255.49z M87.85,255.28h-0.22h-3.92H83.5v0.22v0.18v0.22h0.22h3.92h0.22v-0.22
		v-0.18V255.28L87.85,255.28z"/>
	<rect x="83.41" y="254.61" fill="#FFFFFF" width="0.4" height="0.93"/>
	<path d="M83.7,254.72v0.72h-0.22v-0.72H83.7L83.7,254.72z M83.92,254.5H83.7h-0.06h-0.38v0.22v0.72v0.22h0.38h0.06h0.22v-0.22
		v-0.72V254.5L83.92,254.5z"/>
	<path fill="#FFFFFF" d="M83.37,255.59c0,0.1,0.08,0.19,0.19,0.19h0.1c0.1,0,0.19-0.08,0.19-0.19c0-0.1-0.08-0.19-0.19-0.19h-0.1
		C83.46,255.4,83.37,255.49,83.37,255.59z"/>
	<path d="M83.74,255.59c0,0.04-0.04,0.08-0.08,0.08h-0.1c-0.04,0-0.08-0.04-0.08-0.08c0-0.04,0.04-0.08,0.08-0.08h0.1
		C83.7,255.51,83.74,255.55,83.74,255.59L83.74,255.59z M83.95,255.59c0-0.16-0.13-0.3-0.3-0.3h-0.1c-0.16,0-0.3,0.13-0.3,0.3
		c0,0.16,0.13,0.3,0.3,0.3h0.1C83.82,255.88,83.95,255.75,83.95,255.59L83.95,255.59z"/>
	<path fill="#FFFFFF" d="M101.96,243.77c0,0.64-0.52,1.16-1.16,1.16h-6.83c-0.64,0-1.16-0.52-1.16-1.16V231.5
		c0-0.64,0.52-1.16,1.16-1.16h6.83c0.64,0,1.16,0.52,1.16,1.16V243.77z"/>
	<path d="M93.03,231.5c0-0.52,0.42-0.94,0.94-0.94h6.83c0.52,0,0.94,0.42,0.94,0.94v12.27c0,0.52-0.42,0.94-0.94,0.94h-6.83
		c-0.52,0-0.94-0.42-0.94-0.94V231.5L93.03,231.5z M92.59,231.5v12.27c0,0.76,0.62,1.38,1.38,1.38h6.83c0.76,0,1.38-0.62,1.38-1.38
		V231.5c0-0.76-0.62-1.38-1.38-1.38h-6.83C93.21,230.12,92.59,230.74,92.59,231.5L92.59,231.5z"/>
	<path fill="#FFFFFF" d="M101.17,243.14c0,0.38-0.31,0.69-0.69,0.69h-6.19c-0.38,0-0.69-0.31-0.69-0.69v-3.44
		c0-0.38,0.31-0.69,0.69-0.69h6.19c0.38,0,0.69,0.31,0.69,0.69V243.14z"/>
	<path d="M93.81,239.7c0-0.26,0.21-0.48,0.48-0.48h6.19c0.26,0,0.48,0.21,0.48,0.48v3.44c0,0.26-0.21,0.48-0.48,0.48h-6.19
		c-0.26,0-0.48-0.21-0.48-0.48V239.7L93.81,239.7z M93.38,239.7v3.44c0,0.5,0.41,0.91,0.91,0.91h6.19c0.5,0,0.91-0.41,0.91-0.91
		v-3.44c0-0.5-0.41-0.91-0.91-0.91h-6.19C93.79,238.79,93.38,239.2,93.38,239.7L93.38,239.7z"/>
</g>
<g id="svg05RightCar">
	<polygon opacity="0.3" fill="#B8834E" points="276.08,256.26 270.1,269.82 280.87,269.82 	"/>
	<polygon opacity="0.3" fill="#B8834E" points="286.1,256.26 280.13,269.82 290.9,269.82 	"/>
	<path fill="#FFFFFF" d="M271.72,260.04c0,0.33-0.35,0.59-0.81,0.59c-0.45,0-0.81-0.26-0.81-0.59v-9.87c0-0.33,0.35-0.59,0.81-0.59
		c0.45,0,0.81,0.26,0.81,0.59V260.04z"/>
	<path d="M270.26,250.16c0-0.24,0.29-0.43,0.64-0.43s0.64,0.19,0.64,0.43v9.87c0,0.24-0.29,0.43-0.64,0.43s-0.64-0.19-0.64-0.43
		V250.16L270.26,250.16z M269.94,250.16v9.87c0,0.42,0.43,0.76,0.97,0.76c0.54,0,0.97-0.33,0.97-0.76v-9.87
		c0-0.42-0.43-0.76-0.97-0.76C270.36,249.41,269.94,249.74,269.94,250.16L269.94,250.16z"/>
	<path fill="#FFFFFF" d="M271.72,218.71c0,0.33-0.35,0.59-0.81,0.59c-0.45,0-0.81-0.26-0.81-0.59v-9.87c0-0.33,0.35-0.59,0.81-0.59
		c0.45,0,0.81,0.26,0.81,0.59V218.71z"/>
	<path d="M270.26,208.84c0-0.24,0.29-0.43,0.64-0.43s0.64,0.19,0.64,0.43v9.87c0,0.24-0.29,0.43-0.64,0.43s-0.64-0.19-0.64-0.43
		V208.84L270.26,208.84z M269.94,208.84v9.87c0,0.42,0.43,0.76,0.97,0.76c0.54,0,0.97-0.33,0.97-0.76v-9.87
		c0-0.42-0.43-0.76-0.97-0.76C270.36,208.08,269.94,208.42,269.94,208.84L269.94,208.84z"/>
	<path fill="#FFFFFF" d="M291.74,260.04c0,0.33-0.35,0.59-0.81,0.59c-0.45,0-0.81-0.26-0.81-0.59v-9.87c0-0.33,0.35-0.59,0.81-0.59
		c0.45,0,0.81,0.26,0.81,0.59V260.04z"/>
	<path d="M290.29,250.16c0-0.24,0.29-0.43,0.64-0.43s0.64,0.19,0.64,0.43v9.87c0,0.24-0.29,0.43-0.64,0.43s-0.64-0.19-0.64-0.43
		V250.16L290.29,250.16z M289.97,250.16v9.87c0,0.42,0.43,0.76,0.97,0.76c0.54,0,0.97-0.33,0.97-0.76v-9.87
		c0-0.42-0.43-0.76-0.97-0.76C290.39,249.41,289.97,249.74,289.97,250.16L289.97,250.16z"/>
	<path fill="#FFFFFF" d="M291.74,218.71c0,0.33-0.35,0.59-0.81,0.59c-0.45,0-0.81-0.26-0.81-0.59v-9.87c0-0.33,0.35-0.59,0.81-0.59
		c0.45,0,0.81,0.26,0.81,0.59V218.71z"/>
	<path d="M290.29,208.84c0-0.24,0.29-0.43,0.64-0.43s0.64,0.19,0.64,0.43v9.87c0,0.24-0.29,0.43-0.64,0.43s-0.64-0.19-0.64-0.43
		V208.84L290.29,208.84z M289.97,208.84v9.87c0,0.42,0.43,0.76,0.97,0.76c0.54,0,0.97-0.33,0.97-0.76v-9.87
		c0-0.42-0.43-0.76-0.97-0.76C290.39,208.08,289.97,208.42,289.97,208.84L289.97,208.84z"/>
	<path fill="#FFFFFF" d="M289.24,260.6c0,0.62-0.5,1.13-1.13,1.13h-14.47c-0.62,0-1.13-0.5-1.13-1.13c0-0.62,0.49-1.34,1.13-1.34
		h14.47C288.74,259.25,289.24,259.98,289.24,260.6z"/>
	<path d="M272.68,260.6c0-0.53,0.43-1.18,0.96-1.18h14.47c0.53,0,0.96,0.65,0.96,1.18s-0.43,0.96-0.96,0.96h-14.47
		C273.11,261.56,272.68,261.13,272.68,260.6L272.68,260.6z M272.35,260.6c0,0.71,0.58,1.29,1.29,1.29h14.47
		c0.71,0,1.29-0.58,1.29-1.29c0-0.7-0.56-1.51-1.29-1.51h-14.47C272.91,259.09,272.35,259.9,272.35,260.6L272.35,260.6z"/>
	<path fill="#FFFFFF" d="M289.9,259.12c0,0.81-0.66,1.46-1.46,1.46h-15.03c-0.81,0-1.46-0.66-1.46-1.46v-3.06
		c0-0.81,0.66-1.46,1.46-1.46h15.03c0.81,0,1.46,0.66,1.46,1.46V259.12z"/>
	<path d="M272.11,256.06c0-0.72,0.58-1.3,1.3-1.3h15.03c0.72,0,1.3,0.58,1.3,1.3v3.06c0,0.72-0.58,1.3-1.3,1.3h-15.03
		c-0.72,0-1.3-0.58-1.3-1.3V256.06L272.11,256.06z M271.79,256.06v3.06c0,0.9,0.73,1.63,1.63,1.63h15.03c0.9,0,1.63-0.73,1.63-1.63
		v-3.06c0-0.9-0.73-1.63-1.63-1.63h-15.03C272.52,254.43,271.79,255.16,271.79,256.06L271.79,256.06z"/>
	<path fill="#FFFFFF" d="M290.92,257.06c0,0.81-0.72,1.46-1.61,1.46h-16.75c-0.89,0-1.61-0.66-1.61-1.46l0.34-57.61
		c0-0.81,0.72-1.46,1.61-1.46h16.07c0.89,0,1.61,0.66,1.61,1.46L290.92,257.06L290.92,257.06z"/>
	<path d="M271.1,257.06l0.34-57.61c0-0.72,0.65-1.3,1.45-1.3h16.07c0.8,0,1.45,0.58,1.45,1.3l0.34,57.61c0,0.72-0.65,1.3-1.45,1.3
		h-16.75C271.75,258.36,271.1,257.78,271.1,257.06L271.1,257.06z M270.77,257.06L270.77,257.06c0,0.9,0.8,1.63,1.78,1.63h16.75
		c0.98,0,1.78-0.73,1.78-1.63l-0.34-57.61c0-0.9-0.8-1.63-1.78-1.63h-16.07c-0.98,0-1.78,0.73-1.78,1.63L270.77,257.06
		L270.77,257.06L270.77,257.06z"/>
	<path fill="#FFFFFF" d="M288.83,250.27c0,0.84-0.66,1.52-1.47,1.52h-12.85c-0.81,0-1.47-0.68-1.47-1.52l0.29-44.75
		c0-0.84,0.66-1.52,1.47-1.52h12.26c0.81,0,1.47,0.68,1.47,1.52L288.83,250.27L288.83,250.27z"/>
	<path d="M273.26,250.27l0.29-44.75c0-0.72,0.56-1.3,1.25-1.3h12.26c0.69,0,1.25,0.58,1.25,1.3l0.29,44.75c0,0.72-0.56,1.3-1.25,1.3
		h-12.85C273.82,251.57,273.26,250.99,273.26,250.27L273.26,250.27z M272.83,250.27L272.83,250.27c0,0.96,0.76,1.74,1.69,1.74h12.85
		c0.93,0,1.69-0.78,1.69-1.74l-0.29-44.75c0-0.95-0.76-1.73-1.69-1.73h-12.26c-0.93,0-1.69,0.78-1.69,1.74L272.83,250.27
		L272.83,250.27L272.83,250.27z"/>
	<path fill="#FFFFFF" d="M276.01,262.12c0,0.26-0.43,0.29-1.4,0.29c-0.5,0-1.33-0.09-1.33-0.43c0-0.21,0.3-0.24,0.43-0.25
		c0.21-0.02,0.51-0.02,0.85-0.02h0.06C274.75,261.7,276.01,261.71,276.01,262.12z"/>
	<path d="M273.38,261.97c0-0.17,0.52-0.17,1.23-0.17s1.29,0.14,1.29,0.31c0,0.17-0.58,0.18-1.29,0.18S273.38,262.14,273.38,261.97
		L273.38,261.97z M273.17,261.97c0,0.5,1.1,0.54,1.44,0.54c0.91,0,1.5,0,1.5-0.4c0-0.47-1.05-0.53-1.5-0.53l-0.06,0
		c-0.35,0-0.64,0-0.86,0.02C273.55,261.63,273.17,261.67,273.17,261.97L273.17,261.97z"/>
	<path fill="#FFFFFF" d="M275.8,262.39c0,0.29-0.55,0.65-1.19,0.65c-0.64,0-1.2-0.47-1.2-0.75c0-0.06,0.02-0.11,0.06-0.15
		c0.11-0.11,0.34-0.1,0.69-0.08c0.13,0.01,0.29,0.01,0.44,0.01C275.3,262.06,275.8,262.06,275.8,262.39z"/>
	<path d="M273.52,262.28c0-0.21,0.5-0.11,1.09-0.11c0.59,0,1.08,0,1.08,0.22c0,0.21-0.48,0.54-1.08,0.54
		C274.02,262.93,273.52,262.5,273.52,262.28L273.52,262.28z M273.3,262.28c0,0.38,0.64,0.86,1.31,0.86c0.67,0,1.29-0.37,1.29-0.76
		c0-0.22-0.17-0.36-0.5-0.4c-0.21-0.03-0.51-0.03-0.79-0.03c-0.15,0-0.31-0.01-0.44-0.01c-0.38-0.02-0.63-0.03-0.77,0.11
		C273.33,262.11,273.3,262.19,273.3,262.28L273.3,262.28z"/>
	<path fill="#FFFFFF" d="M278.19,262.03c0,0.27-0.59,0.37-1.1,0.37c-0.73,0-1.15-0.01-1.15-0.26c0-0.34,0.95-0.36,1.15-0.36h0.05
		c0.28,0,0.51,0,0.69,0.02C277.93,261.81,278.19,261.84,278.19,262.03z"/>
	<path d="M276.05,262.14c0-0.14,0.47-0.25,1.04-0.25c0.57,0,0.99,0,0.99,0.13c0,0.14-0.42,0.26-0.99,0.26
		C276.52,262.29,276.05,262.28,276.05,262.14L276.05,262.14z M275.84,262.14c0,0.36,0.5,0.36,1.25,0.36c0.28,0,1.21-0.03,1.21-0.48
		c0-0.29-0.35-0.32-0.46-0.33c-0.18-0.02-0.42-0.02-0.7-0.02h-0.05C276.62,261.67,275.84,261.74,275.84,262.14L275.84,262.14z"/>
	<path fill="#FFFFFF" d="M278.08,262.31c0,0.24-0.45,0.63-0.99,0.63c-0.49,0-0.98-0.27-0.98-0.54c0-0.28,0.41-0.28,0.98-0.28
		c0.13,0,0.25-0.01,0.36-0.01c0.29-0.01,0.48-0.02,0.58,0.07C278.06,262.2,278.08,262.25,278.08,262.31z"/>
	<path d="M276.22,262.39c0-0.17,0.39-0.17,0.87-0.17c0.48,0,0.88-0.08,0.88,0.09c0,0.17-0.4,0.52-0.88,0.52
		C276.61,262.82,276.22,262.56,276.22,262.39L276.22,262.39z M276.01,262.39c0,0.33,0.53,0.65,1.09,0.65c0.57,0,1.1-0.41,1.1-0.74
		c0-0.08-0.03-0.16-0.09-0.22c-0.13-0.13-0.34-0.12-0.66-0.1c-0.11,0.01-0.23,0.01-0.35,0.01c-0.23,0-0.47,0-0.64,0.02
		C276.08,262.07,276.01,262.25,276.01,262.39L276.01,262.39z"/>
	<path fill="#FFFFFF" d="M288.42,261.96c0,0.34-0.84,0.43-1.33,0.43c-0.97,0-1.4-0.03-1.4-0.29c0-0.41,1.25-0.42,1.4-0.42h0.06
		c0.34,0,0.64,0,0.85,0.02C288.12,261.72,288.42,261.75,288.42,261.96z"/>
	<path d="M285.8,262.1c0-0.17,0.58-0.31,1.29-0.31c0.71,0,1.23,0,1.23,0.17s-0.52,0.33-1.23,0.33
		C286.38,262.29,285.8,262.27,285.8,262.1L285.8,262.1z M285.58,262.1c0,0.4,0.6,0.4,1.5,0.4c0.34,0,1.44-0.04,1.44-0.54
		c0-0.31-0.38-0.35-0.52-0.36c-0.22-0.02-0.52-0.02-0.86-0.02l-0.06,0C286.64,261.58,285.58,261.63,285.58,262.1L285.58,262.1z"/>
	<path fill="#FFFFFF" d="M288.29,262.27c0,0.28-0.56,0.75-1.2,0.75c-0.64,0-1.19-0.36-1.19-0.65c0-0.32,0.5-0.32,1.19-0.32
		c0.16,0,0.31-0.01,0.44-0.01c0.35-0.02,0.58-0.03,0.69,0.08C288.27,262.16,288.29,262.21,288.29,262.27z"/>
	<path d="M286.01,262.37c0-0.21,0.48-0.22,1.08-0.22c0.6,0,1.09-0.1,1.09,0.11c0,0.21-0.5,0.64-1.09,0.64
		C286.49,262.91,286.01,262.59,286.01,262.37L286.01,262.37z M285.79,262.37c0,0.39,0.63,0.76,1.29,0.76c0.68,0,1.31-0.48,1.31-0.86
		c0-0.09-0.03-0.17-0.1-0.23c-0.15-0.14-0.4-0.13-0.77-0.11c-0.13,0.01-0.28,0.01-0.44,0.01c-0.28,0-0.58,0-0.79,0.03
		C285.96,262.02,285.79,262.15,285.79,262.37L285.79,262.37z"/>
	<path fill="#FFFFFF" d="M285.82,262.13c0,0.24-0.41,0.26-1.15,0.26c-0.51,0-1.1-0.1-1.1-0.37c0-0.19,0.25-0.21,0.36-0.23
		c0.17-0.02,0.41-0.02,0.69-0.02h0.05C284.86,261.77,285.82,261.79,285.82,262.13z"/>
	<path d="M283.68,262.01c0-0.14,0.42-0.13,0.99-0.13c0.57,0,1.04,0.11,1.04,0.25c0,0.14-0.47,0.15-1.04,0.15
		C284.1,262.27,283.68,262.15,283.68,262.01L283.68,262.01z M283.47,262.01c0,0.44,0.92,0.48,1.21,0.48c0.76,0,1.25,0,1.25-0.36
		c0-0.41-0.79-0.47-1.25-0.47h-0.05c-0.28,0-0.52,0-0.7,0.02C283.81,261.69,283.47,261.72,283.47,262.01L283.47,262.01z"/>
	<path fill="#FFFFFF" d="M285.65,262.38c0,0.27-0.48,0.54-0.98,0.54c-0.54,0-0.99-0.38-0.99-0.63c0-0.05,0.02-0.1,0.06-0.14
		c0.1-0.09,0.29-0.08,0.58-0.07c0.11,0.01,0.23,0.01,0.36,0.01C285.24,262.09,285.65,262.09,285.65,262.38z"/>
	<path d="M283.79,262.29c0-0.17,0.4-0.09,0.88-0.09c0.48,0,0.87,0,0.87,0.17c0,0.17-0.39,0.43-0.87,0.43
		C284.19,262.81,283.79,262.46,283.79,262.29L283.79,262.29z M283.57,262.29c0,0.32,0.53,0.74,1.1,0.74c0.56,0,1.09-0.32,1.09-0.65
		c0-0.14-0.08-0.32-0.44-0.37c-0.18-0.02-0.41-0.02-0.64-0.02c-0.12,0-0.24-0.01-0.35-0.01c-0.32-0.02-0.52-0.03-0.66,0.1
		C283.6,262.13,283.57,262.21,283.57,262.29L283.57,262.29z"/>
	<path d="M271.57,249.02l0.32-0.18c0.11,0,0.27,0.05,0.27,0.67v3.42c0,2.56-0.29,3.65-0.59,3.85V249.02L271.57,249.02z
		 M271.25,248.83v0.19v7.76v0.61l0.51-0.34c0.25-0.17,0.43-0.57,0.55-1.25c0.12-0.7,0.19-1.66,0.19-2.87v-3.42
		c0-0.24,0-0.97-0.58-0.99l-0.09,0l-0.08,0.04l-0.32,0.18L271.25,248.83L271.25,248.83z"/>
	<path d="M271.77,209.83l0.09-7.62c0.13,0.09,0.32,0.39,0.44,1.32c0.07,0.59,0.11,1.32,0.11,2.24l0,0.34v3.36
		c0,0.54-0.05,0.67-0.18,0.69L271.77,209.83L271.77,209.83z M271.44,209.99l0.14,0.1l0.45,0.33l0.1,0.07l0.13-0.01
		c0.47-0.05,0.47-0.58,0.47-1.01v-3.36l0-0.34c0-0.94-0.04-1.69-0.11-2.29c-0.11-0.86-0.29-1.35-0.58-1.55l-0.5-0.35l-0.01,0.61
		l-0.09,7.62L271.44,209.99L271.44,209.99z"/>
	<path d="M271.57,248.17l0.07-8.63l0.59-0.23l-0.07,8.49L271.57,248.17L271.57,248.17z M271.24,248.77l0.5-0.32l0.59-0.37l0.15-0.09
		l0-0.18l0.07-8.49l0-0.48l-0.45,0.18l-0.59,0.23l-0.2,0.08l0,0.22l-0.07,8.63L271.24,248.77L271.24,248.77z"/>
	<path d="M271.65,238.76l0.04-8.56l0.59-0.09l-0.04,8.46L271.65,238.76L271.65,238.76z M271.32,239.22l0.43-0.14l0.59-0.2l0.22-0.07
		l0-0.23l0.04-8.46l0-0.38l-0.38,0.06l-0.59,0.09l-0.27,0.04l0,0.28l-0.04,8.56L271.32,239.22L271.32,239.22z"/>
	<path d="M271.75,219.58l0.04-8.62l0.59,0.38l-0.07,8.46L271.75,219.58L271.75,219.58z M271.42,219.8l0.21,0.08l0.57,0.22l0.44,0.17
		l0-0.47l0.07-8.46l0-0.18l-0.15-0.1l-0.59-0.38l-0.5-0.32l0,0.59l-0.04,8.62L271.42,219.8L271.42,219.8z"/>
	<path d="M271.69,229.05l0.03-8.56l0.59,0.2l-0.03,8.46L271.69,229.05L271.69,229.05z M271.36,229.32l0.27,0.05l0.59,0.1l0.38,0.06
		l0-0.38l0.03-8.46l0-0.23l-0.22-0.08l-0.59-0.2l-0.43-0.15l0,0.45l-0.03,8.56L271.36,229.32L271.36,229.32z"/>
	<path d="M289.68,249.51c0-0.61,0.16-0.66,0.27-0.67l0.32,0.18v7.76c-0.3-0.2-0.59-1.29-0.59-3.85V249.51L289.68,249.51z
		 M289.36,249.51v3.42c0,1.2,0.06,2.17,0.19,2.87c0.12,0.69,0.3,1.09,0.55,1.25l0.51,0.34v-0.61v-7.76v-0.19l-0.17-0.09l-0.32-0.18
		l-0.08-0.04l-0.09,0C289.36,248.54,289.36,249.27,289.36,249.51L289.36,249.51z"/>
	<path d="M289.44,205.76c0-0.92,0.04-1.66,0.11-2.24c0.12-0.93,0.31-1.23,0.44-1.32l0.09,7.62l-0.45,0.33
		c-0.13-0.02-0.18-0.14-0.18-0.69v-3.36L289.44,205.76L289.44,205.76z M289.11,205.76l0,0.34v3.36c0,0.43,0,0.95,0.47,1.01
		l0.13,0.01l0.1-0.07l0.45-0.33l0.14-0.1l0-0.17l-0.09-7.62l-0.01-0.61l-0.5,0.35c-0.28,0.2-0.47,0.69-0.58,1.55
		C289.15,204.08,289.11,204.83,289.11,205.76L289.11,205.76z"/>
	<path d="M289.61,239.32l0.59,0.23l0.07,8.63l-0.59-0.37L289.61,239.32L289.61,239.32z M289.28,238.84l0,0.48l0.07,8.49l0,0.18
		l0.15,0.09l0.59,0.37l0.5,0.32l-0.01-0.6l-0.07-8.63l0-0.22l-0.2-0.08l-0.59-0.23L289.28,238.84L289.28,238.84z"/>
	<path d="M289.57,230.11l0.59,0.09l0.04,8.56l-0.59-0.2L289.57,230.11L289.57,230.11z M289.24,229.73l0,0.38l0.04,8.46l0,0.23
		l0.22,0.07l0.59,0.2l0.43,0.14l0-0.45l-0.04-8.56l0-0.28l-0.27-0.04l-0.59-0.09L289.24,229.73L289.24,229.73z"/>
	<path d="M289.46,211.34l0.59-0.38l0.04,8.62l-0.57,0.22L289.46,211.34L289.46,211.34z M289.13,211.16l0,0.18l0.07,8.46l0,0.47
		l0.44-0.17l0.57-0.22l0.21-0.08l0-0.22l-0.04-8.62l0-0.59l-0.5,0.32l-0.59,0.38L289.13,211.16L289.13,211.16z"/>
	<path d="M289.54,220.69l0.59-0.2l0.03,8.56l-0.59,0.1L289.54,220.69L289.54,220.69z M289.21,220.46l0,0.23l0.03,8.46l0,0.38
		l0.38-0.06l0.59-0.1l0.27-0.05l0-0.28l-0.03-8.56l0-0.45l-0.43,0.15l-0.59,0.2L289.21,220.46L289.21,220.46z"/>
	<path d="M276.13,200.79c0-0.35,0.29-0.64,0.64-0.64h8.33c0.35,0,0.64,0.29,0.64,0.64l-0.23,1.44c0,0.35-0.29,0.64-0.64,0.64h-7.87
		c-0.35,0-0.64-0.29-0.64-0.64L276.13,200.79L276.13,200.79z M275.8,200.79v0.03l0,0.03l0.22,1.41c0.02,0.52,0.44,0.93,0.96,0.93
		h7.87c0.52,0,0.95-0.42,0.96-0.93l0.22-1.41l0-0.03v-0.03c0-0.53-0.43-0.96-0.96-0.96h-8.33
		C276.23,199.83,275.8,200.26,275.8,200.79L275.8,200.79z"/>
	<path d="M273.79,254.64l0.23-1.44v-0.02c0-0.29,0.29-0.55,0.6-0.55h5.16c0.3,0,0.55,0.24,0.55,0.55l0.01,1.44
		c0,0.3-0.25,0.55-0.55,0.55h-5.45C274.04,255.17,273.8,254.93,273.79,254.64L273.79,254.64z M273.47,254.62l0,0.03
		c0.01,0.47,0.4,0.85,0.87,0.85h5.45c0.48,0,0.87-0.39,0.87-0.87l-0.01-1.44c0-0.48-0.39-0.87-0.87-0.87h-5.16
		c-0.49,0-0.92,0.4-0.93,0.86l-0.22,1.41L273.47,254.62L273.47,254.62z"/>
	<path d="M281.5,254.62l0.01-1.44c0-0.3,0.24-0.55,0.55-0.55h5.16c0.31,0,0.6,0.26,0.6,0.55v0.02l0.23,1.44
		c-0.01,0.29-0.25,0.53-0.55,0.53h-5.45C281.74,255.17,281.5,254.93,281.5,254.62L281.5,254.62z M281.17,254.62L281.17,254.62
		c0,0.48,0.39,0.87,0.87,0.87h5.45c0.48,0,0.86-0.37,0.87-0.85l0-0.03l0-0.03l-0.22-1.41c-0.01-0.46-0.44-0.86-0.93-0.86h-5.16
		c-0.48,0-0.87,0.39-0.87,0.87L281.17,254.62L281.17,254.62L281.17,254.62z"/>
	<path d="M293.88,255.05c0-0.02,0.01-0.03,0.02-0.03l1.26-0.23c0.03,0,0.04,0.05,0.04,0.13c0,0.18-0.06,0.47-0.12,0.48l-0.89,0.16
		C294.11,255.58,293.88,255.17,293.88,255.05L293.88,255.05z M293.66,255.05L293.66,255.05c0,0.18,0.21,0.55,0.34,0.66
		c0.09,0.07,0.17,0.08,0.22,0.07l0.89-0.16c0.27-0.05,0.3-0.54,0.3-0.69c0-0.1-0.01-0.22-0.1-0.3c-0.05-0.04-0.12-0.06-0.19-0.05
		l-1.27,0.23C293.74,254.82,293.66,254.92,293.66,255.05L293.66,255.05z"/>
	<rect x="290.45" y="256.15" fill="#FFFFFF" width="4.14" height="0.39"/>
	<path d="M290.55,256.26h3.92v0.18h-3.92V256.26L290.55,256.26z M290.34,256.04v0.22v0.18v0.22h0.22h3.92h0.22v-0.22v-0.18v-0.22
		h-0.22h-3.92H290.34L290.34,256.04z"/>
	<rect x="294.38" y="255.37" fill="#FFFFFF" width="0.4" height="0.93"/>
	<path d="M294.49,255.48h0.22v0.72h-0.22V255.48L294.49,255.48z M294.27,255.27v0.22v0.72v0.22h0.22h0.06h0.38v-0.22v-0.72v-0.22
		h-0.38h-0.06H294.27L294.27,255.27z"/>
	<path fill="#FFFFFF" d="M294.82,256.36c0,0.1-0.08,0.19-0.19,0.19h-0.1c-0.1,0-0.19-0.08-0.19-0.19c0-0.1,0.08-0.19,0.19-0.19h0.1
		C294.73,256.17,294.82,256.25,294.82,256.36z"/>
	<path d="M294.45,256.36c0-0.04,0.04-0.08,0.08-0.08h0.1c0.04,0,0.08,0.04,0.08,0.08c0,0.04-0.04,0.08-0.08,0.08h-0.1
		C294.49,256.43,294.45,256.4,294.45,256.36L294.45,256.36z M294.24,256.36c0,0.16,0.13,0.3,0.3,0.3h0.1c0.16,0,0.3-0.13,0.3-0.3
		c0-0.16-0.13-0.3-0.3-0.3h-0.1C294.37,256.06,294.24,256.19,294.24,256.36L294.24,256.36z"/>
	<path fill="#FFFFFF" d="M268.09,255.05c0-0.12-0.08-0.22-0.2-0.24l-1.27-0.23c-0.07-0.01-0.14,0.01-0.19,0.05
		c-0.09,0.08-0.1,0.19-0.1,0.3c0,0.15,0.02,0.65,0.3,0.69l0.89,0.16c0.05,0.01,0.13,0.01,0.22-0.07
		C267.88,255.59,268.09,255.22,268.09,255.05L268.09,255.05L268.09,255.05z"/>
	<path d="M267.87,255.05c0,0.12-0.23,0.53-0.31,0.52l-0.89-0.16c-0.06-0.01-0.12-0.3-0.12-0.48c0-0.08,0.01-0.14,0.04-0.13
		l1.26,0.23C267.87,255.02,267.87,255.03,267.87,255.05L267.87,255.05z M268.09,255.05c0-0.12-0.08-0.22-0.2-0.24l-1.27-0.23
		c-0.07-0.01-0.14,0.01-0.19,0.05c-0.09,0.08-0.1,0.19-0.1,0.3c0,0.15,0.02,0.65,0.3,0.69l0.89,0.16c0.05,0.01,0.13,0.01,0.22-0.07
		C267.88,255.59,268.09,255.22,268.09,255.05L268.09,255.05L268.09,255.05z"/>
	<rect x="267.16" y="256.15" fill="#FFFFFF" width="4.14" height="0.39"/>
	<path d="M271.19,256.26v0.18h-3.92v-0.18H271.19L271.19,256.26z M271.41,256.04h-0.22h-3.92h-0.22v0.22v0.18v0.22h0.22h3.92h0.22
		v-0.22v-0.18V256.04L271.41,256.04z"/>
	<rect x="266.96" y="255.37" fill="#FFFFFF" width="0.4" height="0.93"/>
	<path d="M267.26,255.48v0.72h-0.22v-0.72H267.26L267.26,255.48z M267.47,255.27h-0.22h-0.06h-0.38v0.22v0.72v0.22h0.38h0.06h0.22
		v-0.22v-0.72V255.27L267.47,255.27z"/>
	<path fill="#FFFFFF" d="M266.93,256.36c0,0.1,0.08,0.19,0.19,0.19h0.1c0.1,0,0.19-0.08,0.19-0.19c0-0.1-0.08-0.19-0.19-0.19h-0.1
		C267.01,256.17,266.93,256.25,266.93,256.36z"/>
	<path d="M267.29,256.36c0,0.04-0.04,0.08-0.08,0.08h-0.1c-0.04,0-0.08-0.04-0.08-0.08c0-0.04,0.04-0.08,0.08-0.08h0.1
		C267.26,256.28,267.29,256.31,267.29,256.36L267.29,256.36z M267.51,256.36c0-0.16-0.13-0.3-0.3-0.3h-0.1c-0.16,0-0.3,0.13-0.3,0.3
		c0,0.16,0.13,0.3,0.3,0.3h0.1C267.38,256.65,267.51,256.52,267.51,256.36L267.51,256.36z"/>
	<path fill="#FFFFFF" d="M285.51,244.53c0,0.64-0.52,1.16-1.16,1.16h-6.83c-0.64,0-1.16-0.52-1.16-1.16v-12.27
		c0-0.64,0.52-1.16,1.16-1.16h6.83c0.64,0,1.16,0.52,1.16,1.16V244.53z"/>
	<path d="M276.58,232.26c0-0.52,0.42-0.94,0.94-0.94h6.83c0.52,0,0.94,0.42,0.94,0.94v12.27c0,0.52-0.42,0.94-0.94,0.94h-6.83
		c-0.52,0-0.94-0.42-0.94-0.94V232.26L276.58,232.26z M276.15,232.26v12.27c0,0.76,0.62,1.38,1.38,1.38h6.83
		c0.76,0,1.38-0.62,1.38-1.38v-12.27c0-0.76-0.62-1.38-1.38-1.38h-6.83C276.76,230.88,276.15,231.5,276.15,232.26L276.15,232.26z"/>
	<path fill="#FFFFFF" d="M284.73,243.91c0,0.38-0.31,0.69-0.69,0.69h-6.19c-0.38,0-0.69-0.31-0.69-0.69v-3.44
		c0-0.38,0.31-0.69,0.69-0.69h6.19c0.38,0,0.69,0.31,0.69,0.69V243.91z"/>
	<path d="M277.37,240.47c0-0.26,0.21-0.48,0.48-0.48h6.19c0.26,0,0.48,0.21,0.48,0.48v3.44c0,0.26-0.21,0.48-0.48,0.48h-6.19
		c-0.26,0-0.48-0.21-0.48-0.48V240.47L277.37,240.47z M276.93,240.47v3.44c0,0.5,0.41,0.91,0.91,0.91h6.19
		c0.5,0,0.91-0.41,0.91-0.91v-3.44c0-0.5-0.41-0.91-0.91-0.91h-6.19C277.34,239.56,276.93,239.96,276.93,240.47L276.93,240.47z"/>
</g>
<g>
	<rect x="10.77" y="20.1" fill="#FFFFFF" width="353.46" height="40.37"/>
	<g id="svg05Heading">
		<text transform="matrix(1 0 0 1 7.5452 47.1747)"><tspan x="0" y="0" font-family="'MicrosoftJhengHeiBold'" font-size="20px" letter-spacing="2">中國團客</tspan><tspan x="88" y="0" font-family="'Lato-Bold'" font-size="20px" letter-spacing="2">vs.</tspan><tspan x="117.91" y="0" font-family="'MicrosoftJhengHeiBold'" font-size="20px" letter-spacing="2">日本團客：掃些什麼貨？</tspan></text>
	</g>
	
		<line id="svg05bottomLine" fill="none" stroke="#0A080C" stroke-width="2" stroke-miterlimit="10" x1="7.16" y1="60.48" x2="367.84" y2="60.48"/>
	
		<line id="svg05topLine" fill="none" stroke="#0A080C" stroke-width="2" stroke-miterlimit="10" x1="7.16" y1="20.1" x2="367.84" y2="20.1"/>
</g>
<g id="svg05BottomText">
	<text transform="matrix(1 0 0 1 41.2 550.9964)"><tspan x="0" y="0" font-family="'MicrosoftJhengHeiBold'" font-size="14px" letter-spacing="1">發現名產或特產類的商品中日旅客皆愛買，</tspan><tspan x="15.4" y="24" font-family="'MicrosoftJhengHeiBold'" font-size="14px" letter-spacing="1">看來美食寶島的名號果真是名不虛傳。</tspan><tspan x="23.1" y="48" font-family="'MicrosoftJhengHeiBold'" font-size="14px" letter-spacing="1">而日客對非必買性質的商品不買單，</tspan><tspan x="26.72" y="72" font-family="'MicrosoftJhengHeiBold'" font-size="14px" letter-spacing="1">推測是由於2015年日幣持續走弱，</tspan><tspan x="30.8" y="96" font-family="'MicrosoftJhengHeiBold'" font-size="14px" letter-spacing="1">降低了日客海外高額消費的意願。</tspan></text>
</g>
<g id="svg05subHeading">
	<text transform="matrix(1 0 0 1 60.2611 85.0788)"><tspan x="0" y="0" font-family="'MicrosoftJhengHeiBold'" font-size="14px" letter-spacing="1">為了進一步追蹤兩國旅客購物的差異，</tspan><tspan x="7.7" y="24" font-family="'MicrosoftJhengHeiBold'" font-size="14px" letter-spacing="1">我們鎖定最具購物潛力的觀光團客，</tspan><tspan x="38.5" y="48" font-family="'MicrosoftJhengHeiBold'" font-size="14px" letter-spacing="1">找出他們到底幫誰加了薪。</tspan></text>
</g>
<text id="svg05LittleText" transform="matrix(1 0 0 1 107.4518 519.6389)" fill="#9E9F9F" font-family="'MicrosoftJhengHeiBold'" font-size="12px" letter-spacing="1">單位：每人 / 每日消費美金</text>
<g>
	<g id="svg05BannerLong">
		
			<polygon id="XMLID_3820_" fill="#FFFFFF" stroke="#000000" stroke-width="0.75" stroke-linejoin="round" stroke-miterlimit="10" points="
			26.64,150.85 4.52,165.4 26.64,182.24 354.79,182.24 375.38,165.4 354.79,150.85 		"/>
		<path fill="none" stroke="#000000" stroke-width="0.75" stroke-linejoin="round" stroke-miterlimit="10" d="M4.52,165.4
			c0,0-73.97-10.41-83.7-30.11"/>
		<path fill="none" stroke="#000000" stroke-width="0.75" stroke-linejoin="round" stroke-miterlimit="10" d="M375.62,165.4
			c0,0,47.66,0.01,86.07-29.18"/>
		
			<polygon id="XMLID_3821_" fill="#FFFFFF" stroke="#000000" stroke-width="0.75" stroke-linejoin="round" stroke-miterlimit="10" points="
			162.75,150.85 137.76,165.4 162.75,182.24 218.35,182.24 241.61,165.4 218.35,150.85 		"/>
		<polyline fill="none" stroke="#000000" stroke-width="0.75" stroke-miterlimit="10" points="154.22,150.85 131.59,164.95 
			156.4,182.27 		"/>
		<polyline fill="none" stroke="#000000" stroke-width="0.75" stroke-miterlimit="10" points="224.75,150.85 246.89,165.4 
			224.75,182.27 		"/>
		<g id="XMLID_3832_">
			
				<text transform="matrix(1 0 0 1 160.8813 172.0066)" font-family="'MicrosoftJhengHeiBold'" font-size="14px" letter-spacing="1">消費項目</text>
		</g>
	</g>
	<g id="svg05BannerChina">
		
			<text id="XMLID_3822_" transform="matrix(1 0 0 1 40.3564 170.8425)" font-family="'MicrosoftJhengHeiBold'" font-size="14px" letter-spacing="1">中國</text>
		<g>
			<rect x="81.14" y="156.35" fill="#EC1C2E" stroke="#000000" stroke-width="0.0321" width="31.01" height="20.68"/>
			<path fill="#EC1C2E" stroke="#000000" stroke-width="0.0321" d="M96.64,166.69"/>
			<polygon fill="#FFE152" points="86.31,158.47 85.63,160.58 83.39,160.58 85.21,161.89 84.51,164 86.31,162.69 88.1,164 
				87.42,161.87 89.22,160.59 87,160.59 			"/>
			<polygon fill="#FFE152" points="90.7,157.76 91.09,158.4 90.59,158.96 91.33,158.79 91.7,159.44 91.77,158.69 92.5,158.53 
				91.81,158.23 91.89,157.49 91.39,158.05 			"/>
			<polygon fill="#FFE152" points="93.11,159.56 93.21,160.3 92.54,160.62 93.28,160.75 93.38,161.5 93.73,160.83 94.47,160.97 
				93.95,160.42 94.3,159.77 93.63,160.1 			"/>
			<polygon fill="#FFE152" points="92.57,163.31 93.19,163.73 92.97,164.45 93.57,163.99 94.19,164.42 93.94,163.72 94.53,163.26 
				93.78,163.28 93.54,162.57 93.32,163.29 			"/>
			<polygon fill="#FFE152" points="90.68,165.01 91.09,165.63 90.61,166.21 91.34,166.02 91.75,166.64 91.78,165.9 92.5,165.7 
				91.8,165.43 91.85,164.69 91.38,165.27 			"/>
		</g>
	</g>
	<g id="svg05BannerJapan">
		<g>
			<rect x="266.37" y="155.15" fill="#FFFFFF" stroke="#231815" stroke-width="0.5368" width="32.04" height="21.36"/>
			<path fill="#FFFFFF" stroke="#231815" stroke-width="0.5368" d="M282.39,165.83"/>
			<circle id="XMLID_3828_" fill="#E50012" cx="282.39" cy="165.83" r="4.94"/>
		</g>
		
			<text id="XMLID_3829_" transform="matrix(1 0 0 1 310.0596 170.8425)" font-family="'MicrosoftJhengHeiBold'" font-size="14px" letter-spacing="1">日本</text>
	</g>
</g>
<g>
	<g id="svg05Floor05LeftNumber">
		<text transform="matrix(1 0 0 1 23.0188 231.7443)" fill="#FFFFFF" font-family="'Lato-Bold'" font-size="15px">$47.58</text>
	</g>
	<g id="svg05Floor04LeftNumber">
		<text transform="matrix(1 0 0 1 49.4102 292.9279)" fill="#595757" font-family="'Lato-Bold'" font-size="15px">$30.75</text>
	</g>
	<g id="svg05Floor03LeftNumber">
		<text transform="matrix(1 0 0 1 44.1406 353.8528)" fill="#595757" font-family="'Lato-Bold'" font-size="15px">$34.79</text>
	</g>
	<g id="svg05Floor02LeftNumber">
		<text transform="matrix(1 0 0 1 44.1406 414.3518)" fill="#595757" font-family="'Lato-Bold'" font-size="15px">$8.17</text>
	</g>
	<g id="svg05Floor01LeftNumber">
		<text transform="matrix(1 0 0 1 20.52 475.7028)" fill="#595757" font-family="'Lato-Bold'" font-size="15px">$16.57</text>
	</g>
	<g id="svg05Floor05RightNumber">
		<text transform="matrix(1 0 0 1 317.9453 231.7051)" fill="#595757" font-family="'Lato-Bold'" font-size="15px">$16.57</text>
	</g>
	<g id="svg05Floor04RightNumber">
		<text transform="matrix(1 0 0 1 293.6589 292.9282)" fill="#595757" font-family="'Lato-Bold'" font-size="15px">$2.01</text>
	</g>
	<g id="svg05Floor02RightNumber">
		<text transform="matrix(1 0 0 1 304.1709 414.3526)" fill="#595757" font-family="'Lato-Bold'" font-size="15px">$7.33</text>
	</g>
	<g id="svg05Floor01RightNumber">
		<text transform="matrix(1 0 0 1 295.4144 475.7027)" fill="#595757" font-family="'Lato-Bold'" font-size="15px">$1.91</text>
	</g>
	<g id="svg05Floor03RightNumber">
		<text transform="matrix(1 0 0 1 302.417 353.8928)" fill="#FFFFFF" font-family="'Lato-Bold'" font-size="15px">$38.70</text>
	</g>
</g>
</svg>
