<?xml version="1.0" encoding="utf-8"?>
<!-- Generator: Adobe Illustrator 20.1.0, SVG Export Plug-In . SVG Version: 6.00 Build 0)  -->
<svg version="1.1" id="svg02" xmlns="http://www.w3.org/2000/svg" xmlns:xlink="http://www.w3.org/1999/xlink" x="0px" y="0px"
	 viewBox="0 0 375 667" enable-background="new 0 0 375 667" xml:space="preserve">
<g>
	<rect x="9.83" y="20.62" fill="#FFFFFF" width="353.74" height="39.64"/>
	<g id="svg02Heading">
		<text transform="matrix(1 0 0 1 90.7002 49.5022)" font-family="'MicrosoftJhengHeiBold'" font-size="22px" letter-spacing="2">旅客都從哪裡來？</text>
	</g>
	
		<line id="svg02bottomLine" fill="none" stroke="#0A080C" stroke-width="2" stroke-miterlimit="10" x1="7.13" y1="60.26" x2="368.1" y2="60.26"/>
	
		<line id="svg02topLine" fill="none" stroke="#0A080C" stroke-width="2" stroke-miterlimit="10" x1="7.13" y1="20.62" x2="368.1" y2="20.62"/>
</g>
<g id="svg02subHeading">
	<rect x="20.93" y="67.14" fill="#FFFFFF" width="333.37" height="33.77"/>
	<text transform="matrix(1 0 0 1 56.2214 89.7492)"><tspan x="0" y="0" fill="#5E5E5E" font-family="'Lato-Bold'" font-size="16px">2015</tspan><tspan x="37.12" y="0" fill="#5E5E5E" font-family="'MicrosoftJhengHeiBold'" font-size="16px">年來台旅客總數：</tspan><tspan x="165.12" y="0" fill="#5E5E5E" font-family="'Lato-Bold'" font-size="16px">10,439,785</tspan><tspan x="246.56" y="0" fill="#5E5E5E" font-family="'MicrosoftJhengHeiBold'" font-size="16px">人</tspan></text>
</g>
<g id="svg02Door">
	
		<rect x="105.76" y="126.75" fill="#FFFFFF" stroke="#000000" stroke-width="0.75" stroke-linejoin="round" stroke-miterlimit="10" width="164.34" height="38.01"/>
	
		<rect x="105.76" y="164.76" fill="#FFFFFF" stroke="#000000" stroke-width="0.75" stroke-linejoin="round" stroke-miterlimit="10" width="11.94" height="143.61"/>
	
		<rect x="258.17" y="164.76" fill="#FFFFFF" stroke="#000000" stroke-width="0.75" stroke-linejoin="round" stroke-miterlimit="10" width="11.94" height="143.61"/>
	
		<rect x="126.2" y="134.48" fill="none" stroke="#000000" stroke-width="0.75" stroke-linejoin="round" stroke-miterlimit="10" width="23.96" height="23.96"/>
	<g>
		<path fill="none" stroke="#000000" stroke-width="0.75" d="M163.2,143.27v8.6h-1.74v-8.6h-2.88v-1.87h7.48v1.87H163.2z"/>
		<path fill="none" stroke="#000000" stroke-width="0.75" d="M176.03,150.55c-0.8,1.03-1.89,1.54-3.31,1.54
			c-1.41,0-2.52-0.51-3.31-1.55c-0.76-0.97-1.13-2.25-1.13-3.86c0-1.61,0.37-2.91,1.12-3.91c0.8-1.04,1.91-1.57,3.32-1.57
			c1.41,0,2.5,0.54,3.31,1.58c0.75,0.98,1.13,2.28,1.13,3.89C177.16,148.29,176.77,149.57,176.03,150.55z M174.71,144.15
			c-0.47-0.73-1.13-1.09-1.99-1.09c-0.87,0-1.54,0.36-1.99,1.09c-0.41,0.65-0.61,1.49-0.61,2.52c0,1.01,0.21,1.84,0.62,2.47
			c0.46,0.73,1.12,1.08,1.98,1.08c0.84,0,1.51-0.35,1.98-1.08c0.42-0.63,0.62-1.46,0.62-2.47
			C175.32,145.66,175.11,144.82,174.71,144.15z"/>
		<path fill="none" stroke="#000000" stroke-width="0.75" d="M189.98,143.27v8.6h-1.74v-8.6h-2.88v-1.87h7.48v1.87H189.98z"/>
		<path fill="none" stroke="#000000" stroke-width="0.75" d="M202.35,151.88l-1.01-2.55h-3.75l-1,2.55h-1.88l4.04-10.46h1.41
			l4.07,10.46H202.35z M199.46,144.33l-1.16,3.15h2.34L199.46,144.33z"/>
		<path fill="none" stroke="#000000" stroke-width="0.75" d="M207.24,151.86V141.4H209v10.46H207.24z"/>
		<path fill="none" stroke="#000000" stroke-width="0.75" d="M221.1,151.86h-1.53l-1.85-7.06l-1.85,7.06h-1.51l-2.34-10.46h1.72
			l1.47,6.84l1.77-6.84h1.49l1.78,6.84l1.47-6.84h1.72L221.1,151.86z"/>
		<path fill="none" stroke="#000000" stroke-width="0.75" d="M232.86,151.88l-1.01-2.55h-3.75l-1,2.55h-1.88l4.04-10.46h1.41
			l4.07,10.46H232.86z M229.97,144.33l-1.16,3.15h2.34L229.97,144.33z"/>
		<path fill="none" stroke="#000000" stroke-width="0.75" d="M242.9,151.86l-3.97-7v7h-1.77V141.4h1.74l3.94,6.95v-6.95h1.76v10.46
			H242.9z"/>
	</g>
	<path fill="#1A1A1A" d="M143.13,143.21l-2.62,1.22c0.59,0.13,1.36,0.33,1.69,0.54c0.39,0.25,0.39,0.47,0.34,0.59l-5.78-1.15
		c-0.27-0.05-0.55-0.01-0.79,0.11l-1.35,0.71c-0.05,0.02-0.08,0.07-0.08,0.12c0,0.05,0.02,0.1,0.06,0.13l1.43,1.03l-1.96,0.91
		c-0.07,0.03-0.15,0.04-0.22,0.01l-2.84-0.93c-0.22-0.07-0.45-0.06-0.66,0.04l-0.7,0.33c-0.07,0.03-0.11,0.09-0.12,0.16
		c-0.01,0.07,0.02,0.14,0.08,0.19l2.8,2.24c0.18,0.14,0.4,0.21,0.62,0.19c1.07-0.08,4.23-0.32,4.7-0.54
		c0.14-0.07,0.6-0.28,1.21-0.57l0.02,0.05c1.16-0.16,2.7-0.88,2.54-1.2l-0.2-0.43c-0.02-0.04-0.03-0.06-0.03-0.06l-0.2-0.43
		c-0.14-0.3-1.43,0.27-2.31,0.97l-0.1-0.21c0.87-0.79,2.4-1.5,2.56-1.18l0.54,1.16c1.39-0.66,2.7-1.28,3.11-1.47
		c0.93-0.43,2.23-1.3,1.89-2.02C146.44,143.02,144.17,142.72,143.13,143.21z"/>
</g>
<g id="svg02BottomText">
	<text transform="matrix(1 0 0 1 79.6311 550.5228)"><tspan x="0" y="0" font-family="'MicrosoftJhengHeiBold'" font-size="14px" letter-spacing="1">根據觀光局來台旅客資料顯示，</tspan><tspan x="0" y="24" font-family="'MicrosoftJhengHeiBold'" font-size="14px" letter-spacing="1">第一名為陸客，占比超過四成，</tspan><tspan x="-23.1" y="48" font-family="'MicrosoftJhengHeiBold'" font-size="14px" letter-spacing="1">第二名為日本，人次不到陸客的一半，</tspan><tspan x="-7.7" y="72" font-family="'MicrosoftJhengHeiBold'" font-size="14px" letter-spacing="1">底下我們就好好的來分析中日旅客</tspan><tspan x="0" y="96" font-family="'MicrosoftJhengHeiBold'" font-size="14px" letter-spacing="1">創造台灣觀光財的差異在哪吧！</tspan></text>
</g>
<g>
	<g>
		<circle id="svg02BubbleSoutheastAsia" fill="#E74631" cx="234.61" cy="426.25" r="37"/>
		
			<text id="svg02TextSoutheastAsia" transform="matrix(0.9 0 0 1 210.8514 419.4061)" fill="#FFFFFF" font-family="'MicrosoftJhengHeiBold'" font-size="16px" letter-spacing="1.11">東南亞</text>
		
			<text id="svg02NumberSoutheastAsia" transform="matrix(0.9 0 0 1 208.3758 443.1877)" fill="#FFFFFF" font-family="'Lato-Bold'" font-size="18px" letter-spacing="1.11">13.7%</text>
	</g>
	<g>
		<circle id="svg02BubbleJapan" fill="#E74631" cx="253.4" cy="332.6" r="44.49"/>
		
			<text id="svg02TextJapan" transform="matrix(0.9 0 0 1 235.5794 325.2438)" fill="#FFFFFF" font-family="'MicrosoftJhengHeiBold'" font-size="18px" letter-spacing="1.11">日本</text>
		
			<text id="svg02NumberJapan" transform="matrix(0.9 0 0 1 224.2483 350.7095)" fill="#FFFFFF" font-family="'Lato-Bold'" font-size="20px" letter-spacing="1.11">15.6%</text>
	</g>
	<g>
		<circle id="svg02BubbleChina" fill="#E74631" cx="142.13" cy="268.09" r="66.44"/>
		
			<text id="svg02TextChina" transform="matrix(0.9 0 0 1 120.5281 252.7435)" fill="#FFFFFF" font-family="'MicrosoftJhengHeiBold'" font-size="22px" letter-spacing="1.11">中國</text>
		
			<text id="svg02NumberChina" transform="matrix(0.9 0 0 1 94.1499 288.7542)" fill="#FFFFFF" font-family="'Lato-Bold'" font-size="32.9176px" letter-spacing="2.22">40.1%</text>
	</g>
	<g>
		<circle id="svg02BubbleHongKongAndMacao" fill="#E74631" cx="150.16" cy="386.23" r="41"/>
		
			<text id="svg02TextHongKongAndMacao" transform="matrix(0.9 0 0 1 134.2262 376.9279)" fill="#FFFFFF" font-family="'MicrosoftJhengHeiBold'" font-size="16px" letter-spacing="1.11">港澳</text>
		
			<text id="svg02NumberHongKongAndMacao" transform="matrix(0.9 0 0 1 126.7084 398.8969)" fill="#FFFFFF" font-family="'Lato-Bold'" font-size="18px" letter-spacing="1.11">14.5%</text>
	</g>
	<g id="svg02PeopleSoutheastAsia" opacity="0">
		<polygon id="XMLID_1737_" fill="#E74631" points="169.23,241.66 171.94,239.92 173.09,241.04 171.15,244.53 170.06,245.88 
			165.49,242.14 167.22,239.92 		"/>
		<polygon id="XMLID_1738_" fill="#E74631" points="178.15,256.72 162.56,256.72 159.64,261.76 156.06,273.23 153.3,289.17 
			152.81,291.45 162.56,291.15 168.71,291.45 178.65,290.67 183.83,289.01 		"/>
		<path fill="#B8834E" d="M220.48,304.79l-17.14-18.72c-1.84-2.01-1.7-5.15,0.31-6.99l8.74-8c2.01-1.84,5.15-1.7,6.99,0.31
			l17.14,18.72c1.84,2.01,1.7,5.15-0.31,6.99l-8.74,8C225.47,306.93,222.32,306.79,220.48,304.79z"/>
		<g id="XMLID_1739_">
			<path id="XMLID_1756_" fill="#FFFFFF" stroke="#000000" stroke-width="0.75" stroke-linejoin="round" stroke-miterlimit="10" d="
				M176.85,248.23l3.04-0.94l3.42-7.28c0,0-0.67-6.69,1.82-10.26c2.49-3.58,0.39-13.65-4.12-20.33c-4.5-6.68-9.96-3.79-9.96-3.79
				s-10.17-0.84-10.47,11.35c-0.3,12.19-0.56,18.12-1.56,20.42l-2.8,9.39l2.46,0.5h4.03L176.85,248.23z"/>
			<path id="XMLID_1755_" fill="#FFFFFF" stroke="#000000" stroke-width="0.75" stroke-linejoin="round" stroke-miterlimit="10" d="
				M183.1,239.78c0,0,3.15,8.63,3.65,9.5c0.5,0.87,5.46,8.88,7.45,11.7s2.98,3.66,2.98,5.1c0,1.44-3.23,4.82-4.47,2.88
				c-1.24-1.94,0.13-4.29-2.03-6.84c-2.16-2.55-7.95-9.2-8.54-11.04c-0.65-2.01-5.48-8.61-5.48-8.61"/>
			<path id="XMLID_1754_" fill="#FFFFFF" stroke="#000000" stroke-width="0.75" stroke-linejoin="round" stroke-miterlimit="10" d="
				M162.87,241.22c0,0-6.53,7.85-6.09,10.47c0.47,2.83,4.72,6.46,4.72,6.46l-1.17,2.3l-0.94-0.39c0,0-4.04-1.8-5.85-6.92
				c-1.81-5.12,6.11-15.67,6.11-15.67L162.87,241.22z"/>
			<path id="XMLID_1749_" fill="#FFFFFF" stroke="#000000" stroke-width="0.75" stroke-linejoin="round" stroke-miterlimit="10" d="
				M168.71,233.14c0,0-8.19,1.6-9.7,4.26c0,0,3.77,3.59,3.69,5.06"/>
			<path id="XMLID_1766_" fill="#FFFFFF" stroke="#000000" stroke-width="0.75" stroke-linejoin="round" stroke-miterlimit="10" d="
				M163.86,310.34h-9.06c0.12-4.13,5.26-3.82,6.49-4.15c1.23-0.32,2.07-1.15,2.5-2.4c0.43-1.26-1.23-14.22-1.23-14.22l4.47,0.45
				v16.17L163.86,310.34z"/>
			<path id="XMLID_1763_" fill="#FFFFFF" stroke="#000000" stroke-width="0.75" stroke-linejoin="round" stroke-miterlimit="10" d="
				M176.06,291.15c0,0-1.02,12.8-1.47,14.65c0,0,0.9,4.43,0,4.54s-10.73,0-10.73,0s-1.1-4.11,5.61-4.54c0,0,1.82-1.22,1.96-5.03
				c0.14-3.82-0.24-9.16-0.24-9.16"/>
			<path id="XMLID_1764_" fill="none" stroke="#000000" stroke-width="0.75" stroke-linejoin="round" stroke-miterlimit="10" d="
				M165.85,306.64c0,0-1.13,3.17,8.95,0.42"/>
			<path id="XMLID_1767_" fill="none" stroke="#000000" stroke-width="0.75" stroke-linejoin="round" stroke-miterlimit="10" d="
				M158.34,306.64c0,0-1.41,1.74,5.46,1.54"/>
			<path id="XMLID_1752_" fill="#FFFFFF" stroke="#000000" stroke-width="0.75" stroke-linejoin="round" stroke-miterlimit="10" d="
				M178.15,256.72c0,0,2.61,10,4.15,21.15c1.54,11.15,1.54,11.15,1.54,11.15s-8.24,3.33-15.12,2.44c-6.88-0.9-15.9,0-15.9,0
				s3.23-27.19,9.75-34.73"/>
			
				<polygon id="XMLID_34_" fill="#FFFFFF" stroke="#000000" stroke-width="0.75" stroke-linejoin="round" stroke-miterlimit="10" points="
				196.08,263.54 197.76,262.32 199.09,264.12 197.17,265.52 193.12,269.37 191.06,271.63 189.99,270.2 192.13,267.11 			"/>
			<ellipse id="XMLID_1740_" cx="165.49" cy="217.52" rx="0.35" ry="0.56"/>
			<ellipse id="XMLID_1741_" cx="172.23" cy="218.08" rx="0.35" ry="0.56"/>
			<path fill="none" stroke="#000000" stroke-width="0.75" stroke-linejoin="round" stroke-miterlimit="10" d="M168.71,233.14
				c0,0,0,0-0.01-2.92c-0.01-2.92-3.99-1.05-5.43-5.04c-1.44-3.99-0.03-10.92-0.03-10.92s1.16-2.1,3.39-4.25
				c2.23-2.14,4.47-0.01,4.47-0.01s3.3-2.32,3.99,1.02c1.58,7.68,2.51,8.97,6.18,8.65"/>
			<path id="XMLID_1742_" fill="none" stroke="#000000" stroke-width="0.75" stroke-linejoin="round" stroke-miterlimit="10" d="
				M177.57,219.81L177.57,219.81c0,0,1.69-0.71,1.85,0.93c0.16,1.64,0.13,3.54-1.85,3.95s-3.25,1.55-3.57,4.46s0,4.21,0,4.21
				s-0.61,4.01-3.64,4.04c-4.67,0.04-2.35-2.26-1.65-4.85"/>
			<path id="XMLID_1744_" fill="none" stroke="#000000" stroke-width="0.75" stroke-miterlimit="10" d="M167.21,215.16
				c0,0-1.17-1.28-2.72-0.17"/>
			<path id="XMLID_1745_" fill="none" stroke="#000000" stroke-width="0.75" stroke-miterlimit="10" d="M171.88,215.16
				c0,0,0.9-1.1,2.71,0"/>
			<path id="XMLID_1746_" fill="none" stroke="#000000" stroke-width="0.75" stroke-miterlimit="10" d="M168.77,217.52
				c0,0-1.94,1.92-1.55,3.11"/>
			<path id="XMLID_1747_" fill="none" stroke="#000000" stroke-width="0.75" stroke-miterlimit="10" d="M170.06,222.74
				c0,0-2.66,1.06-4.57,0"/>
			<path id="XMLID_1748_" fill="#FFFFFF" stroke="#000000" stroke-width="0.75" stroke-linejoin="round" stroke-miterlimit="10" d="
				M174,233.36c0,0,6.67,1.54,9.3,6.65c0,0-5.72,0.53-6.47,2.67"/>
			<path id="XMLID_1750_" fill="#FFFFFF" stroke="#000000" stroke-width="0.75" stroke-linejoin="round" stroke-miterlimit="10" d="
				M164.49,238.76c0,0-2.35,1.93-1.87,5.12c0.48,3.2-0.07,12.84-0.07,12.84h15.59c0,0-1.49-8.47-1.49-10.84
				c0-2.37,0.56-7.12,0.56-7.12"/>
			<path id="XMLID_1751_" fill="none" stroke="#000000" stroke-width="0.75" stroke-linejoin="round" stroke-miterlimit="10" d="
				M169.23,241.66c0,0,1.35-2.17,3.35-1.57s-2.53,5.79-2.53,5.79s-4.28-2.3-4.21-4.22c0.08-1.91,1.54-1.9,2.11-1.57
				C168.4,240.34,169.23,241.66,169.23,241.66z"/>
			<path fill="none" stroke="#000000" stroke-width="0.75" stroke-linejoin="round" stroke-miterlimit="10" d="M220.86,305.14
				l-18.03-19.6c-1.58-1.72-1.47-4.43,0.25-6.01l9.57-8.8c1.72-1.58,4.43-1.47,6.01,0.25l18.03,19.6c1.58,1.72,1.47,4.43-0.25,6.01
				l-9.57,8.8C225.14,306.98,222.44,306.86,220.86,305.14z"/>
			
				<polyline id="XMLID_1760_" fill="#FFFFFF" stroke="#000000" stroke-width="0.75" stroke-linejoin="round" stroke-miterlimit="10" points="
				195.26,269.44 203.62,279.17 205.47,277.33 197.08,267.56 			"/>
			<path id="XMLID_1761_" fill="none" stroke="#000000" stroke-width="0.75" stroke-linejoin="round" stroke-miterlimit="10" d="
				M208.74,276.17c0,0-0.17,2.18,1.72,4.41c1.89,2.24,15.65,16.85,15.65,16.85s2.41,2.41,4.38,1.89"/>
			
				<circle id="XMLID_1762_" fill="#FFFFFF" stroke="#000000" stroke-width="0.75" stroke-linejoin="round" stroke-miterlimit="10" cx="230.49" cy="307.06" r="3.27"/>
		</g>
	</g>
	<g id="svg02PeopleJapan" opacity="0">
		<polygon fill="#FFFFFF" points="180.06,289.65 176.09,304.88 168.55,304.88 169.62,289.65 		"/>
		<path fill="#FFFFFF" d="M174.22,304.24l-0.36,7.17h-10.21c0,0-0.07-2.69,6.65-2.68c0,0-0.3-4.7-0.13-4.7
			C170.35,304.03,174.22,304.24,174.22,304.24z"/>
		<path fill="#FFFFFF" d="M164.57,216.75c0,0-2.07,8.9,0.1,11.88s6.54,2.25,7.13,1.84c0,0,0.73,1.58,0.31,2.84
			c0,0-2.75,0.36-6.91,5.03c-4.16,4.67-3.8,11.06-3.72,12.69h1.64l0.12,11.17c0,0-0.01,3.18-0.73,5.18s-2.13,7.81-2.13,7.81
			l-3.85-1.2l-1.9,7.66l10.21,3.63h0.99l-0.05,3.98c0,0,5.98,1.97,12.28,1.26c6.3-0.72,15.98-2.67,15.98-2.67l-4.86-28.27
			c0,0-1.16-8.58-1.13-9.56c0.03-0.98,0.34,8.59,2.88,12.39c2.54,3.8,4.32,4.39,5.57,5.81c1.25,1.42,3.07,2.1,3.59,3.92
			c0.52,1.83,2.82,2.62,2.82,2.62s2.28,2.54,3.25,2.23l-0.13,7.75h1.68l-0.04,10.42l1.19,0.17l0.28,11.67c0,0-4.36-0.13-4.38,2.42
			c-0.02,2.55,1,2.3,1,2.3l7.95-0.01l-0.96-4.59l-0.12-11.09l1.49,0.3l1.04-7.75l2.35,7.75l1.47-0.24c0,0,1.24,3.97,3.69,3.17
			c2.45-0.81,7.71-3.17,7.71-3.17s0.52,6.07,5.61,3.51l-2.61-6.92c0,0-10.88,2.99-10.7,2.97s-0.6-10.35-0.6-10.35h0.86l-0.16-5.23
			l-0.09-4.62c0,0,1.87-1.57,1.87-4.1s-0.78-6.68-2.47-8.82c-1.7-2.14-4.55-3.07-4.55-3.07s-0.45-3.97,1.21-4.56
			c0,0,0.88,0.28,2.08-0.09c0,0,1.35,1.31,2.57,0.17s4.32-5.25,4.26-7.41c-0.06-2.15-0.59-4.39-0.59-4.39l1.4,0.43
			c0,0-0.82-2.26-2.56-3.13c0,0-0.78-1.7-1.86-3.26v1.84c0,0-2.69-3.6-6.99-4c-4.3-0.4-9.09,1.55-9.37,8.55c0,0-2.86,6.79-0.73,9.56
			c2.14,2.77,7.05,3.34,7.18,6.34l-2.03,0.51c0,0-4.02-1.15-5.75-2.41s-4.02-5.74-4.99-8.07c-0.97-2.33-1.56-6.74-1.46-9.29
			c0.1-2.56-2.12-4.13-3.1-4.39c-0.98-0.27-3.44-0.51-3.63,1.06c-0.18,1.56-0.75,4.66,1.93,5.04c0,0,2.84,15.11,5.14,15.66
			l-1.57,0.88c0,0,5.92,7.88,7.99,7.6c0,0,0.1,3.84-0.49,3.77c-0.59-0.06-2.15-1.24-3.52-1.67c0,0-5.69-5.27-7.44-7.35
			s-3.06-14.32-3.06-14.32l0.95-0.31c0,0-4.15-10.95-12.28-12.34l-2.48-0.09v-2.87c0,0,5.55-0.93,6.95-3.93
			c1.4-3,1.64-4.11,1.03-6.8c-0.61-2.69-3.14-4.78-3.14-4.78l-10.8-2.94l-6.81,2.94L164.57,216.75z"/>
		<circle id="XMLID_1337_" fill="#E74631" cx="205.05" cy="225.84" r="2.7"/>
		<polygon id="XMLID_1338_" fill="#E74631" points="186.97,245.74 169.67,247.1 169.67,249.51 188.02,248.55 		"/>
		<polygon id="XMLID_1339_" fill="#E74631" points="188.02,250.93 167.82,252.12 167.82,255.43 188.02,253.18 		"/>
		<polygon id="XMLID_1340_" fill="#E74631" points="188.56,255.43 167.82,257.62 167.82,259.9 188.83,257.32 		"/>
		<polygon id="XMLID_1341_" fill="#E74631" points="167.17,263.05 188.83,260.96 189.82,263.6 167.06,265.11 		"/>
		<polygon id="XMLID_1342_" fill="#E74631" points="167.09,267.51 189.82,266.33 190.74,269.46 167.06,269.87 		"/>
		<polygon id="XMLID_1343_" fill="#E74631" points="166.61,273.56 190.74,272.68 191.82,275.38 167.06,276.06 		"/>
		<polygon id="XMLID_1344_" fill="#E74631" points="166.61,279.42 191.82,278.55 192.94,281.74 166.18,281.74 		"/>
		<polygon id="XMLID_1345_" fill="#E74631" points="165.78,284.99 192.94,284.45 193.96,287.39 166.18,287.39 		"/>
		<polygon id="XMLID_1346_" fill="#E74631" points="224.57,295.16 225.13,298.46 229.63,296.48 228.91,293.85 		"/>
		<polygon id="XMLID_1347_" fill="#E74631" points="209,301.26 212.64,301.26 212.75,306.61 209.13,306.61 		"/>
		<polygon id="XMLID_1348_" fill="#B8834E" points="222.68,263.44 228.17,268.81 230.05,269.87 229.23,271.69 230.05,276.44 
			226.54,280.74 222.8,280.28 223.12,275.38 224.57,272.68 224.57,269.46 		"/>
		<g id="XMLID_1349_">
			<path id="XMLID_1372_" fill="#FFFFFF" stroke="#000000" stroke-width="0.75" stroke-linejoin="round" stroke-miterlimit="10" d="
				M186.52,304.81l0.45,6.8h11.28c0,0,0-3.89-6.73-2.78c0,0-0.82,0.49-1.31-0.1s-0.16-4.29-0.16-4.29"/>
			<ellipse id="XMLID_1350_" cx="169.06" cy="220.01" rx="0.37" ry="0.6"/>
			<ellipse id="XMLID_1351_" cx="175.71" cy="220.01" rx="0.37" ry="0.6"/>
			<ellipse transform="matrix(0.5151 -0.8572 0.8572 0.5151 -109.137 298.5781)" cx="209.31" cy="245.74" rx="0.6" ry="0.37"/>
			<ellipse transform="matrix(0.5151 -0.8572 0.8572 0.5151 -110.0836 305.1458)" cx="214.64" cy="249.86" rx="0.6" ry="0.37"/>
			<path id="XMLID_1352_" fill="#FFFFFF" stroke="#000000" stroke-width="0.75" stroke-linejoin="round" stroke-miterlimit="10" d="
				M164.65,216.79c0,0,2.74-2.26,9.2-2.02c6.47,0.24,13.43,3.34,13.43,3.34s-1.74-5.29-3.23-6.56c0,0,1.49-6-4.48-7.24
				s-10.94-0.65-12.68,1.29c-1.74,1.94-1.24,3.74-2.24,5.95c-0.99,2.21-1.49,5.93-1.49,5.93L164.65,216.79z"/>
			<path id="XMLID_1353_" fill="none" stroke="#000000" stroke-width="0.75" stroke-linejoin="round" stroke-miterlimit="10" d="
				M166.13,215.96c0,0-0.51,4.36,0,7.29c0.51,2.93,2.29,3.82,4.46,5.61c2.17,1.78,1.53,4.46,1.53,4.46s-4.34,1.37-2.69,2.14
				s3.71,1.78,6.24,1.78s6.47-0.53,6.13-2.3c-0.34-1.77-3.42-1.15-3.42-1.15v-2.66"/>
			<path id="XMLID_1354_" fill="none" stroke="#000000" stroke-width="0.75" stroke-linejoin="round" stroke-miterlimit="10" d="
				M180.36,216.79c0,0,2.21,7.89,0.42,10.55c-1.78,2.66-3.7,4.06-3.7,4.06s6.54-1.08,8.16-4.06c1.78-3.3,1.78-7.12-0.58-10.26"/>
			<path id="XMLID_1355_" fill="none" stroke="#000000" stroke-width="0.75" stroke-linejoin="round" stroke-miterlimit="10" d="
				M164.65,216.79c0,0-2.21,9.78,0.59,12.58c2.8,2.8,6.58,1.11,6.58,1.11"/>
			<path id="XMLID_1356_" fill="none" stroke="#000000" stroke-width="0.75" stroke-linejoin="round" stroke-miterlimit="10" d="
				M171.33,214.8c0,0,5.74,4.12,9.51,4.18"/>
			<path id="XMLID_1357_" fill="none" stroke="#000000" stroke-width="0.75" stroke-linejoin="round" stroke-miterlimit="10" d="
				M167.09,209.64c0,0,6.75-2.22,15.46,1.24"/>
			<path id="XMLID_1358_" fill="none" stroke="#000000" stroke-width="0.75" stroke-linejoin="round" stroke-miterlimit="10" d="
				M171.33,220.74c0,0-0.98,3.3,1.29,3.15"/>
			<path id="XMLID_1359_" fill="none" stroke="#000000" stroke-width="0.75" stroke-linejoin="round" stroke-miterlimit="10" d="
				M172.21,226.2c0,0,2.76,0,3.46-1.74"/>
			<path id="XMLID_1360_" fill="none" stroke="#000000" stroke-width="0.75" stroke-linejoin="round" stroke-miterlimit="10" d="
				M170.3,234.03c0,0-10.68,5.9-8.83,16.91h8.83l-0.87-5.31"/>
			<path id="XMLID_1361_" fill="none" stroke="#000000" stroke-width="0.75" stroke-linejoin="round" stroke-miterlimit="10" d="
				M180.84,233.88c0,0,8.55,1.73,12.25,12.54l-5.82,0.68"/>
			<path id="XMLID_1362_" fill="none" stroke="#000000" stroke-width="0.75" stroke-linejoin="round" stroke-miterlimit="10" d="
				M185.36,241.59c0,0,3.2,6.1,2.69,8.43c-0.5,2.33,5.99,37.8,5.99,37.8s-20.35,5.25-28.26,1.31l2.04-38.21"/>
			<path id="XMLID_1363_" fill="none" stroke="#000000" stroke-width="0.75" stroke-linejoin="round" stroke-miterlimit="10" d="
				M163.16,250.93c0,0,0.18,9.96,0,13.16c-0.18,3.2-2.91,11.47-2.91,11.47"/>
			
				<polyline id="XMLID_1364_" fill="none" stroke="#000000" stroke-width="0.75" stroke-linejoin="round" stroke-miterlimit="10" points="
				161.52,275.57 156.55,273.85 154.62,281.51 164.84,284.99 165.78,284.99 			"/>
			<path id="XMLID_1365_" fill="none" stroke="#000000" stroke-width="0.75" stroke-linejoin="round" stroke-miterlimit="10" d="
				M162.32,273.56c0,0,1.58,3.73,1.38,4.7c-0.2,0.97-1.61-0.58-2.53-3.67"/>
			
				<line id="XMLID_1366_" fill="none" stroke="#000000" stroke-width="0.75" stroke-linejoin="round" stroke-miterlimit="10" x1="163.38" y1="276.42" x2="166.06" y2="277.27"/>
			
				<circle id="XMLID_1367_" fill="none" stroke="#000000" stroke-width="0.75" stroke-linejoin="round" stroke-miterlimit="10" cx="159.84" cy="279.35" r="2.06"/>
			<path id="XMLID_1368_" fill="none" stroke="#000000" stroke-width="0.75" stroke-linejoin="round" stroke-miterlimit="10" d="
				M192.14,246.53c0,0,1.15,11.93,3.6,14.9c2.46,2.96,6.89,6.77,6.89,6.77s3.12,0.82,3.31,2.42c0.19,1.61,0.19,4.15-1.42,4.15
				s-3.78-0.62-4.44-2.62c-0.66-2-1.42-1.97-2.46-2.88c-1.04-0.91-3.61-3.39-5.49-5.18c-1.88-1.78-3.31-6.78-3.31-6.78"/>
			
				<polyline id="XMLID_1369_" fill="none" stroke="#000000" stroke-width="0.75" stroke-linejoin="round" stroke-miterlimit="10" points="
				169.43,290.24 168.68,304.81 176.09,304.81 179.91,290.31 			"/>
			
				<polyline id="XMLID_1370_" fill="#FFFFFF" stroke="#000000" stroke-width="0.75" stroke-linejoin="round" stroke-miterlimit="10" points="
				181.82,290.1 184.81,304.81 191.39,304.81 192.22,288.26 			"/>
			<path id="XMLID_1371_" fill="none" stroke="#000000" stroke-width="0.75" stroke-linejoin="round" stroke-miterlimit="10" d="
				M170.3,304.44v4.29c0,0-7.1-0.04-6.49,2.88h10.05l0.43-6.8"/>
			
				<polyline id="XMLID_1373_" fill="none" stroke="#000000" stroke-width="0.75" stroke-linejoin="round" stroke-miterlimit="10" points="
				174.01,309.42 169.38,310.04 168.68,308.81 			"/>
			
				<polyline id="XMLID_1374_" fill="none" stroke="#000000" stroke-width="0.75" stroke-linejoin="round" stroke-miterlimit="10" points="
				187.02,310.04 194.04,310.3 194.47,308.81 			"/>
			<path id="XMLID_1375_" fill="none" stroke="#000000" stroke-width="0.75" stroke-linejoin="round" stroke-miterlimit="10" d="
				M213.41,263.35c0,0,0.97,0,0.73-3.83c-0.25-3.82-6.19-3.28-7.67-7.32c-1.48-4.04,2.71-11.7,2.71-11.7s5.71,6.69,10.39,7.69
				l2.07,2.75c0,0,2.62,0.62,0.87,2.95s-3.78,1.02-3.78,1.02s-1.6,0.44-1.31,3.49c0.29,3.05,0.3,3.36,0.3,3.36
				S216.64,263.89,213.41,263.35z"/>
			<path id="XMLID_1376_" fill="none" stroke="#000000" stroke-width="0.75" stroke-linejoin="round" stroke-miterlimit="10" d="
				M207.73,243.62c0,0-0.92-4.92,4.16-7.71c5.09-2.79,11.47,1.3,12.67,2.99v-1.67c0,0,1.5,1.75,1.6,3.26c0,0,2.19,1.36,2.29,3.13
				l-1.4-0.43c0,0,1.4,3.69,0,6.68c-1.4,2.99-2.9,4.69-3.94,5.29s-2.29,0-2.29,0"/>
			<path fill="none" stroke="#000000" stroke-width="0.75" stroke-miterlimit="10" d="M210.99,247.58c0,0-1.57,0.99-1.38,1.93"/>
			<path id="XMLID_1377_" fill="none" stroke="#000000" stroke-width="0.75" stroke-linejoin="bevel" stroke-miterlimit="10" d="
				M208.41,251.85c0,0,2.19,1.18,2.79,0.02"/>
			<path id="XMLID_1378_" fill="none" stroke="#000000" stroke-width="0.75" stroke-linejoin="round" stroke-miterlimit="10" d="
				M215.08,247.49c0,0,2.25,0.45,2.45,2.21"/>
			<path id="XMLID_1379_" fill="none" stroke="#000000" stroke-width="0.75" stroke-linejoin="round" stroke-miterlimit="10" d="
				M209.31,242.98c0,0,2.25,0.45,2.45,2.21"/>
			<path id="XMLID_1380_" fill="none" stroke="#000000" stroke-width="0.75" stroke-linejoin="round" stroke-miterlimit="10" d="
				M204.15,268.78"/>
			<path id="XMLID_1381_" fill="none" stroke="#000000" stroke-width="0.75" stroke-linejoin="round" stroke-miterlimit="10" d="
				M214.14,259.52"/>
			<path id="XMLID_1382_" fill="none" stroke="#000000" stroke-width="0.75" stroke-linejoin="round" stroke-miterlimit="10" d="
				M218.06,268.55l-1.76,5.01l6.18,2.01c0,0,2.77-1.33,2-7.6c-0.78-6.27-6.95-8.52-6.95-8.52"/>
			<path id="XMLID_1383_" fill="none" stroke="#000000" stroke-width="0.75" stroke-linejoin="round" stroke-miterlimit="10" d="
				M218.06,274.13c0,0-1.64,6.55-3.43,5.28c-1.78-1.26-5.77-5.28-5.77-5.28s0.01-4.16-3.64-4.68"/>
			<path id="XMLID_1384_" fill="none" stroke="#000000" stroke-width="0.75" stroke-linejoin="round" stroke-miterlimit="10" d="
				M221.47,275.57c-0.89,2.91-3.41,7.96-6.83,7.34c-2.87-0.52-6.39-6.09-8.48-6.06c-2.09,0.03-3.42-2.33-3.42-2.33"/>
			<path id="XMLID_1385_" fill="none" stroke="#000000" stroke-width="0.75" stroke-linejoin="round" stroke-miterlimit="10" d="
				M207.67,270.75"/>
			<path id="XMLID_1386_" fill="none" stroke="#000000" stroke-width="0.75" stroke-linejoin="round" stroke-miterlimit="10" d="
				M209.14,266.86"/>
			
				<polyline id="XMLID_1387_" fill="none" stroke="#000000" stroke-width="0.75" stroke-linejoin="round" stroke-miterlimit="10" points="
				206.16,276.85 206.03,284.45 223.12,284.99 222.48,275.57 			"/>
			<path id="XMLID_1388_" fill="none" stroke="#000000" stroke-width="0.75" stroke-linejoin="round" stroke-miterlimit="10" d="
				M220.46,260.96"/>
			<path id="XMLID_1389_" fill="none" stroke="#000000" stroke-width="0.75" stroke-linejoin="round" stroke-miterlimit="10" d="
				M220.46,260.96c0,0-7.12,4.54-3.5,10.73l0.57-1.62c0,0-0.88-4.23,4.55-7.56L220.46,260.96z"/>
			<path id="XMLID_1390_" fill="none" stroke="#000000" stroke-width="0.75" stroke-linejoin="round" stroke-miterlimit="10" d="
				M206.03,269.46c0,0,1.64-7.29,6.07-9.43l1.28-0.51C213.38,259.52,208.49,267.64,206.03,269.46z"/>
			<path id="XMLID_1391_" fill="none" stroke="#000000" stroke-width="0.75" stroke-linejoin="round" stroke-miterlimit="10" d="
				M222.68,263.44c0,0,5.36,3.25,5.49,5.37c0.13,2.12,3.24,5.49,1.88,7.63c-1.36,2.14-4.07,6.9-7.25,3.84"/>
			<path id="XMLID_1392_" fill="none" stroke="#000000" stroke-width="0.75" stroke-linejoin="round" stroke-miterlimit="10" d="
				M228.46,269.97c0,0-3.7,0.98-3.84-0.51"/>
			<path id="XMLID_1393_" fill="none" stroke="#000000" stroke-width="0.75" stroke-linejoin="round" stroke-miterlimit="10" d="
				M226.81,272.68l-2.66,3.57c0,0,1.69,2.79,2.98,1.49S229,275.53,226.81,272.68z"/>
			<path id="XMLID_1394_" fill="none" stroke="#000000" stroke-width="0.75" stroke-linejoin="round" stroke-miterlimit="10" d="
				M228.17,268.81c0,0,1.62,0.27,1.88,1.07c0.26,0.8-0.82,1.82-0.82,1.82"/>
			
				<polyline id="XMLID_1395_" fill="none" stroke="#000000" stroke-width="0.75" stroke-linejoin="round" stroke-miterlimit="10" points="
				207.67,284.45 207.67,295.04 214.14,296.35 215.08,288.26 217.53,296.35 223.12,295.43 222.08,284.99 			"/>
			<path id="XMLID_1396_" fill="none" stroke="#000000" stroke-width="0.75" stroke-linejoin="round" stroke-miterlimit="10" d="
				M212.1,260.03c0,0-6.73-1.66-7.95-4.6l-5.49,3.07c0,0,4.86,7.54,7.99,7.6"/>
			<path id="XMLID_1397_" fill="none" stroke="#000000" stroke-width="0.75" stroke-linejoin="round" stroke-miterlimit="10" d="
				M207.24,264.16c0,0-0.44-0.11-1.22,5.3"/>
			<path id="XMLID_1398_" fill="none" stroke="#000000" stroke-width="0.75" stroke-linejoin="round" stroke-miterlimit="10" d="
				M204.15,255.43c0,0-3.42-5.25-3.91-10.8c-0.49-5.55,0.3-5.53-1.58-7.51c-1.88-1.99-5.3-2.21-5.56,0.12s-0.31,3.91,0.94,4.36
				s1.26,0.45,1.26,0.45s2.45,15.36,4.93,15.58"/>
			
				<polyline id="XMLID_1399_" fill="none" stroke="#000000" stroke-width="0.75" stroke-linejoin="round" stroke-miterlimit="10" points="
				195.09,235.55 196.43,220.19 198.08,220.43 196.58,235.55 			"/>
			<path id="XMLID_1400_" fill="none" stroke="#000000" stroke-width="0.75" stroke-linejoin="round" stroke-miterlimit="10" d="
				M198.08,220.43c0,0,3.35,2.07,6.07,2.01c2.72-0.06,5.53-3.32,8.09-3.46v9.93c0,0-1.38-0.43-3.38,0.55s-3.4,2.07-5.66,1.34
				c-2.26-0.73-5.78-2.62-5.78-2.62"/>
			
				<circle id="XMLID_1401_" fill="none" stroke="#000000" stroke-width="0.75" stroke-linejoin="round" stroke-miterlimit="10" cx="204.58" cy="226.32" r="2.22"/>
			<path id="XMLID_1402_" fill="none" stroke="#000000" stroke-width="0.75" stroke-linejoin="round" stroke-miterlimit="10" d="
				M208.86,295.28l0.28,11.7c0,0-4.98-0.03-4.31,3.06l0.38,1.63l7.02-0.05h1.14l-0.62-4.48l-0.21-10.79"/>
			
				<line id="XMLID_1403_" fill="none" stroke="#000000" stroke-width="0.75" stroke-linejoin="round" stroke-miterlimit="10" x1="209.13" y1="306.61" x2="212.75" y2="306.61"/>
			
				<line id="XMLID_1404_" fill="none" stroke="#000000" stroke-width="0.75" stroke-linejoin="round" stroke-miterlimit="10" x1="209" y1="301.26" x2="212.64" y2="301.26"/>
			<path id="XMLID_1405_" fill="none" stroke="#000000" stroke-width="0.75" stroke-linejoin="round" stroke-miterlimit="10" d="
				M219,296.1c0,0,0.85,3.43,3.01,3.28c2.15-0.15,8.39-3.28,8.39-3.28s0.3,3.89,2.76,4.12c2.46,0.23,2.85-0.62,2.85-0.62l-2.61-6.92
				c0,0-5.92,1.46-7.84,2.15s-2.42,0.58-2.42,0.58"/>
			
				<line id="XMLID_1406_" fill="none" stroke="#000000" stroke-width="0.75" stroke-linejoin="round" stroke-miterlimit="10" x1="231.88" y1="293.07" x2="234.79" y2="300.2"/>
			
				<line id="XMLID_1407_" fill="none" stroke="#000000" stroke-width="0.75" stroke-linejoin="round" stroke-miterlimit="10" x1="228.91" y1="293.85" x2="229.63" y2="296.48"/>
			
				<line id="XMLID_1408_" fill="none" stroke="#000000" stroke-width="0.75" stroke-linejoin="round" stroke-miterlimit="10" x1="224.57" y1="295.16" x2="225.13" y2="298.46"/>
		</g>
	</g>
	<g id="svg02PeopleChina" opacity="0">
		<polygon id="XMLID_1409_" fill="#E74631" points="221.67,239.66 218.11,247.13 218.02,251.77 218.71,258.72 219.17,263.88 
			215.49,269.74 218.6,272.89 219.75,271.16 220.54,272.18 225.17,271.8 225.07,262.54 227.88,252.99 227.46,248.16 225.95,242.67 
					"/>
		<polygon id="XMLID_1410_" fill="#E74631" points="208.29,239.66 210.49,248.42 210.63,254.84 210.63,262.12 210.02,265.82 
			212.26,269.42 209,272.49 207.57,271.19 202.43,272.18 202.93,264.55 199.44,255.64 199.44,252.31 203.13,244.33 		"/>
		<polygon id="XMLID_1411_" fill="#B8834E" points="191.84,257.74 181.84,259.28 181.42,267.17 182.33,273.26 193.28,273.01 
			193.28,268.88 		"/>
		<polygon id="XMLID_1412_" fill="#B8834E" points="181.84,259.28 171.2,259.28 170.99,262.89 172.75,273.26 180.72,273.26 		"/>
		<g id="XMLID_1414_">
			<path id="XMLID_32_" fill="#FFFFFF" stroke="#000000" stroke-width="0.75" stroke-linejoin="round" stroke-miterlimit="10" d="
				M174.48,227.07c0,0-2.27-2.27-2.89-4.13c-0.61-1.86,1-5.54,1-5.54l2.89-1.31l4.34,0.54c0,0-2.06,7.82-1.98,8.04
				C177.93,224.89,174.48,227.07,174.48,227.07z"/>
			<path id="XMLID_1461_" fill="#FFFFFF" stroke="#000000" stroke-width="0.75" stroke-linejoin="round" stroke-miterlimit="10" d="
				M190.19,217.22c0,0,1.21,10.51-1.63,13.38c-2.84,2.86-5.18,2.3-5.51,4.5c-0.04,0.24-0.07,0.47-0.11,0.71l-0.64,4.43l-4.21-4.28
				c0,0-0.05-0.86,0.26-2.91c0.31-2.04-3.05-5.02-3.87-5.98c-1.97-2.3-0.89-3.81-0.12-5.11s1.69,0.77,1.69,0.77l2.92-4.72
				L190.19,217.22z"/>
			<path fill="#FFFFFF" d="M175.42,238.5l0.66-1.86l2.34,2.25l1.41,1.35l3.98-0.95l1.62-1.36l1.7,0.18c0,0,0.92,2.09,0.77,2
				c-0.15-0.09-4.45,13.71-4.45,13.71l-4.76,0.83L175.42,238.5z"/>
			<path id="XMLID_26_" fill="#FFFFFF" stroke="#000000" stroke-width="0.75" stroke-linejoin="round" stroke-miterlimit="10" d="
				M176.89,304.13c0,0-7.11,3.95-5.44,6.95h4.71l5.25-2.89l0.18-5.57l-0.55-1.22l-2.91-0.76L176.89,304.13z"/>
			<path id="XMLID_1473_" fill="#FFFFFF" stroke="#000000" stroke-width="0.75" stroke-linejoin="round" stroke-miterlimit="10" d="
				M186.37,306.78c0,0,5.3,0.16,5.47,1.68s-0.78,2.61-0.78,2.61h-9.65v-4.29H186.37z"/>
			<path id="XMLID_27_" fill="#FFFFFF" stroke="#000000" stroke-width="0.75" stroke-linejoin="round" stroke-miterlimit="10" d="
				M191.06,273.26c0,0-0.95,13.35-2.02,19.17s-1.66,14.36-1.66,14.36h-5.97c0,0,0.87-24.37-0.68-25.72c0,0-3.94,6.61-3.22,10.88
				s3.52,9.45,3.52,9.45l-4.15,2.73c0,0-6.42-7.1-6.71-12.82l0.14-19.12l10.62-6.68l7.51,2.15L191.06,273.26z"/>
			<path id="XMLID_31_" fill="#FFFFFF" stroke="#000000" stroke-width="0.75" stroke-linejoin="round" stroke-miterlimit="10" d="
				M191.84,257.74c0,0,0.41,2.9,2.75,3.07c2.35,0.16,5.75-3.07,5.75-3.07l0.37-8.84c0,0-4.37,3.78-6.12,3.84
				c-1.74,0.06-4.68-13.08-4.68-13.08l-1.69-0.37l-2.96,7.28l2.12,4.83L191.84,257.74z"/>
			<path id="XMLID_28_" fill="#FFFFFF" stroke="#000000" stroke-width="0.75" stroke-linejoin="round" stroke-miterlimit="10" d="
				M181.42,267.17l0.91,6.09l10.94-0.25c0,0,0.2-1.53,0-4.18s-2.83-20.67-2.83-20.67l-3.72-5.49l-2.78,7.44l-1.65,3.43
				L181.42,267.17z"/>
			
				<polygon id="XMLID_30_" fill="#FFFFFF" stroke="#000000" stroke-width="0.75" stroke-linejoin="round" stroke-miterlimit="10" points="
				172.75,273.26 180.72,273.26 182.3,253.54 178.13,245.57 174,238.11 168.67,242.67 169.3,265.43 			"/>
			<path id="XMLID_1471_" fill="#FFFFFF" stroke="#000000" stroke-width="0.75" stroke-linejoin="round" stroke-miterlimit="10" d="
				M164.48,262.48c0,0-3.82,8.36-3.48,16.2c0.4,9.11,8.37,14.09,9.99,11.96c1.61-2.13,1.75-10.2,1.75-10.2"/>
			<path id="XMLID_1469_" fill="#FFFFFF" stroke="#000000" stroke-width="0.75" stroke-linejoin="round" stroke-miterlimit="10" d="
				M172.12,239.93l0.13,8.82c0,0-1.22,7.55-1.26,11.96c-0.03,4.41,2.37,15.59,2.37,15.59l-7.54,0.49c0,0-2.24-22.22-0.92-28.62
				s6.73-8.8,6.73-8.8"/>
			<path id="XMLID_1470_" fill="#FFFFFF" stroke="#000000" stroke-width="0.75" stroke-linejoin="round" stroke-miterlimit="10" d="
				M172.25,276.37c0,0,1.45,2.6,0.5,4.07c-0.95,1.47-1.29-1.35-1.29-1.35s-0.21,6.75-2.07,6.67c-1.86-0.08-3.11,0.08-3.11-1.38
				c0-1.46,1.25-7.59,1.25-7.59"/>
			
				<polygon id="XMLID_1444_" fill="#FFFFFF" stroke="#000000" stroke-width="0.75" stroke-linejoin="round" stroke-miterlimit="10" points="
				201.44,278.29 204.42,271.8 211.24,267.81 216.81,267.75 224.04,272.18 225.17,277.95 			"/>
			<path id="XMLID_1432_" fill="#E74631" stroke="#000000" stroke-width="0.75" stroke-linejoin="round" stroke-miterlimit="10" d="
				M203.4,264.55c0,0-0.27,6.78-0.97,7.63l5.15-0.99"/>
			<path id="XMLID_1442_" fill="#FFFFFF" stroke="#000000" stroke-width="0.75" stroke-linejoin="round" stroke-miterlimit="10" d="
				M199.44,298.44c0,0,2.02,4.4,4.31,4.4h5.71c0,0,2.13-0.7,2.79-4.4"/>
			<path id="XMLID_1443_" fill="#FFFFFF" stroke="#000000" stroke-width="0.75" stroke-linejoin="round" stroke-miterlimit="10" d="
				M214.01,298.82c0,0,0.44,3.61,3.79,4.01h6.79c0,0,3.29-0.51,3.25-5.03"/>
			
				<polyline id="XMLID_1445_" fill="#FFFFFF" stroke="#000000" stroke-width="0.75" stroke-linejoin="round" stroke-miterlimit="10" points="
				223.58,302.83 222.85,305.29 218.86,305.29 217.8,302.83 			"/>
			
				<polyline id="XMLID_1446_" fill="#FFFFFF" stroke="#000000" stroke-width="0.75" stroke-linejoin="round" stroke-miterlimit="10" points="
				208.7,302.83 208.11,305.29 204.42,305.29 203.33,302.83 			"/>
			<path id="XMLID_1447_" fill="#FFFFFF" stroke="#000000" stroke-width="0.75" stroke-linejoin="round" stroke-miterlimit="10" d="
				M221.67,305.29l0,3.17c0,0,5.13,0.1,5.02,2.61h-7.83v-5.78"/>
			<path id="XMLID_1448_" fill="#FFFFFF" stroke="#000000" stroke-width="0.75" stroke-linejoin="round" stroke-miterlimit="10" d="
				M207.57,305.29l-0.26,5.78h-8.21c0,0-0.75-1.63,3.82-2.89h1.49v-2.89"/>
			
				<line id="XMLID_1449_" fill="#FFFFFF" stroke="#000000" stroke-width="0.75" stroke-linejoin="round" stroke-miterlimit="10" x1="221.67" y1="308.46" x2="218.86" y2="308.46"/>
			
				<line id="XMLID_1450_" fill="#FFFFFF" stroke="#000000" stroke-width="0.75" stroke-linejoin="round" stroke-miterlimit="10" x1="204.42" y1="308.19" x2="207.43" y2="308.46"/>
			<path id="XMLID_24_" fill="#FFFFFF" d="M219.17,263.88c0,0-0.92-10.72-1.34-13.67c-0.42-2.96,3.84-10.55,3.84-10.55l-3.51-2.57
				l-4.56,0.17l-3.25,1.23l-2.05,1.17c0,0,2.27,5.69,2.34,10.83c0.06,5.14-0.61,15.33-0.61,15.33l-0.07,1.93l9.81-0.09
				L219.17,263.88z"/>
			<path id="XMLID_1426_" fill="#FFFFFF" stroke="#000000" stroke-width="0.75" stroke-linejoin="round" stroke-miterlimit="10" d="
				M218.16,237.08c0,0,1.98,0.94,1.36,2.14s-1.69,1.74-3.6,1.63s-3.83-0.11-4.5-1.19c-0.67-1.09,0.67-2.65,2.66-2.57"/>
			<path id="XMLID_20_" fill="#FFFFFF" d="M222.74,217.31l2.83,5.64c0,0,0.85-0.33,0.76,1.82c-0.09,2.15-1.16,2.41-1.16,2.41
				s-0.76,4.53-4.07,6.5c-3.31,1.97-3.26,4.97-3.26,4.97l-4.03,0.14c0,0,0.63-2.86,0.54-3.85c-0.09-0.98-1.97-1.31-3.23-2.48
				c-1.25-1.16-1.52-4.74-1.52-4.74c-0.72,0.63-2.77-0.89-2.68-2.95c0.09-2.06,1.43-1.84,1.43-1.84l2.75-5.62H222.74z"/>
			<path id="XMLID_1451_" fill="#FFFFFF" stroke="#000000" stroke-width="0.75" stroke-linejoin="round" stroke-miterlimit="10" d="
				M194.32,215.81c0,0-4.83,2.05-11.26,2.18c-6.44,0.13-13.67-0.47-13.67-2.18s5.09-2.24,5.09-2.24s-0.54-6.44,0.54-8.04
				s7.24-1.07,6.84,0c0,0,3.89-1.76,6.57-1.02c2.68,0.75,1.61,8.79,1.61,8.79S195.93,213.76,194.32,215.81z"/>
			<ellipse id="XMLID_1415_" cx="220.75" cy="224.06" rx="0.35" ry="0.56"/>
			<ellipse id="XMLID_1416_" cx="214.42" cy="224.06" rx="0.35" ry="0.56"/>
			<ellipse id="XMLID_1417_" cx="187.48" cy="222.22" rx="0.35" ry="0.56"/>
			<ellipse id="XMLID_1418_" cx="181.64" cy="222.23" rx="0.35" ry="0.56"/>
			<path id="XMLID_1419_" fill="#FFFFFF" stroke="#000000" stroke-width="0.75" stroke-linejoin="round" stroke-miterlimit="10" d="
				M225.17,222.93c0,0-2.89-2.78-7.65-2.51c-1.48,0.08-2.96-2.54-4.09-2.3c-0.72,0.15-1.19,3.14-1.77,3.33
				c-2.22,0.7-3.33,1.49-3.33,1.49s-4.68,1.84-3.08-5.72c1.16-5.49,7.28-8.31,12.04-8.3c4.76,0,10.77,3.94,10.57,10.09
				C227.71,224.17,225.17,222.93,225.17,222.93z"/>
			<path id="XMLID_1420_" fill="none" stroke="#000000" stroke-width="0.75" stroke-linejoin="round" stroke-miterlimit="10" d="
				M213.8,238.79c0,0,0.63-2.86,0.54-3.85c-0.09-0.98-1.97-1.31-3.23-2.48c-1.25-1.16-1.52-4.74-1.52-4.74
				c-0.72,0.63-2.77-0.89-2.68-2.95c0.09-2.06,1.43-1.84,1.43-1.84l3.07,0.57"/>
			<path fill="none" stroke="#000000" stroke-width="0.75" stroke-linejoin="round" stroke-miterlimit="10" d="M219.04,225.89h2.71
				c0.72,0,1.31-0.59,1.31-1.31v-1.05c0-0.72-0.59-1.31-1.31-1.31h-2.71c-0.72,0-1.31,0.59-1.31,1.31v1.05
				C217.74,225.3,218.32,225.89,219.04,225.89z"/>
			<path fill="none" stroke="#000000" stroke-width="0.75" stroke-linejoin="round" stroke-miterlimit="10" d="M212.72,225.89h2.71
				c0.72,0,1.31-0.59,1.31-1.31v-1.05c0-0.72-0.59-1.31-1.31-1.31h-2.71c-0.72,0-1.31,0.59-1.31,1.31v1.05
				C211.41,225.3,212,225.89,212.72,225.89z"/>
			
				<line id="XMLID_1421_" fill="none" stroke="#000000" stroke-width="0.75" stroke-linejoin="round" stroke-miterlimit="10" x1="217.83" y1="223.5" x2="216.74" y2="223.5"/>
			<path id="XMLID_1422_" fill="none" stroke="#000000" stroke-width="0.75" stroke-linejoin="round" stroke-miterlimit="10" d="
				M223.06,223.5l2.51-0.55c0,0,0.85-0.33,0.76,1.82c-0.09,2.15-1.16,2.41-1.16,2.41s-0.76,4.53-4.07,6.5
				c-3.31,1.97-3.26,4.97-3.26,4.97"/>
			<path id="XMLID_1423_" fill="none" stroke="#000000" stroke-width="0.75" stroke-linejoin="round" stroke-miterlimit="10" d="
				M217.05,225.89c0,0,1,1.58,0.1,2.35"/>
			<path id="XMLID_1424_" fill="none" stroke="#000000" stroke-width="0.75" stroke-linejoin="round" stroke-miterlimit="10" d="
				M219.51,230.58c0,0-2.51,1.46-4.65,0"/>
			<path id="XMLID_1425_" fill="none" stroke="#000000" stroke-width="0.75" stroke-linejoin="round" stroke-miterlimit="10" d="
				M215.91,228.29c0,0-1.56,3.74-2.48,3.7"/>
			<path id="XMLID_23_" fill="#E74631" d="M203.13,244.33c-1.67,2.53-3.59,6.5-3.7,9.72c-0.11,3.22,6.52,16.79,9.56,18.44l3.25-3.06
				c0,0-4.88-7.61-6.08-10.7c-1.2-3.09-0.17-9.34,0.73-10.56"/>
			<path id="XMLID_1428_" fill="none" stroke="#000000" stroke-width="0.75" stroke-linejoin="round" stroke-miterlimit="10" d="
				M212.04,237.68c0,0-6.19,2.53-8.91,6.65c-1.67,2.53-3.59,6.5-3.7,9.72c-0.11,3.22,6.52,16.79,9.56,18.44l3.25-3.06
				c0,0-4.88-7.61-6.08-10.7c-1.2-3.09-0.17-9.34,0.73-10.56"/>
			<path id="XMLID_1429_" fill="none" stroke="#000000" stroke-width="0.75" stroke-linejoin="round" stroke-miterlimit="10" d="
				M219.17,263.88c0,0-0.92-10.72-1.34-13.67c-0.42-2.96,3.84-10.55,3.84-10.55"/>
			<path id="XMLID_1430_" fill="none" stroke="#000000" stroke-width="0.75" stroke-linejoin="round" stroke-miterlimit="10" d="
				M208.29,239.66c0,0,2.27,5.69,2.34,10.83c0.06,5.14-0.61,15.33-0.61,15.33"/>
			
				<polyline id="XMLID_1431_" fill="#E74631" stroke="#000000" stroke-width="0.75" stroke-linejoin="round" stroke-miterlimit="10" points="
				225.07,262.54 225.17,271.8 220.54,272.18 219.75,271.16 			"/>
			<path id="XMLID_1439_" fill="#FFFFFF" stroke="#000000" stroke-width="0.75" stroke-linejoin="round" stroke-miterlimit="10" d="
				M221.67,278.29h5.54c0,0,2.37,0.12,2.37,4.02c0,3.9,0,11.93,0,11.93s0.98,4.2-4.99,4.2c0,0-23.66,0-25.15,0s-1.03-2.58-1.03-2.58
				s0-13.49,0-15.59c0-2.1,3.03-1.98,3.03-1.98h5.31h1.54h11.44H221.67z"/>
			<path id="XMLID_1437_" fill="#FFFFFF" stroke="#000000" stroke-width="0.75" stroke-linejoin="round" stroke-miterlimit="10" d="
				M209.46,274.25c0,0-3.31,1.43-2.62,6.02h1.44c0,0-0.94-1.13,1.17-4.94l8.37,0.57c2.5,1.6,2.06,4.38,2.06,4.38h1.78
				c0.09-4.31-3.56-6.02-3.56-6.02H209.46z"/>
			<path id="XMLID_1435_" fill="#FFFFFF" stroke="#000000" stroke-width="0.75" stroke-linejoin="round" stroke-miterlimit="10" d="
				M209.46,272.18v3.14c0,0,0.68,1.59,2.49,1.45s2.03-1.73,2.03-1.73v-2.56l-2.33-2.5L209.46,272.18z"/>
			<path id="XMLID_1433_" fill="#FFFFFF" stroke="#000000" stroke-width="0.75" stroke-linejoin="round" stroke-miterlimit="10" d="
				M215.49,269.74c0,0-2.17,3.21-1.88,4.51c0.29,1.29,2.53,3.24,3.77,2.27c1.23-0.97,0.52-4.33,0.52-4.33"/>
			<path id="XMLID_16_" fill="#B8834E" stroke="#000000" stroke-width="0.75" stroke-linejoin="round" stroke-miterlimit="10" d="
				M190.24,210.01c-4.01,2.71-15.88,1.15-15.88,1.15l0.12,2.4c7.4,2.98,15.55-0.27,15.55-0.27L190.24,210.01z"/>
			<path id="XMLID_1456_" fill="none" stroke="#000000" stroke-width="0.75" stroke-linejoin="round" stroke-miterlimit="10" d="
				M182.81,219.65c0,0-1.46-0.77-2.79,0.42"/>
			<path id="XMLID_1457_" fill="none" stroke="#000000" stroke-width="0.75" stroke-linejoin="round" stroke-miterlimit="10" d="
				M186.36,219.41c0,0,0.35-0.8,2.23,0"/>
			<path id="XMLID_1458_" fill="none" stroke="#000000" stroke-width="0.75" stroke-linejoin="round" stroke-miterlimit="10" d="
				M185.46,223.5c0,0,0.63,0.96,0,1.73"/>
			<path id="XMLID_1459_" fill="none" stroke="#000000" stroke-width="0.75" stroke-linejoin="round" stroke-miterlimit="10" d="
				M187.13,225.22h-4.32c0,0-1.98,2.52-1.51,3.07c0.47,0.55,1.51,1.47,2.14,0c0,0,0.7,1.25,2.02,1.11c1.32-0.14,0.91-1.16,0.91-1.16
				s0.35,1.26,1.46,0.53C188.93,228.05,187.13,225.22,187.13,225.22z"/>
			
				<polygon id="XMLID_1460_" fill="#FFFFFF" stroke="#000000" stroke-width="0.75" stroke-linejoin="round" stroke-miterlimit="10" points="
				176.91,234.56 182.33,239.45 180.02,242.67 173.36,235.09 			"/>
			
				<polygon id="XMLID_1462_" fill="#FFFFFF" stroke="#000000" stroke-width="0.75" stroke-linejoin="round" stroke-miterlimit="10" points="
				176.08,238.18 182.3,253.54 176.08,248.16 174.48,242.67 170.99,238.62 174.36,236.43 			"/>
			
				<polygon id="XMLID_1463_" fill="#FFFFFF" stroke="#000000" stroke-width="0.75" stroke-linejoin="round" stroke-miterlimit="10" points="
				186.37,237.9 182.3,253.54 187.48,247.13 186.39,244.81 190.45,238.89 186.99,237.08 			"/>
			<path id="XMLID_25_" fill="#E74631" d="M224.44,241.77c3.7,2.99,4.13,12.64,2.5,16.95c-1.63,4.31-8.34,14.16-8.34,14.16
				l-3.11-3.14c0,0,6.71-9.72,6.63-13.11s-1.73-7.44-1.73-7.44"/>
			<path id="XMLID_1427_" fill="none" stroke="#000000" stroke-width="0.75" stroke-linejoin="round" stroke-miterlimit="10" d="
				M219.04,237.68c0,0,1.71,1.1,5.4,4.09c3.7,2.99,4.13,12.64,2.5,16.95c-1.63,4.31-8.34,14.16-8.34,14.16l-3.11-3.14
				c0,0,6.71-9.72,6.63-13.11s-1.73-7.44-1.73-7.44"/>
			<path id="XMLID_29_" fill="#FFFFFF" stroke="#000000" stroke-width="0.75" stroke-linejoin="round" stroke-miterlimit="10" d="
				M183.05,235.1l4.42,1.33l-4.67,6.24l-0.48-3.22C182.33,239.45,182.72,237.31,183.05,235.1z"/>
		</g>
	</g>
	<g id="svg02PeopleHongKongAndMacao" opacity="0">
		<path id="XMLID_1280_" fill="#E74631" d="M194.1,271.38h0.45v5.71h-2.23C192.32,277.09,193.65,271.38,194.1,271.38z"/>
		<path id="XMLID_1281_" fill="#E74631" d="M198.17,259.77h13.5c0,0,4.44,12.92,4.2,22.13c-0.24,9.21-1.61,23.96-1.61,23.96h-10.39
			l-0.65-0.85c0,0,0.65-2.53,0.65-10.72s0.58-13.36-2.13-15.63c-2.7-2.27-4.93-1.24-4.93-1.24l-0.36-8.38h-2.37
			C194.08,269.05,195.7,261.61,198.17,259.77z"/>
		<path id="XMLID_1282_" fill="#B8834E" d="M195.05,258.88c0,0,2.65,0.82,1.39,3.46s-2.09,4.54-3.43,3.76s-1.61-5.31-1.61-5.31
			l0.27-4.64L195.05,258.88z"/>
		<polygon id="XMLID_1283_" fill="#B8834E" points="171.5,269.05 177.91,269.05 181.36,269.05 181.54,262.24 181.36,257.39 
			183.24,260.79 187.58,263.97 187.72,257.39 188.52,252.77 184.5,241.97 180.9,234.55 178.08,232.2 175.22,238.15 172.89,241.97 
			170.13,238.15 165.65,232.6 164.22,231.45 161.12,232.6 156.96,235.61 154.04,243.71 150.92,258.88 150.61,264.41 152.79,269.57 
			155.08,272.62 160.49,269.05 		"/>
		<g id="XMLID_1284_">
			<path id="XMLID_18_" fill="#FFFFFF" d="M169.78,301.47c-0.4,5.14-0.89,7.67-0.89,7.67h-9.87l-2.27-34.57l3.74-5.52h19.12
				l-0.53,24.72l-1.44,0.52L169.78,301.47z"/>
			<path id="XMLID_2_" fill="#FFFFFF" stroke="#000000" stroke-width="0.75" stroke-linejoin="round" stroke-miterlimit="10" d="
				M153.75,303.17c0,0-2.37,1.01-2.62,2.31s3.43,2.59,3.88,4.27c0.45,1.68,4.62,3.36,5.48,2.52v-2.98l-1.47-0.14l-0.57-6.9
				l-3.37,0.36L153.75,303.17z"/>
			
				<polyline id="XMLID_1333_" fill="#FFFFFF" stroke="#000000" stroke-width="0.75" stroke-linejoin="round" stroke-miterlimit="10" points="
				158.04,294.29 152.41,302.37 158.82,306.18 			"/>
			<path id="XMLID_1332_" fill="#FFFFFF" stroke="#000000" stroke-width="0.75" stroke-linejoin="round" stroke-miterlimit="10" d="
				M166.12,309.14c0,0,1.33,2.33,4.01,1.81s2.72,3.59,0.68,3.59s-10.33,0-10.33,0v-5.26"/>
			<path id="XMLID_1324_" fill="#FFFFFF" stroke="#000000" stroke-width="0.75" stroke-linejoin="round" stroke-miterlimit="10" d="
				M178.08,232.2l-5.03,10.48l-8.13-11.09C169.24,230.34,173.61,230.31,178.08,232.2z"/>
			<path id="XMLID_1314_" fill="#FFFFFF" stroke="#000000" stroke-width="0.75" stroke-linejoin="round" stroke-miterlimit="10" d="
				M178.72,218.84c0,0,1.09-3.74,1.09-5.17c0,0,0.88,2.12,0.77,2.49c-0.11,0.37,3.82-9.14-4.97-13.99c-0.06-0.03-0.1-0.07-0.15-0.12
				c-0.37-0.43-2.51-2.57-6.5-0.03c-0.09,0.06-0.2,0.09-0.32,0.09c-0.88-0.05-5.06-0.15-7.32,2.1h0.69c0.41,0,0.67,0.43,0.48,0.79
				l-2.45,4.73c-0.03,0.06-0.05,0.12-0.06,0.18c-0.07,0.56-0.39,3.46,0.06,5.59c0.07,0.34,0.45,0.53,0.76,0.38l0,0
				c0.28-0.13,0.61,0,0.73,0.28l1.39,3.28"/>
			<path id="XMLID_1313_" fill="#FFFFFF" stroke="#000000" stroke-width="0.75" stroke-linejoin="round" stroke-miterlimit="10" d="
				M169.67,229.06c0,0,0.13,0.73,0-1.59c-0.13-2.32-4.76-5.5-4.76-5.5s-1.72-0.24-1.98-2.53c-0.26-2.29,1.98-2.34,1.98-2.34
				l0.66-4.49l0.75,1.59l1.1-4.89h6.45l4.39,1.53c0,0,1.03,7.06,0,10.88s-4.39,3.31-4.39,6.15c0,2.84,0,1.71,0,1.71"/>
			<ellipse id="XMLID_1289_" cx="175.99" cy="215.76" rx="0.35" ry="0.56"/>
			<ellipse id="XMLID_1290_" cx="170.13" cy="215.76" rx="0.35" ry="0.56"/>
			<path id="XMLID_1295_" fill="none" stroke="#000000" stroke-width="0.75" stroke-linejoin="round" stroke-miterlimit="10" d="
				M201.74,238.15"/>
			<path id="XMLID_1296_" fill="none" stroke="#000000" stroke-width="0.75" stroke-linejoin="round" stroke-miterlimit="10" d="
				M203.21,238.15"/>
			
				<circle id="XMLID_1297_" fill="none" stroke="#000000" stroke-width="0.75" stroke-linejoin="round" stroke-miterlimit="10" cx="172.54" cy="235.06" r="0.51"/>
			
				<circle id="XMLID_1298_" fill="none" stroke="#000000" stroke-width="0.75" stroke-linejoin="round" stroke-miterlimit="10" cx="172.54" cy="237.64" r="0.51"/>
			
				<polygon id="XMLID_1299_" fill="#FFFFFF" stroke="#000000" stroke-width="0.75" stroke-linejoin="round" stroke-miterlimit="10" points="
				211.78,255.64 211.67,259.77 198.17,259.77 199.02,255.08 			"/>
			<path fill="#FFFFFF" stroke="#000000" stroke-width="0.75" stroke-linejoin="round" stroke-miterlimit="10" d="M182.67,309.14
				h16.16c2.77,0,5.03-2.26,5.03-5.03v-21.65c0-2.77-2.26-5.03-5.03-5.03h-16.16c-2.77,0-5.03,2.26-5.03,5.03v21.65
				C177.64,306.87,179.91,309.14,182.67,309.14z"/>
			
				<polyline id="XMLID_1300_" fill="#FFFFFF" stroke="#000000" stroke-width="0.75" stroke-linejoin="round" stroke-miterlimit="10" points="
				193.02,269.05 196.44,269.05 196.44,270.98 193.45,270.98 			"/>
			
				<polyline id="XMLID_1301_" fill="#FFFFFF" stroke="#000000" stroke-width="0.75" stroke-linejoin="round" stroke-miterlimit="10" points="
				187.58,269.05 184.92,269.05 184.92,270.98 187.29,270.98 			"/>
			
				<polyline id="XMLID_1302_" fill="#FFFFFF" stroke="#000000" stroke-width="0.75" stroke-linejoin="round" stroke-miterlimit="10" points="
				194.73,270.98 194.73,277.43 196.44,277.43 196.44,270.98 			"/>
			
				<polyline id="XMLID_1303_" fill="#FFFFFF" stroke="#000000" stroke-width="0.75" stroke-linejoin="round" stroke-miterlimit="10" points="
				184.92,270.98 184.92,277.43 186.63,277.43 186.63,270.98 			"/>
			
				<circle id="XMLID_1304_" fill="#FFFFFF" stroke="#000000" stroke-width="0.75" stroke-linejoin="round" stroke-miterlimit="10" cx="199.14" cy="311.94" r="2.66"/>
			
				<circle id="XMLID_1305_" fill="#FFFFFF" stroke="#000000" stroke-width="0.75" stroke-linejoin="round" stroke-miterlimit="10" cx="182.26" cy="311.94" r="2.66"/>
			<path id="XMLID_1306_" fill="none" stroke="#000000" stroke-width="0.75" stroke-linejoin="round" stroke-miterlimit="10" d="
				M211.67,259.77c2.62,6.05,2.9,5.88,3.96,17.66c0.97,10.76-1.37,28.43-1.37,28.43h-10.39"/>
			<path id="XMLID_1307_" fill="none" stroke="#000000" stroke-width="0.75" stroke-linejoin="round" stroke-miterlimit="10" d="
				M194.08,269.05c0.78-5.36,4.09-9.28,4.09-9.28"/>
			<path id="XMLID_1308_" fill="none" stroke="#000000" stroke-width="0.75" stroke-linejoin="round" stroke-miterlimit="10" d="
				M193.72,270.98c0,0-1.15,3.61-1.41,6.11"/>
			<path id="XMLID_1309_" fill="#FFFFFF" stroke="#000000" stroke-width="0.75" stroke-linejoin="round" stroke-miterlimit="10" d="
				M211.04,305.86l-0.83,5.09c0,0,8.88-0.49,8.66,3.59h-12.55l1.39-8.68"/>
			<path id="XMLID_1315_" fill="none" stroke="#000000" stroke-width="0.75" stroke-miterlimit="10" d="M172.89,216.44
				c0,0,1.71,2.42,1.3,3.01c-0.42,0.59-1.3,0.73-1.3,0.73"/>
			<path id="XMLID_1316_" fill="none" stroke="#000000" stroke-width="0.75" stroke-miterlimit="10" d="M171.62,213.77
				c0,0-1.86-1.19-3.76,0"/>
			<path id="XMLID_1317_" fill="none" stroke="#000000" stroke-width="0.75" stroke-miterlimit="10" d="M174.64,213.77
				c0,0,1.51-0.92,3.27,0"/>
			<path id="XMLID_1318_" fill="none" stroke="#000000" stroke-width="0.75" stroke-miterlimit="10" d="M175.28,221.97
				c0,0-2.21,1.15-4.46,0"/>
			
				<polygon id="XMLID_1319_" fill="#FFFFFF" stroke="#000000" stroke-width="0.75" stroke-linejoin="round" stroke-miterlimit="10" points="
				171.66,229.79 167.9,228.95 166.12,231.45 171.66,232.6 			"/>
			
				<polygon id="XMLID_1320_" fill="#FFFFFF" stroke="#000000" stroke-width="0.75" stroke-linejoin="round" stroke-miterlimit="10" points="
				171.66,229.79 175.28,229.77 175.99,232.6 173.05,232.6 			"/>
			<path id="XMLID_1321_" fill="none" stroke="#000000" stroke-width="0.75" stroke-linejoin="round" stroke-miterlimit="10" d="
				M175.63,231.18c0,0,5.49,1.72,7.29,6.56c1.8,4.84,5.6,15.02,5.6,15.02"/>
			<path id="XMLID_1322_" fill="none" stroke="#000000" stroke-width="0.75" stroke-linejoin="round" stroke-miterlimit="10" d="
				M166.12,231.45c0,0-6.58,0.4-9.16,4.16c-2.59,3.76-7.05,24.67-6.35,28.79c0.71,4.12,4.47,8.21,4.47,8.21l5.41-3.57
				c0,0-3.29-3.57-3.29-7.57c0-4,3.44-14.56,5.72-16.21"/>
			<path id="XMLID_1323_" fill="none" stroke="#000000" stroke-width="0.75" stroke-linejoin="round" stroke-miterlimit="10" d="
				M179.61,241.97c0,0,2.64,21.71,1.75,27.07h-20.87"/>
			
				<line id="XMLID_1325_" fill="none" stroke="#000000" stroke-width="0.75" stroke-linejoin="round" stroke-miterlimit="10" x1="191.68" y1="256.15" x2="197.41" y2="260.79"/>
			
				<line id="XMLID_1326_" fill="none" stroke="#000000" stroke-width="0.75" stroke-linejoin="round" stroke-miterlimit="10" x1="194.54" y1="266.88" x2="191.68" y2="265.32"/>
			<path id="XMLID_1327_" fill="none" stroke="#000000" stroke-width="0.75" stroke-linejoin="round" stroke-miterlimit="10" d="
				M187.58,263.97c0,0-6.02-2.29-6.59-8.46"/>
			
				<line id="XMLID_1328_" fill="none" stroke="#000000" stroke-width="0.75" stroke-linejoin="round" stroke-miterlimit="10" x1="179.61" y1="269.05" x2="179.61" y2="278.37"/>
			<path id="XMLID_1329_" fill="#FFFFFF" stroke="#000000" stroke-width="0.75" stroke-linejoin="round" stroke-miterlimit="10" d="
				M159.7,269.57c0,0,3.68,3.28,3.21,4.64c-0.47,1.36-3.32-1.59-3.32-1.59l-2.85,1.95l-1.67-1.95"/>
			<path id="XMLID_1330_" fill="none" stroke="#000000" stroke-width="0.75" stroke-linejoin="round" stroke-miterlimit="10" d="
				M156.75,274.57l2.27,34.57h9.87c0,0,2.57-21.22,0.89-31.71"/>
			
				<line id="XMLID_1331_" fill="none" stroke="#000000" stroke-width="0.75" stroke-linejoin="round" stroke-miterlimit="10" x1="177.64" y1="294.29" x2="169.78" y2="301.47"/>
			<path id="XMLID_22_" fill="#FFFFFF" stroke="#000000" stroke-width="0.75" stroke-linejoin="round" stroke-miterlimit="10" d="
				M214.89,239.5c0,0,1.21,0.06,4.76,7.96c3.56,7.91,7.87,4.92,10.25,1.76c2.37-3.16,3.16-9.13,3.16-9.13s-0.4-2.53-0.99-4.9
				c-0.59-2.37,1.62-3.36,2.19,0s0.97-4.47,3.34-4.21c2.37,0.26,3.56,3.03,1.19,7.97s-3.53,9.91-5.73,13.77
				c-2.03,3.57-5.5,5.21-8.19,5.21c-2.23,0-6.43-4.05-8.69-6.13c-0.46-0.42-1.46-2.01-1.72-2.37l-2.68-3.61"/>
			<path id="XMLID_21_" fill="#FFFFFF" stroke="#000000" stroke-width="0.75" stroke-linejoin="round" stroke-miterlimit="10" d="
				M196.17,242.13c0.06,3.18,0.15,7.85,0.15,9.39c0,2.41,0.28,6.3,2.22,6.49c1.95,0.19,3.2-1.58,3.2-1.58
				c1.35,2.22,2.36,1.76,4,1.67s2.11-1.67,2.11-1.67c-0.23,0.83,4.4,5.47,5.7-1.67c0.86-4.71,1.22-12.31,1.34-15.26"/>
			<path id="XMLID_19_" fill="#FFFFFF" stroke="#000000" stroke-width="0.75" stroke-linejoin="round" stroke-miterlimit="10" d="
				M199.42,241.35l-3.1,5.71c0,0-4.08,7.42-4.63,9.08c-0.56,1.67-0.09,10.75-0.09,10.75s1.11,0.37,1.76,3.34
				c0.65,2.97-1.85,2.32-4.36,2.32c-2.5,0-1.58-1.85-1.3-4.26c0.28-2.41,0-12.05,0-12.05c0.74-4.91,8.41-17.26,8.41-17.26"/>
			<g>
				<circle cx="182.17" cy="302.18" r="0.55"/>
				<circle cx="200.26" cy="300.62" r="0.55"/>
				<circle cx="194.59" cy="293.97" r="0.55"/>
				<circle cx="180.97" cy="291.61" r="0.55"/>
				<circle cx="198.62" cy="281.21" r="0.55"/>
				<circle cx="189.75" cy="287.11" r="0.55"/>
				<circle cx="192.28" cy="303.37" r="0.55"/>
				<circle cx="181.73" cy="282.11" r="0.55"/>
				<circle cx="200.39" cy="289.46" r="0.55"/>
				<circle cx="189.8" cy="279.6" r="0.55"/>
				<circle cx="187.28" cy="296.24" r="0.55"/>
			</g>
			<path id="XMLID_1335_" fill="#FFFFFF" stroke="#000000" stroke-width="0.75" stroke-linejoin="round" stroke-miterlimit="10" d="
				M203.81,237.74c0,0-2.52,0.44-7.71,1.24c0,0,1.43,4.89,5.95,4.72c4.52-0.17,3.76-5.55,3.76-5.55s0.71,5.48,4.23,5.56
				s4.85-4.21,4.85-4.21l-5.86-1.51"/>
			<path id="XMLID_1286_" fill="#FFFFFF" stroke="#000000" stroke-width="0.75" stroke-linejoin="round" stroke-miterlimit="10" d="
				M212.48,231.6c3.51-0.82,3.96-1.29,4.73-3.91c0.57-1.96,1.48-5.2-0.7-8.91c-4.01-6.82-8.66-5.98-8.66-5.98s-8.99-1.52-10.93,5.52
				c-1.51,5.48-1.95,6.6-0.09,10.64c1.05,2.27,3.83,3.65,4.26,3.1"/>
			<path id="XMLID_1285_" fill="#FFFFFF" stroke="#000000" stroke-width="0.75" stroke-linejoin="round" stroke-miterlimit="10" d="
				M214.24,221.97c0,0,0.42,8.33-2.89,10.94c-3.32,2.62-2.32,5.08-2.32,5.08l-5.21-0.25c0,0,0.73-3.09-0.67-4.14
				c-1.4-1.05-3.14-1.74-3.49-4.71s-0.07-6.93-0.07-6.93l8.71-1.57c0.82-0.15,1.67-0.07,2.45,0.23L214.24,221.97z"/>
			<ellipse id="XMLID_1287_" cx="211.39" cy="225.37" rx="0.35" ry="0.56"/>
			<ellipse id="XMLID_1288_" cx="203.21" cy="225.37" rx="0.35" ry="0.56"/>
			<path id="XMLID_1291_" fill="none" stroke="#000000" stroke-width="0.75" stroke-linejoin="round" stroke-miterlimit="10" d="
				M207.2,225.33c0,0,1.05,1.67,0.49,2.19c-0.56,0.52-0.82,0.09-0.82,0.09"/>
			<path id="XMLID_1292_" fill="none" stroke="#000000" stroke-width="0.75" stroke-linejoin="round" stroke-miterlimit="10" d="
				M204.38,223.6c0,0-1.25-1.08-2.33,0"/>
			<path id="XMLID_1293_" fill="none" stroke="#000000" stroke-width="0.75" stroke-linejoin="round" stroke-miterlimit="10" d="
				M210.03,223.57c0,0,1.25-1.02,2.51,0"/>
			<path id="XMLID_1294_" fill="none" stroke="#000000" stroke-width="0.75" stroke-linejoin="round" stroke-miterlimit="10" d="
				M208.61,229.81c0,0-1.37,1.07-2.8,0"/>
		</g>
	</g>
</g>
</svg>
