<?xml version="1.0" encoding="utf-8"?>
<!-- Generator: Adobe Illustrator 20.1.0, SVG Export Plug-In . SVG Version: 6.00 Build 0)  -->
<svg version="1.1" id="圖層_1" xmlns="http://www.w3.org/2000/svg" xmlns:xlink="http://www.w3.org/1999/xlink" x="0px" y="0px"
	 viewBox="0 0 375 667" enable-background="new 0 0 375 667" xml:space="preserve">
<g>
	<rect x="10.63" y="20.1" fill="#FFFFFF" width="353.74" height="40.29"/>
	<g id="svg03Heading">
		<text transform="matrix(1 0 0 1 91.9956 49.4617)" font-family="'Lato', 'Heiti TC', '儷黑 Pro', LiHei Pro', '微軟正黑體', 'Microsoft JhengHei'" font-weight='bold' font-size="22px" letter-spacing="2">他們都來做什麼？</text>
	</g>
	
		<line id="svg03bottomLine" fill="none" stroke="#0A080C" stroke-width="2" stroke-miterlimit="10" x1="7.02" y1="60.4" x2="367.98" y2="60.4"/>
	
		<line id="svg03topLine" fill="none" stroke="#0A080C" stroke-width="2" stroke-miterlimit="10" x1="7.02" y1="20.1" x2="367.98" y2="20.1"/>
</g>
<g id="svg03BottomText">
	<text transform="matrix(1 0 0 1 77.2134 569.5234)"><tspan x="0" y="0" font-family="'Lato'" font-weight='bold' font-size="14px" letter-spacing="1">2015</tspan><tspan x="38.08" y="0" font-family="'Lato', 'Heiti TC', '儷黑 Pro', LiHei Pro', '微軟正黑體', 'Microsoft JhengHei'" font-weight='bold' font-size="14px" letter-spacing="1">年的破千萬的來台旅客中，</tspan><tspan x="14.28" y="24" font-family="'Lato', 'Heiti TC', '儷黑 Pro', LiHei Pro', '微軟正黑體', 'Microsoft JhengHei'" font-weight='bold' font-size="14px" letter-spacing="1">有超過</tspan><tspan x="60.48" y="24" font-family="'Lato'" font-weight='bold' font-size="14px" letter-spacing="1">7</tspan><tspan x="70" y="24" font-family="'Lato', 'Heiti TC', '儷黑 Pro', LiHei Pro', '微軟正黑體', 'Microsoft JhengHei'" font-weight='bold' font-size="14px" letter-spacing="1">成是以觀光為目的。</tspan><tspan x="3.64" y="48" font-family="'Lato', 'Heiti TC', '儷黑 Pro', LiHei Pro', '微軟正黑體', 'Microsoft JhengHei'" font-weight='bold' font-size="14px" letter-spacing="1">陸客的觀光比例更是超過八成。</tspan><tspan x="-50.26" y="72" font-family="'Lato', 'Heiti TC', '儷黑 Pro', LiHei Pro', '微軟正黑體', 'Microsoft JhengHei'" font-weight='bold' font-size="14px" letter-spacing="1">可見無論國別，觀光仍是來台旅遊的主要原因。</tspan></text>
</g>
<g id="svg03Sign">
	
		<rect x="27.28" y="76.19" fill="#FFFFFF" stroke="#0A080C" stroke-width="0.75" stroke-miterlimit="10" width="320.44" height="228.01"/>
	<rect x="51.83" y="60.4" fill="none" stroke="#0A080C" stroke-width="0.75" stroke-miterlimit="10" width="9.31" height="15.77"/>
	<rect x="314.77" y="60.4" fill="none" stroke="#0A080C" stroke-width="0.75" stroke-miterlimit="10" width="9.31" height="15.77"/>
	
		<rect x="34.22" y="83.19" fill="#FFFFFF" stroke="#0A080C" stroke-width="0.75" stroke-miterlimit="10" width="306.56" height="214"/>
	<path fill="#1A1A1A" d="M74.52,115.81l-2.81-1.8c0.23,0.65,0.52,1.53,0.52,1.98c0,0.54-0.22,0.67-0.37,0.69l-2.44-6.34
		c-0.11-0.29-0.32-0.54-0.6-0.7l-1.53-0.88c-0.05-0.03-0.11-0.03-0.17,0c-0.05,0.03-0.09,0.08-0.09,0.14l-0.12,2.03l-2.1-1.34
		c-0.07-0.05-0.13-0.12-0.15-0.21l-0.85-3.34c-0.06-0.25-0.22-0.47-0.44-0.62l-0.75-0.48c-0.07-0.05-0.16-0.05-0.23-0.01
		c-0.08,0.04-0.13,0.11-0.14,0.19l-0.46,4.11c-0.03,0.26,0.04,0.52,0.2,0.73c0.73,0.99,2.92,3.92,3.43,4.24
		c0.15,0.1,0.64,0.41,1.3,0.83l-0.03,0.05c0.87,1.03,2.52,2.08,2.74,1.74l0.3-0.46c0.03-0.04,0.04-0.07,0.04-0.07l0.3-0.46
		c0.2-0.32-1.14-1.22-2.37-1.65l0.14-0.22c1.3,0.36,2.94,1.42,2.72,1.76l-0.79,1.24c1.5,0.95,2.91,1.84,3.34,2.12
		c1,0.64,2.64,1.37,3.13,0.6C76.75,118.91,75.64,116.52,74.52,115.81z"/>
	<rect x="52.73" y="96.06" fill="none" stroke="#0A080C" stroke-width="0.75" stroke-miterlimit="10" width="32.5" height="32.74"/>
	
		<rect x="84.89" y="96.06" fill="none" stroke="#0A080C" stroke-width="0.75" stroke-miterlimit="10" width="156.25" height="32.74"/>
	<rect x="241.3" y="96.06" fill="none" stroke="#0A080C" stroke-width="0.75" stroke-miterlimit="10" width="82.1" height="32.74"/>
	
		<text id="XMLID_3834_" transform="matrix(0.9 0 0 1 93.6105 118.5185)" font-family="'Lato', 'Heiti TC', '儷黑 Pro', LiHei Pro', '微軟正黑體', 'Microsoft JhengHei'" font-weight='bold' font-size="16px" letter-spacing="1.11">來台旅客目的</text>
	
		<text id="XMLID_3835_" transform="matrix(0.9 0 0 1 248.6584 118.5185)" font-family="'Lato', 'Heiti TC', '儷黑 Pro', LiHei Pro', '微軟正黑體', 'Microsoft JhengHei'" font-weight='bold' font-size="16px" letter-spacing="1.11">比率</text>
	<g>
		<rect x="52.73" y="138.73" fill="#E74631" width="23.65" height="28.61"/>
		<rect x="79.98" y="138.73" fill="#E74631" width="23.65" height="28.61"/>
		<rect x="107.24" y="138.73" fill="#E74631" width="23.65" height="28.61"/>
		<rect x="134.5" y="138.73" fill="#E74631" width="23.65" height="28.61"/>
		<rect x="162.52" y="138.73" fill="#E74631" width="23.65" height="28.61"/>
		<rect x="189.78" y="138.73" fill="#E74631" width="23.65" height="28.61"/>
		<rect x="217.03" y="138.73" fill="#E74631" width="23.65" height="28.61"/>
	</g>
	<g>
		<rect x="52.73" y="172.71" opacity="0.59" width="23.65" height="28.61"/>
		<rect x="79.98" y="172.71" opacity="0.59" width="23.65" height="28.61"/>
		<rect x="107.24" y="172.71" opacity="0.59" width="23.65" height="28.61"/>
		<rect x="134.5" y="172.71" opacity="0.59" width="23.65" height="28.61"/>
		<rect x="162.52" y="172.71" opacity="0.59" width="23.65" height="28.61"/>
		<rect x="189.78" y="172.71" opacity="0.59" width="23.65" height="28.61"/>
		<rect x="217.03" y="172.71" opacity="0.59" width="23.65" height="28.61"/>
		<rect x="52.73" y="206.38" opacity="0.59" width="23.65" height="28.61"/>
		<rect x="79.98" y="206.38" opacity="0.59" width="23.65" height="28.61"/>
		<rect x="107.24" y="206.38" opacity="0.59" width="23.65" height="28.61"/>
		<rect x="134.5" y="206.38" opacity="0.59" width="23.65" height="28.61"/>
		<rect x="162.52" y="206.38" opacity="0.59" width="23.65" height="28.61"/>
		<rect x="189.78" y="206.38" opacity="0.59" width="23.65" height="28.61"/>
		<rect x="217.03" y="206.38" opacity="0.59" width="23.65" height="28.61"/>
		<rect x="52.73" y="240.85" opacity="0.59" width="23.65" height="28.61"/>
		<rect x="79.98" y="240.85" opacity="0.59" width="23.65" height="28.61"/>
		<rect x="107.24" y="240.85" opacity="0.59" width="23.65" height="28.61"/>
		<rect x="134.5" y="240.85" opacity="0.59" width="23.65" height="28.61"/>
		<rect x="162.52" y="240.85" opacity="0.59" width="23.65" height="28.61"/>
		<rect x="189.78" y="240.85" opacity="0.59" width="23.65" height="28.61"/>
		<rect x="217.03" y="240.85" opacity="0.59" width="23.65" height="28.61"/>
	</g>
	<g>
		
			<rect x="244.29" y="138.73" fill="none" stroke="#000000" stroke-width="0.75" stroke-miterlimit="10" width="23.65" height="28.61"/>
		
			<rect x="271.65" y="138.73" fill="none" stroke="#000000" stroke-width="0.75" stroke-miterlimit="10" width="23.65" height="28.61"/>
		
			<rect x="299.01" y="138.73" fill="none" stroke="#000000" stroke-width="0.75" stroke-miterlimit="10" width="23.65" height="28.61"/>
		
			<rect x="244.29" y="172.71" fill="none" stroke="#000000" stroke-width="0.75" stroke-miterlimit="10" width="23.65" height="28.61"/>
		
			<rect x="271.65" y="172.71" fill="none" stroke="#000000" stroke-width="0.75" stroke-miterlimit="10" width="23.65" height="28.61"/>
		
			<rect x="299.01" y="172.71" fill="none" stroke="#000000" stroke-width="0.75" stroke-miterlimit="10" width="23.65" height="28.61"/>
		
			<rect x="244.29" y="206.38" fill="none" stroke="#000000" stroke-width="0.75" stroke-miterlimit="10" width="23.65" height="28.61"/>
		
			<rect x="271.65" y="206.38" fill="none" stroke="#000000" stroke-width="0.75" stroke-miterlimit="10" width="23.65" height="28.61"/>
		
			<rect x="299.01" y="206.38" fill="none" stroke="#000000" stroke-width="0.75" stroke-miterlimit="10" width="23.65" height="28.61"/>
		
			<rect x="244.29" y="240.85" fill="none" stroke="#000000" stroke-width="0.75" stroke-miterlimit="10" width="23.65" height="28.61"/>
		
			<rect x="271.65" y="240.85" fill="none" stroke="#000000" stroke-width="0.75" stroke-miterlimit="10" width="23.65" height="28.61"/>
		
			<rect x="299.01" y="240.85" fill="none" stroke="#000000" stroke-width="0.75" stroke-miterlimit="10" width="23.65" height="28.61"/>
	</g>
	<g>
		<g id="XMLID_3836_">
			<path fill="#FFFFFF" d="M62.53,148.24v3.29h-1.76l0.86,0.32c-0.07,0.19-0.15,0.39-0.2,0.57h0.99c0.06-0.28,0.12-0.55,0.18-0.83
				l1.59,0.39c-0.06,0.16-0.1,0.31-0.16,0.44h2.1v1.39h-2.1v0.5h1.88v1.39h-1.88v0.44h1.82v1.39h-1.82v0.52h2.1v0.57
				c0.39-0.32,0.7-0.71,0.92-1.17c0.18-0.36,0.28-1,0.32-1.94h-0.83v-9.73h5.12v9.73h-1.02v2.15c0,0.34,0.01,0.52,0.04,0.55
				c0.01,0.06,0.07,0.08,0.16,0.08c0.04,0,0.07-0.03,0.09-0.1c0-0.06,0.01-0.18,0.03-0.36c0-0.11,0-0.29,0.01-0.55l1.31,0.81
				c-0.12,0.88-0.26,1.39-0.44,1.55c-0.06,0.08-0.18,0.13-0.38,0.16c-0.1,0.03-0.31,0.06-0.63,0.06c-0.41,0-0.71-0.05-0.92-0.15
				c-0.52-0.1-0.77-0.65-0.77-1.68v-2.54h-0.29c-0.04,1.33-0.2,2.25-0.47,2.75c-0.32,0.68-0.8,1.26-1.46,1.75l-0.8-1.05v0.47h-4.96
				v0.45h-1.53v-4.57l-1.02-0.81c0.35-0.47,0.67-0.96,0.93-1.47c0.26-0.52,0.48-1.02,0.64-1.51h-1.12v-3.29H62.53z M62.19,145.26
				v2.79h-1.6v-0.5h-1.65v-1.64h1.65v-0.65H62.19z M61.16,150.33v-0.89h-0.73v0.89H61.16z M62.53,153.81h-1.37v0.5h1.37V153.81z
				 M62.53,155.71h-1.37v0.44h1.37V155.71z M62.53,158.06v-0.52h-1.37v0.52H62.53z M66.23,148.24v3.29h-3.47v-3.29H66.23z
				 M64.7,145.26v0.58h1.53v1.64H64.7v0.57h-1.6v-2.79H64.7z M64.86,150.33v-0.89h-0.73v0.89H64.86z M70.05,148.57v-1.15h-1.94v1.15
				H70.05z M70.05,151.22v-1.08h-1.94v1.08H70.05z M70.05,153.88v-1.09h-1.94v1.09H70.05z"/>
			<path fill="#FFFFFF" d="M91.83,145.39v5.57h5.53v1.83h-4.1v4.31c0,0.37,0.1,0.58,0.31,0.65c0.25,0.13,0.57,0.18,0.95,0.18
				c0.38,0,0.64-0.02,0.79-0.06c0.16-0.03,0.29-0.11,0.38-0.24c0.1-0.16,0.19-0.76,0.25-1.78l1.66,0.83
				c-0.07,0.73-0.2,1.43-0.38,2.11c-0.13,0.4-0.38,0.66-0.76,0.78c-0.41,0.1-1.06,0.15-1.94,0.15c-0.98,0-1.55-0.06-1.72-0.19
				c-0.83-0.06-1.24-0.66-1.24-1.77v-4.94h-1.97c-0.23,1.99-0.66,3.53-1.28,4.62c-0.76,1.25-1.81,2.12-3.14,2.61l-0.74-1.85
				c1.08-0.41,1.91-1.12,2.49-2.12c0.41-0.71,0.7-1.8,0.88-3.26h-3.14v-1.83h5.47v-5.57H91.83z M89.1,149.57l-1.66,1.08
				c-0.42-1.08-0.99-2.12-1.71-3.11l1.55-1.07C88.02,147.45,88.64,148.49,89.1,149.57z M96.39,147.68c-0.7,1.3-1.4,2.3-2.11,3.03
				l-1.37-1.33c0.79-0.84,1.44-1.75,1.94-2.72L96.39,147.68z"/>
		</g>
		<g id="XMLID_3837_">
			<path fill="#E74631" stroke="#E74631" stroke-width="0.8051" stroke-miterlimit="10" d="M255.71,158.56h-2.03l3.6-8.86h-4.56
				v-1.85h6.68v1.34L255.71,158.56z"/>
			<path fill="#E74631" stroke="#E74631" stroke-width="0.8051" stroke-miterlimit="10" d="M280.73,158.57v-1.68
				c3.06-3,4.61-5.04,4.61-6.11c0-0.84-0.47-1.28-1.37-1.28c-0.51,0-0.86,0.18-1.05,0.5c-0.16,0.29-0.22,0.76-0.19,1.39h-1.9
				c0.03-2.48,1.09-3.72,3.16-3.72c0.89,0,1.63,0.26,2.23,0.76c0.64,0.57,0.96,1.33,0.96,2.28c0,1.43-1.25,3.4-3.75,5.96h3.85v1.89
				H280.73z"/>
			<path fill="#E74631" stroke="#E74631" stroke-width="0.8051" stroke-miterlimit="10" d="M309.59,152.48
				c-0.42,0.53-1.01,0.79-1.75,0.79c-0.76,0-1.34-0.26-1.75-0.79c-0.42-0.52-0.63-1.2-0.63-2.02s0.2-1.51,0.61-2.02
				c0.41-0.52,1.01-0.79,1.76-0.79c0.73,0,1.33,0.28,1.76,0.81c0.41,0.52,0.61,1.2,0.61,2.01
				C310.22,151.29,310,151.97,309.59,152.48z M306.94,158.82l-1.02-1.15l9.36-10.01l1.02,1.13L306.94,158.82z M307.86,149.1
				c-0.64,0-0.96,0.45-0.96,1.36c0,0.91,0.32,1.36,0.96,1.36c0.63,0,0.95-0.45,0.95-1.36C308.81,149.55,308.49,149.1,307.86,149.1z
				 M316.13,158.01c-0.42,0.52-1.01,0.79-1.75,0.79c-0.76,0-1.34-0.28-1.75-0.79c-0.42-0.52-0.63-1.2-0.63-2.02s0.2-1.51,0.61-2.04
				c0.41-0.52,1.01-0.78,1.76-0.78c0.73,0,1.33,0.28,1.76,0.81c0.41,0.52,0.61,1.2,0.61,2.01
				C316.75,156.81,316.54,157.49,316.13,158.01z M314.38,154.62c-0.64,0-0.96,0.45-0.96,1.36c0,0.91,0.32,1.36,0.96,1.36
				c0.64,0,0.96-0.45,0.96-1.36C315.34,155.08,315.02,154.62,314.38,154.62z"/>
		</g>
		<g id="XMLID_3842_">
			<path fill="#FFFFFF" d="M61.56,183.29h-2.54v-1.64h1.5c-0.19-0.36-0.41-0.7-0.66-1.02l1.37-0.94c0.39,0.5,0.71,1.02,0.98,1.57
				l-0.58,0.39H63v-2.28h1.6v2.28h1.25v-2.28h1.59v2.28h0.73c0.23-0.61,0.45-1.25,0.64-1.89l1.76,0.57c-0.2,0.5-0.41,0.94-0.61,1.33
				h1.69v1.64h-2.84l-0.35,1.02h2.74v1.7h-5.13v0.58h4.51v1.64h-4.51v0.57h5.64v1.72h-3.57c0.23,0.13,0.48,0.23,0.71,0.32
				c0.82,0.36,1.78,0.65,2.92,0.88l-0.92,1.96c-1.18-0.41-2.27-0.94-3.28-1.6c-0.54-0.32-1.04-0.71-1.5-1.13v3h-1.71v-2.96
				c-0.45,0.42-0.92,0.78-1.4,1.1c-1.3,0.76-2.41,1.3-3.32,1.6l-0.86-1.7c0.9-0.23,1.85-0.58,2.87-1.05c0.29-0.13,0.57-0.28,0.8-0.4
				h-3.5v-1.72h5.41v-0.57h-4.21v-1.64h4.21v-0.58h-4.84v-1.7h2.36L61.56,183.29z M63.32,183.29l0.34,1.02h3.05l0.35-1.02H63.32z"/>
			<path fill="#FFFFFF" d="M90.73,179.82v1.57c-0.52,0.78-1.12,1.47-1.79,2.07c0.17,0.15,0.34,0.28,0.48,0.4l-0.36,0.5h1.85v1.33
				c-0.03,0.06-0.04,0.13-0.06,0.16c0.71-0.29,1.34-0.63,1.87-1c-0.41-0.42-0.77-0.89-1.09-1.41c-0.18,0.24-0.35,0.47-0.54,0.66
				l-1.04-1.26c0.47-0.55,0.85-1.1,1.11-1.67c0.32-0.62,0.58-1.25,0.77-1.88l1.55,0.39c-0.09,0.29-0.19,0.57-0.28,0.83h4.37v1.7
				h-1.15c-0.2,0.96-0.55,1.77-1.04,2.43c0.74,0.44,1.55,0.79,2.41,1.05l-0.73,1.7c-1.09-0.32-2.09-0.79-2.98-1.39
				c-0.32,0.26-0.66,0.49-1.01,0.7h0.9c-0.01,0.45-0.03,0.86-0.06,1.21h3.24c-0.01,2.3-0.16,4.05-0.42,5.21
				c-0.07,0.26-0.25,0.47-0.52,0.63c-0.29,0.15-0.64,0.23-1.04,0.23c-0.36,0-0.79-0.06-1.25-0.19l-0.17-1.83
				c0.57,0.21,1.05,0.31,1.43,0.31c0.06,0,0.1-0.02,0.15-0.08c0.03-0.03,0.06-0.16,0.09-0.37c0.06-0.68,0.1-1.41,0.1-2.2h-1.78
				c-0.15,0.74-0.34,1.34-0.58,1.8c-0.58,1.07-1.43,1.93-2.54,2.58l-0.9-1.65c0.96-0.53,1.65-1.21,2.07-2.02
				c0.1-0.19,0.19-0.44,0.28-0.7h-1.6v-1.7h1.88c0-0.26,0.01-0.53,0.03-0.81c-0.32,0.18-0.66,0.34-1.01,0.49l-0.73-1.1
				c-0.26,0.68-0.52,1.26-0.8,1.73l-1.15-0.83c0.19-0.42,0.36-0.89,0.51-1.39h-0.61v5.51c0,0.89-0.1,1.47-0.31,1.8
				c-0.25,0.36-0.69,0.55-1.3,0.55c-0.47,0-0.9-0.06-1.31-0.19l-0.28-1.83c0.45,0.16,0.9,0.24,1.37,0.24c0.1,0,0.17-0.06,0.22-0.19
				c0.03-0.16,0.06-0.44,0.06-0.81v-2.09c-0.47,0.81-0.98,1.54-1.53,2.22l-1.2-1.33c1.11-1.17,1.94-2.45,2.52-3.87h-2.3v-1.63h2.65
				c-0.63-0.49-1.27-0.94-1.91-1.33l1.08-1.26c0.41,0.21,0.79,0.44,1.15,0.66c0.36-0.28,0.7-0.58,1.02-0.92h-3.76v-1.7H90.73z
				 M94,183.68c0.32-0.42,0.57-0.91,0.74-1.46h-2.03C93.09,182.77,93.52,183.26,94,183.68z"/>
		</g>
		<g id="XMLID_3843_">
			<path d="M283.5,192.54h-2.03l3.6-8.86h-4.56v-1.85h6.68v1.34L283.5,192.54z"/>
			<path d="M309.44,186.46c-0.42,0.53-1.01,0.79-1.75,0.79c-0.76,0-1.34-0.26-1.75-0.79c-0.42-0.52-0.63-1.2-0.63-2.02
				s0.2-1.51,0.61-2.02c0.41-0.52,1.01-0.79,1.76-0.79c0.73,0,1.33,0.28,1.76,0.81c0.41,0.52,0.61,1.2,0.61,2.01
				C310.06,185.27,309.85,185.95,309.44,186.46z M306.78,192.8l-1.02-1.15l9.36-10.01l1.02,1.13L306.78,192.8z M307.7,183.08
				c-0.64,0-0.96,0.45-0.96,1.36c0,0.91,0.32,1.36,0.96,1.36c0.63,0,0.95-0.45,0.95-1.36C308.65,183.53,308.33,183.08,307.7,183.08z
				 M315.97,191.99c-0.42,0.52-1.01,0.79-1.75,0.79c-0.76,0-1.34-0.28-1.75-0.79c-0.42-0.52-0.63-1.2-0.63-2.02s0.2-1.51,0.61-2.04
				c0.41-0.52,1.01-0.78,1.76-0.78c0.73,0,1.33,0.28,1.76,0.81c0.41,0.52,0.61,1.2,0.61,2.01
				C316.6,190.79,316.38,191.47,315.97,191.99z M314.22,188.6c-0.64,0-0.96,0.45-0.96,1.36c0,0.91,0.32,1.36,0.96,1.36
				c0.64,0,0.96-0.45,0.96-1.36C315.18,189.05,314.86,188.6,314.22,188.6z"/>
		</g>
		<g id="XMLID_3848_">
			<path fill="#FFFFFF" d="M60.43,215.52v-2.48h1.59v2.48h1.2v1.7h-1.2v2.3c0.32-0.13,0.63-0.26,0.92-0.41l0.22,1.52
				c-0.38,0.23-0.76,0.45-1.14,0.65v4.1c0,0.86-0.12,1.44-0.34,1.75c-0.26,0.36-0.74,0.53-1.43,0.53c-0.41,0-0.79-0.05-1.14-0.13
				l-0.29-1.78c0.39,0.13,0.79,0.19,1.2,0.19c0.16,0,0.26-0.06,0.32-0.19c0.06-0.18,0.09-0.45,0.09-0.81v-2.9
				c-0.35,0.16-0.69,0.29-1.04,0.42l-0.57-1.83c0.55-0.16,1.08-0.32,1.6-0.52v-2.9h-1.49v-1.7H60.43z M66.58,220.33v-1.46h1.59v1.46
				h3.59v1.7h-2.79c0.31,0.49,0.64,0.94,1.02,1.33c0.55,0.62,1.23,1.13,2,1.52l-0.92,1.9c-0.79-0.55-1.53-1.26-2.22-2.19
				c-0.25-0.32-0.48-0.66-0.69-1.02v4.1h-1.59v-4.11c-0.25,0.36-0.5,0.7-0.74,1c-0.98,1.04-1.81,1.73-2.51,2.15l-0.8-1.52
				c0.69-0.39,1.4-0.97,2.16-1.75c0.44-0.45,0.83-0.92,1.15-1.41h-2.39v-1.7H66.58z M71.76,216.39h-1.59v-1.33h-0.8v1.85
				c0,0.34,0.03,0.52,0.12,0.53c0.04,0.06,0.16,0.1,0.36,0.1c0.23,0,0.36-0.03,0.39-0.1c0.06-0.06,0.1-0.18,0.13-0.34
				c0.03-0.1,0.04-0.28,0.07-0.52l1.37,0.89c-0.15,0.84-0.35,1.33-0.6,1.49c-0.07,0.1-0.25,0.15-0.51,0.16
				c-0.13,0.03-0.42,0.05-0.86,0.05c-0.47,0-0.83-0.05-1.09-0.16c-0.63-0.08-0.93-0.68-0.93-1.8v-2.15h-0.54
				c-0.07,1.28-0.32,2.22-0.74,2.83c-0.55,0.7-1.31,1.23-2.25,1.6l-0.69-1.59c0.79-0.32,1.34-0.73,1.68-1.2
				c0.23-0.39,0.39-0.94,0.45-1.65h-0.76v1.33h-1.59v-3.03h8.37V216.39z"/>
			<path fill="#FFFFFF" d="M88.42,212.98v1.08h2.22v1.7h-0.63c-0.06,0.29-0.1,0.62-0.16,0.97c-0.06,0.32-0.12,0.62-0.16,0.88h1.06
				v1.7h-2.39v1.07h2.22v1.72h-2.22v0.23c0.85,0.62,1.59,1.21,2.22,1.8l-1.02,1.63c-0.41-0.49-0.8-0.94-1.2-1.36v3.27h-1.6v-2.93
				c-0.69,0.94-1.27,1.59-1.76,1.98l-0.79-1.52c0.5-0.37,1.02-0.96,1.57-1.73c0.32-0.44,0.58-0.89,0.82-1.36h-2v-1.72h2.16v-1.07
				h-2.33v-1.7h1.14c-0.07-0.65-0.16-1.26-0.28-1.85H84.6v-1.7h2.16v-1.08H88.42z M88.02,217.61c0.06-0.29,0.12-0.62,0.19-0.97
				c0.06-0.31,0.1-0.6,0.15-0.88h-1.4c0.12,0.62,0.22,1.23,0.31,1.85H88.02z M96.96,213.36v9.8h-1.25v1.96
				c0,0.36,0.03,0.53,0.09,0.55c0.03,0.06,0.1,0.08,0.25,0.08c0.09,0,0.13-0.03,0.15-0.13c0.01-0.08,0.03-0.24,0.06-0.5
				c0-0.15,0.01-0.39,0.03-0.74l1.47,0.94c-0.13,1.04-0.31,1.67-0.51,1.86c-0.06,0.11-0.22,0.19-0.45,0.23
				c-0.12,0.03-0.36,0.06-0.74,0.06c-0.45,0-0.8-0.06-1.05-0.16c-0.6-0.1-0.89-0.73-0.89-1.86v-2.28h-0.7
				c-0.15,1.21-0.42,2.15-0.82,2.82c-0.5,0.79-1.2,1.36-2.07,1.68l-0.69-1.65c0.64-0.23,1.12-0.65,1.47-1.26
				c0.22-0.36,0.38-0.89,0.48-1.59h-0.7v-9.8H96.96z M95.36,216.08v-1.02h-2.67v1.02H95.36z M95.36,218.74v-1.02h-2.67v1.02H95.36z
				 M95.36,221.46v-1.08h-2.67v1.08H95.36z"/>
		</g>
		<g id="XMLID_3849_">
			<path d="M285.82,223.99v2.22h-1.78v-2.22h-4.19v-1.34l4.4-7.14h1.56v6.7h1.47v1.78H285.82z M284.04,219.19l-1.88,3.01h1.88
				V219.19z"/>
			<path d="M309.16,220.13c-0.42,0.53-1.01,0.79-1.75,0.79c-0.76,0-1.34-0.26-1.75-0.79c-0.42-0.52-0.63-1.2-0.63-2.02
				s0.2-1.51,0.61-2.02c0.41-0.52,1.01-0.79,1.76-0.79c0.73,0,1.33,0.28,1.76,0.81c0.41,0.52,0.61,1.2,0.61,2.01
				C309.78,218.94,309.56,219.61,309.16,220.13z M306.5,226.47l-1.02-1.15l9.36-10.01l1.02,1.13L306.5,226.47z M307.42,216.75
				c-0.64,0-0.96,0.45-0.96,1.36c0,0.91,0.32,1.36,0.96,1.36c0.63,0,0.95-0.45,0.95-1.36C308.37,217.2,308.05,216.75,307.42,216.75z
				 M315.69,225.66c-0.42,0.52-1.01,0.79-1.75,0.79c-0.76,0-1.34-0.28-1.75-0.79c-0.42-0.52-0.63-1.2-0.63-2.02s0.2-1.51,0.61-2.04
				c0.41-0.52,1.01-0.78,1.76-0.78c0.73,0,1.33,0.28,1.76,0.81c0.41,0.52,0.61,1.2,0.61,2.01
				C316.32,224.46,316.1,225.14,315.69,225.66z M313.94,222.27c-0.64,0-0.96,0.45-0.96,1.36c0,0.91,0.32,1.36,0.96,1.36
				s0.96-0.45,0.96-1.36C314.9,222.72,314.58,222.27,313.94,222.27z"/>
		</g>
		<g id="XMLID_3854_">
			<path fill="#FFFFFF" d="M72.34,262.07h-1.59v-0.45h-9.23v0.45h-1.59v-14.43h12.41V262.07z M66.54,259.92l-0.74-1.2
				c0.15-0.13,0.29-0.26,0.44-0.39c-1.27,0.26-2.62,0.5-4.08,0.7l-0.28-1.64c1.75-0.18,3.27-0.37,4.55-0.57l0.1,1.21
				c0.31-0.32,0.57-0.66,0.8-1.02c-0.12-0.31-0.2-0.65-0.28-1c-0.26-0.91-0.44-2.12-0.55-3.63h-4.68v-1.59h4.59
				c-0.03-0.39-0.04-0.78-0.04-1.2h1.43c0,0.44,0.01,0.84,0.04,1.2h0.92c-0.2-0.23-0.42-0.44-0.63-0.63l0.74-0.81h-7.35v10.56H66.54
				z M66.3,252.82v3.68h-4.16v-3.68H66.3z M64.89,255.04v-0.76h-1.31v0.76H64.89z M70.75,259.92v-1.68
				c-0.13,0.62-0.29,1.02-0.5,1.18c-0.2,0.21-0.47,0.31-0.82,0.31c-0.41,0-0.82-0.24-1.2-0.74c-0.07-0.1-0.13-0.19-0.19-0.29
				c-0.35,0.45-0.74,0.86-1.18,1.23H70.75z M70.36,250.1l-0.51,0.7h0.73v1.59h-2.67c0.07,1.2,0.18,2.09,0.31,2.64
				c0.01,0.08,0.03,0.15,0.04,0.18c0.26-0.68,0.51-1.47,0.73-2.38l1.37,0.58c-0.41,1.59-0.87,2.88-1.41,3.89
				c0,0.02,0.01,0.03,0.01,0.03c0.22,0.47,0.38,0.7,0.48,0.7c0.03,0,0.04-0.03,0.07-0.11c0.03-0.15,0.04-0.57,0.04-1.28l1.2,0.39
				v-7.66H69.5C69.8,249.59,70.1,249.85,70.36,250.1z"/>
			<path fill="#FFFFFF" d="M92.65,247.97c-0.04,0.11-0.09,0.21-0.13,0.31h2.13v0.81c0.34,0.87,0.73,1.62,1.18,2.23
				c0.23-0.45,0.44-0.94,0.63-1.46h-1.18v-1.65h2.96v1.33c-0.41,1.13-0.86,2.09-1.34,2.9c0.48,0.42,1.01,0.76,1.56,1.02l-0.73,1.72
				c-0.51-0.23-0.99-0.53-1.43-0.91v0.65h-4.61v-0.52c-0.47,0.36-0.96,0.68-1.49,0.97l-0.63-1.52c0.35-0.19,0.67-0.42,0.98-0.65
				c-0.23-0.24-0.45-0.47-0.69-0.68l0.96-1.09c0.29,0.23,0.58,0.45,0.85,0.71c0.06-0.07,0.13-0.15,0.19-0.23
				c-0.26-0.28-0.51-0.52-0.74-0.73l0.96-1.09c0.23,0.16,0.44,0.31,0.61,0.47c0.12-0.23,0.2-0.45,0.29-0.71h-1.3
				c-0.06,0.1-0.12,0.18-0.16,0.24c-0.44,0.68-0.95,1.25-1.5,1.72l-0.8-0.94l-0.58,1.83c0.38,0.58,0.69,1.2,0.92,1.81
				c0.26,0.79,0.41,1.54,0.41,2.23c-0.03,1.78-0.69,2.66-1.98,2.66h-0.63l-0.29-1.49v4.21h-1.65v-14.36h4.78l-0.82,2.61
				c0.38-0.39,0.69-0.78,0.92-1.17c0.36-0.55,0.66-1.08,0.86-1.64L92.65,247.97z M87.95,249.54h-0.89v3.19L87.95,249.54z
				 M87.98,257.57c0.2,0,0.32-0.26,0.34-0.81c0-0.53-0.1-1.08-0.29-1.67c-0.19-0.57-0.51-1.17-0.96-1.78v4.06
				C87.43,257.5,87.73,257.57,87.98,257.57z M92.41,258.9c-0.32,0.45-0.73,0.91-1.2,1.34c-0.53,0.44-1.01,0.78-1.41,1l-0.86-1.59
				c0.35-0.16,0.77-0.42,1.24-0.79c0.42-0.32,0.79-0.68,1.09-1.04L92.41,258.9z M97.61,255.68v1.65h-2.84v2.66
				c0,0.89-0.15,1.47-0.44,1.73c-0.31,0.32-0.83,0.49-1.56,0.49c-0.31,0-0.6-0.06-0.86-0.19l-0.28-1.83
				c0.38,0.21,0.76,0.31,1.14,0.31c0.18,0,0.28-0.24,0.28-0.76v-2.4h-2.67v-1.65H97.61z M95.32,253.34
				c-0.09-0.08-0.16-0.16-0.22-0.26c-0.38-0.45-0.71-1.02-1.01-1.68c-0.31,0.65-0.66,1.21-1.06,1.68c-0.07,0.1-0.15,0.18-0.22,0.26
				H95.32z M97.24,259.14c0.35,0.36,0.7,0.63,1.05,0.84l-1.08,1.52c-0.38-0.29-0.73-0.61-1.08-1c-0.41-0.45-0.8-0.97-1.15-1.54
				l1.2-1.07C96.51,258.38,96.86,258.78,97.24,259.14z"/>
			<path fill="#FFFFFF" d="M118.23,248.06c0.83,0.42,1.68,0.78,2.54,1.1c1.12,0.42,2.22,0.76,3.28,1l-0.85,1.72
				c-0.16-0.05-0.31-0.1-0.45-0.15v4.57h-10.94v-4.44c-0.15,0.05-0.28,0.1-0.41,0.15l-0.85-1.65c2.45-0.74,4.7-1.8,6.72-3.16
				L118.23,248.06z M122.29,262.14h-1.59v-0.32h-6.61v0.32h-1.6v-5.44h9.8V262.14z M122.23,251.56c-0.76-0.26-1.47-0.55-2.16-0.88
				v0.5h-5.76v-0.39c-0.57,0.28-1.14,0.53-1.72,0.76H122.23z M114.44,254.74c-0.17-0.36-0.36-0.7-0.58-1.02l0.8-0.57h-1.25v1.59
				H114.44z M120.7,258.59v-0.39h-6.61v0.39H120.7z M120.7,260.29v-0.37h-6.61v0.37H120.7z M115.92,254.28l-0.71,0.45h1.22v-1.59
				h-1.09C115.57,253.52,115.75,253.89,115.92,254.28z M118.28,249.8c-0.38-0.19-0.74-0.4-1.08-0.61c-0.34,0.23-0.67,0.42-1.01,0.61
				H118.28z M117.96,254.74h1.14l-0.55-0.32c0.23-0.42,0.41-0.84,0.55-1.26h-1.14V254.74z M120.64,253.52
				c-0.18,0.49-0.35,0.89-0.54,1.21h1.05v-1.59h-1.47L120.64,253.52z"/>
			<path fill="#FFFFFF" d="M143.98,249.86v1.77h-4.78v-1.77H143.98z M143.64,261.62h-2.57v0.52h-1.53v-5.44h4.1V261.62z
				 M143.41,254.35V256h-3.7v-1.65H143.41z M143.47,252.13v1.65h-3.7v-1.65H143.47z M143.41,247.77v1.7h-3.59v-1.7H143.41z
				 M142.11,260.05v-1.78h-1.04v1.78H142.11z M149.73,255.87h2.35v1.59h-2.2c0.03,0.26,0.06,0.47,0.1,0.66
				c0.01,0.15,0.04,0.29,0.09,0.42c0.38-0.29,0.73-0.61,1.05-0.97l0.85,1.09c-0.2,0.26-0.41,0.49-0.61,0.68l1.02,0.45
				c-0.22,1.04-0.48,1.7-0.8,2.02c-0.19,0.21-0.42,0.32-0.69,0.32c-0.29,0-0.6-0.18-0.9-0.52c-0.22-0.24-0.41-0.52-0.55-0.81
				c-0.47,0.26-0.95,0.52-1.44,0.74l-0.63-1.51c0.54-0.21,1.04-0.45,1.5-0.71c-0.03-0.03-0.04-0.08-0.04-0.15
				c-0.16-0.5-0.28-1.08-0.36-1.73h-1.33v0.39c0.29-0.06,0.58-0.13,0.86-0.21l0.34,1.33c-0.39,0.16-0.79,0.29-1.2,0.42v0.66
				c0,0.78-0.12,1.31-0.34,1.6c-0.29,0.32-0.79,0.49-1.49,0.49c-0.35,0-0.67-0.05-0.96-0.13l-0.23-1.65
				c0.32,0.13,0.64,0.19,0.98,0.19c0.23,0,0.38-0.05,0.45-0.18c0.06-0.13,0.1-0.31,0.12-0.55c-0.39,0.1-0.79,0.19-1.2,0.29
				l-0.63-1.59c0.64-0.11,1.25-0.23,1.82-0.34v-0.73h-1.66v-1.59h1.66v-0.44c-0.41,0.1-0.83,0.18-1.25,0.24l-0.45-1.39
				c0.95-0.13,1.85-0.32,2.7-0.57h-2.54v-1.46h3.14v-0.5h-2.51v-1.39h2.51v-0.44h-2.9v-1.39h1.31c-0.09-0.19-0.19-0.37-0.29-0.57
				l1.55-0.52c0.19,0.36,0.35,0.71,0.48,1.08h1.33c0.13-0.32,0.25-0.66,0.35-1.02l1.65,0.52c-0.09,0.19-0.17,0.36-0.25,0.5h1.34
				v1.39h-2.92v0.44h2.51v1.39h-2.51v0.5h3.19v1.46h-4.49l0.45,1.09c-0.31,0.1-0.61,0.19-0.92,0.28v0.79h1.15
				c-0.04-0.57-0.07-1.18-0.07-1.83l1.49-0.13C149.68,254.64,149.7,255.29,149.73,255.87z M151.8,255.04l-1.15,0.7
				c-0.18-0.39-0.39-0.78-0.67-1.13l1.08-0.76C151.34,254.23,151.59,254.62,151.8,255.04z M150.54,260.05
				c0.01,0.03,0.03,0.06,0.04,0.1c0.15,0.32,0.26,0.47,0.35,0.47c0.01,0,0.04-0.08,0.07-0.28c0.03-0.19,0.06-0.45,0.09-0.78
				C150.91,259.76,150.72,259.92,150.54,260.05z"/>
			<path fill="#FFFFFF" d="M179.92,247.97l-0.16,9.04h1.02v1.72h-13.17V257h1.08l-0.22-8.73c0.96-0.13,1.88-0.39,2.73-0.76
				l0.86,1.65c-0.58,0.26-1.21,0.47-1.88,0.6l0.01,1.3h1.69v1.65h-1.66l0.01,1.26h1.65v1.64h-1.62l0.01,1.39h1.92l0.36-3.29h1.55
				l-0.38,3.29h0.82l0.25-4.05h-1.08l-0.01,0.26h-1.47l0.39-5.7h1.49l-0.09,1.15h2.07v1.64h-2.19l-0.07,1.02h2.49l-0.29,5.68h2.13
				l0.03-1.39h-1.47v-1.64h1.5l0.03-1.26h-1.59v-1.65h1.62l0.03-1.33h-1.75v-1.77H179.92z M172.69,260.11
				c-1.14,0.81-2.51,1.47-4.1,2.02l-0.92-1.85c1.34-0.34,2.55-0.83,3.65-1.44L172.69,260.11z M178.65,259.64
				c0.64,0.23,1.28,0.41,1.9,0.53l-0.96,1.9c-0.7-0.23-1.37-0.49-2.01-0.81c-0.77-0.37-1.49-0.76-2.16-1.21l1.31-1.2
				C177.34,259.14,177.98,259.42,178.65,259.64z"/>
			<path fill="#FFFFFF" d="M207.93,255.61v1.72h-1.37l0.69,1.2c-0.54,0.37-1.06,0.66-1.57,0.88c0.67,0.37,1.49,0.66,2.43,0.89
				l-0.86,1.85c-1.4-0.45-2.61-1.15-3.6-2.06c-0.83-0.74-1.5-1.67-2-2.75h-1.01v2.45c0.61-0.1,1.18-0.19,1.71-0.29l0.45,1.57
				c-1.34,0.36-2.89,0.66-4.61,0.96l-0.69-1.78c0.52-0.06,1.02-0.13,1.49-0.19v-2.7h-1.55c-0.06,0.45-0.12,0.89-0.19,1.31
				c-0.19,1.08-0.51,2.17-0.95,3.3l-1.43-0.96c0.47-1.39,0.77-2.59,0.93-3.59c0.18-1.25,0.26-2.49,0.26-3.76v-5.99h11.23v4.11h-2.22
				v1.02h2.22v1.7h-2.22v1.13H207.93z M197.62,254.46c0,0.41-0.01,0.79-0.03,1.15h2.19v-1.13h-1.88v-1.7h1.88v-1.02h-2.16V254.46z
				 M197.62,249.36v0.7h8.09v-0.7H197.62z M203.48,251.76h-2.1v1.02h2.1V251.76z M203.48,255.61v-1.13h-2.1v1.13H203.48z
				 M205.67,257.33h-2.33c0.23,0.36,0.5,0.66,0.8,0.96C204.67,258.02,205.18,257.7,205.67,257.33z"/>
			<path fill="#FFFFFF" d="M233.87,254.28v5.64h-2.96v0.37c0,0.31,0.2,0.45,0.64,0.49c0.2,0.02,0.47,0.03,0.82,0.03
				c0.74,0,1.18-0.03,1.33-0.07c0.15-0.06,0.25-0.16,0.28-0.32c0.06-0.06,0.1-0.34,0.13-0.83l1.53,0.96
				c-0.09,0.68-0.28,1.1-0.57,1.28c-0.19,0.08-0.45,0.15-0.8,0.18c-0.22,0.03-0.85,0.07-1.9,0.07c-0.52,0-0.99-0.03-1.4-0.07
				c-1.14-0.03-1.71-0.45-1.71-1.26v-0.83h-1.46c-0.35,0.55-0.77,0.96-1.3,1.26c-0.79,0.45-2.06,0.74-3.79,0.89l-0.41-1.59
				c1.34-0.03,2.38-0.18,3.09-0.45c0.1-0.03,0.19-0.06,0.28-0.11h-1.94v-5.64H233.87z M228.47,248.84h-1.82v0.63h1.77v2.72h-1.77
				v0.58h1.82v1.2h-5.86v-6.33h5.86V248.84z M225.17,249.47v-0.63h-1.15v0.63H225.17z M227.04,251.06v-0.44h-3.02v0.44H227.04z
				 M225.17,252.19h-1.15v0.58h1.15V252.19z M232.29,255.87v-0.32h-6.96v0.32H232.29z M232.29,257.26v-0.39h-6.96v0.39H232.29z
				 M232.29,258.66v-0.39h-6.96v0.39H232.29z M231.03,247.71c-0.04,0.13-0.07,0.26-0.1,0.37h4.08v1.15h-4.48
				c-0.04,0.11-0.09,0.21-0.13,0.31h3.88v1.08h-4.05v-0.68c-0.13,0.28-0.26,0.52-0.39,0.74l-1.31-0.83c0.5-0.78,0.88-1.67,1.14-2.66
				L231.03,247.71z M235.01,250.93v3.04h-6.26v-3.04H235.01z M230.58,252.82v-0.74h-0.41v0.74H230.58z M231.72,252.82h0.34v-0.74
				h-0.34V252.82z M233.19,252.82h0.41v-0.74h-0.41V252.82z"/>
		</g>
		<g id="XMLID_3855_">
			<path d="M252.75,257.73v-1.49l5.8-3.3v2.1l-3.38,1.93l3.38,1.91v2.09L252.75,257.73z"/>
			<path d="M283.06,260.69v-7.77c-0.39,0.29-0.9,0.58-1.55,0.84v-2.14c0.88-0.44,1.58-0.99,2.13-1.65h1.22v10.72H283.06z"/>
			<path d="M308.78,254.61c-0.42,0.53-1.01,0.79-1.75,0.79c-0.76,0-1.34-0.26-1.75-0.79c-0.42-0.52-0.63-1.2-0.63-2.02
				s0.2-1.51,0.61-2.02c0.41-0.52,1.01-0.79,1.76-0.79c0.73,0,1.33,0.28,1.76,0.81c0.41,0.52,0.61,1.2,0.61,2.01
				C309.41,253.41,309.19,254.09,308.78,254.61z M306.13,260.94l-1.02-1.15l9.36-10.01l1.02,1.13L306.13,260.94z M307.04,251.22
				c-0.64,0-0.96,0.45-0.96,1.36c0,0.91,0.32,1.36,0.96,1.36c0.63,0,0.95-0.45,0.95-1.36C307.99,251.67,307.67,251.22,307.04,251.22
				z M315.31,260.13c-0.42,0.52-1.01,0.79-1.75,0.79c-0.76,0-1.34-0.28-1.75-0.79c-0.42-0.52-0.63-1.2-0.63-2.02
				c0-0.83,0.2-1.51,0.61-2.04c0.41-0.52,1.01-0.78,1.76-0.78c0.73,0,1.33,0.28,1.76,0.81c0.41,0.52,0.61,1.2,0.61,2.01
				C315.94,258.93,315.72,259.61,315.31,260.13z M313.56,256.74c-0.64,0-0.96,0.45-0.96,1.36s0.32,1.36,0.96,1.36
				c0.64,0,0.96-0.45,0.96-1.36S314.2,256.74,313.56,256.74z"/>
		</g>
	</g>
	<g>
		
			<line id="XMLID_3838_" opacity="0.54" fill="none" stroke="#FFFFFF" stroke-width="0.5368" stroke-miterlimit="10" x1="52.73" y1="153.04" x2="240.69" y2="153.04"/>
		
			<line id="XMLID_3844_" opacity="0.54" fill="none" stroke="#FFFFFF" stroke-width="0.5368" stroke-miterlimit="10" x1="52.73" y1="187.01" x2="240.69" y2="187.01"/>
		
			<line id="XMLID_3850_" opacity="0.54" fill="none" stroke="#FFFFFF" stroke-width="0.5368" stroke-miterlimit="10" x1="52.73" y1="220.68" x2="240.69" y2="220.68"/>
		
			<line id="XMLID_3856_" opacity="0.54" fill="none" stroke="#FFFFFF" stroke-width="0.5368" stroke-miterlimit="10" x1="52.73" y1="255.16" x2="240.69" y2="255.16"/>
	</g>
	<g opacity="0.39">
		
			<line id="XMLID_3839_" opacity="0.24" fill="none" stroke="#000000" stroke-width="0.5368" stroke-miterlimit="10" x1="244.87" y1="153.04" x2="267.94" y2="153.04"/>
		
			<line id="XMLID_3840_" opacity="0.24" fill="none" stroke="#000000" stroke-width="0.5368" stroke-miterlimit="10" x1="271.94" y1="153.04" x2="295.01" y2="153.04"/>
		
			<line id="XMLID_3841_" opacity="0.24" fill="none" stroke="#000000" stroke-width="0.5368" stroke-miterlimit="10" x1="299.3" y1="153.04" x2="322.38" y2="153.04"/>
		
			<line id="XMLID_3845_" opacity="0.39" fill="none" stroke="#000000" stroke-width="0.5368" stroke-miterlimit="10" x1="244.87" y1="187.01" x2="267.94" y2="187.01"/>
		
			<line id="XMLID_3846_" opacity="0.39" fill="none" stroke="#000000" stroke-width="0.5368" stroke-miterlimit="10" x1="271.94" y1="187.01" x2="295.01" y2="187.01"/>
		
			<line id="XMLID_3847_" opacity="0.39" fill="none" stroke="#000000" stroke-width="0.5368" stroke-miterlimit="10" x1="299.3" y1="187.01" x2="322.38" y2="187.01"/>
		
			<line id="XMLID_3851_" opacity="0.39" fill="none" stroke="#000000" stroke-width="0.5368" stroke-miterlimit="10" x1="244.87" y1="220.68" x2="267.94" y2="220.68"/>
		
			<line id="XMLID_3852_" opacity="0.39" fill="none" stroke="#000000" stroke-width="0.5368" stroke-miterlimit="10" x1="271.94" y1="220.68" x2="295.01" y2="220.68"/>
		
			<line id="XMLID_3853_" opacity="0.39" fill="none" stroke="#000000" stroke-width="0.5368" stroke-miterlimit="10" x1="299.3" y1="220.68" x2="322.38" y2="220.68"/>
		
			<line id="XMLID_3857_" opacity="0.39" fill="none" stroke="#000000" stroke-width="0.5368" stroke-miterlimit="10" x1="244.87" y1="255.16" x2="267.94" y2="255.16"/>
		
			<line id="XMLID_3858_" opacity="0.39" fill="none" stroke="#000000" stroke-width="0.5368" stroke-miterlimit="10" x1="271.94" y1="255.16" x2="295.01" y2="255.16"/>
		
			<line id="XMLID_3859_" opacity="0.39" fill="none" stroke="#000000" stroke-width="0.5368" stroke-miterlimit="10" x1="299.3" y1="255.16" x2="322.38" y2="255.16"/>
	</g>
	<g>
		<ellipse id="XMLID_3861_" opacity="0.52" cx="187.5" cy="277.56" rx="1.48" ry="1.52"/>
		<ellipse id="XMLID_3862_" opacity="0.52" cx="187.5" cy="282.53" rx="1.48" ry="1.52"/>
		<ellipse id="XMLID_3863_" opacity="0.52" cx="187.5" cy="287.51" rx="1.48" ry="1.52"/>
	</g>
</g>
<g id="svg03GirlRight">
	<g>
		<path fill="#FFFFFF" stroke="#000000" stroke-width="0.75" stroke-linejoin="bevel" stroke-miterlimit="10" d="M213.84,379.13
			c0,0-7.87-8.74-9.46-15.12c-0.42-1.67,1.72-4.8,4.22-2.95c5.51,4.09,12.64,12.98,12.64,12.98L213.84,379.13z"/>
		<path id="XMLID_3931_" fill="none" stroke="#000000" stroke-width="0.75" stroke-linejoin="bevel" stroke-miterlimit="10" d="
			M293.02,362.23c0,0,16.95,8.2,20.93,23.01"/>
		<circle id="XMLID_3866_" fill="#FFFFFF" cx="281.87" cy="317.2" r="29.13"/>
		<polygon id="XMLID_3868_" fill="#E74631" points="252.81,399.91 290.34,399.91 290.34,407.11 253.85,407.11 		"/>
		<g opacity="0.35">
			<defs>
				<path id="SVGID_1_" opacity="0.35" d="M255.92,359.74l14.73,18.04l-15.74,19.06h-2.18c0,0,0.79,21.63,0.7,25.36
					c0,0-0.36,7.8-6.11,9.33c-25.69-10.98-40.78-47.61-40.78-47.61l23.51-15.09l11.96,25.32
					C243.29,380.19,248.05,361.85,255.92,359.74z"/>
			</defs>
			<clipPath id="SVGID_2_">
				<use xlink:href="#SVGID_1_"  overflow="visible"/>
			</clipPath>
			<g clip-path="url(#SVGID_2_)">
				<circle fill="#E74631" cx="219.51" cy="389.83" r="4.44"/>
				<circle fill="#E74631" cx="230.6" cy="378.73" r="4.44"/>
				<path fill="#E74631" d="M208.91,380.39c-0.14,0.03-0.29,0.05-0.43,0.08c-0.23,0.52-0.46,1.04-0.71,1.55
					c-0.17,0.35-0.37,0.66-0.59,0.96c0.39,0.11,0.8,0.2,1.23,0.2c2.45,0,4.44-1.99,4.44-4.44c0-0.08-0.02-0.16-0.02-0.24
					C211.64,379.37,210.39,380.08,208.91,380.39z"/>
				<circle fill="#E74631" cx="241.7" cy="389.83" r="4.44"/>
				<path fill="#E74631" d="M222.15,415.57c1.08-0.81,1.79-2.09,1.79-3.55c0-2.45-1.99-4.44-4.44-4.44c-0.84,0-1.61,0.25-2.28,0.65
					C218.76,410.57,220.47,413.6,222.15,415.57z"/>
				<path fill="#E74631" d="M232.94,426.07c0.17,0.16,0.34,0.3,0.51,0.44c0.97-0.81,1.59-2.02,1.59-3.38c0-2.45-1.99-4.44-4.44-4.44
					c-1.38,0-2.6,0.65-3.41,1.64C229.17,422.1,230.88,424.12,232.94,426.07z"/>
				<circle fill="#E74631" cx="230.6" cy="400.93" r="4.44"/>
				<circle fill="#E74631" cx="241.7" cy="412.03" r="4.44"/>
				<circle fill="#E74631" cx="219.51" cy="389.83" r="4.44"/>
				<circle fill="#E74631" cx="241.7" cy="389.83" r="4.44"/>
				<circle fill="#E74631" cx="241.7" cy="389.83" r="4.44"/>
				<circle fill="#E74631" cx="263.9" cy="389.83" r="4.44"/>
				<circle fill="#E74631" cx="263.9" cy="367.63" r="4.44"/>
				<circle fill="#E74631" cx="275" cy="378.73" r="4.44"/>
				<circle fill="#E74631" cx="252.8" cy="378.73" r="4.44"/>
				<circle fill="#E74631" cx="286.09" cy="367.63" r="4.44"/>
				<circle fill="#E74631" cx="241.7" cy="412.03" r="4.44"/>
				<circle fill="#E74631" cx="252.8" cy="400.93" r="4.44"/>
				<circle fill="#E74631" cx="241.7" cy="389.83" r="4.44"/>
				<circle fill="#E74631" cx="263.9" cy="389.83" r="4.44"/>
			</g>
		</g>
		<path id="XMLID_3870_" fill="#FFFFFF" stroke="#FFFFFF" stroke-width="1.1328" stroke-miterlimit="10" d="M293.02,362.23
			l-26.71,34.61h24.03l0.34,14.01c0,0-1.42,8.53-3.11,11.18c-1.68,2.65-5.63,7.23-5.63,7.23l9.12,29.79c0,0,9.13-7.18,12.21-22.73
			s3.58-25.51,2.2-33.17C304.1,395.49,293.02,362.23,293.02,362.23z"/>
		<path id="XMLID_3872_" fill="#FFFFFF" stroke="#FFFFFF" stroke-width="1.1328" stroke-miterlimit="10" d="M301.82,441.92
			c0,0,0.56,29.51-1.58,45.66s-3.02,21.74-3.02,21.74s-6.92,1.18-22.92,0c-16-1.18-18.14-1.59-18.14-1.59l-5.18-55.84l7.44-11.02
			c0,0,3.23,4.2,3.16,6.85c-0.07,2.65-2.5,11.78-0.15,15.76c2.36,3.97,6.26,7.37,6.26,7.37s-4.55,2.42-4.51,6.91
			c0.04,4.5-0.85,7.53-0.69,10.57c0.16,3.04,1.36,5.02,6.45,6.59c5.09,1.57,8.61,0.38,12.26-1.59c3.65-1.97,4.95-3.1,4.87-6.24
			c-0.08-3.13-2.89-9.21-2.89-9.21l-3.37-7.77l4.09-9.17l-0.26-9.07l2.63-8.73l4.8,15.91"/>
		<g opacity="0.35">
			<defs>
				<path id="SVGID_3_" opacity="0.35" d="M293.02,362.23l-26.71,34.61h24.03l0.34,14.01c0,0-1.42,8.53-3.11,11.18
					c-1.68,2.65-5.63,7.23-5.63,7.23l9.12,29.79c0,0,9.13-7.18,12.21-22.73s11.54-45.09,9.73-52.67
					C310.33,372.47,293.02,362.23,293.02,362.23z"/>
			</defs>
			<clipPath id="SVGID_4_">
				<use xlink:href="#SVGID_3_"  overflow="visible"/>
			</clipPath>
			<g clip-path="url(#SVGID_4_)">
				<circle fill="#E74631" cx="241.7" cy="389.83" r="4.44"/>
				<circle fill="#E74631" cx="263.9" cy="389.83" r="4.44"/>
				<circle fill="#E74631" cx="241.7" cy="367.63" r="4.44"/>
				<circle fill="#E74631" cx="263.9" cy="367.63" r="4.44"/>
				<circle fill="#E74631" cx="275" cy="378.73" r="4.44"/>
				<circle fill="#E74631" cx="252.8" cy="378.73" r="4.44"/>
				<circle fill="#E74631" cx="275" cy="356.54" r="4.44"/>
				<circle fill="#E74631" cx="252.8" cy="356.54" r="4.44"/>
				<circle fill="#E74631" cx="286.09" cy="389.83" r="4.44"/>
				<circle fill="#E74631" cx="286.09" cy="367.63" r="4.44"/>
				<circle fill="#E74631" cx="241.7" cy="345.44" r="4.44"/>
				<circle fill="#E74631" cx="263.9" cy="345.44" r="4.44"/>
				<circle fill="#E74631" cx="286.09" cy="345.44" r="4.44"/>
				<circle fill="#E74631" cx="241.7" cy="412.03" r="4.44"/>
				<circle fill="#E74631" cx="263.9" cy="412.03" r="4.44"/>
				<circle fill="#E74631" cx="275" cy="423.13" r="4.44"/>
				<circle fill="#E74631" cx="252.8" cy="423.13" r="4.44"/>
				<circle fill="#E74631" cx="275" cy="400.93" r="4.44"/>
				<circle fill="#E74631" cx="252.8" cy="400.93" r="4.44"/>
				<circle fill="#E74631" cx="286.09" cy="412.03" r="4.44"/>
				<circle fill="#E74631" cx="241.7" cy="389.83" r="4.44"/>
				<circle fill="#E74631" cx="263.9" cy="389.83" r="4.44"/>
				<circle fill="#E74631" cx="286.09" cy="389.83" r="4.44"/>
				<circle fill="#E74631" cx="286.09" cy="389.83" r="4.44"/>
				<circle fill="#E74631" cx="308.29" cy="389.83" r="4.44"/>
				<circle fill="#E74631" cx="286.09" cy="367.63" r="4.44"/>
				<circle fill="#E74631" cx="308.29" cy="367.63" r="4.44"/>
				<circle fill="#E74631" cx="319.39" cy="378.73" r="4.44"/>
				<circle fill="#E74631" cx="297.19" cy="378.73" r="4.44"/>
				<circle fill="#E74631" cx="319.39" cy="356.54" r="4.44"/>
				<circle fill="#E74631" cx="297.19" cy="356.54" r="4.44"/>
				<circle fill="#E74631" cx="330.49" cy="389.83" r="4.44"/>
				<circle fill="#E74631" cx="330.49" cy="367.63" r="4.44"/>
				<circle fill="#E74631" cx="286.09" cy="345.44" r="4.44"/>
				<circle fill="#E74631" cx="308.29" cy="345.44" r="4.44"/>
				<circle fill="#E74631" cx="330.49" cy="345.44" r="4.44"/>
				<circle fill="#E74631" cx="286.09" cy="412.03" r="4.44"/>
				<circle fill="#E74631" cx="308.29" cy="412.03" r="4.44"/>
				<circle fill="#E74631" cx="319.39" cy="423.13" r="4.44"/>
				<circle fill="#E74631" cx="297.19" cy="423.13" r="4.44"/>
				<circle fill="#E74631" cx="319.39" cy="400.93" r="4.44"/>
				<circle fill="#E74631" cx="297.19" cy="400.93" r="4.44"/>
				<circle fill="#E74631" cx="330.49" cy="412.03" r="4.44"/>
				<circle fill="#E74631" cx="286.09" cy="389.83" r="4.44"/>
				<circle fill="#E74631" cx="308.29" cy="389.83" r="4.44"/>
				<circle fill="#E74631" cx="330.49" cy="389.83" r="4.44"/>
			</g>
		</g>
		<g opacity="0.35">
			<defs>
				<path id="SVGID_5_" opacity="0.35" d="M301.82,441.92c0,0,0.56,29.51-1.58,45.66s-3.02,21.74-3.02,21.74s-6.92,1.18-22.92,0
					c-16-1.18-18.14-1.59-18.14-1.59l-3.08-96.88l42.92-0.26L301.82,441.92z"/>
			</defs>
			<clipPath id="SVGID_6_">
				<use xlink:href="#SVGID_5_"  overflow="visible"/>
			</clipPath>
			<g clip-path="url(#SVGID_6_)">
				<circle fill="#E74631" cx="263.9" cy="434.22" r="4.44"/>
				<path fill="#E74631" d="M266.89,408.76h-5.99c-0.89,0.81-1.45,1.97-1.45,3.27c0,2.45,1.99,4.44,4.44,4.44
					c2.45,0,4.44-1.99,4.44-4.44C268.34,410.73,267.78,409.57,266.89,408.76z"/>
				<circle fill="#E74631" cx="275" cy="423.13" r="4.44"/>
				<path fill="#E74631" d="M252.8,418.69c-0.75,0-1.45,0.19-2.06,0.51v7.86c0.62,0.33,1.32,0.51,2.06,0.51
					c2.45,0,4.44-1.99,4.44-4.44C257.24,420.67,255.25,418.69,252.8,418.69z"/>
				<circle fill="#E74631" cx="286.09" cy="434.22" r="4.44"/>
				<path fill="#E74631" d="M289.09,408.76h-5.99c-0.89,0.81-1.45,1.97-1.45,3.27c0,2.45,1.99,4.44,4.44,4.44s4.44-1.99,4.44-4.44
					C290.53,410.73,289.97,409.57,289.09,408.76z"/>
				<circle fill="#E74631" cx="263.9" cy="478.62" r="4.44"/>
				<circle fill="#E74631" cx="263.9" cy="456.42" r="4.44"/>
				<circle fill="#E74631" cx="275" cy="467.52" r="4.44"/>
				<path fill="#E74631" d="M252.8,463.08c-0.75,0-1.45,0.19-2.06,0.51v7.86c0.62,0.33,1.32,0.51,2.06,0.51
					c2.45,0,4.44-1.99,4.44-4.44C257.24,465.07,255.25,463.08,252.8,463.08z"/>
				<circle fill="#E74631" cx="275" cy="445.32" r="4.44"/>
				<path fill="#E74631" d="M252.8,440.88c-0.75,0-1.45,0.19-2.06,0.51v7.86c0.62,0.33,1.32,0.51,2.06,0.51
					c2.45,0,4.44-1.99,4.44-4.44C257.24,442.87,255.25,440.88,252.8,440.88z"/>
				<circle fill="#E74631" cx="286.09" cy="478.62" r="4.44"/>
				<circle fill="#E74631" cx="286.09" cy="456.42" r="4.44"/>
				<circle fill="#E74631" cx="263.9" cy="434.22" r="4.44"/>
				<circle fill="#E74631" cx="286.09" cy="434.22" r="4.44"/>
				<circle fill="#E74631" cx="263.9" cy="500.81" r="4.44"/>
				<circle fill="#E74631" cx="275" cy="511.91" r="4.44"/>
				<circle fill="#E74631" cx="275" cy="489.72" r="4.44"/>
				<path fill="#E74631" d="M252.8,485.28c-0.75,0-1.45,0.19-2.06,0.51v7.86c0.62,0.33,1.32,0.51,2.06,0.51
					c2.45,0,4.44-1.99,4.44-4.44C257.24,487.27,255.25,485.28,252.8,485.28z"/>
				<circle fill="#E74631" cx="286.09" cy="500.81" r="4.44"/>
				<circle fill="#E74631" cx="263.9" cy="478.62" r="4.44"/>
				<circle fill="#E74631" cx="286.09" cy="478.62" r="4.44"/>
				<circle fill="#E74631" cx="286.09" cy="434.22" r="4.44"/>
				<circle fill="#E74631" cx="308.29" cy="434.22" r="4.44"/>
				<path fill="#E74631" d="M289.09,408.76h-5.99c-0.89,0.81-1.45,1.97-1.45,3.27c0,2.45,1.99,4.44,4.44,4.44
					c2.45,0,4.44-1.99,4.44-4.44C290.53,410.73,289.97,409.57,289.09,408.76z"/>
				<path fill="#E74631" d="M311.28,408.76h-5.99c-0.89,0.81-1.45,1.97-1.45,3.27c0,2.45,1.99,4.44,4.44,4.44
					c2.45,0,4.44-1.99,4.44-4.44C312.73,410.73,312.17,409.57,311.28,408.76z"/>
				<circle fill="#E74631" cx="319.39" cy="423.13" r="4.44"/>
				<circle fill="#E74631" cx="297.19" cy="423.13" r="4.44"/>
				<circle fill="#E74631" cx="330.49" cy="434.22" r="4.44"/>
				<path fill="#E74631" d="M333.48,408.76h-5.99c-0.89,0.81-1.45,1.97-1.45,3.27c0,2.45,1.99,4.44,4.44,4.44
					c2.45,0,4.44-1.99,4.44-4.44C334.92,410.73,334.36,409.57,333.48,408.76z"/>
				<circle fill="#E74631" cx="286.09" cy="478.62" r="4.44"/>
				<circle fill="#E74631" cx="308.29" cy="478.62" r="4.44"/>
				<circle fill="#E74631" cx="286.09" cy="456.42" r="4.44"/>
				<circle fill="#E74631" cx="308.29" cy="456.42" r="4.44"/>
				<circle fill="#E74631" cx="319.39" cy="467.52" r="4.44"/>
				<circle fill="#E74631" cx="297.19" cy="467.52" r="4.44"/>
				<circle fill="#E74631" cx="319.39" cy="445.32" r="4.44"/>
				<circle fill="#E74631" cx="297.19" cy="445.32" r="4.44"/>
				<circle fill="#E74631" cx="330.49" cy="478.62" r="4.44"/>
				<circle fill="#E74631" cx="330.49" cy="456.42" r="4.44"/>
				<circle fill="#E74631" cx="286.09" cy="434.22" r="4.44"/>
				<circle fill="#E74631" cx="308.29" cy="434.22" r="4.44"/>
				<circle fill="#E74631" cx="330.49" cy="434.22" r="4.44"/>
				<circle fill="#E74631" cx="286.09" cy="500.81" r="4.44"/>
				<circle fill="#E74631" cx="308.29" cy="500.81" r="4.44"/>
				<circle fill="#E74631" cx="319.39" cy="511.91" r="4.44"/>
				<circle fill="#E74631" cx="297.19" cy="511.91" r="4.44"/>
				<circle fill="#E74631" cx="319.39" cy="489.72" r="4.44"/>
				<circle fill="#E74631" cx="297.19" cy="489.72" r="4.44"/>
				<circle fill="#E74631" cx="330.49" cy="500.81" r="4.44"/>
				<circle fill="#E74631" cx="286.09" cy="478.62" r="4.44"/>
				<circle fill="#E74631" cx="308.29" cy="478.62" r="4.44"/>
				<circle fill="#E74631" cx="330.49" cy="478.62" r="4.44"/>
			</g>
		</g>
		<circle id="XMLID_3876_" fill="#E74631" cx="308.69" cy="320.47" r="8.75"/>
		<g id="XMLID_3877_">
			<path id="XMLID_11_" fill="#FFFFFF" stroke="#000000" stroke-width="0.75" stroke-linejoin="bevel" stroke-miterlimit="10" d="
				M309.42,306.29c0,0,7.15,1.81,7.18,7.65v2.92c0,0,2.21,7.42-2.65,12.35l-0.94,1.15l-3.91,0.59L309.42,306.29z"/>
			<path id="XMLID_3894_" fill="#FFFFFF" stroke="#000000" stroke-width="0.75" stroke-linejoin="bevel" stroke-miterlimit="10" d="
				M255.79,329.75c0,0-5.19-4.99-4.18-16.09c1.01-11.1,2.69-14.49,8.73-20.35c6.05-5.87,29.14-5.89,36.57,0
				c7.43,5.89,13.89,13.61,14.69,17.42c0.8,3.81,0.8,3.81,0.8,3.81"/>
			<path id="XMLID_3878_" fill="none" stroke="#000000" stroke-width="0.75" stroke-linejoin="bevel" stroke-miterlimit="10" d="
				M280.1,357.23c0,0-0.09-1.37,0.3-5.73c0.38-4.36,9.95-3.29,12.63-12.16c2.67-8.88,2.88-14.6,2.88-14.6s1.32-6.1-5.83-13
				c-5.63-5.43-13.88-7.53-19.08-6.76c-4.11,0.6-10.36,5.76-13.04,8.98c-1.24,1.49-2.98,8.5-2.98,8.5s-0.12,15.66,9.3,22.63
				c9.09,6.73,7.51,0.54,5.37,12.57"/>
			<g id="XMLID_3879_">
				<path id="XMLID_3880_" fill="none" stroke="#000000" stroke-width="0.75" stroke-linejoin="bevel" stroke-miterlimit="10" d="
					M307.07,318.66c0,0-2.26,0.62-1.29,2.82C306.75,323.69,310.47,320.58,307.07,318.66z"/>
				<path id="XMLID_3881_" fill="none" stroke="#000000" stroke-width="0.75" stroke-linejoin="bevel" stroke-miterlimit="10" d="
					M305.62,319.95c0,0-2.41-5.65,2.88-3.89c5.29,1.76-0.02,4.38-0.02,4.38"/>
				<path id="XMLID_3882_" fill="none" stroke="#000000" stroke-width="0.75" stroke-linejoin="bevel" stroke-miterlimit="10" d="
					M310.64,318.66c0,0,2.05,0.32,0.2,3.58c-1.84,3.26-3.84-0.02-3.84-0.02"/>
				<path id="XMLID_3883_" fill="none" stroke="#000000" stroke-width="0.75" stroke-linejoin="bevel" stroke-miterlimit="10" d="
					M305.07,317.1c0,0-3.8,1.16-2.8,3.35c1,2.18,2.22,3.85,3.51,1.03"/>
				<path id="XMLID_3884_" fill="none" stroke="#000000" stroke-width="0.75" stroke-linejoin="bevel" stroke-miterlimit="10" d="
					M309.31,323.84c0,0-2.71,5.2-5.37-0.87"/>
				<path id="XMLID_3885_" fill="none" stroke="#000000" stroke-width="0.75" stroke-linejoin="bevel" stroke-miterlimit="10" d="
					M308.5,316.07c0,0-1-4.99-4.56-2.79s-0.82,4.81-0.82,4.81"/>
				<path id="XMLID_3886_" fill="none" stroke="#000000" stroke-width="0.75" stroke-linejoin="bevel" stroke-miterlimit="10" d="
					M311.61,318.66c0,0,4.69-5.94-4.61-5.41"/>
				<path id="XMLID_3887_" fill="none" stroke="#000000" stroke-width="0.75" stroke-linejoin="bevel" stroke-miterlimit="10" d="
					M312.79,317.1c0,0,2.94,1.7,1.47,5.14c-1.47,3.44-3.93,0.73-3.93,0.73"/>
				<path id="XMLID_3888_" fill="none" stroke="#000000" stroke-width="0.75" stroke-linejoin="bevel" stroke-miterlimit="10" d="
					M302.1,315.94c0,0-3.07,0.41-2.5,4.1s3.67,2.2,3.67,2.2"/>
				<path id="XMLID_3889_" fill="none" stroke="#000000" stroke-width="0.75" stroke-linejoin="bevel" stroke-miterlimit="10" d="
					M300.82,322.24c0,0-1.31,1.97,0,4.17c1.31,2.2,4.96-0.82,4.96-0.82"/>
				<path id="XMLID_3890_" fill="none" stroke="#000000" stroke-width="0.75" stroke-linejoin="bevel" stroke-miterlimit="10" d="
					M303.94,326.75c0,0,2.35,3.4,4.02,2.35c1.67-1.06,1.01-4.37,1.01-4.37"/>
				<path id="XMLID_3891_" fill="none" stroke="#000000" stroke-width="0.75" stroke-linejoin="bevel" stroke-miterlimit="10" d="
					M313.49,323.44c0,0-0.17,6.48-4.59,4.19"/>
			</g>
			<path id="XMLID_3892_" fill="#FFFFFF" stroke="#000000" stroke-width="0.75" stroke-linejoin="bevel" stroke-miterlimit="10" d="
				M316.59,323.39c0,0,2.2-2.16,4.89,0.52C321.48,323.91,317.73,327.59,316.59,323.39z"/>
			<path id="XMLID_3893_" fill="#FFFFFF" stroke="#000000" stroke-width="0.75" stroke-linejoin="bevel" stroke-miterlimit="10" d="
				M313.95,329.22c0,0-1.86,3.01,1.3,4.56C315.25,333.78,317.47,330.44,313.95,329.22z"/>
			<path id="XMLID_3895_" fill="none" stroke="#000000" stroke-width="0.75" stroke-linejoin="bevel" stroke-miterlimit="10" d="
				M303.01,328.71"/>
			<path id="XMLID_3896_" fill="none" stroke="#000000" stroke-width="0.75" stroke-linejoin="bevel" stroke-miterlimit="10" d="
				M287.58,311.72"/>
			
				<circle id="XMLID_3897_" fill="none" stroke="#000000" stroke-width="0.75" stroke-linejoin="bevel" stroke-miterlimit="10" cx="299.94" cy="310.26" r="1.46"/>
			
				<circle id="XMLID_3898_" fill="none" stroke="#000000" stroke-width="0.75" stroke-linejoin="bevel" stroke-miterlimit="10" cx="307.96" cy="333.23" r="1.46"/>
			
				<circle id="XMLID_3899_" fill="none" stroke="#000000" stroke-width="0.75" stroke-linejoin="bevel" stroke-miterlimit="10" cx="303.01" cy="335.87" r="1.46"/>
			
				<circle id="XMLID_3900_" fill="none" stroke="#000000" stroke-width="0.75" stroke-linejoin="bevel" stroke-miterlimit="10" cx="303.01" cy="331.77" r="1.46"/>
			
				<circle id="XMLID_3901_" fill="none" stroke="#000000" stroke-width="0.75" stroke-linejoin="bevel" stroke-miterlimit="10" cx="303.28" cy="343.53" r="1.46"/>
			
				<circle id="XMLID_3902_" fill="none" stroke="#000000" stroke-width="0.75" stroke-linejoin="bevel" stroke-miterlimit="10" cx="303.28" cy="339.43" r="1.46"/>
			
				<circle id="XMLID_3903_" fill="none" stroke="#000000" stroke-width="0.75" stroke-linejoin="bevel" stroke-miterlimit="10" cx="307.96" cy="341.48" r="1.46"/>
			
				<circle id="XMLID_3904_" fill="none" stroke="#000000" stroke-width="0.75" stroke-linejoin="bevel" stroke-miterlimit="10" cx="307.85" cy="345.18" r="1.46"/>
			
				<circle id="XMLID_3905_" fill="none" stroke="#000000" stroke-width="0.75" stroke-linejoin="bevel" stroke-miterlimit="10" cx="307.96" cy="337.37" r="1.46"/>
			
				<circle id="XMLID_3906_" fill="#FFFFFF" stroke="#000000" stroke-width="0.75" stroke-linejoin="bevel" stroke-miterlimit="10" cx="316.59" cy="315.4" r="1.46"/>
			<ellipse transform="matrix(0.263 -0.9648 0.9648 0.263 -122.6064 497.1985)" cx="264.14" cy="328.85" rx="0.94" ry="1.69"/>
			<ellipse transform="matrix(0.9944 -0.1056 0.1056 0.9944 -33.3239 31.6164)" cx="281.95" cy="330.54" rx="1.69" ry="0.94"/>
			<path id="XMLID_3907_" fill="none" stroke="#000000" stroke-width="0.75" stroke-miterlimit="10" d="M270.99,331.57
				c0,0-1.34,3.08,0,4.3"/>
			<path id="XMLID_3908_" fill="none" stroke="#000000" stroke-width="0.75" stroke-miterlimit="10" d="M267.51,324.73
				c0,0-3.45-3.44-7.84-0.74"/>
			<path id="XMLID_3909_" fill="none" stroke="#000000" stroke-width="0.75" stroke-miterlimit="10" d="M285.87,326.8
				c0,0-3.45-3.44-7.84-0.74"/>
			<path fill="none" stroke="#000000" stroke-width="0.75" stroke-miterlimit="10" d="M267.69,340.01c0,0,3.16,1.8,6.61,0.26"/>
			
				<line id="XMLID_3910_" fill="none" stroke="#000000" stroke-width="0.75" stroke-linejoin="bevel" stroke-miterlimit="10" x1="309.9" y1="328.22" x2="307.96" y2="331.77"/>
			
				<line id="XMLID_3911_" fill="none" stroke="#000000" stroke-width="0.75" stroke-linejoin="bevel" stroke-miterlimit="10" x1="306.49" y1="333.23" x2="304.47" y2="335.87"/>
			<path id="XMLID_3912_" fill="none" stroke="#000000" stroke-width="0.75" stroke-linejoin="bevel" stroke-miterlimit="10" d="
				M301.41,336.71c0,0-5.75,5.16-8.39,2.62"/>
			
				<polygon id="XMLID_3916_" fill="none" stroke="#000000" stroke-width="0.75" stroke-linejoin="bevel" stroke-miterlimit="10" points="
				267.69,355.44 274.3,362.91 270.99,366.04 263.59,356.47 			"/>
			
				<polygon id="XMLID_3917_" fill="none" stroke="#000000" stroke-width="0.75" stroke-linejoin="bevel" stroke-miterlimit="10" points="
				281.95,355.44 270.99,366.04 276.47,370.23 285.87,358.15 			"/>
			
				<polyline id="XMLID_3918_" fill="none" stroke="#000000" stroke-width="0.75" stroke-linejoin="bevel" stroke-miterlimit="10" points="
				263.59,356.47 256.16,359.74 270.69,377.78 276.47,370.23 			"/>
			
				<polygon id="XMLID_3919_" fill="#FFFFFF" stroke="#000000" stroke-width="0.75" stroke-linejoin="bevel" stroke-miterlimit="10" points="
				285.87,358.15 293.02,362.23 266.31,396.84 256.16,396.84 270.69,377.78 			"/>
			
				<polygon id="XMLID_3920_" fill="none" stroke="#000000" stroke-width="0.75" stroke-linejoin="bevel" stroke-miterlimit="10" points="
				252.74,396.84 290.34,396.84 290.69,410.85 253.08,410.85 			"/>
			<path id="XMLID_3921_" fill="none" stroke="#000000" stroke-width="0.75" stroke-linejoin="bevel" stroke-miterlimit="10" d="
				M256.16,359.74c0,0-9.62-1.35-14.13,34.39l-11.96-25.32c0,0-18.03,11.02-23.51,15.09c16.59,35.21,38.33,51.65,43.3,46.97
				c2.88-2.71,3.58-8.68,3.58-8.68"/>
			<path id="XMLID_3922_" fill="none" stroke="#000000" stroke-width="0.75" stroke-linejoin="bevel" stroke-miterlimit="10" d="
				M252.74,396.84c0,0-2.65-7.75,1.11-15.5"/>
			
				<line id="XMLID_3923_" fill="none" stroke="#000000" stroke-width="0.75" stroke-linejoin="bevel" stroke-miterlimit="10" x1="252.81" y1="399.91" x2="290.34" y2="399.91"/>
			
				<line id="XMLID_3924_" fill="none" stroke="#000000" stroke-width="0.75" stroke-linejoin="bevel" stroke-miterlimit="10" x1="253.85" y1="407.11" x2="290.34" y2="407.11"/>
			<path id="XMLID_3925_" fill="none" stroke="#000000" stroke-width="0.75" stroke-linejoin="bevel" stroke-miterlimit="10" d="
				M253.08,410.85l3.08,86.63c0,0,28.73,5.36,41.05,1.42c0,0,8.23-43.61,4.91-62.76"/>
			<path id="XMLID_3926_" fill="none" stroke="#000000" stroke-width="0.75" stroke-linejoin="bevel" stroke-miterlimit="10" d="
				M281.93,499.58l0.53,10.52c0,0-15.51-0.3-12.98,7.11h20.93l-1.08-16.86"/>
			<path id="XMLID_3927_" fill="none" stroke="#000000" stroke-width="0.75" stroke-linejoin="bevel" stroke-miterlimit="10" d="
				M272.55,512.28l4.17,1.28c1.62,0.5,3.32,0.72,5.03,0.66l8.12-0.28"/>
			<path id="XMLID_3928_" fill="none" stroke="#000000" stroke-width="0.75" stroke-linejoin="bevel" stroke-miterlimit="10" d="
				M269.2,499.37l2.51,9.47c0,0-13.46,0.06-11.84,8.37h9.61"/>
			
				<line id="XMLID_3929_" fill="none" stroke="#000000" stroke-width="0.75" stroke-linejoin="bevel" stroke-miterlimit="10" x1="277.2" y1="500.35" x2="277.68" y2="509.89"/>
			<path id="XMLID_3930_" fill="none" stroke="#000000" stroke-width="0.75" stroke-linejoin="bevel" stroke-miterlimit="10" d="
				M263.86,510.97c0,0,3.16,2.88,6.45,2.9"/>
		</g>
	</g>
	<g>
		<path id="XMLID_3029_" fill="#FFFFFF" stroke="#000000" stroke-width="0.75" stroke-linejoin="round" stroke-miterlimit="10" d="
			M204.38,315.58c0,0,7.42,1.91,12.43,0.22s8.33-9.37,13.01-11.12l5.76,18.43c0,0-2.81,0.01-5.95,2.98
			c-3.14,2.97-5.46,6.28-10.07,6.49c-4.74,0.21-11.77-0.71-11.77-0.71"/>
		
			<ellipse id="XMLID_2974_" transform="matrix(0.9544 -0.2985 0.2985 0.9544 -86.3714 80.3391)" fill="#E74631" cx="219.86" cy="322.96" rx="4.32" ry="4.32"/>
		
			<polygon id="XMLID_9_" fill="#FFFFFF" stroke="#000000" stroke-width="0.75" stroke-linejoin="round" stroke-miterlimit="10" points="
			216.92,375.31 204.38,315.58 201.18,316.08 214.15,376.17 		"/>
		
			<ellipse id="XMLID_3030_" transform="matrix(0.9544 -0.2985 0.2985 0.9544 -86.3057 80.3291)" fill="none" stroke="#000000" stroke-width="0.75" stroke-linejoin="round" stroke-miterlimit="10" cx="219.86" cy="322.74" rx="4.32" ry="4.32"/>
	</g>
	<path id="XMLID_8_" fill="#FFFFFF" stroke="#000000" stroke-width="0.75" stroke-linejoin="bevel" stroke-miterlimit="10" d="
		M202.55,362.74c0,0,5.55-17.6,14.73-4.43c2.82,4.04-3.87,2.93-5.59,4.46c-2.87,2.56-4.81,3.3-6.56,3.27
		C203.37,366.02,202.55,362.74,202.55,362.74z"/>
	<g>
		<path fill="#FFFFFF" stroke="#000000" stroke-width="0.75" stroke-linejoin="round" stroke-miterlimit="10" d="M280.33,354.08
			c0,0,4.29,1.36,2.74,7.67c-1.46,5.93-6.84,18.52-8.99,21.38l-1.26-0.2c0,0,4.65-11.4,6.11-15c2.32-5.72,2.13-10.2,1.26-11.99
			L280.33,354.08z"/>
		<path fill="#FFFFFF" stroke="#000000" stroke-width="0.75" stroke-linejoin="round" stroke-miterlimit="10" d="M270.51,353.48
			c0,0-4.1,0.42-4.8,7.72c-0.58,6.08,3.86,18.98,6.02,21.84l1.09-0.11c0,0-4.92-14.66-5.14-16.89c-0.62-6.3,1.06-8.39,2.24-9.82
			L270.51,353.48z"/>
		
			<rect x="263.69" y="383.09" transform="matrix(-1 -4.485269e-11 4.485269e-11 -1 544.9025 777.4221)" fill="#FFFFFF" stroke="#000000" stroke-width="0.75" stroke-linejoin="round" stroke-miterlimit="10" width="17.52" height="11.24"/>
		
			<rect x="265.21" y="385.45" transform="matrix(-1 -4.509472e-11 4.509472e-11 -1 544.9025 778.4573)" fill="#FFFFFF" stroke="#000000" stroke-width="0.75" stroke-linejoin="round" stroke-miterlimit="10" width="14.48" height="7.56"/>
	</g>
	<g>
		<path fill="#FFFFFF" stroke="#000000" stroke-width="0.75" stroke-miterlimit="10" d="M340.12,430.58
			c0-27.12-21.98-49.1-49.1-49.1s-49.1,21.98-49.1,49.1c0,0.46,0.02,0.92,0.03,1.38h-0.03v89.76h98.19v-89.76h-0.03
			C340.1,431.5,340.12,431.04,340.12,430.58z"/>
		<g id="svg03PieRight">
			<path id="XMLID_3933_" fill="#F6F7F7" stroke="#000000" stroke-miterlimit="10" d="M290.78,431.52l-38.96,5.48
				c-3.02-21.52,11.97-41.41,33.48-44.43c1.72-0.24,3.74-0.38,5.48-0.38V431.52z"/>
			<path id="XMLID_3934_" fill="#E74631" stroke="#000000" stroke-miterlimit="10" d="M290.78,431.52v-39.34
				c21.73,0,39.34,17.61,39.34,39.34c0,21.73-17.61,39.34-39.34,39.34c-19.99,0-36.18-14.07-38.96-33.87L290.78,431.52z"/>
		</g>
		<g id="svg03TextRight">
			<text transform="matrix(1 0 0 1 252.325 489.1074)" fill="#595757" font-family="'Lato', 'Heiti TC', '儷黑 Pro', LiHei Pro', '微軟正黑體', 'Microsoft JhengHei'" font-weight='bold' font-size="13px">來台日本旅客</text>
		</g>
		<g id="svg03NumberRight">
			<text transform="matrix(1 0 0 1 252.2092 509.2002)"><tspan x="0" y="0" fill="#E74631" font-family="'Lato', 'Heiti TC', '儷黑 Pro', LiHei Pro', '微軟正黑體', 'Microsoft JhengHei'" font-weight='bold' font-size="16px">觀光占</tspan><tspan x="48" y="0" fill="#E74631" font-family="'Lato'" font-weight='bold' font-size="16px">73%</tspan></text>
		</g>
	</g>
	<path fill="#FFFFFF" stroke="#000000" stroke-width="0.75" stroke-linejoin="bevel" stroke-miterlimit="10" d="M315.43,385.46
		c0,0,2.89,7.58-6.55,7.88s-7.44-12.66-7.44-12.66L315.43,385.46z"/>
</g>
<g id="svg03GirlLeft">
	<g id="XMLID_3937_">
		<path id="XMLID_3938_" fill="#FFFFFF" d="M134.13,461.81l-5.95,32.8l0.82,20.89c0,0,17.04-0.54,15.57,11.16h-30.6l-3.37-28.21
			l-0.31-25.01l-2-23.41l1.43-10.31L134.13,461.81z"/>
		<path id="XMLID_3939_" fill="#FFFFFF" d="M121.87,289.38c0,0,15.42,4.92,18.67,12.23c3.25,7.31-0.99,13.23-0.61,19.4
			c0.39,6.16,1.71,17.07-5.41,22.15c-7.12,5.08-4.06,20.47-10.04,16.05s-3.4-8.43-7.5-12.19c-4.1-3.76-9.08-2.05-11.76-3.38
			s-8.77-5.82-8.77-5.82s-7.59,3.87-11.01-6.19c-3.42-10.06,5.55-13.46,5.55-13.46S95.28,288.56,121.87,289.38z"/>
		<g id="XMLID_3940_">
			<path id="XMLID_3941_" fill="#FFFFFF" stroke="#000000" stroke-width="0.75" stroke-linejoin="round" stroke-miterlimit="10" d="
				M145.41,357.61l17.04,30.98l20.22-28.84l6.87,1.28c0,0-19.2,34.31-23.74,39.13c-4.54,4.82-13.8-10.42-13.8-10.42l-13.85-23.63
				L145.41,357.61z"/>
			<path id="XMLID_3942_" fill="#FFFFFF" d="M133.63,348.27l-0.08,5.31c0,0,7.95,0.78,9.48,1.82s2.93,2.63,2.93,2.63l-4.13,6.78
				l0.52,4.58l-2.03,10.41v11.77l4.24,25.84l2.73,34.92l0.46,13.12l-32.55,3.07l-3.97-22.47l-1.52,23.11h-4.85l0.34-30.64
				l-1.67-17.3v-13.49l7.05-13.09l3.37-9.4l-2.15-12.81l-3.53-1.86l-7.8-6.83l5.38-5.44l10.22-1.9v-5.64l11.56,5.64L133.63,348.27z"
				/>
		</g>
		<g id="XMLID_3943_" opacity="0.72">
			<path id="XMLID_3945_" fill="#E74631" d="M133.63,348.27l-0.08,5.31c0,0,7.95,0.78,9.48,1.82s2.46,1.98,2.93,2.63
				c-3.04,1-4.13,6.78-4.13,6.78l0.52,4.58l-1.65,10.34l-0.38,11.84l4.24,25.84l1.4,8.56l1.8,39.48l-32.33,4.32l-4.19-23.72
				l-1.52,23.11h-4.85l0.34-30.64l-1.67-17.3v-13.49l10.51-19.52l-0.09-2.97l-2.5-12.44l-1.52,1.57c0,0-6.67-15.54-8.81-15.07
				c6.69-3.26,9.17-2.9,9.17-2.9h5.79v-5.64l11.56,5.64L133.63,348.27z"/>
		</g>
		<path id="XMLID_3946_" fill="#B8834E" d="M116.09,350.76c6.75,0.87,11.56,5.64,11.56,5.64h-11.56
			C116.09,356.4,116.09,351.19,116.09,350.76z"/>
		<path id="XMLID_3947_" fill="#B8834E" d="M133.63,348.27c0,0.51-0.08,5.31-0.08,5.31l-5.63,2.46
			C127.92,356.04,130.28,349.9,133.63,348.27z"/>
		<g id="XMLID_3948_">
			<path id="XMLID_3949_" fill="none" stroke="#B8834E" stroke-width="1.1328" stroke-miterlimit="10" d="M113.95,398.3
				c0,0-1.66,0.45-0.95,2.08S116.44,399.72,113.95,398.3z"/>
			<path id="XMLID_3950_" fill="none" stroke="#B8834E" stroke-width="1.1328" stroke-miterlimit="10" d="M112.88,399.25
				c0,0-1.77-4.15,2.12-2.86c3.89,1.3-0.02,3.22-0.02,3.22"/>
			<path id="XMLID_3951_" fill="none" stroke="#B8834E" stroke-width="1.1328" stroke-miterlimit="10" d="M116.57,398.3
				c0,0,1.5,0.24,0.15,2.63c-1.36,2.4-2.82-0.02-2.82-0.02"/>
			<path id="XMLID_3952_" fill="none" stroke="#B8834E" stroke-width="1.1328" stroke-miterlimit="10" d="M112.47,397.16
				c0,0-2.8,0.86-2.06,2.46s1.63,2.83,2.58,0.76"/>
			<path id="XMLID_3953_" fill="none" stroke="#B8834E" stroke-width="1.1328" stroke-miterlimit="10" d="M115.59,402.11
				c0,0-2,3.82-3.95-0.64"/>
			<path id="XMLID_3954_" fill="none" stroke="#B8834E" stroke-width="1.1328" stroke-miterlimit="10" d="M114.99,396.4
				c0,0-0.74-3.67-3.35-2.05s-0.6,3.54-0.6,3.54"/>
			<path id="XMLID_3955_" fill="none" stroke="#B8834E" stroke-width="1.1328" stroke-miterlimit="10" d="M117.28,398.3
				c0,0,3.45-4.37-3.39-3.98"/>
			<path id="XMLID_3956_" fill="none" stroke="#B8834E" stroke-width="1.1328" stroke-miterlimit="10" d="M118.15,397.16
				c0,0,2.16,1.25,1.08,3.78c-1.08,2.53-2.89,0.54-2.89,0.54"/>
			<path id="XMLID_3957_" fill="none" stroke="#B8834E" stroke-width="1.1328" stroke-miterlimit="10" d="M110.29,396.3
				c0,0-2.26,0.3-1.84,3.01c0.42,2.71,2.7,1.62,2.7,1.62"/>
			<path id="XMLID_3958_" fill="none" stroke="#B8834E" stroke-width="1.1328" stroke-miterlimit="10" d="M109.34,400.94
				c0,0-0.97,1.45,0,3.07c0.97,1.62,3.65-0.61,3.65-0.61"/>
			<path id="XMLID_3959_" fill="none" stroke="#B8834E" stroke-width="1.1328" stroke-miterlimit="10" d="M111.64,404.26
				c0,0,1.73,2.5,2.95,1.72c1.22-0.78,0.75-3.21,0.75-3.21"/>
			<path id="XMLID_3960_" fill="none" stroke="#B8834E" stroke-width="1.1328" stroke-miterlimit="10" d="M118.67,401.82
				c0,0-0.12,4.77-3.37,3.08"/>
		</g>
		<g id="XMLID_3961_">
			<path id="XMLID_3962_" fill="none" stroke="#B8834E" stroke-width="1.1328" stroke-miterlimit="10" d="M136.33,407.86
				c0,0-1.66,0.45-0.95,2.08C136.09,411.55,138.83,409.27,136.33,407.86z"/>
			<path id="XMLID_3963_" fill="none" stroke="#B8834E" stroke-width="1.1328" stroke-miterlimit="10" d="M135.26,408.81
				c0,0-1.77-4.15,2.12-2.86s-0.02,3.22-0.02,3.22"/>
			<path id="XMLID_3964_" fill="none" stroke="#B8834E" stroke-width="1.1328" stroke-miterlimit="10" d="M138.95,407.86
				c0,0,1.5,0.24,0.15,2.63c-1.36,2.4-2.82-0.02-2.82-0.02"/>
			<path id="XMLID_3965_" fill="none" stroke="#B8834E" stroke-width="1.1328" stroke-miterlimit="10" d="M134.86,406.71
				c0,0-2.8,0.86-2.06,2.46c0.74,1.61,1.63,2.83,2.58,0.76"/>
			<path id="XMLID_3966_" fill="none" stroke="#B8834E" stroke-width="1.1328" stroke-miterlimit="10" d="M137.97,411.66
				c0,0-2,3.82-3.95-0.64"/>
			<path id="XMLID_3967_" fill="none" stroke="#B8834E" stroke-width="1.1328" stroke-miterlimit="10" d="M137.38,405.95
				c0,0-0.74-3.67-3.35-2.05s-0.6,3.54-0.6,3.54"/>
			<path id="XMLID_3968_" fill="none" stroke="#B8834E" stroke-width="1.1328" stroke-miterlimit="10" d="M139.67,407.86
				c0,0,3.45-4.37-3.39-3.98"/>
			<path id="XMLID_3969_" fill="none" stroke="#B8834E" stroke-width="1.1328" stroke-miterlimit="10" d="M140.54,406.71
				c0,0,2.16,1.25,1.08,3.78c-1.08,2.53-2.89,0.54-2.89,0.54"/>
			<path id="XMLID_3970_" fill="none" stroke="#B8834E" stroke-width="1.1328" stroke-miterlimit="10" d="M132.68,405.85
				c0,0-2.26,0.3-1.84,3.01s2.7,1.62,2.7,1.62"/>
			<path id="XMLID_3971_" fill="none" stroke="#B8834E" stroke-width="1.1328" stroke-miterlimit="10" d="M131.73,410.49
				c0,0-0.97,1.45,0,3.07c0.97,1.62,3.65-0.61,3.65-0.61"/>
			<path id="XMLID_3972_" fill="none" stroke="#B8834E" stroke-width="1.1328" stroke-miterlimit="10" d="M134.03,413.81
				c0,0,1.73,2.5,2.95,1.72c1.22-0.78,0.75-3.21,0.75-3.21"/>
			<path id="XMLID_3973_" fill="none" stroke="#B8834E" stroke-width="1.1328" stroke-miterlimit="10" d="M141.05,411.37
				c0,0-0.12,4.77-3.37,3.08"/>
		</g>
		<g id="XMLID_3974_">
			<path id="XMLID_3975_" fill="none" stroke="#B8834E" stroke-width="1.1328" stroke-miterlimit="10" d="M118.68,447.4
				c0,0-1.66,0.45-0.95,2.08C118.44,451.09,121.18,448.81,118.68,447.4z"/>
			<path id="XMLID_3976_" fill="none" stroke="#B8834E" stroke-width="1.1328" stroke-miterlimit="10" d="M117.61,448.35
				c0,0-1.77-4.15,2.12-2.86c3.89,1.3-0.02,3.22-0.02,3.22"/>
			<path id="XMLID_3977_" fill="none" stroke="#B8834E" stroke-width="1.1328" stroke-miterlimit="10" d="M121.3,447.4
				c0,0,1.5,0.24,0.15,2.63s-2.82-0.02-2.82-0.02"/>
			<path id="XMLID_3978_" fill="none" stroke="#B8834E" stroke-width="1.1328" stroke-miterlimit="10" d="M117.21,446.25
				c0,0-2.8,0.86-2.06,2.46c0.74,1.61,1.63,2.83,2.58,0.76"/>
			<path id="XMLID_3979_" fill="none" stroke="#B8834E" stroke-width="1.1328" stroke-miterlimit="10" d="M120.32,451.2
				c0,0-2,3.82-3.95-0.64"/>
			<path id="XMLID_3980_" fill="none" stroke="#B8834E" stroke-width="1.1328" stroke-miterlimit="10" d="M119.73,445.49
				c0,0-0.74-3.67-3.35-2.05s-0.6,3.54-0.6,3.54"/>
			<path id="XMLID_3981_" fill="none" stroke="#B8834E" stroke-width="1.1328" stroke-miterlimit="10" d="M122.02,447.4
				c0,0,3.45-4.37-3.39-3.98"/>
			<path id="XMLID_3982_" fill="none" stroke="#B8834E" stroke-width="1.1328" stroke-miterlimit="10" d="M122.89,446.25
				c0,0,2.16,1.25,1.08,3.78s-2.89,0.54-2.89,0.54"/>
			<path id="XMLID_3983_" fill="none" stroke="#B8834E" stroke-width="1.1328" stroke-miterlimit="10" d="M115.03,445.39
				c0,0-2.26,0.3-1.84,3.02c0.42,2.71,2.7,1.62,2.7,1.62"/>
			<path id="XMLID_3984_" fill="none" stroke="#B8834E" stroke-width="1.1328" stroke-miterlimit="10" d="M114.08,450.03
				c0,0-0.97,1.45,0,3.07c0.97,1.62,3.65-0.61,3.65-0.61"/>
			<path id="XMLID_3985_" fill="none" stroke="#B8834E" stroke-width="1.1328" stroke-miterlimit="10" d="M116.38,453.35
				c0,0,1.73,2.5,2.95,1.72c1.22-0.78,0.75-3.21,0.75-3.21"/>
			<path id="XMLID_3986_" fill="none" stroke="#B8834E" stroke-width="1.1328" stroke-miterlimit="10" d="M123.4,450.91
				c0,0-0.12,4.77-3.37,3.08"/>
		</g>
		<g id="XMLID_3987_">
			<path id="XMLID_3988_" fill="none" stroke="#B8834E" stroke-width="1.1328" stroke-miterlimit="10" d="M141.6,458.29
				c0,0-1.66,0.45-0.95,2.08C141.36,461.99,144.1,459.7,141.6,458.29z"/>
			<path id="XMLID_3989_" fill="none" stroke="#B8834E" stroke-width="1.1328" stroke-miterlimit="10" d="M140.53,459.24
				c0,0-1.77-4.15,2.12-2.86s-0.02,3.22-0.02,3.22"/>
			<path id="XMLID_3990_" fill="none" stroke="#B8834E" stroke-width="1.1328" stroke-miterlimit="10" d="M144.23,458.29
				c0,0,1.5,0.24,0.15,2.63c-1.36,2.4-2.82-0.02-2.82-0.02"/>
			<path id="XMLID_3991_" fill="none" stroke="#B8834E" stroke-width="1.1328" stroke-miterlimit="10" d="M140.13,457.14
				c0,0-2.8,0.86-2.06,2.46c0.74,1.61,1.63,2.83,2.58,0.76"/>
			<path id="XMLID_3992_" fill="none" stroke="#B8834E" stroke-width="1.1328" stroke-miterlimit="10" d="M143.25,462.1
				c0,0-2,3.82-3.95-0.64"/>
			<path id="XMLID_3993_" fill="none" stroke="#B8834E" stroke-width="1.1328" stroke-miterlimit="10" d="M142.65,456.38
				c0,0-0.74-3.67-3.35-2.05s-0.6,3.54-0.6,3.54"/>
			<path id="XMLID_3994_" fill="none" stroke="#B8834E" stroke-width="1.1328" stroke-miterlimit="10" d="M144.94,458.29
				c0,0,3.45-4.37-3.39-3.98"/>
			<path id="XMLID_3995_" fill="none" stroke="#B8834E" stroke-width="1.1328" stroke-miterlimit="10" d="M145.81,457.14
				c0,0,2.16,1.25,1.08,3.78c-1.08,2.53-2.89,0.54-2.89,0.54"/>
			<path id="XMLID_3996_" fill="none" stroke="#B8834E" stroke-width="1.1328" stroke-miterlimit="10" d="M137.95,456.29
				c0,0-2.26,0.3-1.84,3.01c0.42,2.71,2.7,1.62,2.7,1.62"/>
			<path id="XMLID_3997_" fill="none" stroke="#B8834E" stroke-width="1.1328" stroke-miterlimit="10" d="M137,460.92
				c0,0-0.97,1.45,0,3.07c0.97,1.62,3.65-0.61,3.65-0.61"/>
			<path id="XMLID_3998_" fill="none" stroke="#B8834E" stroke-width="1.1328" stroke-miterlimit="10" d="M139.3,464.24
				c0,0,1.73,2.5,2.95,1.72c1.22-0.78,0.75-3.21,0.75-3.21"/>
			<path id="XMLID_3999_" fill="none" stroke="#B8834E" stroke-width="1.1328" stroke-miterlimit="10" d="M146.33,461.81
				c0,0-0.12,4.77-3.37,3.08"/>
		</g>
		<g id="XMLID_4000_">
			<path id="XMLID_4001_" fill="none" stroke="#B8834E" stroke-width="1.1328" stroke-miterlimit="10" d="M121.49,362.17
				c0,0-1.66,0.45-0.95,2.08C121.26,365.86,123.99,363.58,121.49,362.17z"/>
			<path id="XMLID_4002_" fill="none" stroke="#B8834E" stroke-width="1.1328" stroke-miterlimit="10" d="M120.42,363.12
				c0,0-1.77-4.15,2.12-2.86c3.89,1.3-0.02,3.22-0.02,3.22"/>
			<path id="XMLID_4003_" fill="none" stroke="#B8834E" stroke-width="1.1328" stroke-miterlimit="10" d="M124.12,362.17
				c0,0,1.5,0.24,0.15,2.63s-2.82-0.02-2.82-0.02"/>
			<path id="XMLID_4004_" fill="none" stroke="#B8834E" stroke-width="1.1328" stroke-miterlimit="10" d="M120.02,361.02
				c0,0-2.8,0.86-2.06,2.46c0.74,1.61,1.63,2.83,2.58,0.76"/>
			<path id="XMLID_4005_" fill="none" stroke="#B8834E" stroke-width="1.1328" stroke-miterlimit="10" d="M123.14,365.97
				c0,0-2,3.82-3.95-0.64"/>
			<path id="XMLID_4006_" fill="none" stroke="#B8834E" stroke-width="1.1328" stroke-miterlimit="10" d="M122.54,360.26
				c0,0-0.74-3.67-3.35-2.05s-0.6,3.54-0.6,3.54"/>
			<path id="XMLID_4007_" fill="none" stroke="#B8834E" stroke-width="1.1328" stroke-miterlimit="10" d="M124.83,362.17
				c0,0,3.45-4.37-3.39-3.98"/>
			<path id="XMLID_4008_" fill="none" stroke="#B8834E" stroke-width="1.1328" stroke-miterlimit="10" d="M125.7,361.02
				c0,0,2.16,1.25,1.08,3.78s-2.89,0.54-2.89,0.54"/>
			<path id="XMLID_4009_" fill="none" stroke="#B8834E" stroke-width="1.1328" stroke-miterlimit="10" d="M117.84,360.16
				c0,0-2.26,0.3-1.84,3.02s2.7,1.62,2.7,1.62"/>
			<path id="XMLID_4010_" fill="none" stroke="#B8834E" stroke-width="1.1328" stroke-miterlimit="10" d="M116.89,364.8
				c0,0-0.97,1.45,0,3.07c0.97,1.62,3.65-0.61,3.65-0.61"/>
			<path id="XMLID_4011_" fill="none" stroke="#B8834E" stroke-width="1.1328" stroke-miterlimit="10" d="M119.19,368.12
				c0,0,1.73,2.5,2.95,1.72s0.75-3.21,0.75-3.21"/>
			<path id="XMLID_4012_" fill="none" stroke="#B8834E" stroke-width="1.1328" stroke-miterlimit="10" d="M126.22,365.68
				c0,0-0.12,4.77-3.37,3.08"/>
		</g>
		<g id="XMLID_4013_">
			<path id="XMLID_4014_" fill="none" stroke="#B8834E" stroke-width="1.1328" stroke-miterlimit="10" d="M130.12,378.59
				c0,0-2.2,0.6-1.26,2.74C129.8,383.47,133.41,380.46,130.12,378.59z"/>
			<path id="XMLID_4015_" fill="none" stroke="#B8834E" stroke-width="1.1328" stroke-miterlimit="10" d="M128.7,379.85
				c0,0-2.34-5.49,2.8-3.77c5.14,1.71-0.02,4.26-0.02,4.26"/>
			<path id="XMLID_4016_" fill="none" stroke="#B8834E" stroke-width="1.1328" stroke-miterlimit="10" d="M133.58,378.59
				c0,0,1.99,0.31,0.2,3.48c-1.79,3.16-3.73-0.02-3.73-0.02"/>
			<path id="XMLID_4017_" fill="none" stroke="#B8834E" stroke-width="1.1328" stroke-miterlimit="10" d="M128.17,377.08
				c0,0-3.69,1.13-2.72,3.25c0.97,2.12,2.15,3.74,3.41,1"/>
			<path id="XMLID_4018_" fill="none" stroke="#B8834E" stroke-width="1.1328" stroke-miterlimit="10" d="M132.29,383.62
				c0,0-2.64,5.05-5.21-0.84"/>
			<path id="XMLID_4019_" fill="none" stroke="#B8834E" stroke-width="1.1328" stroke-miterlimit="10" d="M131.5,376.07
				c0,0-0.97-4.85-4.43-2.71c-3.45,2.14-0.8,4.67-0.8,4.67"/>
			<path id="XMLID_4020_" fill="none" stroke="#B8834E" stroke-width="1.1328" stroke-miterlimit="10" d="M134.52,378.59
				c0,0,4.55-5.77-4.47-5.26"/>
			<path id="XMLID_4021_" fill="none" stroke="#B8834E" stroke-width="1.1328" stroke-miterlimit="10" d="M135.67,377.08
				c0,0,2.85,1.65,1.43,4.99s-3.82,0.71-3.82,0.71"/>
			<path id="XMLID_4022_" fill="none" stroke="#B8834E" stroke-width="1.1328" stroke-miterlimit="10" d="M125.29,375.95
				c0,0-2.98,0.4-2.43,3.98c0.55,3.58,3.57,2.14,3.57,2.14"/>
			<path id="XMLID_4023_" fill="none" stroke="#B8834E" stroke-width="1.1328" stroke-miterlimit="10" d="M124.04,382.07
				c0,0-1.27,1.91,0,4.05c1.27,2.14,4.82-0.8,4.82-0.8"/>
			<path id="XMLID_4024_" fill="none" stroke="#B8834E" stroke-width="1.1328" stroke-miterlimit="10" d="M127.07,386.45
				c0,0,2.28,3.31,3.9,2.28c1.62-1.03,0.98-4.25,0.98-4.25"/>
			<path id="XMLID_4025_" fill="none" stroke="#B8834E" stroke-width="1.1328" stroke-miterlimit="10" d="M136.35,383.24
				c0,0-0.16,6.29-4.45,4.07"/>
		</g>
		<g id="XMLID_4026_">
			<path id="XMLID_4027_" fill="none" stroke="#B8834E" stroke-width="1.1328" stroke-miterlimit="10" d="M117.1,419.38
				c0,0-2.2,0.6-1.26,2.74S120.4,421.24,117.1,419.38z"/>
			<path id="XMLID_4028_" fill="none" stroke="#B8834E" stroke-width="1.1328" stroke-miterlimit="10" d="M115.69,420.63
				c0,0-2.34-5.49,2.8-3.77s-0.02,4.26-0.02,4.26"/>
			<path id="XMLID_4029_" fill="none" stroke="#B8834E" stroke-width="1.1328" stroke-miterlimit="10" d="M120.57,419.38
				c0,0,1.99,0.31,0.2,3.48c-1.79,3.16-3.73-0.02-3.73-0.02"/>
			<path id="XMLID_4030_" fill="none" stroke="#B8834E" stroke-width="1.1328" stroke-miterlimit="10" d="M115.16,417.86
				c0,0-3.69,1.13-2.72,3.25c0.97,2.12,2.15,3.74,3.41,1"/>
			<path id="XMLID_4031_" fill="none" stroke="#B8834E" stroke-width="1.1328" stroke-miterlimit="10" d="M119.28,424.4
				c0,0-2.64,5.05-5.21-0.84"/>
			<path id="XMLID_4032_" fill="none" stroke="#B8834E" stroke-width="1.1328" stroke-miterlimit="10" d="M118.49,416.86
				c0,0-0.97-4.85-4.43-2.71c-3.45,2.14-0.8,4.67-0.8,4.67"/>
			<path id="XMLID_4033_" fill="none" stroke="#B8834E" stroke-width="1.1328" stroke-miterlimit="10" d="M121.51,419.38
				c0,0,4.55-5.77-4.47-5.26"/>
			<path id="XMLID_4034_" fill="none" stroke="#B8834E" stroke-width="1.1328" stroke-miterlimit="10" d="M122.66,417.86
				c0,0,2.85,1.65,1.43,4.99c-1.42,3.34-3.82,0.71-3.82,0.71"/>
			<path id="XMLID_4035_" fill="none" stroke="#B8834E" stroke-width="1.1328" stroke-miterlimit="10" d="M112.28,416.73
				c0,0-2.98,0.4-2.43,3.98c0.55,3.58,3.57,2.14,3.57,2.14"/>
			<path id="XMLID_4036_" fill="none" stroke="#B8834E" stroke-width="1.1328" stroke-miterlimit="10" d="M111.03,422.85
				c0,0-1.27,1.91,0,4.05c1.27,2.14,4.82-0.8,4.82-0.8"/>
			<path id="XMLID_4037_" fill="none" stroke="#B8834E" stroke-width="1.1328" stroke-miterlimit="10" d="M114.06,427.24
				c0,0,2.28,3.31,3.9,2.28c1.62-1.03,0.98-4.25,0.98-4.25"/>
			<path id="XMLID_4038_" fill="none" stroke="#B8834E" stroke-width="1.1328" stroke-miterlimit="10" d="M123.34,424.02
				c0,0-0.16,6.29-4.45,4.07"/>
		</g>
		<g id="XMLID_4039_">
			<path id="XMLID_4040_" fill="none" stroke="#B8834E" stroke-width="1.1328" stroke-miterlimit="10" d="M136.07,432.8
				c0,0-2.2,0.6-1.26,2.74C135.75,437.68,139.37,434.67,136.07,432.8z"/>
			<path id="XMLID_4041_" fill="none" stroke="#B8834E" stroke-width="1.1328" stroke-miterlimit="10" d="M134.66,434.06
				c0,0-2.34-5.49,2.8-3.77c5.14,1.71-0.02,4.26-0.02,4.26"/>
			<path id="XMLID_4042_" fill="none" stroke="#B8834E" stroke-width="1.1328" stroke-miterlimit="10" d="M139.53,432.8
				c0,0,1.99,0.31,0.2,3.48c-1.79,3.16-3.73-0.02-3.73-0.02"/>
			<path id="XMLID_4043_" fill="none" stroke="#B8834E" stroke-width="1.1328" stroke-miterlimit="10" d="M134.12,431.29
				c0,0-3.69,1.13-2.72,3.25s2.15,3.74,3.41,1"/>
			<path id="XMLID_4044_" fill="none" stroke="#B8834E" stroke-width="1.1328" stroke-miterlimit="10" d="M138.24,437.83
				c0,0-2.64,5.05-5.21-0.84"/>
			<path id="XMLID_4045_" fill="none" stroke="#B8834E" stroke-width="1.1328" stroke-miterlimit="10" d="M137.45,430.28
				c0,0-0.97-4.85-4.43-2.71c-3.45,2.14-0.8,4.67-0.8,4.67"/>
			<path id="XMLID_4046_" fill="none" stroke="#B8834E" stroke-width="1.1328" stroke-miterlimit="10" d="M140.48,432.8
				c0,0,4.55-5.77-4.47-5.26"/>
			<path id="XMLID_4047_" fill="none" stroke="#B8834E" stroke-width="1.1328" stroke-miterlimit="10" d="M141.63,431.29
				c0,0,2.85,1.65,1.43,4.99s-3.82,0.71-3.82,0.71"/>
			<path id="XMLID_4048_" fill="none" stroke="#B8834E" stroke-width="1.1328" stroke-miterlimit="10" d="M131.24,430.16
				c0,0-2.98,0.4-2.43,3.98c0.55,3.58,3.57,2.14,3.57,2.14"/>
			<path id="XMLID_4049_" fill="none" stroke="#B8834E" stroke-width="1.1328" stroke-miterlimit="10" d="M129.99,436.28
				c0,0-1.27,1.91,0,4.05c1.27,2.14,4.82-0.8,4.82-0.8"/>
			<path id="XMLID_4050_" fill="none" stroke="#B8834E" stroke-width="1.1328" stroke-miterlimit="10" d="M133.03,440.66
				c0,0,2.28,3.31,3.9,2.28c1.62-1.03,0.98-4.25,0.98-4.25"/>
			<path id="XMLID_4051_" fill="none" stroke="#B8834E" stroke-width="1.1328" stroke-miterlimit="10" d="M142.31,437.45
				c0,0-0.16,6.29-4.45,4.07"/>
		</g>
		<g id="XMLID_4052_">
			<path id="XMLID_4055_" fill="#FFFFFF" stroke="#000000" stroke-width="0.75" stroke-linejoin="round" stroke-miterlimit="10" d="
				M112.88,343.26c-16.1,3.19-27.68-14.06-18.1-37.04s30.67-16.1,30.67-16.1s14.87,3.06,16.02,16.1
				c1.37,15.65-1.53,14.79-1.53,14.79"/>
			<path id="XMLID_4053_" fill="none" stroke="#000000" stroke-width="0.75" stroke-linejoin="round" stroke-miterlimit="10" d="
				M106.09,327.15c0,0-5.42-0.31-3.9,5.26c1.52,5.57,2.45,1.6,4.62,3.81c2.87,2.92,4.77,6.21,8.22,9.03c6,4.91,4.04,6.02,4.04,6.02"
				/>
			<path id="XMLID_4054_" fill="none" stroke="#000000" stroke-width="0.75" stroke-linejoin="round" stroke-miterlimit="10" d="
				M100.49,326.29c4.23,5.13,12.03-4.23,15.6-7.57c3.57-3.34,1.34-10.03,3.79-14.49c2.45-4.46,7.35-2.23,7.35-2.23
				s1.53-1.78,3.44-0.56c1.91,1.23,8.12,12.07,8.12,12.07s4.56,21.12-2.03,27.32s-5.75,9.92-5.75,9.92"/>
			<path id="XMLID_4056_" fill="none" stroke="#000000" stroke-width="0.75" stroke-linejoin="round" stroke-miterlimit="10" d="
				M90.99,318.16c0,0-6.03,0.45-6.36,8.43c-0.33,7.99,6.94,14.65,11.83,11.22"/>
			<ellipse id="XMLID_4057_" cx="134.53" cy="322.11" rx="0.9" ry="1.59"/>
			<ellipse id="XMLID_4058_" cx="118.03" cy="324.7" rx="0.9" ry="1.59"/>
			<path fill="none" stroke="#000000" stroke-width="0.75" stroke-miterlimit="10" d="M131.01,316.45c0,0,1.6-2.05,5.09-0.64"/>
			
				<line id="XMLID_4059_" fill="none" stroke="#000000" stroke-width="0.75" stroke-miterlimit="10" x1="118.93" y1="319.12" x2="116.09" y2="318.72"/>
			<path id="XMLID_4060_" fill="none" stroke="#000000" stroke-width="0.75" stroke-miterlimit="10" d="M126.32,325.29
				c0,0,3.85,3.7,2.31,6.33"/>
			<path id="XMLID_4061_" fill="none" stroke="#000000" stroke-width="0.75" stroke-miterlimit="10" d="M123.75,336.4
				c0,0,4.72,2.42,9.8-1.15"/>
			<path id="XMLID_4062_" fill="none" stroke="#000000" stroke-width="0.75" stroke-linejoin="round" stroke-miterlimit="10" d="
				M127.65,356.4c0,0-3.65-4.5-11.56-5.64v5.64H127.65z"/>
			<path id="XMLID_4063_" fill="none" stroke="#000000" stroke-width="0.75" stroke-linejoin="round" stroke-miterlimit="10" d="
				M127.65,356.4c0,0,1.71-5.54,5.98-8.13l-0.08,5.31L127.65,356.4z"/>
			<path id="XMLID_4064_" fill="none" stroke="#000000" stroke-width="0.75" stroke-linejoin="round" stroke-miterlimit="10" d="
				M127.65,356.4c0,0-14,11.05-17.71,17.96"/>
			<path id="XMLID_4065_" fill="none" stroke="#000000" stroke-width="0.75" stroke-linejoin="round" stroke-miterlimit="10" d="
				M137.9,362c0,0,6.34,2.52,3.93,12.37c-2.41,9.84-1.01,19.02,0.55,29.46c2.06,13.8,2.97,17.3,3.58,22.15s1.8,39.48,1.8,39.48
				s-28.58,5.22-32.55,3.07l-3.97-22.47l-1.52,23.11h-4.85c0,0,0.46-41.77-0.45-46.02c-0.91-4.25-1.74-11.75,0.99-19.33
				c2.73-7.58,8.85-11.14,8.56-18.58c-0.3-7.44-5.5-16.97-3.37-22.65"/>
			<path id="XMLID_4066_" fill="none" stroke="#000000" stroke-width="0.75" stroke-linejoin="round" stroke-miterlimit="10" d="
				M116.09,356.4c0,0-6.75-1.87-14.96,2.9c0,0,8.3,9.88,8.81,15.07"/>
			<path id="XMLID_4067_" fill="none" stroke="#000000" stroke-width="0.75" stroke-linejoin="round" stroke-miterlimit="10" d="
				M133.55,353.58c0,0,9.14-0.65,12.41,4.46c0,0-3.65,1.1-4.19,8.71"/>
			
				<line id="XMLID_4068_" fill="none" stroke="#000000" stroke-width="0.75" stroke-linejoin="round" stroke-miterlimit="10" x1="113.97" y1="364.87" x2="117.7" y2="368.84"/>
			
				<line id="XMLID_4069_" fill="none" stroke="#000000" stroke-width="0.75" stroke-linejoin="round" stroke-miterlimit="10" x1="117.7" y1="362" x2="121.21" y2="365.79"/>
			<path id="XMLID_4070_" fill="none" stroke="#000000" stroke-width="0.75" stroke-linejoin="round" stroke-miterlimit="10" d="
				M109.72,468.9l0.88,5.35c0,0-0.46,9.28,0,18.39s3.37,22.86,3.37,22.86h22.13c0,0,5.46-3.24-0.34-6.25
				c-4.26-2.21-13.88-0.03-13.88-0.03s-2.75-10.82-0.66-21.99s2.54-18.4,2.54-18.4"/>
			<path id="XMLID_4071_" fill="none" stroke="#000000" stroke-width="0.75" stroke-linejoin="round" stroke-miterlimit="10" d="
				M133.16,508.47c0,0-6.36,5.22-19.93,3.33"/>
			<path id="XMLID_4072_" fill="none" stroke="#000000" stroke-width="0.75" stroke-linejoin="round" stroke-miterlimit="10" d="
				M133.16,467.77c0,0-4.09,16.91-4.17,19.45c-0.08,2.55,0,19.22,0,19.22s19.21-1.1,15.57,9.05h-8.47"/>
			
				<line id="XMLID_4073_" fill="none" stroke="#000000" stroke-width="0.75" stroke-linejoin="round" stroke-miterlimit="10" x1="137.52" y1="507.04" x2="135.76" y2="509.24"/>
		</g>
	</g>
	<path id="XMLID_4103_" fill="#FFFFFF" stroke="#000000" stroke-width="0.75" stroke-linejoin="round" stroke-miterlimit="10" d="
		M101.13,359.29c0,0-15.6,11.5-27.21,22.18c-5.7,5.25-10.66,12.01-14.82,16.8c-7.12,8.18-7.03,18.67-2.03,21.09
		c5.78,2.8,4.88-5.1,7.13-10.37l0.97-8.62c0,0,8.57-10.68,15.78-15.24c13.89-8.78,26.87-16.3,26.87-16.3"/>
	<g>
		<path id="XMLID_7_" fill="#E74631" d="M167.68,308.03c-0.28,0.86-5.11,15.62-5.11,15.62s1.98,3.09,3.37,3.53
			c3.57,1.12,5.73-0.05,5.73-0.05l5.82-1.54l5.46-0.33l6.94,0.23l4.56-16.04l-4-0.79l-6.08,0.42l-6.94,2.5c0,0-3.64,0.77-6-0.1
			C169.06,310.6,167.68,308.03,167.68,308.03z"/>
		
			<polygon id="XMLID_2_" fill="#FFFFFF" stroke="#000000" stroke-width="0.75" stroke-linejoin="round" stroke-miterlimit="10" points="
			178.58,373.71 197.26,309.95 194.45,309.44 176.09,372.9 		"/>
		<path id="XMLID_1_" fill="none" stroke="#000000" stroke-width="0.75" stroke-linejoin="round" stroke-miterlimit="10" d="
			M194.45,309.44c0,0-5.11-2.51-14.64,1.34s-12.13-2.75-12.13-2.75l-5.11,15.62c0,0,1.8,4.46,6.64,4.13s7.23-2.82,12.13-2.6
			s8.55,0.3,8.55,0.3"/>
		<polygon fill="#F7B52D" points="172.22,313.9 172.68,315.79 174.49,316.49 172.84,317.51 172.74,319.45 171.26,318.19 
			169.38,318.69 170.12,316.9 169.06,315.27 171,315.42 		"/>
		<polygon id="XMLID_6_" fill="#F7B52D" points="178.8,313.33 178.72,314.19 179.38,314.74 178.53,314.93 178.21,315.73 
			177.77,314.98 176.91,314.92 177.48,314.27 177.28,313.44 178.07,313.78 		"/>
		<polygon id="XMLID_5_" fill="#F7B52D" points="177.99,316.97 177.91,317.83 178.57,318.38 177.72,318.57 177.4,319.37 
			176.96,318.62 176.1,318.56 176.67,317.91 176.47,317.07 177.26,317.42 		"/>
		<polygon id="XMLID_4_" fill="#F7B52D" points="176.28,319.71 176.2,320.57 176.86,321.13 176.01,321.31 175.69,322.11 
			175.25,321.37 174.39,321.31 174.96,320.66 174.76,319.82 175.55,320.17 		"/>
		<polygon id="XMLID_3_" fill="#F7B52D" points="173.56,321.75 173.47,322.61 174.13,323.17 173.29,323.35 172.96,324.15 
			172.52,323.41 171.66,323.34 172.24,322.7 172.03,321.86 172.82,322.21 		"/>
	</g>
	<path id="XMLID_4104_" fill="#FFFFFF" stroke="#000000" stroke-width="0.75" stroke-linejoin="bevel" stroke-miterlimit="10" d="
		M191.51,360.8c0,0-5.55-17.6-14.73-4.43c-2.82,4.04,3.87,2.93,5.59,4.46c2.87,2.56,4.81,3.3,6.56,3.27
		C190.69,364.08,191.51,360.8,191.51,360.8z"/>
	<g>
		<path fill="#FFFFFF" stroke="#000000" stroke-width="0.75" stroke-linejoin="round" stroke-miterlimit="10" d="M115.95,354.53
			c0,0-2.92,0.25-1.53,5.62c1.53,5.91,8.71,18.11,10.87,20.97l1.26-0.2c0,0-4.39-7.03-6-10.56c-1.35-2.96-5.32-12.18-4.45-13.96
			L115.95,354.53z"/>
		<path fill="#FFFFFF" stroke="#000000" stroke-width="0.75" stroke-linejoin="round" stroke-miterlimit="10" d="M133.91,352.07
			c0,0,3.23,0.72,1.84,6.09c-1.53,5.91-5.95,20.01-8.11,22.87l-1.09-0.11c0,0,3.71-10.49,4.43-12.61
			c1.33-3.89,3.66-12.59,2.79-14.37L133.91,352.07z"/>
		
			<rect x="118.15" y="381.09" fill="#FFFFFF" stroke="#000000" stroke-width="0.75" stroke-linejoin="round" stroke-miterlimit="10" width="17.52" height="11.24"/>
		
			<rect x="119.67" y="383.44" fill="#FFFFFF" stroke="#000000" stroke-width="0.75" stroke-linejoin="round" stroke-miterlimit="10" width="14.48" height="7.56"/>
	</g>
	<g id="XMLID_4096_">
		<path id="XMLID_4097_" fill="#FFFFFF" stroke="#000000" stroke-width="0.75" stroke-miterlimit="10" d="M150.6,430.35
			c0-27.12-21.98-49.1-49.1-49.1s-49.1,21.98-49.1,49.1c0,0.46,0.02,0.92,0.03,1.38h-0.03v89.76h98.19v-89.76h-0.03
			C150.58,431.27,150.6,430.81,150.6,430.35z"/>
		<g id="svg03PieLeft">
			<path id="XMLID_4099_" fill="#F6F7F7" stroke="#000000" stroke-width="0.75" stroke-miterlimit="10" d="M101.5,431.12
				l-32.07-23.3c7.72-10.63,18.93-16.34,32.07-16.34V431.12z"/>
			<path id="XMLID_4100_" fill="#E74631" stroke="#000000" stroke-width="0.75" stroke-miterlimit="10" d="M101.5,431.12v-39.64
				c21.89,0,39.64,17.75,39.64,39.64c0,21.89-17.75,39.64-39.64,39.64s-39.64-17.75-39.64-39.64c0-8.76,2.42-16.21,7.57-23.3
				L101.5,431.12z"/>
		</g>
		<g id="svg03TextLeft">
			<text transform="matrix(1 0 0 1 62.439 489.1074)" fill="#595757" font-family="'Lato', 'Heiti TC', '儷黑 Pro', LiHei Pro', '微軟正黑體', 'Microsoft JhengHei'" font-weight='bold' font-size="13px">來台中國旅客</text>
		</g>
		<g id="svg03NumberLeft">
			<text transform="matrix(1 0 0 1 62.3237 509.2002)"><tspan x="0" y="0" fill="#E74631" font-family="'Lato', 'Heiti TC', '儷黑 Pro', LiHei Pro', '微軟正黑體', 'Microsoft JhengHei'" font-weight='bold' font-size="16px">觀光占</tspan><tspan x="48" y="0" fill="#E74631" font-family="'Lato'" font-weight='bold' font-size="16px">82%</tspan></text>
		</g>
	</g>
</g>
</svg>
